<?xml version="1.0" encoding="UTF-8"?>
<svg id="Layer_1" xmlns="http://www.w3.org/2000/svg" version="1.1"    width="50" height="50"  viewBox="0 0 50 50">
  <!-- Generator: Adobe Illustrator 29.5.1, SVG Export Plug-In . SVG Version: 2.1.0 Build 141)  -->
  <path d="M17.88,10.1c.06,0,.13.02.19.04,0,0,0,0,0,0,.05.02.11.04.15.07.01,0,.02.01.04.02.01,0,.03.02.04.03.01,0,.02.02.03.02.01,0,.03.02.04.03,0,0,.02.01.03.02.01.01.03.02.04.04,0,0,.02.02.03.03.01.01.02.02.03.03,0,.01.02.02.03.03.01.01.02.03.03.04,0,0,.01.02.02.03.01.02.02.03.03.05,0,.01.01.02.02.03,0,.02.02.03.02.05,0,0,0,.02.01.03,0,.02.01.04.02.06.01.04.03.08.03.13.01.06.02.12.02.18v2.66h12.57v-2.66s0-.09.01-.14c0-.05.02-.09.03-.14.01-.05.03-.09.05-.13,0-.02.02-.03.02-.05,0,0,.01-.02.02-.02,0-.02.02-.03.03-.05,0,0,.01-.02.02-.03.03-.04.06-.08.09-.12,0,0,.02-.01.02-.02.02-.01.03-.03.05-.04,0,0,.01-.01.02-.02.01-.01.03-.02.04-.03.01,0,.02-.01.03-.02.02-.01.03-.02.05-.03,0,0,.01,0,.02-.01.05-.03.1-.05.16-.07,0,0,0,0,0,0,.06-.02.12-.03.19-.04h.1s8.49,0,8.49,0h.1c.06.01.13.02.19.04,0,0,0,0,0,0,.05.02.11.04.15.07.01,0,.02.01.04.02.01,0,.03.02.04.03.01,0,.02.02.03.02.01,0,.03.02.04.03,0,0,.02.01.03.02.01.01.03.02.04.04,0,0,.02.02.03.03.01.01.02.02.03.03,0,.01.02.02.03.03.01.01.02.03.03.04,0,0,.01.02.02.03.01.02.02.03.03.05,0,.01.01.02.02.03,0,.01.01.03.02.04,0,.01.01.02.02.03,0,.02.01.04.02.06.01.04.03.08.03.13.01.06.02.12.02.18v2.66h5.24c1.52.08,2.74,1.34,2.74,2.88v25.42c-.08,1.47-1.26,2.66-2.74,2.73h-.15s-43.66,0-43.66,0h-.15c-1.47-.08-2.66-1.26-2.73-2.74v-.15s0-25.27,0-25.27c0-1.54,1.21-2.8,2.74-2.88h.15s5.16,0,5.16,0v-2.66s0-.09.01-.14c0-.05.02-.09.03-.14.01-.05.03-.09.05-.13,0-.02.01-.03.02-.05.02-.03.04-.07.06-.1.03-.04.06-.08.1-.12,0,0,.01-.01.02-.02.02-.02.03-.03.05-.05,0,0,0,0,.02-.01.02-.01.03-.02.05-.04,0,0,.02-.01.03-.02.02-.01.04-.02.05-.03,0,0,.01,0,.02-.01.05-.03.1-.05.16-.07,0,0,0,0,0,0,.06-.02.12-.03.19-.04h.1s8.49,0,8.49,0h.1ZM3.17,41.87h43.66v-25.27H3.17v25.27ZM18.18,33.96h-2.11v-8.39l-2.76.99v-1.82l4.76-1.72h.11v10.94ZM25.36,22.87c.56,0,1.05.08,1.47.23.43.16.79.37,1.08.65.29.28.5.62.65,1.01.15.39.23.82.23,1.3,0,.36-.06.71-.17,1.04-.11.33-.27.65-.47.97-.21.32-.46.65-.75.98-.29.33-.61.68-.97,1.04l-2.06,2.18h4.8v1.68h-7.46v-1.43l3.54-3.8c.28-.3.51-.57.7-.82.19-.25.35-.47.47-.68.12-.2.2-.39.25-.56.05-.18.08-.35.08-.51,0-.25-.04-.46-.11-.65-.07-.19-.17-.35-.29-.49-.13-.13-.29-.23-.47-.3-.18-.07-.37-.11-.59-.11-.28,0-.53.04-.74.12-.21.08-.39.19-.53.34-.15.16-.26.35-.33.58-.07.23-.11.49-.11.79h-2.1c0-.49.09-.94.28-1.37.19-.44.45-.82.79-1.14.34-.33.74-.58,1.22-.77.48-.19,1.01-.29,1.59-.29ZM34.32,30.17l.19.74.2-.74,1.86-7.14h2.33l-3.31,10.94h-2.15l-3.31-10.94h2.33l1.86,7.14Z" fill="#fff"/>
</svg>