<?xml version="1.0" encoding="UTF-8"?>
<svg id="Layer_1" xmlns="http://www.w3.org/2000/svg" version="1.1"   width="50" height="50" viewBox="0 0 64 65"> 
  <!-- Generator: Adobe Illustrator 29.5.1, SVG Export Plug-In . SVG Version: 2.1.0 Build 141)  -->
  <ellipse cx="25.51" cy="17.17" rx="3.32" ry="3.37" fill="#fff"/>
  <path d="M37.59,20.45c1.78.43,3.57-.69,3.99-2.5.42-1.81-.68-3.63-2.47-4.05-1.78-.43-3.57.69-3.99,2.5-.42,1.81.68,3.63,2.47,4.05Z" fill="#fff"/>
  <ellipse cx="25.51" cy="48.51" rx="3.32" ry="3.37" fill="#fff"/>
  <path d="M38.35,45.14c-1.83,0-3.32,1.51-3.32,3.37s1.49,3.37,3.32,3.37,3.32-1.51,3.32-3.37-1.49-3.37-3.32-3.37Z" fill="#fff"/>
  <path d="M14.82,28.04c.62.62,1.41,1.05,2.26,1.22.86.18,1.74.09,2.55-.25.81-.34,1.5-.91,1.98-1.65.48-.74.74-1.61.74-2.49h-.01c0-1.18-.46-2.32-1.29-3.16-.83-.84-1.95-1.31-3.12-1.31-.87,0-1.73.26-2.45.75-.72.49-1.29,1.19-1.62,2.01s-.42,1.72-.25,2.59.59,1.66,1.21,2.29Z" fill="#fff"/>
  <path d="M22.33,40.83c0-1.18-.46-2.32-1.29-3.16-.83-.84-1.95-1.31-3.12-1.31-.87,0-1.73.26-2.45.75-.72.49-1.29,1.19-1.62,2.01s-.42,1.72-.25,2.59c.17.87.59,1.66,1.21,2.29.62.62,1.41,1.05,2.26,1.22.86.18,1.74.09,2.55-.25.81-.34,1.5-.91,1.98-1.65.48-.74.74-1.6.74-2.49h-.01Z" fill="#fff"/>
  <path d="M49.03,21.7c-.83-.84-1.95-1.31-3.12-1.31-.87,0-1.73.26-2.45.75-.72.49-1.29,1.19-1.62,2.01s-.42,1.72-.25,2.59.59,1.66,1.21,2.29c.62.62,1.41,1.05,2.26,1.22.86.18,1.74.09,2.55-.25.81-.34,1.5-.91,1.98-1.65.48-.74.74-1.61.74-2.49h-.01c0-1.18-.46-2.32-1.29-3.16Z" fill="#fff"/>
  <path d="M49.03,37.67c-.83-.84-1.95-1.31-3.12-1.31-.87,0-1.73.26-2.45.75-.72.49-1.29,1.19-1.62,2.01s-.42,1.72-.25,2.59c.17.87.59,1.66,1.21,2.29.62.62,1.41,1.05,2.26,1.22.86.18,1.74.09,2.55-.25.81-.34,1.5-.91,1.98-1.65.48-.74.74-1.6.74-2.49h-.01c0-1.18-.46-2.32-1.29-3.16Z" fill="#fff"/>
  <path d="M46.78,17.43c1.17-.49,1.72-1.85,1.24-3.03s-1.82-1.75-2.98-1.26c-1.17.49-1.72,1.85-1.24,3.03.48,1.18,1.82,1.75,2.98,1.26Z" fill="#fff"/>
  <path d="M19.06,17.32c1.1-.62,1.5-2.03.89-3.15s-2-1.53-3.1-.9c-1.1.62-1.5,2.03-.89,3.15s2,1.53,3.1.9Z" fill="#fff"/>
  <path d="M45.9,48.07c-1.26,0-2.28,1.04-2.28,2.32s1.02,2.32,2.28,2.32,2.28-1.04,2.28-2.32-1.02-2.32-2.28-2.32Z" fill="#fff"/>
  <ellipse cx="17.96" cy="50.39" rx="2.28" ry="2.32" fill="#fff"/>
  <path d="M63.57,5.75c0-.07-.01-.15-.03-.22l-.02-.07-.06-.22s-.02-.07-.02-.07l-.02-.07-.08-.22-.02-.05-.08-.2c-.04-.08-.07-.16-.12-.24l-.05-.08-.12-.18s-.03-.05-.03-.05l-.04-.05-.14-.18s-.03-.04-.03-.04l-.03-.04-.14-.16-.04-.04-.04-.04-2.03-2.07-.06-.06-.22-.2c-.05-.06-.12-.11-.18-.15l-.07-.04-.25-.16s-.04-.03-.04-.03l-.04-.02-.25-.14c-.07-.03-.13-.06-.2-.09l-.07-.02-.29-.1c-.07-.02-.14-.04-.22-.07h-.08l-.27-.04s-.06-.01-.06-.01h-.06l-.29-.02h-5.82l-.49.02s-.07.01-.07.01h-.07l-.47.06s-.06.02-.06.02h-.06l-.49.1c-.06.01-.11.02-.17.04l-.06.02-.45.16-.06.02-.45.18c-.05.02-.15.07-.15.07l-.05.03-.43.24-.08.05-.41.26s-.12.08-.12.08l-.04.03-.37.3s-.04.03-.04.03l-.04.03-.37.34s-.03.03-.03.03l-.03.03-3.38,3.44-.27.26-.27.2-.27.18-.31.16-.31.14-.34.1-.34.09-.32.04-.37.02h-17.52l-.37-.02-.32-.04-.34-.09-.34-.1-.31-.14-.31-.16-.26-.17-.27-.21-.27-.25-3.39-3.44s-.03-.03-.03-.03l-.03-.03-.37-.34s-.04-.03-.04-.03l-.04-.03-.37-.3s-.12-.09-.12-.09l-.04-.03-.41-.26-.08-.05-.43-.24-.14-.07-.05-.02-.45-.18-.06-.02-.45-.16c-.06-.02-.11-.03-.17-.06h-.06l-.49-.1s-.06-.02-.06-.02h-.06l-.47-.06s-.07-.01-.07-.01h-.07l-.49-.02h-.08s-5.63,0-5.63,0h-.12l-.29.02s-.06.01-.06.01h-.06l-.27.04c-.08.01-.16.03-.23.05l-.07.02-.29.1c-.07.02-.14.05-.2.08l-.06.03-.25.14s-.04.02-.04.02l-.04.02-.25.16c-.06.04-.13.09-.19.14l-.06.05-.22.2-.06.06-1.96,2.11s-.04.04-.04.04l-.04.04-.14.16s-.03.04-.03.04l-.03.04-.14.18s-.04.05-.04.05l-.03.05-.12.18c-.05.07-.09.15-.13.23l-.03.08-.08.2-.02.05-.08.22s-.02.07-.02.07l-.02.07-.06.22c-.02.07-.03.15-.05.22v.07l-.04.44v.48l.02.28c.01.09.02.17.04.26l.06.26c.02.08.04.16.07.23l.1.26c.04.09.07.17.12.25l.14.24.03.06s.08.11.12.16l.18.22c.07.09.15.17.24.24l.22.18.07.06.22.16c.12.08.25.16.39.21l.25.1.05.02s.06.02.06.02l.25.08c.09.03.17.05.26.06l.27.05h.36l.27-.03h.06c.06,0,.12-.02.18-.03l.65-.14.31-.04h.66l.36.05.31.05.29.09.33.13.27.13.27.17.28.21.26.22.21.21.21.28.2.28.15.26.15.33.12.3.07.27.06.37.04.34v.34s-.01.32-.01.32l-.05.3-.09.35-.09.32-.13.29-.16.3-.17.27-.22.28-.25.28-1.35,1.38s-.03.04-.03.04l-.03.04-.16.18s-.11.14-.11.14l-.03.05-.24.36s-.08.14-.08.14l-.02.05-.1.2s-.06.13-.06.13l-.02.05-.08.22c-.02.06-.04.12-.07.18v.06l-.05.2v.03l-.04.22c-.02.08-.03.15-.03.23v23.97c0,.11,0,.21.03.31l.04.22v.03l.05.2v.06c.01.06.03.12.05.18l.08.22.02.05s.06.13.06.13l.1.2c.04.07.07.13.11.19l.24.36.03.05s.11.14.11.14l.16.18s.07.07.07.07l1.35,1.37.25.28.21.28.17.27.16.3.13.29.1.32.09.35.06.3v.65l-.04.34-.06.37-.07.27-.12.3-.15.33-.15.26-.2.28-.21.28-.21.21-.25.22-.28.21-.28.17-.27.13-.33.13-.29.09-.31.05-.36.05h-.66l-.31-.04-.65-.14-.18-.03h-.06l-.27-.02c-.09-.01-.18-.01-.27,0h-.09l-.27.04c-.06.01-.13.02-.19.04l-.06.02-.25.08s-.06.02-.06.02l-.05.02-.25.1c-.12.05-.23.11-.34.18l-.04.03-.22.16s-.04.03-.04.03l-.04.03-.22.18c-.06.06-.12.12-.18.18l-.05.06-.18.22c-.04.06-.08.11-.12.17l-.03.06-.14.24c-.03.06-.06.12-.09.18l-.03.06-.1.26s-.04.11-.07.17v.06l-.06.26c-.02.07-.03.13-.04.2v.07l-.02.28v.47l.04.44c0,.1.02.2.05.3l.06.22.02.07s.02.07.02.07l.08.22s.02.05.02.05l.08.2.03.08c.04.08.08.16.13.23l.12.18.03.05s.04.05.04.05l.14.18.03.04s.03.04.03.04l.14.16.08.08,2.03,2.07.06.06.22.2c.08.07.16.13.25.19l.25.16.04.03s.04.02.04.02l.25.14.06.03c.06.03.13.06.2.08l.29.1.07.02c.07.02.15.04.22.05l.27.04s.13.01.13.01l.29.02h5.81l.49-.02s.14-.01.14-.01l.47-.06s.08-.02.12-.02l.49-.11h.06c.06-.01.12-.03.17-.05l.45-.16s.06-.02.06-.02l.45-.18c.06-.02.13-.06.19-.09l.43-.24.08-.05.41-.26c.06-.03.11-.07.16-.11l.37-.3.04-.03s.04-.03.04-.03l.37-.34s.07-.07.07-.07l3.38-3.44.27-.26.27-.21.26-.17.3-.15.31-.14.34-.1.34-.09.32-.04.37-.02h17.52l.37.02.32.04.34.09.34.1.31.14.3.15.26.17.27.21.26.25,3.39,3.44.03.03s.03.03.03.03l.37.34s.08.07.08.07l.37.3.04.03s.12.08.12.08l.41.26.08.05.43.24c.06.03.12.06.19.09l.45.18.06.02.45.16.05.02c.06.01.11.03.17.04l.49.11h.12l.47.06s.09.01.14.01l.49.02h5.81l.29-.03h.12l.27-.04c.1-.01.19-.04.29-.07l.29-.1.07-.02c.07-.02.14-.06.2-.09l.25-.14.04-.02s.04-.03.04-.03l.25-.16c.09-.05.17-.12.25-.19l.22-.2.06-.06,2.03-2.07s.08-.08.08-.08l.14-.16s.06-.08.06-.08l.14-.18.04-.05s.03-.05.03-.05l.12-.18c.06-.1.12-.21.16-.32l.08-.2.02-.05.08-.22s.04-.13.04-.13l.06-.22.02-.07c0-.07.03-.15.03-.22l.04-.44v-.47l-.02-.28c-.01-.07-.01-.13-.04-.2v-.07l-.06-.26c0-.06-.03-.11-.05-.17l-.02-.06-.1-.26c-.02-.07-.05-.13-.08-.19l-.03-.06-.14-.24c-.03-.06-.07-.12-.11-.17l-.04-.05-.18-.22c-.05-.07-.11-.13-.17-.19l-.06-.06-.22-.18s-.04-.03-.04-.03l-.04-.03-.21-.16c-.1-.07-.21-.14-.33-.19l-.05-.02-.25-.1s-.05-.02-.05-.02l-.06-.02-.25-.08c-.06-.02-.13-.04-.19-.06h-.06l-.27-.04c-.09-.01-.18-.01-.27-.01h-.09l-.27.02c-.06,0-.12.01-.18.03h-.06l-.66.14-.31.04h-.66l-.36-.05-.31-.05-.29-.09-.33-.13-.27-.13-.28-.17-.27-.21-.26-.22-.21-.21-.21-.28-.2-.28-.15-.26-.15-.33-.12-.31-.07-.27-.06-.37-.04-.34v-.33s.01-.32.01-.32l.05-.3.09-.35.09-.32.13-.29.16-.31.17-.26.22-.28.25-.28,1.35-1.37s.07-.07.07-.07l.16-.18c.05-.06.1-.12.14-.19l.24-.36.03-.04s.08-.14.08-.14l.1-.2.02-.04s.06-.14.06-.14l.08-.22c.03-.08.05-.16.07-.25l.04-.2v-.02l.05-.22v-.08c.02-.08.02-.15.02-.23v-23.9c0-.08-.01-.15-.03-.23v-.08l-.04-.22v-.03l-.04-.2c-.01-.07-.03-.13-.05-.19l-.02-.06-.08-.22c-.02-.05-.06-.14-.06-.14l-.02-.04-.1-.2c-.03-.05-.08-.14-.08-.14l-.03-.05-.24-.36s-.1-.14-.1-.14l-.04-.04-.16-.18s-.03-.04-.03-.04l-.03-.04-1.36-1.38-.25-.28-.22-.28-.17-.26-.16-.3-.13-.29-.09-.32-.09-.35-.06-.3v-.65l.04-.34.06-.37.07-.27.12-.31.15-.33.15-.26.2-.28.21-.28.21-.21.25-.22.28-.21.27-.17.27-.13.33-.13.29-.09.31-.05.36-.05h.66l.31.04.66.14c.08.01.16.03.24.03l.27.02c.12.01.24.01.36,0l.27-.04c.09-.01.18-.03.26-.06l.25-.08s.11-.04.11-.04l.25-.1c.14-.05.27-.12.39-.21l.21-.16s.08-.06.08-.06l.21-.18.06-.06c.06-.06.12-.12.17-.19l.18-.22.04-.05c.04-.06.08-.11.11-.17l.14-.24c.05-.08.09-.17.12-.25l.1-.26c.03-.08.05-.15.07-.23l.06-.26c.02-.08.04-.17.04-.26l.02-.28v-.48l-.04-.44ZM60.27,6.43v.18l-.03.04h-.04l-.58-.13s-.07-.02-.07-.02h-.07l-.45-.06s-.07-.01-.07-.01h-.07l-.47-.02h-.14l-.47.02s-.07.01-.07.01h-.07l-.47.07h-.08l-.45.08s-.15.05-.15.05h-.05l-.45.14s-.06.02-.06.02l-.06.02-.45.18s-.05.02-.05.02l-.05.03-.41.2s-.12.07-.12.07l-.04.02-.41.26s-.06.04-.06.04l-.06.04-.37.28s-.04.03-.04.03l-.04.03-.35.3s-.06.05-.06.05l-.06.05-.33.34s-.1.11-.1.11l-.03.04-.29.38-.03.04-.27.38s-.08.12-.08.12l-.02.04-.24.42s-.04.07-.04.07l-.03.07-.2.44-.03.06-.18.44s-.04.11-.07.16v.05l-.12.46s-.03.08-.03.08v.08l-.09.48v.07l-.06.48s-.01.11-.01.16v.6l.02.46c0,.07.01.14.02.21l.08.48c.01.05.02.1.03.15l.12.46s.02.06.02.06l.14.46c.02.07.05.14.08.21l.2.44s.04.09.04.09l.22.42.04.07s.04.07.04.07l.25.4s.09.13.09.13l.29.38s.06.08.06.08l.31.36.03.04s.03.04.03.04l1.35,1.37.05.06.05.08.06.09v.02l.02.06v23.63l-.02.04v.09l-.06.09-.05.08-.05.05-1.35,1.37s-.04.04-.04.04l-.03.04-.31.36s-.03.04-.03.04l-.03.04-.29.38s-.05.06-.05.06l-.04.06-.25.4s-.04.07-.04.07l-.04.07-.22.42s-.02.04-.02.04l-.02.04-.2.44c-.02.05-.04.11-.06.16l-.02.05-.14.46-.02.06-.12.46s-.03.08-.03.08v.08l-.08.48s-.02.1-.02.15v.05l-.02.46v.55c0,.07.01.14.01.21l.06.48v.07l.08.48s.02.1.03.15l.13.46v.05s.04.11.06.16l.18.44.03.06.2.44s.07.14.07.14l.24.42s.07.11.11.16l.27.38.03.04.29.38c.04.05.13.15.13.15l.33.34s.11.1.11.1l.35.3s.08.06.08.06l.37.28s.11.08.11.08l.41.26s.1.06.16.09l.41.2s.11.05.11.05l.45.18s.12.04.12.04l.45.14c.06.02.13.04.2.05l.45.09h.08l.47.06s.14.01.14.01l.47.02h.14l.47-.02h.14l.45-.06s.09-.01.14-.02l.58-.12h.04l.03.04h0v.15s0,.14,0,.14v.07l-.05.13-.06.08-.07.08-1.97,2-.07.06-.08.05-.08.05h-.01l-.06.02h-5.72l-.39-.02-.34-.04-.31-.06-.31-.11-.32-.13-.3-.16-.29-.18-.26-.21-.3-.27-3.37-3.42-.03-.03-.35-.34s-.11-.1-.11-.1l-.04-.03-.39-.3s-.05-.03-.05-.03l-.05-.03-.39-.26s-.12-.07-.12-.07l-.04-.02-.43-.22-.08-.04-.45-.2c-.05-.02-.1-.04-.15-.06l-.05-.02-.47-.14-.06-.02-.47-.12c-.06-.01-.11-.02-.16-.04h-.05l-.49-.06s-.07-.01-.07-.01h-.07l-.47-.02h-17.72l-.47.02s-.07.01-.07.01h-.07l-.49.06c-.06.01-.11.02-.16.04h-.05l-.47.12-.06.02-.47.14s-.15.05-.15.05l-.05.02-.45.2-.08.04-.43.22s-.12.07-.12.07l-.04.03-.39.26s-.05.03-.05.03l-.05.03-.39.3s-.11.09-.11.09l-.03.03-.35.34-.03.03-3.37,3.42-.3.27-.26.21-.29.18-.3.17-.32.13-.31.11-.31.06-.34.04-.39.02h-5.54s-.18-.01-.18-.01h-.06s-.01-.01-.01-.01l-.08-.05-.08-.05-.07-.06-1.97-2-.07-.08-.06-.08-.05-.13-.02-.21v-.16l.03-.04h.04l.58.14h.07s.07.01.07.01l.45.06c.05,0,.15,0,.15,0l.47.02h.14l.47-.02s.14,0,.14,0l.47-.06s.05-.01.08-.01l.45-.09h.05s.15-.04.15-.04l.45-.14.06-.02s.06-.02.06-.02l.45-.18s.11-.05.11-.05l.41-.2.04-.02s.12-.07.12-.07l.41-.26s.11-.08.11-.08l.37-.28s.08-.06.08-.06l.35-.3s.11-.1.11-.1l.33-.34s.09-.1.13-.15l.29-.38.03-.05.27-.38.03-.04s.08-.12.08-.12l.24-.42s.07-.14.07-.14l.2-.44s.03-.06.03-.06l.18-.44.02-.05c.02-.05.04-.11.05-.16l.12-.46.02-.08s0-.08,0-.08l.08-.48v-.07l.06-.48c.01-.07.01-.14.01-.21v-.55l-.02-.46c0-.06,0-.11-.02-.16v-.05l-.08-.48s-.01-.08-.01-.08l-.02-.08-.12-.46-.02-.06-.14-.46c-.02-.06-.04-.11-.06-.16l-.02-.05-.2-.44s-.02-.04-.02-.04l-.02-.04-.21-.42s-.04-.07-.04-.07l-.04-.07-.25-.4s-.04-.06-.04-.06l-.05-.06-.29-.38s-.03-.04-.03-.04l-.03-.04-.31-.36s-.03-.04-.03-.04l-.04-.04-1.36-1.38-.05-.05-.05-.08-.06-.09v-.02l-.02-.05v-23.64l.02-.05v-.08l.06-.09.05-.08.05-.05,1.35-1.37s.07-.07.07-.07l.31-.36s.06-.08.06-.08l.29-.38s.09-.13.09-.13l.25-.4.04-.07s.04-.07.04-.07l.22-.42s.04-.09.04-.09l.2-.44c.03-.07.06-.14.08-.21l.14-.46s.02-.06.02-.06l.12-.46.02-.08s.01-.05.01-.08l.09-.48v-.05c0-.06,0-.11,0-.16l.02-.46v-.55s0-.11-.01-.16v-.05l-.07-.48v-.07l-.08-.48s-.01-.08-.01-.08l-.02-.08-.12-.46s-.03-.11-.05-.16l-.02-.05-.18-.44-.03-.06-.2-.44s-.03-.07-.03-.07l-.04-.07-.24-.42s-.08-.12-.08-.12l-.03-.04-.27-.38-.03-.04-.29-.38s-.1-.11-.1-.11l-.03-.04-.33-.34s-.06-.05-.06-.05l-.06-.05-.35-.3s-.04-.03-.04-.03l-.04-.03-.37-.28s-.06-.04-.06-.04l-.06-.04-.41-.26s-.08-.05-.08-.05l-.08-.04-.41-.2s-.05-.03-.05-.03l-.06-.02-.45-.18s-.06-.02-.06-.02l-.06-.02-.45-.14c-.05-.02-.1-.03-.15-.05h-.05l-.45-.09h-.08l-.47-.06s-.07-.01-.07-.01h-.07l-.47-.02h-.14l-.47.02s-.07.01-.07.01h-.07l-.45.06s-.07.02-.07.02h-.07l-.58.12h-.04l-.04-.04h0v-.16s0-.14,0-.14v-.07l.05-.13.06-.08.07-.08,1.97-2,.07-.06.08-.05.09-.05h0s.06-.01.06-.01l.08-.05h5.72l.39.02.34.04.31.06.31.11.32.13.3.17.29.18.26.21.3.27,3.37,3.42s.03.03.03.03l.35.34s.1.08.15.12l.39.3s.09.07.09.07l.39.26s.1.07.16.1l.43.22s.08.04.08.04l.45.2.05.02s.1.03.15.05l.47.14s.04.02.06.02l.47.13h.05s.11.03.16.03l.49.07h.14l.47.02h17.72l.47-.02h.14l.49-.06c.07,0,.14-.02.21-.04l.47-.12.06-.02.47-.14c.07-.02.13-.04.2-.07l.45-.2.08-.04.43-.22.04-.02s.12-.07.12-.07l.39-.26.05-.03s.05-.03.05-.03l.39-.3c.06-.03.15-.12.15-.12l.35-.34s.03-.03.03-.03l3.37-3.42.3-.27.25-.2.29-.18.29-.16.32-.13.31-.11.32-.06.34-.04.39-.02h5.54s.17.01.17.01h.06s.09.06.09.06l.08.05.07.06,1.97,2,.07.08.06.08.04.13.02.07v.14Z" fill="#fff"/>
</svg>