<svg width="30" height="22" viewBox="0 0 30 22" fill="none" xmlns="http://www.w3.org/2000/svg">
<path d="M0.00612849 3.68744C0.00612849 3.60172 0.0100313 3.51183 0.0366492 3.43166C0.181805 2.99125 0.517545 2.75248 0.992408 2.75144C2.15153 2.74936 3.311 2.75075 4.47012 2.75075C4.53827 2.75075 4.60677 2.75075 4.68946 2.75075C4.68946 2.65912 4.68946 2.59631 4.68946 2.53314C4.69017 2.01256 4.68839 1.49198 4.6923 0.971403C4.69691 0.391129 5.09156 0.0045117 5.68426 0.00242937C6.57755 -0.000694107 7.47049 -0.000694107 8.36379 0.00242937C8.99339 0.0045117 9.37421 0.382453 9.37705 1.00298C9.37953 1.51766 9.37847 2.03235 9.37988 2.54737C9.37988 2.6088 9.38521 2.67058 9.38876 2.73964H11.236C11.3784 2.07434 11.6836 1.83383 12.3746 1.83383C13.1437 1.83383 13.9124 1.83383 14.6815 1.83418C15.7164 1.83487 16.7516 1.83175 17.7865 1.838C18.2674 1.84112 18.6096 2.11113 18.7274 2.55709C18.743 2.61678 18.7522 2.67821 18.7639 2.73582H20.6243C20.6243 2.13577 20.6212 1.55202 20.6251 0.968279C20.629 0.387312 21.0236 0.00416464 21.6195 0.00208232C22.5128 -0.000694107 23.4057 -0.000694107 24.299 0.00208232C24.9187 0.00381759 25.3055 0.3828 25.3091 0.988408C25.3123 1.50899 25.3109 2.02957 25.3123 2.55015C25.3123 2.61158 25.318 2.67266 25.3222 2.75075C25.4092 2.75075 25.4787 2.75075 25.5487 2.75075C26.7078 2.75075 27.8673 2.75734 29.0264 2.74832C29.5314 2.74415 30.0088 3.16027 29.9999 3.7048C29.9853 4.60124 29.9967 5.49767 29.9942 6.39446C29.9942 6.48539 29.9882 6.58152 29.9591 6.66655C29.8118 7.09967 29.4807 7.33185 29.0132 7.33602C28.7247 7.33879 28.4362 7.33636 28.132 7.33636C28.1278 7.41272 28.1228 7.45818 28.1228 7.50399C28.1221 9.39543 28.1217 11.2865 28.1217 13.178C28.1217 15.775 28.1231 18.372 28.1196 20.969C28.1189 21.6405 27.7487 21.9969 27.0662 21.9973C22.8017 21.9987 18.5375 21.999 14.273 21.9997C11.4813 21.9997 8.68959 21.9997 5.89756 21.9997C4.8804 21.9997 3.86288 22.0015 2.84572 21.9963C2.36412 21.9938 2.01383 21.729 1.90665 21.2796C1.86974 21.1248 1.87825 20.9579 1.87825 20.7965C1.87683 16.3893 1.87719 11.9817 1.87719 7.57444V7.33671C1.55742 7.33671 1.26285 7.33116 0.968277 7.33775C0.425272 7.35025 -0.00735805 6.88589 9.49631e-05 6.39481C0.0139363 5.49282 0.00328809 4.59013 0.00541752 3.68779L0.00612849 3.68744ZM7.49001 1.84841H6.57826V2.74033H7.49001V1.84841ZM23.4206 1.84945H22.511V2.74346H23.4206V1.84945ZM18.0513 14.8178C18.8974 14.8251 19.7438 14.8195 20.5903 14.8195V14.8181C21.4445 14.8181 22.2991 14.8258 23.1534 14.8157C23.7603 14.8084 24.2625 14.3843 24.3856 13.8044C24.4974 13.2783 24.2021 12.6907 23.6769 12.4568C23.4923 12.3745 23.2755 12.3253 23.0728 12.3239C21.4044 12.3135 19.736 12.3152 18.0676 12.319C17.3223 12.3207 16.7417 12.858 16.7349 13.5368C16.7278 14.2649 17.2815 14.8112 18.0513 14.8178ZM5.94121 14.8129C6.3749 14.8296 6.81002 14.8161 7.28772 14.8161C7.28772 15.2468 7.28488 15.6535 7.28843 16.0602C7.29233 16.501 7.4815 16.8547 7.85202 17.1021C8.65659 17.6393 9.76105 17.1236 9.83381 16.173C9.86007 15.8281 9.84268 15.4796 9.84481 15.1329C9.84552 15.0403 9.84481 14.9472 9.84481 14.8192C10.2902 14.8192 10.693 14.824 11.0955 14.8181C11.7741 14.8077 12.3057 14.3607 12.3902 13.7374C12.4764 13.1016 12.0793 12.5095 11.4099 12.3617C11.1019 12.2937 10.7693 12.3287 10.4478 12.3211C10.2565 12.3166 10.0652 12.3204 9.84375 12.3204C9.84375 11.8769 9.85262 11.4611 9.84162 11.046C9.82387 10.3804 9.27732 9.8414 8.61364 9.82092C7.92087 9.7994 7.32853 10.3224 7.29446 11.0009C7.27778 11.3313 7.28878 11.6631 7.28736 11.9942C7.28701 12.0945 7.28736 12.1948 7.28736 12.3197C6.83202 12.3197 6.40613 12.311 5.9806 12.3218C5.3109 12.3384 4.76967 12.859 4.73489 13.5045C4.69798 14.1917 5.23672 14.7866 5.94085 14.8136L5.94121 14.8129ZM1.89387 5.48761H28.1128V4.59881H1.89387V5.48761Z" fill="white"/>
</svg>
