<svg   width="50" height="50"  viewBox="0 0 40 48" fill="none" xmlns="http://www.w3.org/2000/svg">
<path d="M5.25824 0.499682C7.57221 0.474998 9.526 1.86601 10.31 4.05144L10.3823 4.26531C11.0997 6.53262 10.2399 8.78787 8.18891 10.2165L7.92328 10.4069C7.36697 10.8201 7.23098 11.0334 7.16742 11.3229C7.12279 11.5264 7.11218 11.7921 7.11859 12.2155C7.12438 12.5964 7.14392 13.1119 7.14789 13.7468C7.15194 13.7501 7.15575 13.7548 7.16059 13.7585C7.20626 13.7928 7.26408 13.8201 7.3266 13.8317L7.39008 13.8376H9.05902C14.7136 13.8374 20.3697 13.8305 26.0258 13.8346L31.6821 13.8434C33.2459 13.8473 34.4538 14.1175 35.2543 14.9118C35.9553 15.6074 36.2546 16.6163 36.3237 17.904L36.3403 18.4733C36.3689 24.2205 36.3695 29.969 36.3344 35.7165L36.3422 36.0856C36.3611 36.4269 36.4151 36.6897 36.519 36.9118C36.6345 37.1585 36.8324 37.3958 37.2055 37.6364L37.3764 37.7399C39.6088 39.0091 40.4327 41.3691 39.7836 43.6091L39.7182 43.8219C38.993 45.9995 37.026 47.4684 34.7387 47.4987L34.517 47.4977C32.2326 47.4369 30.3218 45.9689 29.6137 43.7331L29.5522 43.5251C28.9767 41.4349 29.6013 39.0571 31.684 37.9079L31.8979 37.7966C32.2693 37.615 32.4969 37.4294 32.642 37.2497C32.7845 37.073 32.8679 36.8771 32.9145 36.6432C32.9627 36.4006 32.9711 36.1217 32.9633 35.78C32.956 35.4596 32.9321 35.0452 32.9321 34.6384C32.932 34.5234 32.8791 34.3945 32.7807 34.2907C32.6785 34.183 32.5738 34.1491 32.52 34.1491H30.9282C23.3885 34.1491 15.8471 34.1579 8.30609 34.1442L7.73871 34.1296C6.45459 34.0646 5.44358 33.7693 4.74262 33.0739C3.94094 32.2784 3.65995 31.0747 3.65277 29.5143L3.63813 25.2038C3.63179 22.33 3.63292 19.4557 3.64301 16.5817L3.66547 12.2712C3.66913 11.7391 3.6172 11.3701 3.47699 11.0749C3.34295 10.7929 3.10174 10.5238 2.61762 10.2487L2.41352 10.1266C0.417512 8.88161 -0.363551 6.68495 0.15668 4.58953L0.212344 4.38054C0.86321 2.14307 2.7585 0.622331 5.03656 0.506518L5.25824 0.499682ZM34.394 39.8337C33.2541 39.9693 32.3221 40.9193 32.2192 42.0163L32.2104 42.2536C32.2319 43.5334 33.4238 44.6863 34.7036 44.6647L34.9428 44.6471C36.1304 44.4945 37.1482 43.3777 37.1371 42.1882L37.1215 41.9489C36.9817 40.7667 35.9059 39.8012 34.642 39.818L34.394 39.8337ZM31.2973 17.2663L29.8823 17.2995C26.5803 17.3588 23.2722 17.3015 19.9897 17.2985C16.1564 17.2985 12.3095 17.3287 8.46723 17.28L8.24848 17.2809C7.77073 17.2925 7.51141 17.3675 7.36469 17.4831C7.24797 17.5751 7.11971 17.764 7.09809 18.2487L7.09613 18.4753C7.16801 22.1591 7.15436 25.8446 7.10102 29.5251L7.10199 29.7272C7.1178 30.1647 7.21058 30.3693 7.31293 30.4753C7.41333 30.5788 7.61237 30.6784 8.05414 30.6999L8.25824 30.7048C16.0842 30.67 23.9109 30.6692 31.7368 30.7057L31.9428 30.7018C32.3848 30.6798 32.5801 30.5776 32.6782 30.4743C32.7951 30.3509 32.8965 30.0984 32.8881 29.5212L32.8539 26.8708C32.8313 24.6611 32.8262 22.4477 32.8705 20.235L32.9038 18.9069C32.9271 18.1134 32.8066 17.7474 32.6303 17.5622C32.4603 17.3838 32.1109 17.2425 31.2973 17.2663ZM5.10004 3.3405C3.90879 3.47018 2.86921 4.5649 2.85297 5.75554L2.86273 5.99187C2.97732 7.16355 4.04624 8.1658 5.30316 8.17546C6.57236 8.18485 7.62656 7.23065 7.76215 6.028L7.7768 5.78484C7.7871 4.49852 6.63115 3.33097 5.34027 3.32781L5.10004 3.3405Z" fill="white"/>
</svg>
