<svg   width="50" height="50"  viewBox="0 0 46 50" fill="none" xmlns="http://www.w3.org/2000/svg">
<path d="M23.0762 0.50573C23.3116 0.537112 23.4744 0.689177 23.543 0.7528L24.168 1.32507C27.3055 4.16255 30.6742 6.63416 34.4199 8.52526L35.0889 8.85241C36.6543 9.59344 38.2639 10.1763 39.9463 10.5077L40.3408 10.579C40.4733 10.6008 40.6069 10.6213 40.7412 10.6405L41.5596 10.7479L41.6533 10.7645C41.7606 10.788 41.9036 10.8396 42.0215 10.9637C42.192 11.1436 42.2079 11.3627 42.2021 11.495V11.496C42.1466 12.7135 42.1142 13.9648 42.0293 15.201V15.202C41.9793 15.9261 41.9089 16.6507 41.8174 17.3719L41.7188 18.0926C41.5777 19.0483 41.4204 20.0031 41.2451 20.954L41.0635 21.9042C40.8896 22.7826 40.6663 23.6622 40.459 24.5174H41.1328C41.2664 24.5174 41.5277 24.5163 41.7432 24.6835C41.9518 24.8458 42.0209 25.0943 42.0586 25.2245L45.9375 38.6063H45.9385L45.9795 38.7792C46.0154 38.9747 46.019 39.2264 45.8604 39.4462C45.6433 39.7467 45.2817 39.7733 45.0762 39.7733L33.6553 39.7674C33.6226 39.7674 33.6045 39.7696 33.5967 39.7714L33.5479 39.829C30.9825 43.4279 27.8921 46.4442 24.2607 48.8544L23.5273 49.329C23.3876 49.4168 23.2107 49.4969 22.999 49.4999C22.8383 49.502 22.6962 49.459 22.5732 49.3983L22.457 49.3329C19.5831 47.52 17.0049 45.3397 14.7578 42.7587L14.3125 42.2372C13.6411 41.434 13.0147 40.5836 12.3945 39.7704C8.60897 39.7743 4.82315 39.7733 1.03809 39.7733H0.832031C0.603504 39.7661 0.320406 39.6888 0.140625 39.4335C-0.036171 39.182 -0.0186518 38.8909 0.0439453 38.6727C0.290731 37.8112 0.542238 36.9499 0.791016 36.0907L3.9375 25.2255L3.97754 25.1014C4.02671 24.9667 4.10795 24.8067 4.2627 24.6883C4.47149 24.5286 4.71586 24.5189 4.87012 24.5184L5.50684 24.5155C5.46061 24.3372 5.41437 24.155 5.37109 23.9725L5.28418 23.5799C5.06473 22.5002 4.8359 21.4115 4.62988 20.3173L4.43262 19.2206C4.08982 17.2093 3.88019 15.1813 3.80371 13.1415L3.7793 12.2665C3.77425 12.0068 3.77018 11.7382 3.76562 11.4823V11.4813C3.76422 11.391 3.76895 11.1997 3.89355 11.0253C4.03706 10.8246 4.24906 10.7633 4.40625 10.7489L4.83301 10.703C6.95784 10.4469 8.97569 9.75024 10.9512 8.81921L11.4658 8.57116C14.03 7.30935 16.4196 5.73528 18.6807 3.94225L19.1621 3.55456C20.2799 2.64161 21.3573 1.67612 22.4697 0.714714L22.5781 0.631706C22.7019 0.54909 22.8703 0.478378 23.0762 0.50573ZM15.959 39.7938C17.9953 42.2189 20.3345 44.2819 22.9873 45.9745C25.6123 44.3138 27.9365 42.2852 29.9658 39.8915L30.0459 39.7938H15.959ZM12.3184 30.2137H14.4082V35.9999H16.1221V30.2137H18.2607V28.8905H12.3184V30.2137ZM19.2314 35.9999H21.0723L21.4824 34.6717H23.8301L24.2412 35.9999H26.0869L23.46 28.8905H21.8438L19.2314 35.9999ZM28.0098 35.9999H29.7236V34.1229L30.4248 33.3553L31.9404 35.9999H33.9668L31.5664 32.0301L33.9668 28.8905H31.8525L30.3193 31.1219L29.7236 32.0253V28.8905H28.0098V35.9999ZM23.4209 33.3485H21.8906L22.6543 30.8739L23.4209 33.3485ZM21.4453 5.51257L20.8086 6.04577C18.4287 7.99601 15.9083 9.74855 13.1475 11.12L12.5918 11.3895C10.8971 12.1904 9.13053 12.8206 7.25293 13.1073L6.87598 13.16C6.82306 13.1667 6.76899 13.1714 6.71582 13.1776C6.67945 14.3317 6.84924 16.3101 7.14355 18.4315C7.44973 20.6384 7.88409 22.9348 8.32422 24.5145C18.0982 24.5145 27.8723 24.5135 37.6465 24.5194C37.8913 23.4348 38.16 22.4154 38.3496 21.3553V21.3544L38.5332 20.2811C38.7092 19.2064 38.8619 18.1265 38.9912 17.0448L39.0732 16.2323C39.143 15.4179 39.1807 14.596 39.2344 13.7538L39.2432 13.5126C39.2449 13.3979 39.2432 13.2824 39.2412 13.161C38.6532 13.0647 37.9959 12.9792 37.377 12.8319V12.8329C35.6131 12.4139 33.9581 11.7215 32.375 10.8915L31.7012 10.5272C28.5387 8.77404 25.6683 6.60663 23.002 4.16003C22.4831 4.6123 21.9666 5.06816 21.4453 5.51257Z" fill="white"/>
</svg>
