<svg width="24" height="24" viewBox="0 0 24 24" fill="none" xmlns="http://www.w3.org/2000/svg">
<path d="M12.8643 11.0107C14.2976 11.0453 15.6834 11.1663 17 11.3613L17.1143 12.3916C15.5127 12.1402 13.7936 12 11.999 12C10.1618 12 8.40348 12.1463 6.76953 12.4092V11.3975C8.41565 11.1411 10.1731 11 11.999 11L12.8643 11.0107Z" fill="white"/>
<circle cx="11.6382" cy="12.65" r="5" stroke="white"/>
<circle cx="11.6382" cy="12.65" r="5" stroke="white"/>
<circle cx="11.6382" cy="12.65" r="5" stroke="white"/>
<mask id="path-3-inside-1_154_4258" fill="white">
<path d="M8.05737 4.11558C4.65899 5.59718 2.39816 9.09942 2.67742 13.0079C2.95667 16.9163 5.69254 20.0606 9.26688 21.0441L9.34212 22.0971C5.20468 21.1151 1.99906 17.5453 1.67996 13.0792C1.36086 8.61306 4.0264 4.62382 7.9822 3.06357L8.05737 4.11558ZM13.9669 2.63597C18.1044 3.61797 21.31 7.18772 21.6291 11.6539C21.9482 16.12 19.2827 20.1092 15.3269 21.6695L15.2516 20.6165C18.6498 19.1348 20.9109 15.6335 20.6316 11.7251C20.3524 7.81661 17.6166 4.67138 14.0421 3.68797L13.9669 2.63597Z"/>
</mask>
<path d="M8.05737 4.11558L8.45701 5.03225L9.10522 4.74964L9.05482 4.04431L8.05737 4.11558ZM9.26688 21.0441L10.2643 20.9728L10.2139 20.2675L9.53218 20.0799L9.26688 21.0441ZM9.34212 22.0971L9.11119 23.0701L10.4367 23.3846L10.3396 22.0258L9.34212 22.0971ZM7.9822 3.06357L8.97966 2.9923L8.88257 1.63347L7.61529 2.13332L7.9822 3.06357ZM13.9669 2.63597L14.1979 1.663L12.8724 1.3484L12.9695 2.70724L13.9669 2.63597ZM15.3269 21.6695L14.3294 21.7407L14.4265 23.0996L15.6938 22.5997L15.3269 21.6695ZM15.2516 20.6165L14.8519 19.6998L14.2038 19.9825L14.2542 20.6878L15.2516 20.6165ZM14.0421 3.68797L13.0447 3.75924L13.095 4.46458L13.7768 4.65215L14.0421 3.68797ZM8.05737 4.11558L7.65772 3.19891C3.88331 4.84445 1.36954 8.73458 1.67996 13.0792L2.67742 13.0079L3.67487 12.9367C3.42677 9.46425 5.43467 6.34991 8.45701 5.03225L8.05737 4.11558ZM2.67742 13.0079L1.67996 13.0792C1.99038 17.4238 5.03191 20.916 9.00159 22.0083L9.26688 21.0441L9.53218 20.0799C6.35318 19.2052 3.92295 16.4088 3.67487 12.9367L2.67742 13.0079ZM9.26688 21.0441L8.26943 21.1154L8.34466 22.1683L9.34212 22.0971L10.3396 22.0258L10.2643 20.9728L9.26688 21.0441ZM9.34212 22.0971L9.57305 21.1241C5.84825 20.24 2.96448 17.0258 2.67742 13.0079L1.67996 13.0792L0.682502 13.1505C1.03363 18.0649 4.56111 21.9901 9.11119 23.0701L9.34212 22.0971ZM1.67996 13.0792L2.67742 13.0079C2.39035 8.9901 4.78784 5.39847 8.34911 3.99383L7.9822 3.06357L7.61529 2.13332C3.26497 3.84918 0.331372 8.23603 0.682502 13.1505L1.67996 13.0792ZM7.9822 3.06357L6.98474 3.13484L7.05991 4.18684L8.05737 4.11558L9.05482 4.04431L8.97966 2.9923L7.9822 3.06357ZM13.9669 2.63597L13.736 3.60894C17.4608 4.493 20.3446 7.70729 20.6316 11.7251L21.6291 11.6539L22.6266 11.5826C22.2754 6.66816 18.748 2.74294 14.1979 1.663L13.9669 2.63597ZM21.6291 11.6539L20.6316 11.7251C20.9187 15.743 18.5212 19.3346 14.9599 20.7392L15.3269 21.6695L15.6938 22.5997C20.0441 20.8839 22.9777 16.497 22.6266 11.5826L21.6291 11.6539ZM15.3269 21.6695L16.3243 21.5982L16.2491 20.5452L15.2516 20.6165L14.2542 20.6878L14.3294 21.7407L15.3269 21.6695ZM15.2516 20.6165L15.6513 21.5332C19.4254 19.8876 21.9395 15.9985 21.6291 11.6539L20.6316 11.7251L19.6342 11.7964C19.8823 15.2685 17.8743 18.382 14.8519 19.6998L15.2516 20.6165ZM20.6316 11.7251L21.6291 11.6539C21.3187 7.30924 18.2774 3.81602 14.3074 2.7238L14.0421 3.68797L13.7768 4.65215C16.9558 5.52674 19.3861 8.32398 19.6342 11.7964L20.6316 11.7251ZM14.0421 3.68797L15.0396 3.61671L14.9644 2.5647L13.9669 2.63597L12.9695 2.70724L13.0447 3.75924L14.0421 3.68797Z" fill="white" mask="url(#path-3-inside-1_154_4258)"/>
<path d="M16.4278 2.00003L13.5067 3.21124L15.6798 5.5624" stroke="white"/>
<path d="M6.63818 22.4985L9.7938 22.293L8.49405 19.3671" stroke="white"/>
<path d="M10 11.5H13L12 17.5H11.5L10 11.5Z" fill="white"/>
</svg>
