<svg width="24" height="24" viewBox="0 0 24 24" fill="none" xmlns="http://www.w3.org/2000/svg">
<path d="M22.4961 8.64941C22.4979 8.00863 22.4893 7.34196 22.5 6.68652C22.5007 6.64466 22.4841 6.60068 22.4424 6.56152C22.4089 6.53008 22.3675 6.5107 22.3281 6.50293L22.29 6.49902C21.3821 6.50603 20.4709 6.50098 19.5693 6.50098H19.0732L19.0693 6.00488V5.9668C19.0691 5.94258 19.0687 5.90755 19.0684 5.86426C19.0677 5.7774 19.0665 5.65702 19.0654 5.52344C19.0634 5.25638 19.0609 4.93541 19.0596 4.72168C19.0589 4.61076 19.0257 4.56922 19.0107 4.55469C18.9941 4.53863 18.944 4.50239 18.8184 4.50195C18.1645 4.49994 17.5103 4.49994 16.8564 4.50195L16.7832 4.50781C16.7214 4.51838 16.6889 4.54024 16.6738 4.55469C16.6554 4.57244 16.6256 4.61392 16.625 4.70801V6.48926H14.3525L14.2705 6.08984C14.2548 6.01315 14.2568 6.01441 14.25 5.98828C14.232 5.92087 14.2046 5.89034 14.1846 5.875C14.1643 5.85948 14.1224 5.83744 14.04 5.83691L11.7656 5.83398C11.2019 5.83373 10.638 5.83398 10.0742 5.83398C9.86873 5.83404 9.81945 5.87087 9.81543 5.87402C9.81479 5.87453 9.76972 5.90677 9.72852 6.09766L9.64355 6.49219H7.38867L7.38477 5.99609V5.95898C7.38458 5.93519 7.38411 5.90085 7.38379 5.8584C7.38314 5.77285 7.38278 5.65404 7.38184 5.52246C7.37994 5.25928 7.37798 4.94232 7.37695 4.73145C7.37633 4.61006 7.34045 4.56675 7.32715 4.55371C7.31257 4.53949 7.26341 4.50239 7.13184 4.50195C6.47791 4.49969 5.82385 4.49969 5.16992 4.50195C5.06174 4.50239 5.01178 4.53572 4.99121 4.55566C4.97661 4.56983 4.95589 4.59691 4.94629 4.64941L4.94141 4.71094C4.93857 5.08726 4.939 5.46118 4.93848 5.84277V6.50098H1.72852C1.63887 6.50123 1.59538 6.52291 1.5752 6.53711C1.55703 6.54993 1.52967 6.5773 1.50586 6.64355C1.50571 6.64596 1.50501 6.64884 1.50488 6.65234V6.68262C1.50334 7.32916 1.5102 7.99856 1.5 8.6582C1.49957 8.6866 1.51359 8.73338 1.55664 8.77637C1.59739 8.81697 1.64766 8.83795 1.69824 8.83691H1.69922C1.79895 8.8347 1.82912 8.83418 1.86035 8.83496C1.87341 8.83529 1.88796 8.83594 2 8.83594H2.5V9.50879C2.5 12.7141 2.49994 15.9199 2.50098 19.125C2.50097 19.2827 2.49859 19.321 2.50781 19.3594C2.52248 19.4202 2.54676 19.4466 2.56445 19.46C2.58419 19.4747 2.62784 19.4966 2.71289 19.4971C3.45713 19.5008 4.57806 19.5 5.3252 19.5H11.4668L21.2275 19.498C21.3961 19.4979 21.4464 19.4547 21.4541 19.4473C21.459 19.4425 21.4998 19.403 21.5 19.25V19.249C21.5026 17.3609 21.502 15.4729 21.502 13.584C21.502 12.2083 21.5014 10.8327 21.502 9.45703C21.502 9.40651 21.5086 9.32873 21.5098 9.30762L21.5361 8.83594H22.1543C22.1588 8.83601 22.1611 8.83601 22.2715 8.83496C22.3608 8.83417 22.4049 8.81274 22.4248 8.79883C22.4429 8.786 22.471 8.75896 22.4951 8.69141C22.4959 8.68314 22.4961 8.6701 22.4961 8.65039V8.64941Z" stroke="white"/>
<line x1="5" y1="8.5" x2="19" y2="8.5" stroke="white"/>
<line x1="14" y1="13.5" x2="19" y2="13.5" stroke="white"/>
<line x1="5" y1="13.5" x2="10" y2="13.5" stroke="white"/>
<line x1="7.5" y1="11" x2="7.5" y2="16" stroke="white"/>
</svg>
