<?xml version="1.0" encoding="UTF-8"?>
<svg id="Layer_1" xmlns="http://www.w3.org/2000/svg" version="1.1"   width="50" height="50" viewBox="0 0 64 62">
  <!-- Generator: Adobe Illustrator 29.5.1, SVG Export Plug-In . SVG Version: 2.1.0 Build 141)  -->
  <defs>
    <style>
      .st0 {
        fill: #fff;
      }
    </style>
  </defs>
  <path class="st0" d="M57.03,48.62c-1.5-.65-2.95-1-4.1-1.19l-8.57-8.3v-19.78c0-2.26-.79-4.52-1.87-6.58-1.08-2.07-2.51-4.03-3.92-5.7-1.41-1.68-2.81-3.09-3.86-4.09-.53-.5-.96-.9-1.27-1.17-.15-.14-.28-.24-.36-.32-.04-.04-.08-.06-.1-.08-.01,0-.02-.02-.03-.02,0,0,0,0,0,0,0,0,0,0,0,0,0,0,0,0,0,0,0,0,0,0-.95,1.07l.95-1.07c-.54-.45-1.35-.45-1.89,0l.57.64c-.56-.64-.57-.64-.57-.64h0s0,0,0,0c0,0,0,0,0,0,0,0-.02.01-.03.02-.02.02-.06.05-.1.08-.09.07-.21.18-.36.32-.31.27-.75.67-1.27,1.17-1.05,1-2.45,2.42-3.86,4.09-1.4,1.67-2.83,3.63-3.92,5.7-1.08,2.06-1.86,4.32-1.86,6.58v19.78s-8.58,8.3-8.58,8.3c-1.15.19-2.6.54-4.1,1.19-3.35,1.44-6.52,4.75-6.52,4.75l6.56,6.35s3.4-3.09,4.9-6.32c.7-1.49,1.07-2.93,1.28-4.04l6.45-6.25v8.79c0,4.59,3.49,8.57,8.1,8.57h8.53c4.58,0,8.05-3.92,8.11-8.47v-.11s0-8.79,0-8.79l6.45,6.25c.21,1.11.58,2.55,1.28,4.04,1.5,3.23,4.9,6.32,4.9,6.32l6.56-6.35s-3.17-3.31-6.52-4.75ZM9.26,52.25c-.54,1.17-1.46,2.4-2.33,3.42l-2.29-2.22c1.04-.84,2.31-1.73,3.52-2.25.6-.26,1.19-.46,1.75-.62-.17.53-.38,1.1-.64,1.67ZM22.55,19.36c0-1.65.58-3.46,1.55-5.31.96-1.83,2.26-3.62,3.58-5.19,1.32-1.57,2.64-2.91,3.64-3.86.25-.24.48-.45.69-.64.2.19.43.4.69.64,1,.95,2.32,2.29,3.64,3.86,1.32,1.58,2.62,3.36,3.58,5.19.94,1.79,1.51,3.54,1.54,5.15v.16s0,16.96,0,16.96l-3.46-3.35v-8.2c0-1.54-.63-3.02-1.76-4.11-1.09-1.06-2.55-1.66-4.09-1.7h-.15c-1.59,0-3.12.61-4.24,1.7-1.09,1.06-1.72,2.48-1.75,3.96v.14s0,8.2,0,8.2l-3.46,3.35v-16.96ZM28.91,34.13l.72-.7c.57-.55.57-1.44,0-1.99-.2-.2-.46-.3-.72-.35v-6.32c0-.79.33-1.56.91-2.12.58-.56,1.37-.88,2.19-.88.82,0,1.61.32,2.19.88.56.54.88,1.28.9,2.04v.07s0,6.32,0,6.32c-.26.06-.52.16-.72.35-.57.55-.57,1.44,0,1.99l.72.7v14.42h-6.18v-14.42ZM41.47,51.91c0,3.32-2.47,5.76-5.2,5.76h-8.53c-2.73,0-5.2-2.43-5.2-5.76v-11.61s3.47-3.36,3.47-3.36v13.01c0,.78.65,1.41,1.45,1.41h9.09c.8,0,1.45-.63,1.45-1.41v-13.01l3.46,3.36v11.61ZM57.08,55.67c-.87-1.02-1.79-2.25-2.33-3.42-.27-.57-.48-1.14-.65-1.67.56.16,1.15.36,1.75.62,1.21.52,2.48,1.41,3.52,2.24l-2.3,2.23Z"/>
</svg>