<?xml version="1.0" encoding="UTF-8"?>
<svg id="Layer_1" xmlns="http://www.w3.org/2000/svg" version="1.1"   width="50" height="50" viewBox="0 0 50 50">
  <!-- Generator: Adobe Illustrator 29.5.1, SVG Export Plug-In . SVG Version: 2.1.0 Build 141)  -->
  <path d="M17.95,4.29v2.87h-2.17c-1.88,0-2.17.01-2.17.11,0,.06-.03.11-.07.11s-.07.1-.07.22-.03.22-.07.22-.07.06-.07.14-.08.32-.18.55c-.1.23-.18.46-.18.52s-.03.11-.07.11-.07.11-.07.25-.03.25-.07.25-.07.1-.07.22-.03.22-.07.22-.07.07-.07.15-.05.2-.11.26c-.06.06-.11.19-.11.29s-.03.18-.07.18-.07.1-.07.22-.03.22-.07.22-.07.08-.07.18-.03.18-.07.18-.07.1-.07.21-.03.23-.07.26c-.04.02-.09.14-.11.26-.03.12-.08.22-.11.22s-.07.1-.07.21-.03.23-.07.26c-.04.02-.07.12-.07.22s-.03.18-.07.18-.07.1-.07.22-.03.22-.07.22-.07.06-.07.14-.05.23-.11.35c-.06.11-.11.27-.11.34,0,.07-.03.13-.07.13s-.07.08-.07.18-.03.2-.07.22c-.04.02-.07.12-.07.22s-.03.18-.07.18-.07.08-.07.18-.03.24-.07.31c-.16.32-.44,1.06-.44,1.18,0,.08-.03.14-.07.14s-.07.1-.07.22-.03.22-.07.22-.07.06-.07.13c0,.12-.12.43-.29.76-.04.07-.07.19-.07.27s-.03.15-.07.15-.07.1-.07.22-.03.22-.07.22-.07.11-.07.25-.03.25-.07.25-.07.06-.07.14c0,.13-.09.14-1.75.17-1.3.02-1.76.05-1.78.12-.02.05-.14.09-.28.09s-.25.03-.25.07-.13.07-.29.07-.29.03-.29.07-.07.07-.15.07-.19.03-.24.07c-.18.15-.64.44-.71.44-.04,0-.07.03-.07.07s-.07.07-.14.07-.14.03-.14.06-.08.1-.18.16c-.1.05-.18.13-.18.16,0,.07-.18.27-.25.27-.06,0-.55.49-.55.55,0,.02-.07.12-.16.21-.29.3-.49.55-.49.63,0,.04-.03.07-.07.07s-.07.08-.07.18-.03.18-.07.18-.07.07-.07.15-.03.15-.06.15c-.1,0-.3.5-.3.73,0,.12-.03.22-.07.22s-.07.11-.07.25-.03.25-.07.25c-.05,0-.07.51-.07,1.38s.03,1.38.07,1.38c.04,0,.07.13.07.29s.03.29.07.29.07.11.07.25.03.25.07.25.07.07.07.15.05.17.11.19c.06.02.11.1.11.18s.03.14.07.14.07.07.07.15.03.15.07.15.07.07.07.15.03.15.07.15.07.03.07.08c0,.1.18.29.28.29.04,0,.08.05.08.11s.03.11.07.11.07.05.07.11.03.11.07.11.07.03.07.08c0,.08.18.29.25.29.02,0,.12.07.22.16.45.42.54.49.58.49.03,0,.1.06.17.13.06.07.26.19.42.27.17.08.31.17.31.2,0,.03.08.05.18.05s.18.03.18.07.13.07.29.07.29.03.29.07.07.07.15.07.22.04.31.09c.17.09.69.19,1.36.25l.41.04.04.34c.08.64.18,1.28.3,1.87.07.32.14.79.16,1.04.02.25.07.45.1.45s.07.21.07.47.03.47.07.47.08.22.1.49c.05.7.16,1.35.26,1.53.05.08.08.27.08.41s.03.28.07.3c.04.02.07.14.07.26s.03.21.07.21.07.11.07.25.03.25.07.25.07.04.07.1c0,.12.37.8.45.83.03.01.06.1.06.2s.03.18.07.18.09.06.11.14c.04.12.12.23.4.57.04.05.07.11.07.13s.07.12.16.21c.09.09.26.29.38.44.3.37.49.56.73.73.11.08.3.25.43.37.12.12.33.28.46.36.13.08.23.16.23.2s.05.06.11.06.11.03.11.07.05.07.11.07.16.04.21.09c.22.2.3.25.52.35.13.06.24.13.24.16s.1.05.22.05.22.03.22.07.08.07.18.07.18.03.18.07.04.07.08.07.18.05.31.1c.25.11.51.18.93.24.15.02.27.07.27.1,0,.04,3.85.07,9.23.07,6.1,0,9.23-.02,9.23-.07,0-.04.12-.07.27-.07.27,0,.59-.08,1.01-.27.13-.05.28-.1.34-.1s.12-.03.12-.07.08-.07.18-.07.18-.03.18-.07.05-.07.11-.07c.12,0,.75-.28.88-.4.26-.22.31-.26.38-.26.04,0,.08-.03.08-.07s.05-.07.11-.07.19-.08.29-.18c.1-.1.21-.18.23-.18s.2-.13.38-.3c.18-.16.41-.37.52-.45.11-.09.2-.19.2-.23,0-.04.09-.14.2-.22s.25-.21.31-.28c.06-.07.19-.21.28-.31.09-.09.16-.2.16-.23s.08-.15.18-.25c.1-.11.18-.25.18-.31s.03-.11.07-.11.07-.05.07-.11.03-.11.07-.11.07-.07.07-.15.03-.15.07-.15.13-.15.2-.33c.07-.18.16-.33.19-.33.03,0,.05-.06.05-.14s.03-.16.07-.19c.04-.02.07-.14.07-.26s.03-.21.07-.21.07-.11.07-.25.03-.25.07-.25.07-.11.07-.25.03-.34.08-.45c.08-.22.2-.92.26-1.55.02-.22.07-.43.1-.47s.07-.28.07-.53.03-.46.07-.46.07-.21.07-.47.03-.47.06-.47c.06,0,.2-.81.28-1.6.02-.22.07-.43.11-.47.04-.04.07-.19.07-.34v-.27l.42-.04c.68-.06,1.2-.16,1.37-.25.09-.05.23-.09.31-.09s.15-.03.15-.07.11-.07.25-.07.25-.02.25-.05.13-.1.29-.15c.38-.12.82-.4,1.39-.9.36-.31.41-.35.46-.35.07,0,.21-.16.32-.38.06-.11.13-.2.16-.2s.06-.05.06-.11.04-.11.09-.11c.09,0,.42-.45.42-.58,0-.04.03-.07.07-.07s.07-.07.07-.15.03-.15.07-.15.07-.05.07-.1.08-.24.18-.42c.1-.17.18-.42.18-.55,0-.13.03-.24.07-.24s.07-.11.07-.25.03-.25.07-.25c.05,0,.07-.47.07-1.27s-.03-1.27-.07-1.27c-.04,0-.07-.15-.07-.33s-.03-.33-.07-.33-.07-.11-.07-.25-.03-.25-.07-.25-.07-.06-.07-.14-.05-.19-.11-.25c-.06-.06-.11-.14-.11-.19s-.03-.08-.07-.08-.07-.07-.07-.15-.03-.15-.07-.15-.07-.06-.07-.13-.08-.23-.18-.35c-.1-.12-.27-.33-.38-.46-.33-.4-.58-.67-.63-.67-.07,0-.26-.2-.26-.27,0-.04-.08-.11-.18-.16-.1-.05-.18-.12-.18-.16s-.07-.06-.14-.06-.14-.03-.14-.06-.06-.08-.13-.11c-.07-.02-.27-.14-.45-.26-.18-.12-.38-.22-.45-.22-.07,0-.13-.04-.13-.08s-.13-.07-.29-.07-.29-.03-.29-.07-.11-.07-.25-.07-.26-.04-.27-.08c-.02-.06-.48-.09-1.45-.12-1.33-.03-1.43-.05-1.43-.17,0-.07-.03-.14-.07-.14s-.07-.1-.07-.22-.03-.22-.07-.22-.07-.08-.07-.18-.02-.18-.05-.18-.12-.21-.2-.47c-.08-.26-.17-.47-.2-.47s-.06-.1-.06-.22-.03-.22-.07-.22-.07-.08-.07-.18-.03-.2-.07-.22-.07-.1-.07-.17c0-.12-.12-.43-.29-.75-.04-.07-.07-.21-.07-.31s-.03-.18-.07-.18-.07-.08-.07-.18-.03-.18-.07-.18-.07-.1-.07-.22-.03-.22-.07-.22-.07-.08-.07-.18-.05-.23-.11-.29c-.06-.06-.11-.19-.11-.3s-.03-.19-.07-.19-.07-.08-.07-.18-.03-.18-.07-.18-.07-.11-.07-.25-.03-.25-.06-.25-.12-.21-.2-.47c-.08-.26-.17-.47-.2-.47s-.05-.08-.05-.18-.03-.18-.07-.18-.07-.1-.07-.22-.03-.22-.07-.22-.07-.07-.07-.15-.03-.2-.06-.27c-.03-.07-.1-.24-.15-.38-.21-.61-.33-.91-.38-.93-.03-.01-.05-.14-.05-.27s-.03-.25-.07-.25-.07-.06-.07-.13-.08-.3-.18-.51c-.1-.21-.18-.44-.18-.52s-.03-.15-.07-.15-.07-.1-.07-.22-.03-.22-.07-.22-.07-.08-.07-.18-.03-.18-.07-.18-.08-.07-.09-.16l-.02-.16-2.48-.02-2.48-.02V1.42h-14.11v2.87ZM28.68,4.66c.17.07.17,2.32,0,2.38-.06.02-1.77.04-3.8.04h-3.68v-2.47h3.68c2.03,0,3.74.02,3.8.04ZM19.14,10.55c-.06.16-.18.76-.23,1.16-.02.17-.07.31-.1.31s-.07.18-.07.4-.03.4-.07.4-.07.15-.07.33-.03.33-.06.33c-.06,0-.22.73-.28,1.29-.02.17-.06.31-.1.31s-.07.15-.07.33-.03.33-.07.33-.07.18-.07.4-.03.4-.07.4-.08.16-.1.35c-.02.19-.09.54-.16.78-.07.24-.14.59-.16.78-.02.19-.07.35-.1.35s-.07.18-.07.4-.03.4-.07.4-.07.15-.07.33v.33h-2.4c-2.25,0-2.39,0-2.34-.13.03-.07.07-.22.09-.33.02-.11.06-.2.1-.2s.06-.1.06-.22.03-.22.07-.22.07-.07.07-.15.08-.32.18-.52c.1-.21.18-.44.18-.51s.03-.13.07-.13.07-.11.07-.25.03-.25.07-.25.07-.1.07-.22.03-.22.07-.22.07-.06.07-.13c0-.07.05-.19.11-.27.06-.08.11-.21.11-.3s.03-.18.07-.21c.04-.02.07-.12.07-.22s.03-.18.07-.18.07-.1.07-.22.03-.22.07-.22.07-.08.07-.18.03-.18.07-.18.07-.06.07-.14c0-.13.13-.48.3-.82.04-.07.06-.21.06-.31s.03-.18.07-.18.07-.08.07-.18.03-.18.07-.18.07-.1.07-.22.03-.22.07-.22.09-.11.12-.25c.03-.14.08-.25.11-.25s.06-.1.06-.22.03-.22.07-.22.07-.08.07-.18.03-.18.07-.18.07-.11.07-.25.03-.25.07-.25.07-.07.07-.15c0-.14.05-.15,1.67-.15s1.67,0,1.62.13ZM28.03,12.99c.03,1.41.08,3.13.12,3.83.04.7.07,1.75.07,2.34v1.07s-2.89,0-2.89,0h-2.89v-1.82c0-1.16.03-1.82.07-1.82s.07-.71.07-1.99c0-1.09.02-2.48.05-3.09l.05-1.1h5.31l.05,2.56ZM34.83,10.71c.07.15.12.33.12.4s.03.12.07.12.07.11.07.25.03.25.07.25.07.08.07.18.03.2.07.22c.04.02.07.12.07.22s.03.18.06.18.09.11.11.25c.03.14.08.25.12.25s.07.1.07.22.03.22.07.22.07.1.07.22.03.22.07.22.07.07.07.15.03.2.06.27c.15.31.3.68.3.78,0,.06.03.11.07.11s.07.11.07.25.03.25.07.25.07.08.07.18.03.18.07.18.07.1.07.22.03.22.06.22.09.11.11.25c.03.14.08.25.12.25s.07.1.07.22.03.22.07.22.07.08.07.18.03.18.07.18.07.08.07.18.03.24.06.31c.17.34.3.69.3.82,0,.08.03.14.07.14s.07.08.07.18.03.18.07.18.07.1.07.22.03.22.07.22.07.03.07.07c0,.05-.84.07-2.39.07h-2.39v-.24c0-.13-.03-.27-.07-.31-.04-.04-.08-.2-.1-.36-.09-.67-.18-1.12-.26-1.26-.04-.08-.08-.27-.08-.41s-.03-.26-.07-.26-.07-.16-.07-.36-.03-.36-.07-.36-.07-.16-.07-.36-.03-.36-.07-.36-.08-.16-.1-.35c-.04-.43-.18-1.03-.27-1.2-.04-.07-.07-.26-.07-.42s-.03-.29-.07-.29-.07-.16-.07-.36-.03-.36-.07-.36-.07-.16-.07-.36-.03-.38-.07-.4c-.04-.02-.07-.14-.07-.25s-.04-.3-.08-.41c-.04-.11-.1-.35-.14-.53-.03-.18-.08-.38-.11-.45-.05-.12.05-.13,1.6-.13h1.66l.12.28ZM43.56,23.87s.18.07.39.07.41.03.44.07c.02.04.11.07.18.07s.18.05.24.11c.06.06.16.11.22.11s.11.03.11.07.03.07.07.07c.14,0,1.08,1.02,1.08,1.17,0,.08.03.14.07.14s.07.1.07.22.03.22.07.22.07.12.07.27c0,.15.03.4.08.55.05.2.05.39,0,.69-.13.66-.24,1.03-.3,1.03-.03,0-.06.07-.06.15s-.07.23-.16.32c-.25.26-.34.39-.34.44,0,.08-.2.25-.29.25-.05,0-.14.06-.2.14-.06.07-.19.16-.28.19-.09.03-.16.08-.16.12s-.07.07-.14.07-.14.03-.14.07-.11.07-.25.07-.25.03-.25.07c0,.05-6.4.07-19.07.07s-19.07-.02-19.07-.07c0-.04-.11-.07-.25-.07s-.25-.03-.25-.07-.07-.07-.14-.07-.14-.03-.14-.07-.07-.09-.16-.12c-.09-.03-.22-.11-.28-.19-.06-.07-.16-.14-.21-.14-.1,0-.26-.17-.52-.55-.09-.14-.2-.25-.23-.25-.03,0-.05-.06-.05-.14s-.03-.16-.07-.19c-.04-.02-.07-.11-.07-.19s-.03-.14-.07-.14-.07-.09-.07-.2c0-.11-.05-.37-.1-.57-.08-.32-.08-.44.01-.84.21-.88.27-1.08.32-1.08.03,0,.06-.07.06-.15,0-.15.94-1.16,1.08-1.16.04,0,.08-.03.08-.07s.05-.07.11-.07.16-.05.22-.11c.06-.06.17-.11.25-.11s.14-.03.14-.07.19-.07.43-.07.43-.03.43-.07c0-.05,6.23-.07,18.56-.07s18.56.02,18.56.07ZM39.74,34.58c-.02.25-.06.47-.1.48-.03.01-.06.25-.06.53s-.03.5-.07.5-.08.2-.1.45c-.02.25-.09.73-.16,1.07-.16.82-.25,1.46-.3,2.02-.02.25-.07.45-.1.45s-.07.13-.07.29-.03.29-.07.29-.07.06-.07.14c0,.16-.36.97-.45,1.01-.03.01-.06.09-.06.16s-.03.14-.07.14-.07.03-.07.08-.03.12-.07.16c-.32.38-.43.53-.43.58,0,.03-.19.24-.42.45-.64.61-.73.69-.81.69-.04,0-.08.03-.08.07s-.05.07-.11.07-.19.08-.29.18c-.1.1-.23.18-.29.18s-.11.03-.11.07-.07.07-.14.07-.14.03-.14.07-.08.07-.18.07-.18.03-.18.06-.11.08-.24.11c-.13.02-.5.1-.81.17-.54.12-1.16.13-8.68.13s-8.15,0-8.68-.13c-.32-.07-.68-.15-.81-.17-.13-.02-.24-.07-.24-.11s-.08-.06-.18-.06-.18-.03-.18-.07-.05-.07-.11-.07c-.12,0-.42-.18-.64-.38-.08-.07-.18-.13-.24-.13s-.09-.03-.09-.07-.03-.07-.08-.07c-.15,0-1.37-1.21-1.37-1.35,0-.06-.04-.1-.09-.1s-.14-.11-.19-.24c-.06-.13-.16-.29-.23-.35-.07-.06-.13-.17-.13-.23,0-.13-.23-.58-.31-.62-.03-.01-.05-.12-.05-.24s-.03-.21-.07-.21-.07-.15-.07-.33-.03-.33-.07-.33-.08-.19-.11-.42c-.06-.61-.16-1.28-.3-1.98-.07-.34-.14-.82-.16-1.07-.02-.25-.06-.45-.1-.45s-.07-.21-.07-.47-.03-.47-.07-.47-.07-.2-.07-.46-.04-.5-.09-.55c-.07-.07,3.21-.09,14.75-.09h14.83l-.03.45Z" fill="#fff" fill-rule="evenodd"/>
</svg>