<svg   width="50" height="50"  viewBox="0 0 45 30" fill="none" xmlns="http://www.w3.org/2000/svg">
<path d="M26.2012 0C30.1882 0 33.5151 2.69658 34.2607 6.25684L42.3027 1.87207C42.8631 1.56758 43.5455 1.56778 44.1006 1.87207C44.6558 2.17666 45 2.73663 45 3.34082V26.6592C45 27.2634 44.6558 27.8233 44.1006 28.1279C43.8205 28.2825 43.5139 28.3574 43.2021 28.3574C42.8902 28.3574 42.583 28.2777 42.3027 28.1279L34.2607 23.7432C33.5152 27.3034 30.1833 30 26.1963 30H8.21777C3.68605 30 0 26.5195 0 22.2402V7.75977C0 3.48047 3.68605 0 8.21777 0H26.2012ZM8.21777 3.53516C5.74833 3.53516 3.74414 5.43287 3.74414 7.75977V22.2402C3.74414 24.5721 5.75361 26.4648 8.21777 26.4648H26.1963C28.6657 26.4648 30.6699 24.5671 30.6699 22.2402V7.75977C30.6699 5.42789 28.6604 3.53518 26.1963 3.53516H8.21777ZM34.4141 10.0869V19.918L41.4043 23.7285V6.27637L34.4141 10.0869Z" fill="white"/>
</svg>
