<svg width="24" height="24" viewBox="0 0 24 24" fill="none" xmlns="http://www.w3.org/2000/svg">
<path d="M11.9 12.522C11.9 10.6001 10.3419 9.042 8.41995 9.042C6.498 9.042 4.93995 10.6001 4.93995 12.522C4.93995 14.444 6.498 16.002 8.41995 16.002C10.3419 16.002 11.9 14.444 11.9 12.522ZM12.7 12.522C12.7 14.8858 10.7837 16.802 8.41995 16.802C6.05618 16.802 4.13995 14.8858 4.13995 12.522C4.13995 10.1582 6.05618 8.242 8.41995 8.242C10.7837 8.242 12.7 10.1582 12.7 12.522Z" fill="white"/>
<path d="M8.01996 21.162V2.36204C8.01996 2.14112 8.19904 1.96204 8.41996 1.96204C8.64087 1.96204 8.81996 2.14112 8.81996 2.36204V21.162C8.81996 21.3829 8.64087 21.562 8.41996 21.562C8.19904 21.562 8.01996 21.3829 8.01996 21.162Z" fill="white"/>
<path d="M2.23994 12.122L21.0399 12.122C21.2609 12.122 21.4399 12.3011 21.4399 12.522C21.4399 12.7429 21.2609 12.922 21.0399 12.922L2.23994 12.922C2.01903 12.922 1.83994 12.7429 1.83994 12.522C1.83994 12.3011 2.01903 12.122 2.23994 12.122Z" fill="white"/>
</svg>
