<svg   width="50" height="50"  viewBox="0 0 42 42" fill="none" xmlns="http://www.w3.org/2000/svg">
<path d="M21 0.5C32.3218 0.5 41.5 9.67816 41.5 21C41.5 32.3218 32.3218 41.5 21 41.5C9.67816 41.5 0.5 32.3218 0.5 21C0.5 9.67816 9.67816 0.5 21 0.5ZM10.377 34.9062C13.3227 37.1599 17.0046 38.5 21 38.5C30.665 38.5 38.5 30.665 38.5 21C38.5 17.0046 37.1599 13.3227 34.9062 10.377L10.377 34.9062ZM21 3.5C11.335 3.5 3.5 11.335 3.5 21C3.5 25.5885 5.26689 29.7638 8.15625 32.8848L32.8848 8.15527C29.7638 5.26618 25.5883 3.5 21 3.5Z" fill="white"/>
</svg>
