<svg width="24" height="24" viewBox="0 0 24 24" fill="none" xmlns="http://www.w3.org/2000/svg">
<path d="M16.7914 10.5551C16.7914 10.9948 16.9194 11.4722 17.0701 11.7436L17.0727 11.7483L17.0752 11.753C17.0739 11.7506 17.0823 11.7658 17.108 11.8109C17.1308 11.8509 17.1628 11.9068 17.2029 11.9766C17.2829 12.1162 17.3944 12.31 17.5268 12.54C17.7917 12.9998 18.14 13.6032 18.4871 14.2035C18.8343 14.8038 19.18 15.4005 19.4399 15.847C19.449 15.8626 19.4579 15.8779 19.4667 15.893C19.4774 15.8736 19.4881 15.8539 19.499 15.8339C19.7532 15.3692 20.0927 14.7465 20.4342 14.1195C20.7756 13.4925 21.1189 12.8613 21.3804 12.3797C21.5112 12.1388 21.6215 11.9355 21.7009 11.7888C21.7406 11.7155 21.7724 11.6565 21.7952 11.6142C21.8066 11.593 21.8155 11.5763 21.822 11.5642C21.8267 11.5554 21.8292 11.5508 21.8302 11.549L21.8301 11.5489C21.8983 11.4133 22.0112 11.0087 22.0112 10.5551C22.0112 9.07766 20.8304 7.90238 19.4013 7.90236C17.9722 7.90236 16.7914 9.07764 16.7914 10.5551ZM15.8733 10.5551C15.8733 8.6039 17.4405 7.00009 19.4013 7.00009C21.362 7.0001 22.9293 8.60389 22.9293 10.5551C22.9293 11.1137 22.7975 11.6617 22.6532 11.9487L22.653 11.949L22.6107 12.0286C22.4456 12.3357 21.8379 13.4539 21.2437 14.5452C20.9021 15.1724 20.5622 15.7957 20.3078 16.261C20.1805 16.4937 20.0745 16.6872 20.0001 16.8222C19.963 16.8895 19.9333 16.943 19.9128 16.9797C19.9027 16.9978 19.8939 17.0133 19.8873 17.0248C19.8844 17.0299 19.8799 17.0378 19.8751 17.0455C19.8739 17.0475 19.867 17.0589 19.8576 17.0721C19.8548 17.076 19.8478 17.0853 19.8436 17.0908C19.837 17.0989 19.8182 17.1204 19.8055 17.1334C19.7773 17.159 19.6492 17.2346 19.5414 17.2623C19.5209 17.2592 19.5004 17.2543 19.4802 17.2483V17.2662C19.3857 17.2566 19.2545 17.208 19.2158 17.184C19.1958 17.1693 19.1652 17.1434 19.1542 17.1328C19.1347 17.1136 19.1213 17.0968 19.1172 17.0916C19.1067 17.0783 19.0989 17.067 19.0965 17.0634C19.0899 17.0539 19.084 17.0446 19.0805 17.0389C19.0723 17.026 19.0623 17.0096 19.0515 16.9916C19.0293 16.9548 18.998 16.9021 18.9595 16.8367C18.8823 16.7056 18.7732 16.5187 18.643 16.2951C18.3825 15.8474 18.0362 15.2498 17.6889 14.6493C17.0215 13.4952 16.3369 12.3069 16.2642 12.1757L16.2641 12.1757C16.0315 11.7566 15.8733 11.1276 15.8733 10.5551Z" fill="white"/>
<path d="M20.317 10.6066C20.317 10.1082 19.9059 9.70428 19.3989 9.70428C18.8918 9.70428 18.4808 10.1082 18.4808 10.6066C18.4808 11.1049 18.8918 11.5088 19.3989 11.5088C19.9059 11.5088 20.317 11.1049 20.317 10.6066ZM21.2351 10.6066C21.2351 11.6032 20.413 12.4111 19.3989 12.4111C18.3848 12.4111 17.5627 11.6032 17.5627 10.6066C17.5627 9.60993 18.3848 8.802 19.3989 8.802C20.413 8.802 21.2351 9.60993 21.2351 10.6066Z" fill="white"/>
<path d="M1.91809 10.555C1.9181 10.9947 2.04609 11.4721 2.19675 11.7435L2.19935 11.7482L2.20186 11.7529C2.20059 11.7505 2.20899 11.7656 2.23472 11.8108C2.25749 11.8508 2.2895 11.9067 2.32954 11.9765C2.40958 12.116 2.52107 12.3099 2.65352 12.5399C2.9184 12.9997 3.26672 13.6031 3.61381 14.2033C3.96095 14.8036 4.30672 15.4004 4.56662 15.8469C4.57565 15.8624 4.58462 15.8777 4.59343 15.8929C4.60403 15.8735 4.61478 15.8538 4.62571 15.8338C4.87983 15.3691 5.21938 14.7464 5.56085 14.1194C5.9023 13.4924 6.24557 12.8612 6.50711 12.3795C6.63789 12.1387 6.74818 11.9354 6.82755 11.7887C6.86725 11.7153 6.8991 11.6564 6.92187 11.6141C6.93327 11.5929 6.94222 11.5762 6.94868 11.564C6.95337 11.5553 6.95589 11.5507 6.95684 11.5488L6.95679 11.5488C7.02498 11.4132 7.13786 11.0086 7.13786 10.555C7.13786 9.07754 5.95705 7.90225 4.52798 7.90224C3.09891 7.90224 1.91809 9.07752 1.91809 10.555ZM0.999986 10.555C0.999986 8.60377 2.56721 6.99996 4.52798 6.99996C6.48873 6.99998 8.05597 8.60377 8.05597 10.555C8.05597 11.1136 7.92418 11.6616 7.77991 11.9485L7.77969 11.9489L7.73737 12.0284C7.57225 12.3356 6.96462 13.4538 6.37034 14.5451C6.02876 15.1723 5.68893 15.7956 5.43443 16.2609C5.30722 16.4935 5.20114 16.6871 5.12677 16.8221C5.08966 16.8894 5.06001 16.9429 5.03948 16.9796C5.02939 16.9977 5.02062 17.0132 5.01397 17.0247C5.01107 17.0298 5.00655 17.0376 5.00178 17.0454C5.00059 17.0473 4.99365 17.0587 4.9843 17.072C4.98147 17.0759 4.97451 17.0852 4.97031 17.0906C4.96372 17.0988 4.94487 17.1203 4.93221 17.1333C4.90402 17.1589 4.77592 17.2345 4.66807 17.2621C4.64754 17.259 4.62712 17.2542 4.60683 17.2481V17.2661C4.51243 17.2565 4.38118 17.2079 4.34252 17.1839C4.32245 17.1692 4.29189 17.1433 4.28083 17.1327C4.2614 17.1134 4.24803 17.0966 4.24389 17.0914C4.23338 17.0782 4.2256 17.0669 4.22314 17.0633C4.21661 17.0537 4.21073 17.0445 4.20713 17.0388C4.19903 17.0259 4.18903 17.0095 4.17817 16.9915C4.15598 16.9546 4.12472 16.902 4.08623 16.8366C4.00898 16.7055 3.89989 16.5186 3.76969 16.2949C3.50915 15.8473 3.16287 15.2497 2.81558 14.6492C2.14819 13.495 1.46353 12.3068 1.3909 12.1756L1.39081 12.1756C1.15816 11.7565 0.999989 11.1274 0.999986 10.555Z" fill="white"/>
<path d="M6.36173 10.6066C6.36173 11.6032 5.53963 12.4111 4.52552 12.4111C3.5114 12.4111 2.6893 11.6032 2.6893 10.6066C2.6893 9.60993 3.5114 8.802 4.52552 8.802C5.53963 8.802 6.36173 9.60993 6.36173 10.6066Z" fill="white"/>
<line x1="6.5" y1="17.5" x2="17.5" y2="17.5" stroke="white" stroke-linecap="round" stroke-dasharray="2 2"/>
</svg>
