<?xml version="1.0" encoding="UTF-8"?>
<svg id="Layer_1" xmlns="http://www.w3.org/2000/svg" version="1.1"   width="50" height="50" viewBox="0 0 64 65">
  <!-- Generator: Adobe Illustrator 29.5.1, SVG Export Plug-In . SVG Version: 2.1.0 Build 141)  -->
  <defs>
    <style>
      .st0 {
        fill: #fff;
      }
    </style>
  </defs>
  <path class="st0" d="M41.2,47.65s.01-.07.01-.11v-1.26c0-.53-.3-1.01-.78-1.23-.65-.3-1.2-.78-1.59-1.39-.39-.61-.59-1.32-.59-2.04s.21-1.43.59-2.04c.39-.61.94-1.09,1.59-1.39l.04-.02c.43-.22.72-.66.73-1.16v-.05s0-3.15,0-3.15c0,0,0,0,0-.01,0,0,0-.01,0-.02v-12.6c0-.58-.37-1.09-.9-1.28l-.05-.02c-2.12-.62-4.44-1.07-6.88-1.22v-2.74c1.21-.26,2.33-.86,3.21-1.76,1.06-1.08,1.68-2.5,1.82-4,.09-.19.15-.39.14-.61-.04-1.72-.75-3.36-1.96-4.56-.89-.88-2.01-1.48-3.21-1.73v-1.94C33.38.6,32.79,0,32.06,0s-1.33.6-1.33,1.35v1.94c-1.2.25-2.32.85-3.21,1.73-1.21,1.2-1.92,2.84-1.96,4.56,0,.22.05.42.14.61.14,1.5.76,2.92,1.82,4,.88.9,2,1.5,3.21,1.76v2.71c-2.22.09-4.53.47-6.92,1.26-.55.18-.92.7-.92,1.28v12.6s0,.01,0,.02c0,0,0,0,0,.01v3.15c0,.53.3,1.01.78,1.23l.06.03c.62.3,1.15.77,1.53,1.36.37.59.58,1.27.59,1.97v.07c0,.72-.21,1.43-.59,2.04-.39.61-.94,1.09-1.59,1.39-.47.22-.78.7-.78,1.23v1.26s.01.07.01.11c0,.03-.01.05-.01.07v12.6c0,.2.04.39.13.57l.03.06c.62,1.3,1.84,2.22,3.16,2.84,1.37.64,3.01,1.03,4.68,1.16,3.28.26,7.12-.46,9.5-2.78l.04-.04s.07-.08.1-.12l.06-.08c.27-.38.47-.82.59-1.27v-.04c.03-.1.04-.2.04-.3v-12.6s-.01-.05-.01-.07ZM32.06,5.84c1,0,1.97.4,2.69,1.11.66.66,1.05,1.53,1.13,2.46h-7.64c.08-.93.47-1.81,1.13-2.46.72-.71,1.68-1.11,2.69-1.11ZM25.54,22.19c4.71-1.35,9.11-.99,13.02.03v11.04c-.26.14-.67.3-1.18.46-.04.01-.07.02-.11.03-1.3.33-3.15.59-5.22.59s-3.92-.25-5.22-.59c-.04-.01-.07-.02-.11-.03-.52-.16-.93-.33-1.19-.46v-11.07ZM27.48,45.13c.66-1.04,1.01-2.26,1.02-3.5h0c0-1.24-.35-2.46-1.02-3.5-.5-.78-1.15-1.44-1.91-1.94.13.04.27.08.41.12.06.02.1.04.16.05,1.54.46,3.62.81,5.91.81,2.29,0,4.37-.35,5.91-.81.06-.02.1-.04.16-.06.14-.04.28-.07.41-.12-.76.5-1.42,1.16-1.91,1.94-.66,1.04-1.01,2.26-1.01,3.5s.35,2.46,1.01,3.5c.47.74,1.09,1.38,1.8,1.86-.26.08-.62.17-1.07.26-1.32.25-3.19.41-5.3.41s-3.98-.16-5.3-.41c-.45-.08-.81-.17-1.07-.26.72-.49,1.33-1.12,1.81-1.86ZM38.57,60.12c-.03.07-.06.13-.1.2-1.62,1.51-4.51,2.18-7.37,1.95-1.43-.11-2.75-.44-3.78-.92-.9-.42-1.48-.91-1.77-1.37v-10.09c.23.06.47.11.71.16,1.52.31,3.56.51,5.8.51s4.28-.2,5.8-.51c.25-.05.48-.1.71-.16v10.23Z"/>
  <path class="st0" d="M31.99,33.1c2.85,0,5.17-2.35,5.17-5.25s-2.31-5.25-5.17-5.25-5.17,2.35-5.17,5.25,2.31,5.25,5.17,5.25ZM31.99,25.29c1.39,0,2.52,1.15,2.52,2.56s-1.13,2.56-2.52,2.56-2.52-1.14-2.52-2.56,1.13-2.56,2.52-2.56Z"/>
  <path class="st0" d="M32.06,51.4c-2.67,0-4.84,2.2-4.84,4.91s2.17,4.91,4.84,4.91,4.84-2.2,4.84-4.91-2.17-4.91-4.84-4.91ZM32.06,58.53c-1.21,0-2.19-.99-2.19-2.22s.98-2.22,2.19-2.22,2.19.99,2.19,2.22-.98,2.22-2.19,2.22Z"/>
</svg>