<?xml version="1.0" encoding="UTF-8"?>
<svg id="Layer_1" xmlns="http://www.w3.org/2000/svg" version="1.1"   width="50" height="50" viewBox="0 0 65 62">
  <!-- Generator: Adobe Illustrator 29.5.1, SVG Export Plug-In . SVG Version: 2.1.0 Build 141)  -->
  <defs>
    <style>
      .st0 {
        fill: #fff;
      }
    </style>
  </defs>
  <path class="st0" d="M32.72,5.5h5.48V.39h-11.27v5.11h5.41L1.39,56.73l1.21.68c.07.04.14.08.21.12l.45.25.52-.09c2.27-.42,5.37-.89,7.6-.89.48,0,.86.02,1.14.06-.11.14-.27.35-.39.55-.07.12-.17.32-.23.56-.06.25-.08.63.13,1.03h0s0,0,0,0c.28.53.78.74,1.05.81.29.08.58.1.8.1.79,0,2.07-.22,3.77-.58,1.09-.24,1.94-.4,2.58-.51.18-.03.34-.06.48-.08l.02.02.02.03c.37.41.87.53,1.1.58.29.06.6.07.9.07.4,0,.9-.03,1.45-.08h0c1.26-.12,2.24-.17,3.08-.17.79,0,1.38.05,2.06.1h.12s0,0,0,0c.81.06,1.6.12,2.76.12.66,0,1.35-.02,2.13-.06h0c.1,0,.19,0,.28,0,1.23,0,1.82.4,2.41.86.09.07.18.14.27.22h0s0,0,0,0c.56.46,1.47,1.26,2.89,1.26.82,0,1.64-.27,2.43-.66h0c.89-.44,1.88-1.1,3.01-1.97l.5-.38c2.43-1.86,4.13-3.05,5.35-3.77h0c1.2-.71,1.77-.85,2.04-.86.12,0,.24.03.35.07h.02s.02.01.02.01c.8.3,2.8.79,4.89,1.31.49.12.99.24,1.51.37l3.27.81L32.72,5.5ZM32.53,10.89l5.7,9.37c-1.78.78-3.71,1.19-5.7,1.19s-3.92-.41-5.69-1.18l5.7-9.37ZM25.42,22.59c2.15.98,4.56,1.54,7.11,1.54s4.96-.56,7.12-1.55l5.34,8.78c-3.83,1.89-8.09,2.89-12.46,2.89s-8.62-.99-12.45-2.88l5.34-8.78ZM18.67,33.69c4.15,2.07,8.85,3.25,13.86,3.25s9.72-1.19,13.87-3.26l6.37,10.48c-6.19,3.19-13.13,4.87-20.24,4.87s-14.04-1.68-20.23-4.87l6.37-10.48ZM55.04,51.65l-.06-.02c-.44-.18-.92-.27-1.4-.28h0s0,0,0,0c-1.04,0-2.12.45-3.3,1.12l-.24.14c-1.37.81-3.18,2.09-5.64,3.97l-.5.38c-1,.77-1.79,1.29-2.42,1.62l-.12.06h0c-.59.29-.94.36-1.13.36-.22,0-.36-.06-.93-.52l-.12-.1h0s-.15-.12-.15-.12l-.16-.13h0s-.16-.13-.16-.13c-.84-.64-2.04-1.35-4.04-1.35-.1,0-.21,0-.32,0h-.11s0,0,0,0c-.74.04-1.39.05-1.99.05-.92,0-1.57-.04-2.23-.09l-.29-.02h-.12s0,0,0,0c-.68-.06-1.37-.11-2.3-.11-.84,0-1.77.05-2.87.14l-.48.04c-.37.03-.67.06-.92.06-.04-.06-.08-.12-.12-.17-.3-.36-.69-.48-.9-.53-.22-.05-.43-.06-.59-.06-.42,0-.99.08-1.66.19-.61.1-1.37.25-2.3.45l-.41.09c-.53.11-.99.21-1.39.28.08-.29.12-.65.01-1.04l-.02-.07c-.25-.8-.94-1.2-1.47-1.4l-.1-.04c-.73-.25-1.67-.34-2.69-.34-1.64,0-3.62.22-5.43.49l4.92-8.1c6.44,3.33,13.81,5.23,21.65,5.23s15.22-1.9,21.66-5.23l3.6,5.91c-1.31-.33-2.29-.59-2.74-.75Z"/>
</svg>