<svg width="24" height="24" viewBox="0 0 24 24" fill="none" xmlns="http://www.w3.org/2000/svg">
<line x1="15.3536" y1="4.64645" x2="19.3536" y2="8.64645" stroke="white"/>
<path d="M9.69453 15.7555L9.89141 16.2328L9.9875 16.4586L9.86484 16.6727L9.79922 16.7805L9.88828 16.7625L10.2969 17.6523L9.7 18.1L9.52656 17.8688L8.92109 18.0055L7.81406 18.2547L8.37578 17.2719L8.72656 16.6523L7.85781 16.9523L7.52891 17.0672L7.30781 16.7984L6.98906 16.4125L6.79453 16.1727L6.91875 15.8891L6.98516 15.7367L6.87969 15.7523L6.35 15.8078L6.32578 15.2742L6.30078 14.668L6.30391 14.6656L6.27109 14.2898L6.11641 14.1422L6.08437 14.1125L6 14L6.8 13.4L6.83984 13.4531L7.23516 13.8305L7.25 14.0195L7.3 14.607L7.30156 14.6156L7.30234 14.6297L7.30312 14.7023L7.74219 14.6563L8.60312 14.5672L8.25 15.3594L8.0375 15.8313L9.07031 15.4766L9.51328 15.325L9.69453 15.7555Z" fill="white"/>
<path d="M17.7422 2.53906C17.7994 2.58838 17.8773 2.66244 18.001 2.78613L21.2109 5.99609V5.99707L21.4004 6.18848C21.4252 6.21466 21.4444 6.23767 21.4609 6.25684C21.4102 6.31581 21.3363 6.39415 21.2139 6.5166L8.68945 19.04L8.60938 19.1172H8.61035C8.58821 19.1233 8.55935 19.1302 8.51367 19.1416L3.63867 20.3594L4.8584 15.4854C4.86576 15.4559 4.87093 15.4334 4.87598 15.4141C4.87867 15.4038 4.88095 15.3953 4.88281 15.3887L4.95801 15.3105L17.4834 2.78613C17.607 2.66248 17.6849 2.5884 17.7422 2.53906Z" stroke="white"/>
</svg>
