<svg width="24" height="24" viewBox="0 0 24 24" fill="none" xmlns="http://www.w3.org/2000/svg">
<mask id="path-1-inside-1_304_41801" fill="white">
<path d="M13.2227 2C13.7747 2.00023 14.2227 2.44786 14.2227 3V4.31445C14.7987 4.48074 15.3477 4.70982 15.8623 4.99414L16.793 4.06445C17.1835 3.67421 17.8166 3.67403 18.207 4.06445L19.9355 5.79297C20.326 6.1834 20.3258 6.81649 19.9355 7.20703L19.0049 8.13672C19.2895 8.65161 19.5182 9.201 19.6846 9.77734H21C21.5521 9.77734 21.9998 10.2253 22 10.7773V13.2227C21.9998 13.7747 21.5521 14.2227 21 14.2227H19.6846C19.5182 14.7987 19.2893 15.3476 19.0049 15.8623L19.9355 16.793C20.3258 17.1835 20.326 17.8166 19.9355 18.207L18.207 19.9355C17.8166 20.326 17.1835 20.3258 16.793 19.9355L15.8623 19.0049C15.3476 19.2893 14.7987 19.5182 14.2227 19.6846V21C14.2227 21.5521 13.7747 21.9998 13.2227 22H10.7773C10.2253 21.9998 9.77734 21.5521 9.77734 21V19.6846C9.201 19.5182 8.65161 19.2895 8.13672 19.0049L7.20703 19.9355C6.81649 20.3257 6.18339 20.3259 5.79297 19.9355L4.06445 18.207C3.67405 17.8166 3.67426 17.1835 4.06445 16.793L4.99414 15.8623C4.70986 15.3477 4.48171 14.7986 4.31543 14.2227H3C2.44786 14.2227 2.00023 13.7747 2 13.2227V10.7773C2.00023 10.2253 2.44786 9.77734 3 9.77734H4.31543C4.48179 9.20115 4.70967 8.65149 4.99414 8.13672L4.06445 7.20703C3.67426 6.81649 3.67405 6.18339 4.06445 5.79297L5.79297 4.06445C6.18339 3.67405 6.81649 3.67426 7.20703 4.06445L8.13672 4.99414C8.65157 4.70963 9.20105 4.48082 9.77734 4.31445V3C9.77734 2.44786 10.2253 2.00023 10.7773 2H13.2227Z"/>
</mask>
<path d="M13.2227 2L13.2231 1H13.2227V2ZM14.2227 4.31445H13.2227V5.0666L13.9453 5.27522L14.2227 4.31445ZM15.8623 4.99414L15.3787 5.86944L16.037 6.23311L16.569 5.70162L15.8623 4.99414ZM16.793 4.06445L17.4997 4.77193L17.4998 4.77183L16.793 4.06445ZM18.207 4.06445L18.9141 3.35735L18.9141 3.35733L18.207 4.06445ZM19.9355 5.79297L20.6427 5.08588L20.6427 5.08586L19.9355 5.79297ZM19.9355 7.20703L20.6423 7.91451L20.6429 7.91387L19.9355 7.20703ZM19.0049 8.13672L18.2981 7.42924L17.7654 7.96141L18.1297 8.62044L19.0049 8.13672ZM19.6846 9.77734L18.7238 10.0547L18.9324 10.7773H19.6846V9.77734ZM21 9.77734V8.77734V9.77734ZM22 10.7773H23V10.7769L22 10.7773ZM22 13.2227L23 13.2231V13.2227H22ZM21 14.2227V15.2227V14.2227ZM19.6846 14.2227V13.2227H18.9324L18.7238 13.9453L19.6846 14.2227ZM19.0049 15.8623L18.1296 15.3787L17.7657 16.0373L18.2978 16.5694L19.0049 15.8623ZM19.9355 16.793L20.6429 16.0861L20.6427 16.0859L19.9355 16.793ZM19.9355 18.207L20.6427 18.9141L20.6427 18.9141L19.9355 18.207ZM18.207 19.9355L18.9141 20.6427L18.9141 20.6427L18.207 19.9355ZM16.793 19.9355L16.0859 20.6427L16.0861 20.6429L16.793 19.9355ZM15.8623 19.0049L16.5694 18.2978L16.0373 17.7657L15.3787 18.1296L15.8623 19.0049ZM14.2227 19.6846L13.9453 18.7238L13.2227 18.9324V19.6846H14.2227ZM13.2227 22V23H13.2231L13.2227 22ZM10.7773 22L10.7769 23H10.7773V22ZM9.77734 21H8.77734H9.77734ZM9.77734 19.6846H10.7773V18.9324L10.0547 18.7238L9.77734 19.6846ZM8.13672 19.0049L8.62044 18.1297L7.96141 17.7654L7.42924 18.2981L8.13672 19.0049ZM7.20703 19.9355L7.91382 20.643L7.91451 20.6423L7.20703 19.9355ZM5.79297 19.9355L5.08586 20.6427L5.08588 20.6427L5.79297 19.9355ZM4.06445 18.207L3.35733 18.9141L3.35735 18.9141L4.06445 18.207ZM4.06445 16.793L4.77187 17.4998L4.77193 17.4997L4.06445 16.793ZM4.99414 15.8623L5.70162 16.569L6.23311 16.037L5.86944 15.3787L4.99414 15.8623ZM4.31543 14.2227L5.27619 13.9453L5.06755 13.2227H4.31543V14.2227ZM3 14.2227L3 15.2227H3V14.2227ZM2 13.2227H1L1 13.2231L2 13.2227ZM2 10.7773L1 10.7769V10.7773H2ZM3 9.77734L3 10.7773H3V9.77734ZM4.31543 9.77734V10.7773H5.06755L5.27619 10.0547L4.31543 9.77734ZM4.99414 8.13672L5.86939 8.62039L6.23337 7.96174L5.70125 7.42961L4.99414 8.13672ZM4.06445 7.20703L3.35703 7.91382L3.35735 7.91414L4.06445 7.20703ZM4.06445 5.79297L3.35735 5.08586L3.35733 5.08588L4.06445 5.79297ZM5.79297 4.06445L5.08588 3.35733L5.08586 3.35735L5.79297 4.06445ZM7.20703 4.06445L7.91414 3.35735L7.91382 3.35703L7.20703 4.06445ZM8.13672 4.99414L7.42961 5.70125L7.96174 6.23337L8.62039 5.86939L8.13672 4.99414ZM9.77734 4.31445L10.0547 5.27522L10.7773 5.0666V4.31445H9.77734ZM9.77734 3L8.77734 3V3H9.77734ZM10.7773 2V1L10.7769 1L10.7773 2ZM13.2227 2L13.2222 3L13.2227 3H14.2227H15.2227C15.2227 1.89515 14.3267 1.00047 13.2231 1L13.2227 2ZM14.2227 3H13.2227V4.31445H14.2227H15.2227V3H14.2227ZM14.2227 4.31445L13.9453 5.27522C14.4487 5.42056 14.9286 5.62078 15.3787 5.86944L15.8623 4.99414L16.3459 4.11884C15.7667 3.79885 15.1486 3.54092 14.5 3.35369L14.2227 4.31445ZM15.8623 4.99414L16.569 5.70162L17.4997 4.77193L16.793 4.06445L16.0862 3.35698L15.1556 4.28666L15.8623 4.99414ZM16.793 4.06445L17.4998 4.77183L17.4999 4.77157L18.207 4.06445L18.9141 3.35733C18.1329 2.57616 16.8669 2.57691 16.0861 3.35708L16.793 4.06445ZM18.207 4.06445L17.4999 4.77156L19.2284 6.50008L19.9355 5.79297L20.6427 5.08586L18.9141 3.35735L18.207 4.06445ZM19.9355 5.79297L19.2284 6.50006L19.2282 6.50019L19.9355 7.20703L20.6429 7.91387C21.4231 7.13312 21.4238 5.86708 20.6427 5.08588L19.9355 5.79297ZM19.9355 7.20703L19.2288 6.49955L18.2981 7.42924L19.0049 8.13672L19.7116 8.8442L20.6423 7.91451L19.9355 7.20703ZM19.0049 8.13672L18.1297 8.62044C18.3782 9.0702 18.5782 9.5504 18.7238 10.0547L19.6846 9.77734L20.6453 9.49995C20.4581 8.85159 20.2007 8.23302 19.8801 7.65299L19.0049 8.13672ZM19.6846 9.77734V10.7773H21V9.77734V8.77734H19.6846V9.77734ZM21 9.77734V10.7773V10.7778L22 10.7773L23 10.7769C22.9995 9.6733 22.1048 8.77734 21 8.77734V9.77734ZM22 10.7773H21V13.2227H22H23V10.7773H22ZM22 13.2227L21 13.2222V13.2227V14.2227V15.2227C22.1048 15.2227 22.9995 14.3267 23 13.2231L22 13.2227ZM21 14.2227V13.2227H19.6846V14.2227V15.2227H21V14.2227ZM19.6846 14.2227L18.7238 13.9453C18.5784 14.4488 18.3783 14.9286 18.1296 15.3787L19.0049 15.8623L19.8802 16.3459C20.2003 15.7666 20.4581 15.1486 20.6453 14.5L19.6846 14.2227ZM19.0049 15.8623L18.2978 16.5694L19.2284 17.5001L19.9355 16.793L20.6427 16.0859L19.712 15.1552L19.0049 15.8623ZM19.9355 16.793L19.2282 17.4998L19.2284 17.4999L19.9355 18.207L20.6427 18.9141C21.4238 18.1329 21.4231 16.8669 20.6429 16.0861L19.9355 16.793ZM19.9355 18.207L19.2284 17.4999L17.4999 19.2284L18.207 19.9355L18.9141 20.6427L20.6427 18.9141L19.9355 18.207ZM18.207 19.9355L17.4999 19.2284L17.4998 19.2282L16.793 19.9355L16.0861 20.6429C16.8669 21.4231 18.1329 21.4238 18.9141 20.6427L18.207 19.9355ZM16.793 19.9355L17.5001 19.2284L16.5694 18.2978L15.8623 19.0049L15.1552 19.712L16.0859 20.6427L16.793 19.9355ZM15.8623 19.0049L15.3787 18.1296C14.9286 18.3783 14.4488 18.5784 13.9453 18.7238L14.2227 19.6846L14.5 20.6453C15.1486 20.4581 15.7666 20.2003 16.3459 19.8802L15.8623 19.0049ZM14.2227 19.6846H13.2227V21H14.2227H15.2227V19.6846H14.2227ZM14.2227 21H13.2227H13.2222L13.2227 22L13.2231 23C14.3267 22.9995 15.2227 22.1048 15.2227 21H14.2227ZM13.2227 22V21H10.7773V22V23H13.2227V22ZM10.7773 22L10.7778 21H10.7773H9.77734H8.77734C8.77734 22.1048 9.6733 22.9995 10.7769 23L10.7773 22ZM9.77734 21H10.7773V19.6846H9.77734H8.77734V21H9.77734ZM9.77734 19.6846L10.0547 18.7238C9.5504 18.5782 9.0702 18.3782 8.62044 18.1297L8.13672 19.0049L7.65299 19.8801C8.23302 20.2007 8.85159 20.4581 9.49995 20.6453L9.77734 19.6846ZM8.13672 19.0049L7.42924 18.2981L6.49955 19.2288L7.20703 19.9355L7.91451 20.6423L8.8442 19.7116L8.13672 19.0049ZM7.20703 19.9355L6.50024 19.2281L6.50006 19.2284L5.79297 19.9355L5.08588 20.6427C5.86711 21.4239 7.13312 21.423 7.91382 20.643L7.20703 19.9355ZM5.79297 19.9355L6.50008 19.2284L4.77156 17.4999L4.06445 18.207L3.35735 18.9141L5.08586 20.6427L5.79297 19.9355ZM4.06445 18.207L4.77157 17.4999L4.77187 17.4998L4.06445 16.793L3.35703 16.0862C2.57703 16.8669 2.57613 18.1329 3.35733 18.9141L4.06445 18.207ZM4.06445 16.793L4.77193 17.4997L5.70162 16.569L4.99414 15.8623L4.28666 15.1556L3.35698 16.0862L4.06445 16.793ZM4.99414 15.8623L5.86944 15.3787C5.62133 14.9296 5.42181 14.4496 5.27619 13.9453L4.31543 14.2227L3.35467 14.5C3.54161 15.1475 3.79839 15.7659 4.11884 16.3459L4.99414 15.8623ZM4.31543 14.2227V13.2227H3V14.2227V15.2227H4.31543V14.2227ZM3 14.2227V13.2227L3 13.2222L2 13.2227L1 13.2231C1.00047 14.3267 1.89515 15.2227 3 15.2227L3 14.2227ZM2 13.2227H3V10.7773H2H1V13.2227H2ZM2 10.7773L3 10.7778L3 10.7773L3 9.77734V8.77734C1.89515 8.77734 1.00047 9.6733 1 10.7769L2 10.7773ZM3 9.77734V10.7773H4.31543V9.77734V8.77734H3V9.77734ZM4.31543 9.77734L5.27619 10.0547C5.42203 9.54961 5.62137 9.06921 5.86939 8.62039L4.99414 8.13672L4.11889 7.65305C3.79797 8.23378 3.54155 8.85269 3.35467 9.49995L4.31543 9.77734ZM4.99414 8.13672L5.70125 7.42961L4.77156 6.49992L4.06445 7.20703L3.35735 7.91414L4.28703 8.84383L4.99414 8.13672ZM4.06445 7.20703L4.77187 6.50024L4.77158 6.50006L4.06445 5.79297L3.35733 5.08588C2.57613 5.86711 2.57703 7.13312 3.35703 7.91382L4.06445 7.20703ZM4.06445 5.79297L4.77156 6.50008L6.50008 4.77156L5.79297 4.06445L5.08586 3.35735L3.35735 5.08586L4.06445 5.79297ZM5.79297 4.06445L6.50006 4.77157L6.50024 4.77187L7.20703 4.06445L7.91382 3.35703C7.13313 2.57703 5.86712 2.57612 5.08588 3.35733L5.79297 4.06445ZM7.20703 4.06445L6.49992 4.77156L7.42961 5.70125L8.13672 4.99414L8.84383 4.28703L7.91414 3.35735L7.20703 4.06445ZM8.13672 4.99414L8.62039 5.86939C9.0702 5.62082 9.55051 5.42077 10.0547 5.27522L9.77734 4.31445L9.49998 3.35369C8.8516 3.54087 8.23294 3.79843 7.65305 4.11889L8.13672 4.99414ZM9.77734 4.31445H10.7773V3H9.77734H8.77734V4.31445H9.77734ZM9.77734 3L10.7773 3L10.7778 3L10.7773 2L10.7769 1C9.6733 1.00047 8.77734 1.89515 8.77734 3L9.77734 3ZM10.7773 2V3H13.2227V2V1H10.7773V2Z" fill="white" mask="url(#path-1-inside-1_304_41801)"/>
<path d="M12 7.55554L12 12" stroke="white" stroke-linecap="round" stroke-linejoin="round"/>
<path d="M16.4445 12L12 12" stroke="white" stroke-linecap="round" stroke-linejoin="round"/>
</svg>
