<svg width="373" height="434" viewBox="0 0 373 434" fill="none" xmlns="http://www.w3.org/2000/svg">
<path d="M92.7715 306.701V289.397H112.771V306.701C112.771 324.45 112.792 336.756 114.038 346.024C115.246 355.005 117.436 359.623 120.694 362.881C123.953 366.139 128.57 368.33 137.551 369.537C146.819 370.783 159.125 370.804 176.874 370.804H250.977C277.458 370.804 296.314 370.783 310.627 368.858C324.652 366.973 332.81 363.426 338.781 357.455C343.503 352.734 347.172 350.247 349.472 348.613C350.408 347.948 350.802 347.637 350.993 347.469C351.204 346.867 351.651 344.953 351.885 339.314C352.128 333.433 352.131 324.857 352.131 311.649V75.832C352.131 49.9895 349.291 36.9895 343.807 30.041C338.991 23.9398 330.136 20.2901 309.498 20.2901H176.874C159.125 20.2901 146.819 20.3115 137.551 21.5576C128.57 22.765 123.953 24.9547 120.694 28.2129C117.436 31.4713 115.246 36.0896 114.038 45.0703C112.792 54.3386 112.771 66.6441 112.771 84.3926V105.362H92.7715V84.3926C92.7715 67.2094 92.7499 53.316 94.2168 42.4053C95.7224 31.2069 98.9582 21.665 106.552 14.0713C114.145 6.4776 123.687 3.24098 134.886 1.73537C145.797 0.268447 159.691 0.290057 176.874 0.290057H309.498C331.105 0.290057 348.567 3.79036 359.506 17.6494C369.776 30.6615 372.131 50.4328 372.131 75.832V311.649C372.131 324.641 372.133 333.74 371.868 340.142C371.616 346.222 371.111 351.418 369.252 355.653C367.035 360.702 363.412 363.243 361.056 364.917C358.777 366.536 356.341 368.179 352.924 371.597C342.617 381.903 329.535 386.496 313.292 388.68C297.336 390.825 276.893 390.804 250.977 390.804H176.874C159.691 390.804 145.797 390.825 134.886 389.358C123.687 387.853 114.145 384.617 106.552 377.023C98.9581 369.43 95.7224 359.888 94.2168 348.689C92.7499 337.779 92.7715 323.885 92.7715 306.701ZM245.257 195.547L166.157 294.423L150.539 281.929L211.645 205.547H10.1426C4.61973 205.547 0.142578 201.07 0.142578 195.547C0.142661 190.024 4.61978 185.547 10.1426 185.547H211.645L150.539 109.165L166.157 96.6719L245.257 195.547Z" fill="white"/>
<path d="M372.273 134.218C372.273 118.866 364.85 -5.86635 336.957 8.01351C336.9 8.04184 336.84 8.07932 336.79 8.11833L276.439 54.995C271.726 58.4397 269 63.5451 269 68.9289V415.544C269 430.913 289.415 439.311 302.87 429.478L364.834 384.193C369.547 380.748 372.273 375.643 372.273 370.259V134.218Z" fill="white"/>
</svg>
