<svg width="24" height="24" viewBox="0 0 24 24" fill="none" xmlns="http://www.w3.org/2000/svg">
<path d="M9 16.3388V15.5855H9.85911V16.3388C9.85911 17.1115 9.85997 17.6472 9.91349 18.0506C9.96538 18.4416 10.0595 18.6426 10.1994 18.7844C10.3394 18.9263 10.5378 19.0217 10.9235 19.0742C11.3217 19.1284 11.8503 19.1294 12.6126 19.1294H15.7958C16.9333 19.1294 17.7432 19.1284 18.3581 19.0446C18.9606 18.9626 19.3109 18.8082 19.5675 18.5482C19.7703 18.3427 19.9279 18.2345 20.0267 18.1633C20.0669 18.1344 20.0838 18.1208 20.092 18.1135C20.1011 18.0873 20.1203 18.004 20.1303 17.7585C20.1408 17.5025 20.1409 17.1292 20.1409 16.5542V6.28852C20.1409 5.16354 20.0189 4.59761 19.7833 4.29513C19.5765 4.02953 19.1961 3.87065 18.3096 3.87065H12.6126C11.8503 3.87065 11.3217 3.87158 10.9235 3.92583C10.5378 3.97839 10.3394 4.07371 10.1994 4.21555C10.0595 4.35739 9.96538 4.55844 9.91349 4.94939C9.85997 5.35286 9.85911 5.88855 9.85911 6.66118V7.57403H9V6.66118C9 5.91316 8.99906 5.30835 9.06207 4.83338C9.12676 4.34588 9.26577 3.9305 9.59193 3.59993C9.91813 3.26936 10.328 3.12846 10.809 3.06292C11.2777 2.99906 11.8745 3 12.6126 3H18.3096C19.2377 3 19.9878 3.15238 20.4577 3.75569C20.8989 4.32214 21 5.18283 21 6.28852V16.5542C21 17.1198 21.0001 17.5159 20.9887 17.7946C20.9779 18.0592 20.9562 18.2854 20.8763 18.4698C20.7811 18.6896 20.6255 18.8002 20.5243 18.8731C20.4264 18.9436 20.3218 19.0151 20.175 19.1639C19.7322 19.6125 19.1703 19.8125 18.4725 19.9075C17.7872 20.0009 16.909 20 15.7958 20H12.6126C11.8745 20 11.2777 20.0009 10.809 19.9371C10.328 19.8715 9.91813 19.7307 9.59193 19.4001C9.26572 19.0695 9.12676 18.6542 9.06207 18.1666C8.99906 17.6917 9 17.0869 9 16.3388Z" fill="white"/>
<path d="M21 8.66657C21 7.98309 20.8504 2.88207 19.5 3.5C19.4384 3.5282 19.2926 3.49828 19.2902 3.50001L16.3602 5.13954C16.132 5.2929 16 5.52019 16 5.75988V21.1913C16 21.8755 16.9884 22.2494 17.6399 21.8116L20.6398 19.7955C20.868 19.6421 21 19.4149 21 19.1752V8.66657Z" fill="white"/>
<path d="M7.34638 8.70539L2.5455 11.9682L7.34638 15.231" stroke="white"/>
<path d="M3 12H14" stroke="white"/>
</svg>
