<?xml version="1.0" encoding="UTF-8"?>
<svg id="Layer_1" xmlns="http://www.w3.org/2000/svg" version="1.1"   width="50" height="50" viewBox="0 0 41 42">
  <!-- Generator: Adobe Illustrator 29.5.1, SVG Export Plug-In . SVG Version: 2.1.0 Build 141)  -->
  <path d="M5.53.24c-1.15.31-2.07.84-3.02,1.74C.81,3.59,0,5.44,0,7.71c0,3.04,1.6,5.65,4.3,7,1.53.77,3.08.98,4.67.64l.84-.18,2.16,2.21,2.16,2.21v2.77l-2.19,2.23c-1.77,1.8-2.24,2.22-2.44,2.17-1.04-.24-1.35-.29-1.89-.29-2.8-.01-5.71,1.89-6.93,4.54-1.11,2.4-.82,5.66.7,7.73,1.61,2.2,3.63,3.26,6.2,3.25,2.31,0,4.11-.83,5.68-2.6,1.55-1.75,2.23-4.36,1.74-6.69l-.16-.76,2.14-2.2,2.14-2.21h2.76l2.16,2.22,2.16,2.22-.14.69c-.34,1.65-.08,3.69.64,5.1,1.66,3.23,5.01,4.82,8.54,4.06,2.57-.55,4.89-2.89,5.58-5.59.25-.99.25-2.88,0-3.86-.67-2.66-2.71-4.81-5.25-5.54-1.21-.35-2.38-.41-3.41-.19-1.02.22-.61.5-3.3-2.26l-1.99-2.04v-2.75l2.15-2.2,2.15-2.2.98.19c3.84.75,7.66-1.78,8.67-5.73.25-.99.25-2.86,0-3.87-.67-2.67-2.98-4.99-5.53-5.57-1.83-.42-3.88-.14-5.45.72-.94.52-2.26,1.82-2.83,2.79-1.02,1.73-1.35,4.02-.87,5.98.06.25-.21.57-2.13,2.54l-2.2,2.25h-2.63l-2.16-2.22-2.16-2.22.15-.75c.61-2.97-.62-6.1-3.11-7.92-.84-.62-1.54-.94-2.55-1.18-1.03-.25-2.77-.22-3.81.06ZM8.99,2.19c1.98.52,3.61,2.28,4.04,4.37.15.75.22,1.68.12,1.68-.02,0-.71-.67-1.52-1.48-.89-.89-1.7-1.6-2.05-1.78-1.28-.67-2.88-.41-3.97.64-.75.72-1.07,1.51-1.07,2.62,0,1.32.23,1.73,2.02,3.6l1.51,1.58h-.75c-1.44,0-2.73-.59-3.79-1.74-1.35-1.45-1.86-3.36-1.41-5.31.1-.41.31-1.02.49-1.35.41-.77,1.54-1.93,2.28-2.34,1.22-.66,2.75-.85,4.1-.49ZM35.05,2.23c.96.28,1.71.76,2.45,1.57,1.09,1.19,1.53,2.31,1.53,3.92,0,2.26-1.17,4.15-3.19,5.19-.74.38-.97.43-1.89.48l-1.05.05,1.52-1.59c1.8-1.88,2.03-2.29,2.03-3.61,0-.67-.07-1.03-.27-1.5-.54-1.25-1.93-2.15-3.32-2.15-1.11,0-1.82.44-3.51,2.15l-1.45,1.47v-.66c0-1.8,1.04-3.66,2.63-4.7,1.24-.81,3.02-1.05,4.52-.61ZM8.64,6.75c.2.09,1.16.98,2.12,1.97l1.75,1.81-.51.67c-.48.63-1.47,1.51-1.69,1.51-.05,0-.9-.82-1.87-1.83-1.83-1.89-2.05-2.23-1.92-2.95.13-.72.81-1.32,1.5-1.33.14,0,.43.07.63.16ZM33.59,6.78c.43.21.77.64.88,1.11.16.68-.1,1.08-1.94,2.99-1.71,1.77-1.8,1.84-2.06,1.7-.39-.22-1.53-1.39-1.73-1.8l-.17-.34,1.7-1.76c2.07-2.14,2.42-2.34,3.33-1.9ZM20.49,16.47h2.18l2.21-2.26,2.21-2.26.19.28c.36.53.9,1.11,1.45,1.55l.55.44-2.18,2.24-2.18,2.24v4.53l2.2,2.26c1.21,1.24,2.18,2.28,2.15,2.3-.8.62-1.15.95-1.61,1.51l-.56.68-2.25-2.29-2.25-2.29h-4.24l-2.19,2.23c-1.2,1.23-2.21,2.23-2.23,2.23s-.53-.5-1.13-1.1l-1.09-1.1,2.17-2.22,2.17-2.22v-4.54l-2.12-2.17c-1.17-1.19-2.12-2.19-2.12-2.22s.48-.55,1.06-1.16l1.06-1.11,2.18,2.22,2.18,2.22h2.18ZM17.62,18.26c-.04.15-.05,1.46-.03,2.91l.03,2.65h5.74v-5.76l-2.84-.03-2.84-.03-.06.27ZM21.35,21v.88h-1.72v-1.76h1.72v.88ZM7.74,28.84c-.12.14-.76.82-1.41,1.5-1.44,1.5-1.85,2.25-1.85,3.39,0,2.58,2.43,4.33,4.78,3.43.55-.21.91-.5,2.23-1.82.86-.86,1.6-1.57,1.64-1.57.13,0,.08.84-.09,1.68-.54,2.62-2.88,4.56-5.48,4.55-3.6-.01-6.25-3.45-5.43-7.03.57-2.47,2.78-4.37,5.1-4.38h.74s-.22.25-.22.25ZM35.19,28.82c2.38.84,3.84,2.92,3.84,5.47,0,1.69-.54,2.97-1.76,4.15-2.23,2.16-5.75,2.04-7.86-.27-1.02-1.11-1.5-2.33-1.51-3.76v-.7s1.4,1.42,1.4,1.42c1.67,1.69,1.91,1.87,2.84,2.11,2.23.58,4.53-1.41,4.34-3.75-.09-1.1-.5-1.76-2.08-3.4l-1.45-1.5h.78c.48,0,1.04.09,1.45.24ZM10.95,29.71c.53.42,1.45,1.5,1.45,1.71,0,.06-.83.95-1.85,1.99-1.99,2.01-2.21,2.16-3,1.89-.87-.3-1.37-1.38-.99-2.16.17-.34,3.57-3.84,3.73-3.84.07,0,.37.19.67.42ZM32.57,31.08c1.24,1.27,1.78,1.91,1.86,2.2.16.58-.03,1.2-.52,1.64-.33.3-.5.36-.96.36-.68,0-.77-.08-2.86-2.21-1.7-1.74-1.65-1.61-.91-2.5.34-.41,1.41-1.29,1.56-1.29.04,0,.86.81,1.83,1.8Z" fill="#fff" fill-rule="evenodd"/>
</svg>