<svg width="24" height="24" viewBox="0 0 24 24" fill="none" xmlns="http://www.w3.org/2000/svg">
<mask id="path-1-inside-1_317_43804" fill="white">
<path d="M9.49646 2.00317C15.1044 1.99716 15.1543 1.98815 15.4799 2.38306V7.99829L16.4467 8.04224C17.3673 8.08593 18.1503 8.45777 18.5189 9.50122C18.6685 9.9248 18.7034 10.6699 18.7416 15.4954C18.7805 20.4155 18.8667 20.3067 19.0189 20.5012C19.211 20.7467 19.519 21.0012 20.5189 21.0012C21.5182 20.5013 21.3351 19.6199 21.4252 19.1692C21.4665 18.9626 21.4885 16.7452 21.4799 13.7502L21.4652 8.68188L21.1722 8.52563C20.2557 8.03729 19.6711 7.20505 19.5101 6.15942L19.4242 5.59985L18.431 4.96704C17.2686 4.22706 17.0777 4.0149 17.1263 3.51587C17.1801 2.96415 17.7313 2.55769 18.306 2.64673C18.4923 2.6756 19.4511 3.24067 20.891 4.16919C20.9783 4.22547 21.6137 4.63259 22.3031 5.07446L22.515 5.40649L22.4935 12.2268L22.473 19.0471C22.5147 20.5016 22.1889 21.9032 20.5502 21.8918C19.0864 21.8816 17.6925 21.4168 17.7289 19.8762L17.6927 14.801C17.6588 10.0876 17.6462 9.71039 17.5238 9.49634C17.2958 9.09751 17.0231 8.99274 16.2094 8.99243H15.4799V18.8538C15.5562 18.9984 15.8253 19.1163 15.934 19.1438C17.003 19.4133 17.0352 19.2547 17.0033 20.5032V22.0032L9.53259 22.0012C2.59699 22.0012 2.0033 22.0032 2.0033 22.0032C2.0033 22.0032 1.99232 21.2878 2.02478 20.4495C2.06405 19.4377 2.13335 19.3522 3.05994 19.1702C3.1836 19.1458 3.36811 19.0413 3.45544 18.9045V2.50317C3.80332 1.9352 4.00329 2.00322 9.49646 2.00317Z"/>
</mask>
<path d="M9.49646 2.00317L9.49647 3.00317L9.49753 3.00317L9.49646 2.00317ZM15.4799 2.38306H16.4799V2.02397L16.2514 1.74691L15.4799 2.38306ZM15.4799 7.99829H14.4799V8.95387L15.4345 8.99726L15.4799 7.99829ZM16.4467 8.04224L16.4941 7.04336L16.4921 7.04327L16.4467 8.04224ZM18.5189 9.50122L19.4618 9.16819L19.4618 9.16815L18.5189 9.50122ZM18.7416 15.4954L19.7415 15.4875V15.4875L18.7416 15.4954ZM19.0189 20.5012L19.8065 19.885L19.8064 19.8849L19.0189 20.5012ZM20.5189 21.0012V22.0012H20.7551L20.9664 21.8955L20.5189 21.0012ZM21.4252 19.1692L20.4446 18.9731L20.4446 18.9732L21.4252 19.1692ZM21.4799 13.7502L22.4799 13.7474V13.7474L21.4799 13.7502ZM21.4652 8.68188L22.4652 8.67899L22.4635 8.08096L21.9358 7.79953L21.4652 8.68188ZM21.1722 8.52563L21.6428 7.64328L21.6425 7.64309L21.1722 8.52563ZM19.5101 6.15942L18.5217 6.31122L18.5218 6.31158L19.5101 6.15942ZM19.4242 5.59985L20.4126 5.44806L20.3438 5.00006L19.9616 4.7565L19.4242 5.59985ZM18.431 4.96704L18.9684 4.12369L18.968 4.12346L18.431 4.96704ZM17.1263 3.51587L16.1311 3.41886L16.1311 3.41889L17.1263 3.51587ZM18.306 2.64673L18.4592 1.65853L18.4591 1.65852L18.306 2.64673ZM20.891 4.16919L20.3491 5.00961L20.3491 5.00964L20.891 4.16919ZM22.3031 5.07446L23.146 4.53646L23.0278 4.35118L22.8427 4.23257L22.3031 5.07446ZM22.515 5.40649L23.515 5.40964L23.5159 5.11601L23.358 4.8685L22.515 5.40649ZM22.4935 12.2268L21.4935 12.2237L21.4935 12.2238L22.4935 12.2268ZM22.473 19.0471L21.473 19.0441L21.473 19.06L21.4734 19.0758L22.473 19.0471ZM20.5502 21.8918L20.5432 22.8918H20.5432L20.5502 21.8918ZM17.7289 19.8762L18.7286 19.8998L18.729 19.8845L18.7289 19.8691L17.7289 19.8762ZM17.6927 14.801L18.6927 14.7939L18.6927 14.7938L17.6927 14.801ZM17.5238 9.49634L18.392 9.00005L18.3919 8.99998L17.5238 9.49634ZM16.2094 8.99243L16.2097 7.99243H16.2094V8.99243ZM15.4799 8.99243V7.99243H14.4799V8.99243H15.4799ZM15.4799 18.8538H14.4799V19.1017L14.5956 19.3208L15.4799 18.8538ZM15.934 19.1438L15.689 20.1133L15.6895 20.1135L15.934 19.1438ZM17.0033 20.5032L16.0036 20.4776L16.0033 20.4904V20.5032H17.0033ZM17.0033 22.0032L17.003 23.0032L18.0033 23.0034V22.0032H17.0033ZM9.53259 22.0012L9.53285 21.0012H9.53259V22.0012ZM2.0033 22.0032L1.00341 22.0185L1.01857 23.0064L2.00659 23.0032L2.0033 22.0032ZM2.02478 20.4495L1.02553 20.4107L1.02553 20.4108L2.02478 20.4495ZM3.05994 19.1702L3.2527 20.1514L3.25305 20.1513L3.05994 19.1702ZM3.45544 18.9045L4.29831 19.4427L4.45544 19.1965V18.9045H3.45544ZM3.45544 2.50317L2.60268 1.98087L2.45544 2.22127V2.50317H3.45544ZM9.49646 2.00317L9.49753 3.00317C12.3263 3.00014 13.6942 2.99702 14.4077 3.04089C14.7784 3.06368 14.8505 3.09489 14.8285 3.08621C14.72 3.04329 14.6499 2.94833 14.7083 3.0192L15.4799 2.38306L16.2514 1.74691C16.1471 1.62034 15.9486 1.37841 15.5639 1.2263C15.2658 1.10843 14.9138 1.06823 14.5304 1.04466C13.7356 0.995798 12.2746 1.00019 9.49539 1.00317L9.49646 2.00317ZM15.4799 2.38306H14.4799V7.99829H15.4799H16.4799V2.38306H15.4799ZM15.4799 7.99829L15.4345 8.99726L16.4012 9.0412L16.4467 8.04224L16.4921 7.04327L15.5253 6.99932L15.4799 7.99829ZM16.4467 8.04224L16.3992 9.04111C16.7449 9.05752 16.9844 9.1324 17.15 9.23863C17.3007 9.33525 17.4579 9.4999 17.576 9.83429L18.5189 9.50122L19.4618 9.16815C19.2114 8.45909 18.7927 7.9161 18.2296 7.55501C17.6815 7.20354 17.069 7.07065 16.4941 7.04336L16.4467 8.04224ZM18.5189 9.50122L17.576 9.83425C17.5937 9.88421 17.6401 10.0321 17.6728 10.8858C17.7043 11.71 17.7225 13.0861 17.7416 15.5033L18.7416 15.4954L19.7415 15.4875C19.7225 13.0792 19.7042 11.6701 19.6713 10.8094C19.6395 9.97825 19.5938 9.54181 19.4618 9.16819L18.5189 9.50122ZM18.7416 15.4954L17.7416 15.5033C17.761 17.9554 17.7921 19.193 17.8405 19.8444C17.8636 20.1553 17.8952 20.4174 17.9644 20.6337C18.0613 20.9364 18.2345 21.1215 18.2314 21.1176L19.0189 20.5012L19.8064 19.8849C19.7272 19.7837 19.8325 19.9094 19.8692 20.024C19.8783 20.0523 19.8574 19.9976 19.835 19.6964C19.7925 19.1235 19.7611 17.9555 19.7415 15.4875L18.7416 15.4954ZM19.0189 20.5012L18.2314 21.1175C18.4027 21.3364 18.6567 21.5891 19.0808 21.7661C19.4725 21.9296 19.9441 22.0012 20.5189 22.0012V21.0012V20.0012C20.0938 20.0012 19.9115 19.9456 19.8511 19.9204C19.8257 19.9098 19.8215 19.9045 19.8262 19.9083C19.8295 19.911 19.8252 19.9089 19.8065 19.885L19.0189 20.5012ZM20.5189 21.0012L20.9664 21.8955C22.5427 21.1069 22.4113 19.3376 22.4058 19.3652L21.4252 19.1692L20.4446 18.9732C20.4059 19.1669 20.3955 19.4089 20.3887 19.5032C20.3786 19.6423 20.3668 19.7337 20.3467 19.8092C20.3286 19.877 20.3068 19.9192 20.2809 19.9525C20.256 19.9844 20.201 20.0421 20.0715 20.1069L20.5189 21.0012ZM21.4252 19.1692L22.4058 19.3653C22.4279 19.2545 22.4348 19.12 22.4384 19.0524C22.4435 18.954 22.448 18.8292 22.452 18.6838C22.46 18.3916 22.4664 17.995 22.4712 17.5154C22.4808 16.5551 22.4842 15.2474 22.4799 13.7474L21.4799 13.7502L20.4799 13.7531C20.4842 15.2481 20.4808 16.5466 20.4713 17.4953C20.4665 17.9703 20.4602 18.3539 20.4527 18.6292C20.449 18.7675 20.445 18.8732 20.4411 18.9473C20.4356 19.0523 20.4328 19.0322 20.4446 18.9731L21.4252 19.1692ZM21.4799 13.7502L22.4799 13.7474L22.4652 8.67899L21.4652 8.68188L20.4652 8.68477L20.4799 13.7531L21.4799 13.7502ZM21.4652 8.68188L21.9358 7.79953L21.6428 7.64328L21.1722 8.52563L20.7017 9.40799L20.9946 9.56424L21.4652 8.68188ZM21.1722 8.52563L21.6425 7.64309C21.0102 7.30619 20.6126 6.74826 20.4985 6.00727L19.5101 6.15942L18.5218 6.31158C18.7296 7.66184 19.5012 8.76838 20.702 9.40818L21.1722 8.52563ZM19.5101 6.15942L20.4985 6.00763L20.4126 5.44806L19.4242 5.59985L18.4358 5.75165L18.5217 6.31122L19.5101 6.15942ZM19.4242 5.59985L19.9616 4.7565L18.9684 4.12369L18.431 4.96704L17.8937 5.8104L18.8868 6.44321L19.4242 5.59985ZM18.431 4.96704L18.968 4.12346C18.6815 3.94106 18.4734 3.80283 18.3193 3.69041C18.1615 3.57533 18.094 3.51122 18.0682 3.48248C18.0521 3.46458 18.0858 3.49803 18.1073 3.57276C18.1263 3.63889 18.1159 3.67165 18.1216 3.61285L17.1263 3.51587L16.1311 3.41889C16.1125 3.6096 16.1077 3.85602 16.1852 4.12541C16.2651 4.40339 16.4101 4.62969 16.5809 4.81971C16.8763 5.14825 17.3403 5.4581 17.894 5.81062L18.431 4.96704ZM17.1263 3.51587L18.1216 3.61288C18.12 3.62916 18.1148 3.64135 18.1112 3.64729C18.1083 3.65218 18.1082 3.6504 18.1141 3.64603C18.12 3.64169 18.1276 3.638 18.1353 3.63602C18.1422 3.63425 18.1478 3.63414 18.1529 3.63494L18.306 2.64673L18.4591 1.65852C17.365 1.489 16.2452 2.24789 16.1311 3.41886L17.1263 3.51587ZM18.306 2.64673L18.1529 3.63493C18.0428 3.61788 17.9793 3.58514 18.0185 3.60188C18.0345 3.60872 18.0692 3.62482 18.1273 3.65479C18.2421 3.71407 18.4064 3.80586 18.6208 3.93221C19.0474 4.1835 19.6345 4.54885 20.3491 5.00961L20.891 4.16919L21.4329 3.32877C20.7075 2.86101 20.0953 2.47957 19.636 2.20898C19.4075 2.07439 19.2071 1.96146 19.0448 1.87765C18.9643 1.83608 18.8823 1.79604 18.8046 1.76283C18.75 1.73951 18.6158 1.6828 18.4592 1.65853L18.306 2.64673ZM20.891 4.16919L20.3491 5.00964C20.4379 5.06688 21.0756 5.47547 21.7635 5.91636L22.3031 5.07446L22.8427 4.23257C22.1518 3.78971 21.5187 3.38405 21.4329 3.32873L20.891 4.16919ZM22.3031 5.07446L21.4602 5.61246L21.6721 5.94449L22.515 5.40649L23.358 4.8685L23.146 4.53646L22.3031 5.07446ZM22.515 5.40649L21.515 5.40334L21.4935 12.2237L22.4935 12.2268L23.4935 12.23L23.515 5.40964L22.515 5.40649ZM22.4935 12.2268L21.4935 12.2238L21.473 19.0441L22.473 19.0471L23.473 19.0501L23.4935 12.2298L22.4935 12.2268ZM22.473 19.0471L21.4734 19.0758C21.493 19.758 21.4142 20.2562 21.258 20.5512C21.1902 20.6792 21.118 20.7495 21.0423 20.7939C20.9649 20.8392 20.8216 20.8937 20.5571 20.8919L20.5502 21.8918L20.5432 22.8918C21.0981 22.8957 21.6101 22.7792 22.0533 22.5195C22.4983 22.2588 22.8122 21.8899 23.0255 21.4872C23.4314 20.7206 23.4948 19.7907 23.4726 19.0184L22.473 19.0471ZM20.5502 21.8918L20.5572 20.8919C19.898 20.8873 19.39 20.776 19.0842 20.5961C18.8558 20.4617 18.7194 20.2914 18.7286 19.8998L17.7289 19.8762L16.7292 19.8526C16.702 21.0016 17.2444 21.834 18.0698 22.3198C18.8178 22.7599 19.7386 22.8862 20.5432 22.8918L20.5502 21.8918ZM17.7289 19.8762L18.7289 19.8691L18.6927 14.7939L17.6927 14.801L16.6928 14.8081L16.7289 19.8833L17.7289 19.8762ZM17.6927 14.801L18.6927 14.7938C18.6758 12.4438 18.6641 11.1553 18.6409 10.4295C18.6295 10.0724 18.6144 9.81271 18.5879 9.61792C18.5583 9.39978 18.5067 9.20073 18.392 9.00005L17.5238 9.49634L16.6556 9.99262C16.6021 9.89897 16.598 9.82734 16.6062 9.88743C16.6175 9.97086 16.6306 10.1402 16.6419 10.4934C16.6641 11.188 16.6757 12.4449 16.6928 14.8082L17.6927 14.801ZM17.5238 9.49634L18.3919 8.99998C18.1963 8.65781 17.9127 8.34088 17.4443 8.16125C17.0587 8.01336 16.623 7.99259 16.2097 7.99243L16.2094 8.99243L16.209 9.99243C16.3951 9.9925 16.5233 9.99876 16.6145 10.009C16.7055 10.0192 16.7335 10.0307 16.7281 10.0286C16.7138 10.0231 16.6824 10.0067 16.6529 9.97912C16.629 9.95674 16.631 9.9496 16.6557 9.9927L17.5238 9.49634ZM16.2094 8.99243V7.99243H15.4799V8.99243V9.99243H16.2094V8.99243ZM15.4799 8.99243H14.4799V18.8538H15.4799H16.4799V8.99243H15.4799ZM15.4799 18.8538L14.5956 19.3208C14.7761 19.6625 15.0837 19.8461 15.2034 19.9136C15.3587 20.0013 15.5356 20.0746 15.689 20.1133L15.934 19.1438L16.1789 18.1743C16.2112 18.1824 16.221 18.1876 16.2088 18.1826C16.2007 18.1793 16.1919 18.175 16.1862 18.1718C16.1786 18.1675 16.1901 18.1729 16.2132 18.1924C16.2256 18.2029 16.2467 18.222 16.2716 18.2506C16.2961 18.2788 16.3309 18.3238 16.3641 18.3867L15.4799 18.8538ZM15.934 19.1438L15.6895 20.1135C15.8342 20.1499 15.9612 20.1791 16.0625 20.2026C16.1699 20.2275 16.2369 20.2434 16.2884 20.2577C16.3408 20.2723 16.34 20.2754 16.3161 20.2639C16.2856 20.2492 16.2159 20.2101 16.1446 20.1324C15.9913 19.9652 15.9959 19.8033 16.0043 19.894C16.0077 19.9315 16.0104 19.9935 16.0104 20.0966C16.0103 20.1983 16.0076 20.3209 16.0036 20.4776L17.0033 20.5032L18.003 20.5288C18.0105 20.236 18.0176 19.9462 17.9958 19.71C17.9737 19.4708 17.9094 19.0976 17.6184 18.7804C17.3457 18.4831 16.9998 18.3797 16.8247 18.3309C16.6755 18.2894 16.3604 18.22 16.1784 18.1741L15.934 19.1438ZM17.0033 20.5032H16.0033V22.0032H17.0033H18.0033V20.5032H17.0033ZM17.0033 22.0032L17.0036 21.0032L9.53285 21.0012L9.53259 22.0012L9.53233 23.0012L17.003 23.0032L17.0033 22.0032ZM9.53259 22.0012V21.0012C6.06473 21.0012 4.18222 21.0017 3.16661 21.0022C2.65881 21.0024 2.36763 21.0027 2.20331 21.0029C2.12115 21.003 2.07063 21.003 2.04056 21.0031C2.02552 21.0031 2.01556 21.0031 2.00929 21.0032C2.00615 21.0032 2.00393 21.0032 2.00244 21.0032C2.0017 21.0032 2.00114 21.0032 2.00074 21.0032C2.00054 21.0032 2.00038 21.0032 2.00026 21.0032C2.0002 21.0032 2.00015 21.0032 2.00011 21.0032C2.00009 21.0032 2.00006 21.0032 2.00005 21.0032C2.00003 21.0032 2.00001 21.0032 2.0033 22.0032C2.00659 23.0032 2.00657 23.0032 2.00656 23.0032C2.00655 23.0032 2.00654 23.0032 2.00654 23.0032C2.00653 23.0032 2.00654 23.0032 2.00655 23.0032C2.00658 23.0032 2.00665 23.0032 2.00676 23.0032C2.00699 23.0032 2.00739 23.0032 2.00798 23.0032C2.00916 23.0032 2.01112 23.0032 2.01402 23.0031C2.01984 23.0031 2.02941 23.0031 2.04415 23.0031C2.07363 23.003 2.12368 23.003 2.20555 23.0029C2.36928 23.0027 2.66 23.0024 3.16757 23.0022C4.18271 23.0017 6.06486 23.0012 9.53259 23.0012V22.0012ZM2.0033 22.0032C3.00318 21.9878 3.00318 21.9879 3.00318 21.9879C3.00318 21.9879 3.00318 21.9879 3.00318 21.9879C3.00318 21.9879 3.00318 21.988 3.00318 21.988C3.00318 21.988 3.00318 21.9879 3.00318 21.9878C3.00318 21.9876 3.00317 21.9873 3.00316 21.9868C3.00315 21.9857 3.00312 21.984 3.00309 21.9816C3.00303 21.9769 3.00294 21.9695 3.00283 21.9596C3.00261 21.9399 3.00232 21.9102 3.00207 21.8718C3.00157 21.7949 3.00122 21.683 3.00186 21.5453C3.00313 21.2694 3.00836 20.8928 3.02403 20.4881L2.02478 20.4495L1.02553 20.4108C1.00874 20.8444 1.00323 21.2447 1.00188 21.5361C1.0012 21.682 1.00157 21.8014 1.00211 21.8848C1.00238 21.9265 1.0027 21.9593 1.00295 21.982C1.00308 21.9933 1.00319 22.0021 1.00327 22.0082C1.00331 22.0113 1.00334 22.0137 1.00337 22.0154C1.00338 22.0163 1.00339 22.017 1.0034 22.0175C1.0034 22.0177 1.00341 22.018 1.00341 22.0181C1.00341 22.0182 1.00341 22.0183 1.00341 22.0184C1.00341 22.0184 1.00341 22.0184 1.00341 22.0184C1.00341 22.0185 1.00341 22.0185 2.0033 22.0032ZM2.02478 20.4495L3.02403 20.4882C3.0288 20.3654 3.03363 20.2676 3.03973 20.1863C3.04588 20.1043 3.0524 20.052 3.05815 20.0188C3.07042 19.9479 3.06925 20.0261 2.98698 20.1277C2.89922 20.2362 2.81039 20.2603 2.85128 20.2456C2.87292 20.2378 2.91329 20.2253 2.98421 20.2083C3.05455 20.1915 3.14096 20.1734 3.2527 20.1514L3.05994 19.1702L2.86718 18.1889C2.64118 18.2333 2.39262 18.2851 2.17435 18.3636C1.94041 18.4477 1.65806 18.5906 1.43225 18.8696C1.21192 19.1419 1.12815 19.4425 1.08743 19.6779C1.04808 19.9053 1.03514 20.1631 1.02553 20.4107L2.02478 20.4495ZM3.05994 19.1702L3.25305 20.1513C3.46445 20.1097 3.65744 20.0194 3.80924 19.9225C3.96179 19.8252 4.15313 19.6701 4.29831 19.4427L3.45544 18.9045L2.61258 18.3664C2.64435 18.3167 2.67454 18.2855 2.69184 18.2693C2.70989 18.2525 2.72421 18.2424 2.73339 18.2365C2.74267 18.2306 2.75405 18.2243 2.76975 18.2176C2.78328 18.2119 2.81576 18.199 2.86683 18.189L3.05994 19.1702ZM3.45544 18.9045H4.45544V2.50317H3.45544H2.45544V18.9045H3.45544ZM3.45544 2.50317L4.30821 3.02547C4.36122 2.93892 4.31351 3.03567 4.20549 3.08739C4.17488 3.10204 4.23841 3.06392 4.61552 3.03781C5.34986 2.98699 6.71197 3.0032 9.49647 3.00317L9.49646 2.00317L9.49645 1.00317C6.78778 1.0032 5.30332 0.985421 4.47741 1.04259C4.0744 1.07048 3.67938 1.12185 3.34178 1.2835C2.92677 1.48221 2.72361 1.78344 2.60268 1.98087L3.45544 2.50317Z" fill="white" mask="url(#path-1-inside-1_317_43804)"/>
<circle cx="9.5" cy="10.5" r="4" stroke="white"/>
<path d="M9 8L9 11" stroke="white" stroke-linecap="round" stroke-linejoin="round"/>
<path d="M11.25 10L9.00003 11.125" stroke="white" stroke-linecap="round" stroke-linejoin="round"/>
</svg>
