<svg width="24" height="24" viewBox="0 0 24 24" fill="none" xmlns="http://www.w3.org/2000/svg">
<mask id="path-1-inside-1_317_43743" fill="white">
<path d="M9.49695 2.00244C15.1048 1.99643 15.1538 1.98744 15.4794 2.38232V7.99756L16.4471 8.0415C17.3677 8.0852 18.1498 8.45729 18.5184 9.50049C18.668 9.92407 18.7029 10.6692 18.7411 15.4946C18.78 20.4118 18.8664 20.3065 19.0184 20.5005C19.2105 20.746 19.5186 21.0005 20.5184 21.0005C21.5182 20.5006 21.3346 19.6193 21.4247 19.1685C21.466 18.9618 21.489 16.7445 21.4803 13.7495L21.4657 8.68115L21.1727 8.5249C20.256 8.03655 19.6716 7.20444 19.5106 6.15869L19.4247 5.59912L18.4315 4.96729C17.2687 4.22708 17.0772 4.01428 17.1259 3.51514C17.1796 2.96342 17.7318 2.55793 18.3065 2.64697C18.4939 2.6767 19.4527 3.2407 20.8915 4.16846C20.9794 4.22514 21.6138 4.63224 22.3026 5.07373L22.5145 5.40576L22.494 12.2261L22.4725 19.0464C22.5143 20.501 22.1887 21.9026 20.5497 21.8911C19.086 21.8808 17.6929 21.4161 17.7294 19.8755L17.6923 14.8003C17.6583 10.0873 17.6466 9.70966 17.5243 9.49561C17.2962 9.09672 17.0229 8.99198 16.2089 8.9917H15.4794V18.853C15.5555 18.9979 15.8258 19.1157 15.9344 19.1431C17.0034 19.4125 17.0357 19.2542 17.0038 20.5024V22.0024L9.5321 22.0005C2.68372 22.0005 2.01936 22.0024 2.00378 22.0024C2.00361 21.9911 1.99307 21.2803 2.02527 20.4487C2.06454 19.4371 2.13362 19.3515 3.06042 19.1694C3.1841 19.1451 3.36862 19.0406 3.45593 18.9038V2.50244C3.80374 1.93466 4.00406 2.00249 9.49695 2.00244Z"/>
</mask>
<path d="M9.49695 2.00244L9.49696 3.00244L9.49802 3.00244L9.49695 2.00244ZM15.4794 2.38232H16.4794V2.02324L16.2509 1.74618L15.4794 2.38232ZM15.4794 7.99756H14.4794V8.95318L15.434 8.99653L15.4794 7.99756ZM16.4471 8.0415L16.4946 7.04263L16.4925 7.04253L16.4471 8.0415ZM18.5184 9.50049L19.4613 9.16745L19.4613 9.1673L18.5184 9.50049ZM18.7411 15.4946L19.7411 15.4867V15.4867L18.7411 15.4946ZM19.0184 20.5005L19.806 19.8842L19.8055 19.8836L19.0184 20.5005ZM20.5184 21.0005L20.5184 22.0005L20.7545 22.0005L20.9657 21.8949L20.5184 21.0005ZM21.4247 19.1685L20.4441 18.9723L20.4441 18.9724L21.4247 19.1685ZM21.4803 13.7495L22.4803 13.7466V13.7466L21.4803 13.7495ZM21.4657 8.68115L22.4657 8.67826L22.464 8.08023L21.9363 7.7988L21.4657 8.68115ZM21.1727 8.5249L21.6433 7.64255L21.6429 7.64233L21.1727 8.5249ZM19.5106 6.15869L18.5222 6.31049L18.5223 6.31082L19.5106 6.15869ZM19.4247 5.59912L20.4131 5.44732L20.3442 4.99891L19.9615 4.75539L19.4247 5.59912ZM18.4315 4.96729L17.8945 5.81087L17.8948 5.81101L18.4315 4.96729ZM17.1259 3.51514L18.1211 3.61217L18.1211 3.61215L17.1259 3.51514ZM18.3065 2.64697L18.4632 1.65931L18.4596 1.65876L18.3065 2.64697ZM20.8915 4.16846L20.3495 5.00888L20.3496 5.00892L20.8915 4.16846ZM22.3026 5.07373L23.1456 4.53573L23.0273 4.35045L22.8423 4.23183L22.3026 5.07373ZM22.5145 5.40576L23.5145 5.40877L23.5154 5.11521L23.3575 4.86776L22.5145 5.40576ZM22.494 12.2261L23.494 12.2292L23.494 12.2291L22.494 12.2261ZM22.4725 19.0464L21.4725 19.0432L21.4725 19.0592L21.4729 19.0751L22.4725 19.0464ZM20.5497 21.8911L20.5426 22.8911H20.5427L20.5497 21.8911ZM17.7294 19.8755L18.7291 19.8991L18.7295 19.8837L18.7293 19.8682L17.7294 19.8755ZM17.6923 14.8003L16.6923 14.8075L16.6923 14.8076L17.6923 14.8003ZM17.5243 9.49561L18.3925 8.99938L18.3924 8.99924L17.5243 9.49561ZM16.2089 8.9917L16.2092 7.9917H16.2089V8.9917ZM15.4794 8.9917V7.9917H14.4794V8.9917H15.4794ZM15.4794 18.853H14.4794V19.0999L14.5942 19.3184L15.4794 18.853ZM15.9344 19.1431L15.6899 20.1127L15.69 20.1127L15.9344 19.1431ZM17.0038 20.5024L16.0041 20.4769L16.0038 20.4897V20.5024H17.0038ZM17.0038 22.0024L17.0035 23.0024L18.0038 23.0027V22.0024H17.0038ZM9.5321 22.0005L9.53237 21.0005H9.5321V22.0005ZM2.00378 22.0024L1.0039 22.0174L1.01868 23.005L2.00637 23.0024L2.00378 22.0024ZM2.02527 20.4487L1.02602 20.4099L1.02602 20.41L2.02527 20.4487ZM3.06042 19.1694L3.25317 20.1507L3.25375 20.1506L3.06042 19.1694ZM3.45593 18.9038L4.29884 19.4419L4.45593 19.1958V18.9038H3.45593ZM3.45593 2.50244L2.60321 1.98008L2.45593 2.2205V2.50244H3.45593ZM9.49695 2.00244L9.49802 3.00244C12.3268 2.99941 13.6944 2.9963 14.4076 3.04016C14.7783 3.06295 14.8501 3.09416 14.828 3.08541C14.7193 3.04241 14.6491 2.94731 14.7078 3.01847L15.4794 2.38232L16.2509 1.74618C16.1468 1.6199 15.9484 1.37784 15.5637 1.22565C15.2656 1.10771 14.9137 1.0675 14.5304 1.04393C13.7358 0.99507 12.275 0.999461 9.49588 1.00244L9.49695 2.00244ZM15.4794 2.38232H14.4794V7.99756H15.4794H16.4794V2.38232H15.4794ZM15.4794 7.99756L15.434 8.99653L16.4018 9.04047L16.4471 8.0415L16.4925 7.04253L15.5247 6.99859L15.4794 7.99756ZM16.4471 8.0415L16.3997 9.04038C16.7452 9.05678 16.9843 9.13165 17.1497 9.23779C17.3002 9.33437 17.4573 9.49907 17.5756 9.83367L18.5184 9.50049L19.4613 9.1673C19.2109 8.45872 18.7927 7.91577 18.2298 7.55457C17.6819 7.20295 17.0696 7.06992 16.4946 7.04263L16.4471 8.0415ZM18.5184 9.50049L17.5755 9.83352C17.5932 9.88348 17.6397 10.0314 17.6723 10.8851C17.7038 11.7092 17.722 13.0854 17.7411 15.5025L18.7411 15.4946L19.7411 15.4867C19.722 13.0785 19.7037 11.6693 19.6708 10.8087C19.6391 9.97752 19.5933 9.54108 19.4613 9.16745L18.5184 9.50049ZM18.7411 15.4946L17.7411 15.5025C17.7605 17.9532 17.7917 19.1909 17.8401 19.8428C17.8632 20.154 17.8948 20.4159 17.9638 20.6321C18.0605 20.9351 18.2327 21.1191 18.2314 21.1174L19.0184 20.5005L19.8055 19.8836C19.7281 19.7849 19.8325 19.9093 19.869 20.0238C19.8779 20.0515 19.8569 19.9961 19.8346 19.6947C19.792 19.1214 19.7606 17.9532 19.7411 15.4867L18.7411 15.4946ZM19.0184 20.5005L18.2309 21.1167C18.4023 21.3358 18.6563 21.5884 19.0804 21.7654C19.472 21.9288 19.9436 22.0005 20.5184 22.0005L20.5184 21.0005L20.5185 20.0005C20.0934 20.0005 19.911 19.9449 19.8506 19.9197C19.8252 19.909 19.821 19.9037 19.8256 19.9075C19.829 19.9102 19.8246 19.9081 19.806 19.8842L19.0184 20.5005ZM20.5184 21.0005L20.9657 21.8949C22.5427 21.1063 22.4109 19.3363 22.4053 19.3645L21.4247 19.1685L20.4441 18.9724C20.4053 19.1663 20.395 19.4084 20.3882 19.5028C20.3782 19.6419 20.3664 19.7333 20.3464 19.8087C20.3283 19.8764 20.3065 19.9185 20.2807 19.9517C20.2558 19.9835 20.2008 20.0413 20.0712 20.1061L20.5184 21.0005ZM21.4247 19.1685L22.4053 19.3646C22.4274 19.254 22.4343 19.1196 22.4379 19.052C22.4431 18.9536 22.4476 18.8288 22.4516 18.6833C22.4597 18.3912 22.4663 17.9945 22.4712 17.5149C22.4811 16.5545 22.4847 15.2468 22.4803 13.7466L21.4803 13.7495L20.4804 13.7524C20.4847 15.2472 20.4811 16.5456 20.4713 17.4943C20.4664 17.9693 20.46 18.3528 20.4524 18.6282C20.4486 18.7664 20.4446 18.8722 20.4407 18.9463C20.4351 19.0512 20.4323 19.0313 20.4441 18.9723L21.4247 19.1685ZM21.4803 13.7495L22.4803 13.7466L22.4657 8.67826L21.4657 8.68115L20.4657 8.68404L20.4804 13.7524L21.4803 13.7495ZM21.4657 8.68115L21.9363 7.7988L21.6433 7.64255L21.1727 8.5249L20.7021 9.40726L20.9951 9.56351L21.4657 8.68115ZM21.1727 8.5249L21.6429 7.64233C21.0105 7.30544 20.6131 6.74768 20.499 6.00656L19.5106 6.15869L18.5223 6.31082C18.7301 7.6612 19.5015 8.76767 20.7026 9.40748L21.1727 8.5249ZM19.5106 6.15869L20.499 6.00689L20.4131 5.44732L19.4247 5.59912L18.4363 5.75092L18.5222 6.31049L19.5106 6.15869ZM19.4247 5.59912L19.9615 4.75539L18.9683 4.12356L18.4315 4.96729L17.8948 5.81101L18.8879 6.44285L19.4247 5.59912ZM18.4315 4.96729L18.9685 4.1237C18.6819 3.94125 18.4737 3.80295 18.3195 3.69045C18.1616 3.57529 18.0939 3.51105 18.068 3.48216C18.0517 3.46406 18.0853 3.49731 18.1068 3.57186C18.1258 3.63794 18.1154 3.67071 18.1211 3.61217L17.1259 3.51514L16.1306 3.4181C16.1119 3.60913 16.1073 3.85568 16.1848 4.12517C16.2649 4.40314 16.4099 4.62945 16.5808 4.81946C16.8764 5.14816 17.3405 5.45817 17.8945 5.81087L18.4315 4.96729ZM17.1259 3.51514L18.1211 3.61215C18.1195 3.62878 18.1141 3.64132 18.1104 3.64752C18.1073 3.65265 18.1071 3.65094 18.1131 3.64654C18.119 3.64217 18.1268 3.63836 18.1349 3.63631C18.1421 3.63446 18.148 3.63435 18.1534 3.63518L18.3065 2.64697L18.4596 1.65876C17.368 1.48963 16.2449 2.24476 16.1306 3.41813L17.1259 3.51514ZM18.3065 2.64697L18.1499 3.63463C18.0421 3.61753 17.9803 3.58567 18.0193 3.60232C18.0356 3.60931 18.0706 3.62553 18.1288 3.65552C18.2438 3.71485 18.4081 3.8066 18.6226 3.93279C19.049 4.18377 19.6358 4.54861 20.3495 5.00888L20.8915 4.16846L21.4334 3.32804C20.7084 2.86054 20.0964 2.4795 19.6369 2.20912C19.4084 2.07462 19.208 1.96181 19.0456 1.87803C18.965 1.83648 18.8831 1.79651 18.8055 1.76334C18.7505 1.73984 18.6178 1.68384 18.4632 1.65932L18.3065 2.64697ZM20.8915 4.16846L20.3496 5.00892C20.4389 5.06652 21.0748 5.47453 21.763 5.91563L22.3026 5.07373L22.8423 4.23183C22.1529 3.78995 21.5199 3.38377 21.4333 3.32799L20.8915 4.16846ZM22.3026 5.07373L21.4597 5.61173L21.6716 5.94376L22.5145 5.40576L23.3575 4.86776L23.1456 4.53573L22.3026 5.07373ZM22.5145 5.40576L21.5145 5.40275L21.494 12.2231L22.494 12.2261L23.494 12.2291L23.5145 5.40877L22.5145 5.40576ZM22.494 12.2261L21.494 12.2229L21.4725 19.0432L22.4725 19.0464L23.4725 19.0495L23.494 12.2292L22.494 12.2261ZM22.4725 19.0464L21.4729 19.0751C21.4925 19.7575 21.4138 20.2556 21.2576 20.5506C21.1899 20.6786 21.1177 20.7489 21.042 20.7932C20.9646 20.8385 20.8213 20.893 20.5567 20.8911L20.5497 21.8911L20.5427 22.8911C21.0976 22.895 21.6096 22.7786 22.0529 22.5189C22.498 22.2582 22.8119 21.8893 23.0252 21.4865C23.4311 20.7199 23.4943 19.7899 23.4721 19.0177L22.4725 19.0464ZM20.5497 21.8911L20.5567 20.8911C19.8975 20.8865 19.3899 20.7753 19.0843 20.5954C18.8563 20.4612 18.7198 20.291 18.7291 19.8991L17.7294 19.8755L16.7296 19.8518C16.7025 21.0006 17.2443 21.833 18.0697 22.3189C18.8175 22.7591 19.7382 22.8854 20.5426 22.8911L20.5497 21.8911ZM17.7294 19.8755L18.7293 19.8682L18.6922 14.793L17.6923 14.8003L16.6923 14.8076L16.7294 19.8828L17.7294 19.8755ZM17.6923 14.8003L18.6922 14.7931C18.6753 12.4433 18.6639 11.1549 18.6409 10.4292C18.6296 10.0722 18.6147 9.8126 18.5883 9.61791C18.5589 9.40005 18.5075 9.20057 18.3925 8.99938L17.5243 9.49561L16.6561 9.99183C16.6023 9.89767 16.5982 9.82565 16.6064 9.88608C16.6177 9.96967 16.6307 10.1392 16.6419 10.4924C16.6639 11.1873 16.6752 12.4443 16.6923 14.8075L17.6923 14.8003ZM17.5243 9.49561L18.3924 8.99924C18.1965 8.65657 17.9125 8.33981 17.4441 8.16035C17.0584 8.0126 16.6227 7.99184 16.2092 7.9917L16.2089 8.9917L16.2085 9.9917C16.3947 9.99176 16.5231 9.99801 16.6144 10.0082C16.7056 10.0185 16.7337 10.03 16.7286 10.028C16.7144 10.0226 16.6831 10.0063 16.6536 9.97867C16.6297 9.95626 16.6316 9.94905 16.6562 9.99197L17.5243 9.49561ZM16.2089 8.9917V7.9917H15.4794V8.9917V9.9917H16.2089V8.9917ZM15.4794 8.9917H14.4794V18.853H15.4794H16.4794V8.9917H15.4794ZM15.4794 18.853L14.5942 19.3184C14.7752 19.6625 15.0852 19.8466 15.2046 19.9138C15.3605 20.0014 15.5374 20.0742 15.6899 20.1127L15.9344 19.1431L16.179 18.1734C16.2108 18.1815 16.2202 18.1865 16.2079 18.1814C16.1995 18.178 16.1905 18.1736 16.1848 18.1704C16.1771 18.1661 16.1887 18.1715 16.2121 18.1913C16.2247 18.2019 16.2461 18.2211 16.2712 18.2501C16.296 18.2786 16.3311 18.3241 16.3645 18.3877L15.4794 18.853ZM15.9344 19.1431L15.69 20.1127C15.8346 20.1492 15.9617 20.1784 16.0629 20.2018C16.1703 20.2267 16.2372 20.2426 16.2888 20.257C16.3411 20.2715 16.3403 20.2747 16.3165 20.2631C16.2859 20.2484 16.2163 20.2093 16.145 20.1317C15.9918 19.9646 15.9964 19.8028 16.0047 19.8934C16.0082 19.9309 16.0109 19.9929 16.0108 20.096C16.0108 20.1977 16.0081 20.3202 16.0041 20.4769L17.0038 20.5024L18.0035 20.528C18.0109 20.2352 18.0181 19.9455 17.9962 19.7093C17.9741 19.47 17.9098 19.0969 17.6189 18.7797C17.3462 18.4824 17.0003 18.379 16.8252 18.3302C16.6758 18.2887 16.3611 18.2193 16.1789 18.1734L15.9344 19.1431ZM17.0038 20.5024H16.0038V22.0024H17.0038H18.0038V20.5024H17.0038ZM17.0038 22.0024L17.004 21.0024L9.53237 21.0005L9.5321 22.0005L9.53184 23.0005L17.0035 23.0024L17.0038 22.0024ZM9.5321 22.0005V21.0005C2.6843 21.0005 2.01838 21.0024 2.0012 21.0024L2.00378 22.0024L2.00637 23.0024C2.02034 23.0024 2.68314 23.0005 9.5321 23.0005V22.0005ZM2.00378 22.0024L3.00367 21.9875C3.00361 21.9834 2.99333 21.293 3.02452 20.4874L2.02527 20.4487L1.02602 20.41C0.992814 21.2677 1.00362 21.9988 1.0039 22.0174L2.00378 22.0024ZM2.02527 20.4487L3.02452 20.4875C3.02929 20.3647 3.03412 20.2669 3.04021 20.1855C3.04636 20.1035 3.05288 20.0512 3.05862 20.018C3.0709 19.9471 3.06974 20.0252 2.98745 20.1269C2.89968 20.2354 2.8108 20.2595 2.85169 20.2448C2.87333 20.2371 2.9137 20.2246 2.98463 20.2076C3.05499 20.1907 3.14141 20.1726 3.25317 20.1507L3.06042 19.1694L2.86768 18.1882C2.64162 18.2326 2.39303 18.2844 2.17473 18.3629C1.94077 18.447 1.6584 18.5899 1.43259 18.869C1.21228 19.1413 1.12856 19.442 1.08787 19.6773C1.04856 19.9046 1.03563 20.1624 1.02602 20.4099L2.02527 20.4487ZM3.06042 19.1694L3.25375 20.1506C3.465 20.1089 3.65791 20.0186 3.80971 19.9218C3.96224 19.8245 4.15363 19.6693 4.29884 19.4419L3.45593 18.9038L2.61303 18.3657C2.64482 18.3159 2.67505 18.2847 2.69236 18.2685C2.71042 18.2517 2.72475 18.2416 2.73391 18.2358C2.74318 18.2299 2.75455 18.2236 2.77021 18.2169C2.7837 18.2111 2.81612 18.1983 2.8671 18.1883L3.06042 19.1694ZM3.45593 18.9038H4.45593V2.50244H3.45593H2.45593V18.9038H3.45593ZM3.45593 2.50244L4.30866 3.0248C4.36158 2.93841 4.31386 3.0351 4.2059 3.08678C4.17537 3.10139 4.239 3.06327 4.61611 3.03715C5.35048 2.9863 6.71263 3.00247 9.49696 3.00244L9.49695 2.00244L9.49694 1.00244C6.78838 1.00246 5.30392 0.984738 4.47796 1.04193C4.07491 1.06984 3.67993 1.12122 3.34237 1.28281C2.92738 1.48146 2.72419 1.78259 2.60321 1.98008L3.45593 2.50244Z" fill="white" mask="url(#path-1-inside-1_317_43743)"/>
<path d="M9.89063 13.5V13.0781C9.89063 12.776 9.95313 12.5 10.0781 12.25C10.2057 11.9974 10.3906 11.7956 10.6328 11.6445C10.8776 11.4909 11.1732 11.4141 11.5195 11.4141C11.8737 11.4141 12.1706 11.4896 12.4102 11.6406C12.6497 11.7917 12.8307 11.9935 12.9531 12.2461C13.0781 12.4987 13.1406 12.776 13.1406 13.0781V13.5C13.1406 13.8021 13.0781 14.0794 12.9531 14.332C12.8281 14.582 12.6445 14.7839 12.4023 14.9375C12.1628 15.0885 11.8685 15.1641 11.5195 15.1641C11.168 15.1641 10.8711 15.0885 10.6289 14.9375C10.3867 14.7839 10.2031 14.582 10.0781 14.332C9.95313 14.0794 9.89063 13.8021 9.89063 13.5ZM10.8008 13.0781V13.5C10.8008 13.724 10.8542 13.9271 10.9609 14.1094C11.0677 14.2917 11.2539 14.3828 11.5195 14.3828C11.7826 14.3828 11.9661 14.2917 12.0703 14.1094C12.1745 13.9271 12.2266 13.724 12.2266 13.5V13.0781C12.2266 12.8542 12.1758 12.651 12.0742 12.4687C11.9753 12.2865 11.7904 12.1953 11.5195 12.1953C11.2591 12.1953 11.0742 12.2865 10.9648 12.4687C10.8555 12.651 10.8008 12.8542 10.8008 13.0781ZM5.86719 8.92188V8.5C5.86719 8.19792 5.92969 7.92057 6.05469 7.66797C6.18229 7.41536 6.36719 7.21354 6.60937 7.0625C6.85417 6.91146 7.14974 6.83594 7.49609 6.83594C7.85026 6.83594 8.14714 6.91146 8.38672 7.0625C8.6263 7.21354 8.80729 7.41536 8.92969 7.66797C9.05208 7.92057 9.11328 8.19792 9.11328 8.5V8.92188C9.11328 9.22396 9.05078 9.5013 8.92578 9.75391C8.80339 10.0039 8.62109 10.2057 8.37891 10.3594C8.13932 10.5104 7.84505 10.5859 7.49609 10.5859C7.14193 10.5859 6.84375 10.5104 6.60156 10.3594C6.36198 10.2057 6.17969 10.0039 6.05469 9.75391C5.92969 9.5013 5.86719 9.22396 5.86719 8.92188ZM6.78125 8.5V8.92188C6.78125 9.14583 6.83333 9.34896 6.9375 9.53125C7.04427 9.71354 7.23047 9.80469 7.49609 9.80469C7.75651 9.80469 7.9388 9.71354 8.04297 9.53125C8.14974 9.34896 8.20313 9.14583 8.20313 8.92188V8.5C8.20313 8.27604 8.15234 8.07292 8.05078 7.89063C7.94922 7.70833 7.76432 7.61719 7.49609 7.61719C7.23568 7.61719 7.05078 7.70833 6.94141 7.89063C6.83464 8.07292 6.78125 8.27604 6.78125 8.5ZM6.23828 15L11.7383 7H12.6719L7.17188 15H6.23828Z" fill="white"/>
</svg>
