<svg width="30" height="28" viewBox="0 0 30 28" fill="none" xmlns="http://www.w3.org/2000/svg">
<path fill-rule="evenodd" clip-rule="evenodd" d="M3.05524 0.0633359C2.81727 0.146437 2.43826 0.50339 2.28019 0.793414C2.15947 1.01485 2.13671 2.81189 2.13641 12.143C2.1361 22.9925 2.13171 23.2363 1.93547 23.5436C1.81383 23.7342 1.62342 23.8795 1.45116 23.9134C0.16016 24.167 0.0638259 24.2861 0.00912852 25.6955C-0.0360784 26.8631 0.0818885 27.3661 0.46926 27.657C0.733766 27.8557 0.805505 27.8571 10.4658 27.8571H20.1959L20.5292 27.5729L20.8625 27.2887L20.8933 26.0872C20.9378 24.3483 20.8719 24.2518 19.3828 23.8764C19.2314 23.8382 19.0552 23.674 18.9493 23.4721C18.7846 23.1584 18.7708 22.6162 18.7707 16.4345L18.7705 9.73672L19.7655 9.73711C20.8993 9.7375 21.2797 9.88314 21.5973 10.4387C21.7678 10.7368 21.7846 11.2616 21.8319 17.828L21.883 24.8963L22.2673 25.6385C23.0047 27.0625 24.085 27.6921 25.8118 27.7042C27.8073 27.7182 29.0091 26.8933 29.7051 25.0319L29.9418 24.3987L29.9709 14.8992L30 5.3997L28.2535 4.28023C27.2929 3.66453 26.4079 3.09695 26.2869 3.01891C24.2812 1.72554 22.9457 0.939351 22.6863 0.899214C21.8858 0.775196 21.1179 1.34044 21.043 2.1089C20.9751 2.80429 21.241 3.10007 22.8608 4.13118L24.2439 5.01177L24.3638 5.79114C24.588 7.24779 25.4023 8.40691 26.6792 9.08711L27.0874 9.30456L27.1077 16.3645C27.1197 20.5361 27.0881 23.6238 27.0305 23.9116C26.9048 24.5393 26.6486 24.8638 26.1908 24.9746C25.7011 25.0932 25.2224 24.952 24.9548 24.6101C24.7427 24.3391 24.7397 24.2552 24.6855 17.4017C24.6323 10.6805 24.6239 10.4487 24.4156 9.85869C24.0228 8.74692 23.3365 7.93062 22.4188 7.48365C21.7145 7.14063 21.4313 7.08412 20.0971 7.0208L18.8215 6.9602L18.7705 3.88889C18.7202 0.861122 18.7161 0.813483 18.4833 0.53096C18.0298 -0.0190824 18.2275 -0.00612557 10.4164 0.00225269C6.45199 0.00644182 3.13943 0.034012 3.05524 0.0633359ZM15.6643 3.02007L15.8111 3.50485V6.72571V9.94656L15.5216 10.223C15.3293 10.4065 15.0808 10.5205 14.7818 10.5623C14.5341 10.5968 12.4487 10.6115 10.1475 10.5949C6.14931 10.5662 5.95144 10.5561 5.6899 10.37C5.53938 10.2628 5.36722 10.0744 5.30722 9.95134C5.1667 9.66278 5.15813 3.81007 5.29773 3.45945C5.35243 3.32199 5.54764 3.1213 5.73143 3.01336C6.05512 2.82339 6.20922 2.81803 10.6407 2.84287L15.2157 2.86849L15.6643 3.02007Z" fill="white"/>
</svg>
