<svg width="50" height="50" viewBox="0 0 46 46" fill="none" xmlns="http://www.w3.org/2000/svg">
<mask id="mask0_63_2707" style="mask-type:luminance" maskUnits="userSpaceOnUse" x="0" y="0" width="46" height="46">
<path d="M23 0.27C24.88 0.27 26.41 1.8 26.41 3.68V6.29C28.59 6.73 30.61 7.59 32.4 8.77L34.25 6.92C35.58 5.59 37.74 5.59 39.07 6.92C40.4 8.25 40.4 10.41 39.07 11.74L37.22 13.59C38.41 15.38 39.26 17.4 39.7 19.58H42.31C44.19 19.58 45.72 21.11 45.72 22.99C45.72 24.87 44.19 26.4 42.31 26.4H39.7C39.26 28.58 38.4 30.6 37.22 32.39L39.07 34.24C40.4 35.57 40.4 37.73 39.07 39.06C37.74 40.39 35.58 40.39 34.25 39.06L32.4 37.21C30.61 38.39 28.59 39.25 26.41 39.69V42.3C26.41 44.18 24.88 45.71 23 45.71C21.12 45.71 19.59 44.18 19.59 42.3V39.69C17.41 39.25 15.39 38.39 13.6 37.21L11.75 39.06C10.42 40.39 8.26003 40.39 6.93003 39.06C5.60003 37.73 5.60003 35.57 6.93003 34.24L8.78003 32.39C7.60003 30.6 6.74003 28.58 6.30003 26.4H3.69003C1.81003 26.4 0.280029 24.87 0.280029 22.99C0.280029 21.11 1.81003 19.58 3.69003 19.58H6.30003C6.74003 17.4 7.60003 15.38 8.78003 13.59L6.93003 11.74C5.60003 10.41 5.60003 8.25 6.93003 6.92C8.26003 5.59 10.42 5.59 11.75 6.92L13.6 8.77C15.39 7.58 17.41 6.73 19.59 6.29V3.68C19.59 1.8 21.12 0.27 23 0.27ZM23 15.05C18.61 15.05 15.05 18.61 15.05 23C15.05 27.39 18.61 30.95 23 30.95C27.39 30.95 30.95 27.39 30.95 23C30.95 18.61 27.39 15.05 23 15.05Z" fill="white"/>
</mask>
<g mask="url(#mask0_63_2707)">
<path d="M26.41 6.3H24.14V8.16L25.96 8.53L26.41 6.3ZM32.4 8.78L31.15 10.67L32.7 11.7L34.01 10.39L32.4 8.78ZM37.22 13.6L35.61 11.99L34.29 13.3L35.32 14.85L37.21 13.59L37.22 13.6ZM39.7 19.59L37.47 20.04L37.84 21.86H39.7V19.59ZM39.7 26.41V24.14H37.84L37.47 25.96L39.7 26.41ZM37.22 32.4L35.33 31.15L34.3 32.7L35.61 34.01L37.22 32.4ZM32.4 37.22L34.01 35.61L32.7 34.3L31.15 35.33L32.4 37.22ZM26.41 39.7L25.96 37.47L24.14 37.84V39.7H26.41ZM19.59 39.7H21.86V37.84L20.04 37.47L19.59 39.7ZM13.6 37.22L14.86 35.33L13.31 34.3L12 35.62L13.61 37.23L13.6 37.22ZM8.78 32.4L10.39 34.01L11.7 32.7L10.67 31.15L8.78 32.4ZM6.3 26.41L8.53 25.96L8.16 24.14H6.3V26.41ZM6.3 19.59V21.86H8.16L8.53 20.04L6.3 19.59ZM8.78 13.6L10.67 14.86L11.7 13.31L10.39 12L8.78 13.61V13.6ZM13.6 8.78L11.99 10.39L13.3 11.7L14.85 10.67L13.59 8.78H13.6ZM19.59 6.3L20.04 8.53L21.86 8.16V6.3H19.59ZM23 0.27V2.54C23.63 2.54 24.14 3.05 24.14 3.68H28.69C28.69 0.54 26.15 -2 23.01 -2V0.27H23ZM26.41 3.68H24.14V6.29H28.69V3.68H26.42H26.41ZM26.41 6.3L25.96 8.53C27.84 8.91 29.6 9.65 31.15 10.68L32.4 8.79L33.65 6.9C31.62 5.56 29.33 4.59 26.86 4.08L26.41 6.31V6.3ZM32.4 8.78L34.01 10.39L35.86 8.54L34.25 6.93L32.64 5.32L30.79 7.17L32.4 8.78ZM34.25 6.93L35.86 8.54C36.3 8.1 37.02 8.1 37.47 8.54L39.08 6.93L40.69 5.32C38.47 3.1 34.87 3.1 32.65 5.32L34.26 6.93H34.25ZM39.07 6.93L37.46 8.54C37.9 8.98 37.9 9.7 37.46 10.15L39.07 11.76L40.68 13.37C42.9 11.15 42.9 7.55 40.68 5.33L39.07 6.94V6.93ZM39.07 11.75L37.46 10.14L35.61 11.99L37.22 13.6L38.83 15.21L40.68 13.36L39.07 11.75ZM37.22 13.6L35.33 14.86C36.36 16.41 37.1 18.17 37.48 20.05L39.71 19.6L41.94 19.15C41.44 16.68 40.47 14.38 39.12 12.36L37.23 13.61L37.22 13.6ZM39.7 19.59V21.86H42.31V17.31H39.7V19.58V19.59ZM42.32 19.59V21.86C42.95 21.86 43.46 22.37 43.46 23H48.01C48.01 19.86 45.47 17.32 42.33 17.32V19.59H42.32ZM45.73 23H43.46C43.46 23.63 42.95 24.14 42.32 24.14V28.69C45.46 28.69 48 26.15 48 23.01H45.73V23ZM42.32 26.41V24.14H39.71V28.69H42.32V26.42V26.41ZM39.7 26.41L37.47 25.96C37.09 27.84 36.35 29.6 35.32 31.15L37.21 32.4L39.1 33.66C40.44 31.63 41.42 29.34 41.92 26.87L39.69 26.42L39.7 26.41ZM37.22 32.4L35.61 34.01L37.46 35.86L39.07 34.25L40.68 32.64L38.83 30.79L37.22 32.4ZM39.07 34.25L37.46 35.86C37.9 36.3 37.9 37.02 37.46 37.47L39.07 39.08L40.68 40.69C42.9 38.47 42.9 34.87 40.68 32.65L39.07 34.26V34.25ZM39.07 39.07L37.46 37.46C37.02 37.9 36.3 37.9 35.85 37.46L34.24 39.07L32.63 40.68C34.85 42.9 38.45 42.9 40.67 40.68L39.06 39.07H39.07ZM34.25 39.07L35.86 37.46L34.01 35.61L32.4 37.22L30.79 38.83L32.64 40.68L34.25 39.07ZM32.4 37.22L31.15 35.33C29.6 36.36 27.85 37.1 25.96 37.48L26.41 39.71L26.86 41.94C29.33 41.44 31.63 40.47 33.65 39.12L32.39 37.23L32.4 37.22ZM26.41 39.7H24.14V42.31H28.69V39.7H26.42H26.41ZM26.41 42.32H24.14C24.14 42.95 23.63 43.46 23 43.46V48.01C26.14 48.01 28.68 45.47 28.68 42.33H26.41V42.32ZM23 45.73V43.46C22.37 43.46 21.86 42.95 21.86 42.32H17.31C17.31 45.46 19.85 48 22.99 48V45.73H23ZM19.59 42.32H21.86V39.71H17.31V42.32H19.58H19.59ZM19.59 39.7L20.04 37.47C18.16 37.09 16.4 36.35 14.85 35.32L13.59 37.21L12.34 39.1C14.37 40.44 16.66 41.41 19.13 41.92L19.58 39.69L19.59 39.7ZM13.6 37.22L11.99 35.61L10.14 37.46L11.75 39.07L13.36 40.68L15.21 38.83L13.6 37.22ZM11.75 39.07L10.14 37.46C9.7 37.9 8.98 37.9 8.53 37.46L6.92 39.07L5.31 40.68C7.53 42.9 11.13 42.9 13.35 40.68L11.74 39.07H11.75ZM6.93 39.07L8.54 37.46C8.1 37.02 8.1 36.3 8.54 35.85L6.93 34.24L5.32 32.63C3.1 34.85 3.1 38.45 5.32 40.67L6.93 39.06V39.07ZM6.93 34.25L8.54 35.86L10.39 34.01L8.78 32.4L7.17 30.79L5.32 32.64L6.93 34.25ZM8.78 32.4L10.67 31.15C9.64 29.6 8.9 27.85 8.52 25.96L6.29 26.41L4.06 26.86C4.56 29.33 5.53 31.63 6.88 33.65L8.77 32.4H8.78ZM6.3 26.41V24.14H3.69V28.69H6.3V26.42V26.41ZM3.68 26.41V24.14C3.05 24.14 2.54 23.63 2.54 23H-2C-2 26.14 0.54 28.68 3.68 28.68V26.41ZM0.27 23H2.54C2.54 22.37 3.05 21.86 3.68 21.86V17.31C0.54 17.31 -2 19.85 -2 22.99H0.27V23ZM3.68 19.59V21.86H6.29V17.31H3.68V19.58V19.59ZM6.3 19.59L8.53 20.04C8.91 18.16 9.65 16.4 10.68 14.85L8.79 13.59L6.9 12.34C5.56 14.37 4.59 16.66 4.08 19.13L6.31 19.58L6.3 19.59ZM8.78 13.6L10.39 11.99L8.54 10.14L6.93 11.75L5.32 13.36L7.17 15.21L8.78 13.6ZM6.93 11.75L8.54 10.14C8.1 9.7 8.1 8.98 8.54 8.53L6.93 6.92L5.32 5.31C3.1 7.53 3.1 11.13 5.32 13.35L6.93 11.74V11.75ZM6.93 6.93L8.54 8.54C8.98 8.1 9.7 8.1 10.15 8.54L11.76 6.93L13.37 5.32C11.15 3.1 7.55 3.1 5.33 5.32L6.94 6.93H6.93ZM11.75 6.93L10.14 8.54L11.99 10.39L13.6 8.78L15.21 7.17L13.36 5.32L11.75 6.93ZM13.6 8.78L14.86 10.67C16.41 9.64 18.17 8.9 20.05 8.52L19.6 6.29L19.15 4.06C16.68 4.56 14.38 5.53 12.36 6.88L13.61 8.77L13.6 8.78ZM19.59 6.3H21.86V3.69H17.31V6.3H19.58H19.59ZM19.59 3.68H21.86C21.86 3.05 22.37 2.54 23 2.54V-2C19.86 -2 17.32 0.54 17.32 3.68H19.59ZM23 15.05V12.78C17.35 12.78 12.77 17.36 12.77 23.01H17.32C17.32 19.87 19.86 17.33 23 17.33V15.06V15.05ZM15.05 23H12.78C12.78 28.65 17.36 33.23 23.01 33.23V28.68C19.87 28.68 17.33 26.14 17.33 23H15.06H15.05ZM23 30.95V33.22C28.65 33.22 33.23 28.64 33.23 22.99H28.68C28.68 26.13 26.14 28.67 23 28.67V30.94V30.95ZM30.95 23H33.22C33.22 17.35 28.64 12.77 22.99 12.77V17.32C26.13 17.32 28.67 19.86 28.67 23H30.94H30.95Z" fill="white"/>
</g>
</svg>
