<?xml version="1.0" encoding="UTF-8"?>
<svg id="Layer_1" xmlns="http://www.w3.org/2000/svg" version="1.1"   width="50" height="50" viewBox="0 0 64 64">
  <!-- Generator: Adobe Illustrator 29.5.1, SVG Export Plug-In . SVG Version: 2.1.0 Build 141)  -->
  <defs>
    <style>
      .st0 {
        fill: #fff;
      }
    </style>
  </defs>
  <path class="st0" d="M54.27,28.11h-.07s-6.47,0-6.47,0v-5.46c0-.8-.65-1.44-1.44-1.44h-9.77v-7.81h.09V.12H14.73l8.65,6.61-8.72,6.66h18.97v7.81h-9.59c-.77,0-1.4.61-1.44,1.37v.07s0,5.46,0,5.46h-6.49c-.77,0-1.4.61-1.44,1.37v.07s0,32.89,0,32.89c0,.8.65,1.44,1.44,1.44h38.1c.8,0,1.44-.65,1.44-1.44V29.55c0-.77-.61-1.4-1.37-1.44ZM23.18,10.5l4.95-3.78-4.87-3.72h10.37v7.5h-10.44ZM25.47,24.09h19.36v4.02h-19.36v-4.02ZM52.76,61H17.54v-30.01h6.49s0,0,0,0h22.25s0,0,0,0h6.47v30.01Z"/>
  <path class="st0" d="M44.43,35.54c-.75-.33-1.58-.48-2.48-.48s-1.69.16-2.44.48c-.7.31-1.31.75-1.82,1.34l-.1.12c-.53.64-.92,1.41-1.19,2.31-.27.91-.4,1.93-.4,3.06v3.54c0,1.13.13,2.15.4,3.06,0,0,0,0,0,0l.05.17c.27.83.65,1.55,1.15,2.15,0,0,0,0,0,0,.53.63,1.17,1.12,1.91,1.45,0,0,0,0,0,0,.74.33,1.56.48,2.44.48.48,0,.95-.05,1.39-.14l2.55,2.58c.12.12.29.19.46.19.17,0,.34-.07.46-.19l.89-.89c.25-.25.25-.66,0-.91l-1.95-1.97c.21-.18.41-.39.59-.61,0,0,0,0,0,0l.05-.06c.5-.63.87-1.39,1.12-2.27h0c.27-.91.4-1.93.4-3.05v-3.54c0-1.06-.11-2.02-.35-2.89l-.05-.17c-.26-.9-.65-1.67-1.18-2.31h0c-.52-.64-1.16-1.13-1.91-1.46ZM45.35,45.91c0,.87-.08,1.61-.24,2.22-.16.61-.38,1.1-.66,1.48-.27.36-.61.63-1.01.81-.41.18-.89.28-1.48.28-.54,0-1.01-.1-1.41-.28-.4-.18-.74-.45-1.03-.82-.28-.38-.51-.86-.67-1.47-.16-.61-.25-1.34-.25-2.21v-3.56c0-.86.09-1.59.25-2.19h0c.16-.61.39-1.1.67-1.47.28-.37.62-.64,1.01-.82.4-.18.87-.28,1.42-.28.59,0,1.08.1,1.48.28.4.18.73.45,1.01.81.28.37.5.85.66,1.46,0,0,0,0,0,0l.03.11c.14.58.22,1.27.22,2.07v3.56Z"/>
  <path class="st0" d="M33.24,35.28h-1.3c-.36,0-.65.29-.65.65v6.7h-6.4v-6.7c0-.36-.29-.65-.65-.65h-1.28c-.36,0-.65.29-.65.65v16.41c0,.36.29.65.65.65h1.28c.36,0,.65-.29.65-.65v-7.21h6.4v7.21c0,.36.29.65.65.65h1.3c.36,0,.65-.29.65-.65v-16.41c0-.36-.29-.65-.65-.65Z"/>
</svg>