<?xml version="1.0" encoding="UTF-8"?>
<svg id="Layer_1" xmlns="http://www.w3.org/2000/svg" version="1.1"   width="50" height="50"  viewBox="0 0 64 64">
  <!-- Generator: Adobe Illustrator 29.5.1, SVG Export Plug-In . SVG Version: 2.1.0 Build 141)  -->
  <defs>
    <style>
      .st0 {
        fill: #fff;
      }
    </style>
  </defs>
  <path class="st0" d="M49.94,7.6C45.25,2.91,38.91.24,32.28.16h-.32c-6.65,0-13.02,2.61-17.76,7.25-.02.02-.04.02-.06.04-.01.01-.01.03-.03.04-.04.04-.08.07-.12.11-4.77,4.77-7.44,11.23-7.44,17.97s2.68,13.2,7.44,17.97c2.36,2.36,5.16,4.23,8.24,5.51,2.66,1.1,5.49,1.71,8.36,1.87v11.56c0,.75.61,1.36,1.36,1.36s1.36-.61,1.36-1.36v-3.16h.42c.08,0,.15-.04.23-.06v3.22c0,.75.61,1.36,1.36,1.36s1.36-.61,1.36-1.36v-9.36c0-.75-.61-1.36-1.36-1.36s-1.36.61-1.36,1.36v3.53c-.08-.02-.15-.05-.23-.06h-.07s-.35,0-.35,0v-5.68c6.24-.34,12.17-2.93,16.61-7.38,4.69-4.69,7.36-11.03,7.44-17.65v-.32c0-6.74-2.68-13.2-7.44-17.97ZM32.25,2.88c5.49.07,10.74,2.14,14.82,5.79l-6.39,6.39c-.17-.56-.67-.98-1.28-.98-.75,0-1.36.61-1.36,1.36v2.26l-.8.8c-.19-1.07-.7-2.07-1.48-2.85-.97-.97-2.28-1.53-3.65-1.57h-.13s0,0,0,0c-1.42,0-2.78.57-3.79,1.57-.7.7-1.17,1.57-1.4,2.51l-.87-.87v-1.85c0-.75-.61-1.36-1.36-1.36-.5,0-.92.29-1.16.69l-6.29-6.29c4.12-3.58,9.39-5.59,14.88-5.59h.28ZM37.33,22.26l.71-.71v7.87l-.71-.71v-6.45ZM31.97,34.24c-.7,0-1.37-.28-1.86-.77-.48-.48-.76-1.12-.77-1.8v-.07s0-12.16,0-12.16c0-.7.28-1.37.77-1.86.49-.49,1.16-.77,1.86-.77.7,0,1.37.28,1.86.77s.76,1.12.77,1.8v.07s0,12.16,0,12.16c0,.7-.28,1.37-.77,1.86-.49.49-1.16.77-1.86.77ZM25.9,29.83v-8.69l.71.71v7.28l-.71.71ZM15.15,10.38l8.03,8.03v14.14l-8.11,8.11c-3.7-4.15-5.79-9.51-5.79-15.1s2.11-11.03,5.87-15.19ZM23.29,46.53c-2.31-.95-4.42-2.3-6.29-3.94l6.46-6.46c.25.34.63.58,1.08.58.75,0,1.36-.61,1.36-1.36v-1.66l.86-.86c.23.96.71,1.85,1.42,2.56s1.52,1.13,2.43,1.37v11.43c-2.51-.15-4.99-.69-7.32-1.66ZM33.33,36.76c.91-.24,1.75-.7,2.43-1.37.8-.8,1.3-1.82,1.48-2.91l.79.79v2.07c0,.75.61,1.36,1.36,1.36.56,0,1.04-.34,1.25-.82l6.51,6.51c-3.82,3.45-8.69,5.49-13.83,5.8v-11.43ZM49.07,40.45l-8.31-8.31v-13.31l8.23-8.23c3.57,4.06,5.6,9.26,5.67,14.69v.28c0,5.49-2.01,10.76-5.59,14.88Z"/>
</svg>