<svg width="9" height="22" viewBox="0 0 9 22" fill="none" xmlns="http://www.w3.org/2000/svg">
<path fill-rule="evenodd" clip-rule="evenodd" d="M4.0849 0.213884C3.76333 0.516559 2.77234 1.70065 2.26726 2.38569C1.07113 4.00806 0.303858 5.60049 0.0677409 6.95059C0.0304402 7.16379 -4.53825e-05 7.60573 5.07167e-08 7.93264C0.00013635 9.05683 0.408672 19.6501 0.477231 20.3064C0.565371 21.1506 0.637111 21.397 0.868048 21.6491C1.03738 21.834 1.3446 21.9908 1.54128 21.9926C2.95447 22.0057 5.49561 21.9989 7.44165 21.9915C7.63102 21.9908 8.0038 21.7957 8.16177 21.6147C8.34913 21.3999 8.44372 21.0986 8.52042 20.4722C8.55508 20.1889 8.68607 17.2123 8.81155 13.8548C9.05458 7.35243 9.05439 7.38192 8.85789 6.54582C8.43582 4.74984 6.96324 2.35533 5.03614 0.331479C4.73601 0.0162768 4.71052 0 4.51629 0C4.33579 0 4.28572 0.0248267 4.0849 0.213884ZM4.83019 1.77609C5.46385 2.83801 6.02808 4.10947 6.24339 4.96075C6.42335 5.67209 6.44948 5.9679 6.45043 7.30397L6.45134 8.54987H4.52043H2.58951V7.35554C2.58951 6.05203 2.64381 5.50886 2.84412 4.80937C3.09623 3.92896 3.65747 2.69778 4.25873 1.70627C4.40085 1.4719 4.52097 1.28019 4.5257 1.28019C4.53047 1.28019 4.66745 1.50336 4.83019 1.77609ZM1.7938 5.14679C1.64623 5.84002 1.62987 6.5668 1.64405 11.8075L1.65813 17.0083H1.46709C1.2864 17.0083 1.27486 17.0003 1.25396 16.8597C1.22497 16.665 0.943422 8.69019 0.940378 7.97836C0.937515 7.3074 1.0033 6.90258 1.22643 6.21809C1.38849 5.72096 1.80443 4.7727 1.84327 4.8118C1.85318 4.82176 1.83091 4.9725 1.7938 5.14679ZM7.79526 6.24095C8.12406 7.25331 8.12192 7.16086 7.93387 12.2533C7.84242 14.7302 7.76791 16.8134 7.76827 16.8826C7.76886 17.0001 7.75632 17.0083 7.57581 17.0083H7.38272V11.396C7.38272 6.23089 7.37641 5.75251 7.30321 5.39154C7.25951 5.17583 7.22543 4.98037 7.22752 4.95719C7.23666 4.85619 7.64651 5.78296 7.79526 6.24095ZM6.40591 10.4016V11.3389H4.52043H2.63495V10.4016V9.4643H4.52043H6.40591V10.4016ZM6.45134 14.4879C6.45134 15.6918 6.43857 16.7411 6.42295 16.8197L6.39455 16.9626H4.52093H2.64731L2.61841 16.7504C2.60251 16.6338 2.58951 15.5845 2.58951 14.4186V12.299H4.52043H6.45134V14.4879ZM2.49865 18.8829V19.843H1.95976H1.42088L1.38985 19.1C1.37277 18.6914 1.34687 18.2594 1.33224 18.1399L1.30566 17.9227H1.90215H2.49865V18.8829ZM7.66318 18.1399C7.64855 18.2594 7.62266 18.6914 7.60557 19.1L7.57454 19.843H7.03566H6.49677V18.8829V17.9227H7.09327H7.68976L7.66318 18.1399ZM5.54268 18.9057V19.843H4.49771H3.45275V18.9057V17.9684H4.49771H5.54268V18.9057ZM7.50117 20.8806C7.48027 20.9592 7.42657 21.015 7.35255 21.0349C7.28886 21.0521 5.97556 21.0663 4.43415 21.0666C1.43315 21.0672 1.49912 21.0721 1.49912 20.8456C1.49912 20.7594 1.56667 20.7574 4.51652 20.7574H7.53388L7.50117 20.8806Z" fill="white"/>
</svg>
