<?xml version="1.0" encoding="UTF-8"?>
<svg xmlns="http://www.w3.org/2000/svg" version="1.1" xmlns:xlink="http://www.w3.org/1999/xlink" viewBox="0 0 510.2 510.2">
  <defs>
    <style>
      .cls-1 {
        fill: #fff;
      }

      .cls-2, .cls-3 {
        fill: none;
      }

      .cls-3 {
        stroke: #000;
        stroke-miterlimit: 10;
        stroke-width: 19.8px;
      }

      .cls-4 {
        clip-path: url(#clippath);
      }
    </style>
    <clipPath id="clippath">
      <rect class="cls-2" y="56.7" width="510.4" height="396.9"/>
    </clipPath>
  </defs>
  <!-- Generator: Adobe Illustrator 28.7.7, SVG Export Plug-In . SVG Version: 1.2.0 Build 194)  -->
  <g>
    <g id="Layer_1">
      <g id="Layer_1-2" data-name="Layer_1">
        <g id="a">
          <g class="cls-4">
            <path d="M358,227.4c-.1-1.3-.2-1.4-1.5-1.5-2.2-.1-42.4-1.8-47.4-2-.4-1.9-.4-1.9-2.2-2.1-.6,0-1.3,0-1.9,0-1.1,0-1.2-.2-1.1-1.2.2-1.4.4-2.7.6-4.1.6-3.9,1.2-7.9,1.9-11.8.2-1.2,10.5-64.8,10.8-66.3.4-2.8.9-5.6,1.3-8.3.3-1.5.6-3,.8-4.5.2-.9.3-1.9.5-2.8.4-2.5.7-4.9,1.1-7.4.2-1.4.4-2.7.7-4.1.6-3.6,1.2-7.1,1.8-10.7.4-2.1.7-4.3,1-6.4,2.5-.8,2.7-1.4,1.3-2.7-.1,0-.2,0-.3,0-.6,0-1.2.2-1.8.2-26.7,0-53.4,0-80.1,0-.5,0-1,0-1.4,0-.6,0-.9.3-1,.8-.1.6.2,1,.7,1.3.4.1.8.2,1.2.3-1.6,3.4-12.2,20.3-12.9,20.9-.9,0-1.6-.2-2.3-.2-.5,0-1,0-1.4,0-11.3,0-22.7,0-34,0-4.9,0-9.7,0-14.6,0-1.1,0-1.4.6-1.2,1.7.5,2.1.6,4.3,0,6.4-.3,1,.2,1.6,1.2,1.7.2,0,.4,0,.6,0,11,0,22,0,33.1,0,4.1,0,8.1,0,12.2,0,.2,0,.4.1.7.2-18.8,30.6-37.5,61-56.2,91.6-1.2,0-2.4-.2-3.6-.3-1.8-.2-2,0-2.3,1.7,0,0-.2.1,0,0-1.3-.4-2.4-.7-3.5-1h0s0,0,0,0c-.2,0-.3,0-.5-.1,0,0-.1,0-.2,0l-3.7-.9s0,0,0,0c-.5-.1-1-.2-1.5-.3h0s0,0,0,0h0c-4.2-.9-8.3-1.9-12.5-2.8-3.1-.7-6.1-1.5-9.1-2.2-3.8-.9-7.5-1.8-11.3-2.7-3.6-.8-7.1-1.6-10.7-2.5-2.2-.5-4.4-1.1-6.6-1.6-1.9-.4-3.8-.8-5.8-1.3-3.9-.9-7.7-1.8-11.6-2.7-2.7-.6-5.4-1.3-8-1.9-1.6-.4-3.3-.8-4.9-1.2-2.4-.5-4.9-1-7.3-1.6-3.3-.8-6.6-1.6-9.9-2.4-2.6-.6-5.3-1.3-7.9-1.9-1.9-.4-3.7-.8-5.6-1.2-2.4-.6-4.8-1.2-7.3-1.7-2.5-.6-4.9-1.2-7.4-1.8-2.5-.6-5.1-1.1-7.6-1.7-2.4-.6-4.8-1.2-7.2-1.8-2.6-.6-5.3-1.1-7.9-1.8-2.4-.6-4.7-1.2-7.1-1.7-2.7-.6-5.4-1.2-8.1-1.8-2.3-.5-4.6-1.2-6.9-1.7-2.7-.6-5.4-1.2-8.1-1.8-2.1-.4-4.1-1.1-6.2-1.1-12.1-.1-24.3,0-36.4,0-12.1,0-24.3,0-36.4,0s-24.3,0-36.4,0c-12.1-.1-24.3.5-36.4-.4-27.6,0-55.2,0-82.8,0-1.5,0-3-.3-4.6-.5,0-1.8,0-3.3,0-4.8,0-1.2-.2-2.4-.9-3.5-1.2-1.9-3-2.7-5-3.1-.6-.1-1.3,0-1.8.3-1.8.9-3.5,1.9-5.2,2.9-3.9,2.2-7.7,4.5-11.6,6.7-3.6,2.1-7.2,4.1-10.8,6.2-3.8,2.2-7.6,4.4-11.3,6.6-2.5,1.5-5.1,2.9-7.6,4.4-.8.5-1.6,1.1-1.8,2.1,0,.3-.4.6-.7.8v5.1c0,.4.3.9.3,1.3,0,1.4-.2,2.8-.3,4.1v.3c.6.4.6,1.1.6,1.7,0,4.7,0,9.4.1,14.1,0,.4,0,.9,0,1.3.7,2.2,1.5,4.4,2.8,6.4,1.6,2.5,3.2,4.9,4.7,7.5,1.3,2.2,2.8,4.1,5,5.5,2,1.3,3.9,2.6,5.8,4,5.6,3.9,11.1,7.8,16.7,11.7.6.4,1.1.9,1.4,1.5,2,3.2,3.9,6.5,5.9,9.7,3.5,5.4,7,10.9,10.7,16.2,2.9,4.2,6,8.3,9,12.4,1.9,2.5,3.8,5,5.8,7.5,3.1,3.8,6.4,7.4,9.6,11.2,4.9,5.8,10.5,11,16.2,16,3.3,2.9,6.8,5.5,10.3,8.1,5.8,4.3,11.9,8.1,18.4,11.3,4.9,2.4,10,4.5,15.2,6.1,3.4,1.1,6.8,2,10.3,2.9,2.6.6,5.2,1.1,7.8,1.6,2.5.4,5,.8,7.6,1.1,2.9.3,5.7.5,8.6.8,1.7.1,3.4.2,5.1.3,2.9.1,5.9.2,8.8.3,1,0,1.9.2,2.9.2,81.4,0,162.7,0,244.1,0,2.2,0,4.5-.2,6.7-.3,1.4,0,2.9-.2,4.3-.2,34.3,0,68.6,0,102.9,0,2.2,0,2.5-.2,3-2.4.1-.5.4-1.1.5-1.6.6,0,1.1,0,1.6,0,1,0,1.7-.4,2-1.5.4-1.7,1-3.5,1.4-5.2.7-2.5,1.4-5.1,2.1-7.7.9,0,1.7-.1,2.5-.2.6,0,1.3,0,1.9,0,2.6-.3,5.3-.6,7.9-.9,2.8-.2,5.5-.4,8.3-.5.5,0,.9-.2,1.4-.2,3.1-.3,6.3-.6,9.4-.8,1.1,0,2.1-.2,2.1-.2,8.1-.7,25.3-2.3,25.8-2.4,1.9-.1,3.7-.2,5.6-.4,1,0,2-.2,3-.3,3.9-.3,12.7-1.1,14.6-1.3,2-.2,3.9-.2,5.9-.4,4.9-.5,9.8-.6,14.7-.5.6,0,1.1.2,1.7.3.7.1,1.4.3,2.2.3.9,0,1.2-.6,1.4-1.3,0-.2.4-.4.6-.4.5-.1.9-.3,1.4-.3,3.2-.2,6.5-.4,9.7-.7.8,0,1.7-.3,2.4-.4.2-.8.4-1.4.5-2v-100.1c-.1-.3-.3-.6-.3-1ZM210.1,195.3c-.3.1,44.7-74.3,45.6-74.9.5-.7,34.9.2,35.6-.3.3-.2-13.5,77.7-13.4,78,0,.3-66.9-3.3-67.8-2.8Z"/>
            <g>
              <path class="cls-1" d="M226.7,163.3c-2.2,3.5-4.3,7.1-6.5,10.7-1,1.6-2,3.2-3.1,4.9-3.6,5.9-7.2,11.8-10.9,17.9.2.6.6.8,1.3.8,3,0,6,.2,9,.3,2.3,0,4.6,0,6.9.2,5.1.2,10.1.5,15.2.7,4.6.2,9.2.5,13.7.7,3,.1,6,.2,9,.3,5.8.2,11.6.5,17.4.7,1,0,1.4-.3,1.6-1.2.3-1.5.5-2.9.8-4.4.5-3,1-6.1,1.5-9.1.2-1.3.4-2.5.6-3.8.4-2.5.7-5.1,1.1-7.6.6-3.5,1.3-7,1.9-10.5.2-1.1.4-2.3.5-3.5.4-2.7.8-5.4,1.2-8,.2-1.6.5-3.3.8-4.9.4-2.5.8-5,1.3-7.6.2-1.4.5-2.8.7-4.2.4-2.4.7-4.8,1.1-7.2.4-2.6,1-5.2,1.3-7.9.1-1,.3-2.1,0-3.1-.2,0-.3-.2-.4-.2-12.3,0-24.6,0-36.9,0-.8,0-1.2.3-1.5.9-.5.9-1,1.8-1.5,2.6-3,5-6.1,9.9-9.1,14.9-3.3,5.4-6.6,10.8-10,16.2-2.3,3.7-4.6,7.4-6.9,11.1ZM278.5,200c-2.1-.1-4.2-.2-6.2-.3-1.9,0-3.8-.2-5.8-.3-5.3-.2-10.6-.4-15.8-.6-2.7-.1-5.3-.2-8-.3-4.2-.2-8.3-.3-12.5-.5-4.8-.2-9.6-.4-14.4-.6-2.3-.1-4.7-.2-7-.4-.4,0-.7-.2-1-.3,0-.2,0-.3.1-.5.4,0,.8,0,1.2,0,3.8.1,7.7.2,11.5.4,5.3.2,10.5.5,15.8.7,2.1,0,4.3.1,6.4.2,3.7.2,7.5.4,11.2.5.7,0,1.5,0,2.2,0,3.5.2,6.9.3,10.4.5,2.4,0,4.8,0,7.2.2,1.8,0,3.6.2,5.3.4.2.8-.2.9-.7.9ZM210.1,195.3c2.6-4.3,14.2-23.2,14.6-23.9,2-3.3,4.1-6.7,6.1-10,.2-.3.3-.7.5-.9.4-.7.8-1.3,1.3-1.9h0c.3-.6,3.1-5.2,3.7-6,.2-.2,4-6.7,4.6-7.6,4.7-7.7,9.5-15.3,14.2-23,.3-.4.3-1,.5-1.5h34.8c0,.7,0,1.3,0,1.9-.4,2.6-1,5.1-1.4,7.7-.4,2.6-.7,5.1-1.1,7.7-.2,1.1-.4,2.3-.6,3.4,0,.3-3,18.6-3.5,21.5-.6,3.5-1.2,7-1.8,10.5-.4,2.6-.7,5.1-1.2,7.7-.4,2.5-.9,5-1.3,7.5-.2,1.4-.3,2.7-.6,4.1-.3,1.8-.6,3.6-1,5.6-.7,0-1.3.1-1.9.1-4-.2-8-.3-12-.5-3.9-.2-7.9-.3-11.8-.5-4-.2-8.1-.3-12.1-.5-1.9,0-3.7-.2-5.6-.3-.5,0-18.1-.7-19.3-.8-1.5-.2-3.1-.2-5-.3ZM292.4,121.6c-.2.9-.3,1.9-.5,2.8-.6,3.6-1.3,7.2-1.9,10.8-.4,2.5-.7,4.9-1.1,7.4-.3,2.2-.7,4.4-1.1,6.6-.5,2.9-.9,5.8-1.4,8.7-.5,2.7-1,5.4-1.4,8.2-.2,1.2-.4,2.4-.6,3.6-.5,2.9-1,5.8-1.5,8.6-.4,2.4-.7,4.7-1.1,7.1-.4,2.5-.8,4.9-1.2,7.4-.2,1.4-.5,2.8-.8,4.2,0,.3-.4.7-.6.7-.6,0-.5-.5-.4-1,.6-3.8,1.2-7.6,1.8-11.3.4-2.5.9-5,1.4-7.5.2-1.1.3-2.2.5-3.3.5-3,1-6,1.5-9,.5-3.2,1-6.3,1.5-9.5.5-2.8,1-5.7,1.4-8.5.5-2.8.9-5.6,1.3-8.3.6-3.5,1.2-6.9,1.7-10.4.4-2.7.8-5.4,1.2-8,0-.2.1-.3.2-.4,1.1.1,1.2.2,1,1.1ZM256.2,118.8c11.4,0,22.9,0,34.3,0,.7,0,1.4-.2,1.6.8-2.2,0-4.4,0-6.5,0-9.7,0-19.5,0-29.2,0-.5,0-1.2.3-1.5-.7.5,0,.9-.1,1.2-.1ZM252,123.8c.6-.9,1.1-1.8,1.6-2.8.2-.4.5-.8,1-.5.5.3.2.8,0,1.1-.5.8-1,1.5-1.4,2.3-3.6,5.8-7.1,11.6-10.7,17.5-4.2,6.9-8.5,13.7-12.7,20.5-3.7,6-7.4,12.1-11.1,18.1-3.1,5-6.1,10-9.3,15.2-.3-.3-.6-.5-.9-.7,5-8.1,10-16.2,15-24.3,4.9-7.9,9.7-15.9,14.5-23.8,4.7-7.6,9.3-15.2,14-22.7Z"/>
              <path class="cls-1" d="M-311,212.5c-1.1-1.8-3.1-2.2-5-1.1-.6.3-1.1.7-1.7,1-2,1.1-2.6,3.3-1.4,5.3,2.3,3.8,4.7,7.6,7.1,11.4.8,1.2,1.7,2.2,3,2.1,2.3,0,3.6-1.1,4.9-2.3,1.4-1.3,1.6-2.8.6-4.4-2.5-4-4.9-8-7.4-11.9ZM-304.5,228.5c-1.3,1.1-2.7,2.1-4.7,2-1,.1-1.6-.6-2.1-1.4-2.5-3.9-4.9-7.8-7.3-11.8-.9-1.4-.5-3.1.8-4.1.7-.5,1.4-1,2.1-1.4,1.7-1,2.9-.5,3.8.7,1,1.3,1.8,2.7,2.7,4.1,1.6,2.5,3.1,5,4.6,7.5.3.4.5.9.7,1.4.4,1.1.3,2.1-.7,2.9Z"/>
              <path class="cls-1" d="M-307.5,224.1c-.9,0-2,1.3-1.9,2.2,0,.9,1.1,2.2,1.8,2.2,1.1,0,2.3-1.3,2.3-2.3,0-1-1.2-2.1-2.2-2.1ZM-306.6,227.2c-.3.2-.6.4-1,.6-.8-.5-1.4-.9-1-1.9.2-.6.4-1.3,1-1.2.5,0,1.1.5,1.4.9.5.6,0,1.1-.4,1.5Z"/>
              <path class="cls-1" d="M-314,213.6c-.8,0-1.9,1.2-1.9,2.2,0,.9,1,2.1,1.7,2.2.9,0,2.3-1.2,2.3-2.2,0-.8-1.3-2.2-2.1-2.3ZM-313.9,217.3c-.6,0-1.3-.8-1.3-1.4,0-.8.7-1.6,1.2-1.6.7,0,1.4.7,1.4,1.4,0,.8-.6,1.6-1.3,1.6Z"/>
              <path class="cls-1" d="M217.3,336c-4-1.3-8.1-2.1-12.4-2.4-4-.3-8.1-.7-12.1-.8-5.1-.1-10.2,0-15.2,0-20.2,0-40.4,0-60.6,0-11.3,0-22.6.1-33.9.2-.1,0-.2,0-.3,0,0,0,0,0,0,0h-2.1c-.2,0-.4,0-.6,0-1.4,0-2.9.2-4.3.2-13.1,0-26.2,0-39.3,0-8.4,0-16.8.1-25.2.1-11.6,0-23.1,0-34.7,0-14.3,0-28.7,0-43-.2-3.2,0-6.3-.2-9.5-.3-4.1-.2-8.1-.4-12.2-.7-4.4-.3-8.7-.8-13.1-1.3-2.6-.3-5.3-.6-7.9-1-1.5-.2-2.9-.5-4.4-.7-3.6-.6-7.3-1-10.9-1.7-3.1-.5-6.2-1.2-9.2-1.9-2.7-.6-5.3-1.1-7.9-1.8-2.9-.7-5.9-1.5-8.8-2.3-3.6-1-7.2-1.9-10.7-3.1-6.4-2.1-12.8-4.2-19-6.8-5.4-2.2-10.8-4.3-16.1-6.6-7.1-3.2-14-6.6-21-9.9-3.9-1.8-7.7-3.7-11.5-5.6-2.3-1.2-4.7-2.3-7.3-2.7-1.3-.2-2.5-.2-3.8-.1-.4,0-.8.5-1,.9,0,.2.3.8.5,1,1.3,1,2.6,2.1,3.9,3,3.7,2.6,7.3,5.3,11,7.7,4.7,3,9.4,6,14.2,8.6,5.3,2.9,10.9,5.4,16.4,8,3.5,1.6,7,3.2,10.6,4.5,5.5,2.1,11.1,4,16.7,5.9,3,1,6,1.9,9,2.7,3,.8,6,1.5,9,2.1,3.6.8,7.3,1.7,10.9,2.3,4.1.8,8.3,1.4,12.5,2,1.6.2,3.2.4,4.8.6,2.3.3,4.7.5,7,.7,2.6.3,5.2.6,7.8.8,3.2.2,6.5.2,9.8.5,5.2.5,10.5.5,15.7.5,1,0,1.9,0,2.9.2.8,0,1.7.3,2.5.3,8.2,0,16.5,0,24.7,0,.7,0,1.5,0,2.2-.2,1.3-.1,2.5-.3,3.8-.3,26.2,0,52.3,0,78.5,0,2.1,0,4.3.2,6.4-.5.3,0,.6,0,1,0,17.1,0,34.2,0,51.4,0,17.1-.1,34.2.6,51.3-.4,24.4,0,48.8,0,73.2,0s1.7.4,1.8-.4c.2-1-1-.9-1.6-1.1ZM-231.7,293.7c-1.6-.5-7.7-5.1-8.2-6.3,2.6-.2,5,0,7.3,1,.5.2.9.4.9.9,0,1.4,0,2.8,0,4.3ZM-222.7,300.1c-.8-.5-1.3-.8-1.8-1.1-1.9-1.3-3.8-2.6-5.7-3.8-.7-.5-1-1-.9-1.8,0-1.3,0-2.6,0-4.1.8.3,1.5.5,2.1.8,1.8.8,3.5,1.7,5.3,2.5.6.3,1,.7.9,1.5,0,1.9,0,3.8,0,6.1ZM-208.1,307.9c0,.1-.1.3-.3.6-2.4-1.4-4.8-2.6-7-4-1.8-1.1-3.6-2.3-5.4-3.4-.7-.4-1.2-.9-1.1-1.9,0-1.9,0-3.8,0-5.9.4.2.8.3,1.1.4,4,2,8,4,12,6,.6.3.9.7.9,1.4,0,2.2,0,4.5,0,6.7ZM180.5,336.6c-.3,0-.5.1-.7.1-11.8,0-23.6,0-35.5,0-1,0-2,.2-3,.3-1.1.1-2.2.3-3.3.4-34.5.2-69-.2-103.5.3-26.2.3-52.3,0-78.5,0-1.5,0-3,.3-4.5.4-.8,0-1.6.2-2.4.2-8.1,0-16.3,0-24.4,0-.6,0-1.2,0-1.8-.1-1.8-.6-3.7-.5-5.6-.5-6.2,0-12.4,0-18.6-.5-2.1-.2-4.1-.3-6.2-.5-2.7-.2-5.3-.5-8-.7-2.1-.2-4.1-.5-6.2-.7-1.2-.1-2.4-.3-3.6-.5-1.8-.2-3.6-.4-5.4-.7-2.4-.4-4.8-.9-7.2-1.3-2.9-.5-5.9-1-8.8-1.6-3.2-.7-6.4-1.6-9.5-2.4-4-1.1-8.1-2.1-12.1-3.4-4.7-1.5-9.4-3.1-14-5-6.2-2.5-12.4-5.2-18.5-8-2.3-1-4.5-2.2-6.6-3.3v-8.3c.3,0,.5,0,.6,0,7.3,3.6,14.7,6.9,22.2,9.8,5.3,2.1,10.7,4.1,16.1,6,2.8,1,5.6,2,8.5,2.8,3.6,1.1,7.2,2.1,10.9,3.1,3.6,1,7.2,2,10.8,2.8,3.7.9,7.5,1.5,11.2,2.3,2.1.4,4.3.9,6.4,1.2,1.7.3,3.5.5,5.2.7,1.2.2,2.3.3,3.5.5,1.8.3,3.7.5,5.5.8,2.3.3,4.6.5,7,.8,2.4.3,4.9.6,7.3.8,4.5.4,8.9.7,13.4,1,3.9.2,7.8.5,11.7.5,35.8,0,71.6,0,107.3,0s5.5,0,8.2,0c9.7,0,19.4,0,29.1,0,.5,0,1.1,0,1.6-.1l6.4-.2h0c31.6.1,63.2-.2,95,0v3.1ZM199.6,336.6c-.4,0-.7.1-1,.1-5.3,0-10.6,0-15.9,0-.3,0-.5,0-.8,0-.5,0-.7-.3-.7-.8,0-.7,0-1.4,0-2.3,3.1-.1,6.2,0,9.2,0,3,0,6,.2,9.1.3v2.6ZM214.8,336.8c-4.5,0-9,0-13.5-.2-.3,0-.6,0-1-.1v-2.3c1.9-.7,13.4.8,15.7,2.2-.5.1-.9.3-1.3.3Z"/>
              <path class="cls-1" d="M358,227.4c-.1-1.3-.2-1.4-1.5-1.5-2.2-.1-42.4-1.8-47.4-2-.4-1.9-.4-1.9-2.2-2.1-.6,0-1.3,0-1.9,0-1.1,0-1.2-.2-1.1-1.2.2-1.4.4-2.7.6-4.1.6-3.9,1.2-7.9,1.9-11.8.2-1.2,10.5-64.8,10.8-66.3.4-2.8.9-5.6,1.3-8.3.3-1.5.6-3,.8-4.5.2-.9.3-1.9.5-2.8.4-2.5.7-4.9,1.1-7.4.2-1.4.4-2.7.7-4.1.6-3.6,1.2-7.1,1.8-10.7.4-2.1.7-4.3,1-6.4,2.5-.8,2.7-1.4,1.3-2.7-.1,0-.2,0-.3,0-.6,0-1.2.2-1.8.2-26.7,0-53.4,0-80.1,0-.5,0-1,0-1.4,0-.6,0-.9.3-1,.8-.1.6.2,1,.7,1.3.4.1.8.2,1.2.3-1.6,3.4-12.2,20.3-12.9,20.9-.9,0-1.6-.2-2.3-.2-.5,0-1,0-1.4,0-11.3,0-22.7,0-34,0-4.9,0-9.7,0-14.6,0-1.1,0-1.4.6-1.2,1.7.5,2.1.6,4.3,0,6.4-.3,1,.2,1.6,1.2,1.7.2,0,.4,0,.6,0,11,0,22,0,33.1,0,4.1,0,8.1,0,12.2,0,.2,0,.4.1.7.2-18.8,30.6-37.5,61-56.2,91.6-1.2,0-2.4-.2-3.6-.3-1.8-.2-2,0-2.3,1.7,0,0-.2.1,0,0-1.3-.4-2.4-.7-3.5-1h0s0,0,0,0c-.2,0-.3,0-.5-.1,0,0-.1,0-.2,0l-3.7-.9s0,0,0,0c-.5-.1-1-.2-1.5-.3h0s0,0,0,0h0c-4.2-.9-8.3-1.9-12.5-2.8-3.1-.7-6.1-1.5-9.1-2.2-3.8-.9-7.5-1.8-11.3-2.7-3.6-.8-7.1-1.6-10.7-2.5-2.2-.5-4.4-1.1-6.6-1.6-1.9-.4-3.8-.8-5.8-1.3-3.9-.9-7.7-1.8-11.6-2.7-2.7-.6-5.4-1.3-8-1.9-1.6-.4-3.3-.8-4.9-1.2-2.4-.5-4.9-1-7.3-1.6-3.3-.8-6.6-1.6-9.9-2.4-2.6-.6-5.3-1.3-7.9-1.9-1.9-.4-3.7-.8-5.6-1.2-2.4-.6-4.8-1.2-7.3-1.7-2.5-.6-4.9-1.2-7.4-1.8-2.5-.6-5.1-1.1-7.6-1.7-2.4-.6-4.8-1.2-7.2-1.8-2.6-.6-5.3-1.1-7.9-1.8-2.4-.6-4.7-1.2-7.1-1.7-2.7-.6-5.4-1.2-8.1-1.8-2.3-.5-4.6-1.2-6.9-1.7-2.7-.6-5.4-1.2-8.1-1.8-2.1-.4-4.1-1.1-6.2-1.1-12.1-.1-24.3,0-36.4,0-12.1,0-24.3,0-36.4,0s-24.3,0-36.4,0c-12.1-.1-24.3.5-36.4-.4-27.6,0-55.2,0-82.8,0-1.5,0-3-.3-4.6-.5,0-1.8,0-3.3,0-4.8,0-1.2-.2-2.4-.9-3.5-1.2-1.9-3-2.7-5-3.1-.6-.1-1.3,0-1.8.3-1.8.9-3.5,1.9-5.2,2.9-3.9,2.2-7.7,4.5-11.6,6.7-3.6,2.1-7.2,4.1-10.8,6.2-3.8,2.2-7.6,4.4-11.3,6.6-2.5,1.5-5.1,2.9-7.6,4.4-.8.5-1.6,1.1-1.8,2.1,0,.3-.4.6-.7.8v5.1c0,.4.3.9.3,1.3,0,1.4-.2,2.8-.3,4.1v.3c.6.4.6,1.1.6,1.7,0,4.7,0,9.4.1,14.1,0,.4,0,.9,0,1.3.7,2.2,1.5,4.4,2.8,6.4,1.6,2.5,3.2,4.9,4.7,7.5,1.3,2.2,2.8,4.1,5,5.5,2,1.3,3.9,2.6,5.8,4,5.6,3.9,11.1,7.8,16.7,11.7.6.4,1.1.9,1.4,1.5,2,3.2,3.9,6.5,5.9,9.7,3.5,5.4,7,10.9,10.7,16.2,2.9,4.2,6,8.3,9,12.4,1.9,2.5,3.8,5,5.8,7.5,3.1,3.8,6.4,7.4,9.6,11.2,4.9,5.8,10.5,11,16.2,16,3.3,2.9,6.8,5.5,10.3,8.1,5.8,4.3,11.9,8.1,18.4,11.3,4.9,2.4,10,4.5,15.2,6.1,3.4,1.1,6.8,2,10.3,2.9,2.6.6,5.2,1.1,7.8,1.6,2.5.4,5,.8,7.6,1.1,2.9.3,5.7.5,8.6.8,1.7.1,3.4.2,5.1.3,2.9.1,5.9.2,8.8.3,1,0,1.9.2,2.9.2,81.4,0,162.7,0,244.1,0,2.2,0,4.5-.2,6.7-.3,1.4,0,2.9-.2,4.3-.2,34.3,0,68.6,0,102.9,0,2.2,0,2.5-.2,3-2.4.1-.5.4-1.1.5-1.6.6,0,1.1,0,1.6,0,1,0,1.7-.4,2-1.5.4-1.7,1-3.5,1.4-5.2.7-2.5,1.4-5.1,2.1-7.7.9,0,1.7-.1,2.5-.2.6,0,1.3,0,1.9,0,2.6-.3,5.3-.6,7.9-.9,2.8-.2,5.5-.4,8.3-.5.5,0,.9-.2,1.4-.2,3.1-.3,6.3-.6,9.4-.8,1.1,0,2.1-.2,2.1-.2,8.1-.7,25.3-2.3,25.8-2.4,1.9-.1,3.7-.2,5.6-.4,1,0,2-.2,3-.3,3.9-.3,12.7-1.1,14.6-1.3,2-.2,3.9-.2,5.9-.4,4.9-.5,9.8-.6,14.7-.5.6,0,1.1.2,1.7.3.7.1,1.4.3,2.2.3.9,0,1.2-.6,1.4-1.3,0-.2.4-.4.6-.4.5-.1.9-.3,1.4-.3,3.2-.2,6.5-.4,9.7-.7.8,0,1.7-.3,2.4-.4.2-.8.4-1.4.5-2v-100.1c-.1-.3-.3-.6-.3-1ZM315.4,224.9c5.1.2,10.1.4,15.2.6,5.6.3,11.2.6,16.8.8,2.4.1,4.8,0,7.2.2.9,0,1.8.2,2.6.2.3.7.1,1.1-.5,1.1-.1,0-.2,0-.3,0-3.4-.6-6.8-.2-10.2-.4-5.5-.3-11.1-.6-16.6-.9-1,0-1.9,0-2.9,0-5.7-.2-11.4-.4-17.1-.6-4.1-.2-8.2-.3-12.3-.5-5.3-.2-10.6-.5-15.8-.8-.3,0-.6,0-1,0-4.7-.2-9.4-.4-14.1-.5-5.5-.2-11-.4-16.5-.7-2.5-.1-5-.2-7.5-.3-5.6-.3-11.3-.6-16.9-.9-.6,0-1.2,0-1.8,0-2.8-.1-5.6-.3-8.5-.4-.3,0-.6,0-1,0-3.5-.2-7-.4-10.6-.5-1.3,0-2.7,0-4,0-2.5-.2-5-.4-7.5-.6-1.7,0-3.3,0-5,0-1.8,0-3.6.1-5.4-.5-.4-.1-.9,0-1.4,0-2,0-4.1,0-6.1,0-.2,0-.3,0-.5,0-2.6-1-5.3-.4-7.9-.5-.7,0-1.3-.2-1.9-.3,0-.1,0-.3,0-.4,1.6,0,3.2-.1,4.7,0,3.4.3,6.8.5,10.1.5,2,0,3.9.2,5.9.4,1.5.2,3.1,0,4.6,0,2.5,0,5,.3,7.5.4,1.4,0,2.8,0,4.2.1,1.6,0,3.2.1,4.8.2,2.4,0,4.8,0,7.2.2,1.8,0,3.5.3,5.2.4,1.7.1,3.3.1,5,.2,3.5.1,7,.3,10.6.4.9,0,1.7,0,2.6,0,5.7.2,11.4.4,17.1.7,4.2.2,8.4.3,12.6.5,7.5.3,14.9.6,22.4,1,3.9.2,7.8.3,11.7.5,5.1.2,10.2.4,15.4.6ZM357.3,320.7c0,.1-.4.4-.6.6-.2,0-.4,0-.6,0-11.4,0-22.8,0-34.2,0-37.3,0-74.6,0-111.9,0-53.7,0-107.3,0-161-.2-15.8,0-31.5-.2-47.3-.3-3.5,0-7,0-10.4-.1-6.1-.2-12.2-.4-18.2-.7-5.2-.2-10.5-.5-15.7-.8-3.5-.2-7-.6-10.5-.9-3.1-.3-6.3-.4-9.4-.7-2.5-.2-5.1-.6-7.6-.9-2.1-.2-4.1-.3-6.2-.6-2-.2-3.9-.4-5.9-.7-2.2-.3-4.3-.5-6.5-.8-1.4-.2-2.8-.4-4.3-.6-3.3-.5-6.6-1-10-1.5-2.5-.4-4.9-.9-7.4-1.3-2.3-.4-4.5-.7-6.8-1.1-2.2-.4-4.5-.9-6.7-1.4-2.4-.5-4.9-1-7.3-1.5-2.8-.6-5.6-1.2-8.4-1.9-4.5-1.1-8.9-2.1-13.3-3.3-5.3-1.4-10.5-2.9-15.8-4.5-5.9-1.8-11.8-3.6-17.6-5.6-5.7-1.9-11.4-3.9-17-6.1-5.5-2.1-10.9-4.3-16.3-6.6-13-5.4-25.6-11.3-38.1-17.8-7-3.7-14-7.4-20.9-11.2-6-3.3-11.8-7-17.6-10.4-.9-.5-1.7-1-2.6-1.6-.5-.3-.9-.6-.4-1.4.9.5,1.7,1,2.6,1.5,7.3,4.3,14.5,8.7,21.8,12.8,5.9,3.3,11.8,6.4,17.8,9.5,6.2,3.2,12.4,6.2,18.6,9.2,4.8,2.3,9.6,4.4,14.4,6.5,7.5,3.1,15.1,6.2,22.7,9.1,6.7,2.5,13.4,4.8,20.1,7.1,5.4,1.8,10.9,3.5,16.4,5.1,4.8,1.4,9.7,2.7,14.6,4,5.3,1.3,10.6,2.5,15.8,3.7,5.4,1.2,10.7,2.3,16.1,3.4,3.1.6,6.3,1.1,9.4,1.6,2.5.4,4.9.9,7.4,1.3,2.9.5,5.9.8,8.9,1.3,1.4.2,2.7.4,4.1.6,3.8.5,7.6.9,11.4,1.4,1.4.2,2.9.3,4.3.5,4.9.5,9.8,1.1,14.6,1.5,3.4.3,6.8.5,10.2.7,5.4.3,10.8.6,16.1,1,4.7.3,9.5.5,14.2.8.2,0,.4,0,.6,0,10.4.2,20.7.4,31.1.4,10.4,0,20.8,0,31.1,0h68.2c80.4,0,160.8,0,241.2,0,.6,0,1.2,0,1.8,0,.3,0,.5.5.6.8ZM324.1,92.3h1.5c.2.8-.3.8-.7.8-.4,0-.9,0-.7-.8ZM323.1,93.6c.2,0,.5.6.5.9,0,.9-.2,1.8-.3,2.7-.5,2.8-1,5.5-1.5,8.3-.6,3.6-1,7.1-1.6,10.7-.4,2.7-1,5.4-1.5,8.2-.4,2.5-.7,4.9-1.1,7.4-.3,2.2-.7,4.4-1.1,6.6-.5,2.9-1,5.9-1.5,8.8-.6,3.8-1.3,7.5-1.9,11.3-.7,4.5-1.3,8.9-2.1,13.4-.4,2.7-1,5.4-1.5,8.2-.4,2.5-.7,5-1,7.4-.3,1.6-.6,3.2-.9,4.9-.3,1.6-.4,3.2-.7,4.7-.4,2.5-.8,4.9-1.2,7.4-.2,1.5-.5,3-.7,4.6-.2,1.1-.3,2.1-.5,3.2-.3,1.7-.7,3.4-1,5.2-.3,1.4-.5,2.8-.7,4.3-.9,0-1.1-.3-1-.9.6-3.4,1.2-6.8,1.8-10.2.6-3.6,1.1-7.2,1.6-10.7.4-2.7.9-5.3,1.4-8,.4-2.5.7-4.9,1.1-7.4.2-1.1.4-2.2.5-3.3.6-3.7,1.2-7.5,1.8-11.2.5-2.9,1-5.9,1.5-8.8.6-3.5,1-7.1,1.6-10.6.4-2.7.9-5.5,1.4-8.2.2-1.2.4-2.3.6-3.5.7-4.6,1.4-9.2,2.2-13.9.6-3.7,1.3-7.3,1.9-11,.7-4.5,1.4-8.9,2.1-13.4.3-2.1.6-4.1,1-6.2,0-.5.2-.9.7-.8ZM245.8,92.2c.4,0,.9,0,1.3,0,24.3,0,48.7,0,73,0,.7,0,1.3,0,2,.1,0,.2,0,.3,0,.5-.3.1-.5.3-.8.3-.5,0-1,0-1.4,0-24.3,0-48.5,0-72.8,0-.6,0-1.4.3-2-.5.3-.2.6-.3.8-.4ZM245.6,94c1.3-.3,74.7-.3,76.2,0-.1.8-.2,1.6-.3,2.5-.2,1.7-.5,3.4-.7,5-.2,1.3-.4,2.6-.6,3.9-.5,2.8-.9,5.6-1.4,8.3-.3,1.6-.6,3.1-.9,4.7,0,.4-.2.8-.2,1.3-.4,2.6-.8,5.2-1.2,7.9-.2,1.6-.5,3.1-.7,4.7-.3,1.6-.6,3.1-.8,4.7-.2,1-.3,2.1-.5,3.1-.2,1.7-.5,3.4-.7,5.1-.2,1-.3,2.1-.5,3.1-.3,1.5-.6,3-.8,4.5-.2,1-.3,2.1-.5,3.1-.5,3.6-1,7.1-1.6,10.7-.4,2.7-1,5.3-1.4,8-.4,2.5-.7,5-1.1,7.6-.2,1.4-.5,2.8-.7,4.2-.2,1.1-.4,2.2-.6,3.3-.4,2.7-.8,5.4-1.3,8-.2,1.5-.5,3-.8,4.5-.2,1-.3,2.1-.5,3.1-.2,1.5-.4,3.1-.6,4.6-.2,1.4-.5,2.7-.7,4.1-.3,1.8-.7,3.7-.9,5.5-.2,1.3-.4,1.6-1.7,1.6-2.5,0-5.1.3-7.5,0-3.4-.5-6.7-.3-10.1-.5-2.9-.2-5.9-.3-8.8-.4-5.3-.2-10.7-.3-16-.7-2.9-.2-5.8-.1-8.6-.3-2,0-4-.3-6.1-.4-.5,0-1.1,0-1.6,0-4.3.1-8.6-.1-13-.5-2.5-.2-5,0-7.5-.2-3.9-.1-7.9,0-11.8-.6-3.5-.4-7-.3-10.5-.4-1.5,0-3-.3-4.4-.4-.6,0-1.2,0-1.8,0-6.1-.2-12.3-.3-18.4-.5-.8,0-1.7-.1-2.8-.2.6-1,1.1-1.8,1.6-2.7,3.7-6.1,7.5-12.3,11.3-18.4,2.9-4.8,5.9-9.5,8.8-14.3,2.9-4.7,5.8-9.5,8.7-14.2,2.5-4.1,5.1-8.2,7.6-12.2,2.9-4.7,5.8-9.5,8.7-14.2,3.6-5.9,7.2-11.8,10.9-17.7,2.8-4.6,5.7-9.3,8.6-13.9,2.7-4.4,5.4-8.7,8.1-13.1.2-.4.4-.9.6-1.3ZM241.6,92.7q.8-.5,2,0c-.8.8-1.3.7-2,0ZM229,116h-2.8c1.3-.9,2-.8,2.8,0ZM228.8,117c-.6,1.1-1.1,1.9-1.7,2.8-.1,0-.2,0-.3-.1v-2.7h2ZM177.6,115.3c.4,0,.7,0,1.1,0,14.9,0,29.8,0,44.7,0,.6,0,1.2,0,1.8.1,0,.2,0,.3,0,.5-.2,0-.3.2-.5.2-15.9,0-31.9,0-47.8,0,0-.1,0-.2,0-.4.2-.1.4-.3.7-.4ZM224.8,121.9c-.5,0-.9.2-1.3.2-3.6,0-7.2.1-10.7.1-10.6,0-21.3,0-31.9,0-1.9,0-1.9,0-1.9-1.9,0-.9,0-1.8,0-2.7,0-.1,0-.2,0-.5.3,0,.5-.2.7-.2,14.2,0,28.3,0,42.5,0,.3,0,.6,0,1,0q1.7,0,1.7,1.7c0,1.1,0,2.1,0,3.3ZM177.9,122.2c-.2-.2-.5-.3-.5-.5-.3-1,0-4.1.4-4.9.6,1.1.7,3.9.1,5.4ZM224.1,123.7c-.7,0-1.4,0-2.1,0-14.5,0-29,0-43.5,0-.6,0-1.3.3-1.8-.7h47.9c.2.6,0,.9-.6.8ZM173.8,207.8c2.2-3.6,4.5-7.3,6.7-10.9,2.5-4.1,5.1-8.3,7.6-12.4,3.7-6.1,7.5-12.2,11.2-18.3,4.1-6.6,8.1-13.3,12.2-19.9,3.7-6.1,7.5-12.2,11.2-18.3,3-4.9,6-9.8,9-14.7,3.4-5.5,6.7-10.9,10.1-16.4.6-1,1.1-1.9,1.7-2.9.3-.6.7-.6,1.2.1-.4.6-.8,1.3-1.2,2-4.7,7.6-9.4,15.3-14.1,22.9-4,6.5-7.9,13-11.9,19.5-3.8,6.1-7.6,12.2-11.4,18.4-4.1,6.7-8.2,13.5-12.3,20.2-3.5,5.7-7.1,11.4-10.6,17.2-3.8,6.2-7.7,12.4-11.5,18.7-.5.9-1,1.7-1.6,2.6-.3.5-.8.8-1.2,0,1.6-2.6,3.2-5.3,4.8-7.9ZM163.6,216.6c5.1.2,10.1.4,15.2.6,4.9.2,9.7.4,14.6.6,3,.1,6.1.2,9.1.3,5.1.2,10.2.4,15.4.7,2.9.1,5.8.2,8.6.4,3.4.1,6.8.3,10.2.5,1,0,2,0,3,0,4.7.2,9.5.4,14.2.6,4.1.2,8.2.3,12.3.5,4.1.2,8.1.4,12.2.5,5.2.2,10.5.4,15.7.6,2.8.1,5.5.2,8.3.3,1.4,0,2.9.2,4.3.3.3,0,.6.2.8.3,0,.1,0,.2,0,.3-.4,0-.7.2-1.1.2-2,0-3.9-.1-5.9-.2-2.5,0-4.9-.2-7.4-.3-2.5-.1-4.9-.2-7.4-.3-2.7-.1-5.4-.2-8.2-.3-4.2-.2-8.4-.3-12.6-.5-3.9-.2-7.9-.4-11.8-.6-4.7-.2-9.5-.5-14.2-.7-3.2-.1-6.5-.2-9.8-.3-4.7-.2-9.5-.4-14.2-.6-3.3-.1-6.6-.2-9.9-.3-4.3-.2-8.5-.3-12.8-.5-4-.2-8-.3-12-.5-4.1-.2-8.2-.3-12.3-.5-1.4,0-2.9-.2-4.3-.3-.3,0-.6-.2-1.1-.4.4-.2.7-.5.9-.5ZM176.6,220.6c.8,0,1.6,0,2.4,0,4.6.2,9.3.4,13.9.6,2.9.1,5.9.2,8.8.4,1.8,0,3.5.2,5.3.3,3.1.1,6.3.2,9.4.3,2.9.1,5.8.2,8.6.3,3.8.2,7.6.4,11.4.6,2.3.1,4.7.4,7,.5.7,0,8,.4,9.3.4,1.9,0,3.9,0,5.8,0,3.7.1,7.4.2,11,.6,2.5.3,4.9.4,7.3.4,2.5,0,4.9,0,7.3.5.5.1,1.1,0,1.6,0,6.5.2,13,0,19.5.5,3.8.3,7.6,0,11.4.5,4.5.5,9.1.1,13.6.5,2.1.2,4.2.3,6.2.3,1.5,0,3.1-.2,4.6,0,3.9.6,7.8.4,11.7.5,1.4,0,2.8.3,4.3.4v90.5c-.5,0-.9,0-1.3.1-.4,0-.9,0-1.3,0-117.3,0-234.6,0-351.8,0-7.2-.9-14.5,0-21.8-.6-4.6-.4-9.2-.2-13.7-.6-5.2-.5-10.4-.7-15.7-1-4.1-.3-8.3-.6-12.4-1-3.9-.4-7.8-.9-11.8-1.2-3.1-.2-6.1-.6-9.2-1.1-3.1-.5-6.3-.6-9.4-1.1-2.7-.4-5.4-.9-8-1.3-1.2-.2-2.3-.3-3.5-.5-3.4-.5-6.8-1-10.2-1.6-4-.7-8-1.6-12-2.4-4.2-.9-8.3-1.7-12.5-2.6-4.2-1-8.5-2-12.7-3-3.5-.9-7.1-1.9-10.6-2.9-5-1.5-10.1-3-15.1-4.6-6.3-2-12.6-4-18.8-6.2-5.3-1.9-10.6-3.9-15.8-6-5.7-2.3-11.4-4.5-16.9-7.1-8.2-3.7-16.3-7.6-24.4-11.5-3.7-1.8-7.3-3.7-11-5.6-1.1-.6-2.2-1.2-3.4-1.9-.4,0-.7-.2-1-.4-.3-.2-.7-.4-.9-.7-5.1-2.8-10.2-5.7-15.2-8.6-3-1.7-5.9-3.5-8.8-5.2-.9-.5-1.6-1.1-2-2.2-.5-1.5-1.5-2.8-2.3-4.2-2.1-3.5-4.2-7.1-6.3-10.6-1.9-3.2-3.7-6.5-5.6-9.7-2-3.5-4.2-6.9-6.2-10.4-1.4-2.3-2.6-4.7-3.9-7.1-.3-.4-.6-.8-1.1-1.5.7,0,1.1,0,1.6,0,2.7.2,5.3.5,8,.6,5.4.3,10.9.7,16.3,1,6.1.3,12.3.6,18.4,1,4.2.2,8.3.6,12.5.8,2.3.1,4.7,0,7.1.2,4.1.2,8.1.4,12.2.6,2.6.1,5.2.2,7.8.3.8,0,1.6.1,2.4.2,2.6.1,5.2.2,7.8.3,5.3.3,10.7.6,16,.9,2.5.1,4.9.1,7.4.2,1.2,0,2.3.3,3.5.3,2.3,0,4.6.1,6.9.2,3.4.1,6.7.3,10.1.5,4.2.2,8.3.6,12.5.8,2.3.1,4.7,0,7.1.2,1.5,0,3,.5,4.4.5,6.1,0,12.3.3,18.4.9,2.2.2,4.4,0,6.6.2,5,.3,10,.6,15,.9,4.1.2,8.2,0,12.3.5,3.6.4,7.1.3,10.7.6,2.6.2,5.1.2,7.7.3,1.1,0,2.2.2,3.3.3,1.3.1,2.5.2,3.8.3,4.8.2,9.6.4,14.4.7,5.3.3,10.6.5,15.8.8,4.7.3,9.4.7,14.1.9,3.7.2,7.4.3,11,.5,2.3.1,4.6.3,6.9.4,2.1.1,4.2,0,6.2.2,3.6.5,7.1.4,10.7.6,6.3.4,12.6.6,18.9,1,3.7.2,7.4.6,11.2.8,1.4,0,2.9,0,4.3,0,3.3.1,6.6.2,9.9.4,4.4.3,8.8.6,13.3.9.9,0,1.8,0,2.7,0,2.3.1,4.7.3,7,.4,1.9,0,3.8.1,5.8.2,4.3.2,8.5.4,12.8.6,5.5.3,11.1.5,16.6.8,4.7.3,9.5.6,14.2.9,1.1,0,2.1,0,3.2,0,5.5.4,11,.2,16.5.9,0,0,.1,0,.2,0,3.8.2,7.7.3,11.5.5,2.9.1,5.8.3,8.6.5,2,0,4,0,5.9.2,5,.3,9.9.5,14.9.8ZM-318.8,192.6c.2-.2.2-.3.3-.3,4.6.3,9.2.5,13.7.8,3.9.3,7.8.6,11.7.9,2.4.2,4.9.3,7.4.4,4.6.2,9.2.4,13.8.7,4.5.3,8.9.6,13.4.9,2.6.2,5.2.3,7.8.4,6,.3,12,.6,18.1,1,5.3.3,10.7.5,16,.8,4.4.3,8.7.6,13.1.9,2.1.1,4.2,0,6.2.2,3.2.1,6.4.3,9.6.5,3.2.2,6.4.4,9.6.6,2.4.1,4.8.2,7.2.3,3.6.2,7.2.4,10.8.6,2.9.2,5.7.3,8.6.5,3,.2,6.1.2,9.1.6,1.9.2,3.8.3,5.7.3.7,0,1.5,0,2.2,0,2.3.4,4.5.3,6.8.4,2,0,4,.3,6.1.4,6.1.4,12.2.8,18.4,1.1,5.2.3,10.5.5,15.7.8,3.5.2,7,.6,10.5.8,1.8.1,3.6,0,5.4,0,1.8,0,3.6.3,5.4.4-.6,0-1.2.3-1.8.2-3.7,0-7.5,0-11.2-.6-1.8-.3-3.7-.1-5.6-.2-2,0-3.9-.1-5.9-.3-1.1,0-2.2-.2-3.3-.3-1.4-.1-2.8-.4-4.1-.2-2.7.3-5.2-.4-7.8-.4-.4,0-.7,0-1.1,0-2.4.2-4.8,0-7.2-.4-.8-.1-1.6-.1-2.4-.1-1.4,0-2.9,0-4.3,0-2.1,0-4.1-.2-6.2-.4-1.4,0-2.9-.2-4.3-.3-1.3,0-2.7-.2-4-.2-1.8-.1-3.6-.2-5.4-.3-1.1,0-2.2-.1-3.3-.2-2.1-.1-4.1-.2-6.2-.3-2,0-4.1,0-6.1-.2-1.3,0-2.5-.3-3.8-.5-.3,0-.6-.1-.9-.1-2.6.3-5.2,0-7.8-.3-1.4-.2-2.8-.1-4.1-.2-2-.1-4-.4-6-.5-1.1,0-2.1,0-3.2,0-1.5,0-2.9,0-4.4-.3-1.4-.3-2.9-.2-4.3-.3-4.5-.2-9-.3-13.4-.5-4.3-.2-8.5-.6-12.8-.9,0,0-.1,0-.2,0-4.1-.2-8.2-.3-12.3-.5-1.5,0-3-.2-4.5-.3-3.7-.2-7.5-.5-11.2-.7-.6,0-1.3,0-1.9,0-4.1-.2-8.1-.3-12.2-.6-4.3-.3-8.5-.6-12.8-.9-2-.1-4-.1-5.9-.2-5.3-.3-10.6-.6-16-1-4-.3-8-.7-11.9-.9-3.3-.2-6.7-.3-10.1-.5-.7,0-1.4-.1-2.1-.2-.2,0-.3-.3-.5-.4ZM159.4,217.8c.3,0,.6,0,1,0,.3.7.2,1.1-.6,1.1-1.2,0-2.5,0-3.7,0-3.7-.2-7.3-.4-11-.6-6.7-.3-13.4-.6-20.2-1-5.2-.3-10.3-.7-15.5-.9-4.4-.2-8.9-.3-13.3-.5-4.2-.2-8.3-.5-12.5-.7-3-.2-6-.3-9-.4-5.8-.3-11.5-.5-17.3-.8-4.3-.2-8.6-.6-12.9-.9-1.3,0-2.6,0-3.8,0-2.8-.1-5.5-.4-8.3-.5-.2,0-.4,0-.6,0-3.5-.1-6.9-.2-10.4-.3-2.7-.1-5.3-.3-8-.5-.2,0-.3,0-.5,0-2.9-.2-5.9-.3-8.8-.5-2.7-.1-5.4-.3-8.1-.4-2,0-4,0-5.9-.2-2.6-.3-5.2,0-7.8-.4-3.2-.4-6.5-.4-9.7-.5-2,0-3.9-.4-5.9-.5-1.4,0-2.9,0-4.3,0-4.3-.2-8.6-.4-13-.7-3.3-.2-6.7-.4-10-.5-1.4,0-2.8-.1-4.1-.2-.5,0-1.2.1-1.4-.7,1.2,0,2.3,0,3.5,0,2.6.1,5.1.3,7.7.4,1.8.1,3.5.3,5.3.4,2.9.2,5.8.2,8.6.4,3.9.2,7.9.5,11.8.7,4.6.2,9.2.3,13.8.5,3.7.2,7.5.3,11.2.7,2.6.3,5.1.2,7.7.3,4.3.2,8.6.5,12.9.8,1.3,0,2.7,0,4,.2,2.3.1,4.6.3,6.9.4.2,0,.3,0,.5,0,3.9.2,7.9.3,11.8.5,2.6.1,5.2.3,7.8.5,1.8,0,3.5,0,5.3.2,5.6.3,11.2.6,16.8.9,5.4.3,10.8.5,16.2.7,6.9.3,13.9.6,20.8,1,4.4.2,8.7.4,13.1.6,4.9.2,9.7.4,14.6.7,3.8.2,7.6.5,11.3.7,4.7.2,9.4.4,14.1.6ZM-29.2,174.2c2.9.7,5.8,1.3,8.7,2,4,1,7.9,2,11.9,2.9,2.9.7,5.9,1.3,8.9,2,3.4.8,6.8,1.5,10.2,2.3,2.5.6,5,1.2,7.5,1.7,3.3.7,6.5,1.5,9.8,2.2,2.7.6,5.4,1.3,8.1,1.9,2.4.5,4.9,1,7.3,1.6,2.6.6,5.2,1.3,7.7,1.9,2.5.6,5.1,1.1,7.6,1.7,2.7.6,5.4,1.2,8.1,1.9,3.2.7,6.4,1.5,9.6,2.2,2.6.6,5.3,1.2,7.9,1.8,2.5.6,5.1,1.1,7.6,1.7,2.4.6,4.8,1.2,7.1,1.7,4.2,1,8.4,1.9,12.6,2.8,2.3.5,4.6,1.2,7,1.7,2.7.6,5.5,1.1,8.2,1.7,3.1.7,6.1,1.6,9.2,2.2,5.4,1.2,10.9,2.3,16.3,3.5h0s4.3,1.2,4.3,1.2c-.6.2-1.3.1-2,0-4.1-.2-8.1-.4-12.2-.5-4.3-.2-8.5-.4-12.8-.6,0,0-.1,0-.2,0-3.6-.2-7.3-.4-10.9-.6-3.1-.2-6.2-.3-9.3-.4-2.2-.1-4.4-.4-6.5-.5-4.6-.2-9.3-.3-13.9-.5-2.5-.1-4.9-.4-7.3-.5-2.8-.1-5.5-.2-8.3-.3-2.2,0-4.5-.1-6.7-.2-2.7-.1-5.3-.3-8-.4-1.1,0-2.2,0-3.4-.1-5.3-.3-10.6-.6-15.8-.9-1.6,0-3.2,0-4.8-.2-5.1-.3-10.2-.5-15.3-.8-3.8-.2-7.6-.4-11.4-.6-2.6-.1-5.2-.4-7.8-.5-4.7-.2-9.5-.3-14.2-.6-4.6-.2-9.3-.6-13.9-.9-2.6-.1-5.1-.2-7.7-.3-5.8-.3-11.6-.5-17.4-.8-.3,0-.7-.1-1.3-.3.6-.8,1.1-1.4,1.5-2,3.3-4.5,6.6-8.9,9.9-13.4,3.9-5.3,7.7-10.6,11.6-15.9.9-1.2,1.2-1.3,2.6-1ZM-237.8,172.6c4.2,0,8.4,0,12.6.1,2.3,0,4.7.2,7,.3,1.3,0,2.6-.2,3.8-.2,18.1,0,36.3,0,54.4.2,9.1,0,18.3.3,27.4.3,22.9,0,45.9,0,68.8.2,5.2,0,10.4.1,15.6.2,5.2,0,10.5,0,15.7.1,0,0,.2,0,.4.1,0,.2,0,.5-.2.7-2.6,3.5-5.1,7.1-7.7,10.6-3.6,4.8-7.2,9.7-10.8,14.5-1.5,2-2.9,3.9-4.3,6-.5.7-1,.8-1.7.7-4.7-.3-9.5-.4-14.2-.7-4.4-.3-8.7-.6-13.1-.9-2.1-.1-4.2-.1-6.2-.2-6.3-.3-12.6-.7-18.9-1.1-4.3-.2-8.5-.4-12.8-.7-5-.3-10-.6-15-.9-2.4-.1-4.8-.2-7.2-.4-3.1-.2-6.2-.3-9.3-.5-5.3-.3-10.6-.5-15.8-.8-4.3-.3-8.6-.7-12.9-.9-3.9-.2-7.8-.3-11.7-.5-3.3-.2-6.6-.4-9.9-.6-3.5-.2-6.9-.3-10.4-.5-4.3-.3-8.6-.6-12.9-.8-2.2-.1-4.5-.2-6.7-.3-5.1-.3-10.2-.5-15.4-.8-4.7-.3-9.5-.6-14.2-.9-2.5-.2-4.9-.2-7.4-.3-5.2-.3-10.3-.5-15.5-.8-4-.3-8-.6-12-.9-3.4-.2-6.7-.3-10.1-.5-1,0-1.9-.1-2.9-.2-2.2-.2-4.4-.3-6.7-.5,0,0-.1-.2-.2-.3,1.2-.7,2.3-1.4,3.5-2.1,4-2.3,8-4.5,12-6.8,3.6-2,7.1-4,10.7-6.1,2-1.2,4-2.4,6.1-3.5.6-.3,1.4-.5,2.1-.5,15.3,0,30.7,0,46,.2ZM-274.2,163.2c.3.6,1.1,1.2,1.7,1.2.7,0,1.7-1.1,1.7-1.7,0,0,0,0,0,0,1.5.5,2.6,2.1,2.7,3.9,0,2.1-1.9,4.2-3.8,4.1-2.1-.1-4.2-1.7-4-4-.1-1.5.7-2.7,1.8-3.5ZM-271.9,162.5c0,0,.1,0,.2,0,0,0,0,.1,0,.2-.1.4-.5.7-.7,1-.7-.1-1.1-.3-1.2-.8.5-.2,1.1-.3,1.6-.3ZM-273.5,162.2c0-.3.3-.6.7-.6.2,0,.5.1.7.3-.5,0-1,.1-1.5.3ZM227.1,356.6q-.6,2.2-2.8,2.2c-34.3,0-68.7,0-103,0-15.8,1-31.6.3-47.5.4-15.8.1-31.7,0-47.5,0s-31.7,0-47.5,0c-19.4,0-38.8,0-58.3,0-16.3,0-32.5,0-48.8,0-5.1,0-10.3,0-15.4-.5-1.7-.2-3.4,0-5.1,0-1.1,0-2.1-.2-3.2-.4-.3,0-.5,0-.8-.1-2.3-.2-4.7-.2-7-.5-1.8-.2-3.5-.6-5.3-.9-1-.2-2-.3-3-.5-1.9-.3-3.8-.6-5.6-1.1-2.7-.6-5.4-1.3-8-2.1-2.8-.9-5.5-1.9-8.3-2.9-4.8-1.7-9.3-3.9-13.8-6.4-5.3-2.9-10.3-6.2-15.2-9.8-4.5-3.4-8.9-6.9-13-10.9-2.2-2.2-4.6-4.3-6.8-6.5-3.8-3.9-7.5-7.9-10.9-12.1-2.5-3.1-5.1-6-7.5-9.2-3-4-6-8-8.9-12.1-2.4-3.4-4.8-6.8-7.1-10.3-3.3-5-6.5-10.2-9.7-15.3-.7-1-1.2-2.1-1.9-3.2-.6-1-1.4-1.8-2.4-2.5-6.1-4.2-12.2-8.5-18.2-12.8-1.6-1.1-3.2-2.1-4.7-3.3-1-.8-2-1.8-2.7-2.9-2.3-3.5-4.5-7.1-6.6-10.7-1.2-2.1-1.8-4.3-1.8-6.8,0-4.6-.2-9.3-.3-13.9,0-3.4-.1-6.7-.3-10.1,0-1.2.4-2.2.8-3.2.1-.3.6-.6.9-.8,3.3-1.9,6.6-3.8,10-5.8,5.7-3.3,11.3-6.6,17-9.8,5.2-3,10.4-5.9,15.5-8.9,1.3-.7,2.6-1.5,3.9-2.3.4-.2.8-.4,1.2-.4,2,.2,3.7.9,4.9,2.6.5.7.9,1.5.8,2.5-.1,1.8,0,3.7-.1,5.6h-2.9c0,0-.1-.2-.2-.3.5-.5,1-.9,1.4-1.4.4-.5.6-1.1.7-1.7.1-.7.1-1.4,0-2,0-.6-.2-1.3-.5-1.8-.4-.6-.9-1.1-1.5-1.5-.4-.3-1-.5-1.5-.6-.4-.6-1.1-1.1-1.6-1.1-.6,0-1.6,1.1-1.6,1.8-.4.3-.8.6-1.2,1-1,1.1-1.2,2.5-1,4,.2,1.6,1.5,2.3,2.4,3.4-.1.1-.2.3-.2.3-2.2,0-4.5.2-6.7,0-1.8-.2-3.4.2-4.9,1-4.5,2.5-9,5.2-13.4,7.7-3,1.7-6,3.3-8.9,5-2.9,1.6-5.7,3.3-8.6,5-.5.3-1,.6-1.5.8q-1.5.8-1,2.3c-1.1,1.1-1.1,1.1-.3,2.5,2.4,4.1,4.8,8.2,7.2,12.3,1.9,3.3,3.8,6.6,5.7,9.8,2.7,4.6,5.4,9.2,8.1,13.8.5.8,1,1.7,1.4,2.5.9,1.5,1.8,3,2.8,4.8-.5-.1-.8-.2-1.1-.3-.9-.5-1.7-1.1-2.6-1.6-1-.6-1.3-.5-1.7.2-.5.9-.4,1.3.6,1.9,1.8,1.1,3.5,2.2,5.3,3.3,4.2,2.5,8.5,5,12.7,7.5.3.1.5.3.8.5,0,0,0,0,0,0,.1,0,.3.1.4.2.2.1.4.2.6.3.7.3,1.3.7,2,1,.2,0,.2.2.2.4,1.9,1,3.7,2.1,5.6,3.1,0,0,.1,0,.2,0,1.1.7,2.2,1.2,3.3,1.8,1.1.5,2.2,1.2,3.3,1.7,0,0,.1,0,.1.1.3.1.6.3.8.4.7.3,1.3.7,1.9,1,1.3.6,2.5,1.3,3.7,2.1,0,0,0,0,0,0,.7.3,1.4.7,2.1,1.1.9.5,1.8.9,2.7,1.4.9.5,1.9,1,2.9,1.4.2.1.5.2.7.3.5.2,1,.4,1.4.7.2,0,.4.2.6.3.5.2.9.5,1.4.7.1,0,.2,0,.3.1.4.2.8.4,1.2.5.4.2.8.3,1.2.6.4.3.8.5,1.2.7.4.2.9.4,1.3.5.3.1.6.3.9.4,0,0,.2,0,.3,0,.2.1.3.2.5.3,0,0,0,0,0,0,0,0,0,0,0,0,0,0,0,0,.1,0,0,0,.2,0,.3.1.4.1.8.3,1.1.5,0,0,.1.2.2.2.4.2.8.4,1.2.6,0,0,.2,0,.2,0,.7.3,1.4.5,2,.9.3.2.6.4.9.5.3.2.6.3.9.4,0,0,.2,0,.2.2.4.2.9.4,1.3.6,0,0,0,0,.1,0,.6.2,1.2.4,1.8.8.4.2.9.4,1.3.6.6.3,1.4.4,2,.8,0,0,0,0,0,0,.6.3,1.2.5,1.7.8.3,0,.6.2.9.4,0,0,.2,0,.2,0,0,0,.2,0,.3,0,0,0,0,0,0,0,0,0,0,0,0,0,0,0,.1,0,.2,0,.1,0,.3,0,.4.1.3,0,.6.2.9.4,0,0,0,0,0,0,0,0,.1,0,.2.1.6.3,1.2.6,1.8.9,0,0,0,0,0,0,.1,0,.3.1.4.2.1,0,.2,0,.3.1.4,0,.8,0,1.2.4.4.1.8.2,1.1.4,0,0,.1,0,.1.1.2,0,.3,0,.5,0,2.1.8,4.2,1.8,6.3,2.6.6.3,1.3.5,2,.7,0,0,0,0,0,0,0,0,.2,0,.3,0,0,0,0,0,0,0,0,0,0,0,.1,0,0,0,.1,0,.2,0,.1,0,.3,0,.4.1.3,0,.5.2.8.3,0,0,0,0,0,0,.4.2.8.5,1.3.6,0,0,0,0,0,0,.2,0,.3.1.5.1.2,0,.4,0,.7.1.1,0,.2.1.2.2.5,0,1,.3,1.6.6.6.2,1.2.3,1.8.5.1,0,.2.1.2.2,1.6.5,3.1,1.1,4.7,1.6,0,0,.1,0,.2,0,.4.1.7.3,1.1.4.2,0,.4.1.5.2,0,0,0,0,0,0,0,0,0,0,0,0,0,0,0,0,0,0,0,0,.2,0,.2,0,0,0,.2,0,.2.2.5,0,.9.2,1.4.3,4.5,1.5,8.9,3,13.4,4.4,4.1,1.3,8.3,2.7,12.5,3.9,3.6,1.1,7.3,2.1,11,3,2.9.8,5.9,1.4,8.9,2.1,2.5.6,5,1.3,7.5,1.9,2.6.6,5.3,1,7.9,1.6,1.9.4,3.8.9,5.8,1.3,2.3.5,4.7.9,7.1,1.3.9.2,1.9.3,2.8.5,2.3.4,4.6.9,6.9,1.3,2.7.5,5.4.8,8,1.2,1.8.3,3.6.5,5.4.8,1.5.2,3,.4,4.4.6,2.3.3,4.5.7,6.8.9,2,.2,4,.4,6,.6,2,.2,4,.4,6,.6,3.8.4,7.6.7,11.5,1.1,4.3.4,8.5.7,12.8,1,5,.3,9.9.7,14.9.9,3.4.2,6.7.2,10.1.4,4.1.2,8.1.4,12.2.5.5,0,1.1,0,1.6,0,7.2,0,14.3-.2,21.5,0,10.2.4,20.4.1,30.6.3,3.2,0,6.3.1,9.5.1,17.8,0,35.6,0,53.4,0,10.9,0,21.8,0,32.7,0,71.2,0,142.3,0,213.5,0,.7,0,1.4,0,2.1,0,.3,0,.6.3.8.7-.3,0-.6.2-.8.2-.5,0-1,0-1.4,0-112.1,0-224.3,0-336.4,0-4.1,0-8.2.3-12.2,0-6.1-.6-12.2,0-18.3-.5-4.8-.4-9.5-.2-14.2-.5-5.2-.4-10.4-.6-15.7-.9-3.1-.2-6.3-.3-9.4-.5-2.6-.2-5.2-.5-7.8-.7-3.2-.3-6.5-.5-9.7-.9-4.1-.4-8.2-.8-12.2-1.3-3.4-.4-6.9-1-10.3-1.5-2.7-.4-5.4-.7-8.1-1.1-.9-.1-1.8-.3-2.7-.5-2.6-.4-5.2-.9-7.9-1.4-1.3-.2-2.5-.5-3.8-.7-4.9-1-9.8-1.9-14.7-2.9-4.9-1-9.7-2.1-14.6-3.2-2.4-.6-4.8-1.3-7.2-2-3.1-.8-6.2-1.6-9.4-2.4-4.1-1.1-8.3-2.3-12.4-3.5-4.3-1.3-8.6-2.7-12.9-4.1-2.4-.8-4.7-1.6-7-2.5,0,0,0,0,0,0,0,0,0,0,0,0-.2,0-.4-.1-.5-.2,0,0-.2,0-.2-.1,0,0-.1,0,0,0,0,0,0,0-.1,0-.4-.1-.7-.3-1.1-.4,0,0-.1,0-.2-.1-.4-.1-1-.3-1.9-.7-1.1-.4-2.3-.8-3.6-1.2,0,0,0,0,0,0-.6-.2-1.3-.3-1.9-.5-.1,0-.2-.2-.2-.3-.3-.1-.7-.3-1-.4-.2,0-.4,0-.6-.1-.2,0-.4-.1-.6-.2-.4,0-.8-.2-1-.5,0,0-.1,0-.2-.1,0,0,0,0,0,0,0,0-.1,0-.2,0,0,0,0,0,0,0,0,0,0,0,0,0,0,0,0,0,0,0-.1,0-.3,0-.4-.1-.3,0-.6-.2-.8-.3,0,0,0,0,0,0-3-1.2-5.9-2.3-8.8-3.5,0,0-.2,0-.3,0-.8-.4-1.8-.5-2.6-.9-.8-.4-1.6-.8-2.4-1.3-.2,0-.4-.2-.6-.3-.1,0-.2,0-.4,0-.7-.3-1.4-.5-2.1-.9-.6-.3-1.3-.5-1.9-.9,0,0,0,0,0,0-.5-.3-1.2-.5-1.7-.7-.3-.1-.6-.3-.8-.4,0,0-.1,0-.2,0-.1,0-.2-.1-.3-.2,0,0,0,0,0,0,0,0,0,0,0,0-.2,0-.4-.2-.6-.2,0,0-.2,0-.2-.2-.3-.1-.5-.2-.8-.3,0,0-.2,0-.2-.2-.4-.2-.9-.4-1.3-.6,0,0,0,0,0,0-.3-.1-.6-.2-1-.4-.3-.2-.6-.4-.9-.5-.5-.3-1.1-.5-1.7-.7-.7-.2-1.6-.6-3-1.4,0,0,0,0,0,0-.3-.1-.7-.3-1-.4,0,0,0,0,0,0-.4,0-.8-.3-1.2-.5-.4-.2-.8-.3-1.2-.5-.8-.4-1.5-1-2.4-1.3-.4-.2-.9-.4-1.3-.6-.4-.2-.8-.3-1.2-.5-.8-.5-1.6-1-2.5-1.3-.1,0-.2-.1-.2-.2-2.8-1.3-5.8-2.9-8.1-4.1,0,0-.1,0-.2,0-.2-.1-.4-.3-.7-.4-.5-.3-.9-.5-1.3-.7-.6-.3-1.2-.6-1.8-.9-.7-.3-1.3-.7-2-1.1-.7-.3-1.3-.6-2-.9,0,0,0,0,0,0-.2-.1-.5-.3-.7-.4,0-.1-.2-.3-.3-.5v.3c-.4-.2-.7-.4-1.1-.5-1.2-.6-2.4-1.1-3.5-1.8,0,0-.1-.1-.1-.2,0,0-.1,0-.2-.1-2-1.1-4-2.2-5.9-3.3-.5-.2-1.1-.5-1.6-.8-.3-.2-.7-.3-1-.5-.3-.2-.6-.4-1-.6-.1,0-.2-.2-.2-.3-.1,0-.2-.1-.4-.2-1.5-.8-2.9-1.6-4.8-2.6.2.8.3,1.2.5,1.6,4.1,6.8,8.2,13.7,12.5,20.5,3.2,5,6.6,9.8,10,14.6,3.1,4.4,6.2,8.8,9.6,13,4,5,8.3,9.9,12.6,14.7,2.4,2.7,4.8,5.3,7.4,7.7,3.2,3.1,6.5,6,9.9,8.9,5.9,5.1,12.3,9.6,19,13.6,5.2,3.1,10.6,5.7,16.3,7.8,3.3,1.2,6.7,2.3,10.1,3.3,3.1.9,6.3,1.8,9.5,2.5,2.4.5,4.8.8,7.2,1.2,2,.3,4.1.6,6.1.9.1,0,.2,0,.3,0,3.5.2,6.9.4,10.4.6,19.9.8,39.8.2,59.7.4,3.5,0,7-.3,10.6-.4.6,0,1.3,0,1.9,0,14.7,0,29.4.3,44.1,0,15.9-.4,31.8,0,47.6-.2,4.5,0,9.1,0,13.6,0,.2,0,.3,0,.5,0,2.6-.7,5.2-.6,7.8-.6,15.5,0,31,0,46.5,0,9.8-.9,19.6-.3,29.3-.4,9.7-.1,19.5.4,29.2-.1,9.3-.5,18.5-.3,27.7-.4,9.2-.2,18.4.1,27.6-.1,8.3-.2,16.6-.3,24.8-.3.6,0,1.2,0,2,0-.1.4-.2.7-.3,1ZM356.1,330.2c-2.3.2-4.6.4-6.9.6-2.6.2-5.2.4-7.8.6-1.6.1-3.2.2-4.8.4-2.8.3-5.5.5-8.3.8-.2,0-.4,0-.6.1-2.5.2-5,.3-7.5.6-3.7.3-7.4.7-11.1,1-4.7.4-9.4.7-14,1.1-1.8.1-3.6.3-5.4.5-2.9.3-5.7.6-8.6.8-2.8.2-5.6.4-8.5.7-2.6.2-5.2.5-7.8.8-2.7.3-5.3.5-8,.7-3.6.3-7.1.6-10.7.9-2.9.2-5.8.5-8.8.7-.9,0-1.9.3-2.8.4-.5,1.9-.9,3.7-1.3,5.4-.6,2.2-1.2,4.4-1.8,6.6,0,.3-.1.6-.2.9-.3.8-.8,1.1-1.7,1.1-3.7,0-7.5.1-11.2.2-4.1,0-8.2.1-12.3.1-11.5,0-23.1.1-34.6.2-5.2,0-10.5,0-15.7.1-14.3.6-28.5.2-42.8.3-4.8,0-9.6.1-14.4.2-2.8,0-5.6,0-8.3.2-4.2.4-8.3.2-12.5.2-6.3,0-12.6,0-18.9,0-6,0-12,0-18,.1-2.9,0-5.7.4-8.6.4-2.5,0-4.9-.1-7.4-.1-9,0-18,0-26.9,0-4.9,0-9.7,0-14.6.1-2.8,0-5.6,0-8.3.1-16.2.7-32.4,0-48.6.3-7,.1-14.1.4-21.1.5-9.4,0-18.8,0-28.2,0-4.1,0-8.2,0-12.3,0-3.5,0-6.9,0-10.4-.2-3.1-.2-6.3-.6-9.4-.9-1.6-.2-3.2-.3-4.8-.5-2.5-.3-5.1-.6-7.6-1.1-3.9-.8-7.7-1.7-11.5-2.8-3.8-1.1-7.5-2.4-11.1-3.8-10.3-4.1-19.7-9.7-28.5-16.4-7.1-5.5-13.8-11.5-20-18-2.2-2.3-4.3-4.8-6.3-7.2-2.8-3.2-5.6-6.4-8.2-9.8-3.8-4.9-7.5-9.8-11.1-14.9-3.8-5.4-7.4-11-11-16.6-2.6-4.1-5.2-8.3-7.7-12.5-.8-1.3-1.5-2.6-2.1-4.2.3,0,.5.2.8.3,5.7,3.2,11.4,6.4,17.2,9.5h0c.2.2.3.2.5.3,0,0,0,0,0,0,.8.4,1.6.9,2.4,1.3,7.1,3.7,14.2,7.4,21.4,10.8,6.9,3.3,13.9,6.3,20.9,9.3,4,1.7,7.9,3.4,12,4.9,4.4,1.7,8.7,3.4,13.1,5,7.7,2.7,15.4,5.3,23.1,7.8,4.1,1.3,8.4,2.4,12.6,3.6,2.8.8,5.6,1.7,8.4,2.4,3.5.9,7.1,1.7,10.7,2.6,2.6.6,5.2,1.3,7.8,1.9,1.8.4,3.6.8,5.5,1.2,2.2.5,4.4,1,6.6,1.4,2.1.4,4.3.8,6.4,1.2,1,.2,2.1.4,3.1.6,3.9.7,7.8,1.3,11.7,1.9,2.9.5,5.9,1,8.8,1.4,2.9.4,5.9.7,8.9,1.1,3.6.4,7.2.9,10.8,1.3,2.6.3,5.2.5,7.8.7,1.8.2,3.5.3,5.3.5,2.9.3,5.7.5,8.6.8,2.8.2,5.6.5,8.5.6,3.9.2,7.8.3,11.7.6,4.1.3,8.1.5,12.2.4,1.2,0,2.3.1,3.5.2,2.5.1,4.9.3,7.4.3,3.2,0,6.4,0,9.6,0,.5,0,1.1,0,1.6.1,1.9.6,3.9.5,5.9.5,115.2,0,230.4,0,345.6,0,.8,0,1.7,0,2.6,0,0,1.9,0,3.6,0,5.3,0,.9-.4,1.2-1.2,1.3Z"/>
            </g>
          </g>
        </g>
        <g id="Layer_2">
          <path class="cls-3" d="M281.2,444.8c18.7-2.4,37.4-7.8,55.4-16.3s33.9-19.7,47.6-32.7"/>
          <g>
            <path class="cls-1" d="M286.9,439.1l2.3,12.8-1.4.2-2.3-12.8,1.4-.2Z"/>
            <path class="cls-1" d="M291.3,441l1.9,9.2-.6.2-1.9-9.2h.6v-.2Z"/>
            <path class="cls-1" d="M295.5,440.2l2.2,9.1-.6.2-2.2-9.1.6-.2Z"/>
            <path class="cls-1" d="M299.6,439.2l2.4,9-.6.2-2.4-9,.6-.2Z"/>
            <path class="cls-1" d="M303.7,438.2l2.7,8.9-.6.2-2.7-8.9.6-.2Z"/>
            <path class="cls-1" d="M308.1,434.1l4.1,12.3-1.4.4-4.1-12.3,1.4-.4Z"/>
            <path class="cls-1" d="M312.8,435.6l3.2,8.8-.6.2-3.2-8.8.6-.2Z"/>
            <path class="cls-1" d="M316.7,434.1l3.5,8.8-.6.2-3.5-8.8.6-.2Z"/>
            <path class="cls-1" d="M320.7,432.7l3.7,8.6-.6.2-3.7-8.6.6-.2Z"/>
            <path class="cls-1" d="M324.6,431.1l3.9,8.5-.6.2-3.9-8.5.6-.2Z"/>
            <path class="cls-1" d="M328.3,426.5l5.8,11.7-1.3.6-5.8-11.7,1.3-.6Z"/>
            <path class="cls-1" d="M333.2,427.3l4.5,8.3-.6.3-4.5-8.3.6-.3Z"/>
            <path class="cls-1" d="M336.9,425.4l4.7,8.2-.6.3-4.7-8.2.6-.3Z"/>
            <path class="cls-1" d="M340.6,423.4l4.9,8-.6.3-4.9-8,.6-.3Z"/>
            <path class="cls-1" d="M344.3,421.4l5.1,7.9-.5.3-5.1-7.9.5-.3Z"/>
            <path class="cls-1" d="M347.3,416.4l7.5,10.8-1.2.7-7.5-10.8,1.2-.7Z"/>
            <path class="cls-1" d="M373.7,394.6l10,12.4-1.3,1.1-10-12.4,1.3-1.1Z"/>
          </g>
        </g>
      </g>
    </g>
  </g>
</svg>