<svg width="24" height="24" viewBox="0 0 24 24" fill="none" xmlns="http://www.w3.org/2000/svg">
<mask id="path-1-inside-1_317_43987" fill="white">
<path d="M20.3389 16.6455C21.1423 17.147 21.6787 18.0368 21.6787 19.0537C21.6785 20.6216 20.4068 21.8926 18.8389 21.8926C17.2711 21.8924 16.0002 20.6215 16 19.0537C16 18.0371 16.5357 17.147 17.3389 16.6455V12H20.3389V16.6455Z"/>
</mask>
<path d="M20.3389 16.6455C21.1423 17.147 21.6787 18.0368 21.6787 19.0537C21.6785 20.6216 20.4068 21.8926 18.8389 21.8926C17.2711 21.8924 16.0002 20.6215 16 19.0537C16 18.0371 16.5357 17.147 17.3389 16.6455V12H20.3389V16.6455Z" fill="white"/>
<path d="M20.3389 16.6455H19.3389V17.2002L19.8094 17.4938L20.3389 16.6455ZM21.6787 19.0537L22.6787 19.0539V19.0537H21.6787ZM18.8389 21.8926L18.8387 22.8926H18.8389V21.8926ZM16 19.0537H15V19.0539L16 19.0537ZM17.3389 16.6455L17.8685 17.4937L18.3389 17.2V16.6455H17.3389ZM17.3389 12V11H16.3389V12H17.3389ZM20.3389 12H21.3389V11H20.3389V12ZM20.3389 16.6455L19.8094 17.4938C20.3343 17.8215 20.6787 18.3982 20.6787 19.0537H21.6787H22.6787C22.6787 17.6755 21.9504 16.4725 20.8683 15.7972L20.3389 16.6455ZM21.6787 19.0537L20.6787 19.0536C20.6786 20.069 19.8548 20.8926 18.8389 20.8926V21.8926V22.8926C20.9588 22.8926 22.6784 21.1742 22.6787 19.0539L21.6787 19.0537ZM18.8389 21.8926L18.839 20.8926C17.8234 20.8924 17.0001 20.0692 17 19.0536L16 19.0537L15 19.0539C15.0003 21.1738 16.7188 22.8923 18.8387 22.8926L18.8389 21.8926ZM16 19.0537H17C17 18.3979 17.3442 17.8211 17.8685 17.4937L17.3389 16.6455L16.8092 15.7973C15.7273 16.473 15 17.6762 15 19.0537H16ZM17.3389 16.6455H18.3389V12H17.3389H16.3389V16.6455H17.3389ZM17.3389 12V13H20.3389V12V11H17.3389V12ZM20.3389 12H19.3389V16.6455H20.3389H21.3389V12H20.3389Z" fill="white" mask="url(#path-1-inside-1_317_43987)"/>
<mask id="path-3-inside-2_317_43987" fill="white">
<path d="M18.8389 2C19.6673 2 20.3389 2.67157 20.3389 3.5V16.6455C21.1423 17.147 21.6787 18.0368 21.6787 19.0537C21.6785 20.6216 20.4068 21.8926 18.8389 21.8926C17.2711 21.8924 16.0002 20.6215 16 19.0537C16 18.0371 16.5357 17.147 17.3389 16.6455V3.5C17.3389 2.67172 18.0106 2.00023 18.8389 2Z"/>
</mask>
<path d="M18.8389 2V1L18.8386 1L18.8389 2ZM20.3389 16.6455H19.3389V17.2002L19.8094 17.4938L20.3389 16.6455ZM21.6787 19.0537L22.6787 19.0539V19.0537H21.6787ZM18.8389 21.8926L18.8387 22.8926H18.8389V21.8926ZM16 19.0537H15V19.0539L16 19.0537ZM17.3389 16.6455L17.8685 17.4937L18.3389 17.2V16.6455H17.3389ZM18.8389 2V3C19.115 3 19.3389 3.22386 19.3389 3.5H20.3389H21.3389C21.3389 2.11929 20.2196 1 18.8389 1V2ZM20.3389 3.5H19.3389V16.6455H20.3389H21.3389V3.5H20.3389ZM20.3389 16.6455L19.8094 17.4938C20.3343 17.8215 20.6787 18.3982 20.6787 19.0537H21.6787H22.6787C22.6787 17.6755 21.9504 16.4725 20.8683 15.7972L20.3389 16.6455ZM21.6787 19.0537L20.6787 19.0536C20.6786 20.069 19.8548 20.8926 18.8389 20.8926V21.8926V22.8926C20.9588 22.8926 22.6784 21.1742 22.6787 19.0539L21.6787 19.0537ZM18.8389 21.8926L18.839 20.8926C17.8234 20.8924 17.0001 20.0692 17 19.0536L16 19.0537L15 19.0539C15.0003 21.1738 16.7188 22.8923 18.8387 22.8926L18.8389 21.8926ZM16 19.0537H17C17 18.3979 17.3442 17.8211 17.8685 17.4937L17.3389 16.6455L16.8092 15.7973C15.7273 16.4729 15 17.6762 15 19.0537H16ZM17.3389 16.6455H18.3389V3.5H17.3389H16.3389V16.6455H17.3389ZM17.3389 3.5H18.3389C18.3389 3.22428 18.5627 3.00008 18.8391 3L18.8389 2L18.8386 1C17.4586 1.00038 16.3389 2.11915 16.3389 3.5H17.3389Z" fill="white" mask="url(#path-3-inside-2_317_43987)"/>
<path d="M12.7812 7.73047C14.7259 8.97587 16.0156 11.1541 16.0156 13.6348C16.0156 17.5051 12.8781 20.6426 9.00781 20.6426C5.30833 20.6426 2.28077 17.7758 2.02051 14.1426H3.02344C3.28134 17.2229 5.86089 19.6426 9.00781 19.6426C12.3258 19.6426 15.0156 16.9528 15.0156 13.6348C15.0156 11.5096 13.9123 9.64185 12.2422 8.57227L11.7812 8.27734V4.39258H6.23438V8.27734L5.77344 8.57227C5.12714 8.98618 4.56753 9.52093 4.12207 10.1426H2.93359C3.49669 9.16605 4.28708 8.33714 5.23438 7.73047V3.39258H12.7812V7.73047Z" fill="white"/>
<path d="M13 12.1426L8.5 7.64258V10.6426H2V13.6426H8.5V16.6426L13 12.1426Z" stroke="white" stroke-linecap="round" stroke-linejoin="round"/>
</svg>
