<svg width="24" height="24" viewBox="0 0 24 24" fill="none" xmlns="http://www.w3.org/2000/svg">
<path d="M15.7812 8.33789C17.7259 9.58329 19.0156 11.7616 19.0156 14.2422C19.0156 18.1125 15.8781 21.25 12.0078 21.25C8.30833 21.25 5.28077 18.3832 5.02051 14.75H6.02344C6.28134 17.8303 8.86089 20.25 12.0078 20.25C15.3258 20.25 18.0156 17.5602 18.0156 14.2422C18.0156 12.1171 16.9123 10.2493 15.2422 9.17969L14.7812 8.88477V5H9.23438V8.88477L8.77344 9.17969C8.12714 9.5936 7.56753 10.1284 7.12207 10.75H5.93359C6.49669 9.77347 7.28708 8.94457 8.23438 8.33789V4H15.7812V8.33789Z" fill="white"/>
<path d="M16 12.75L11.5 8.25V11.25H5V14.25H11.5V17.25L16 12.75Z" stroke="white" stroke-linecap="round" stroke-linejoin="round"/>
<path d="M4.82883 16.5971L4.03707 15.7614C3.77725 15.4871 3.31579 15.671 3.31579 16.0488C3.31579 16.2796 3.12869 16.4667 2.89789 16.4667H1.73333C1.32832 16.4667 1 16.795 1 17.2C1 17.605 1.32832 17.9333 1.73333 17.9333H2.89789C3.12869 17.9333 3.31579 18.1204 3.31579 18.3512C3.31579 18.729 3.77725 18.9129 4.03707 18.6386L4.82883 17.8029C5.14915 17.4648 5.14915 16.9352 4.82883 16.5971Z" fill="white"/>
<path d="M19.1712 16.5971L19.9629 15.7614C20.2227 15.4871 20.6842 15.671 20.6842 16.0488C20.6842 16.2796 20.8713 16.4667 21.1021 16.4667H22.2667C22.6717 16.4667 23 16.795 23 17.2C23 17.605 22.6717 17.9333 22.2667 17.9333H21.1021C20.8713 17.9333 20.6842 18.1204 20.6842 18.3512C20.6842 18.729 20.2227 18.9129 19.9629 18.6386L19.1712 17.8029C18.8509 17.4648 18.8509 16.9352 19.1712 16.5971Z" fill="white"/>
</svg>
