<svg width="24" height="24" viewBox="0 0 24 24" fill="none" xmlns="http://www.w3.org/2000/svg">
<g clip-path="url(#clip0_412_8653)">
<mask id="mask0_412_8653" style="mask-type:luminance" maskUnits="userSpaceOnUse" x="0" y="0" width="24" height="24">
<path d="M24 0H0V24H24V0Z" fill="white"/>
</mask>
<g mask="url(#mask0_412_8653)">
<path d="M20.7099 9.857V10.9263H13.4445V9.857H20.7099ZM13.6843 3.34113V17.8919H12.545V3.34113H13.6843ZM21.6593 3.34113V17.8919H20.51V3.34113H21.6593Z" fill="white"/>
<path d="M3.45061 9.15746V22.0493H2.34131V7.07878H3.37066L3.45061 9.15746ZM9.71664 11.9857V12.995C9.71664 13.8678 9.64002 14.624 9.48678 15.2636C9.33355 15.9032 9.10702 16.4329 8.80721 16.8526C8.5074 17.2723 8.1443 17.5855 7.7179 17.792C7.29151 17.9985 6.80182 18.1018 6.24883 18.1018C5.70918 18.1018 5.23281 18.0085 4.81974 17.822C4.41333 17.6354 4.06355 17.3723 3.7704 17.0325C3.47726 16.686 3.24407 16.283 3.07085 15.8232C2.89762 15.3569 2.7777 14.8439 2.71107 14.2842V10.9563C2.79102 10.3434 2.91761 9.78706 3.09083 9.28738C3.27072 8.7877 3.50391 8.35797 3.79039 7.9982C4.08354 7.63843 4.42999 7.36193 4.82973 7.16872C5.23614 6.97551 5.70251 6.87891 6.22885 6.87891C6.78183 6.87891 7.27485 6.97551 7.70791 7.16872C8.14097 7.36193 8.5074 7.66174 8.80721 8.06815C9.11369 8.47456 9.34021 9.00423 9.48678 9.65715C9.64002 10.3034 9.71664 11.0796 9.71664 11.9857ZM8.61733 12.995V11.9857C8.61733 11.2861 8.56403 10.6865 8.45743 10.1868C8.35084 9.68047 8.18761 9.26073 7.96774 8.92761C7.75455 8.59449 7.47806 8.34798 7.13827 8.18808C6.80515 8.02152 6.41206 7.93824 5.95902 7.93824C5.49265 7.93824 5.09623 8.02485 4.76977 8.19807C4.44331 8.36463 4.17015 8.58782 3.95029 8.86765C3.73043 9.14747 3.55721 9.45394 3.43062 9.78706C3.30403 10.1135 3.21076 10.4367 3.1508 10.7565V14.5441C3.2574 14.9904 3.42396 15.4068 3.65048 15.7933C3.877 16.173 4.18014 16.4795 4.5599 16.7127C4.93966 16.9459 5.4127 17.0625 5.979 17.0625C6.43205 17.0625 6.8218 16.9825 7.14826 16.8226C7.48139 16.656 7.75455 16.4062 7.96774 16.0731C8.18761 15.7333 8.35084 15.3102 8.45743 14.8039C8.56403 14.2975 8.61733 13.6946 8.61733 12.995Z" fill="white"/>
<path d="M13.6839 3C13.8723 3 14.025 3.15272 14.025 3.34112V9.51587H20.1684V3.34112C20.1684 3.15272 20.3212 3 20.5096 3H21.6588C21.8472 3 22 3.15272 22 3.34112V17.8919C22 18.0803 21.8472 18.233 21.6588 18.233H20.5096C20.3212 18.233 20.1684 18.0803 20.1684 17.8919V11.2674H14.025V17.8919C14.025 18.0803 13.8723 18.233 13.6839 18.233H12.5446C12.3562 18.233 12.2035 18.0803 12.2035 17.8919V3.34112C12.2035 3.15272 12.3562 3 12.5446 3H13.6839ZM20.8507 9.54645C20.9686 9.60016 21.0506 9.71898 21.0506 9.85699V10.9263C21.0506 11.0643 20.9686 11.1831 20.8507 11.2368V17.5508H21.3177V3.68223H20.8507V9.54645ZM12.8857 17.5508H13.3428V11.2521C13.2038 11.209 13.1029 11.0794 13.1029 10.9263V9.85699C13.1029 9.70386 13.2038 9.57427 13.3428 9.53113V3.68223H12.8857V17.5508ZM14.025 10.5852H20.1684V10.1981H14.025V10.5852Z" fill="white"/>
<path d="M8.27602 11.9857C8.27602 11.3019 8.22382 10.7275 8.12365 10.258L8.12345 10.2571C8.02946 9.81062 7.89176 9.45149 7.71804 9.17065L7.68287 9.11548C7.68199 9.11416 7.68113 9.11282 7.68027 9.11148C7.51107 8.84712 7.29967 8.65329 7.04447 8.52212L6.99284 8.49674C6.99039 8.49559 6.98793 8.49435 6.98551 8.49314C6.70892 8.35485 6.3702 8.27934 5.95883 8.27934C5.54719 8.27934 5.21667 8.3534 4.9546 8.48635L4.92948 8.49941C4.92786 8.50026 4.92624 8.50111 4.92461 8.50194C4.64084 8.64672 4.40672 8.8386 4.21833 9.07837C4.04323 9.30123 3.9011 9.54247 3.79153 9.80278V15.3343C3.83842 15.4309 3.88891 15.5257 3.94324 15.6185L3.96202 15.6495C4.15787 15.9672 4.41544 16.2238 4.7382 16.422C5.05151 16.6144 5.45866 16.7213 5.97881 16.7213C6.39183 16.7213 6.72746 16.6485 6.99697 16.5167C7.27097 16.3794 7.49842 16.1733 7.68027 15.8892L7.68113 15.8878C7.87293 15.5914 8.02318 15.2099 8.12345 14.7336C8.22383 14.2568 8.27602 13.6786 8.27602 12.995V11.9857ZM2.68223 21.7082H3.1093V16.6902C2.98683 16.4847 2.87936 16.2664 2.7871 16.0353L2.75146 15.9435C2.75127 15.943 2.75104 15.9425 2.75086 15.942C2.72697 15.8777 2.70416 15.8126 2.68223 15.7467V21.7082ZM2.68223 9.44101C2.7096 9.35108 2.73817 9.26259 2.76831 9.17564L2.76971 9.17185C2.86029 8.92023 2.96449 8.68355 3.08231 8.46216L3.04221 7.41989H2.68223V9.44101ZM8.95826 12.995C8.95826 13.7105 8.90385 14.3383 8.79103 14.8742C8.67811 15.4105 8.50189 15.8752 8.25397 16.2584L8.25391 16.2583C8.01743 16.6273 7.7116 16.9138 7.33715 17.1091L7.30064 17.1277C7.29981 17.1281 7.29895 17.1285 7.29811 17.1289C6.91488 17.3166 6.47136 17.4036 5.97881 17.4036C5.36635 17.4036 4.82743 17.2773 4.38123 17.0034C4.19895 16.8914 4.03203 16.764 3.88068 16.6215C3.9282 16.6865 3.97764 16.7494 4.02905 16.8102C4.29015 17.1127 4.60008 17.3458 4.96146 17.5118C5.32248 17.6745 5.749 17.7607 6.24864 17.7607C6.75869 17.7607 7.19611 17.6656 7.56901 17.485C7.93954 17.3055 8.25982 17.0318 8.52946 16.6543C8.79778 16.2787 9.00917 15.7922 9.15487 15.1841C9.30022 14.5774 9.37533 13.8492 9.37533 12.995V11.9857C9.37533 11.125 9.3047 10.3958 9.16813 9.79372L9.15467 9.73582C9.15436 9.7345 9.15403 9.73315 9.15374 9.73182C9.01895 9.13143 8.81734 8.6612 8.55978 8.30739L8.53466 8.27355C8.53394 8.27259 8.53324 8.27158 8.53253 8.27062C8.26537 7.90847 7.94445 7.64788 7.56874 7.48025C7.18609 7.30953 6.74163 7.22002 6.22865 7.22002C5.74535 7.22002 5.33106 7.3084 4.97798 7.47585L4.91236 7.5087C4.58734 7.67702 4.302 7.91031 4.05556 8.21245C4.01229 8.26687 3.97041 8.32333 3.92958 8.38161C4.12833 8.18869 4.35548 8.027 4.60968 7.89672L4.64619 7.8778C5.0251 7.68561 5.46687 7.59711 5.95883 7.59711C6.45046 7.59711 6.89538 7.68707 7.28332 7.8794L7.3207 7.89739C7.70325 8.08576 8.01433 8.36944 8.25224 8.73972L8.27542 8.77536C8.51243 9.14624 8.68142 9.59633 8.79083 10.1156L8.81135 10.2161C8.91046 10.724 8.95826 11.315 8.95826 11.9857V12.995ZM10.0576 12.995C10.0576 13.8864 9.97943 14.6706 9.81831 15.3431C9.65754 16.0141 9.41588 16.587 9.08458 17.0509C8.75461 17.5128 8.34867 17.8654 7.86642 18.099C7.38652 18.3314 6.84456 18.4429 6.24864 18.4429C5.68775 18.4429 5.17683 18.3489 4.72288 18.1522L4.67917 18.1328C4.67853 18.1326 4.67787 18.1323 4.67724 18.132C4.34895 17.9813 4.05341 17.785 3.79153 17.5441V22.0493C3.79153 22.2377 3.63881 22.3904 3.45041 22.3904H2.34112C2.15272 22.3904 2 22.2377 2 22.0493V7.07877C2 6.89038 2.15272 6.73765 2.34112 6.73765H3.37047C3.55375 6.73765 3.70426 6.8825 3.71132 7.06565L3.73004 7.5524C4.0078 7.2648 4.32498 7.0337 4.6811 6.86158L4.6831 6.86064L4.72634 6.84052C5.17482 6.63588 5.67797 6.53778 6.22865 6.53778C6.82164 6.53778 7.36323 6.64148 7.8467 6.85718C8.33603 7.0755 8.74724 7.41355 9.07932 7.86274H9.07938C9.42208 8.31719 9.66446 8.89414 9.81851 9.57846L9.83337 9.64248C9.98442 10.3082 10.0576 11.0908 10.0576 11.9857V12.995Z" fill="white"/>
</g>
</g>
<defs>
<clipPath id="clip0_412_8653">
<rect width="24" height="24" fill="white"/>
</clipPath>
</defs>
</svg>
