<svg width="24" height="24" viewBox="0 0 24 24" fill="none" xmlns="http://www.w3.org/2000/svg">
<path d="M12.4055 5.37933C16.0572 5.37944 19.0178 8.33994 19.0178 11.9916C19.0177 15.6432 16.0571 18.6038 12.4055 18.6039C8.75382 18.6039 5.79332 15.6433 5.79321 11.9916C5.79321 8.33987 8.75375 5.37933 12.4055 5.37933Z" stroke="white"/>
<path d="M12.4051 10.5518C13.2001 10.5518 13.8444 11.1962 13.8445 11.9912C13.8445 12.7863 13.2002 13.4307 12.4051 13.4307C11.6101 13.4305 10.9656 12.7862 10.9656 11.9912C10.9658 11.1963 11.6102 10.5519 12.4051 10.5518Z" stroke="white"/>
<rect x="0.5" y="-0.5" width="7.79315" height="2.29743" rx="1.14872" transform="matrix(1 0 0 -1 4.00006 3.29742)" stroke="white"/>
<path d="M11.8228 5.10944C11.482 5.1363 11.1482 5.18595 10.8228 5.25787V4.1983H6.22803V8.57428C5.6344 9.5842 5.29354 10.7526 5.29346 11.9991C5.29346 12.1485 5.29947 12.2973 5.30908 12.4444C5.27586 12.3301 5.25114 12.2117 5.23877 12.0899L5.22803 11.8858V3.1983H11.8228V5.10944Z" fill="white"/>
<rect x="-0.5" y="0.5" width="7.79315" height="2.29743" rx="1.14872" transform="matrix(-1 -8.74227e-08 -8.74228e-08 1 19.4873 19.7026)" stroke="white"/>
<path d="M12.7934 18.5849C12.8147 18.5851 12.8365 18.5859 12.8578 18.5859C13.1755 18.5859 13.4878 18.5629 13.7934 18.5195L13.7934 19.8017L18.3881 19.8017L18.3881 15.582C18.9028 14.7908 19.2525 13.8831 19.3881 12.9062L19.3881 20.8017L12.7934 20.8017L12.7934 18.5849Z" fill="white"/>
</svg>
