<svg   width="50" height="50"  viewBox="0 0 41 42" fill="none" xmlns="http://www.w3.org/2000/svg">
<g clip-path="url(#clip0_202_106)">
<path fill-rule="evenodd" clip-rule="evenodd" d="M5.53276 0.241089C4.38268 0.549793 3.45942 1.08171 2.50908 1.98312C0.812025 3.59286 0.00264187 5.44144 0.00333061 7.70622C0.00436372 10.7505 1.60465 13.3553 4.30428 14.7067C5.83913 15.475 7.38856 15.6875 8.96991 15.3468L9.80501 15.1668L11.9619 17.3743L14.1188 19.5816V20.9671V22.3526L11.9269 24.584C10.1611 26.3817 9.687 26.8043 9.48761 26.7581C8.45072 26.5179 8.13424 26.4691 7.59966 26.4665C4.80063 26.4534 1.89036 28.358 0.67026 31.0017C-0.439643 33.4065 -0.14647 36.6592 1.36703 38.7312C2.97214 40.9286 4.99279 41.9895 7.56546 41.9854C9.87813 41.9817 11.6788 41.1566 13.2462 39.3823C14.7954 37.6284 15.4745 35.0198 14.9866 32.6966L14.8261 31.9322L16.968 29.7272L19.1099 27.5221H20.4896H21.8694L24.0321 29.7401L26.1947 31.9579L26.052 32.6507C25.7127 34.2975 25.9698 36.3373 26.695 37.7509C28.3513 40.98 31.7009 42.5735 35.2329 41.8123C37.7989 41.2593 40.124 38.9269 40.8091 36.2184C41.0584 35.2326 41.059 33.3382 40.8102 32.3549C40.1375 29.6953 38.0982 27.5436 35.559 26.8145C34.3508 26.4675 33.1755 26.4028 32.1479 26.6269C31.1322 26.8484 31.536 27.1246 28.8472 24.3685L26.8605 22.3321V20.9569V19.5816L29.0129 17.3787L31.1654 15.1758L32.1409 15.3653C35.9832 16.1111 39.8053 13.584 40.8127 9.63159C41.0643 8.64433 41.0621 6.7734 40.808 5.76532C40.1354 3.0967 37.8309 0.775471 35.2749 0.191931C33.449 -0.224967 31.3919 0.0470455 29.8222 0.913065C28.8788 1.43334 27.5584 2.73154 26.9894 3.69811C25.9689 5.43133 25.6366 7.71351 26.1184 9.67981C26.179 9.92736 25.9049 10.2535 23.9872 12.2161L21.7865 14.4683H20.4727H19.1588L17.0003 12.2459L14.8416 10.0234L14.9944 9.27644C15.6013 6.30817 14.3718 3.17278 11.8891 1.35772C11.0444 0.740191 10.354 0.421372 9.33988 0.180406C8.30654 -0.0651467 6.57057 -0.0373926 5.53276 0.241089ZM8.99413 2.18858C10.9726 2.71049 12.6005 4.4717 13.0319 6.55725C13.1864 7.30461 13.2552 8.23542 13.156 8.23542C13.1315 8.23542 12.4471 7.56874 11.635 6.754C10.7434 5.8594 9.93116 5.15379 9.58461 4.97256C8.30941 4.306 6.7066 4.56366 5.6138 5.61091C4.86342 6.33004 4.54132 7.11703 4.53983 8.23542C4.53799 9.5548 4.76791 9.96405 6.56013 11.8317L8.07466 13.4099H7.32945C5.89251 13.4099 4.60262 12.8193 3.53484 11.6725C2.18285 10.2203 1.67857 8.31739 2.12798 6.36403C2.22348 5.94913 2.44227 5.34207 2.61423 5.0149C3.02127 4.24037 4.14931 3.08247 4.89028 2.67862C6.10808 2.01488 7.64133 1.83177 8.99413 2.18858ZM35.0505 2.23256C36.012 2.51433 36.7569 2.99109 37.4979 3.79925C38.5902 4.9902 39.0258 6.10813 39.0273 7.72327C39.0294 9.98275 37.8619 11.8781 35.8326 12.9101C35.0905 13.2874 34.8647 13.3444 33.9385 13.3878L32.8869 13.4372L34.4103 11.8453C36.2118 9.96276 36.4413 9.55456 36.4395 8.23542C36.4385 7.56815 36.3732 7.20406 36.1712 6.74024C35.6262 5.48872 34.2392 4.58965 32.8539 4.58989C31.7474 4.59 31.0307 5.02889 29.3421 6.74012L27.8936 8.20802L27.895 7.54557C27.8986 5.74215 28.9371 3.88816 30.5276 2.84597C31.7649 2.03499 33.55 1.79296 35.0505 2.23256ZM8.64127 6.75341C8.84444 6.84373 9.79812 7.73044 10.7605 8.72383L12.5104 10.53L12.0006 11.1953C11.5215 11.8209 10.5333 12.7043 10.313 12.7043C10.2582 12.7043 9.41495 11.8808 8.43889 10.8744C6.60845 8.98678 6.38599 8.64597 6.51479 7.9266C6.64335 7.20888 7.31981 6.6057 8.00992 6.59359C8.15398 6.59112 8.43809 6.66297 8.64127 6.75341ZM33.5893 6.77987C34.0192 6.98896 34.3637 7.42103 34.474 7.88979C34.635 8.57388 34.3786 8.96832 32.5301 10.8812C30.8159 12.6551 30.73 12.7258 30.4666 12.5813C30.0728 12.3654 28.9384 11.1871 28.7335 10.781L28.5598 10.4369L30.2642 8.67749C32.3354 6.53937 32.6846 6.34004 33.5893 6.77987ZM20.4896 16.4676H22.6685L24.8784 14.2057L27.0883 11.9439L27.2797 12.2238C27.644 12.7565 28.1829 13.3344 28.7258 13.7745L29.2711 14.2164L27.0901 16.4584L24.9091 18.7003V20.9639V23.2274L27.1135 25.4881C28.3258 26.7314 29.2944 27.7669 29.2658 27.7891C28.4638 28.4123 28.1194 28.7367 27.6598 29.3026L27.1042 29.9866L24.8565 27.6959L22.6088 25.4053H20.4886H18.3686L16.1791 27.6397C14.9748 28.8687 13.9727 29.8742 13.9521 29.8742C13.9316 29.8742 13.4249 29.3773 12.8264 28.77L11.738 27.6657L13.9042 25.4489L16.0702 23.232V20.9622V18.6923L13.9466 16.5217C12.7786 15.3278 11.823 14.3303 11.823 14.305C11.823 14.2797 12.3008 13.7579 12.8848 13.1453L13.9466 12.0316L16.1287 14.2496L18.3108 16.4676H20.4896ZM17.6189 18.259C17.5837 18.4056 17.5696 19.7163 17.5875 21.1716L17.6199 23.8177H20.4896H23.3594V20.9364V18.0552L20.521 18.0238L17.6827 17.9923L17.6189 18.259ZM21.3506 20.9952V21.8772H20.4896H19.6287V20.9952V20.1132H20.4896H21.3506V20.9952ZM7.73707 28.8359C7.61677 28.9762 6.98072 29.651 6.32355 30.3353C4.88351 31.8347 4.47669 32.5805 4.47658 33.7212C4.47623 36.3029 6.91104 38.0482 9.25803 37.1485C9.81132 36.9365 10.1646 36.6471 11.4831 35.3257C12.3451 34.4618 13.0842 33.755 13.1254 33.755C13.252 33.755 13.2052 34.5949 13.0319 35.4332C12.4901 38.0527 10.1545 39.9936 7.55317 39.9862C3.95463 39.9759 1.30011 36.5398 2.12419 32.959C2.69286 30.4878 4.9021 28.5909 7.22051 28.583L7.95574 28.5805L7.73707 28.8359ZM35.1857 28.8168C37.5703 29.6573 39.0282 31.7325 39.0282 34.2861C39.0282 35.9728 38.4844 37.2516 37.2649 38.4332C35.0328 40.5959 31.5139 40.4771 29.4055 38.1678C28.389 37.0547 27.9021 35.8401 27.8963 34.4036L27.8936 33.6997L29.2998 35.1214C30.9703 36.8102 31.2111 36.9895 32.137 37.2325C34.3636 37.8169 36.6702 35.823 36.4802 33.4781C36.3913 32.3788 35.9846 31.7132 34.4034 30.0778L32.9556 28.5805H33.7355C34.2177 28.5805 34.7713 28.6707 35.1857 28.8168ZM10.9493 29.7061C11.4812 30.1221 12.397 31.2044 12.397 31.4169C12.397 31.4775 11.5637 32.3713 10.5453 33.403C8.55942 35.4149 8.33099 35.5586 7.54273 35.2921C6.6678 34.9963 6.1703 33.9072 6.55496 33.1298C6.72508 32.7862 10.1208 29.2862 10.2841 29.2862C10.3547 29.2862 10.6541 29.4751 10.9493 29.7061ZM32.5729 31.0812C33.8127 32.3533 34.3552 32.9938 34.4352 33.2798C34.598 33.8612 34.4007 34.483 33.9144 34.9203C33.5821 35.2193 33.4119 35.2838 32.9562 35.2838C32.2806 35.2838 32.1831 35.2083 30.1005 33.0759C28.4029 31.3374 28.4489 31.4637 29.1913 30.5798C29.5323 30.1736 30.6 29.2862 30.7476 29.2862C30.7893 29.2862 31.6107 30.094 32.5729 31.0812Z" fill="#757575"/>
</g>
<defs>
<clipPath id="clip0_202_106">
<rect width="41" height="42" fill="white"/>
</clipPath>
</defs>
</svg>
