<svg width="24" height="24" viewBox="0 0 24 24" fill="none" xmlns="http://www.w3.org/2000/svg">
<path d="M5.00003 3V21.5806" stroke="white" stroke-linecap="round" stroke-linejoin="round"/>
<path d="M9.80649 3C10.1936 3 10.9678 3.23226 10.9678 4.16129C10.9678 5.09032 10.1936 5.32258 9.80649 5.32258C10.1936 5.32258 10.9678 5.55484 10.9678 6.48387C10.9678 7.4129 10.1936 7.64516 9.80649 7.64516C10.1936 7.64516 10.9678 7.87742 10.9678 8.80645C10.9678 9.73549 10.1936 9.96774 9.80649 9.96774C10.1936 9.96774 10.9678 10.2 10.9678 11.129C10.9678 12.0581 10.1936 12.2903 9.80649 12.2903C10.1936 12.2903 10.9678 12.5226 10.9678 13.4516C10.9678 14.3806 10.1936 14.6129 9.80649 14.6129C10.1936 14.6129 10.9678 14.8452 10.9678 15.7742C10.9678 16.7032 10.1936 16.9355 9.80649 16.9355C10.1936 16.9355 10.9678 17.1677 10.9678 18.0968C10.9678 19.0258 10.1936 19.2581 9.80649 19.2581C10.1936 19.2581 10.9678 19.4903 10.9678 20.4194C10.9678 21.3484 10.1936 21.5806 9.80649 21.5806" stroke="white" stroke-linecap="round" stroke-linejoin="round"/>
<path d="M16.9034 14.0645L19.8872 11" stroke="white" stroke-linecap="round" stroke-linejoin="round"/>
<path d="M15.742 3V8.22581" stroke="white" stroke-linecap="round" stroke-linejoin="round"/>
<circle cx="15.742" cy="9.38708" r="1.24194" stroke="white"/>
<path d="M15.742 21.129V15.9032" stroke="white" stroke-linecap="round" stroke-linejoin="round"/>
<circle cx="1.74194" cy="1.74194" r="1.24194" transform="matrix(1 0 0 -1 14 16.4839)" stroke="white"/>
</svg>
