<svg width="24" height="24" viewBox="0 0 24 24" fill="none" xmlns="http://www.w3.org/2000/svg">
<path d="M22 9.58346C22 10.8967 21.7413 12.197 21.2388 13.4102C20.7362 14.6235 19.9997 15.7259 19.0711 16.6544C18.1425 17.583 17.0401 18.3196 15.8268 18.8221C14.6136 19.3247 13.3132 19.5833 12 19.5833C10.6868 19.5833 9.38642 19.3247 8.17316 18.8221C6.95991 18.3196 5.85751 17.583 4.92893 16.6544C4.00034 15.7258 3.26375 14.6235 2.7612 13.4102C2.25866 12.197 2 10.8966 2 9.58345" stroke="white" stroke-linecap="round" stroke-linejoin="round"/>
<path d="M10.75 10.8334L8.25 14.5834" stroke="white" stroke-linecap="round" stroke-linejoin="round"/>
<path d="M14.5 8.33347C14.5 8.66177 14.4353 8.98686 14.3097 9.29017C14.1841 9.59348 13.9999 9.86907 13.7678 10.1012C13.5356 10.3334 13.26 10.5175 12.9567 10.6431C12.6534 10.7688 12.3283 10.8334 12 10.8334C11.6717 10.8334 11.3466 10.7688 11.0433 10.6431C10.74 10.5175 10.4644 10.3334 10.2322 10.1012C10.0001 9.86907 9.81594 9.59347 9.6903 9.29016C9.56466 8.98685 9.5 8.66177 9.5 8.33347" stroke="white" stroke-linecap="round" stroke-linejoin="round"/>
<path d="M9.5 8.49996C9.5 8.17166 9.56466 7.84658 9.6903 7.54327C9.81594 7.23996 10.0001 6.96437 10.2322 6.73222C10.4644 6.50008 10.74 6.31593 11.0433 6.1903C11.3466 6.06466 11.6717 6 12 6C12.3283 6 12.6534 6.06466 12.9567 6.1903C13.26 6.31593 13.5356 6.50008 13.7678 6.73222C13.9999 6.96437 14.1841 7.23996 14.3097 7.54327C14.4353 7.84658 14.5 8.17167 14.5 8.49997" stroke="white" stroke-linecap="round" stroke-linejoin="round"/>
</svg>
