<svg width="24" height="24" viewBox="0 0 24 24" fill="none" xmlns="http://www.w3.org/2000/svg">
<mask id="path-1-inside-1_134_3153" fill="white">
<path d="M18.5942 2.45824C19.9863 2.78231 20.9566 4.04238 20.8953 5.47045C20.7635 8.54502 20.4923 13.5357 20.0887 14.5653C19.6448 15.6968 19.0409 16.9591 18.2879 17.912C17.2094 19.2766 15.082 20.9458 13.5985 22.0323C12.6314 22.7405 11.3324 22.7478 10.3651 22.0398C8.98427 21.029 7.01689 19.4704 5.68245 17.912C4.88177 16.9768 4.30888 15.9303 3.90316 14.9706L3.73909 14.5653C3.32962 13.5038 3.12587 8.49792 3.03791 5.43525C2.99736 4.02311 3.96338 2.78692 5.33931 2.46666L11.3051 1.0781C11.7525 0.97396 12.2179 0.973966 12.6653 1.07812L18.5942 2.45824ZM4.77926 3.61108C4.33187 3.7153 4.01659 4.11878 4.02816 4.578C4.05229 5.53592 4.09037 6.82785 4.1473 8.16687C4.20432 9.50803 4.28041 10.888 4.37777 12.0233C4.42649 12.5914 4.48015 13.0889 4.53792 13.4843C4.59925 13.9038 4.65612 14.135 4.68831 14.2186C5.07291 15.2153 5.64009 16.3226 6.46077 17.2811C7.51653 18.5141 9.02509 19.7778 10.3026 20.7509C10.9349 21.2325 11.4989 21.6342 11.9041 21.9149C11.9491 21.9461 12.0101 21.944 12.0552 21.9131C12.0793 21.8966 12.1039 21.8797 12.1287 21.8622C12.5743 21.5486 13.1858 21.1075 13.8504 20.5995C15.2061 19.5632 16.6904 18.3156 17.4842 17.3114C18.1483 16.4712 18.7102 15.3129 19.1414 14.2137C19.1725 14.1344 19.2297 13.9069 19.2948 13.4882C19.3559 13.0946 19.4143 12.598 19.4696 12.0302C19.5798 10.896 19.6736 9.51484 19.7489 8.17078C19.824 6.8285 19.8798 5.53176 19.9178 4.57019C19.9358 4.11532 19.6281 3.71246 19.1847 3.60921L12.6657 2.09099C12.218 1.98672 11.7523 1.98673 11.3047 2.09102L4.77926 3.61108Z"/>
</mask>
<path d="M20.0887 14.5653L21.0196 14.9305L21.0197 14.9302L20.0887 14.5653ZM18.2879 17.912L19.0725 18.5321L19.0725 18.532L18.2879 17.912ZM5.68245 17.912L4.92282 18.5623L4.92287 18.5624L5.68245 17.912ZM3.90316 14.9706L2.97623 15.3458L2.9791 15.3529L2.98208 15.36L3.90316 14.9706ZM3.73909 14.5653L2.8061 14.9252L2.80907 14.9329L2.81217 14.9405L3.73909 14.5653ZM4.1473 8.16687L3.1482 8.20935L3.1482 8.20935L4.1473 8.16687ZM4.37777 12.0233L3.38142 12.1088L3.38142 12.1088L4.37777 12.0233ZM4.53792 13.4843L3.54843 13.6289L3.54844 13.6289L4.53792 13.4843ZM4.68831 14.2186L3.75504 14.5778L3.75537 14.5786L4.68831 14.2186ZM6.46077 17.2811L5.70116 17.9315L5.70118 17.9315L6.46077 17.2811ZM10.3026 20.7509L9.69664 21.5464L9.69665 21.5464L10.3026 20.7509ZM12.1287 21.8622L12.7042 22.68L12.7042 22.68L12.1287 21.8622ZM13.8504 20.5995L14.4577 21.394L14.4577 21.394L13.8504 20.5995ZM17.4842 17.3114L18.2687 17.9315L18.2688 17.9315L17.4842 17.3114ZM19.1414 14.2137L20.0724 14.5789L20.0724 14.5787L19.1414 14.2137ZM19.2948 13.4882L20.2829 13.6417L20.2829 13.6417L19.2948 13.4882ZM19.4696 12.0302L20.4649 12.1269L20.4649 12.1269L19.4696 12.0302ZM19.7489 8.17078L20.7473 8.22666V8.22666L19.7489 8.17078ZM19.1847 3.60921L19.4115 2.63527L19.1847 3.60921ZM12.0552 21.9131L12.6208 22.7378L12.0552 21.9131ZM5.33931 2.46666L5.11262 1.49269L5.33931 2.46666ZM13.5985 22.0323L14.1894 22.839L13.5985 22.0323ZM10.3651 22.0398L9.77446 22.8467L10.3651 22.0398ZM20.8953 5.47045L19.8963 5.42761C19.8305 6.96105 19.7303 8.96435 19.5968 10.7084C19.53 11.5815 19.4557 12.379 19.3745 13.0157C19.2879 13.6948 19.2061 14.0768 19.1577 14.2004L20.0887 14.5653L21.0197 14.9302C21.1731 14.539 21.2765 13.911 21.3584 13.2687C21.4457 12.584 21.5231 11.7487 21.591 10.861C21.727 9.08372 21.8283 7.05442 21.8944 5.5133L20.8953 5.47045ZM20.0887 14.5653L19.1578 14.2001C18.7273 15.2975 18.1661 16.4533 17.5033 17.292L18.2879 17.912L19.0725 18.532C19.9158 17.4649 20.5624 16.0961 21.0196 14.9305L20.0887 14.5653ZM18.2879 17.912L17.5034 17.2919C16.521 18.5348 14.5026 20.1306 13.0077 21.2255L13.5985 22.0323L14.1894 22.839C15.6613 21.761 17.8977 20.0184 19.0725 18.5321L18.2879 17.912ZM10.3651 22.0398L10.9558 21.2328C9.58652 20.2305 7.69759 18.7279 6.44204 17.2616L5.68245 17.912L4.92287 18.5624C6.3362 20.213 8.38202 21.8274 9.77446 22.8467L10.3651 22.0398ZM5.68245 17.912L6.44209 17.2616C5.72558 16.4247 5.20173 15.4741 4.82423 14.5812L3.90316 14.9706L2.98208 15.36C3.41604 16.3865 4.03796 17.5288 4.92282 18.5623L5.68245 17.912ZM3.90316 14.9706L4.83008 14.5953L4.66602 14.1901L3.73909 14.5653L2.81217 14.9405L2.97623 15.3458L3.90316 14.9706ZM3.73909 14.5653L4.67209 14.2054C4.62221 14.0761 4.5424 13.6885 4.46237 13.0052C4.38724 12.3639 4.32196 11.5626 4.26589 10.6868C4.15389 8.93728 4.08136 6.9338 4.0375 5.40654L3.03791 5.43525L2.03832 5.46395C2.08242 6.99936 2.15575 9.03014 2.26998 10.8146C2.32703 11.7058 2.39496 12.5464 2.47595 13.2379C2.55203 13.8875 2.65124 14.5237 2.8061 14.9252L3.73909 14.5653ZM5.33931 2.46666L5.56601 3.44063L11.5318 2.05207L11.3051 1.0781L11.0784 0.104137L5.11262 1.49269L5.33931 2.46666ZM12.6653 1.07812L12.4386 2.05208L18.3675 3.4322L18.5942 2.45824L18.8209 1.48428L12.892 0.104159L12.6653 1.07812ZM4.02816 4.578L3.02847 4.60319C3.05269 5.56448 3.09094 6.86259 3.1482 8.20935L4.1473 8.16687L5.14639 8.12439C5.08979 6.79311 5.05189 5.50736 5.02784 4.55282L4.02816 4.578ZM4.1473 8.16687L3.1482 8.20935C3.20548 9.55651 3.28229 10.9527 3.38142 12.1088L4.37777 12.0233L5.37411 11.9379C5.27853 10.8233 5.20316 9.45955 5.14639 8.12439L4.1473 8.16687ZM4.37777 12.0233L3.38142 12.1088C3.43101 12.6869 3.48666 13.2061 3.54843 13.6289L4.53792 13.4843L5.52741 13.3397C5.47364 12.9717 5.42197 12.4959 5.37411 11.9379L4.37777 12.0233ZM4.53792 13.4843L3.54844 13.6289C3.61005 14.0503 3.67896 14.3801 3.75504 14.5778L4.68831 14.2186L5.62158 13.8595C5.63081 13.8834 5.63147 13.8898 5.62517 13.8665C5.61992 13.8471 5.61192 13.8148 5.60177 13.7675C5.58148 13.673 5.55563 13.5327 5.5274 13.3396L4.53792 13.4843ZM4.68831 14.2186L3.75537 14.5786C4.16673 15.6447 4.78485 16.8613 5.70116 17.9315L6.46077 17.2811L7.22038 16.6307C6.49533 15.7839 5.97909 14.7859 5.62126 13.8586L4.68831 14.2186ZM6.46077 17.2811L5.70118 17.9315C6.82691 19.2462 8.40293 20.561 9.69664 21.5464L10.3026 20.7509L10.9085 19.9553C9.64724 18.9947 8.20616 17.782 7.22036 16.6307L6.46077 17.2811ZM10.3026 20.7509L9.69665 21.5464C10.3434 22.039 10.9198 22.4495 11.3346 22.7369L11.9041 21.9149L12.4736 21.0929C12.078 20.8188 11.5265 20.426 10.9085 19.9553L10.3026 20.7509ZM12.0552 21.9131L12.6208 22.7378C12.6452 22.721 12.674 22.7012 12.7042 22.68L12.1287 21.8622L11.5533 21.0443C11.5337 21.0581 11.5133 21.0722 11.4897 21.0884L12.0552 21.9131ZM12.1287 21.8622L12.7042 22.68C13.1581 22.3606 13.7805 21.9116 14.4577 21.394L13.8504 20.5995L13.2431 19.805C12.5911 20.3034 11.9906 20.7366 11.5533 21.0444L12.1287 21.8622ZM13.8504 20.5995L14.4577 21.394C15.8123 20.3586 17.389 19.0445 18.2687 17.9315L17.4842 17.3114L16.6997 16.6913C15.9919 17.5867 14.5999 18.7679 13.2431 19.805L13.8504 20.5995ZM17.4842 17.3114L18.2688 17.9315C19.0233 16.9768 19.628 15.7118 20.0724 14.5789L19.1414 14.2137L18.2105 13.8485C17.7925 14.9141 17.2733 15.9655 16.6997 16.6913L17.4842 17.3114ZM19.1414 14.2137L20.0724 14.5787C20.1482 14.3854 20.2182 14.0581 20.2829 13.6417L19.2948 13.4882L18.3066 13.3346C18.2765 13.5284 18.2496 13.6686 18.2289 13.7626C18.2185 13.8097 18.2104 13.8415 18.2053 13.8603C18.1989 13.8835 18.2001 13.8751 18.2104 13.8487L19.1414 14.2137ZM19.2948 13.4882L20.2829 13.6417C20.3482 13.2214 20.4088 12.7037 20.4649 12.1269L19.4696 12.0302L18.4743 11.9334C18.4199 12.4923 18.3636 12.9678 18.3066 13.3346L19.2948 13.4882ZM19.4696 12.0302L20.4649 12.1269C20.5771 10.973 20.6718 9.57634 20.7473 8.22666L19.7489 8.17078L18.7504 8.11489C18.6755 9.45334 18.5826 10.819 18.4743 11.9334L19.4696 12.0302ZM19.7489 8.17078L20.7473 8.22666C20.8228 6.87674 20.8789 5.57398 20.917 4.60969L19.9178 4.57019L18.9186 4.5307C18.8807 5.48954 18.8251 6.78026 18.7504 8.1149L19.7489 8.17078ZM19.1847 3.60921L19.4115 2.63527L12.8926 1.11705L12.6657 2.09099L12.4389 3.06493L18.9579 4.58314L19.1847 3.60921ZM11.3047 2.09102L11.0778 1.1171L4.55239 2.63716L4.77926 3.61108L5.00613 4.58501L11.5315 3.06495L11.3047 2.09102ZM12.6657 2.09099L12.8926 1.11705C12.2956 0.978031 11.6747 0.978047 11.0778 1.1171L11.3047 2.09102L11.5315 3.06495C11.83 2.99542 12.1404 2.99541 12.4389 3.06493L12.6657 2.09099ZM19.9178 4.57019L20.917 4.60968C20.954 3.67441 20.3211 2.8471 19.4115 2.63527L19.1847 3.60921L18.9579 4.58314C18.9351 4.57783 18.9176 4.55623 18.9186 4.5307L19.9178 4.57019ZM4.02816 4.578L5.02784 4.55282C5.02794 4.55665 5.02728 4.56146 5.02574 4.56607C5.02431 4.57032 5.02248 4.57339 5.02081 4.57555C5.01748 4.57983 5.01193 4.58366 5.00613 4.58501L4.77926 3.61108L4.55239 2.63716C3.64793 2.84785 3.00483 3.66481 3.02847 4.60319L4.02816 4.578ZM11.9041 21.9149L11.3346 22.7369C11.7479 23.0233 12.2615 22.9842 12.6208 22.7378L12.0552 21.9131L11.4897 21.0884C11.7587 20.9039 12.1503 20.8689 12.4736 21.0929L11.9041 21.9149ZM3.03791 5.43525L4.0375 5.40654C4.01079 4.47663 4.64684 3.65457 5.56601 3.44063L5.33931 2.46666L5.11262 1.49269C3.27992 1.91926 1.98392 3.5696 2.03832 5.46395L3.03791 5.43525ZM11.3051 1.0781L11.5318 2.05207C11.83 1.98264 12.1403 1.98264 12.4386 2.05208L12.6653 1.07812L12.892 0.104159C12.2954 -0.0347124 11.6749 -0.0347196 11.0784 0.104137L11.3051 1.0781ZM13.5985 22.0323L13.0077 21.2255C12.3881 21.6793 11.5671 21.6803 10.9558 21.2328L10.3651 22.0398L9.77446 22.8467C11.0977 23.8153 12.8748 23.8018 14.1894 22.839L13.5985 22.0323ZM20.8953 5.47045L21.8944 5.5133C21.9766 3.59795 20.675 1.91588 18.8209 1.48428L18.5942 2.45824L18.3675 3.4322C19.2977 3.64874 19.9366 4.48681 19.8963 5.42761L20.8953 5.47045Z" fill="white" mask="url(#path-1-inside-1_134_3153)"/>
<path d="M8.05157 10.9237L10.7966 15.9237C11.4801 13.7015 13.3087 8.14593 16.0516 5.92371" stroke="white" stroke-linecap="round" stroke-linejoin="round"/>
</svg>
