<svg   width="50" height="50"  viewBox="0 0 42 47" fill="none" xmlns="http://www.w3.org/2000/svg">
<path d="M13.8945 5.75879C14.6751 5.48206 15.5325 5.89046 15.8096 6.6709C16.0865 7.45154 15.6781 8.30985 14.8975 8.58691C7.99277 11.0377 3 17.7955 3 25.7812C3.00036 35.8615 10.9401 43.9629 20.6455 43.9629C30.3508 43.9627 38.2897 35.8613 38.29 25.7812C38.29 17.7954 33.2977 11.0367 26.3945 8.58594L26.252 8.52734C25.5652 8.20181 25.2228 7.40257 25.4824 6.6709C25.7596 5.89034 26.6169 5.48278 27.3975 5.75977L27.7764 5.89746C35.6809 8.88269 41.29 16.6735 41.29 25.7812C41.2897 37.4394 32.0853 46.9627 20.6455 46.9629C9.20554 46.9629 0.000362075 37.4395 0 25.7812C0 16.5288 5.78965 8.63545 13.8945 5.75879ZM21.3525 0C22.3221 0 23.0859 0.527977 23.5557 1.1543C24.0249 1.78005 24.2714 2.57551 24.2715 3.39062V23.7178C24.2715 24.5331 24.0251 25.3292 23.5557 25.9551C23.0859 26.5813 22.3221 27.1084 21.3525 27.1084H19.9346C18.9652 27.1083 18.2022 26.5812 17.7324 25.9551C17.263 25.3292 17.0166 24.5331 17.0166 23.7178V3.39062C17.0167 2.57543 17.2631 1.78008 17.7324 1.1543C18.2021 0.528018 18.9651 6.92164e-05 19.9346 0H21.3525Z" fill="white"/>
</svg>
