<svg width="24" height="24" viewBox="0 0 24 24" fill="none" xmlns="http://www.w3.org/2000/svg">
<g clip-path="url(#clip0_300_40351)">
<mask id="mask0_300_40351" style="mask-type:luminance" maskUnits="userSpaceOnUse" x="0" y="0" width="24" height="24">
<path d="M24 0H0V24H24V0Z" fill="white"/>
</mask>
<g mask="url(#mask0_300_40351)">
<path d="M10.5934 6.54681V8.33306H4.24091V6.54681H10.5934ZM6.31648 3.23846H8.54301V16.7863C8.54301 17.2476 8.59752 17.5956 8.70654 17.8304C8.82395 18.0652 8.9707 18.2204 9.14681 18.2958C9.32292 18.3713 9.51161 18.409 9.71288 18.409C9.86383 18.409 10.0316 18.3923 10.216 18.3587C10.4005 18.3168 10.5263 18.2832 10.5934 18.2581L10.5808 20.1576C10.4299 20.2163 10.2286 20.2708 9.97704 20.3211C9.72546 20.3798 9.40678 20.4091 9.02102 20.4091C8.54301 20.4091 8.09854 20.2959 7.68762 20.0695C7.2767 19.8431 6.94544 19.4657 6.69386 18.9374C6.44227 18.4007 6.31648 17.6794 6.31648 16.7737V3.23846Z" fill="white"/>
<path d="M6.2762 16.7738V8.37335H4.20062V6.50659H6.2762V3.19824H8.58323V6.50659H10.6337V8.37335H8.58323V16.7863C8.58323 17.2449 8.63752 17.5856 8.74252 17.8124L8.7643 17.8545C8.8749 18.0599 9.00836 18.1927 9.16267 18.2588C9.33351 18.332 9.51676 18.3688 9.71285 18.3688C9.86088 18.3688 10.0261 18.3523 10.2088 18.3191C10.3925 18.2773 10.5152 18.2445 10.5792 18.2205L10.634 18.1999L10.6209 20.1852L10.5954 20.1951C10.4417 20.2549 10.2382 20.3098 9.98606 20.3603L9.98613 20.3603C9.73048 20.42 9.40847 20.4494 9.02099 20.4494C8.53632 20.4494 8.08516 20.3345 7.66817 20.1048C7.24822 19.8734 6.91181 19.4887 6.65751 18.9547L6.65735 18.9545C6.4023 18.4103 6.2762 17.6825 6.2762 16.7738ZM8.58323 8.29284H10.5531V6.58709H8.58323V8.29284ZM6.35671 8.29284H8.50273V6.58709H6.35671V8.29284ZM4.28113 8.29284H6.2762V6.58709H4.28113V8.29284ZM6.35671 6.50659H8.50273V3.27875H6.35671V6.50659ZM6.35671 16.7738C6.35671 17.6764 6.4822 18.391 6.73031 18.9203C6.97916 19.4428 7.30517 19.8129 7.70701 20.0343C8.11186 20.2574 8.54964 20.3689 9.02099 20.3689C9.40503 20.3689 9.72039 20.3396 9.96789 20.2819L9.96852 20.2818L9.96915 20.2817C10.2055 20.2344 10.3957 20.1833 10.5407 20.1294L10.5528 18.3142C10.4782 18.3373 10.3686 18.3653 10.2249 18.398L10.2241 18.3982L10.2233 18.3984C10.0369 18.4323 9.86671 18.4493 9.71285 18.4493C9.50641 18.4493 9.31227 18.4106 9.1309 18.3329C8.94328 18.2525 8.79059 18.0886 8.6705 17.8484L8.67027 17.8479L8.67003 17.8474C8.55731 17.6046 8.50273 17.2496 8.50273 16.7863V8.37335H6.35671V16.7738Z" fill="white"/>
<path d="M12.8739 4.73545C12.8739 4.1568 13.0123 3.63267 13.289 3.16304C13.5741 2.68503 13.9515 2.30346 14.4211 2.01833C14.8908 1.7332 15.4065 1.59064 15.9684 1.59064C16.5219 1.59064 17.0292 1.7332 17.4905 2.01833C17.9517 2.30346 18.3165 2.68503 18.5849 3.16304C18.8616 3.63267 19 4.1568 19 4.73545C19 5.3141 18.8616 5.83823 18.5849 6.30786C18.3165 6.77748 17.9517 7.15067 17.4905 7.42741C17.0292 7.70415 16.5219 7.84252 15.9684 7.84252C15.4065 7.84252 14.8908 7.70415 14.4211 7.42741C13.9515 7.15067 13.5741 6.77748 13.289 6.30786C13.0123 5.83823 12.8739 5.3141 12.8739 4.73545ZM14.006 4.73545C14.006 5.29732 14.1947 5.76276 14.5721 6.13175C14.9579 6.49235 15.4233 6.67265 15.9684 6.67265C16.5135 6.67265 16.9664 6.49235 17.327 6.13175C17.6959 5.76276 17.8804 5.29732 17.8804 4.73545C17.8804 4.16519 17.6959 3.69137 17.327 3.31399C16.9664 2.93662 16.5135 2.74793 15.9684 2.74793C15.4233 2.74793 14.9579 2.93662 14.5721 3.31399C14.1947 3.69137 14.006 4.16519 14.006 4.73545Z" fill="white"/>
</g>
</g>
<defs>
<clipPath id="clip0_300_40351">
<rect width="24" height="24" fill="white"/>
</clipPath>
</defs>
</svg>
