<?xml version="1.0" encoding="UTF-8"?>
<svg xmlns="http://www.w3.org/2000/svg" version="1.1"   width="50" height="50" viewBox="0 0 65 63">
  <defs>
    <style>
      .cls-1 {
        fill: #fff;
      }
    </style>
  </defs>
  <!-- Generator: Adobe Illustrator 28.7.7, SVG Export Plug-In . SVG Version: 1.2.0 Build 194)  -->
  <g>
    <g id="Layer_1">
      <g>
        <polygon class="cls-1" points="5.1 52.8 5.1 52.8 5.1 52.8 5.1 52.8 5.1 52.8"/>
        <path class="cls-1" d="M26.9,25.9c-2.2,0-4,1.7-4,3.9s1.8,3.9,4,3.9,4-1.7,4-3.9-1.8-3.9-4-3.9ZM26.9,30.9c-.6,0-1.1-.5-1.1-1.1s.5-1.1,1.1-1.1,1.1.5,1.1,1.1-.5,1.1-1.1,1.1Z"/>
        <path class="cls-1" d="M63.4,53.7h0s-11.1,0-11.1,0c0-.2-.1-.4-.2-.6-.7-1.8-1.7-4.3-3.1-7.2,0,0,0-.2-.1-.2,1.5-2,2.7-4.2,3.5-6.6h0s0,0,0,0c1.5-4.4,1.9-9,.9-13.6v-.2s0,0,0,0v-.3c-.4-1.5-.9-3-1.5-4.4v-.3c-.1,0-.3-.3-.3-.3-1.2-2.6-2.9-5-4.9-7.1.5-.5,1.1-1,1.7-1.5h0s0,0,0,0l-1-1,1,1s0,0,0,0c0,0,0,0,0,0,0,0,0,0,0,0,0,0,0,0,0,0,0,0,0,0,0,0,0,0,0,0,0,0,0,0,0,0,.1-.2.1-.1.3-.3.4-.5.3-.4.6-1.1.5-2-.1-.8-.1-.9-.2-1.4,0-.4-.3-1.2-.9-1.7-.3-.3-.8-.6-1.4-.6-.5,0-1,.1-1.5.4,0,0-.2,0-.3.1-.3.1-.6.3-1.1.5-.9.4-2.2,1-3.8,1.9-.1,0-.2.1-.3.2-1.8-.9-3.6-1.7-5.6-2.2h0s0,0,0,0h-.2c-4-1.1-8.1-1.2-12.2-.5h-.2c-1.6.4-3.2.8-4.7,1.4h-.3c0,.1,0,.1,0,.1-4.8,2-8.9,5.2-11.8,9.4-1.9,2.7-3.2,5.8-4,9v.3c0,0,0,0,0,0-.4,1.7-.5,3.5-.5,5.2,0,5.2,1.6,10.3,4.7,14.6-.4.8-.7,1.5-1,2.2-.6,1.4-1,2.6-1.3,3.3-.1.4-.2.7-.3.9,0,0,0,.2,0,.2-.4.8-.6,2-.7,2.9,0,.5,0,1,0,1.5,0,.2,0,.5.2.8,0,.2.5,1,1.5,1,.5,0,1.4,0,2.3,0,.6,0,1.1-.3,1.3-.5.3-.2.5-.4.7-.6.4-.4.8-1,1.1-1.5.3-.5.6-1,.9-1.4.1-.2.2-.4.3-.5,0,0,0,0,0-.1.5-.7.9-1.3,1.4-2,4.6,3.3,10.1,5.1,15.8,5.1,0,0,0,0,0,0s0,0,0,0h0c.9,0,1.9,0,2.8-.2,0,0,0,0,0,0h16.4c.2.3.4.5.6.7.2.2.4.4.7.6.2.1.7.4,1.3.4.2,0,.4,0,.8,0,.3,0,.8,0,1.2,0,.3,0,1-.1,1.6-.6.3-.3.5-.6.6-1h10.5c.8,0,1.4-.7,1.4-1.4s-.6-1.4-1.4-1.4ZM44.7,35.3c-.2.7-.4,1.3-.7,1.9-.6-.9-1.2-1.8-1.8-2.7.7-2.5.7-5.1,0-7.6-.6-2.3-1.7-4.4-3.3-6.2.5-.6,1.1-1.3,1.7-2,1.2,1.3,2.2,2.8,3,4.4v.2c.6,1.1,1,2.3,1.2,3.4.6,2.8.5,5.6-.2,8.4ZM39.5,31.1c-.6-.7-1.1-1.4-1.7-2,0,0,0,0,0,0,0,0-.2-.2-.3-.3,0,0-.2-.2-.2-.3-.7-.8-1.4-1.5-2.1-2.3.6-1,1.3-2.1,2-3,1,1.3,1.8,2.9,2.2,4.5.3,1.2.4,2.5.4,3.7,0,0-.2-.2-.2-.3ZM48.8,21.5c.6,1.4,1.1,2.9,1.5,4.4.9,4,.6,8.2-.7,12.1v.2c-.6,1.6-1.4,3.1-2.3,4.5-.5-.9-1-1.8-1.5-2.6.7-1.3,1.3-2.7,1.7-4.1h0c.9-3.1,1-6.4.3-9.5v-.2s0,0,0,0v-.3c-.3-1.2-.7-2.4-1.2-3.5v-.2c-.1,0-.1,0-.1,0v-.2c-1-2-2.3-3.8-3.8-5.4.6-.6,1.2-1.2,1.8-1.8,1.8,1.8,3.2,3.9,4.3,6.2v.3ZM9.8,36.8c-.8-2-1.2-4.1-1.1-6.2h0c0-1.2.1-2.4.4-3.6h0c.5-2.3,1.4-4.4,2.8-6.3,2.4-3.4,5.9-5.9,9.9-7.1,3.2-.9,6.6-1,9.8-.2,0,0,0,0,0,0-.8.6-1.6,1.3-2.5,2-3.8-.5-7.6.4-10.7,2.5h0s0,0,0,0c-2.7,1.8-4.8,4.4-6,7.4-1.1,2.8-1.3,5.8-.6,8.7l-.3.4h0c0,0,0,0,0,.1,0,0,0,0-.1.1-.3.4-.5.8-.8,1.2,0,0,0,0,0,0-.2.3-.4.6-.6.9ZM23.9,19.9c0,0-.1.1-.2.2-.1.1-.3.3-.4.4-.5.5-.9.9-1.4,1.4-.1.1-.3.3-.4.4-.1.1-.2.2-.3.3-.5.5-1,1.1-1.6,1.6-.1.1-.2.2-.3.4l-.3.3s0,0,0,0l-.2.3c-.1.1-.2.2-.3.3,0,0,0,0-.1.1-.2.2-.4.5-.6.7-.3.3-.6.6-.8,1-.2.3-.5.6-.7.8-.7.8-1.4,1.6-2,2.4,0-1.5.3-2.9.8-4.3.9-2.4,2.6-4.5,4.9-6h0c1.8-1.2,3.8-1.9,5.9-2.1-.6.5-1.2,1.1-1.8,1.7ZM3.2,30.7h0c0-1.6.2-3.1.5-4.7h0c.6-3,1.8-5.8,3.6-8.2h0c2.6-3.7,6.2-6.6,10.5-8.4h0c1.4-.6,2.9-1,4.5-1.3,3.7-.7,7.6-.6,11.2.4,1.2.3,2.3.7,3.5,1.2-.8.5-1.7,1.1-2.5,1.7-4.3-1.5-9-1.7-13.5-.4-4.6,1.3-8.6,4.2-11.4,8v.2c-.1,0-.1,0-.1,0-1.5,2.2-2.6,4.6-3.1,7.1v.2c0,0,0,0,0,0-.3,1.4-.4,2.7-.4,4.1,0,3.2.8,6.3,2.2,9.1-.5.9-1,1.8-1.5,2.6-2.1-3.5-3.3-7.5-3.3-11.7ZM25.3,38.6h0s0,0,0,0h0c.4-.2.9-.4,1.4-.4.5,0,1,.1,1.5.4.3.2.6.3.9.5l.3.2c.5.3,1,.6,1.6,1l.3.2c.6.4,1.1.8,1.6,1.2-1.9,1-4,1.5-6.1,1.5h0c-2.1,0-4.2-.5-6.1-1.5,1.4-1.1,2.9-2.2,4.5-3.1ZM18.6,43.6c2.5,1.5,5.4,2.4,8.4,2.4,0,0,0,0,0,0,0,0,0,0,0,0h0c3,0,6-.8,8.5-2.4.2.1.3.3.5.4,0,0,.1.1.2.2.4.4.8.7,1.1,1.1-3,2-6.6,3.1-10.3,3.1h0c-3.7,0-7.2-1.1-10.2-3,.6-.6,1.2-1.2,1.8-1.8ZM27,53.8c-5,0-9.9-1.5-13.9-4.3.6-.7,1.1-1.4,1.7-2,3.6,2.4,7.8,3.7,12.2,3.7,0,0,0,0,0,0s0,0,0,0h0c4.4,0,8.7-1.3,12.3-3.8.3.3.6.6.8,1,0,0,.1.1.2.2.2.3.5.6.7.9-4.1,2.9-9,4.4-14,4.4h0ZM42.7,51.6c.5.6,1,1.3,1.5,2h-4.9c1.2-.6,2.3-1.3,3.4-2ZM49.6,55.3c-.2,0-.4,0-.6,0,0,0-2.3-3.1-2.3-3.1-.6-.8-2.5-3.4-2.5-3.4-.8-1-1.7-2-2.5-3,0,0,0,0,0-.1h0s-1-1.1-1-1.1c0,0-.1-.1-.2-.2,0,0-.2-.2-.2-.3l-.3-.3h0s-.2-.2-.2-.2c-.1-.1-.3-.2-.4-.4,0,0,0,0,0,0-.1-.1-.3-.3-.4-.4-.2-.2-.4-.4-.6-.6,0,0-.2-.2-.3-.2,0,0,0,0,0,0h0s-1.4-1.2-1.4-1.2c0,0,0,0,0,0,0,0-.1-.1-.2-.2,0,0,0,0-.1-.1-.1,0-.2-.2-.3-.2-.3-.2-.6-.5-.9-.7-.1,0-.3-.2-.4-.3-.3-.2-.5-.4-.8-.6,0,0,0,0,0,0,0,0,0,0,0,0,0,0-.1-.1-.2-.2-.3-.2-.7-.4-1-.6,0,0,0,0,0,0-.4-.2-.7-.4-1-.6,0,0,0,0,0,0-.3-.2-.6-.4-.9-.5-.3-.2-.6-.3-.8-.5h0s0,0,0,0h0s0,0,0,0c0,0,0,0,0,0h0s0,0,0,0c-.8-.4-1.7-.6-2.5-.7,0,0,0,0-.1,0h0s0,0,0,0,0,0,0,0h0s0,0,0,0c-1,0-1.9.2-2.8.7,0,0,0,0,0,0h0s0,0,0,0h0s0,0,0,0c-1.4.8-3.5,1.9-6.2,4.1-2.8,2.3-6.1,5.8-10.3,11.8,0,0-2.2,3.3-2.2,3.3-.2,0-.4,0-.6,0,0,0,.8-3.2.9-3.6.2-.7.6-1.8,1.2-3.1.2-.4,1.4-2.7,1.4-2.7,1.4-2.9,3-5.7,4.9-8.4h0s0,0,0,0c.2-.3.4-.6.6-.9l1.3-1.9c1.7-2.4,4-5.1,6.4-7.8l.3-.3c2.9-3.1,5.8-6,8.3-8h0s0,0,0,0c3.3-2.9,6.9-5.5,10.8-7.7,0,0,3.9-2.1,4.5-2.4.4-.2.8-.3,1-.4,0,0,0,0,.1,0,0,.2,0,.5.1,1,0,0,0,0,0,.2,0,0-4.2,3.9-5.8,5.5h0s-1,1-1,1c0,0,0,0,0,0-.7.8-1.4,1.5-2,2.3,0,0-.1.2-.2.3,0,0-.2.2-.2.3h0s-.9,1.2-.9,1.2c0,0,0,0,0,0h0c0,0,0,.1,0,.1-.2.2-.4.5-.5.7,0,0,0,0,0,0-.5.7-.9,1.3-1.3,1.9,0,0,0,0,0,0,0,.1-.2.2-.2.4,0,0,0,0,0,0-.6.9-1,1.7-1.4,2.4,0,0,0,0,0,0l-.4.7h0s0,0,0,0l.4.7s0,0,0,0c0,0,0,.2.1.2v.2c0,0,0,0,0,0h0s0,0,0,0h0c.9,1,1.7,1.9,2.6,2.8.4.5.8,1,1.3,1.5.3.4.6.7.9,1.1,4,5,6.9,10,8.9,14.1,1.4,2.8,2.4,5.2,3,6.9.2.5.3.9.5,1.3,0,0,0,0,0,0Z"/>
      </g>
    </g>
  </g>
</svg>