<svg   width="50" height="50"  viewBox="0 0 41 47" fill="none" xmlns="http://www.w3.org/2000/svg">
<path d="M40.9998 26.2496C40.9996 15.066 31.9334 5.99946 20.7498 5.99946C9.56614 5.99956 0.500552 15.0663 0.500528 26.25C0.500528 37.4337 9.56608 46.4995 20.7497 46.4996C31.9335 46.4996 40.9998 37.4334 40.9998 26.2496ZM26.9634 13.917L28.6954 14.917L30.4063 11.9535C32.4041 13.3055 34.1023 15.066 35.3836 17.114L32.5342 18.7582L33.5345 20.4905L36.3449 18.8688C37.3362 20.9596 37.9205 23.2812 37.9928 25.7313L34.9381 25.7313L34.9384 27.7308L37.9367 27.7309C37.7335 30.12 37.0429 32.3697 35.9655 34.3814L33.534 32.9776L32.534 34.7097L34.9198 36.0871C33.6109 37.969 31.938 39.5785 30.0012 40.8115L28.6957 38.5513L26.9634 39.5516L28.2543 41.7865C26.2592 42.7519 24.05 43.3434 21.7172 43.4723L21.7171 40.9588L19.7168 40.9586L19.7171 43.4678C17.389 43.3303 15.1855 42.7315 13.196 41.7607L14.4699 39.5542L12.7379 38.5542L11.4523 40.781C9.52711 39.5467 7.86438 37.94 6.56355 36.063L8.8968 34.715L7.89732 32.9833L5.5206 34.3557C4.45103 32.3504 3.76665 30.1094 3.56443 27.7303L6.48921 27.7308L6.4889 25.7313L3.50853 25.7314C3.58058 23.2916 4.15886 20.9791 5.14259 18.8952L7.89713 20.4856L8.89713 18.7535L6.10115 17.1393C7.37458 15.0961 9.06281 13.3386 11.0491 11.9852L12.7389 14.9139L14.4711 13.9136L12.7646 10.9572C14.8652 9.85809 17.2197 9.17864 19.7177 9.0312L19.7168 12.5094L21.7171 12.5096L21.7183 9.02703C24.2209 9.16551 26.5807 9.83802 28.687 10.9316L26.9634 13.917ZM21.0595 23.5236C20.9463 23.5084 20.8306 23.4984 20.7132 23.4984C19.2852 23.4987 18.1277 24.6562 18.1276 26.0843C18.1276 27.5126 19.2855 28.6712 20.7138 28.6712C22.142 28.6712 23.2999 27.5128 23.2999 26.0845C23.2999 25.5038 23.107 24.9688 22.7838 24.5371L28.0406 15.6L26.3168 14.5856L21.0595 23.5236ZM12.3895 1.73193C11.8372 0.77545 10.6143 0.448244 9.65777 1.0005L4.67007 3.87969C3.71354 4.43195 3.38515 5.6552 3.93731 6.61176L4.29599 7.23269C4.84833 8.18911 6.07119 8.51636 7.0277 7.96412L12.0154 5.08493C12.9719 4.53269 13.3003 3.30941 12.7482 2.35286L12.3895 1.73193ZM31.4033 1.00018C30.4467 0.447898 29.2235 0.775649 28.6713 1.73223L28.3129 2.353C27.7607 3.30956 28.0884 4.53279 29.0449 5.08505L34.0322 7.96444C34.9887 8.5167 36.2119 8.18888 36.7642 7.23239L37.1226 6.61163C37.6749 5.65504 37.3472 4.43186 36.3906 3.87958L31.4033 1.00018Z" fill="white"/>
</svg>
