<svg   width="50" height="50"  viewBox="0 0 48 27" fill="none" xmlns="http://www.w3.org/2000/svg">
<path d="M33.0519 2.12109L15.4503 19.7227C15.8007 20.4059 16.0001 21.1794 16.0001 22C16.0001 24.7614 13.7615 27 11.0001 27C8.94993 27 7.18875 25.7657 6.41711 24H0.00012207V21H6.10071C6.56403 18.7178 8.58121 17 11.0001 17C11.8477 17 12.6454 17.2118 13.3448 17.584L30.9308 0L33.0519 2.12109ZM37.0001 17C39.419 17.0001 41.4362 18.7178 41.8995 21H48.0001V24H41.5831C40.8115 25.7657 39.0503 27 37.0001 27C34.2387 27 32.0001 24.7614 32.0001 22C32.0001 19.2386 34.2387 17 37.0001 17Z" fill="white"/>
</svg>
