<?xml version="1.0" encoding="UTF-8"?>
<svg id="Layer_1" xmlns="http://www.w3.org/2000/svg" version="1.1"   width="50" height="50" viewBox="0 0 64 65">
  <!-- Generator: Adobe Illustrator 29.5.1, SVG Export Plug-In . SVG Version: 2.1.0 Build 141)  -->
  <defs>
    <style>
      .st0 {
        fill: #fff;
      }
    </style>
  </defs>
  <path class="st0" d="M42.94,55.49l-3.6-8.47s0,0,0-.01l-.06-28.85s0-.05,0-.06c0-.05,0-.09,0-.11,0-.05,0-.11-.01-.16-.01-.11-.03-.26-.05-.44-.05-.36-.11-.86-.2-1.46-.17-1.19-.39-2.76-.62-4.33-.23-1.57-.46-3.14-.63-4.32-.09-.59-.16-1.09-.21-1.44-.03-.18-.05-.32-.06-.42,0-.03-.01-.06-.01-.09-.06-1.41-.65-2.75-1.65-3.74C34.82.6,33.51.04,32.12,0h-.13s0,0,0,0h-.13c-1.38.04-2.7.6-3.69,1.58-1,.99-1.59,2.32-1.65,3.73,0,.02,0,.05-.01.08-.02.1-.04.23-.07.41-.06.34-.14.82-.23,1.4-.19,1.15-.44,2.68-.68,4.2-.25,1.52-.49,3.04-.68,4.18-.09.57-.17,1.04-.22,1.37-.03.17-.05.3-.06.38,0,.04-.01.08-.02.1,0,.01,0,.02,0,.03,0,0,0,0,0,0,0,0,0,0,0,0,0,0,0,0,0,0l-.02.11v29.77s-3.46,8.14-3.46,8.14l-.02.19c-.08.71.34,1.18.55,1.36.23.2.49.33.69.42.42.18.94.32,1.43.43.49.1,1.02.19,1.52.25l-.63,3.68v.03s0,.03,0,.03c-.16,1.34.9,2.15,1.63,2.51.83.41,1.91.62,3.04.62h5.49s.11,0,.11,0c1.09-.01,2.12-.22,2.93-.62.73-.36,1.79-1.17,1.63-2.51v-.03s0-.03,0-.03l-.63-3.68c.51-.06,1.04-.15,1.52-.25.5-.11,1.02-.25,1.43-.43.2-.09.46-.22.69-.42.21-.18.63-.65.55-1.36l-.02-.19ZM32,45.62c-.29,0-.57,0-.86,0,0-.02,0-.03,0-.05v-.04s.04-14.12.04-14.12c.02-.17.08-.31.16-.42.09-.11.17-.14.19-.15h.01c.27-.06.54-.06.81,0h0s0,0,0,0c.03,0,.1.03.19.15.08.1.14.25.16.41v14.16s0,.04,0,.04c0,0,0,.01,0,.02-.25,0-.5,0-.74,0ZM27.09,17.75c.01-.09.04-.22.06-.38.05-.33.13-.81.22-1.37.18-1.14.43-2.66.68-4.18.25-1.52.49-3.04.68-4.19.09-.57.17-1.05.23-1.39.03-.17.05-.3.07-.39,0-.02,0-.04,0-.05l.03-.1v-.19c.03-.77.34-1.5.89-2.04.53-.52,1.23-.82,1.96-.84h.07c.76,0,1.49.3,2.03.84.54.54.86,1.27.88,2.04v.19s.03.09.03.09c0,.01,0,.03,0,.05.01.09.04.23.06.4.05.35.13.84.21,1.43.18,1.18.4,2.75.63,4.31.23,1.57.45,3.13.62,4.32.08.59.15,1.08.19,1.43.02.17.04.3.05.39,0,.01,0,.03,0,.04l.05,27.67c-.16-.02-.31-.03-.47-.05-.3-.02-.63-.04-.97-.06,0-.09-.01-.17-.02-.23v-14.16s0-.04,0-.04c-.09-1.37-1.01-2.68-2.4-2.97,0,0,0,0,0,0,0,0,0,0,0,0-.61-.13-1.25-.13-1.86,0,0,0,0,0,0,0,0,0,0,0,0,0-1.38.29-2.3,1.61-2.39,2.97v.04s-.04,14.13-.04,14.13c0,.07-.01.17-.02.27-.3.02-.59.03-.85.05-.22.02-.42.04-.62.06v-28.04s0-.02,0-.03ZM39.76,55.33c-.87.19-1.92.31-2.53.32l-1.49.03,1.07,6.27s-.09.05-.15.08c-.37.18-.98.34-1.76.35h-.16s-5.49,0-5.49,0c-.85,0-1.52-.16-1.92-.36-.06-.03-.11-.06-.15-.08l1.07-6.27-1.49-.03c-.61-.01-1.66-.13-2.53-.32-.1-.02-.2-.04-.29-.07l2.88-6.78c.08-.01.19-.02.28-.04h9.77c.1.01.2.02.28.04l2.88,6.78c-.09.02-.18.04-.29.07Z"/>
</svg>