<svg width="24" height="24" viewBox="0 0 24 24" fill="none" xmlns="http://www.w3.org/2000/svg">
<mask id="path-1-inside-1_763_11646" fill="white">
<path d="M12 2C16.3019 2 19.8102 5.19779 19.9922 9.20703H20V21H4V9.20703H4.00879C4.19081 5.19785 7.6982 2.00007 12 2Z"/>
</mask>
<path d="M12 2L12 1L12 1L12 2ZM19.9922 9.20703L18.9932 9.25238L19.0366 10.207H19.9922V9.20703ZM20 9.20703H21V8.20703H20V9.20703ZM20 21V22H21V21H20ZM4 21H3V22H4V21ZM4 9.20703V8.20703H3V9.20703H4ZM4.00879 9.20703V10.207H4.96442L5.00776 9.25239L4.00879 9.20703ZM12 2V3C15.8183 3 18.8377 5.8268 18.9932 9.25238L19.9922 9.20703L20.9912 9.16168C20.7827 4.56878 16.7855 1 12 1V2ZM19.9922 9.20703V10.207H20V9.20703V8.20703H19.9922V9.20703ZM20 9.20703H19V21H20H21V9.20703H20ZM20 21V20H4V21V22H20V21ZM4 21H5V9.20703H4H3V21H4ZM4 9.20703V10.207H4.00879V9.20703V8.20703H4V9.20703ZM4.00879 9.20703L5.00776 9.25239C5.16329 5.82672 8.18195 3.00006 12 3L12 2L12 1C7.21444 1.00008 3.21834 4.56898 3.00982 9.16168L4.00879 9.20703Z" fill="white" mask="url(#path-1-inside-1_763_11646)"/>
<mask id="path-3-inside-2_763_11646" fill="white">
<path d="M12 6C14.6887 6 16.8813 8.01963 16.9951 10.5518H17V18H7V10.5518H7.00586C7.11966 8.01967 9.3114 6.00005 12 6Z"/>
</mask>
<path d="M12 6L12 5L12 5L12 6ZM16.9951 10.5518L15.9961 10.5966L16.039 11.5518H16.9951V10.5518ZM17 10.5518H18V9.55176H17V10.5518ZM17 18V19H18V18H17ZM7 18H6V19H7V18ZM7 10.5518V9.55176H6V10.5518H7ZM7.00586 10.5518V11.5518H7.96193L8.00485 10.5967L7.00586 10.5518ZM12 6V7C14.1955 7 15.9082 8.63945 15.9961 10.5966L16.9951 10.5518L17.9941 10.5069C17.8545 7.39981 15.1818 5 12 5V6ZM16.9951 10.5518V11.5518H17V10.5518V9.55176H16.9951V10.5518ZM17 10.5518H16V18H17H18V10.5518H17ZM17 18V17H7V18V19H17V18ZM7 18H8V10.5518H7H6V18H7ZM7 10.5518V11.5518H7.00586V10.5518V9.55176H7V10.5518ZM7.00586 10.5518L8.00485 10.5967C8.09282 8.63926 9.80483 7.00004 12 7L12 6L12 5C8.81796 5.00005 6.1465 7.40008 6.00687 10.5069L7.00586 10.5518Z" fill="white" mask="url(#path-3-inside-2_763_11646)"/>
<path d="M18.8867 20.5L14.4424 15.5H9.55762L5.11328 20.5H18.8867Z" stroke="white"/>
<mask id="path-6-inside-3_763_11646" fill="white">
<path d="M12 9C13.4115 9 14.5594 10.1782 14.6191 11.6553H14.625V16H9.375V11.6553H9.38086C9.44064 10.1782 10.5885 9.00003 12 9Z"/>
</mask>
<path d="M12 9L12 8L12 8L12 9ZM14.6191 11.6553L13.62 11.6957L13.6588 12.6553H14.6191V11.6553ZM14.625 11.6553H15.625V10.6553H14.625V11.6553ZM14.625 16V17H15.625V16H14.625ZM9.375 16H8.375V17H9.375V16ZM9.375 11.6553V10.6553H8.375V11.6553H9.375ZM9.38086 11.6553V12.6553H10.3412L10.38 11.6957L9.38086 11.6553ZM12 9V10C12.8222 10 13.5797 10.7005 13.62 11.6957L14.6191 11.6553L15.6183 11.6148C15.539 9.65598 14.0008 8 12 8V9ZM14.6191 11.6553V12.6553H14.625V11.6553V10.6553H14.6191V11.6553ZM14.625 11.6553H13.625V16H14.625H15.625V11.6553H14.625ZM14.625 16V15H9.375V16V17H14.625V16ZM9.375 16H10.375V11.6553H9.375H8.375V16H9.375ZM9.375 11.6553V12.6553H9.38086V11.6553V10.6553H9.375V11.6553ZM9.38086 11.6553L10.38 11.6957C10.4203 10.7005 11.1778 10 12 10L12 9L12 8C9.99922 8.00004 8.46096 9.65598 8.38168 11.6148L9.38086 11.6553Z" fill="white" mask="url(#path-6-inside-3_763_11646)"/>
</svg>
