<?xml version="1.0" encoding="UTF-8"?>
<svg id="Layer_1" xmlns="http://www.w3.org/2000/svg" version="1.1"   width="50" height="50"  viewBox="0 0 64 64">
  <!-- Generator: Adobe Illustrator 29.5.1, SVG Export Plug-In . SVG Version: 2.1.0 Build 141)  -->
  <defs>
    <style>
      .st0 {
        fill: #fff;
      }
    </style>
  </defs>
  <path class="st0" d="M24.92,14.03l.05-.05c.87-.87,2.12-1.67,3.43-2.22,1.33-.55,2.59-.79,3.47-.71h.06s.06,0,.06,0c1.31,0,2.6.26,3.8.76,1.17.49,2.23,1.19,3.13,2.08l.09.09.05.05c.54.5,1.39.48,1.92-.04.53-.52.55-1.37.06-1.92l-.05-.05-.11-.11c-1.16-1.14-2.52-2.04-4.02-2.66-1.53-.63-3.16-.96-4.82-.97-1.48-.12-3.18.28-4.72.92-1.53.64-3.06,1.58-4.22,2.71l-.11.11c-.54.54-.54,1.43,0,1.97.53.53,1.37.54,1.92.04Z"/>
  <path class="st0" d="M32.14,13.93c-.88-.06-1.84.17-2.66.52-.83.35-1.68.87-2.33,1.51l-.06.06c-.54.55-.54,1.43,0,1.97.55.54,1.43.54,1.97,0l.07-.07c.36-.34.87-.66,1.42-.89.61-.25,1.12-.33,1.41-.31h.06s.06,0,.06,0c.56,0,1.12.11,1.64.33.52.22.99.53,1.38.93.54.55,1.42.55,1.97.01.55-.54.55-1.42.01-1.97-.65-.66-1.43-1.19-2.29-1.55-.84-.35-1.74-.54-2.65-.54Z"/>
  <path class="st0" d="M63.82,42.89l-13.78-6.83-12.87-6.56v-2.38c0-1.37-.54-2.68-1.51-3.65-.63-.63-1.42-1.06-2.26-1.3v-1.23c0-.77-.62-1.39-1.39-1.39s-1.39.62-1.39,1.39v1.24c-.84.24-1.63.67-2.26,1.3-.97.97-1.51,2.28-1.51,3.65v2.37l-12.88,6.56L.18,42.89v9.78h.02s0,.41,0,.41c0,.77.62,1.39,1.39,1.39s1.39-.62,1.39-1.39v-1.01l10.24-2.2v.61c0,.77.62,1.39,1.39,1.39s1.39-.62,1.39-1.39v-1.22l10.82-2.47v1.7c0,1.37.54,2.68,1.51,3.65.63.63,1.42,1.06,2.26,1.3v.92c0,.77.62,1.39,1.39,1.39s1.39-.62,1.39-1.39v-.92c.84-.24,1.63-.67,2.26-1.3.97-.97,1.51-2.28,1.51-3.65v-1.7l10.82,2.47v1.22c0,.77.62,1.39,1.39,1.39s1.39-.62,1.39-1.39v-.61l10.24,2.2v1.01c0,.77.62,1.39,1.39,1.39s1.39-.62,1.39-1.39v-.41h.02s0-9.77,0-9.77ZM13.2,47.02l-10.24,2.2v-4.61l10.24-5.07v7.48ZM26.66,43.97l-10.67,2.44v-8.25l10.79-5.5-.12,11.31ZM34.38,48.48c0,.63-.25,1.24-.7,1.68-.45.45-1.05.7-1.68.7s-1.24-.25-1.68-.7c-.45-.45-.7-1.05-.7-1.68v-21.35c0-.63.25-1.24.7-1.68.45-.45,1.05-.7,1.68-.7h.06c.61.02,1.19.26,1.63.7.43.43.68,1.02.7,1.63v.06s0,21.35,0,21.35ZM37.22,32.65l10.79,5.5v8.25l-10.67-2.44-.12-11.31ZM50.8,39.54l10.24,5.07v4.61l-10.24-2.2v-7.48Z"/>
</svg>