<?xml version="1.0" encoding="UTF-8"?>
<svg id="Layer_1" xmlns="http://www.w3.org/2000/svg" version="1.1"   width="50" height="50" viewBox="0 0 56.69 56.69">
  <!-- Generator: Adobe Illustrator 29.5.1, SVG Export Plug-In . SVG Version: 2.1.0 Build 141)  -->
  <defs>
    <style>
      .st0 {
        fill: #fff;
      }
    </style>
  </defs>
  <path class="st0" d="M23.68,40.47c.05-2.99.39-5.35,1.02-7.09s1.91-3.66,3.85-5.77l4.95-5.09c2.12-2.39,3.17-4.95,3.17-7.69s-.69-4.7-2.08-6.2c-1.39-1.49-3.4-2.24-6.05-2.24s-4.63.68-6.2,2.04-2.34,3.19-2.34,5.48h-6.99c.05-4.08,1.5-7.37,4.36-9.88S23.97.26,28.56.26s8.47,1.28,11.12,3.83c2.66,2.55,3.99,6.05,3.99,10.51s-2.04,8.74-6.12,13.01l-4.12,4.07c-1.84,2.04-2.76,4.97-2.76,8.79h-6.99ZM23.38,52.47c0-1.14.35-2.1,1.04-2.88s1.72-1.16,3.08-1.16,2.39.39,3.1,1.16,1.06,1.74,1.06,2.88-.35,2.09-1.06,2.85c-.71.75-1.74,1.12-3.1,1.12s-2.39-.37-3.08-1.12c-.69-.76-1.04-1.7-1.04-2.85Z"/>
</svg>