<svg width="24" height="24" viewBox="0 0 24 24" fill="none" xmlns="http://www.w3.org/2000/svg">
<rect x="5.5" y="9.5" width="13" height="12" rx="2.5" stroke="white"/>
<path d="M12.7088 5.37521L12.0001 4.66971L14.8221 1.83486L14.9709 1.69227C16.4873 0.316054 18.8068 0.310775 20.3294 1.68007L20.4789 1.82198C21.9956 3.33177 22.0487 5.75591 20.6337 7.32934L20.4918 7.47882L17.6698 10.3137L16.9611 9.60818L19.7831 6.77333C20.952 5.59909 20.9476 3.6996 19.7734 2.5307C18.5992 1.36179 16.6997 1.36612 15.5308 2.54035L12.7088 5.37521Z" fill="white"/>
<mask id="path-3-inside-1_681_2762" fill="white">
<path d="M11.9668 11C12.8307 11 13.5313 11.7006 13.5313 12.5645V14.4541C14.1634 14.9297 14.5741 15.6842 14.5742 16.5361C14.5742 17.9759 13.4066 19.1436 11.9668 19.1436C10.5271 19.1435 9.36035 17.9759 9.36035 16.5361C9.36046 15.6842 9.7703 14.9297 10.4023 14.4541V12.5645C10.4023 11.7006 11.103 11.0001 11.9668 11Z"/>
</mask>
<path d="M11.9668 11V10H11.9667L11.9668 11ZM13.5313 12.5645H12.5313H13.5313ZM13.5313 14.4541H12.5313V14.9531L12.93 15.2532L13.5313 14.4541ZM14.5742 16.5361H15.5742V16.536L14.5742 16.5361ZM11.9668 19.1436L11.9668 20.1436H11.9668V19.1436ZM9.36035 16.5361L8.36035 16.536V16.5361H9.36035ZM10.4023 14.4541L11.0036 15.2531L11.4023 14.9531V14.4541H10.4023ZM10.4023 12.5645H9.40234H10.4023ZM11.9668 11V12C12.2784 12 12.5313 12.2529 12.5313 12.5645H13.5313H14.5313C14.5313 11.1483 13.3829 10 11.9668 10V11ZM13.5313 12.5645H12.5313V14.4541H13.5313H14.5313V12.5645H13.5313ZM13.5313 14.4541L12.93 15.2532C13.3239 15.5496 13.5742 16.0142 13.5742 16.5363L14.5742 16.5361L15.5742 16.536C15.5741 15.3541 15.0028 14.3099 14.1325 13.655L13.5313 14.4541ZM14.5742 16.5361H13.5742C13.5742 17.4236 12.8543 18.1436 11.9668 18.1436V19.1436V20.1436C13.9588 20.1436 15.5742 18.5282 15.5742 16.5361H14.5742ZM11.9668 19.1436L11.9668 18.1436C11.0798 18.1435 10.3604 17.424 10.3604 16.5361H9.36035H8.36035C8.36035 18.5277 9.97433 20.1435 11.9668 20.1436L11.9668 19.1436ZM9.36035 16.5361L10.3604 16.5363C10.3604 16.0135 10.6104 15.5491 11.0036 15.2531L10.4023 14.4541L9.80106 13.6551C8.93022 14.3104 8.36051 15.355 8.36035 16.536L9.36035 16.5361ZM10.4023 14.4541H11.4023V12.5645H10.4023H9.40234V14.4541H10.4023ZM10.4023 12.5645H11.4023C11.4023 12.253 11.6552 12 11.9669 12L11.9668 11L11.9667 10C10.5508 10.0001 9.40234 11.1483 9.40234 12.5645H10.4023Z" fill="white" mask="url(#path-3-inside-1_681_2762)"/>
</svg>
