<?xml version="1.0" encoding="UTF-8"?>
<svg id="Layer_1" xmlns="http://www.w3.org/2000/svg" version="1.1"    width="50" height="50"   viewBox="0 0 65.32 45">
  <!-- Generator: Adobe Illustrator 29.5.1, SVG Export Plug-In . SVG Version: 2.1.0 Build 141)  -->
  <path d="M14.07.37c-.38.36-.54.86-.54,1.71v.52l-1.65.05c-1.56.04-1.67.07-2.03.4-.67.64-.42,1.86.46,2.17.2.07,1,.13,1.79.13h1.43v6.4l-.47.07c-.26.04-10.66,1.39-10.96,1.46-.82.2-1.64.97-1.9,1.8-.28.89-.28,2.85,0,3.74.26.82,1.06,1.58,1.89,1.8.36.09,11.43.15,11.43.15v8.99l-1.65.05c-1.56.04-1.67.07-2.03.4-.67.64-.42,1.86.46,2.17.2.07,1,.13,1.77.13h1.41l.1.61c.15.95.96,1.45,1.88,1.16.63-.2.93-.6.93-1.26v-.52h1.66c.94,0,1.8-.07,1.98-.15,1.08-.53,1.08-1.9,0-2.42-.18-.09-1.03-.15-1.98-.15h-1.66v-9.01h11.19l.08.72c.04.39.21,2.25.38,4.13.32,3.71.9,8.8,1.22,10.85.11.71.19,1.3.17,1.32-.02,0-2.03.37-4.49.79-5.24.9-5.37.93-5.83,1.39-.34.34-.35.43-.35,2.22,0,2.06.15,2.52.92,2.72.21.06,6.2.1,13.33.1,13.95,0,13.49.02,13.84-.7.09-.19.16-1.11.16-2.15,0-2.04-.14-2.39-1.04-2.65-.26-.07-2.53-.49-5.06-.92-2.53-.43-4.61-.79-4.62-.8,0,0,.1-.8.24-1.76.49-3.33,1.56-13.56,1.57-15.01,0-.22.34-.24,5.03-.24h5.03v8.99l-1.65.05c-1.56.04-1.67.07-2.03.4-.67.64-.42,1.86.46,2.17.2.07,1,.13,1.77.13h1.41l.08.56c.15,1.04,1.08,1.57,2.02,1.15.54-.24.82-.69.82-1.31v-.4h1.66c.94,0,1.8-.07,1.98-.15,1.08-.53,1.08-1.9,0-2.42-.18-.09-1.04-.15-1.98-.15h-1.66v-9.01s11.92-.05,12.26-.16c.73-.23,1.39-.75,1.71-1.35.41-.76.41-3.74.01-4.59-.26-.54-.92-1.12-1.52-1.35-.16-.06-12.39-1.64-12.39-1.64l-.04-3.17-.04-3.17h1.66c.94,0,1.8-.07,1.98-.15,1.08-.53,1.08-1.9,0-2.42-.18-.09-1.04-.15-1.98-.15h-1.66v-.9c0-.81-.04-.94-.42-1.3-.32-.3-.55-.4-.97-.4-.98,0-1.48.62-1.48,1.82v.75l-1.65.05c-1.56.04-1.67.07-2.03.4-.67.64-.42,1.86.46,2.17.2.07,1,.13,1.79.13h1.43v6.09l-4.92-.44c-2.71-.24-4.94-.45-4.96-.45s-.04-.98-.04-2.16c0-3.75-.59-5.22-2.6-6.45-2.64-1.62-6.13-.63-7.48,2.13-.52,1.05-.67,2.12-.68,4.66,0,1.76-.01,1.81-.33,1.87-.34.07-10.06.9-10.49.9-.23,0-.25-.24-.25-3.07v-3.07h1.66c.94,0,1.8-.07,1.98-.15,1.08-.53,1.08-1.9,0-2.42-.18-.09-1.03-.15-1.98-.15h-1.66v-.88c0-.74-.06-.94-.37-1.3-.5-.56-1.41-.6-1.96-.08v-.02ZM33.78,4.05c.59.29,1.27,1.08,1.44,1.68.24.82.19,12.5-.07,16.01-.41,5.54-1.31,13.54-1.79,15.95-.24,1.2-.19,1.6.25,2.07.39.41.48.43,5.49,1.3,2.8.48,5.12.88,5.15.88s0,.06-.04.14c-.12.18-22.64.19-22.64,0,0-.15-.21-.11,5.25-1.04,2.45-.42,4.64-.82,4.86-.91.22-.09.51-.3.63-.48.26-.38.23-.84-.3-4.48-.38-2.55-.91-7.41-1.32-11.87-.3-3.28-.46-15.64-.23-17.05.11-.69.27-1.08.57-1.43.74-.89,1.87-1.2,2.75-.77h0ZM27.47,15.66v2.39l-5.5-.04-5.5-.04-.04-1.81c-.03-1.38,0-1.83.14-1.87.1-.03,2.58-.27,5.5-.53,2.92-.26,5.33-.47,5.35-.48.02,0,.04,1.06.04,2.37h.01ZM48.13,14.21s.04.87.04,1.92v1.91h-9.77v-4.72l4.85.44c2.67.24,4.87.44,4.89.45h0ZM13.53,16.27v1.77H3.01v-1.09c0-1.04.02-1.09.32-1.1.18,0,9.92-1.33,10.02-1.34.14-.01.18.42.18,1.76ZM62.3,15.86c.07,0,.13.49.13,1.09v1.09h-11.38v-3.55h.36c.2,0,10.83,1.36,10.9,1.36h0Z" fill="#fff" fill-rule="evenodd"/>
</svg>