<svg   width="50" height="50"  viewBox="0 0 52 37" fill="none" xmlns="http://www.w3.org/2000/svg">
<path d="M18.3018 0.00488281C18.3683 0.0116264 18.433 0.0247822 18.4951 0.0439453C18.4981 0.0448554 18.501 0.0459384 18.5039 0.046875C18.56 0.0647808 18.6137 0.0881666 18.665 0.115234C18.678 0.122041 18.6905 0.12937 18.7031 0.136719C18.7177 0.145218 18.732 0.153886 18.7461 0.163086C18.7578 0.170762 18.7689 0.17935 18.7803 0.1875C18.7945 0.19768 18.8086 0.207857 18.8223 0.21875C18.8317 0.22627 18.8414 0.233361 18.8506 0.241211C18.8653 0.253832 18.8796 0.266832 18.8936 0.280273C18.9037 0.290026 18.9132 0.300379 18.9229 0.310547C18.9335 0.321728 18.944 0.333061 18.9541 0.344727C18.9641 0.356244 18.9739 0.367911 18.9834 0.379883C18.9945 0.393919 19.0053 0.408219 19.0156 0.422852C19.0223 0.432209 19.0288 0.44158 19.0352 0.451172C19.0465 0.468371 19.0571 0.485989 19.0674 0.503906C19.0735 0.514522 19.0793 0.525277 19.085 0.536133C19.0939 0.553131 19.1024 0.570334 19.1104 0.587891C19.1146 0.597308 19.1191 0.606641 19.123 0.616211C19.131 0.63538 19.1377 0.655055 19.1445 0.674805C19.1594 0.717907 19.1718 0.762076 19.1807 0.807617C19.1928 0.869923 19.2002 0.934145 19.2002 1V3.7666H32.2773V1C32.2773 0.95123 32.2813 0.903348 32.2881 0.856445C32.295 0.808403 32.3049 0.761406 32.3184 0.71582C32.3322 0.668978 32.3499 0.623778 32.3701 0.580078C32.378 0.563 32.3857 0.545837 32.3945 0.529297C32.3992 0.52053 32.4052 0.512515 32.4102 0.503906C32.4204 0.485983 32.4311 0.468376 32.4424 0.451172C32.4487 0.441579 32.4553 0.43221 32.4619 0.422852C32.492 0.38044 32.5244 0.339903 32.5605 0.302734C32.5681 0.294977 32.5762 0.287783 32.584 0.280273C32.5996 0.265235 32.6153 0.250336 32.6318 0.236328C32.6391 0.230188 32.6469 0.224685 32.6543 0.21875C32.6688 0.207167 32.6831 0.195348 32.6982 0.18457C32.7088 0.17709 32.7197 0.170164 32.7305 0.163086C32.7483 0.151405 32.7666 0.140431 32.7852 0.129883C32.792 0.126002 32.7987 0.121887 32.8057 0.118164C32.8584 0.089853 32.9138 0.0654447 32.9717 0.046875C32.9746 0.045934 32.9775 0.0448598 32.9805 0.0439453C33.0428 0.0246004 33.1079 0.0116936 33.1748 0.00488281L33.2773 0H42.1094L42.2109 0.00488281C42.2775 0.0116264 42.3422 0.0247822 42.4043 0.0439453C42.4072 0.0448554 42.4101 0.0459384 42.4131 0.046875C42.4692 0.0647808 42.5229 0.0881666 42.5742 0.115234C42.5871 0.122041 42.5997 0.12937 42.6123 0.136719C42.6268 0.145218 42.6412 0.153886 42.6553 0.163086C42.667 0.170762 42.6781 0.17935 42.6895 0.1875C42.7037 0.19768 42.7178 0.207857 42.7314 0.21875C42.7409 0.22627 42.7506 0.233361 42.7598 0.241211C42.7745 0.253832 42.7888 0.266832 42.8027 0.280273C42.8129 0.290026 42.8223 0.300379 42.832 0.310547C42.8427 0.321728 42.8531 0.333061 42.8633 0.344727C42.8733 0.356244 42.8831 0.367911 42.8926 0.379883C42.9037 0.393919 42.9144 0.408219 42.9248 0.422852C42.9314 0.432209 42.938 0.44158 42.9443 0.451172C42.9557 0.468371 42.9663 0.485989 42.9766 0.503906C42.9826 0.514522 42.9884 0.525277 42.9941 0.536133C43.0017 0.550562 43.0087 0.565245 43.0156 0.580078C43.0212 0.592092 43.0271 0.603944 43.0322 0.616211C43.0402 0.63538 43.0469 0.655055 43.0537 0.674805C43.0686 0.717907 43.081 0.762076 43.0898 0.807617C43.102 0.869923 43.1094 0.934145 43.1094 1V3.7666H48.4062L48.5605 3.77051C50.1453 3.85105 51.406 5.16184 51.4062 6.7666V33.0449L51.4023 33.1992C51.3245 34.733 50.0943 35.9631 48.5605 36.041L48.4062 36.0449H3L2.8457 36.041C1.31198 35.9631 0.0817497 34.733 0.00390625 33.1992L0 33.0449V6.7666C0.00020714 5.16183 1.2609 3.85104 2.8457 3.77051L3 3.7666H8.36816V1C8.36817 0.95123 8.37216 0.903348 8.37891 0.856445C8.38582 0.808403 8.3957 0.761406 8.40918 0.71582C8.42304 0.668978 8.44067 0.623778 8.46094 0.580078C8.46885 0.563 8.47652 0.545837 8.48535 0.529297C8.50415 0.494116 8.52513 0.460246 8.54785 0.427734C8.57892 0.38325 8.61365 0.341525 8.65137 0.302734C8.65779 0.296135 8.6643 0.289624 8.6709 0.283203C8.68758 0.266963 8.70488 0.251381 8.72266 0.236328C8.72794 0.231861 8.73291 0.227015 8.73828 0.222656C8.7547 0.209329 8.77181 0.196853 8.78906 0.18457C8.79899 0.177509 8.80915 0.170766 8.81934 0.164062C8.83774 0.151946 8.85675 0.140789 8.87598 0.129883C8.88282 0.126002 8.88954 0.121887 8.89648 0.118164C8.94926 0.089853 9.00459 0.0654447 9.0625 0.046875C9.06544 0.045934 9.06834 0.0448598 9.07129 0.0439453C9.13362 0.0246004 9.19874 0.0116936 9.26562 0.00488281L9.36816 0H18.2002L18.3018 0.00488281ZM3 33.0449H48.4062V6.7666H3V33.0449ZM16.7686 13.292C17.3467 13.292 17.8571 13.3727 18.2998 13.5342C18.7477 13.6956 19.1227 13.9222 19.4248 14.2139C19.7216 14.5055 19.9483 14.8572 20.1045 15.2686C20.2607 15.6747 20.3389 16.1255 20.3389 16.6201C20.3388 16.995 20.2789 17.3546 20.1592 17.6982C20.0446 18.0366 19.8804 18.3729 19.667 18.7061C19.4483 19.0393 19.1877 19.3807 18.8857 19.7295C18.5837 20.0732 18.2476 20.4353 17.8779 20.8154L15.7373 23.0811H20.7295V24.8232H12.9717V23.3389L16.6514 19.3857C16.9377 19.0734 17.1801 18.7893 17.3779 18.5342C17.5757 18.2791 17.7373 18.0445 17.8623 17.8311C17.982 17.6229 18.068 17.4273 18.1201 17.2451C18.1774 17.063 18.206 16.8856 18.2061 16.7139C18.2061 16.4588 18.1695 16.232 18.0967 16.0342C18.0238 15.8364 17.9221 15.667 17.792 15.5264C17.6566 15.391 17.4951 15.2868 17.3076 15.2139C17.1253 15.141 16.9222 15.1045 16.6982 15.1045C16.4066 15.1045 16.1487 15.1462 15.9248 15.2295C15.7061 15.3076 15.5237 15.4249 15.3779 15.5811C15.227 15.7425 15.1123 15.9432 15.0342 16.1826C14.9561 16.4221 14.917 16.6958 14.917 17.0029H12.7373C12.7373 16.4979 12.8338 16.021 13.0264 15.5732C13.219 15.1202 13.4926 14.7242 13.8467 14.3857C14.1956 14.0472 14.6176 13.7816 15.1123 13.5889C15.6123 13.391 16.1644 13.292 16.7686 13.292ZM28.9414 20.5967H30.2617V22.3545H28.9414V24.8232H26.7695V22.3545H22.043L21.957 20.9951L26.7383 13.4482H28.9414V20.5967ZM35.3945 20.8779L35.5898 21.6436L35.8008 20.8701L37.7383 13.4482H40.1602L36.7148 24.8232H34.4805L31.043 13.4482H33.4648L35.3945 20.8779ZM26.5586 16.7451L24.0898 20.5967H26.7695V16.3701L26.5586 16.7451Z" fill="white"/>
</svg>
