<svg width="50" height="50" viewBox="0 0 58 58" fill="none" xmlns="http://www.w3.org/2000/svg">
<path d="M21.825 8.4375C21.825 6.99377 21.8215 6.06032 21.7291 5.37244C21.6642 4.88963 21.5703 4.65332 21.4793 4.51829L21.3892 4.4108C21.276 4.29756 21.0727 4.15762 20.4276 4.07088C20.0836 4.0247 19.6782 4.00187 19.1783 3.98953L17.3625 3.97501H8.4375C6.99377 3.97501 6.06032 3.97852 5.37244 4.07088C4.88963 4.13579 4.65332 4.22969 4.51829 4.32073L4.4108 4.4108C4.29756 4.52403 4.15762 4.72726 4.07088 5.37244C3.97852 6.06032 3.97501 6.99377 3.97501 8.4375V17.3625L3.98953 19.1783C4.00187 19.6782 4.0247 20.0836 4.07088 20.4276C4.15762 21.0727 4.29756 21.276 4.4108 21.3892L4.51829 21.4793C4.65332 21.5703 4.88963 21.6642 5.37244 21.7291C6.06032 21.8215 6.99377 21.825 8.4375 21.825H17.3625C18.8062 21.825 19.7397 21.8215 20.4276 21.7291C21.0727 21.6424 21.276 21.5024 21.3892 21.3892L21.4793 21.2817C21.5703 21.1467 21.6642 20.9104 21.7291 20.4276C21.8215 19.7397 21.825 18.8062 21.825 17.3625V8.4375ZM24.8 17.3625C24.8 18.7229 24.8033 19.8933 24.678 20.8256C24.5632 21.6788 24.3234 22.502 23.757 23.2021L23.4926 23.4926C22.7346 24.2506 21.8005 24.5468 20.8256 24.678C19.8933 24.8033 18.7229 24.8 17.3625 24.8H8.4375C7.07713 24.8 5.90671 24.8033 4.97442 24.678C4.12121 24.5632 3.298 24.3234 2.59791 23.757L2.30738 23.4926C1.54938 22.7346 1.25316 21.8005 1.12203 20.8256C1.05934 20.3593 1.02941 19.8331 1.01453 19.2538L1.00001 17.3625V8.4375C1.00001 7.07713 0.996687 5.90671 1.12203 4.97442C1.25316 3.99951 1.54938 3.06538 2.30738 2.30738L2.59791 2.043C3.298 1.47658 4.12121 1.23679 4.97442 1.12203C5.90671 0.996687 7.07713 1.00001 8.4375 1.00001H17.3625L19.2538 1.01453C19.8331 1.02941 20.3593 1.05934 20.8256 1.12203C21.8005 1.25316 22.7346 1.54938 23.4926 2.30738L23.757 2.59791C24.3234 3.298 24.5632 4.12121 24.678 4.97442C24.8033 5.90671 24.8 7.07713 24.8 8.4375V17.3625Z" fill="white"/>
<path d="M23.7989 7.45121C23.7947 6.67408 23.7792 6.00732 23.7246 5.43753L23.6866 5.10746C23.5849 4.3518 23.387 3.73628 22.9873 3.23734L22.7784 3.00882C22.3059 2.5394 21.7227 2.29446 21.0078 2.16312L20.6924 2.11331C20.2783 2.05764 19.7932 2.02919 19.2285 2.01468L17.3545 2.00003H8.43753C7.22296 2.00003 6.23521 1.99883 5.43753 2.07523L5.10745 2.11331C4.35207 2.21495 3.73618 2.41218 3.23734 2.81156L3.00882 3.02054C2.53905 3.4931 2.29452 4.07701 2.16312 4.79203L2.11331 5.10746C1.99898 5.95782 2.00003 7.04972 2.00003 8.43753V17.3545L2.01468 19.2285L2.02835 19.6368C2.04515 20.031 2.07154 20.3817 2.11331 20.6924L2.16312 21.0078C2.29445 21.7227 2.53939 22.3059 3.00882 22.7784L3.23734 22.9873C3.73628 23.387 4.35179 23.5849 5.10745 23.6866L5.43753 23.7246C6.23521 23.801 7.22296 23.7998 8.43753 23.7998L18.3487 23.7989C19.2811 23.7938 20.0546 23.7723 20.6924 23.6866L21.0078 23.6368C21.7229 23.5054 22.3058 23.2599 22.7784 22.7901L22.9873 22.5616C23.3867 22.0627 23.5849 21.4478 23.6866 20.6924L23.7246 20.3623C23.801 19.5647 23.7998 18.5768 23.7998 17.3623L23.7989 7.45121ZM20.8233 7.44339C20.8188 6.70192 20.8044 6.16608 20.7647 5.74515L20.7383 5.50589C20.713 5.31799 20.6842 5.20261 20.6651 5.13675C20.5985 5.11696 20.4828 5.08694 20.294 5.06156C20.0043 5.02271 19.6414 5.00133 19.1534 4.98929L17.3545 4.97464H8.43753C7.14899 4.97464 6.33442 4.97964 5.74515 5.03519L5.50589 5.06156C5.31828 5.08678 5.20266 5.11467 5.13675 5.13382C5.12402 5.17643 5.10639 5.2391 5.08987 5.32914L5.06155 5.50589C4.98028 6.11156 4.97464 6.96515 4.97464 8.43753V17.3545L4.98929 19.1534L5.01566 19.7989C5.02746 19.9864 5.04215 20.1493 5.06155 20.294L5.08987 20.4717C5.1062 20.5606 5.12411 20.6226 5.13675 20.6651C5.2026 20.6842 5.31798 20.7131 5.50589 20.7383L5.74515 20.7647C6.33442 20.8202 7.14897 20.8252 8.43753 20.8252H17.3623L18.3565 20.8233C19.246 20.8179 19.8397 20.7993 20.294 20.7383L20.4717 20.71C20.5608 20.6936 20.6226 20.6748 20.6651 20.6621C20.6842 20.5961 20.7132 20.4809 20.7383 20.294C20.8196 19.6883 20.8252 18.8346 20.8252 17.3623V8.43753L20.8233 7.44339ZM22.8252 17.3623C22.8252 18.777 22.8241 19.7905 22.7207 20.5606C22.6472 21.1074 22.5246 21.5206 22.3086 21.8409L22.2793 21.8838L22.2461 21.9239L22.1553 22.0313L22.128 22.0655L22.0967 22.0967C21.7671 22.4264 21.3174 22.618 20.5606 22.7198C19.983 22.7973 19.2686 22.818 18.3506 22.8233L17.3623 22.8252H8.43753C7.02278 22.8252 6.00935 22.8241 5.23929 22.7207C4.76083 22.6564 4.38508 22.5539 4.08401 22.3848L3.95901 22.3086L3.91605 22.2793L3.87601 22.2461L3.76859 22.1553L3.73441 22.128L3.70413 22.0967C3.41561 21.8082 3.23161 21.4279 3.1221 20.8301L3.08011 20.5606C3.02666 20.1625 3.00288 19.7144 2.99026 19.2032L2.98929 19.1944V19.1866L2.97464 17.3702V8.43753C2.97464 7.02278 2.97672 6.00935 3.08011 5.23929L3.1221 4.96976C3.23161 4.37211 3.41564 3.99263 3.70413 3.70414L3.73441 3.67289L3.76859 3.64456L3.87601 3.55472L3.91605 3.52054L3.95901 3.49124C4.27931 3.2753 4.69248 3.15363 5.23929 3.08011L5.54007 3.04593C6.26922 2.97642 7.19971 2.97464 8.43753 2.97464H17.3701L19.1866 2.98929H19.1944L19.2032 2.99027C19.5864 2.99972 19.9342 3.01513 20.252 3.04496L20.5606 3.08011L20.8301 3.1221C21.3424 3.21595 21.6949 3.36392 21.9668 3.58597L22.0967 3.70414L22.128 3.73441L22.1553 3.76859L22.2461 3.87601L22.2793 3.91605L22.3086 3.95902C22.5246 4.27932 22.6462 4.69248 22.7198 5.23929L22.7549 5.54007C22.8244 6.26922 22.8252 7.19975 22.8252 8.43753V17.3623ZM25.7998 17.3623C25.7998 18.5285 25.8042 19.6307 25.7139 20.5674L25.669 20.959C25.5418 21.9045 25.2618 22.9317 24.5342 23.8311L24.5166 23.8535L24.2325 24.166L24.2168 24.1827L24.2002 24.2002C23.3474 25.0531 22.3367 25.4257 21.3701 25.6035L20.959 25.669C20.1983 25.7713 19.3051 25.794 18.3438 25.7989L8.43753 25.7998C7.2713 25.7998 6.16918 25.8042 5.23245 25.7139L4.84085 25.669C3.9545 25.5497 2.99601 25.2968 2.1387 24.666L1.96878 24.5342L1.94632 24.5166L1.92484 24.4971L1.6348 24.2325L1.61722 24.2168L1.60062 24.2002C0.747768 23.3474 0.374205 22.3367 0.19632 21.3702L0.13089 20.959C0.0612036 20.4407 0.029924 19.8731 0.0146791 19.2793V19.2618L3.06266e-05 17.3702V8.43753C3.06187e-05 7.1046 -0.00546794 5.85507 0.13089 4.84085L0.19632 4.42972C0.374219 3.46325 0.747823 2.45341 1.60062 1.60062L1.61722 1.58402L1.6348 1.56742L1.94632 1.28421L1.96878 1.26566C2.86807 0.538067 3.89542 0.258084 4.84085 0.130893L5.23245 0.0859712C6.16918 -0.00431881 7.27131 3.36487e-05 8.43753 3.36559e-05H17.3701L19.2617 0.0146821H19.2793C19.873 0.029927 20.4407 0.0612066 20.959 0.130893L21.3701 0.196323C22.2676 0.361504 23.2028 0.695136 24.0147 1.42484L24.2002 1.60062L24.2168 1.61722L24.2325 1.6348L24.4971 1.92484L24.5166 1.94632L24.5342 1.96878C25.2618 2.86806 25.5418 3.89543 25.669 4.84085L25.7139 5.23246C25.8042 6.16918 25.7998 7.2713 25.7998 8.43753V17.3623Z" fill="white"/>
<path d="M21.825 40.6375C21.825 39.1937 21.8215 38.2603 21.7291 37.5724C21.6642 37.0896 21.5703 36.8533 21.4793 36.7182L21.3892 36.6107C21.276 36.4975 21.0727 36.3576 20.4276 36.2708C20.0836 36.2246 19.6782 36.2018 19.1783 36.1895L17.3625 36.175H8.4375C6.99377 36.175 6.06032 36.1785 5.37244 36.2708C4.88963 36.3357 4.65332 36.4296 4.51829 36.5207L4.4108 36.6107C4.29756 36.724 4.15762 36.9272 4.07088 37.5724C3.97852 38.2603 3.97501 39.1937 3.97501 40.6375V49.5624L3.98953 51.3782C4.00187 51.8782 4.0247 52.2835 4.07088 52.6275C4.15762 53.2727 4.29756 53.4759 4.4108 53.5892L4.51829 53.6792C4.65332 53.7703 4.88963 53.8642 5.37244 53.9291C6.06032 54.0214 6.99377 54.0249 8.4375 54.0249H17.3625C18.8062 54.0249 19.7397 54.0214 20.4276 53.9291C21.0727 53.8423 21.276 53.7024 21.3892 53.5892L21.4793 53.4817C21.5703 53.3466 21.6642 53.1103 21.7291 52.6275C21.8215 51.9396 21.825 51.0062 21.825 49.5624V40.6375ZM24.8 49.5624C24.8 50.9228 24.8033 52.0932 24.678 53.0255C24.5632 53.8787 24.3234 54.702 23.757 55.402L23.4926 55.6926C22.7346 56.4506 21.8005 56.7468 20.8256 56.8779C19.8933 57.0033 18.7229 56.9999 17.3625 56.9999H8.4375C7.07713 56.9999 5.90671 57.0033 4.97442 56.8779C4.12121 56.7632 3.298 56.5234 2.59791 55.957L2.30738 55.6926C1.54938 54.9346 1.25316 54.0004 1.12203 53.0255C1.05934 52.5593 1.02941 52.033 1.01453 51.4538L1.00001 49.5624V40.6375C1.00001 39.2771 0.996687 38.1067 1.12203 37.1744C1.25316 36.1995 1.54938 35.2653 2.30738 34.5073L2.59791 34.243C3.298 33.6765 4.12121 33.4367 4.97442 33.322C5.90671 33.1966 7.07713 33.2 8.4375 33.2H17.3625L19.2538 33.2145C19.8331 33.2294 20.3593 33.2593 20.8256 33.322C21.8005 33.4531 22.7346 33.7493 23.4926 34.5073L23.757 34.7979C24.3234 35.4979 24.5632 36.3212 24.678 37.1744C24.8033 38.1067 24.8 39.2771 24.8 40.6375V49.5624Z" fill="white"/>
<path d="M23.7989 39.6512C23.7947 38.874 23.7792 38.2073 23.7246 37.6375L23.6866 37.3074C23.5849 36.5517 23.387 35.9362 22.9873 35.4373L22.7784 35.2088C22.3059 34.7393 21.7227 34.4944 21.0078 34.3631L20.6924 34.3133C20.2783 34.2576 19.7932 34.2291 19.2285 34.2146L17.3545 34.2H8.43753C7.22296 34.2 6.23521 34.1988 5.43753 34.2752L5.10745 34.3133C4.35207 34.4149 3.73618 34.6121 3.23734 35.0115L3.00882 35.2205C2.53905 35.6931 2.29452 36.277 2.16312 36.992L2.11331 37.3074C1.99898 38.1578 2.00003 39.2497 2.00003 40.6375V49.5545L2.01468 51.4285L2.02835 51.8367C2.04515 52.2309 2.07154 52.5816 2.11331 52.8924L2.16312 53.2078C2.29445 53.9226 2.53939 54.5058 3.00882 54.9783L3.23734 55.1873C3.73628 55.587 4.35179 55.7848 5.10745 55.8865L5.43753 55.9246C6.23521 56.001 7.22296 55.9998 8.43753 55.9998L18.3487 55.9988C19.2811 55.9938 20.0546 55.9723 20.6924 55.8865L21.0078 55.8367C21.7229 55.7053 22.3058 55.4598 22.7784 54.99L22.9873 54.7615C23.3867 54.2627 23.5849 53.6478 23.6866 52.8924L23.7246 52.5623C23.801 51.7646 23.7998 50.7768 23.7998 49.5623L23.7989 39.6512ZM20.8233 39.6433C20.8188 38.9019 20.8044 38.366 20.7647 37.9451L20.7383 37.7058C20.713 37.5179 20.6842 37.4026 20.6651 37.3367C20.5985 37.3169 20.4828 37.2869 20.294 37.2615C20.0043 37.2227 19.6414 37.2013 19.1534 37.1892L17.3545 37.1746H8.43753C7.14899 37.1746 6.33442 37.1796 5.74515 37.2351L5.50589 37.2615C5.31828 37.2867 5.20266 37.3146 5.13675 37.3338C5.12402 37.3764 5.10639 37.439 5.08987 37.5291L5.06155 37.7058C4.98028 38.3115 4.97464 39.1651 4.97464 40.6375V49.5545L4.98929 51.3533L5.01566 51.9988C5.02746 52.1864 5.04215 52.3493 5.06155 52.4939L5.08987 52.6717C5.1062 52.7605 5.12411 52.8226 5.13675 52.865C5.2026 52.8842 5.31798 52.913 5.50589 52.9383L5.74515 52.9646C6.33442 53.0202 7.14897 53.0252 8.43753 53.0252H17.3623L18.3565 53.0232C19.246 53.0178 19.8397 52.9992 20.294 52.9383L20.4717 52.9099C20.5608 52.8936 20.6226 52.8747 20.6651 52.8621C20.6842 52.7961 20.7132 52.6808 20.7383 52.4939C20.8196 51.8883 20.8252 51.0345 20.8252 49.5623V40.6375L20.8233 39.6433ZM22.8252 49.5623C22.8252 50.977 22.8241 51.9905 22.7207 52.7605C22.6472 53.3073 22.5246 53.7205 22.3086 54.0408L22.2793 54.0838L22.2461 54.1238L22.1553 54.2312L22.128 54.2654L22.0967 54.2967C21.7671 54.6263 21.3174 54.818 20.5606 54.9197C19.983 54.9972 19.2686 55.018 18.3506 55.0232L17.3623 55.0252H8.43753C7.02278 55.0252 6.00935 55.0241 5.23929 54.9207C4.76083 54.8564 4.38508 54.7538 4.08401 54.5848L3.95901 54.5086L3.91605 54.4793L3.87601 54.4461L3.76859 54.3553L3.73441 54.3279L3.70413 54.2967C3.41561 54.0081 3.23161 53.6278 3.1221 53.0301L3.08011 52.7605C3.02666 52.3624 3.00288 51.9144 2.99026 51.4031L2.98929 51.3943V51.3865L2.97464 49.5701V40.6375C2.97464 39.2227 2.97672 38.2093 3.08011 37.4392L3.1221 37.1697C3.23161 36.5721 3.41564 36.1926 3.70413 35.9041L3.73441 35.8728L3.76859 35.8445L3.87601 35.7547L3.91605 35.7205L3.95901 35.6912C4.27931 35.4752 4.69248 35.3536 5.23929 35.2801L5.54007 35.2459C6.26922 35.1764 7.19971 35.1746 8.43753 35.1746H17.3701L19.1866 35.1892H19.1944L19.2032 35.1902C19.5864 35.1997 19.9342 35.2151 20.252 35.2449L20.5606 35.2801L20.8301 35.3221C21.3424 35.4159 21.6949 35.5639 21.9668 35.7859L22.0967 35.9041L22.128 35.9344L22.1553 35.9685L22.2461 36.076L22.2793 36.116L22.3086 36.159C22.5246 36.4793 22.6462 36.8924 22.7198 37.4392L22.7549 37.74C22.8244 38.4692 22.8252 39.3997 22.8252 40.6375V49.5623ZM25.7998 49.5623C25.7998 50.7284 25.8042 51.8307 25.7139 52.7674L25.669 53.159C25.5418 54.1044 25.2618 55.1317 24.5342 56.031L24.5166 56.0535L24.2325 56.366L24.2168 56.3826L24.2002 56.4002C23.3474 57.253 22.3367 57.6256 21.3701 57.8035L20.959 57.8689C20.1983 57.9712 19.3051 57.994 18.3438 57.9988L8.43753 57.9998C7.2713 57.9998 6.16918 58.0041 5.23245 57.9139L4.84085 57.8689C3.9545 57.7497 2.99601 57.4967 2.1387 56.866L1.96878 56.7342L1.94632 56.7166L1.92484 56.6971L1.6348 56.4324L1.61722 56.4168L1.60062 56.4002C0.747768 55.5473 0.374205 54.5366 0.19632 53.5701L0.13089 53.159C0.0612036 52.6406 0.029924 52.073 0.0146791 51.4793V51.4617L3.06266e-05 49.5701V40.6375C3.06187e-05 39.3046 -0.00546794 38.055 0.13089 37.0408L0.19632 36.6297C0.374219 35.6632 0.747823 34.6534 1.60062 33.8006L1.61722 33.784L1.6348 33.7674L1.94632 33.4842L1.96878 33.4656C2.86807 32.738 3.89542 32.458 4.84085 32.3308L5.23245 32.2859C6.16918 32.1956 7.27131 32.2 8.43753 32.2H17.3701L19.2617 32.2146H19.2793C19.873 32.2299 20.4407 32.2612 20.959 32.3308L21.3701 32.3963C22.2676 32.5615 23.2028 32.8951 24.0147 33.6248L24.2002 33.8006L24.2168 33.8172L24.2325 33.8348L24.4971 34.1248L24.5166 34.1463L24.5342 34.1687C25.2618 35.068 25.5418 36.0954 25.669 37.0408L25.7139 37.4324C25.8042 38.3691 25.7998 39.4713 25.7998 40.6375V49.5623Z" fill="white"/>
<path d="M54.0249 8.4375C54.0249 6.99377 54.0214 6.06032 53.9291 5.37244C53.8642 4.88963 53.7703 4.65332 53.6792 4.51829L53.5892 4.4108C53.4759 4.29756 53.2727 4.15762 52.6275 4.07088C52.2835 4.0247 51.8782 4.00187 51.3782 3.98953L49.5624 3.97501H40.6375C39.1937 3.97501 38.2603 3.97852 37.5724 4.07088C37.0896 4.13579 36.8533 4.22969 36.7182 4.32073L36.6107 4.4108C36.4975 4.52403 36.3576 4.72726 36.2708 5.37244C36.1785 6.06032 36.175 6.99377 36.175 8.4375V17.3625L36.1895 19.1783C36.2018 19.6782 36.2246 20.0836 36.2708 20.4276C36.3576 21.0727 36.4975 21.276 36.6107 21.3892L36.7182 21.4793C36.8533 21.5703 37.0896 21.6642 37.5724 21.7291C38.2603 21.8215 39.1937 21.825 40.6375 21.825H49.5624C51.0062 21.825 51.9396 21.8215 52.6275 21.7291C53.2727 21.6424 53.4759 21.5024 53.5892 21.3892L53.6792 21.2817C53.7703 21.1467 53.8642 20.9104 53.9291 20.4276C54.0214 19.7397 54.0249 18.8062 54.0249 17.3625V8.4375ZM56.9999 17.3625C56.9999 18.7229 57.0033 19.8933 56.8779 20.8256C56.7632 21.6788 56.5234 22.502 55.957 23.2021L55.6926 23.4926C54.9346 24.2506 54.0004 24.5468 53.0255 24.678C52.0932 24.8033 50.9228 24.8 49.5624 24.8H40.6375C39.2771 24.8 38.1067 24.8033 37.1744 24.678C36.3212 24.5632 35.4979 24.3234 34.7979 23.757L34.5073 23.4926C33.7493 22.7346 33.4531 21.8005 33.322 20.8256C33.2593 20.3593 33.2294 19.8331 33.2145 19.2538L33.2 17.3625V8.4375C33.2 7.07713 33.1966 5.90671 33.322 4.97442C33.4531 3.99951 33.7493 3.06538 34.5073 2.30738L34.7979 2.043C35.4979 1.47658 36.3212 1.23679 37.1744 1.12203C38.1067 0.996687 39.2771 1.00001 40.6375 1.00001H49.5624L51.4538 1.01453C52.033 1.02941 52.5593 1.05934 53.0255 1.12203C54.0004 1.25316 54.9346 1.54938 55.6926 2.30738L55.957 2.59791C56.5234 3.298 56.7632 4.12121 56.8779 4.97442C57.0033 5.90671 56.9999 7.07713 56.9999 8.4375V17.3625Z" fill="white"/>
<path d="M55.9988 7.45121C55.9946 6.67408 55.9792 6.00732 55.9246 5.43753L55.8865 5.10746C55.7848 4.3518 55.587 3.73628 55.1873 3.23734L54.9783 3.00882C54.5058 2.5394 53.9226 2.29446 53.2078 2.16312L52.8924 2.11331C52.4782 2.05764 51.9931 2.02919 51.4285 2.01468L49.5545 2.00003H40.6375C39.4229 2.00003 38.4352 1.99883 37.6375 2.07523L37.3074 2.11331C36.552 2.21495 35.9361 2.41218 35.4373 2.81156L35.2088 3.02054C34.739 3.4931 34.4945 4.07701 34.3631 4.79203L34.3133 5.10746C34.1989 5.95782 34.2 7.04972 34.2 8.43753V17.3545L34.2146 19.2285L34.2283 19.6368C34.2451 20.031 34.2715 20.3817 34.3133 20.6924L34.3631 21.0078C34.4944 21.7227 34.7393 22.3059 35.2088 22.7784L35.4373 22.9873C35.9362 23.387 36.5517 23.5849 37.3074 23.6866L37.6375 23.7246C38.4352 23.801 39.4229 23.7998 40.6375 23.7998L50.5486 23.7989C51.481 23.7938 52.2546 23.7723 52.8924 23.6866L53.2078 23.6368C53.9229 23.5054 54.5057 23.2599 54.9783 22.7901L55.1873 22.5616C55.5866 22.0627 55.7849 21.4478 55.8865 20.6924L55.9246 20.3623C56.001 19.5647 55.9998 18.5768 55.9998 17.3623L55.9988 7.45121ZM53.0232 7.44339C53.0187 6.70192 53.0043 6.16608 52.9646 5.74515L52.9383 5.50589C52.913 5.31799 52.8842 5.20261 52.865 5.13675C52.7985 5.11696 52.6827 5.08694 52.4939 5.06156C52.2043 5.02271 51.8414 5.00133 51.3533 4.98929L49.5545 4.97464H40.6375C39.3489 4.97464 38.5344 4.97964 37.9451 5.03519L37.7058 5.06156C37.5182 5.08678 37.4026 5.11467 37.3367 5.13382C37.324 5.17643 37.3063 5.2391 37.2898 5.32914L37.2615 5.50589C37.1802 6.11156 37.1746 6.96515 37.1746 8.43753V17.3545L37.1892 19.1534L37.2156 19.7989C37.2274 19.9864 37.2421 20.1493 37.2615 20.294L37.2898 20.4717C37.3061 20.5606 37.3241 20.6226 37.3367 20.6651C37.4026 20.6842 37.5179 20.7131 37.7058 20.7383L37.9451 20.7647C38.5344 20.8202 39.3489 20.8252 40.6375 20.8252H49.5623L50.5564 20.8233C51.446 20.8179 52.0397 20.7993 52.4939 20.7383L52.6717 20.71C52.7607 20.6936 52.8226 20.6748 52.865 20.6621C52.8842 20.5961 52.9131 20.4809 52.9383 20.294C53.0195 19.6883 53.0252 18.8346 53.0252 17.3623V8.43753L53.0232 7.44339ZM55.0252 17.3623C55.0252 18.777 55.0241 19.7905 54.9207 20.5606C54.8472 21.1074 54.7245 21.5206 54.5086 21.8409L54.4793 21.8838L54.4461 21.9239L54.3553 22.0313L54.3279 22.0655L54.2967 22.0967C53.967 22.4264 53.5174 22.618 52.7605 22.7198C52.183 22.7973 51.4685 22.818 50.5506 22.8233L49.5623 22.8252H40.6375C39.2227 22.8252 38.2093 22.8241 37.4392 22.7207C36.9608 22.6564 36.585 22.5539 36.284 22.3848L36.159 22.3086L36.116 22.2793L36.076 22.2461L35.9685 22.1553L35.9344 22.128L35.9041 22.0967C35.6156 21.8082 35.4316 21.4279 35.3221 20.8301L35.2801 20.5606C35.2266 20.1625 35.2028 19.7144 35.1902 19.2032L35.1892 19.1944V19.1866L35.1746 17.3702V8.43753C35.1746 7.02278 35.1767 6.00935 35.2801 5.23929L35.3221 4.96976C35.4316 4.37211 35.6156 3.99263 35.9041 3.70414L35.9344 3.67289L35.9685 3.64456L36.076 3.55472L36.116 3.52054L36.159 3.49124C36.4793 3.2753 36.8924 3.15363 37.4392 3.08011L37.74 3.04593C38.4692 2.97642 39.3997 2.97464 40.6375 2.97464H49.5701L51.3865 2.98929H51.3943L51.4031 2.99027C51.7864 2.99972 52.1341 3.01513 52.4519 3.04496L52.7605 3.08011L53.0301 3.1221C53.5423 3.21595 53.8949 3.36392 54.1668 3.58597L54.2967 3.70414L54.3279 3.73441L54.3553 3.76859L54.4461 3.87601L54.4793 3.91605L54.5086 3.95902C54.7245 4.27932 54.8462 4.69248 54.9197 5.23929L54.9549 5.54007C55.0244 6.26922 55.0252 7.19975 55.0252 8.43753V17.3623ZM57.9998 17.3623C57.9998 18.5285 58.0041 19.6307 57.9138 20.5674L57.8689 20.959C57.7417 21.9045 57.4618 22.9317 56.7342 23.8311L56.7166 23.8535L56.4324 24.166L56.4168 24.1827L56.4002 24.2002C55.5473 25.0531 54.5366 25.4257 53.5701 25.6035L53.159 25.669C52.3982 25.7713 51.5051 25.794 50.5437 25.7989L40.6375 25.7998C39.4713 25.7998 38.3691 25.8042 37.4324 25.7139L37.0408 25.669C36.1545 25.5497 35.196 25.2968 34.3387 24.666L34.1687 24.5342L34.1463 24.5166L34.1248 24.4971L33.8347 24.2325L33.8172 24.2168L33.8006 24.2002C32.9477 23.3474 32.5742 22.3367 32.3963 21.3702L32.3308 20.959C32.2612 20.4407 32.2299 19.8731 32.2146 19.2793V19.2618L32.2 17.3702V8.43753C32.2 7.1046 32.1945 5.85507 32.3308 4.84085L32.3963 4.42972C32.5742 3.46325 32.9478 2.45341 33.8006 1.60062L33.8172 1.58402L33.8347 1.56742L34.1463 1.28421L34.1687 1.26566C35.068 0.538067 36.0954 0.258084 37.0408 0.130893L37.4324 0.0859712C38.3691 -0.00431881 39.4713 3.36487e-05 40.6375 3.36559e-05H49.5701L51.4617 0.0146821H51.4793C52.073 0.029927 52.6406 0.0612066 53.159 0.130893L53.5701 0.196323C54.4676 0.361504 55.4028 0.695136 56.2146 1.42484L56.4002 1.60062L56.4168 1.61722L56.4324 1.6348L56.6971 1.92484L56.7166 1.94632L56.7342 1.96878C57.4617 2.86806 57.7417 3.89543 57.8689 4.84085L57.9138 5.23246C58.0041 6.16918 57.9998 7.2713 57.9998 8.43753V17.3623Z" fill="white"/>
<path d="M44.3999 55.5125V34.6875C44.3999 33.866 45.0267 33.2 45.7999 33.2C46.5731 33.2 47.1999 33.8659 47.1999 34.6875V55.5125C47.1999 56.334 46.5731 57 45.7999 57C45.0267 56.9999 44.3999 56.334 44.3999 55.5125Z" fill="white"/>
<path d="M34.6875 44.4L55.5125 44.4C56.334 44.4 57 45.0269 57 45.8C57 46.5732 56.334 47.2 55.5125 47.2L34.6875 47.2C33.866 47.2 33.2 46.5732 33.2 45.8C33.2 45.0268 33.866 44.4 34.6875 44.4Z" fill="white"/>
<path d="M46.19 34.573C46.1497 34.3587 45.998 34.2381 45.8648 34.2078L45.8004 34.2C45.6357 34.2 45.4001 34.3603 45.4 34.6873V55.5125L45.4107 55.6277C45.4582 55.8773 45.6564 55.9998 45.8004 55.9998L45.8648 55.9919C45.9978 55.9616 46.1495 55.8415 46.19 55.6277L46.1998 55.5125V34.6873L46.19 34.573ZM48.1998 55.5125L48.1881 55.7576C48.0788 56.8896 47.2214 57.8616 46.0543 57.9861L45.8004 57.9998C44.5051 57.9998 43.5288 56.9704 43.4117 55.7576L43.4 55.5125V34.6873C43.4001 33.3715 44.4189 32.2 45.8004 32.2L46.0543 32.2136C47.3048 32.347 48.1997 33.4536 48.1998 34.6873V55.5125Z" fill="white"/>
<path d="M55.627 46.19C55.8412 46.1496 55.9619 45.998 55.9922 45.8648L56 45.8003C56 45.6357 55.8397 45.4 55.5127 45.4L34.6875 45.4L34.5723 45.4107C34.3226 45.4581 34.2002 45.6563 34.2002 45.8003L34.208 45.8648C34.2383 45.9978 34.3585 46.1494 34.5723 46.19L34.6875 46.1998L55.5127 46.1998L55.627 46.19ZM34.6875 48.1998L34.4424 48.188C33.3104 48.0787 32.3384 47.2213 32.2139 46.0542L32.2002 45.8003C32.2002 44.5051 33.2296 43.5287 34.4424 43.4117L34.6875 43.4L55.5127 43.4C56.8285 43.4001 57.9999 44.4188 58 45.8003L57.9863 46.0542C57.853 47.3047 56.7463 48.1997 55.5127 48.1998L34.6875 48.1998Z" fill="white"/>
</svg>
