<svg width="24" height="24" viewBox="0 0 24 24" fill="none" xmlns="http://www.w3.org/2000/svg">
<g clip-path="url(#clip0_406_8676)">
<mask id="mask0_406_8676" style="mask-type:luminance" maskUnits="userSpaceOnUse" x="0" y="0" width="24" height="24">
<path d="M24 0H0V24H24V0Z" fill="white"/>
</mask>
<g mask="url(#mask0_406_8676)">
<path d="M11.6 12.4335V3.4C11.6 3.17909 11.7791 3 12 3C12.2209 3 12.4 3.17909 12.4 3.4V12.4335C12.4 12.6544 12.2209 12.8335 12 12.8335C11.7791 12.8335 11.6 12.6544 11.6 12.4335Z" fill="white"/>
<path d="M14.22 18.64C15.1187 18.64 16.0559 18.9019 16.7044 19.473C17.1659 19.8795 17.8937 20.1063 18.66 20.1063C19.4262 20.1063 20.154 19.8795 20.6156 19.473C20.7814 19.327 21.0342 19.343 21.1802 19.5088C21.3262 19.6746 21.3101 19.9274 21.1444 20.0734C20.4959 20.6444 19.5587 20.9063 18.66 20.9063C17.7612 20.9063 16.824 20.6444 16.1756 20.0734C15.714 19.6669 14.9862 19.44 14.22 19.44C13.4537 19.44 12.7259 19.6669 12.2644 20.0734C11.6159 20.6444 10.6787 20.9063 9.77998 20.9063C8.88124 20.9063 7.94402 20.6444 7.29561 20.0734C6.83402 19.6669 6.10624 19.44 5.33998 19.44C4.57373 19.44 3.84595 19.6669 3.38436 20.0734C3.21857 20.2194 2.96579 20.2033 2.81979 20.0376C2.67379 19.8718 2.68982 19.619 2.85561 19.473C3.50402 18.9019 4.44124 18.64 5.33998 18.64C6.23873 18.64 7.17595 18.9019 7.82436 19.473C8.28594 19.8795 9.01373 20.1063 9.77998 20.1063C10.5462 20.1063 11.274 19.8795 11.7356 19.473C12.384 18.9019 13.3212 18.64 14.22 18.64Z" fill="white"/>
<path d="M11.9936 15.1855L13.3873 12H10.6L11.9936 15.1855Z" fill="white"/>
<path d="M11.9937 1.00001L10.6 4.18549L13.3873 4.18549L11.9937 1.00001Z" fill="white"/>
<path d="M14.22 16.84C15.1187 16.84 16.0559 17.102 16.7044 17.673C17.1659 18.0795 17.8937 18.3064 18.66 18.3064C19.4262 18.3064 20.154 18.0795 20.6156 17.673C20.7814 17.527 21.0342 17.543 21.1802 17.7088C21.3262 17.8746 21.3101 18.1274 21.1444 18.2734C20.4959 18.8444 19.5587 19.1064 18.66 19.1064C17.7612 19.1064 16.824 18.8444 16.1756 18.2734C15.714 17.8669 14.9862 17.64 14.22 17.64C13.4537 17.64 12.7259 17.8669 12.2644 18.2734C11.6159 18.8444 10.6787 19.1064 9.77998 19.1064C8.88124 19.1064 7.94402 18.8444 7.29561 18.2734C6.83402 17.8669 6.10624 17.64 5.33998 17.64C4.57373 17.64 3.84595 17.8669 3.38436 18.2734C3.21857 18.4194 2.96579 18.4034 2.81979 18.2376C2.67379 18.0718 2.68982 17.819 2.85561 17.673C3.50402 17.102 4.44124 16.84 5.33998 16.84C6.23873 16.84 7.17595 17.102 7.82436 17.673C8.28594 18.0795 9.01373 18.3064 9.77998 18.3064C10.5462 18.3064 11.274 18.0795 11.7356 17.673C12.384 17.102 13.3212 16.84 14.22 16.84Z" fill="white"/>
<path d="M14.22 15.08C15.1187 15.08 16.0559 15.3419 16.7044 15.913C17.1659 16.3195 17.8937 16.5463 18.66 16.5463C19.4262 16.5463 20.154 16.3195 20.6156 15.913C20.7814 15.767 21.0342 15.783 21.1802 15.9488C21.3262 16.1146 21.3101 16.3674 21.1444 16.5134C20.4959 17.0844 19.5587 17.3463 18.66 17.3463C17.7612 17.3463 16.824 17.0844 16.1756 16.5134C15.714 16.1069 14.9862 15.88 14.22 15.88C13.4537 15.88 12.7259 16.1069 12.2644 16.5134C11.6159 17.0844 10.6787 17.3463 9.77998 17.3463C8.88124 17.3463 7.94402 17.0844 7.29561 16.5134C6.83402 16.1069 6.10624 15.88 5.33998 15.88C4.57373 15.88 3.84595 16.1069 3.38436 16.5134C3.21857 16.6594 2.96579 16.6433 2.81979 16.4776C2.67379 16.3118 2.68982 16.059 2.85561 15.913C3.50402 15.3419 4.44124 15.08 5.33998 15.08C6.23873 15.08 7.17595 15.3419 7.82436 15.913C8.28594 16.3195 9.01373 16.5463 9.77998 16.5463C10.5462 16.5463 11.274 16.3195 11.7356 15.913C12.384 15.3419 13.3212 15.08 14.22 15.08Z" fill="white"/>
</g>
</g>
<defs>
<clipPath id="clip0_406_8676">
<rect width="24" height="24" fill="white"/>
</clipPath>
</defs>
</svg>
