<?xml version="1.0" encoding="UTF-8"?>
<svg id="Layer_1" xmlns="http://www.w3.org/2000/svg" version="1.1"   width="50" height="50"  viewBox="0 0 50 50">
  <!-- Generator: Adobe Illustrator 29.5.1, SVG Export Plug-In . SVG Version: 2.1.0 Build 141)  -->
  <path d="M32.61,0l-.67,12.39c.31-.2.62-.39.93-.59,2.3-1.52,4.58-2.97,6.83-4.33l3.11-1.88,7.18,12.92-11.47,6.53c.29.16.57.32.86.48,2.44,1.35,4.85,2.71,7.24,4.06l3.37,1.91-7.24,13.03-10.86-7.05c0,.18.02.36.03.54.2,2.77.36,5.42.46,7.94l.16,4.05h-15.02l.66-12.55c-.23.16-.47.33-.7.49-2.28,1.66-4.55,3.18-6.8,4.58l-3.04,1.88L.03,31.54l11.51-6.5c-.39-.23-.79-.46-1.18-.69h-.01s-.02-.02-.02-.02c-2.29-1.38-4.54-2.67-6.77-3.89l-3.55-1.94L7.68,5.55l10.47,6.72c0-.1-.01-.21-.02-.31v-.04s0-.04,0-.04c-.15-2.77-.28-5.37-.38-7.82l-.17-4.06h15.03ZM21.38,3.88c.1,2.43.23,5.02.38,7.77.2,2.7.35,5.29.46,7.77l-13.36-8.58-3.64,6.15c2.28,1.24,4.58,2.56,6.91,3.96,2.38,1.4,4.76,2.78,7.14,4.13l-14.05,7.93,3.64,6.15c2.18-1.35,4.38-2.83,6.61-4.45,2.28-1.62,4.53-3.13,6.76-4.53l-.84,15.94h7.36c-.1-2.48-.25-5.1-.46-7.85-.15-2.75-.28-5.39-.38-7.93l13.59,8.82,3.42-6.15c-2.38-1.35-4.78-2.7-7.21-4.05-2.38-1.35-4.71-2.64-6.98-3.88l14.2-8.09-3.42-6.15c-2.23,1.35-4.48,2.78-6.76,4.29-2.28,1.46-4.56,2.89-6.83,4.29l.84-15.53h-7.36Z" fill="#fff"/>
</svg>