<svg   width="50" height="50"  viewBox="0 0 60 37" fill="none" xmlns="http://www.w3.org/2000/svg">
<path d="M38.6699 0.500977C39.4441 0.505483 40.2313 0.527784 41.0127 0.608398L41.2725 0.640625C41.8807 0.729738 42.4936 0.910837 43.0469 1.16797L44.7324 1.96289C46.4139 2.76637 48.0853 3.59092 49.7539 4.39941L50.0127 4.52637C50.2769 4.05253 50.5356 3.58792 50.7969 3.12598L50.8945 2.96582C51.1314 2.60249 51.4356 2.31824 51.8047 2.1709C52.2409 1.99691 52.7044 2.04037 53.1289 2.26758L53.2861 2.36133C53.637 2.59601 53.8773 2.93422 53.9639 3.34375C54.0481 3.74293 53.9771 4.16402 53.793 4.56738L53.707 4.73926L52.2871 7.31641C52.0086 7.81835 51.6687 8.23961 51.1641 8.3916C50.7247 8.52374 50.2759 8.41659 49.832 8.21777L49.6416 8.12793C48.4196 7.5142 47.1876 6.9001 45.9551 6.28613L42.2656 4.44141C41.5798 4.0964 40.8608 3.92033 40.0957 3.88379L39.7646 3.87695C32.7838 3.90395 25.8081 3.90245 18.833 3.9668L15.8438 3.99902C15.0811 4.00832 14.2978 4.23163 13.4863 4.50781L12.665 4.7959C11.4006 5.24214 10.1447 5.70909 8.88965 6.18359L5.11719 7.61621C5.10312 7.62152 5.08966 7.62829 5.07617 7.63379C5.08532 7.65376 5.09252 7.67493 5.10254 7.69531L9.32129 16.2412C10.6018 18.8362 11.88 21.4327 13.1553 24.0303C13.1266 23.6525 13.2253 23.2854 13.5146 23.0088C13.7937 22.7422 14.1815 22.627 14.585 22.5898L14.8516 22.5547C15.4589 22.4501 15.9777 22.1826 16.4219 21.7334L16.5361 21.623C16.8083 21.3738 17.1274 21.1783 17.5098 21.1777C17.9445 21.1772 18.3 21.4296 18.5967 21.7197L18.8291 21.9287C19.379 22.3813 19.9806 22.593 20.5635 22.5928C21.2295 22.5924 21.9191 22.3156 22.5273 21.7188L22.6426 21.6113C22.9158 21.3684 23.2351 21.1792 23.6152 21.1807C24.0485 21.1824 24.4036 21.4312 24.7021 21.7246L24.9326 21.9326C25.4786 22.3835 26.0783 22.5942 26.6611 22.5928C27.2444 22.5912 27.8473 22.377 28.3984 21.9219L28.6309 21.7119C28.9281 21.4204 29.2844 21.176 29.7197 21.1807C30.1514 21.1854 30.5064 21.4342 30.8057 21.7285L31.0352 21.9365C31.5791 22.386 32.1786 22.5952 32.7617 22.5928C33.4286 22.5898 34.1217 22.3089 34.7344 21.708L34.8477 21.6035C35.1169 21.3661 35.4329 21.1844 35.8018 21.1777C36.2332 21.1701 36.5877 21.4029 36.877 21.7021L37.085 21.8994C37.5826 22.33 38.1644 22.553 38.8545 22.5986L38.9922 22.6123C39.3114 22.6561 39.6079 22.7807 39.8291 23.0156C40.0536 23.2541 40.1534 23.5566 40.1621 23.8701L40.1602 24.0049C40.1409 24.3734 39.9913 24.7071 39.71 24.9424C39.5251 25.0969 39.3039 25.1904 39.0674 25.2354L39.043 25.2959C39.4489 25.3461 39.8578 25.4227 40.2705 25.5205C40.3075 25.4515 40.3455 25.3858 40.3799 25.3154L44.627 16.625C44.6871 16.5016 44.7792 16.2908 44.8936 16.1133L44.9785 15.9922C45.4214 15.4152 46.1506 15.1845 46.8418 15.4395L46.9805 15.4961C47.6545 15.8092 48.0408 16.4967 47.9053 17.2715C47.8662 17.4929 47.7871 17.7017 47.707 17.8799L47.6279 18.0479L42.7568 28.0371C42.5189 28.5241 42.217 28.9397 41.749 29.1279C41.3379 29.2931 40.8994 29.2424 40.4561 29.0977L40.2656 29.0303C38.4246 28.3302 36.6273 28.4061 34.8623 29.1748L34.5098 29.3379C32.1387 30.4971 30.3569 32.3286 28.8184 34.4805L28.5137 34.915C28.4817 34.9615 28.4503 35.0113 28.4141 35.0684L28.2959 35.25C27.9444 35.7692 27.4569 36.1094 26.8818 36.1191C26.387 36.1273 25.9371 35.8883 25.5693 35.5127L25.417 35.3438C24.3534 34.068 23.3387 32.7931 22.2305 31.6143L21.749 31.1152C20.4979 29.8517 19.0135 28.9223 17.2939 28.4502L16.9463 28.3613C15.8126 28.0957 14.7305 28.0993 13.6748 28.4912L13.4639 28.5752C13.0226 28.7613 12.564 28.8072 12.1328 28.6025C11.7735 28.4319 11.5064 28.12 11.2969 27.7451L11.21 27.5811L0.354492 5.58594C0.276954 5.42847 0.169135 5.22203 0.09375 5.00488L0.0947266 5.00391C-0.190663 4.18347 0.188975 3.29942 0.97168 2.94238L1.11621 2.88379C1.84604 2.62536 2.63993 2.88466 3.06152 3.59668L3.25781 3.94727C3.37336 4.16337 3.48274 4.38395 3.58887 4.59766L5.79785 3.72559L7.11328 3.21875C7.55313 3.05425 7.99525 2.89465 8.44043 2.74316L9.26367 2.46875C11.1867 1.83733 13.1327 1.27126 15.0527 0.688477L15.1797 0.655273C15.4766 0.588 15.7799 0.590786 15.998 0.589844L26.9492 0.541016C30.5992 0.525739 34.2495 0.51177 37.8994 0.500977H38.6699ZM23.5205 24.3506L23.5195 24.3496C22.552 24.9584 21.555 25.2789 20.54 25.2754C19.6516 25.2722 18.7785 25.0215 17.9287 24.542L17.5654 24.3223C17.5485 24.3113 17.5359 24.3054 17.5283 24.3018C17.5232 24.3031 17.5161 24.3059 17.5078 24.3086C17.4756 24.3192 17.435 24.3341 17.3701 24.3613L17.3711 24.3623C16.9679 24.5319 16.5523 24.6995 16.1279 24.8525C17.7089 24.9531 19.2123 25.4494 20.6416 26.2061C23.1193 27.5176 25.0462 29.4358 26.748 31.541L26.7949 31.5986C26.8697 31.5082 26.9433 31.4209 27.0156 31.332L27.3037 30.9844C28.7574 29.2596 30.4219 27.7395 32.4521 26.6289L32.9375 26.377C34.569 25.5718 36.263 25.1725 38.0215 25.2197C37.566 25.0471 37.0933 24.871 36.6279 24.6777L36.0137 24.4082C35.9378 24.3727 35.8871 24.3502 35.8467 24.3359C35.8103 24.3231 35.7938 24.3207 35.7891 24.3203C35.7884 24.3203 35.7858 24.3195 35.7764 24.3223L35.6816 24.3711C34.7334 24.9665 33.7535 25.2782 32.7559 25.2773C31.8828 25.2765 31.023 25.0359 30.1865 24.5762L29.8291 24.3652C29.7152 24.2935 29.6912 24.3014 29.708 24.3018C29.7183 24.3019 29.7186 24.2993 29.7031 24.3047L29.5996 24.3594C28.6409 24.9648 27.6513 25.2798 26.6445 25.2764C25.7639 25.2732 24.8979 25.0267 24.0557 24.5576L23.6963 24.3428C23.6552 24.3166 23.6291 24.3045 23.6152 24.2988C23.6 24.305 23.5697 24.3197 23.5205 24.3506ZM53.4521 7.60547C53.7747 7.48768 54.0921 7.47975 54.3936 7.56543C54.7226 7.65906 54.9989 7.85439 55.2266 8.06152L56.8281 9.51465C57.3635 9.99985 57.8989 10.4867 58.4297 10.9766L58.5703 11.1143C58.8819 11.4454 59.0846 11.8341 59.0947 12.2715C59.1047 12.7092 58.9193 13.1068 58.623 13.4512L58.4902 13.5947C57.9539 14.1359 57.4129 14.6731 56.874 15.208L55.2637 16.8154C55.0277 17.0534 54.7464 17.2518 54.415 17.3467C54.1173 17.4318 53.8076 17.4252 53.4971 17.3271L53.3643 17.2793C53.0086 17.137 52.733 16.9072 52.5557 16.5967C52.3826 16.2934 52.3238 15.9503 52.3311 15.6094L52.3379 14.5889C52.3373 14.4043 52.3368 14.2179 52.3359 14.0283H28.0469L28.0391 14.1855L28.0342 19.6035C28.0325 20.0101 27.9491 20.3884 27.7539 20.7012C27.5535 21.0221 27.2558 21.2397 26.8955 21.3477C25.9356 21.6348 24.8913 21.0771 24.7529 20.04L24.7373 19.8262C24.7079 17.3054 24.7156 14.7842 24.7334 12.2666L24.7422 12.0977C24.8266 11.2682 25.4851 10.7247 26.2744 10.6387L26.4482 10.626C26.6222 10.6192 26.7935 10.627 26.9062 10.627H52.3359C52.3387 10.1845 52.342 9.76804 52.3301 9.34668C52.3207 9.01112 52.3728 8.67198 52.5371 8.36816C52.7051 8.05766 52.9693 7.82194 53.3135 7.66309L53.4521 7.60547Z" fill="white"/>
</svg>
