<svg width="46" height="42" viewBox="0 0 46 42" fill="none" xmlns="http://www.w3.org/2000/svg">
<path d="M42.2887 0.00683594L42.4957 0.0175781L42.5768 0.0214844L42.6578 0.0302734L42.9039 0.0634766C43.5309 0.167849 44.4907 0.476073 45.2008 1.42676C45.8122 2.2455 45.9078 3.12982 45.9225 3.60449L45.9254 3.78125L45.9283 9.59863L45.9225 15.415C45.9218 15.8341 45.9013 17.1455 44.8414 18.1738C43.9421 19.0462 42.8501 19.1647 42.3346 19.1826L42.151 19.1865C41.6342 19.1902 41.1178 19.1908 40.6032 19.1904L39.0631 19.1855C38.736 19.1836 37.6487 19.1833 36.6735 18.4541C36.9469 21.0708 36.7311 23.6058 35.9489 26.0264C34.9543 29.1037 33.1076 31.7976 30.5377 34.1367C30.7453 34.4251 30.9535 34.7146 31.1617 35.0039L31.3864 35.3125L31.4323 35.377L31.4762 35.4434L31.5934 35.6367C31.8706 36.1197 32.1489 36.8249 32.1158 37.6855C32.0752 38.7436 31.5746 39.6686 30.8053 40.2979L30.6481 40.4199L30.5397 40.499L30.2965 40.6455L30.1754 40.7188L30.0485 40.7803C29.3459 41.1182 28.5103 41.2433 27.6627 41.0361C26.9569 40.8635 26.4133 40.5037 26.0231 40.1377L25.8658 39.9805L25.7955 39.9072L25.7301 39.8291L25.567 39.6328L25.5094 39.5537C25.0835 38.9671 24.6537 38.386 24.2223 37.7998C23.9003 37.9084 23.5753 38.0127 23.2623 38.0986L23.234 38.1064L23.2047 38.1143L22.5338 38.2842L22.5035 38.292L22.4733 38.2988C19.1213 39.0734 15.793 38.9153 12.5709 37.8115C12.157 38.3765 11.7171 38.9752 11.3815 39.4385L11.3512 39.4805L11.319 39.5215L11.2194 39.6494L11.1832 39.6953L11.1461 39.7393C10.873 40.0632 10.2924 40.6711 9.35218 40.9658C8.40039 41.264 7.4924 41.1212 6.75843 40.7822L6.45569 40.626C5.21351 39.9155 4.68551 38.6575 4.70179 37.5273C4.71619 36.5331 5.1226 35.7195 5.51721 35.1699L5.51819 35.1689L6.24964 34.1543C-2.04075 26.9635 -2.11017 13.7928 6.20374 6.51465L6.53479 6.23145C9.9746 3.34524 14.0116 1.87216 18.528 1.86621L32.7428 1.86523L35.6979 1.86426C35.8473 1.59122 36.042 1.31897 36.2975 1.06348C37.1971 0.16402 38.2988 0.00145247 38.9948 0.00585938L38.9957 0.00488281C39.5016 0.0081695 40.0103 0.00541616 40.5407 0.00292969H42.2242L42.2887 0.00683594ZM38.9762 3.00488L38.8004 3.01465C38.4184 3.06569 38.2398 3.3065 38.236 3.7334V4.86426L18.5319 4.86621L18.1647 4.87012C14.3831 4.95371 11.0538 6.25614 8.17932 8.77246L7.85413 9.06543C1.12509 15.3062 1.41643 26.3568 8.57386 32.1904L9.0094 32.5342C9.45056 32.8732 9.90937 33.2026 10.3795 33.5576C9.56436 34.6875 8.75695 35.8025 7.95374 36.9199C7.62567 37.3769 7.61192 37.832 7.94495 38.0225C8.28555 38.2171 8.54305 38.1214 8.76136 37.9053L8.85218 37.8066L8.95179 37.6787C9.51123 36.9065 10.0847 36.1432 10.6412 35.3691L11.192 34.5898C11.4331 34.2419 11.6064 34.1769 12.0114 34.3633L12.6461 34.6396C15.4292 35.7831 18.2921 36.064 21.2125 35.5L21.7975 35.376L22.4684 35.2061C23.4226 34.9441 24.3436 34.5584 25.3141 34.2178C25.4348 34.381 25.574 34.5704 25.7125 34.7588C26.3818 35.6697 27.0529 36.5798 27.7184 37.4932L26.3248 38.4971L27.7194 37.4941C27.7916 37.5932 27.8651 37.6918 27.9371 37.791L28.0377 37.9121C28.2197 38.103 28.4323 38.1801 28.653 38.1143L28.7477 38.0771L28.8756 38C29.2014 37.7613 29.1698 37.403 28.9567 37.0732L28.733 36.7646C27.9618 35.6933 27.1905 34.6214 26.4508 33.5938C33.2621 28.6832 35.2569 22.276 32.7428 14.3584H38.233V14.8467C38.2335 15.0097 38.2317 15.1739 38.236 15.3369L38.2506 15.5635C38.3048 16.0439 38.5082 16.1821 39.0807 16.1855C39.5886 16.1885 40.097 16.19 40.6051 16.1904L42.1295 16.1865C42.6582 16.1827 42.8679 16.048 42.9127 15.6143L42.9225 15.4102C42.9259 13.473 42.9278 11.5352 42.9283 9.59766L42.9254 3.78613C42.9247 3.33037 42.8136 3.11572 42.4918 3.03809L42.3405 3.01367L42.1334 3.00293C41.0813 2.99395 40.0283 3.01172 38.9762 3.00488ZM14.9469 9.6084C16.7633 9.6086 17.5416 10.8912 17.5416 12.4297C17.5415 13.9679 16.5038 14.4809 16.5035 15.7627C16.5035 17.0449 17.8014 17.8145 17.8014 17.8145C17.8144 17.776 19.8896 11.6604 23.7701 11.6602C27.6631 11.6602 28.9606 15.5067 28.9606 17.3018C28.9606 19.0968 27.6632 19.8662 26.1061 19.8662C24.549 19.8662 24.0297 18.8408 22.7321 18.8408C21.4346 18.841 20.6559 20.123 20.6559 20.123C20.6559 20.123 27.144 22.174 27.1442 26.0205C27.1442 29.8671 23.2509 31.1494 21.4342 31.1494C19.6178 31.1492 18.8395 29.8666 18.8395 28.3281C18.8397 26.7899 19.8774 26.277 19.8776 24.9951C19.8776 23.7129 18.5797 22.9434 18.5797 22.9434C18.5746 22.9586 16.4989 29.0974 12.611 29.0977C8.71805 29.0977 7.42054 25.2511 7.42054 23.4561C7.42063 21.6611 8.71792 20.8916 10.275 20.8916C11.8322 20.8916 12.3514 21.918 13.6491 21.918C14.9466 21.9178 15.985 20.6357 15.985 20.6357C15.985 20.6357 9.23694 18.5839 9.23694 14.7373C9.23698 10.8908 13.1302 9.6084 14.9469 9.6084Z" fill="white"/>
</svg>
