<?xml version="1.0" encoding="UTF-8"?>
<svg id="a" data-name="Layer_1" xmlns="http://www.w3.org/2000/svg" xmlns:xlink="http://www.w3.org/1999/xlink" viewBox="0 0 404.66 340.16">
  <defs>
    <style>
      .c {
        fill: #fff;
      }

      .d {
        fill: none;
      }

      .e {
        clip-path: url(#b);
      }
    </style>
    <clipPath id="b">
      <rect class="d" x=".33" y="-.7" width="404.54" height="340.07"/>
    </clipPath>
  </defs>
  <g class="e">
    <path d="M403.11-270c-.09-3.12.02-6.24-.04-9.37-.23-11.94-.29-23.89-.82-35.82-.32-7.39-1.38-14.74-2.07-22.11-.27-2.9-.55-5.79-.81-8.69.01-.83.04-1.65-.04-2.47-.24-2.72-.53-5.43-.8-8.14-.22-3.93-.25-7.87-.56-11.78-.08-.97-.2-1.93-.33-2.89-.02-.79-.05-1.58-.1-2.37-.16-2.57-.48-5.14-.87-7.69-.14-.92-.31-1.84-.48-2.75-.11-1.78-.22-3.55-.39-5.32-.25-2.49-.66-4.96-1.05-7.44,0-1.13,0-2.25-.08-3.37-.13-1.95-.55-3.89-.97-5.81-.26-1.17-.59-2.33-.9-3.5-.46-3.13-.91-6.26-1.39-9.38,0-.02,0-.03,0-.05-.13-1.97-.25-3.95-.45-5.91-.17-1.69-.58-3.37-1.02-5.01-.24-.9-.58-1.79-.89-2.68-.41-1.93-.84-3.85-1.21-5.78-.22-2.35-.31-4.72-.69-7.04-.3-1.84-.71-3.67-1.15-5.49-.11-.69-.22-1.39-.36-2.08-.2-1.01-.52-2-.88-2.99-.28-1.11-.59-2.21-.89-3.31-.69-2.56-1.45-5.11-2.07-7.69-.56-2.33-.78-4.74-1.47-7.02-.01-.03-.02-.07-.03-.1-.07-.3-.13-.6-.21-.89-1.41-5.18-3.05-10.29-4.76-15.38-.01-.04-.03-.07-.04-.11-.24-1.27-.5-2.53-.92-3.74-1.05-3.04-2.35-6-3.57-8.99-.57-1.61-1.14-3.23-1.7-4.85-1.6-4.68-3-9.43-4.57-14.12-.54-1.62-1.29-3.19-2.06-4.72-1.19-2.38-2.41-4.76-3.61-7.14-1.04-2.14-2.11-4.26-3.2-6.38-.12-.23-.24-.45-.36-.68-.81-1.61-1.63-3.21-2.42-4.83-1.46-2.96-2.46-6.15-4.06-9.02-1.41-2.52-3.03-4.92-4.67-7.32-2.03-3.68-4.01-7.41-6.4-10.85-1.4-2-3.06-3.81-4.74-5.61-3.37-7.43-8.61-13.49-14.05-19.39-4.25-6.26-10.52-12.23-15.56-16.83-1.98-1.89-3.97-3.76-5.95-5.65.07.12.14.25.2.37-.48-.46-.9-.88-1.25-1.26.06.01.12.01.18.03l-.8-.73h0c-1.07-1.33-1.7-1.81-2.08-1.89-2.53-2.31-5.07-4.62-7.6-6.92-4.82-3.6-9.55-7.32-14.45-10.79-.72-.51-1.44-1.01-2.16-1.51-.86-.59-1.75-1.12-2.67-1.62-2.25-1.23-7.34-5.08-7.82-5.62-.44-.5-1-.87-1.61-1.18-.98-.51-2.07-.88-2.93-1.45-.38-.25-.76-.5-1.14-.74-3.38-2.15-6.97-4-10.55-5.83-3.83-1.96-7.79-3.68-11.68-5.51-3.3-1.55-6.53-3.28-9.91-4.64-1.63-.65-3.3-1.2-4.97-1.73-1.76-.88-3.59-1.9-5.44-2-.23-.01-.45-.03-.67-.05-2.44-.83-5.04-1.55-5.74-4.7h-4.5c-.71,3.15-3.3,3.87-5.74,4.7-.22.02-.44.04-.67.05-1.84.1-3.67,1.12-5.44,2-1.67.53-3.34,1.07-4.97,1.73-3.38,1.36-6.61,3.08-9.91,4.64-3.9,1.83-7.85,3.55-11.68,5.51-3.98,2.04-7.98,4.1-11.69,6.57-1.97,1.31-12.06,7.85-15.02,9.88-5.68,3.9-11.09,8.18-16.61,12.3-2.21,2.01-4.41,4.02-6.62,6.03-.24-.31-.88-.15-2.44,1.78-3.12,3.85-16.88,14.15-23.88,25.15h.02c-5.41,5.88-10.62,11.91-13.98,19.31-1.68,1.8-3.35,3.61-4.74,5.61-2.4,3.43-4.38,7.16-6.4,10.85-1.64,2.39-3.26,4.79-4.67,7.32-1.6,2.87-2.6,6.06-4.06,9.02-.8,1.62-1.62,3.22-2.42,4.83-.12.23-.24.45-.36.68-1.09,2.12-2.16,4.24-3.2,6.38-1.21,2.38-2.42,4.75-3.61,7.13-.77,1.53-1.51,3.1-2.06,4.72-1.58,4.69-2.97,9.44-4.57,14.12-.55,1.62-1.12,3.24-1.7,4.85-1.22,2.99-2.52,5.94-3.57,8.99-.42,1.21-.68,2.47-.92,3.74-.01.04-.03.07-.04.11-1.71,5.09-3.35,10.2-4.76,15.38-.08.29-.14.59-.21.89-.01.03-.02.07-.03.1-.7,2.28-.92,4.69-1.47,7.02-.62,2.58-1.37,5.13-2.07,7.69-.3,1.1-.61,2.21-.89,3.31-.36.98-.67,1.97-.88,2.99-.14.69-.25,1.38-.36,2.08-.44,1.82-.85,3.64-1.15,5.49-.38,2.32-.47,4.69-.69,7.04-.38,1.93-.8,3.86-1.21,5.78-.32.89-.65,1.77-.89,2.68-.45,1.64-.85,3.32-1.02,5.01-.2,1.96-.31,3.94-.45,5.91,0,.02,0,.03,0,.05-.48,3.12-.94,6.25-1.39,9.38-.32,1.16-.65,2.32-.9,3.5-.42,1.92-.83,3.86-.97,5.81-.08,1.12-.08,2.25-.08,3.37-.39,2.48-.8,4.95-1.05,7.44-.17,1.77-.28,3.55-.39,5.32-.17.92-.33,1.83-.48,2.75-.39,2.55-.71,5.12-.87,7.69-.05.79-.08,1.58-.1,2.37-.13.96-.25,1.92-.33,2.89-.32,3.92-.34,7.86-.56,11.78-.27,2.71-.56,5.43-.8,8.14-.07.82-.05,1.65-.04,2.47-.26,2.9-.54,5.79-.81,8.69-.69,7.37-1.75,14.72-2.07,22.11-.52,11.93-.59,23.88-.82,35.82-.06,3.12.04,6.25-.04,9.37-.03.89-.47,1.76-.72,2.64V338.57h71.24c4.48-14.68,9.05-29.34,13.35-44.07.54-1.84,1.24-2.71,2.53-3.04h55.71c.1,0,.2.02.26.02.31,1.36.61,2.7.9,4.02.15,2.09.3,4.16.48,6.23.11,1.28,0,2.84.67,3.76,1.35,1.83,1.65,3.65,1.58,5.62-.27.91-.32,1.73-.21,2.48,0,.02,0,.05,0,.07-.2,1.64,1.71,3.54,2.77,5.53.23-.2.44-.39.66-.58.11.11.23.21.34.32.98-.56,1.96-1.11,3-1.7,1.13,1.52,2.2,2.98,3.16,4.26.13-.04.27-.08.41-.13.4.56.8,1.11,1.19,1.66.21-.14.42-.28.64-.42-.26-.6-.52-1.19-.71-1.65.01,0,.03-.01.04-.02,8.19.98,16.28,1.95,24.3,2.91.48.11.92.28,1.24.57,1.23,1.09,1.88,1.23,3.5.25.13-.08.27-.13.4-.2,1.23.15,2.47.3,3.69.44.12.15.22.32.31.5.02.05.04.1.06.15.09.22.16.46.21.72.03,0,.07-.02.1-.03.06.14.1.23.09.21,2.23-.74,3.81-1.26,5.37-1.78.02,0,.04-.01.05-.02-.04.56-.09,1.12-.13,1.67.16.08.33.18.49.27.55,2.08,2.41,1.62,4.01,1.41,1.6.21,3.46.68,4.01-1.41.16-.1.33-.19.49-.27-.04-.56-.09-1.12-.13-1.67.02,0,.04.01.05.02,1.57.52,3.14,1.04,5.37,1.78,0,.02.03-.07.09-.21.03,0,.07.02.1.03.04-.27.12-.5.21-.72.02-.05.04-.1.06-.15.09-.19.19-.36.31-.5,1.23-.15,2.46-.3,3.69-.44.13.07.27.12.4.2,1.61.98,2.26.85,3.5-.25.32-.28.76-.45,1.24-.57,8.02-.96,16.12-1.93,24.3-2.91.01,0,.03.01.04.02-.2.45-.45,1.05-.71,1.65.21.14.42.28.64.42.4-.55.79-1.11,1.19-1.66.14.05.27.09.41.13.95-1.29,2.03-2.74,3.16-4.26,1.04.59,2.02,1.14,3,1.7.12-.11.23-.21.34-.32.21.19.43.38.66.58,1.07-1.99,2.97-3.89,2.77-5.53,0-.02,0-.05,0-.07.12-.75.07-1.57-.21-2.48-.06-1.97.23-3.79,1.58-5.62.68-.92.56-2.48.67-3.76.18-2.06.33-4.14.48-6.23.3-1.32.6-2.65.9-4.02.06,0,.16-.01.26-.02h55.71c1.29.34,1.99,1.2,2.53,3.04,4.3,14.73,8.87,29.39,13.35,44.07h71.24V-267.36c-.25-.88-.69-1.76-.72-2.64Z"/>
    <g>
      <path class="c" d="M238.85,9.42c.66,0,1.2-.05,1.66-.16.07-.01.15-.02.21-.04.16-.04.28-.11.42-.17.08-.04.18-.06.25-.1.11-.06.19-.15.28-.22.07-.06.16-.11.22-.17.07-.08.13-.18.19-.27.06-.09.13-.16.18-.26.04-.09.07-.2.1-.29.05-.13.1-.24.13-.39.02-.07.02-.15.03-.22.09-.46.13-.98.13-1.61-.06-7.25-.08-14.49-.08-21.74,0-.57,0-1.13,0-1.7,0-.29,0-.58,0-.88,0-7.52.03-15.04.09-22.56,0-.68-.04-1.25-.14-1.75-.01-.06-.01-.13-.03-.18-.03-.14-.09-.25-.13-.38-.04-.11-.07-.24-.12-.34-.04-.07-.09-.13-.13-.19-.08-.13-.15-.26-.25-.37-.03-.03-.07-.05-.09-.07-.61-.59-1.58-.84-3.11-.81-.62,0-1.25,0-1.87.02-6.55.08-13.11.09-19.66.08-4.95,0-9.89-.02-14.84-.02-.06,0-.13,0-.19,0s-.13,0-.19,0c-4.95,0-9.89.02-14.84.02-6.55.01-13.11,0-19.66-.08-.62,0-1.25,0-1.87-.02-1.53-.02-2.51.23-3.11.81-.03.03-.07.05-.09.07-.1.11-.17.24-.25.37-.04.07-.09.12-.13.19-.05.1-.08.23-.12.34-.04.12-.1.24-.13.38-.01.06-.02.13-.03.18-.1.5-.14,1.07-.14,1.75.05,6.45.07,12.89.08,19.34.01,9.18,0,18.35-.07,27.53,0,.63.04,1.15.13,1.61.01.07.02.16.03.22.03.14.09.26.13.39.03.1.06.21.1.29.05.1.12.17.18.26.06.09.11.19.19.27.06.07.15.11.22.17.09.07.17.16.28.22.07.04.17.07.25.1.13.06.26.12.42.17.06.02.14.02.21.04.46.1,1,.16,1.66.16,11.75-.05,23.49-.08,35.24-.08.5,0,1,0,1.51,0s1,0,1.51,0c11.75,0,23.49.03,35.24.08ZM163.41,7.66v-51.27h77.38V7.66h-77.38Z"/>
      <path class="c" d="M78.65,243.07c0-18.87.29-37.06-.2-55.22-.01-.46-.06-.92-.12-1.38,0-.1,0-.21,0-.31,0-.71-.2-1.43-.46-2.13-.83-3.28-2.39-6.54-3.69-9.69-8.29-20.1-16.74-40.14-25.15-60.19-.27-.64-.71-1.21-.94-1.59-2.81,1.19-3.39,3.26-3.5,5.57-.03.4-.04.82-.05,1.25-.11,14.97-.46,29.93-.68,44.9-.27,18.59-.48,37.18-.79,55.76-.04,2.2.58,3.55,2.61,4.77,6.07,3.67,11.86,7.8,17.91,11.5,2.26,1.38,4.58,2.66,6.92,3.91.56.34,1.11.69,1.66,1.03.5.31,1.06.53,1.64.72,1.22.64,2.43,1.29,3.64,1.95.24-.31.47-.63.71-.94.15.04.31.07.46.11ZM47.63,116.46c.21-.09.42-.18.63-.26,9.3,22.23,18.59,44.45,27.89,66.68-.31.13-.61.26-.92.38-9.2-22.27-18.4-44.54-27.6-66.8ZM45.79,219.78v-97.92c.16-.7.36-1.45.56-2.31.09-.05.17-.09.26-.14.16.2.33.4.51.6,1.69,4.12,3.21,7.77,4.65,11.35.17.45.34.9.52,1.34.05.13.12.26.17.4.1.24.19.48.29.72,1.86,4.68,3.57,9.42,5.43,14.09,1.5,3.76,3.15,7.46,4.71,11.2,3.38,8.07,6.76,16.14,10.09,24.23.19.47.38.95.53,1.45.17.84.27,1.7.31,2.59.02,3.91.03,7.83.03,11.76,0,5.72,0,11.45,0,17.17,0,1.2-.11,2.4-.16,3.48h-27.91ZM43.92,222.37c.07-.12.14-.23.22-.35.07.22.16.44.26.65-.16-.1-.32-.2-.47-.3ZM47.74,221.95c.07-.24.14-.48.2-.72h25.79v17.18c-9.04-5.73-17.52-11.1-25.99-16.47ZM75.91,186.52c.23,0,.46,0,.7,0v53.63c-.23,0-.46,0-.7.01v-53.63Z"/>
      <path class="c" d="M319.24,294.5c4.3,14.73,8.87,29.39,13.35,44.07h71.24V-267.36c-.25-.88-.69-1.76-.72-2.64-.09-3.12.02-6.24-.04-9.37-.23-11.94-.29-23.89-.82-35.82-.32-7.39-1.38-14.74-2.07-22.11-.27-2.9-.55-5.79-.81-8.69.01-.83.04-1.65-.04-2.47-.24-2.72-.53-5.43-.8-8.14-.22-3.93-.25-7.87-.56-11.78-.08-.97-.2-1.93-.33-2.89-.02-.79-.05-1.58-.1-2.37-.16-2.57-.48-5.14-.87-7.69-.14-.92-.31-1.84-.48-2.75-.11-1.78-.22-3.55-.39-5.32-.25-2.49-.66-4.96-1.05-7.44,0-1.13,0-2.25-.08-3.37-.13-1.95-.55-3.89-.97-5.81-.26-1.17-.59-2.33-.9-3.5-.46-3.13-.91-6.26-1.39-9.38,0-.02,0-.03,0-.05-.13-1.97-.25-3.95-.45-5.91-.17-1.69-.58-3.37-1.02-5.01-.24-.9-.58-1.79-.89-2.68-.41-1.93-.84-3.85-1.21-5.78-.22-2.35-.31-4.72-.69-7.04-.3-1.84-.71-3.67-1.15-5.49-.11-.69-.22-1.39-.36-2.08-.2-1.01-.52-2-.88-2.99-.28-1.11-.59-2.21-.89-3.31-.69-2.56-1.45-5.11-2.07-7.69-.56-2.33-.78-4.74-1.47-7.02-.01-.03-.02-.07-.03-.1-.07-.3-.13-.6-.21-.89-1.41-5.18-3.05-10.29-4.76-15.38-.01-.04-.03-.07-.04-.11-.24-1.27-.5-2.53-.92-3.74-1.05-3.04-2.35-6-3.57-8.99-.57-1.61-1.14-3.23-1.7-4.85-1.6-4.68-3-9.43-4.57-14.12-.54-1.62-1.29-3.19-2.06-4.72-1.19-2.38-2.41-4.76-3.61-7.14-1.04-2.14-2.11-4.26-3.2-6.38-.12-.23-.24-.45-.36-.68-.81-1.61-1.63-3.21-2.42-4.83-1.46-2.96-2.46-6.15-4.06-9.02-1.41-2.52-3.03-4.92-4.67-7.32-2.03-3.68-4.01-7.41-6.4-10.85-1.4-2-3.06-3.81-4.74-5.61-3.37-7.43-8.61-13.49-14.05-19.39-4.25-6.26-10.52-12.23-15.56-16.83-1.98-1.89-3.97-3.76-5.95-5.65.07.12.14.25.2.37-.48-.46-.9-.88-1.25-1.26.06.01.12.01.18.03l-.8-.73h0c-1.07-1.33-1.7-1.81-2.08-1.89-2.53-2.31-5.07-4.62-7.6-6.92-4.82-3.6-9.55-7.32-14.45-10.79-.72-.51-1.44-1.01-2.16-1.51-.86-.59-1.75-1.12-2.67-1.62-2.25-1.23-7.34-5.08-7.82-5.62-.44-.5-1-.87-1.61-1.18-.98-.51-2.07-.88-2.93-1.45-.38-.25-.76-.5-1.14-.74-3.38-2.15-6.97-4-10.55-5.83-3.83-1.96-7.79-3.68-11.68-5.51-3.3-1.55-6.53-3.28-9.91-4.64-1.63-.65-3.3-1.2-4.97-1.73-1.76-.88-3.59-1.9-5.44-2-.23-.01-.45-.03-.67-.05-2.44-.83-5.04-1.55-5.74-4.7h-4.5c-.71,3.15-3.3,3.87-5.74,4.7-.22.02-.44.04-.67.05-1.84.1-3.67,1.12-5.44,2-1.67.53-3.34,1.07-4.97,1.73-3.38,1.36-6.61,3.08-9.91,4.64-3.9,1.83-7.85,3.55-11.68,5.51-3.98,2.04-7.98,4.1-11.69,6.57-1.97,1.31-12.06,7.85-15.02,9.88-5.68,3.9-11.09,8.18-16.61,12.3-2.21,2.01-4.41,4.02-6.62,6.03-.24-.31-.88-.15-2.44,1.78-3.12,3.85-16.88,14.15-23.88,25.15h.02c-5.41,5.88-10.62,11.91-13.98,19.31-1.68,1.8-3.35,3.61-4.74,5.61-2.4,3.43-4.38,7.16-6.4,10.85-1.64,2.39-3.26,4.79-4.67,7.32-1.6,2.87-2.6,6.06-4.06,9.02-.8,1.62-1.62,3.22-2.42,4.83-.12.23-.24.45-.36.68-1.09,2.12-2.16,4.24-3.2,6.38-1.21,2.38-2.42,4.75-3.61,7.13-.77,1.53-1.51,3.1-2.06,4.72-1.58,4.69-2.97,9.44-4.57,14.12-.55,1.62-1.12,3.24-1.7,4.85-1.22,2.99-2.52,5.94-3.57,8.99-.42,1.21-.68,2.47-.92,3.74-.01.04-.03.07-.04.11-1.71,5.09-3.35,10.2-4.76,15.38-.08.29-.14.59-.21.89-.01.03-.02.07-.03.1-.7,2.28-.92,4.69-1.47,7.02-.62,2.58-1.37,5.13-2.07,7.69-.3,1.1-.61,2.21-.89,3.31-.36.98-.67,1.97-.88,2.99-.14.69-.25,1.38-.36,2.08-.44,1.82-.85,3.64-1.15,5.49-.38,2.32-.47,4.69-.69,7.04-.38,1.93-.8,3.86-1.21,5.78-.32.89-.65,1.77-.89,2.68-.45,1.64-.85,3.32-1.02,5.01-.2,1.96-.31,3.94-.45,5.91,0,.02,0,.03,0,.05-.48,3.12-.94,6.25-1.39,9.38-.32,1.16-.65,2.32-.9,3.5-.42,1.92-.83,3.86-.97,5.81-.08,1.12-.08,2.25-.08,3.37-.39,2.48-.8,4.95-1.05,7.44-.17,1.77-.28,3.55-.39,5.32-.17.92-.33,1.83-.48,2.75-.39,2.55-.71,5.12-.87,7.69-.05.79-.08,1.58-.1,2.37-.13.96-.25,1.92-.33,2.89-.32,3.92-.34,7.86-.56,11.78-.27,2.71-.56,5.43-.8,8.14-.07.82-.05,1.65-.04,2.47-.26,2.9-.54,5.79-.81,8.69-.69,7.37-1.75,14.72-2.07,22.11-.52,11.93-.59,23.88-.82,35.82-.06,3.12.04,6.25-.04,9.37-.03.89-.47,1.76-.72,2.64V338.57h71.24c4.48-14.68,9.05-29.34,13.35-44.07.54-1.84,1.24-2.71,2.53-3.04h55.71c.1,0,.2.02.26.02.31,1.36.61,2.7.9,4.02.15,2.09.3,4.16.48,6.23.11,1.28,0,2.84.67,3.76,1.35,1.83,1.65,3.65,1.58,5.62-.27.91-.32,1.73-.21,2.48,0,.02,0,.05,0,.07-.2,1.64,1.71,3.54,2.77,5.53.23-.2.44-.39.66-.58.11.11.23.21.34.32.98-.56,1.96-1.11,3-1.7,1.13,1.52,2.2,2.98,3.16,4.26.13-.04.27-.08.41-.13.4.56.8,1.11,1.19,1.66.21-.14.42-.28.64-.42-.26-.6-.52-1.19-.71-1.65.01,0,.03-.01.04-.02,8.19.98,16.28,1.95,24.3,2.91.48.11.92.28,1.24.57,1.23,1.09,1.88,1.23,3.5.25.13-.08.27-.13.4-.2,1.23.15,2.47.3,3.69.44.12.15.22.32.31.5.02.05.04.1.06.15.09.22.16.46.21.72.03,0,.07-.02.1-.03.06.14.1.23.09.21,2.23-.74,3.81-1.26,5.37-1.78.02,0,.04-.01.05-.02-.04.56-.09,1.12-.13,1.67.16.08.33.18.49.27.55,2.08,2.41,1.62,4.01,1.41,1.6.21,3.46.68,4.01-1.41.16-.1.33-.19.49-.27-.04-.56-.09-1.12-.13-1.67.02,0,.04.01.05.02,1.57.52,3.14,1.04,5.37,1.78,0,.02.03-.07.09-.21.03,0,.07.02.1.03.04-.27.12-.5.21-.72.02-.05.04-.1.06-.15.09-.19.19-.36.31-.5,1.23-.15,2.46-.3,3.69-.44.13.07.27.12.4.2,1.61.98,2.26.85,3.5-.25.32-.28.76-.45,1.24-.57,8.02-.96,16.12-1.93,24.3-2.91.01,0,.03.01.04.02-.2.45-.45,1.05-.71,1.65.21.14.42.28.64.42.4-.55.79-1.11,1.19-1.66.14.05.27.09.41.13.95-1.29,2.03-2.74,3.16-4.26,1.04.59,2.02,1.14,3,1.7.12-.11.23-.21.34-.32.21.19.43.38.66.58,1.07-1.99,2.97-3.89,2.77-5.53,0-.02,0-.05,0-.07.12-.75.07-1.57-.21-2.48-.06-1.97.23-3.79,1.58-5.62.68-.92.56-2.48.67-3.76.18-2.06.33-4.14.48-6.23.3-1.32.6-2.65.9-4.02.06,0,.16-.01.26-.02h55.71c1.29.34,1.99,1.2,2.53,3.04ZM390.66,337.06c-8.52,0-17.04-.01-25.55,0-8.94,0-17.87-.03-26.79-.08-1.61-.35-2.44-1.35-3.05-3.43-4.39-14.86-9.05-29.63-13.44-44.49-.31-1.06.44-3.11,1.36-3.74,4.73-3.27,10.03-5.78,14.45-9.39.29-.24.59-.46.89-.68,1.31-.83,2.63-1.66,3.94-2.48,3.66-1.89,7.52-2.82,11.54-3.19,3.56,0,7.12,0,10.68,0,6.47.24,12.96.06,19.44-.07,0,0,.01,0,.02,0,0,0,0,0,0,0,.21,0,.42,0,.63-.01.6-.01,1.19-.33,1.78-.7.47-.21.94-.44,1.41-.61-.09-.04-.17-.08-.26-.12.09-.05.17-.1.26-.15-1.04-.45-2.06-1.28-3.11-1.29-2.92-.05-5.83-.06-8.75-.07-7.34-.07-14.71-.17-22.15-.65,0-.05,0-.1-.01-.15.69-.19,1.39-.42,2.08-.55h.04c.21-.04.42-.06.62-.07.14-.01.27-.02.41-.03.2,0,.4,0,.6-.01,3.13-.04,6.26-.05,9.39-.02.47.02.95.03,1.42.05.47.03.88.01,1.25-.03.08,0,.16,0,.24,0,2.24.05,3.28-.76,3.08-3.05-.28-3.2-.69-6.4-.73-9.6-.3-24.57-.59-49.15-.76-73.72-.01-2.18-.02-4.36-.03-6.54,0-6.71,0-13.43-.02-20.14,0-7.48.03-14.96.03-22.44v-4.02h.11c3.81,0,7.23.06,10.57,0,.19,0,.38,0,.57,0,1,0,2.06.2,2.98-.07.64-.18,1.18-.71,1.74-1.19.13-.07.27-.13.4-.19-.04-.02-.07-.04-.11-.06.04-.03.07-.06.11-.09-.76-.47-1.52-1.33-2.3-1.35-1.15-.03-2.3-.05-3.46-.06-3.48-.07-6.95,0-10.32,0-.38-6.13-.97-11.69-1.01-17.26-.03-4.27-.05-8.53-.06-12.8,0-14.07,0-28.14.08-42.21,0-.45-.01-.85-.05-1.22-.06-1.85-.5-3.06-3.12-3.04-.03,0-.05,0-.08,0-.29-.02-.6-.03-.95-.03-1.68.02-3.35.03-5.03.05-10.13.05-20.25.05-30.38.02-2.44-.02-4.88-.04-7.32-.07-3.36-.04-4.41,1.04-4.18,4.29.41,5.69,1.12,11.45.61,17.08-.39,4.37-2.1,8.73-3.81,12.85-.95,2.3-1.92,4.6-2.88,6.9-2.03,4.74-4.02,9.5-5.99,14.27-4.64,10.98-9.3,21.95-13.96,32.93V45.23h105.3v291.84c-2.81,0-5.61,0-8.41,0ZM37.06,254.76s.03.02.04.02c-.03.05-.05.1-.08.15,7.47,4.68,14.94,9.36,22.4,14.04-.15.23-.3.47-.44.7-7.07-4.37-14.13-8.74-21.2-13.11-.17.27-.34.54-.51.81.02.01.04.03.06.04-.02.02-.03.04-.05.06,2.96,1.97,5.91,3.94,8.87,5.91h-12.61c-.08-.75-.16-1.12-.16-1.49.17-22.72.37-45.44.52-68.16.11-16.24.18-32.49.2-48.73.03-26.87-.05-53.74.06-80.61.02-5.53.68-11.05,1.03-16.5h46.73v17.56c-.09.05-.19.1-.28.16-1.14-2.72-2.31-5.43-3.27-8.21-.82-2.38-2.15-3.15-4.66-3.11-.14,0-.28,0-.42,0-.18,0-.35-.02-.54-.02-1.75.04-3.49.05-5.24.07-6.26.04-12.51.02-18.77.02-1.74,0-3.48-.01-5.23,0-.19,0-.36,0-.53,0h-.02s-.01,0-.02,0c-.12,0-.24,0-.36.01-.93.03-1.86.17-2.82.26.03.17.04.32.07.48-.83.74-.68,2.09.29,4.42,5.91,14.2,11.96,28.35,17.91,42.53,5.29,12.61,10.54,25.24,15.79,37.87,2.72,6.54,5.18,13.19,8.15,19.61,1.77,3.82,2.43,7.62,2.43,11.77-.08,35.24-.05,70.47-.05,105.71v4.54c-14.01-8.79-27.6-17.38-41.28-25.84-1.66-1.03-3.75-1.36-5.64-2.02-.13.34-.26.69-.4,1.03ZM33.41,128.03c0-.81.02-1.62.03-2.44h.1c-.04.83-.08,1.62-.12,2.44ZM82.8,59.29v4.55c-.11-1.49-.12-3,0-4.55ZM151.13,76.33c-4.82,7.49-9.23,15.24-13.84,22.87-.22.37-.68.61-1.22,1.06-.27-.31-.54-.62-.79-.96-.01-.02-.02-.03-.03-.05-5.4-7.44-5.32-20.46,2.13-28.58,4.23-4.6,10.72-7.26,16.72-7.33.2,0,.4,0,.6.02.34,0,.68.01,1.01.04.55.04,1.08.1,1.62.19.03,0,.06,0,.09.01.45.07.89.18,1.33.28.17.04.35.07.52.12.13.04.26.08.39.12,1.47.46,2.85,1.12,4.06,2-.07.06-.15.12-.21.16-.04,0-.09.01-.13.02-8.23-1.76-9.31,5.46-12.25,10.03ZM156.43,70.17c.68-1.12,2.46-2.22,3.74-2.22,13.98-.06,27.96-.09,41.93-.09,13.98,0,27.96.03,41.93.09,1.27,0,3.06,1.11,3.74,2.22,13.89,22.79,27.69,45.64,41.38,68.55.79,1.33,1.16,2.92,1.59,4.64-.08.72-.25,1.46-.56,2.26H114.02c-.31-.79-.48-1.54-.56-2.26.42-1.73.79-3.32,1.59-4.64,13.69-22.91,27.49-45.76,41.38-68.55ZM240.82,66.31s-.09-.01-.13-.02c-.07-.03-.14-.1-.21-.16,1.21-.89,2.58-1.55,4.06-2,.13-.04.26-.09.39-.12.17-.05.35-.08.52-.12.44-.1.88-.21,1.33-.28.03,0,.06,0,.09-.01.53-.08,1.07-.14,1.62-.19.33-.02.67-.03,1.01-.04.2,0,.4-.02.6-.02,6,.07,12.49,2.72,16.72,7.33,7.46,8.12,7.54,21.14,2.13,28.58-.01.02-.02.03-.03.05-.25.34-.52.65-.79.96-.54-.45-.99-.68-1.22-1.06-4.61-7.63-9.02-15.38-13.84-22.87-2.94-4.56-4.02-11.78-12.25-10.03ZM269.71,103.48c-.45-.76-.31-2.37.21-3.15,3.35-5.06,4.91-10.33,4.28-16.58-1.25-12.47-12.02-22.09-23.87-21.45-4.02-.05-8.03.93-12.01,2.72-.02.01-.05.02-.07.03-6.3,1.2-12.55,1.24-18.94,1.3-1.76.02-3.51.02-5.27.02-.88,0-1.75,0-2.63,0-1.61,0-3.22-.01-4.84-.02-.95,0-1.89-.17-2.77-.26v-18.95h87.43v92.03c-7.55-12.45-14.59-24.03-21.52-35.67ZM200.41,66.08c-.88.09-1.83.25-2.77.26-1.61.01-3.22.02-4.84.02-.88,0-1.76,0-2.63,0-1.76,0-3.51,0-5.27-.02-6.39-.06-12.64-.11-18.94-1.3-.02-.01-.05-.02-.07-.03-3.98-1.78-7.99-2.77-12.01-2.72-11.84-.64-22.61,8.98-23.87,21.45-.63,6.25.93,11.52,4.28,16.58.52.78.67,2.39.21,3.15-6.92,11.64-13.97,23.22-21.52,35.67V47.12h87.43v18.95ZM112.19,145.47c.27.75,1.16,1.47,1.94,1.78.5.21,1.1.17,1.7.13.33.02.68.04,1.07.04,28.4-.06,56.8-.08,85.2-.08,28.4,0,56.8.03,85.2.08.39,0,.74-.01,1.07-.04.6.04,1.2.08,1.7-.13.77-.32,1.67-1.04,1.94-1.78,2.1-5.82,3.81-11.79,6.11-17.53,5.42-13.49,11.06-26.9,16.68-40.31,4.11-9.82,8.29-19.62,12.56-29.37.44-1,1.73-2.28,2.65-2.3.22,0,.45,0,.67,0h32.34c-2.2,5.38-4.32,10.62-6.49,15.83-5.49,13.19-10.96,26.39-16.5,39.55-6.16,14.64-12.38,29.25-18.56,43.87-.1.23-.16.47-.21.71-.13.77-.31,1.45-.52,2.08-.21.5-.41,1.01-.62,1.51-1.57,3.08-4.35,4.13-8.12,4.41-36.64-.06-73.28-.1-109.91-.1-36.64,0-73.28.04-109.91.1-3.77-.28-6.55-1.33-8.12-4.41-.2-.5-.41-1-.62-1.51-.21-.63-.38-1.31-.52-2.08-.04-.24-.11-.48-.21-.71-6.19-14.62-12.41-29.23-18.56-43.87-5.54-13.17-11.01-26.36-16.5-39.55-2.17-5.22-4.29-10.46-6.49-15.83h32.34c.22,0,.45,0,.67,0,.91.01,2.21,1.3,2.65,2.3,4.28,9.75,8.45,19.55,12.56,29.37,5.62,13.41,11.26,26.81,16.68,40.31,2.3,5.74,4.01,11.71,6.11,17.53ZM322.27,47.9h46.73c.36,5.45,1.01,10.97,1.03,16.5.11,26.87.03,53.74.06,80.61.02,16.24.1,32.49.2,48.73.15,22.72.35,45.44.52,68.16,0,.37-.08.74-.16,1.49h-12.61c2.96-1.97,5.91-3.94,8.87-5.91-.02-.02-.03-.04-.05-.06.02-.01.04-.03.06-.04-.17-.27-.34-.54-.51-.81-7.07,4.37-14.13,8.74-21.2,13.11-.15-.23-.3-.47-.44-.7,7.47-4.68,14.94-9.36,22.4-14.04-.03-.05-.05-.1-.08-.15.01,0,.03-.02.04-.02-.13-.34-.26-.69-.4-1.03-1.89.65-3.98.99-5.64,2.02-13.67,8.46-27.27,17.05-41.28,25.84v-4.54c0-35.24.03-70.47-.05-105.71,0-4.16.66-7.95,2.43-11.77,2.97-6.42,5.44-13.07,8.15-19.61,5.25-12.63,10.5-25.26,15.79-37.87,5.95-14.18,11.99-28.33,17.91-42.53.97-2.33,1.13-3.69.29-4.42.02-.16.04-.31.07-.48-.96-.09-1.89-.22-2.82-.26-.12,0-.23-.01-.36-.01,0,0-.01,0-.02,0h-.02c-.17,0-.34,0-.53,0-1.74,0-3.48,0-5.23,0-6.26,0-12.51.02-18.77-.02-1.75-.02-3.49-.03-5.24-.07-.19,0-.36.01-.54.02-.14,0-.28,0-.42,0-2.51-.03-3.85.73-4.66,3.11-.95,2.78-2.13,5.49-3.27,8.21-.09-.05-.19-.1-.28-.16v-17.56ZM321.41,63.84v-4.55c.12,1.55.11,3.06,0,4.55ZM370.67,125.59h.1c0,.81.02,1.62.03,2.44-.04-.81-.09-1.61-.12-2.44ZM86.91,165.53h230.38v124.03H86.91v-124.03ZM402.05,336.13c-.16.03-.32.05-.47.08v-4.04c0-110.56,0-221.13.04-331.69,0-1.56.21-3.13.44-4.69v340.34ZM46.17-233.78c0-.23.02-.45.03-.68.01-.27.03-.53.05-.8.18-2.12.64-4.24.93-6.34h63.25V43.67H42.64c-.09-.94-.25-1.89-.25-2.84,0-.4,0-.79,0-1.19.24-13.25.51-26.5.74-39.75.27-16.19.5-32.39.76-48.58.24-15.57.52-31.14.74-46.71.27-18.44.55-36.88.74-55.33.29-27.69.48-55.38.8-83.06ZM44.08-166.98v-18.57c.11,0,.23,0,.34,0v18.57c-.11,0-.23,0-.34,0ZM45.12-213.95c-.09,0-.18,0-.28,0v-27.75c.09,0,.18,0,.28,0v27.75ZM112.59-242.61c1.85,0,3.58,0,5.31,0,.57,0,1.07-.05,1.54-.12,2.53-.31,3.51-1.3,3.81-3.86,0-.02,0-.03,0-.05.04-.38.07-.78.09-1.23,0-.02,0-.04,0-.06,0-.09,0-.19,0-.28,0-.17.01-.33.01-.51.02-2.06.16-4.13.02-6.17,0-1.13,0-2.28-.01-3.45.33-1.4,1.33-2.06,3.1-2.27h.86c24.93,0,49.86.01,74.78,0,24.93,0,49.86,0,74.78,0h.86c1.77.21,2.76.87,3.1,2.27,0,1.17,0,2.32-.01,3.45-.14,2.04,0,4.11.02,6.17,0,.18,0,.35.01.52,0,.09,0,.18,0,.27,0,.02,0,.04,0,.06.02.45.05.85.09,1.23,0,.02,0,.03,0,.05.3,2.57,1.28,3.56,3.81,3.86.47.07.97.12,1.54.12,1.73.01,3.46,0,5.31,0V45.09H112.59V-242.61ZM48.4-287.1c.33-8.16.86-16.31,1.48-24.45.91-11.93,1.85-23.86,3.02-35.76.48-4.84.92-9.68,1.42-14.52.73-5.68,1.47-11.35,2.22-17.03.08-.47.15-.94.23-1.4,3.05-17.44,6.5-34.84,10.44-52.1,4.41-19.39,10.31-38.31,17.95-56.59.29-.68.58-1.37.87-2.05,2.43-5.7,5.02-11.34,7.8-16.9,6.23-12.47,13.45-24.52,21.13-36.16,10.36-15.7,22.28-30.27,36.91-42.29,10.05-8.25,20.32-16.27,30.8-23.97,4.65-3.41,9.85-6.08,15.04-9.05.35-.17.72-.34,1.11-.53v15.65s-.06,0-.08,0c.01.65.02,1.29.01,1.94.05-.03.1-.06.16-.09.06,1.23.07,2.46.21,3.68.17,1.53-.49,3.31.59,4.59.48,1.59,1.58,3.14,1.57,4.7-.08,9.32-.63,18.65-.61,27.97,0,2.8.05,5.6.11,8.39-.07,5.5-.12,11.01-.11,16.51,0,11.11.2,22.23.37,33.34-.17,10.85-.35,21.7-.37,32.55,0,5.35.09,10.7.21,16.05-.13,5.07-.23,10.15-.21,15.22.03,13.58.35,27.16.52,40.74-.16,30-.39,60-.57,90-.04,7.25,0,14.49,0,21.74,0,.06,0,.13,0,.19-.05,8.04,0,16.09,0,24.62h-3.69c-14.8,0-29.61,0-44.41,0-5.68,0-11.36,0-17.05-.01-3.12,0-5.53-.06-7.39.01h-.25c-5.06,0-5.86.87-5.97,6.1-.08,3.89-.28,7.78-.44,11.75H47.56c0-4.46,0-8.89,0-13.3,0-.15.02-.3.02-.45.36-9.69.42-19.4.82-29.09ZM45.87-265.57l-.3-.04v-9.18c.1,0,.2,0,.3,0v9.21ZM46.17-278.07c-.19-.03-.38-.05-.57-.08.07-1.19.14-2.37.2-3.56,1.26-18.54,2.52-37.09,3.78-55.63.09-1.16.19-2.32.28-3.48.32.03.65.05.97.08-.08.77-.16,1.54-.24,2.32-.23,1.95-.47,3.89-.62,5.84-.31,2.95-.6,5.9-.82,8.85-1.1,15.04-2.08,30.09-2.96,45.14-.01.17,0,.34-.02.51ZM354.32-311.55c.62,8.14,1.15,16.29,1.48,24.45.39,9.69.46,19.4.82,29.09,0,.15.02.3.02.45,0,4.41,0,8.84,0,13.3h-73.85c-.15-3.97-.36-7.86-.44-11.75-.11-5.23-.9-6.1-5.97-6.1h-.25c-1.86-.07-4.27-.02-7.39-.01-5.68.01-11.36.01-17.05.01-14.8,0-29.61,0-44.41,0h-3.69c0-8.52.05-16.58,0-24.62,0-.06,0-.13,0-.19,0-7.25.04-14.49,0-21.74-.18-30-.41-60-.57-90,.18-13.58.49-27.16.52-40.74.01-5.07-.09-10.15-.21-15.22.12-5.35.22-10.7.21-16.05-.02-10.85-.2-21.7-.37-32.55.17-11.11.36-22.23.37-33.34,0-5.5-.05-11.01-.11-16.51.06-2.8.11-5.6.11-8.4.02-9.32-.53-18.64-.61-27.97-.01-1.56,1.08-3.11,1.57-4.7,1.08-1.29.41-3.07.59-4.59.14-1.22.15-2.45.21-3.68.06.03.09.06.15.08.03-.64.08-1.28.15-1.92-.07,0-.14-.01-.21-.02v-15.65c.39.19.76.36,1.11.53,5.19,2.97,10.39,5.64,15.04,9.05,10.48,7.7,20.75,15.71,30.8,23.97,14.63,12.02,26.55,26.59,36.91,42.29,7.68,11.64,14.91,23.69,21.13,36.16,2.78,5.57,5.37,11.2,7.8,16.91.29.68.58,1.36.86,2.04,7.64,18.28,13.54,37.21,17.95,56.59,3.93,17.27,7.39,34.66,10.44,52.1.08.47.15.94.23,1.41.75,5.67,1.49,11.35,2.22,17.03.5,4.84.94,9.69,1.42,14.52,1.17,11.91,2.11,23.83,3.02,35.76ZM354.34-340.81c.09,1.16.19,2.31.28,3.47,1.26,18.55,2.52,37.09,3.78,55.64.07,1.19.14,2.37.2,3.56-.19.03-.38.05-.57.08,0-.17,0-.34-.02-.51-.89-15.05-1.86-30.1-2.96-45.14-.22-2.96-.51-5.91-.82-8.86-.15-1.95-.38-3.9-.62-5.84-.08-.77-.16-1.54-.24-2.32.32-.03.65-.05.97-.08ZM358.63-274.78v9.18c-.1.01-.2.03-.3.04v-9.21c.1,0,.2,0,.3,0ZM202.1-594.89c-.6-.62-.76-2.28-1.26-7.49h2.52c-.5,5.21-.66,6.86-1.26,7.49ZM358.84-150.72c.19,18.44.47,36.89.74,55.33.23,15.57.5,31.14.74,46.71.25,16.19.48,32.39.76,48.58.22,13.25.49,26.5.74,39.75,0,.4,0,.79,0,1.19,0,.95-.17,1.9-.25,2.84h-67.79V-241.6h63.25c.29,2.1.75,4.22.93,6.34.02.27.04.53.05.8.01.23.02.45.03.68.32,27.69.51,55.38.8,83.06ZM359.78-185.55c.11,0,.23,0,.34,0v18.57c-.11,0-.23,0-.34,0v-18.57ZM359.09-241.7c.09,0,.18,0,.28,0v27.75c-.09,0-.18,0-.28,0v-27.75ZM401.42-178.08c-.18,35.24-.39,70.48-.59,105.72-.03,5.9.04,11.8-.01,17.69-.23,27.44-.5,54.89-.74,82.33-.02,2.17-.02,4.35-.02,6.56-.03,3.05-.05,6.09-.08,9.14h-36.41c-.06-.59-.23-1.54-.23-2.48-.26-47.42-.47-94.85-.78-142.27-.17-25.94-.46-51.87-.74-77.81-.22-20.19-.55-40.38-.64-60.57,0-1.66.77-3.76,1.9-5.03,2.87-2.63,5.97-5.01,8.88-7.6,4.25-3.78,8.48-7.59,12.7-11.39,2.4-2.08,4.79-4.16,7.17-6.25,2.85-2.49,5.57-5.12,8.93-7.49.45,33.16.63,66.3.64,99.45ZM217.11-669.21c8.2,3.64,16.19,7.2,24.08,10.92,6.4,3.02,12.48,6.69,18.71,10.07,0-.02,11.75,8.39,17.64,12.58,2.55,1.82,5.15,3.58,7.73,5.36,2.64,2.49,5.26,5,7.95,7.44,0,.01,0,.03,0,.03l15.42,14.84,9.28,9.78c.59.96,1.2,1.9,1.86,2.82,3.92,5.44,7.89,10.83,11.89,16.21.12.16.26.3.41.43,2.95,4.59,5.99,9.12,8.53,13.92,6.79,12.87,13.56,25.77,19.69,38.96,9.65,20.77,16.03,42.71,21.26,64.95,3.16,13.43,5.6,27.04,7.96,40.64,1.76,10.12,3.24,20.3,4.56,30.49.47,4.11.95,8.22,1.44,12.32.63,6.57,1.07,13.16,1.54,19.74.85,12.09,1.54,24.19,2.28,36.29.27,4.32.58,8.65.73,12.97.31,8.7.58,17.39.7,26.09.02,1.32-.46,3.09-1.38,3.91-9.22,8.2-18.6,16.21-27.89,24.34-2.97,2.6-5.86,5.31-9.29,8.48-.26.21-.51.41-.77.62-.4-5.45-.84-10.26-1.09-15.09-.16-3.24-.31-6.47-.45-9.71-.1-4.22-.2-8.44-.36-12.66-.32-8.78-.77-17.56-1.51-26.32-.3-3.59-.63-7.18-.96-10.77-.17-2.31-.34-4.61-.51-6.92-.67-9.1-1.2-18.24-2.32-27.29-1.44-11.68-3.22-23.32-5.21-34.92-2.11-12.29-4.24-24.59-7.07-36.73-5.44-23.32-12.45-46.16-21.97-68.22-6.3-14.63-13.23-28.92-21.91-42.21-4.77-7.64-9.97-15.03-15.71-22.09-2.79-3.43-5.31-7.08-8.26-10.36-.78-.87-1.66-1.66-2.57-2.43-1.84-2.08-3.71-4.15-5.62-6.19-1.53-2.47-3.48-4.53-5.91-6.09-4.83-4.81-9.89-9.39-15.2-13.58-6.12-4.82-12.56-9.24-19.1-13.54-1.29-1.03-2.59-2.05-3.91-3.03-2.15-1.6-4.49-2.97-6.8-4.35-1.65-.99-3.3-2.04-5.05-2.8-.83-.54-1.66-1.07-2.48-1.61-.91-.59-1.51-1.14-1.88-1.79-.27-.61-.43-1.3-.52-2.07,0-.13-.01-.26-.01-.4.01-2.8.01-5.6.02-8.4.12-12.83.02-25.75.02-39.26,4.14,1.6,8.1,3.1,12.01,4.62ZM202.1-675.29l.51.13v68.71c-.17.03-.34.07-.51.1-.17-.03-.34-.07-.51-.1v-68.71l.51-.13ZM3.44-282.35c.12-8.7.39-17.4.7-26.09.15-4.33.46-8.65.73-12.97.74-12.1,1.43-24.2,2.28-36.29.46-6.58.9-13.18,1.54-19.74.49-4.11.97-8.21,1.44-12.32,1.31-10.19,2.8-20.37,4.56-30.49,2.36-13.6,4.8-27.21,7.96-40.64,5.22-22.23,11.6-44.18,21.26-64.95,6.13-13.19,12.9-26.09,19.69-38.96,2.54-4.8,5.58-9.34,8.53-13.92.15-.13.3-.27.41-.43,4-5.38,7.98-10.77,11.89-16.21.88-1.23,1.68-2.52,2.47-3.81l9.29-9.78,13.18-12.68c.26-.06.5-.15.68-.31,3.04-2.7,5.95-5.53,8.91-8.31,2.58-1.79,5.17-3.55,7.73-5.36,5.89-4.19,17.64-12.6,17.64-12.58,6.23-3.38,12.32-7.05,18.71-10.07,7.89-3.73,15.87-7.28,24.08-10.92,3.91-1.52,7.87-3.02,12.01-4.62,0,13.51-.1,26.43.02,39.25,0,2.8,0,5.6.02,8.41,0,.14,0,.27-.01.4-.09.77-.25,1.46-.52,2.07-.38.65-.98,1.2-1.88,1.79-.83.54-1.66,1.07-2.48,1.61-1.75.76-3.4,1.81-5.05,2.8-2.31,1.38-4.64,2.75-6.8,4.35-1.32.98-2.62,2.01-3.91,3.03-6.54,4.29-12.97,8.71-19.09,13.54-5.31,4.19-10.36,8.77-15.2,13.58-2.44,1.57-4.38,3.62-5.91,6.09-1.91,2.04-3.78,4.1-5.62,6.19-.9.76-1.78,1.55-2.57,2.43-2.94,3.28-5.47,6.93-8.26,10.36-5.74,7.06-10.93,14.46-15.71,22.09-8.68,13.28-15.61,27.58-21.91,42.21-9.51,22.07-16.52,44.9-21.97,68.22-2.83,12.13-4.96,24.44-7.07,36.73-1.99,11.6-3.77,23.24-5.21,34.92-1.12,9.05-1.65,18.18-2.32,27.29-.17,2.31-.34,4.61-.51,6.92-.33,3.59-.66,7.18-.96,10.77-.74,8.75-1.19,17.54-1.51,26.32-.15,4.22-.26,8.44-.36,12.66-.14,3.24-.29,6.48-.45,9.71-.24,4.82-.69,9.64-1.09,15.09-.26-.21-.51-.41-.77-.62-3.43-3.16-6.31-5.88-9.29-8.48-9.29-8.12-18.67-16.14-27.89-24.34-.92-.81-1.4-2.59-1.38-3.91ZM3.37-72.36c-.19-35.24-.41-70.48-.59-105.71,0-33.15.19-66.29.64-99.45,3.37,2.36,6.09,5,8.93,7.49,2.39,2.09,4.78,4.17,7.17,6.25,4.23,3.8,8.45,7.61,12.7,11.39,2.91,2.59,6.01,4.97,8.88,7.6,1.14,1.27,1.91,3.37,1.9,5.03-.09,20.19-.42,40.38-.64,60.57-.28,25.94-.58,51.87-.74,77.81-.3,47.42-.51,94.85-.78,142.27,0,.95-.18,1.89-.23,2.48H4.22c-.02-3.05-.05-6.09-.08-9.14,0-2.21,0-4.39-.02-6.56C3.88.22,3.62-27.22,3.38-54.66c-.05-5.9.02-11.8-.01-17.69ZM2.15,336.13V-4.21c.23,1.56.44,3.13.44,4.69.04,110.56.04,221.13.04,331.69v4.04c-.16-.03-.32-.05-.47-.08ZM5.13,337.06V45.23h105.3v89.13c-4.65-10.98-9.32-21.95-13.96-32.93-1.97-4.77-3.95-9.53-5.99-14.27-.96-2.3-1.93-4.6-2.88-6.9-1.71-4.12-3.42-8.48-3.81-12.85-.5-5.63.2-11.39.61-17.08.24-3.25-.82-4.33-4.18-4.29-2.44.03-4.88.05-7.32.07-10.13.03-20.26.03-30.38-.02-1.68-.02-3.35-.03-5.03-.05-.34,0-.65,0-.95.03-.03,0-.05,0-.08,0-2.62-.02-3.06,1.19-3.12,3.04-.04.37-.05.77-.05,1.22.08,14.07.08,28.15.08,42.22-.01,4.26-.03,8.53-.06,12.79-.04,5.57-.64,11.13-1.01,17.26-3.36,0-6.83-.06-10.32,0-1.16.01-2.31.03-3.46.06-.78.02-1.53.88-2.3,1.35.04.03.07.06.11.09-.04.02-.07.04-.11.06.13.06.27.12.4.19.56.47,1.1,1,1.74,1.19.92.27,1.98.07,2.98.07.19,0,.38,0,.57,0,3.34.07,6.75,0,10.57,0h.11c0,1.41,0,2.72,0,4.02,0,7.48.02,14.96.03,22.44-.02,6.71-.02,13.42-.02,20.13,0,2.18-.01,4.36-.03,6.55-.17,24.57-.46,49.15-.76,73.72-.04,3.2-.45,6.4-.73,9.6-.2,2.29.84,3.11,3.08,3.05.08,0,.16,0,.24,0,.38.04.78.05,1.25.03.47-.03.95-.03,1.42-.05,3.13-.03,6.26-.02,9.39.02.2,0,.4,0,.6.01.14,0,.27.02.41.03.21.01.42.03.62.07.01,0,.02,0,.04,0,.7.13,1.39.36,2.08.55,0,.05,0,.1-.01.15-7.44.48-14.8.58-22.15.65-2.92,0-5.83.02-8.75.07-1.04.02-2.07.84-3.11,1.29.09.04.17.1.26.15-.09.04-.17.08-.26.12.47.17.94.39,1.41.61.59.37,1.18.69,1.78.7.21,0,.42,0,.63.01,0,0,0,0,0,0,0,0,.01,0,.02,0,6.48.13,12.97.31,19.44.07,3.56,0,7.12,0,10.68,0,4.02.36,7.88,1.29,11.54,3.19,1.32.83,2.63,1.65,3.94,2.48.3.22.59.44.89.68,4.42,3.61,9.73,6.12,14.45,9.39.92.63,1.67,2.68,1.36,3.74-4.39,14.86-9.05,29.63-13.44,44.49-.61,2.08-1.45,3.07-3.05,3.43-8.92.05-17.84.07-26.79.08-8.52,0-17.04,0-25.55,0-2.8,0-5.6,0-8.41,0ZM81.84,300.1c-3.44,11.56-6.98,23.1-10.55,34.62-.32,1.03-.89,1.98-1.43,2.94-.25-.08-.5-.15-.75-.23,5-16.36,10.01-32.72,15.01-49.08.21.05.43.11.64.16-.97,3.86-1.79,7.77-2.93,11.58ZM153.4,314.31c-.51-.96-.96-1.75-1.6-2.32-.29-.25-.56-.51-.82-.77-3.99-5.77-5.39-12.17-2.99-19.67.05-.02.1-.03.15-.06h7.67c-.16,3.37-.32,6.72-.48,10.06-.24,4.55-.48,9.15-.73,14.05-.41-.43-.81-.86-1.2-1.3ZM157.28,315.81c.04-4.1.42-8.2.56-12.31.1-3.24-.12-6.5.12-9.73.06-.76.8-1.46,1.6-2.4.25.02.45.08.62.18v10.39c-.39,5.61-.74,11.29-1.13,17.16-.2.08-.39.12-.58.13-.45-1.14-1.21-2.29-1.2-3.43ZM190.44,292.07c-.64.73-1.96,1.19-3.92,1.39-5-.42-10.01-.85-15.01-1.27-.78-.14-1.57-.29-2.39-.45,0-.07,0-.14,0-.2h20.57c.25.13.49.33.74.53ZM214.5,291.53h20.57c0,.07,0,.14,0,.2-.82.16-1.62.31-2.39.45-5,.42-10.01.85-15.01,1.27-1.95-.2-3.28-.66-3.92-1.39.24-.2.49-.4.74-.53ZM190.19,322.87c-8.2-.77-16.41-1.46-24.59-2.4-.95-.11-2.47-1.58-2.5-2.45-.17-6.39-.04-12.79.01-19.18.02-2.7.57-4.05,2.02-4.5,7.73.73,15.53,1.44,23.3,2.35.89.1,2.27,1.66,2.29,2.57.18,7.86.11,15.73.11,23.74-.29-.07-.47-.12-.65-.13ZM193.68,323.21v-26.77c.34-.11.68-.23,1.02-.34.46.86,1.22,1.69,1.33,2.6.02.54.08,1.03.19,1.46.25,1.4.8,2.46,2.95,2.61.78.05,2.03,1.69,2.06,2.64.09,2.9.12,5.81.12,8.73,0,.47,0,.94,0,1.41,0,2.53-.02,5.08-.02,7.66h-7.66ZM202.87,323.21c0-2.58-.02-5.12-.02-7.65,0-.48,0-.95,0-1.43,0-2.92.03-5.83.12-8.73.03-.94,1.29-2.58,2.06-2.64,2.15-.15,2.7-1.21,2.95-2.61.11-.43.17-.92.19-1.46.12-.9.87-1.73,1.33-2.6.34.11.68.23,1.02.34v26.77h-7.66ZM238.61,320.47c-8.18.94-16.39,1.63-24.59,2.4-.18.02-.36.06-.65.13,0-8.01-.07-15.88.11-23.74.02-.91,1.41-2.47,2.29-2.57,7.78-.91,15.57-1.62,23.3-2.35,1.45.45,2,1.8,2.02,4.5.05,6.39.19,12.79.01,19.18-.02.87-1.54,2.34-2.5,2.45ZM256.07,291.49s.11.03.15.06c2.4,7.5,1,13.9-2.99,19.67-.26.26-.53.52-.82.77-.64.56-1.09,1.36-1.6,2.32-.38.44-.78.87-1.2,1.3-.26-4.9-.49-9.5-.73-14.04-.16-3.35-.32-6.7-.48-10.07h7.67ZM246.25,293.77c.24,3.23.02,6.49.12,9.73.13,4.11.52,8.21.56,12.31.01,1.14-.75,2.29-1.2,3.43-.19-.01-.38-.05-.58-.13-.39-5.88-.74-11.55-1.13-17.16v-10.39c.17-.1.37-.17.62-.18.8.93,1.55,1.64,1.6,2.4ZM319.44,288.52c.21-.05.43-.11.64-.16,5,16.36,10.01,32.72,15.01,49.08-.25.08-.5.15-.75.23-.54-.96-1.11-1.91-1.43-2.94-3.57-11.52-7.11-23.06-10.55-34.62-1.14-3.81-1.96-7.72-2.93-11.58Z"/>
      <path class="c" d="M330.02,174.33c-1.3,3.15-2.86,6.41-3.69,9.69-.26.7-.46,1.43-.46,2.13,0,.1,0,.21,0,.31-.05.46-.1.92-.12,1.38-.49,18.16-.2,36.35-.2,55.22.15-.04.31-.08.46-.11.24.31.47.63.71.94,1.21-.66,2.43-1.3,3.64-1.95.58-.19,1.14-.41,1.64-.72.56-.34,1.11-.69,1.66-1.03,2.34-1.25,4.66-2.53,6.92-3.91,6.06-3.69,11.85-7.82,17.91-11.5,2.02-1.22,2.64-2.57,2.61-4.77-.3-18.59-.51-37.18-.79-55.76-.22-14.97-.57-29.93-.68-44.9,0-.43-.02-.85-.05-1.25-.1-2.31-.69-4.38-3.5-5.57-.23.38-.67.95-.93,1.59-8.41,20.05-16.86,40.09-25.15,60.19ZM360.28,222.37c-.16.1-.32.2-.47.3.1-.21.19-.42.26-.65.07.12.14.23.22.35ZM356.26,221.23c.07.24.14.48.2.72-8.48,5.37-16.95,10.74-25.99,16.47v-17.18h25.79ZM328.29,240.16c-.23,0-.46,0-.7-.01v-53.63c.23,0,.46,0,.7,0v53.63ZM357.85,119.54c.2.86.4,1.61.56,2.31v97.92h-27.91c-.05-1.09-.16-2.29-.16-3.48,0-5.72,0-11.45,0-17.17,0-3.93.01-7.84.03-11.76.04-.88.14-1.75.31-2.59.15-.49.33-.98.53-1.45,3.34-8.09,6.71-16.16,10.09-24.23,1.56-3.74,3.21-7.44,4.71-11.2,1.87-4.68,3.58-9.41,5.43-14.09.1-.24.19-.48.29-.72.06-.13.12-.26.17-.4.18-.44.35-.89.52-1.34,1.44-3.58,2.96-7.23,4.65-11.35.18-.2.35-.39.51-.6.09.05.17.09.26.14ZM356.57,116.46c-9.2,22.27-18.4,44.54-27.6,66.8-.31-.13-.61-.26-.92-.38,9.3-22.23,18.59-44.45,27.89-66.68.21.09.42.18.63.26Z"/>
    </g>
  </g>
</svg>