<?xml version="1.0" encoding="UTF-8"?>
<svg id="Layer_1" xmlns="http://www.w3.org/2000/svg" version="1.1"   width="50" height="50" viewBox="0 0 64 62">
  <!-- Generator: Adobe Illustrator 29.5.1, SVG Export Plug-In . SVG Version: 2.1.0 Build 141)  -->
  <defs>
    <style>
      .st0 {
        fill: #fff;
      }
    </style>
  </defs>
  <path class="st0" d="M23.85,39.03c2.17,2.05,5.09,3.2,8.13,3.2h0c3.09,0,6.05-1.19,8.23-3.3,2.18-2.11,3.41-4.98,3.41-7.97h0c0-2.99-1.23-5.86-3.41-7.97-2.15-2.08-5.05-3.27-8.09-3.3h-.14s-.14,0-.14,0c-3.03.04-5.94,1.22-8.09,3.3-2.15,2.08-3.37,4.89-3.41,7.83v.14c0,2.99,1.23,5.86,3.41,7.97l.1.1ZM26.09,25.25c1.56-1.51,3.68-2.36,5.89-2.36h0c2.21,0,4.33.85,5.89,2.36,1.56,1.51,2.44,3.56,2.44,5.7v.1c-.03,2.1-.9,4.11-2.44,5.6-1.54,1.49-3.61,2.34-5.78,2.36h-.1c-2.17,0-4.26-.82-5.81-2.29l-.07-.07c-1.56-1.51-2.44-3.56-2.44-5.7s.88-4.19,2.44-5.7Z"/>
  <path class="st0" d="M59.07,13.15c-.3-1.01-.71-2.05-1.21-2.89l-.1-.16h0s-3.83-6.07-3.83-6.07c-.68-1.09-1.4-1.97-2.14-2.58-.66-.54-1.56-1.05-2.6-.97-.5-.04-1.01.05-1.48.31-.51.29-.85.72-1.08,1.13-.43.79-.57,1.82-.57,2.88v9.66h-28.06V4.8c0-1.07-.14-2.09-.57-2.88-.22-.41-.56-.84-1.08-1.13-.47-.27-.98-.36-1.48-.31-1.04-.08-1.95.42-2.6.97-.69.57-1.36,1.39-2.01,2.38l-.13.2-3.83,6.07c-.54.86-1,1.98-1.31,3.06-.31,1.08-.53,2.26-.53,3.27v37.73c0,1.01.22,2.18.53,3.26.31,1.08.77,2.19,1.31,3.06l.46.73,11.23.51v-14.26h28.06v14.26l11.23-.51.46-.73c.54-.86,1-1.98,1.31-3.06.31-1.08.53-2.26.53-3.26V16.41c0-1.01-.22-2.18-.53-3.26ZM14.69,58.34l-5.93-.27c-.21-.45-.4-.97-.56-1.53-.26-.9-.41-1.77-.41-2.39V16.41c0-.62.14-1.49.41-2.39.26-.9.61-1.72.95-2.26l3.83-6.07.11-.17c.54-.83,1-1.36,1.35-1.64.07-.06.13-.1.18-.13,0,.02,0,.04.01.06.04.24.07.57.07.99v53.54ZM45.69,44.24h-27.42v-26.57h27.42v26.57ZM56.28,54.14c0,.62-.14,1.49-.41,2.39-.16.56-.36,1.09-.56,1.53l-5.93.27V4.8c0-.42.03-.74.07-.99,0-.02,0-.04.01-.06.05.03.11.07.18.13.37.31.87.88,1.46,1.81l3.83,6.07c.34.54.69,1.35.95,2.26.26.9.41,1.77.41,2.39v37.73Z"/>
</svg>