<?xml version="1.0" encoding="UTF-8"?>
<svg id="Layer_1" xmlns="http://www.w3.org/2000/svg" version="1.1"   width="50" height="50" viewBox="0 0 63 62">
  <!-- Generator: Adobe Illustrator 29.5.1, SVG Export Plug-In . SVG Version: 2.1.0 Build 141)  -->
  <defs>
    <style>
      .st0 {
        fill: #fff;
      }
    </style>
  </defs>
  <path class="st0" d="M57.8,26.31c-2.14,0-3.93,1.38-4.56,3.28h-5.85v-9.99c0-2.3-1.86-4.17-4.19-4.23h-.11s-2.56,0-2.56,0v-7.62h7.57c.68,1.81,2.43,3.1,4.5,3.1,2.66,0,4.82-2.12,4.82-4.74s-2.16-4.74-4.82-4.74c-2.21,0-4.05,1.47-4.62,3.46h-8.94c-.79,0-1.44.61-1.48,1.38v.08s0,9.08,0,9.08h-12.15V6.3c0-.78-.62-1.42-1.41-1.46h-.08s-8.94,0-8.94,0c-.57-1.99-2.41-3.46-4.62-3.46-2.66,0-4.82,2.12-4.82,4.74s2.16,4.74,4.82,4.74c2.07,0,3.82-1.29,4.5-3.1h7.57v7.62h-2.67c-2.37,0-4.3,1.89-4.3,4.23v9.99h-5.74c-.63-1.9-2.42-3.28-4.56-3.28-2.66,0-4.82,2.12-4.82,4.74s2.16,4.74,4.82,4.74c2.14,0,3.93-1.38,4.56-3.28h5.74v10.14c.06,2.29,1.96,4.12,4.3,4.12h2.67v7.58h-7.57c-.68-1.81-2.43-3.1-4.5-3.1-2.66,0-4.82,2.12-4.82,4.74s2.16,4.74,4.82,4.74c2.21,0,4.05-1.47,4.62-3.46h8.94c.82,0,1.48-.65,1.48-1.46v-9.04h12.15v9.04c0,.81.66,1.46,1.48,1.46h8.94c.57,1.99,2.41,3.46,4.62,3.46,2.66,0,4.82-2.12,4.82-4.74s-2.16-4.74-4.82-4.74c-2.07,0-3.82,1.29-4.5,3.1h-7.57v-7.58h2.56c2.37,0,4.3-1.89,4.3-4.23v-10.03h5.85c.63,1.9,2.42,3.28,4.56,3.28,2.66,0,4.82-2.12,4.82-4.74s-2.16-4.74-4.82-4.74ZM52.61,4.29c1.02,0,1.85.82,1.85,1.82s-.83,1.82-1.85,1.82-1.85-.82-1.85-1.82.83-1.82,1.85-1.82ZM10.39,7.94c-1.02,0-1.85-.82-1.85-1.82s.83-1.82,1.85-1.82,1.85.82,1.85,1.82-.83,1.82-1.85,1.82ZM5.2,32.87c-1.02,0-1.85-.82-1.85-1.82s.83-1.82,1.85-1.82,1.85.82,1.85,1.82-.83,1.82-1.85,1.82ZM10.39,57.81c-1.02,0-1.85-.82-1.85-1.82s.83-1.82,1.85-1.82,1.85.82,1.85,1.82-.83,1.82-1.85,1.82ZM52.61,54.16c1.02,0,1.85.82,1.85,1.82s-.83,1.82-1.85,1.82-1.85-.82-1.85-1.82.83-1.82,1.85-1.82ZM44.43,42.54c0,.72-.6,1.31-1.33,1.31h-23.3c-.71,0-1.3-.55-1.33-1.24v-.07s0-22.93,0-22.93c0-.72.6-1.31,1.33-1.31h23.37c.7.04,1.27.61,1.27,1.31v22.93ZM57.8,32.87c-1.02,0-1.85-.82-1.85-1.82s.83-1.82,1.85-1.82,1.85.82,1.85,1.82-.83,1.82-1.85,1.82Z"/>
  <path class="st0" d="M34.46,23.98h-.11s-5.82,0-5.82,0c-2.37,0-4.3,1.89-4.3,4.23v5.83c.06,2.29,1.96,4.12,4.3,4.12h5.82c2.37,0,4.3-1.89,4.3-4.23v-5.72c0-2.3-1.86-4.17-4.19-4.23ZM35.69,33.93c0,.72-.6,1.31-1.33,1.31h-5.82c-.71,0-1.3-.55-1.33-1.24v-.07s0-5.72,0-5.72c0-.72.6-1.31,1.33-1.31h5.89c.7.04,1.27.61,1.27,1.31v5.72Z"/>
</svg>