<svg width="24" height="24" viewBox="0 0 24 24" fill="none" xmlns="http://www.w3.org/2000/svg">
<mask id="path-1-inside-1_123_2567" fill="white">
<path d="M12.3193 6.95703C14.5414 8.38008 16.0155 10.8686 16.0156 13.7031C16.0156 18.1257 12.4304 21.7118 8.00781 21.7119C3.58515 21.7119 0 18.1258 0 13.7031C0.00016532 10.8689 1.47353 8.38014 3.69531 6.95703V2H12.3193V6.95703Z"/>
</mask>
<path d="M12.3193 6.95703H11.3193V7.50411L11.78 7.79914L12.3193 6.95703ZM16.0156 13.7031L17.0156 13.7031L17.0156 13.7031L16.0156 13.7031ZM8.00781 21.7119L8.00781 22.7119L8.00783 22.7119L8.00781 21.7119ZM0 13.7031L-1 13.7031V13.7031H0ZM3.69531 6.95703L4.23468 7.7991L4.69531 7.50406V6.95703H3.69531ZM3.69531 2V1H2.69531V2H3.69531ZM12.3193 2H13.3193V1H12.3193V2ZM12.3193 6.95703L11.78 7.79914C13.7277 9.04646 15.0155 11.2243 15.0156 13.7032L16.0156 13.7031L17.0156 13.7031C17.0154 10.513 15.3551 7.71371 12.8586 6.11492L12.3193 6.95703ZM16.0156 13.7031H15.0156C15.0156 17.5736 11.878 20.7119 8.0078 20.7119L8.00781 21.7119L8.00783 22.7119C12.9829 22.7118 17.0156 18.6779 17.0156 13.7031H16.0156ZM8.00781 21.7119V20.7119C4.13759 20.7119 1 17.5737 1 13.7031H0H-1C-1 18.6779 3.0327 22.7119 8.00781 22.7119V21.7119ZM0 13.7031L1 13.7032C1.00014 11.2243 2.28741 9.04637 4.23468 7.7991L3.69531 6.95703L3.15595 6.11496C0.659644 7.7139 -0.999814 10.5134 -1 13.7031L0 13.7031ZM3.69531 6.95703H4.69531V2H3.69531H2.69531V6.95703H3.69531ZM3.69531 2V3H12.3193V2V1H3.69531V2ZM12.3193 2H11.3193V6.95703H12.3193H13.3193V2H12.3193Z" fill="white" mask="url(#path-1-inside-1_123_2567)"/>
<mask id="path-3-inside-2_123_2567" fill="white">
<path d="M21.1045 17.0029C21.908 17.5044 22.4443 18.3942 22.4443 19.4111C22.4441 20.979 21.1724 22.25 19.6045 22.25C18.0367 22.2498 16.7659 20.9789 16.7656 19.4111C16.7656 18.3945 17.3014 17.5045 18.1045 17.0029V12.3574H21.1045V17.0029Z"/>
</mask>
<path d="M21.1045 17.0029C21.908 17.5044 22.4443 18.3942 22.4443 19.4111C22.4441 20.979 21.1724 22.25 19.6045 22.25C18.0367 22.2498 16.7659 20.9789 16.7656 19.4111C16.7656 18.3945 17.3014 17.5045 18.1045 17.0029V12.3574H21.1045V17.0029Z" fill="white"/>
<path d="M21.1045 17.0029H20.1045V17.5576L20.575 17.8513L21.1045 17.0029ZM22.4443 19.4111L23.4443 19.4113V19.4111H22.4443ZM19.6045 22.25L19.6043 23.25H19.6045V22.25ZM16.7656 19.4111H15.7656V19.4113L16.7656 19.4111ZM18.1045 17.0029L18.6342 17.8511L19.1045 17.5574V17.0029H18.1045ZM18.1045 12.3574V11.3574H17.1045V12.3574H18.1045ZM21.1045 12.3574H22.1045V11.3574H21.1045V12.3574ZM21.1045 17.0029L20.575 17.8513C21.0999 18.1789 21.4443 18.7556 21.4443 19.4111H22.4443H23.4443C23.4443 18.0329 22.716 16.8299 21.634 16.1546L21.1045 17.0029ZM22.4443 19.4111L21.4443 19.411C21.4442 20.4264 20.6205 21.25 19.6045 21.25V22.25V23.25C21.7244 23.25 23.444 21.5317 23.4443 19.4113L22.4443 19.4111ZM19.6045 22.25L19.6046 21.25C18.589 21.2499 17.7658 20.4266 17.7656 19.411L16.7656 19.4111L15.7656 19.4113C15.7659 21.5312 17.4844 23.2497 19.6043 23.25L19.6045 22.25ZM16.7656 19.4111H17.7656C17.7656 18.7553 18.1098 18.1786 18.6342 17.8511L18.1045 17.0029L17.5748 16.1547C16.4929 16.8304 15.7656 18.0336 15.7656 19.4111H16.7656ZM18.1045 17.0029H19.1045V12.3574H18.1045H17.1045V17.0029H18.1045ZM18.1045 12.3574V13.3574H21.1045V12.3574V11.3574H18.1045V12.3574ZM21.1045 12.3574H20.1045V17.0029H21.1045H22.1045V12.3574H21.1045Z" fill="white" mask="url(#path-3-inside-2_123_2567)"/>
<mask id="path-5-inside-3_123_2567" fill="white">
<path d="M19.6045 2.35742C20.4329 2.35742 21.1045 3.02899 21.1045 3.85742V17.0029C21.908 17.5044 22.4443 18.3942 22.4443 19.4111C22.4441 20.979 21.1724 22.25 19.6045 22.25C18.0367 22.2498 16.7659 20.9789 16.7656 19.4111C16.7656 18.3945 17.3014 17.5045 18.1045 17.0029V3.85742C18.1045 3.02914 18.7763 2.35765 19.6045 2.35742Z"/>
</mask>
<path d="M19.6045 2.35742V1.35742L19.6042 1.35742L19.6045 2.35742ZM21.1045 17.0029H20.1045V17.5576L20.575 17.8513L21.1045 17.0029ZM22.4443 19.4111L23.4443 19.4113V19.4111H22.4443ZM19.6045 22.25L19.6043 23.25H19.6045V22.25ZM16.7656 19.4111H15.7656V19.4113L16.7656 19.4111ZM18.1045 17.0029L18.6342 17.8511L19.1045 17.5574V17.0029H18.1045ZM19.6045 2.35742V3.35742C19.8806 3.35742 20.1045 3.58128 20.1045 3.85742H21.1045H22.1045C22.1045 2.47671 20.9852 1.35742 19.6045 1.35742V2.35742ZM21.1045 3.85742H20.1045V17.0029H21.1045H22.1045V3.85742H21.1045ZM21.1045 17.0029L20.575 17.8513C21.0999 18.1789 21.4443 18.7556 21.4443 19.4111H22.4443H23.4443C23.4443 18.0329 22.716 16.8299 21.634 16.1546L21.1045 17.0029ZM22.4443 19.4111L21.4443 19.411C21.4442 20.4264 20.6205 21.25 19.6045 21.25V22.25V23.25C21.7244 23.25 23.444 21.5317 23.4443 19.4113L22.4443 19.4111ZM19.6045 22.25L19.6046 21.25C18.589 21.2499 17.7658 20.4266 17.7656 19.411L16.7656 19.4111L15.7656 19.4113C15.7659 21.5312 17.4844 23.2497 19.6043 23.25L19.6045 22.25ZM16.7656 19.4111H17.7656C17.7656 18.7553 18.1098 18.1786 18.6342 17.8511L18.1045 17.0029L17.5748 16.1547C16.4929 16.8304 15.7656 18.0336 15.7656 19.4111H16.7656ZM18.1045 17.0029H19.1045V3.85742H18.1045H17.1045V17.0029H18.1045ZM18.1045 3.85742H19.1045C19.1045 3.5817 19.3283 3.3575 19.6048 3.35742L19.6045 2.35742L19.6042 1.35742C18.2242 1.35781 17.1045 2.47657 17.1045 3.85742H18.1045Z" fill="white" mask="url(#path-5-inside-3_123_2567)"/>
<path d="M12.5362 15.1194C12.8135 14.9638 13.0432 14.9583 13.3072 15.1146C13.6484 15.3164 14.0605 15.4188 14.5471 15.4372C14.854 15.4488 15.0136 15.5493 14.9991 15.7084C14.9853 15.86 14.7924 15.9523 14.4903 15.9516C14.4791 15.9677 14.4679 15.9839 14.4567 16C14.0197 15.9021 13.5741 15.8148 13.1501 15.7011C12.9833 15.6564 12.8856 15.6373 12.7143 15.6987C11.7646 16.0399 10.8008 16.0392 9.85094 15.6972C9.69617 15.6415 9.59852 15.6384 9.44045 15.6954C8.47987 16.0425 7.50875 16.0395 6.55129 15.6906C6.40412 15.637 6.3132 15.6407 6.16919 15.6924C5.19779 16.0422 4.2192 16.0419 3.25322 15.6849C3.11694 15.6345 3.03586 15.6515 2.89792 15.6846C2.48377 15.7843 2.06105 15.8797 1.62652 15.9423C1.27824 15.9924 1.03127 15.8842 1.00317 15.7213C0.973624 15.5505 1.15092 15.454 1.52771 15.4342C1.97782 15.4105 2.36323 15.3104 2.68295 15.1254C2.97254 14.9579 3.18189 14.9596 3.47396 15.123C4.21921 15.54 5.22293 15.5398 5.96631 15.1224C6.25603 14.9598 6.46762 14.9601 6.75942 15.1242C7.49989 15.5406 8.50516 15.5392 9.25124 15.1206C9.53843 14.9594 9.75178 14.9608 10.0444 15.1254C10.7825 15.5411 11.7888 15.5387 12.5362 15.1194Z" fill="white" stroke="white"/>
</svg>
