<svg width="50" height="50" viewBox="0 0 56 57" fill="none" xmlns="http://www.w3.org/2000/svg">
<path d="M50.003 16.25C50.003 15.9393 49.8155 15.6737 49.4405 15.2793L49.003 14.8359L41.5811 7.41406C40.9146 6.74757 40.5811 6.41424 40.167 6.41406C39.7529 6.41406 39.4194 6.7476 38.753 7.41406L9.80862 36.3584L9.58108 36.5918C9.52397 36.6553 9.48276 36.7094 9.44924 36.7686C9.38233 36.8868 9.34895 37.0203 9.28225 37.2871L6.42874 48.6982L6.20217 49.6084L6.14456 49.8467C6.09847 50.0545 6.09195 50.1749 6.16702 50.25C6.24213 50.3249 6.36254 50.3186 6.57034 50.2725L6.80862 50.2148L19.1289 47.1348C19.3291 47.0847 19.4548 47.0534 19.5547 47.0127L19.6485 46.9668C19.7073 46.9334 19.7611 46.8927 19.8242 46.8359L20.0586 46.6084L49.003 17.6641C49.6276 17.0394 49.9599 16.7073 49.9991 16.3271L50.003 16.25ZM56.003 16.25C56.003 18.2964 55.0964 19.7498 54.5225 20.502C54.2884 20.8088 54.0223 21.1066 53.7881 21.3545L53.2451 21.9072L24.3008 50.8506C24.2463 50.9051 24.0451 51.1098 23.836 51.2979C23.5762 51.5314 23.1657 51.8707 22.6045 52.1885C22.0433 52.5062 21.541 52.6835 21.2071 52.7861C21.0727 52.8274 20.9359 52.8649 20.8233 52.8945L20.584 52.9551L8.2637 56.0352C8.19689 56.0519 8.03298 56.0936 7.86917 56.1299C7.71508 56.1641 7.38153 56.2355 6.97366 56.2754C6.24693 56.3464 3.88599 56.4543 1.92385 54.4922C-0.0382471 52.5298 0.0705784 50.1687 0.141628 49.4424C0.181521 49.0348 0.252962 48.7019 0.287135 48.5479C0.323398 48.3843 0.364119 48.2204 0.380885 48.1533L3.46194 35.832L3.52249 35.5938C3.55207 35.4811 3.5896 35.3443 3.63089 35.21C3.73352 34.876 3.91079 34.3737 4.22854 33.8125L4.34866 33.6094C4.62968 33.1513 4.91479 32.8084 5.11917 32.5811C5.30721 32.3719 5.51094 32.1697 5.56546 32.1152L34.5098 3.17188L35.0625 2.62793C35.3103 2.39386 35.6084 2.12851 35.9151 1.89453C36.6672 1.32065 38.1206 0.414062 40.167 0.414062L40.543 0.424805C42.3919 0.526341 43.7138 1.35649 44.419 1.89453C45.0325 2.36272 45.6099 2.95852 45.8233 3.17188L53.2451 10.5928L53.7881 11.1455C54.0223 11.3934 54.2884 11.6912 54.5225 11.998C55.0964 12.7502 56.003 14.2036 56.003 16.25Z" fill="white"/>
<path d="M47.4131 22.6699L43.1699 26.9131L29.5039 13.2461L33.7461 9.00391L47.4131 22.6699Z" fill="white"/>
</svg>
