<svg width="24" height="24" viewBox="0 0 24 24" fill="none" xmlns="http://www.w3.org/2000/svg">
<path d="M17.4687 4.77527C20.022 6.38037 21.7001 9.09915 21.7001 12.1824C21.7001 17.1159 17.4031 21.1149 12.1021 21.1149" stroke="white" stroke-miterlimit="10" stroke-linecap="round"/>
<path d="M10.1995 3.37847C10.3291 3.3503 10.4422 3.2718 10.5139 3.16024C10.5856 3.04869 10.61 2.91323 10.5819 2.78365C10.5537 2.65407 10.4752 2.54099 10.3636 2.46929C10.2521 2.39758 10.1166 2.37313 9.98703 2.40131C9.63024 2.47892 9.27982 2.57717 8.93485 2.69626C8.92002 2.70138 8.90521 2.70654 8.89041 2.71173C5.09345 4.00299 2.44465 7.88486 2.5 11.8643C2.48753 14.4219 3.52744 16.9744 5.34745 18.7806C5.60455 19.0377 5.87628 19.2802 6.16106 19.5065C6.26489 19.589 6.39723 19.6268 6.52898 19.6118C6.66073 19.5967 6.78109 19.5299 6.86358 19.4261C6.94608 19.3222 6.98395 19.1899 6.96887 19.0581C6.95379 18.9264 6.88699 18.806 6.78317 18.7235C6.52825 18.521 6.28485 18.3038 6.05446 18.0734C4.42301 16.4536 3.48914 14.1668 3.5 11.8643C3.44917 8.2848 5.83482 4.80555 9.22157 3.65531C9.23477 3.65067 9.24798 3.64607 9.26121 3.64151C9.56891 3.53529 9.88136 3.44768 10.1995 3.37847Z" fill="white"/>
<path d="M8 12.5L13.5 1H18L12.5 10H16.5L7 23.5L11.5 12.5H8Z" fill="white"/>
</svg>
