<svg width="24" height="24" viewBox="0 0 24 24" fill="none" xmlns="http://www.w3.org/2000/svg">
<mask id="path-1-inside-1_112_2213" fill="white">
<path d="M14.658 6.28668C15.4223 6.28679 16.1157 6.70699 16.45 7.3736L17.2644 8.99957H18.7878V8.9693C18.788 7.86487 19.6834 6.9693 20.7878 6.9693H20.9998C22.1042 6.96935 22.9996 7.8649 22.9998 8.9693V15.9693C22.9998 17.0738 22.1043 17.9692 20.9998 17.9693H20.7878C19.6933 17.9693 18.8058 17.0903 18.7898 15.9996H18.3748L16.5076 19.0259C16.1354 19.6293 15.4667 20.0005 14.7498 20.0005L9.70679 19.9996C9.00473 19.9994 8.35788 19.6437 7.9978 19.0601L6.10913 15.9996H4.77026C4.21815 15.9994 3.77026 15.5517 3.77026 14.9996V9.99957C3.77049 9.44761 4.21829 8.99977 4.77026 8.99957H7.21558L8.0105 7.41364C8.35561 6.72486 9.07319 6.28562 9.85425 6.28571L14.658 6.28668Z"/>
</mask>
<path d="M14.658 6.28668L14.6578 7.28668H14.6578L14.658 6.28668ZM16.45 7.3736L17.3441 6.92574L17.3439 6.92533L16.45 7.3736ZM17.2644 8.99957L16.3703 9.44743C16.5398 9.78586 16.8859 9.99957 17.2644 9.99957V8.99957ZM18.7878 8.99957V9.99957C19.3401 9.99957 19.7878 9.55186 19.7878 8.99957H18.7878ZM18.7878 8.9693L17.7878 8.96915V8.9693H18.7878ZM20.7878 6.9693V5.9693H20.7878L20.7878 6.9693ZM20.9998 6.9693L20.9998 5.9693H20.9998V6.9693ZM22.9998 8.9693H23.9998V8.96915L22.9998 8.9693ZM20.9998 17.9693V18.9693H20.9998L20.9998 17.9693ZM20.7878 17.9693L20.7878 18.9693H20.7878V17.9693ZM18.7898 15.9996L19.7897 15.9849C19.7817 15.4384 19.3363 14.9996 18.7898 14.9996V15.9996ZM18.3748 15.9996V14.9996C18.0279 14.9996 17.7058 15.1793 17.5237 15.4745L18.3748 15.9996ZM16.5076 19.0259L15.6565 18.5009L15.6565 18.501L16.5076 19.0259ZM14.7498 20.0005L14.7496 21.0005H14.7498L14.7498 20.0005ZM9.70679 19.9996L9.70653 20.9996H9.70659L9.70679 19.9996ZM7.9978 19.0601L8.84885 18.535L8.84881 18.535L7.9978 19.0601ZM6.10913 15.9996L6.96014 15.4744C6.778 15.1793 6.45595 14.9996 6.10913 14.9996V15.9996ZM4.77026 15.9996L4.7699 16.9996H4.77026V15.9996ZM3.77026 9.99957L2.77026 9.99915V9.99957H3.77026ZM4.77026 8.99957V7.99957L4.76991 7.99957L4.77026 8.99957ZM7.21558 8.99957V9.99957C7.59399 9.99957 7.94 9.78597 8.10956 9.44767L7.21558 8.99957ZM8.0105 7.41364L8.90448 7.86173L8.90455 7.86161L8.0105 7.41364ZM9.85425 6.28571L9.85445 5.28571H9.85436L9.85425 6.28571ZM14.658 6.28668L14.6578 7.28668C15.0564 7.28674 15.3969 7.50446 15.5561 7.82186L16.45 7.3736L17.3439 6.92533C16.8344 5.90951 15.7882 5.28684 14.6581 5.28668L14.658 6.28668ZM16.45 7.3736L15.5558 7.82145L16.3703 9.44743L17.2644 8.99957L18.1585 8.55171L17.3441 6.92574L16.45 7.3736ZM17.2644 8.99957V9.99957H18.7878V8.99957V7.99957H17.2644V8.99957ZM18.7878 8.99957H19.7878V8.9693H18.7878H17.7878V8.99957H18.7878ZM18.7878 8.9693L19.7878 8.96945C19.7879 8.41705 20.2358 7.9693 20.7878 7.9693L20.7878 6.9693L20.7878 5.9693C19.1309 5.96931 17.7881 7.3127 17.7878 8.96915L18.7878 8.9693ZM20.7878 6.9693V7.9693H20.9998V6.9693V5.9693H20.7878V6.9693ZM20.9998 6.9693L20.9997 7.9693C21.5518 7.96933 21.9997 8.41712 21.9998 8.96945L22.9998 8.9693L23.9998 8.96915C23.9995 7.31269 22.6566 5.96938 20.9998 5.9693L20.9998 6.9693ZM22.9998 8.9693H21.9998V15.9693H22.9998H23.9998V8.9693H22.9998ZM22.9998 15.9693H21.9998C21.9998 16.5215 21.552 16.9693 20.9997 16.9693L20.9998 17.9693L20.9998 18.9693C22.6565 18.9692 23.9998 17.6262 23.9998 15.9693H22.9998ZM20.9998 17.9693V16.9693H20.7878V17.9693V18.9693H20.9998V17.9693ZM20.7878 17.9693L20.7878 16.9693C20.2416 16.9693 19.7977 16.5309 19.7897 15.9849L18.7898 15.9996L17.7899 16.0143C17.8139 17.6498 19.145 18.9693 20.7878 18.9693L20.7878 17.9693ZM18.7898 15.9996V14.9996H18.3748V15.9996V16.9996H18.7898V15.9996ZM18.3748 15.9996L17.5237 15.4745L15.6565 18.5009L16.5076 19.0259L17.3586 19.551L19.2258 16.5247L18.3748 15.9996ZM16.5076 19.0259L15.6565 18.501C15.4686 18.8056 15.1239 19.0005 14.7497 19.0005L14.7498 20.0005L14.7498 21.0005C15.8095 21.0005 16.8023 20.453 17.3587 19.5509L16.5076 19.0259ZM14.7498 20.0005L14.7499 19.0005L9.70698 18.9996L9.70679 19.9996L9.70659 20.9996L14.7496 21.0005L14.7498 20.0005ZM9.70679 19.9996L9.70704 18.9996C9.34183 18.9995 9.0217 18.8152 8.84885 18.535L7.9978 19.0601L7.14676 19.5852C7.69406 20.4723 8.66764 20.9993 9.70653 20.9996L9.70679 19.9996ZM7.9978 19.0601L8.84881 18.535L6.96014 15.4744L6.10913 15.9996L5.25813 16.5247L7.1468 19.5853L7.9978 19.0601ZM6.10913 15.9996V14.9996H4.77026V15.9996V16.9996H6.10913V15.9996ZM4.77026 15.9996L4.77062 14.9996H4.77026H3.77026H2.77026C2.77026 16.1044 3.66614 16.9992 4.7699 16.9996L4.77026 15.9996ZM3.77026 14.9996H4.77026V9.99957H3.77026H2.77026V14.9996H3.77026ZM3.77026 9.99957L4.77026 9.99999L4.77062 9.99957L4.77026 8.99957L4.76991 7.99957C3.66587 7.99997 2.77073 8.89529 2.77026 9.99915L3.77026 9.99957ZM4.77026 8.99957V9.99957H7.21558V8.99957V7.99957H4.77026V8.99957ZM7.21558 8.99957L8.10956 9.44767L8.90448 7.86173L8.0105 7.41364L7.11651 6.96554L6.32159 8.55148L7.21558 8.99957ZM8.0105 7.41364L8.90455 7.86161C9.0773 7.51683 9.44529 7.28566 9.85414 7.28571L9.85425 6.28571L9.85436 5.28571C8.70108 5.28558 7.63393 5.9329 7.11645 6.96566L8.0105 7.41364ZM9.85425 6.28571L9.85404 7.28571L14.6578 7.28668L14.658 6.28668L14.6582 5.28668L9.85445 5.28571L9.85425 6.28571Z" fill="white" mask="url(#path-1-inside-1_112_2213)"/>
<rect x="1.25" y="12.25" width="2.65886" height="0.5" stroke="white" stroke-width="0.5"/>
<rect x="1.99677" y="8.48144" width="8.34653" height="0.664532" rx="0.332266" transform="rotate(90 1.99677 8.48144)" stroke="white" stroke-width="0.664532"/>
<rect x="12.732" y="3.3665" width="3.52677" height="0.732998" rx="0.366499" transform="rotate(90 12.732 3.3665)" stroke="white" stroke-width="0.732998"/>
<rect x="15.2979" y="3.96547" width="6.00167" height="0.643647" rx="0.321823" transform="rotate(-180 15.2979 3.96547)" stroke="white" stroke-width="0.643647"/>
</svg>
