<svg width="416" height="434" viewBox="0 0 416 434" fill="none" xmlns="http://www.w3.org/2000/svg">
<path d="M135.63 306.701V289.397H155.63V306.701C155.63 324.45 155.65 336.756 156.896 346.024C158.104 355.005 160.294 359.623 163.553 362.881C166.811 366.139 171.429 368.33 180.409 369.537C189.678 370.783 201.984 370.804 219.732 370.804H293.835C320.317 370.804 339.172 370.783 353.485 368.858C367.511 366.973 375.668 363.426 381.64 357.455C386.361 352.734 390.031 350.247 392.33 348.613C393.267 347.948 393.66 347.637 393.852 347.469C394.062 346.867 394.51 344.953 394.743 339.314C394.987 333.433 394.989 324.857 394.989 311.649V75.832C394.989 49.9895 392.15 36.9895 386.665 30.041C381.849 23.9398 372.995 20.2901 352.356 20.2901H219.732C201.984 20.2901 189.678 20.3115 180.409 21.5576C171.429 22.765 166.811 24.9547 163.553 28.2129C160.294 31.4713 158.104 36.0896 156.896 45.0703C155.65 54.3386 155.63 66.6441 155.63 84.3926V105.362H135.63V84.3926C135.63 67.2094 135.608 53.316 137.075 42.4053C138.581 31.2069 141.817 21.665 149.41 14.0713C157.004 6.4776 166.546 3.24098 177.744 1.73537C188.655 0.268447 202.549 0.290057 219.732 0.290057H352.356C373.963 0.290057 391.425 3.79036 402.364 17.6494C412.635 30.6615 414.989 50.4328 414.989 75.832V311.649C414.989 324.641 414.992 333.74 414.727 340.142C414.475 346.222 413.97 351.418 412.11 355.653C409.894 360.702 406.271 363.243 403.914 364.917C401.635 366.536 399.2 368.179 395.782 371.597C385.475 381.903 372.394 386.496 356.15 388.68C340.195 390.825 319.751 390.804 293.835 390.804H219.732C202.549 390.804 188.655 390.825 177.744 389.358C166.546 387.853 157.004 384.617 149.41 377.023C141.816 369.43 138.581 359.888 137.075 348.689C135.608 337.779 135.63 323.885 135.63 306.701Z" fill="white"/>
<path d="M415.132 134.218C415.132 118.866 407.709 -5.86635 379.816 8.01351C379.759 8.04184 379.699 8.07932 379.648 8.11833L319.298 54.995C314.584 58.4397 311.858 63.5451 311.858 68.9289V415.544C311.858 430.913 332.274 439.311 345.729 429.478L407.692 384.193C412.406 380.748 415.132 375.643 415.132 370.259V134.218Z" fill="white"/>
<path d="M0 195.547L79.0996 294.423L94.7178 281.929L33.6123 205.547H235.114C240.637 205.547 245.114 201.07 245.114 195.547C245.114 190.024 240.637 185.547 235.114 185.547H33.6123L94.7178 109.165L79.0996 96.6719L0 195.547Z" fill="white"/>
</svg>
