<svg width="50" height="50" viewBox="0 0 75 54" fill="none" xmlns="http://www.w3.org/2000/svg">
<path d="M37.1671 0C48.7063 9.61173e-05 57.3089 5.12346 63.2257 10.707C69.1108 16.2608 72.451 22.3636 73.6046 24.6982L73.7462 24.9775C73.9256 25.3518 74.1985 26.0295 74.2081 26.833L74.2032 27.0557C74.158 27.9565 73.7746 28.6943 73.5382 29.082L73.3682 29.3457C71.9708 31.5792 67.9349 37.6074 61.836 43.1094C55.7654 48.5858 47.322 53.8329 37.1671 53.833C27.0121 53.833 18.5688 48.5858 12.4981 43.1094C7.16126 38.2949 3.4035 33.0778 1.6114 30.3525L0.964917 29.3457C0.860044 29.1781 0.270421 28.3675 0.147534 27.2773L0.129956 27.0557C0.0698381 25.8562 0.634718 24.8881 0.728588 24.6982L0.970776 24.2178C2.30964 21.6034 5.58998 15.9139 11.1075 10.707C17.0243 5.12338 25.6276 0 37.1671 0ZM37.1671 6C27.5621 6 20.3615 10.2238 15.2257 15.0703C10.5207 19.5103 7.64377 24.393 6.42097 26.7402C7.94038 29.0881 11.4628 34.0951 16.5167 38.6543C22.0638 43.6585 29.1255 47.833 37.1671 47.833C45.2085 47.8329 52.2694 43.6584 57.8165 38.6543C62.87 34.0954 66.3916 29.0883 67.9112 26.7402C66.6883 24.3928 63.813 19.5099 59.1085 15.0703C53.9727 10.2238 46.772 6.0001 37.1671 6Z" fill="white"/>
<path d="M50.8334 26.9167C50.8334 34.4646 44.7146 40.5833 37.1667 40.5833C29.6188 40.5833 23.5001 34.4646 23.5001 26.9167C23.5001 19.3688 29.6188 13.25 37.1667 13.25C44.7146 13.25 50.8334 19.3688 50.8334 26.9167Z" fill="white"/>
</svg>
