<svg width="24" height="24" viewBox="0 0 24 24" fill="none" xmlns="http://www.w3.org/2000/svg">
<path d="M9.49683 2.00287C15.1029 1.99686 15.1539 1.98727 15.4792 2.38177V7.99799L16.447 8.04095C17.3677 8.08466 18.1497 8.45748 18.5183 9.50092C18.6679 9.92448 18.7028 10.669 18.741 15.4941C18.7799 20.4133 18.8661 20.3066 19.0183 20.5009C19.2104 20.7464 19.5185 21.0009 20.5183 21.0009C21.5182 20.5009 21.3343 19.6186 21.4246 19.1679C21.4555 19.0119 21.4765 17.7266 21.4812 15.831L21.4802 13.7499L21.4656 8.6806L21.1726 8.52533C20.3133 8.06756 19.7459 7.30724 19.5457 6.35248L19.5105 6.15814L19.4246 5.59857L18.4314 4.96674C17.2685 4.22647 17.078 4.01384 17.1267 3.51459C17.1808 2.96312 17.7319 2.55741 18.3064 2.64642C18.4935 2.67589 19.4523 3.23992 20.8914 4.16791C20.9782 4.22393 21.6138 4.63212 22.3035 5.07416L22.5144 5.40619L22.4939 12.2265L22.4734 19.0458C22.5152 20.5005 22.1886 21.9021 20.5496 21.8906C19.0858 21.8802 17.6926 21.4157 17.7292 19.8749L17.6931 14.8007C17.6591 10.0865 17.6466 9.70908 17.5242 9.49506C17.2961 9.09643 17.0225 8.99143 16.2087 8.99115H15.4792C15.4792 8.99115 15.4792 18.4982 15.4792 18.8525C15.5553 18.9974 15.8255 19.1151 15.9343 19.1425C17.0034 19.412 17.0356 19.2546 17.0037 20.5029V22.0029L9.53198 22.0009C2.67517 22.0009 2.01765 22.0028 2.00366 22.0029L2.00171 21.54C2.00238 21.3981 2.00402 21.2299 2.00757 21.0449L2.02515 20.4492C2.05951 19.5637 2.11673 19.3875 2.75171 19.2353L3.0603 19.1699C3.18392 19.1455 3.36845 19.0409 3.45581 18.9042V2.50287C3.80365 1.935 4.00376 2.00291 9.49683 2.00287ZM9.49683 3.00287C6.71253 3.00289 5.35034 2.98623 4.61597 3.03705C4.55468 3.04129 4.50147 3.04612 4.45581 3.05072V19.1962L4.29858 19.4423C4.15344 19.6696 3.96189 19.8245 3.80933 19.9218C3.65752 20.0186 3.46473 20.1087 3.25366 20.1503H3.25269C3.16825 20.1669 3.09833 20.1819 3.03882 20.1953C3.03306 20.2746 3.02874 20.3694 3.02417 20.4872C3.01724 20.6662 3.01293 20.8402 3.00952 21.0019C3.05944 21.0019 3.11189 21.0019 3.16675 21.0019C4.18221 21.0015 6.06452 21.0009 9.53198 21.0009H9.53296L16.0037 21.0019V20.4765C16.0065 20.3648 16.0075 20.2703 16.0085 20.1884C15.9176 20.1673 15.8099 20.1424 15.6902 20.1122C15.5372 20.0737 15.3597 20.0008 15.2039 19.913C15.0843 19.8457 14.775 19.6612 14.5945 19.3173L14.4792 19.0986V3.04486C14.4568 3.04326 14.4331 3.04152 14.408 3.03998C13.6946 2.99618 12.3266 2.99983 9.4978 3.00287H9.49683ZM13.0037 11.0029H6.00366V5.00287H13.0037V11.0029ZM7.00366 5.99994V9.99994H12.0037V5.99994H7.00366ZM11.0037 6.99994V7.00287H8.00366V6.99994H11.0037ZM20.4128 5.4472L20.4988 6.00677C20.6044 6.69261 20.9548 7.21846 21.5076 7.56049L21.5125 5.75482C20.9265 5.37917 20.4272 5.0589 20.3494 5.00873C20.3477 5.00763 20.3462 5.00591 20.3445 5.00482L20.4128 5.4472Z" fill="white"/>
</svg>
