<svg width="24" height="24" viewBox="0 0 24 24" fill="none" xmlns="http://www.w3.org/2000/svg">
<mask id="path-1-inside-1_317_43803" fill="white">
<path d="M9.4967 2.00201C15.1046 1.996 15.1536 1.98702 15.4791 2.3819V7.99713L16.4469 8.04108C17.3675 8.08477 18.1495 8.45687 18.5182 9.50006C18.6678 9.92364 18.7027 10.6688 18.7408 15.4942C18.7797 20.4113 18.8661 20.3061 19.0182 20.5001C19.2103 20.7455 19.5183 21 20.5182 21.0001C21.5179 20.5002 21.3343 19.6188 21.4244 19.168C21.4658 18.9614 21.4887 16.7441 21.4801 13.7491L21.4655 8.68073L21.1725 8.52448C20.2558 8.03613 19.6713 7.20401 19.5104 6.15826L19.4244 5.59869L18.4313 4.96686C17.2685 4.22665 17.0769 4.01385 17.1256 3.51471C17.1794 2.96299 17.7316 2.55751 18.3063 2.64655C18.4937 2.67627 19.4525 3.24027 20.8912 4.16803C20.9792 4.22471 21.6136 4.63181 22.3024 5.0733L22.5143 5.40533L22.4938 12.2256L22.4723 19.046C22.514 20.5006 22.1885 21.9022 20.5494 21.8907C19.0858 21.8804 17.6927 21.4156 17.7291 19.8751L17.692 14.7999C17.658 10.0868 17.6464 9.70923 17.524 9.49518C17.296 9.09629 17.0227 8.99155 16.2086 8.99127H15.4791V18.8526C15.5553 18.9975 15.8255 19.1152 15.9342 19.1426C17.0031 19.4121 17.0355 19.2538 17.0035 20.502V22.002L9.53186 22.0001C2.68348 22.0001 2.01912 22.002 2.00354 22.002C2.00337 21.9907 1.99283 21.2799 2.02502 20.4483C2.0643 19.4366 2.13338 19.3511 3.06018 19.169C3.18385 19.1446 3.36838 19.0402 3.45569 18.9034V2.50201C3.8035 1.93424 4.00382 2.00206 9.4967 2.00201Z"/>
</mask>
<path d="M9.4967 2.00201L9.49671 3.00201L9.49778 3.00201L9.4967 2.00201ZM15.4791 2.3819H16.4791V2.02281L16.2507 1.74575L15.4791 2.3819ZM15.4791 7.99713H14.4791V8.95275L15.4338 8.9961L15.4791 7.99713ZM16.4469 8.04108L16.4943 7.0422L16.4923 7.04211L16.4469 8.04108ZM18.5182 9.50006L19.4611 9.16703L19.4611 9.16687L18.5182 9.50006ZM18.7408 15.4942L19.7408 15.4863V15.4863L18.7408 15.4942ZM19.0182 20.5001L19.8057 19.8838L19.8052 19.8832L19.0182 20.5001ZM20.5182 21.0001L20.5182 22.0001L20.7542 22.0001L20.9654 21.8945L20.5182 21.0001ZM21.4244 19.168L20.4439 18.9719L20.4438 18.972L21.4244 19.168ZM21.4801 13.7491L22.4801 13.7462V13.7462L21.4801 13.7491ZM21.4655 8.68073L22.4655 8.67783L22.4637 8.0798L21.936 7.79837L21.4655 8.68073ZM21.1725 8.52448L21.6431 7.64212L21.6427 7.6419L21.1725 8.52448ZM19.5104 6.15826L18.522 6.31006L18.522 6.3104L19.5104 6.15826ZM19.4244 5.59869L20.4128 5.4469L20.344 4.99848L19.9612 4.75496L19.4244 5.59869ZM18.4313 4.96686L17.8943 5.81044L17.8945 5.81059L18.4313 4.96686ZM17.1256 3.51471L18.1209 3.61174L18.1209 3.61172L17.1256 3.51471ZM18.3063 2.64655L18.4629 1.65888L18.4594 1.65834L18.3063 2.64655ZM20.8912 4.16803L20.3493 5.00845L20.3494 5.0085L20.8912 4.16803ZM22.3024 5.0733L23.1453 4.53531L23.0271 4.35002L22.842 4.23141L22.3024 5.0733ZM22.5143 5.40533L23.5143 5.40834L23.5152 5.11479L23.3572 4.86734L22.5143 5.40533ZM22.4938 12.2256L23.4938 12.2288L23.4938 12.2287L22.4938 12.2256ZM22.4723 19.046L21.4723 19.0428L21.4722 19.0587L21.4727 19.0746L22.4723 19.046ZM20.5494 21.8907L20.5424 22.8907H20.5424L20.5494 21.8907ZM17.7291 19.8751L18.7288 19.8987L18.7292 19.8832L18.7291 19.8678L17.7291 19.8751ZM17.692 14.7999L16.692 14.8071L16.692 14.8072L17.692 14.7999ZM17.524 9.49518L18.3922 8.99895L18.3922 8.99882L17.524 9.49518ZM16.2086 8.99127L16.209 7.99127H16.2086V8.99127ZM15.4791 8.99127V7.99127H14.4791V8.99127H15.4791ZM15.4791 18.8526H14.4791V19.0994L14.594 19.3179L15.4791 18.8526ZM15.9342 19.1426L15.6897 20.1123L15.6898 20.1123L15.9342 19.1426ZM17.0035 20.502L16.0039 20.4764L16.0035 20.4892V20.502H17.0035ZM17.0035 22.002L17.0033 23.002L18.0035 23.0023V22.002H17.0035ZM9.53186 22.0001L9.53212 21.0001H9.53186V22.0001ZM2.00354 22.002L1.00365 22.017L1.01843 23.0046L2.00613 23.002L2.00354 22.002ZM2.02502 20.4483L1.02578 20.4095L1.02577 20.4096L2.02502 20.4483ZM3.06018 19.169L3.25293 20.1503L3.25351 20.1501L3.06018 19.169ZM3.45569 18.9034L4.29859 19.4414L4.45569 19.1953V18.9034H3.45569ZM3.45569 2.50201L2.60296 1.97965L2.45569 2.22007V2.50201H3.45569ZM9.4967 2.00201L9.49778 3.00201C12.3265 2.99898 13.6941 2.99587 14.4074 3.03973C14.778 3.06252 14.8499 3.09374 14.8278 3.08498C14.7191 3.04198 14.6489 2.94688 14.7076 3.01804L15.4791 2.3819L16.2507 1.74575C16.1466 1.61947 15.9482 1.37741 15.5635 1.22523C15.2654 1.10728 14.9135 1.06708 14.5302 1.04351C13.7356 0.994643 12.2748 0.999034 9.49563 1.00201L9.4967 2.00201ZM15.4791 2.3819H14.4791V7.99713H15.4791H16.4791V2.3819H15.4791ZM15.4791 7.99713L15.4338 8.9961L16.4015 9.04005L16.4469 8.04108L16.4923 7.04211L15.5245 6.99816L15.4791 7.99713ZM16.4469 8.04108L16.3995 9.03995C16.745 9.05635 16.984 9.13122 17.1494 9.23737C17.2999 9.33394 17.4571 9.49864 17.5753 9.83325L18.5182 9.50006L19.4611 9.16687C19.2107 8.45829 18.7925 7.91534 18.2296 7.55415C17.6817 7.20252 17.0694 7.0695 16.4943 7.0422L16.4469 8.04108ZM18.5182 9.50006L17.5753 9.83309C17.5929 9.88305 17.6394 10.031 17.672 10.8846C17.7035 11.7088 17.7218 13.0849 17.7409 15.5021L18.7408 15.4942L19.7408 15.4863C19.7218 13.078 19.7035 11.6689 19.6706 10.8083C19.6388 9.97709 19.5931 9.54065 19.4611 9.16703L18.5182 9.50006ZM18.7408 15.4942L17.7409 15.5021C17.7603 17.9528 17.7914 19.1905 17.8398 19.8423C17.8629 20.1535 17.8945 20.4155 17.9636 20.6317C18.0603 20.9347 18.2325 21.1187 18.2311 21.117L19.0182 20.5001L19.8052 19.8832C19.7279 19.7845 19.8322 19.9088 19.8688 20.0234C19.8776 20.051 19.8567 19.9957 19.8343 19.6943C19.7918 19.121 19.7603 17.9528 19.7408 15.4863L18.7408 15.4942ZM19.0182 20.5001L18.2306 21.1163C18.402 21.3353 18.656 21.588 19.0802 21.765C19.4718 21.9284 19.9433 22 20.5182 22.0001L20.5182 21.0001L20.5182 20.0001C20.0932 20 19.9108 19.9444 19.8504 19.9192C19.8249 19.9086 19.8207 19.9033 19.8254 19.9071C19.8287 19.9098 19.8244 19.9077 19.8057 19.8838L19.0182 20.5001ZM20.5182 21.0001L20.9654 21.8945C22.5425 21.1059 22.4107 19.3359 22.405 19.3641L21.4244 19.168L20.4438 18.972C20.4051 19.1659 20.3948 19.408 20.388 19.5023C20.378 19.6415 20.3662 19.7329 20.3461 19.8083C20.3281 19.8759 20.3063 19.9181 20.2804 19.9512C20.2556 19.9831 20.2006 20.0408 20.071 20.1056L20.5182 21.0001ZM21.4244 19.168L22.405 19.3641C22.4271 19.2535 22.4341 19.1192 22.4377 19.0516C22.4429 18.9532 22.4474 18.8284 22.4514 18.6829C22.4595 18.3908 22.466 17.9941 22.471 17.5145C22.4808 16.5541 22.4844 15.2463 22.4801 13.7462L21.4801 13.7491L20.4801 13.752C20.4844 15.2468 20.4808 16.5452 20.4711 17.4939C20.4662 17.9688 20.4598 18.3524 20.4522 18.6277C20.4483 18.766 20.4444 18.8717 20.4404 18.9458C20.4349 19.0507 20.4321 19.0309 20.4439 18.9719L21.4244 19.168ZM21.4801 13.7491L22.4801 13.7462L22.4655 8.67783L21.4655 8.68073L20.4655 8.68362L20.4801 13.752L21.4801 13.7491ZM21.4655 8.68073L21.936 7.79837L21.6431 7.64212L21.1725 8.52448L20.7019 9.40683L20.9949 9.56308L21.4655 8.68073ZM21.1725 8.52448L21.6427 7.6419C21.0103 7.30502 20.6128 6.74726 20.4987 6.00613L19.5104 6.15826L18.522 6.3104C18.7299 7.66077 19.5013 8.76724 20.7023 9.40705L21.1725 8.52448ZM19.5104 6.15826L20.4988 6.00647L20.4128 5.4469L19.4244 5.59869L18.436 5.75049L18.522 6.31006L19.5104 6.15826ZM19.4244 5.59869L19.9612 4.75496L18.968 4.12313L18.4313 4.96686L17.8945 5.81059L18.8877 6.44242L19.4244 5.59869ZM18.4313 4.96686L18.9683 4.12327C18.6817 3.94083 18.4734 3.80252 18.3192 3.69002C18.1614 3.57487 18.0937 3.51062 18.0677 3.48173C18.0514 3.46363 18.0851 3.49688 18.1065 3.57144C18.1256 3.63751 18.1152 3.67029 18.1209 3.61174L17.1256 3.51471L16.1303 3.41768C16.1117 3.6087 16.107 3.85525 16.1846 4.12475C16.2646 4.40272 16.4097 4.62902 16.5806 4.81904C16.8761 5.14773 17.3402 5.45774 17.8943 5.81044L18.4313 4.96686ZM17.1256 3.51471L18.1209 3.61172C18.1193 3.62836 18.1139 3.64089 18.1102 3.64709C18.1071 3.65222 18.1068 3.65051 18.1128 3.64611C18.1188 3.64174 18.1266 3.63794 18.1346 3.63588C18.1418 3.63403 18.1478 3.63392 18.1532 3.63476L18.3063 2.64655L18.4594 1.65834C17.3677 1.4892 16.2447 2.24433 16.1303 3.4177L17.1256 3.51471ZM18.3063 2.64655L18.1496 3.6342C18.0419 3.61711 17.9801 3.58524 18.019 3.60189C18.0354 3.60888 18.0704 3.6251 18.1285 3.6551C18.2435 3.71442 18.4079 3.80617 18.6223 3.93236C19.0488 4.18335 19.6355 4.54818 20.3493 5.00845L20.8912 4.16803L21.4332 3.32761C20.7082 2.86012 20.0961 2.47907 19.6367 2.20869C19.4081 2.07419 19.2077 1.96138 19.0453 1.87761C18.9647 1.83605 18.8828 1.79608 18.8053 1.76291C18.7503 1.73941 18.6175 1.68342 18.4629 1.65889L18.3063 2.64655ZM20.8912 4.16803L20.3494 5.0085C20.4387 5.06609 21.0746 5.47411 21.7627 5.9152L22.3024 5.0733L22.842 4.23141C22.1526 3.78952 21.5196 3.38334 21.4331 3.32756L20.8912 4.16803ZM22.3024 5.0733L21.4594 5.6113L21.6713 5.94333L22.5143 5.40533L23.3572 4.86734L23.1453 4.53531L22.3024 5.0733ZM22.5143 5.40533L21.5143 5.40233L21.4938 12.2226L22.4938 12.2256L23.4938 12.2287L23.5143 5.40834L22.5143 5.40533ZM22.4938 12.2256L21.4938 12.2225L21.4723 19.0428L22.4723 19.046L23.4723 19.0491L23.4938 12.2288L22.4938 12.2256ZM22.4723 19.046L21.4727 19.0746C21.4923 19.757 21.4136 20.2552 21.2574 20.5502C21.1896 20.6782 21.1174 20.7484 21.0418 20.7928C20.9644 20.8381 20.8211 20.8926 20.5565 20.8907L20.5494 21.8907L20.5424 22.8907C21.0973 22.8946 21.6094 22.7781 22.0527 22.5185C22.4977 22.2578 22.8116 21.8888 23.0249 21.4861C23.4308 20.7194 23.494 19.7895 23.4719 19.0173L22.4723 19.046ZM20.5494 21.8907L20.5565 20.8907C19.8973 20.8861 19.3896 20.7748 19.084 20.595C18.856 20.4607 18.7196 20.2906 18.7288 19.8987L17.7291 19.8751L16.7294 19.8514C16.7022 21.0001 17.2441 21.8326 18.0694 22.3185C18.8172 22.7587 19.7379 22.885 20.5424 22.8907L20.5494 21.8907ZM17.7291 19.8751L18.7291 19.8678L18.692 14.7926L17.692 14.7999L16.692 14.8072L16.7292 19.8824L17.7291 19.8751ZM17.692 14.7999L18.692 14.7927C18.675 12.4429 18.6636 11.1545 18.6407 10.4288C18.6294 10.0718 18.6144 9.81217 18.5881 9.61748C18.5586 9.39963 18.5072 9.20014 18.3922 8.99895L17.524 9.49518L16.6559 9.9914C16.602 9.89724 16.598 9.82522 16.6062 9.88565C16.6175 9.96925 16.6305 10.1387 16.6417 10.492C16.6636 11.1869 16.675 12.4438 16.692 14.8071L17.692 14.7999ZM17.524 9.49518L18.3922 8.99882C18.1962 8.65614 17.9122 8.33938 17.4438 8.15993C17.0581 8.01218 16.6224 7.99141 16.209 7.99127L16.2086 8.99127L16.2083 9.99127C16.3944 9.99134 16.5228 9.99758 16.6142 10.0078C16.7053 10.018 16.7335 10.0295 16.7283 10.0276C16.7142 10.0221 16.6828 10.0058 16.6534 9.97824C16.6294 9.95583 16.6314 9.94863 16.6559 9.99154L17.524 9.49518ZM16.2086 8.99127V7.99127H15.4791V8.99127V9.99127H16.2086V8.99127ZM15.4791 8.99127H14.4791V18.8526H15.4791H16.4791V8.99127H15.4791ZM15.4791 18.8526L14.594 19.3179C14.7749 19.6621 15.085 19.8462 15.2044 19.9133C15.3602 20.001 15.5371 20.0738 15.6897 20.1123L15.9342 19.1426L16.1787 18.173C16.2106 18.181 16.2199 18.1861 16.2076 18.181C16.1993 18.1776 16.1903 18.1732 16.1846 18.17C16.1768 18.1656 16.1885 18.1711 16.2119 18.1908C16.2245 18.2015 16.2458 18.2207 16.271 18.2497C16.2957 18.2782 16.3308 18.3237 16.3643 18.3873L15.4791 18.8526ZM15.9342 19.1426L15.6898 20.1123C15.8344 20.1488 15.9614 20.178 16.0626 20.2014C16.17 20.2263 16.237 20.2422 16.2886 20.2565C16.3409 20.2711 16.3401 20.2742 16.3162 20.2627C16.2857 20.248 16.216 20.2089 16.1448 20.1312C15.9915 19.9642 15.9961 19.8024 16.0045 19.8929C16.008 19.9305 16.0107 19.9925 16.0106 20.0955C16.0105 20.1972 16.0079 20.3198 16.0039 20.4764L17.0035 20.502L18.0032 20.5276C18.0107 20.2348 18.0178 19.945 17.996 19.7089C17.9739 19.4696 17.9096 19.0965 17.6186 18.7793C17.3459 18.482 17.0001 18.3786 16.8249 18.3298C16.6756 18.2882 16.3608 18.2189 16.1786 18.173L15.9342 19.1426ZM17.0035 20.502H16.0035V22.002H17.0035H18.0035V20.502H17.0035ZM17.0035 22.002L17.0038 21.002L9.53212 21.0001L9.53186 22.0001L9.5316 23.0001L17.0033 23.002L17.0035 22.002ZM9.53186 22.0001V21.0001C2.68406 21.0001 2.01814 21.002 2.00095 21.002L2.00354 22.002L2.00613 23.002C2.02009 23.002 2.6829 23.0001 9.53186 23.0001V22.0001ZM2.00354 22.002L3.00343 21.987C3.00337 21.983 2.99309 21.2926 3.02428 20.487L2.02502 20.4483L1.02577 20.4096C0.99257 21.2673 1.00337 21.9983 1.00365 22.017L2.00354 22.002ZM2.02502 20.4483L3.02427 20.4871C3.02904 20.3642 3.03387 20.2665 3.03997 20.1851C3.04611 20.1031 3.05264 20.0508 3.05838 20.0176C3.07065 19.9466 3.06949 20.0248 2.98721 20.1265C2.89943 20.235 2.81056 20.2591 2.85144 20.2444C2.87308 20.2366 2.91346 20.2242 2.98439 20.2072C3.05474 20.1903 3.14117 20.1722 3.25293 20.1503L3.06018 19.169L2.86744 18.1878C2.64138 18.2322 2.39279 18.2839 2.17449 18.3625C1.94053 18.4466 1.65815 18.5895 1.43235 18.8686C1.21204 19.1409 1.12832 19.4415 1.08763 19.6768C1.04831 19.9042 1.03539 20.162 1.02578 20.4095L2.02502 20.4483ZM3.06018 19.169L3.25351 20.1501C3.46475 20.1085 3.65767 20.0182 3.80947 19.9214C3.962 19.824 4.15339 19.6689 4.29859 19.4414L3.45569 18.9034L2.61278 18.3653C2.64458 18.3155 2.6748 18.2843 2.69212 18.2681C2.71018 18.2513 2.7245 18.2412 2.73367 18.2353C2.74294 18.2294 2.7543 18.2231 2.76997 18.2165C2.78346 18.2107 2.81587 18.1979 2.86685 18.1879L3.06018 19.169ZM3.45569 18.9034H4.45569V2.50201H3.45569H2.45569V18.9034H3.45569ZM3.45569 2.50201L4.30841 3.02437C4.36134 2.93798 4.31361 3.03467 4.20566 3.08635C4.17513 3.10096 4.23875 3.06284 4.61587 3.03673C5.35024 2.98588 6.71239 3.00204 9.49671 3.00201L9.4967 2.00201L9.4967 1.00201C6.78813 1.00204 5.30368 0.984311 4.47771 1.0415C4.07466 1.06941 3.67969 1.12079 3.34213 1.28238C2.92713 1.48103 2.72394 1.78216 2.60296 1.97965L3.45569 2.50201Z" fill="white" mask="url(#path-1-inside-1_317_43803)"/>
<path d="M9.5 5.5C11.1352 5.5 12.5 6.89592 12.5 8.66699C12.4999 9.06473 12.3185 9.69549 11.9922 10.4736C11.6739 11.2325 11.2457 12.0682 10.8125 12.8506C10.3802 13.6314 9.94735 14.3513 9.62207 14.876C9.57985 14.9441 9.53831 15.0082 9.5 15.0693C9.46169 15.0082 9.42015 14.9441 9.37793 14.876C9.05265 14.3513 8.61984 13.6314 8.1875 12.8506C7.75429 12.0682 7.32608 11.2325 7.00781 10.4736C6.68148 9.69549 6.5001 9.06473 6.5 8.66699C6.5 6.89592 7.86481 5.5 9.5 5.5Z" stroke="white"/>
<circle cx="9.5" cy="8.5" r="1" stroke="white"/>
</svg>
