<svg width="24" height="24" viewBox="0 0 24 24" fill="none" xmlns="http://www.w3.org/2000/svg">
<mask id="path-1-inside-1_317_43688" fill="white">
<path d="M21.1045 17.0029C21.908 17.5044 22.4443 18.3942 22.4443 19.4111C22.4441 20.979 21.1724 22.25 19.6045 22.25C18.0367 22.2498 16.7659 20.9789 16.7656 19.4111C16.7656 18.3945 17.3014 17.5045 18.1045 17.0029V12.3574H21.1045V17.0029Z"/>
</mask>
<path d="M21.1045 17.0029C21.908 17.5044 22.4443 18.3942 22.4443 19.4111C22.4441 20.979 21.1724 22.25 19.6045 22.25C18.0367 22.2498 16.7659 20.9789 16.7656 19.4111C16.7656 18.3945 17.3014 17.5045 18.1045 17.0029V12.3574H21.1045V17.0029Z" fill="white"/>
<path d="M21.1045 17.0029H20.1045V17.5576L20.575 17.8513L21.1045 17.0029ZM22.4443 19.4111L23.4443 19.4113V19.4111H22.4443ZM19.6045 22.25L19.6043 23.25H19.6045V22.25ZM16.7656 19.4111H15.7656V19.4113L16.7656 19.4111ZM18.1045 17.0029L18.6342 17.8511L19.1045 17.5574V17.0029H18.1045ZM18.1045 12.3574V11.3574H17.1045V12.3574H18.1045ZM21.1045 12.3574H22.1045V11.3574H21.1045V12.3574ZM21.1045 17.0029L20.575 17.8513C21.0999 18.1789 21.4443 18.7556 21.4443 19.4111H22.4443H23.4443C23.4443 18.0329 22.716 16.8299 21.634 16.1546L21.1045 17.0029ZM22.4443 19.4111L21.4443 19.411C21.4442 20.4264 20.6205 21.25 19.6045 21.25V22.25V23.25C21.7244 23.25 23.444 21.5317 23.4443 19.4113L22.4443 19.4111ZM19.6045 22.25L19.6046 21.25C18.589 21.2499 17.7658 20.4266 17.7656 19.411L16.7656 19.4111L15.7656 19.4113C15.7659 21.5312 17.4844 23.2497 19.6043 23.25L19.6045 22.25ZM16.7656 19.4111H17.7656C17.7656 18.7553 18.1098 18.1786 18.6342 17.8511L18.1045 17.0029L17.5748 16.1547C16.4929 16.8304 15.7656 18.0336 15.7656 19.4111H16.7656ZM18.1045 17.0029H19.1045V12.3574H18.1045H17.1045V17.0029H18.1045ZM18.1045 12.3574V13.3574H21.1045V12.3574V11.3574H18.1045V12.3574ZM21.1045 12.3574H20.1045V17.0029H21.1045H22.1045V12.3574H21.1045Z" fill="white" mask="url(#path-1-inside-1_317_43688)"/>
<mask id="path-3-inside-2_317_43688" fill="white">
<path d="M19.6045 2.35742C20.4329 2.35742 21.1045 3.02899 21.1045 3.85742V17.0029C21.908 17.5044 22.4443 18.3942 22.4443 19.4111C22.4441 20.979 21.1724 22.25 19.6045 22.25C18.0367 22.2498 16.7659 20.9789 16.7656 19.4111C16.7656 18.3945 17.3014 17.5045 18.1045 17.0029V3.85742C18.1045 3.02914 18.7763 2.35765 19.6045 2.35742Z"/>
</mask>
<path d="M19.6045 2.35742V1.35742L19.6042 1.35742L19.6045 2.35742ZM21.1045 17.0029H20.1045V17.5576L20.575 17.8513L21.1045 17.0029ZM22.4443 19.4111L23.4443 19.4113V19.4111H22.4443ZM19.6045 22.25L19.6043 23.25H19.6045V22.25ZM16.7656 19.4111H15.7656V19.4113L16.7656 19.4111ZM18.1045 17.0029L18.6342 17.8511L19.1045 17.5574V17.0029H18.1045ZM19.6045 2.35742V3.35742C19.8806 3.35742 20.1045 3.58128 20.1045 3.85742H21.1045H22.1045C22.1045 2.47671 20.9852 1.35742 19.6045 1.35742V2.35742ZM21.1045 3.85742H20.1045V17.0029H21.1045H22.1045V3.85742H21.1045ZM21.1045 17.0029L20.575 17.8513C21.0999 18.1789 21.4443 18.7556 21.4443 19.4111H22.4443H23.4443C23.4443 18.0329 22.716 16.8299 21.634 16.1546L21.1045 17.0029ZM22.4443 19.4111L21.4443 19.411C21.4442 20.4264 20.6205 21.25 19.6045 21.25V22.25V23.25C21.7244 23.25 23.444 21.5317 23.4443 19.4113L22.4443 19.4111ZM19.6045 22.25L19.6046 21.25C18.589 21.2499 17.7658 20.4266 17.7656 19.411L16.7656 19.4111L15.7656 19.4113C15.7659 21.5312 17.4844 23.2497 19.6043 23.25L19.6045 22.25ZM16.7656 19.4111H17.7656C17.7656 18.7553 18.1098 18.1786 18.6342 17.8511L18.1045 17.0029L17.5748 16.1547C16.4929 16.8304 15.7656 18.0336 15.7656 19.4111H16.7656ZM18.1045 17.0029H19.1045V3.85742H18.1045H17.1045V17.0029H18.1045ZM18.1045 3.85742H19.1045C19.1045 3.5817 19.3283 3.3575 19.6048 3.35742L19.6045 2.35742L19.6042 1.35742C18.2242 1.35781 17.1045 2.47657 17.1045 3.85742H18.1045Z" fill="white" mask="url(#path-3-inside-2_317_43688)"/>
<path d="M12.7808 7.02246C12.6448 6.92987 12.4696 6.90779 12.313 6.9707C12.1237 7.04683 11.9996 7.23053 11.9995 7.43457V8.20605L11.7808 8.06055V4H6.23389V8.06055L5.78955 8.35742C4.12069 9.47267 2.99951 11.4352 2.99951 13.6875C2.99951 17.2143 5.72898 20 9.00732 20C11.8407 20 14.262 17.9188 14.8677 15.0771L16.0103 13.8848C15.91 17.8321 12.8144 21 9.00732 21C5.13702 21 1.99951 17.7261 1.99951 13.6875C1.99951 11.099 3.28925 8.82591 5.23389 7.52637V3H12.7808V7.02246Z" fill="white"/>
<mask id="path-6-inside-3_317_43688" fill="white">
<path d="M21.1045 17.0029C21.908 17.5044 22.4443 18.3942 22.4443 19.4111C22.4441 20.979 21.1724 22.25 19.6045 22.25C18.0367 22.2498 16.7659 20.9789 16.7656 19.4111C16.7656 18.3945 17.3014 17.5045 18.1045 17.0029V12.3574H21.1045V17.0029Z"/>
</mask>
<path d="M21.1045 17.0029C21.908 17.5044 22.4443 18.3942 22.4443 19.4111C22.4441 20.979 21.1724 22.25 19.6045 22.25C18.0367 22.2498 16.7659 20.9789 16.7656 19.4111C16.7656 18.3945 17.3014 17.5045 18.1045 17.0029V12.3574H21.1045V17.0029Z" fill="white"/>
<path d="M21.1045 17.0029H20.1045V17.5576L20.575 17.8513L21.1045 17.0029ZM22.4443 19.4111L23.4443 19.4113V19.4111H22.4443ZM19.6045 22.25L19.6043 23.25H19.6045V22.25ZM16.7656 19.4111H15.7656V19.4113L16.7656 19.4111ZM18.1045 17.0029L18.6342 17.8511L19.1045 17.5574V17.0029H18.1045ZM18.1045 12.3574V11.3574H17.1045V12.3574H18.1045ZM21.1045 12.3574H22.1045V11.3574H21.1045V12.3574ZM21.1045 17.0029L20.575 17.8513C21.0999 18.1789 21.4443 18.7556 21.4443 19.4111H22.4443H23.4443C23.4443 18.0329 22.716 16.8299 21.634 16.1546L21.1045 17.0029ZM22.4443 19.4111L21.4443 19.411C21.4442 20.4264 20.6205 21.25 19.6045 21.25V22.25V23.25C21.7244 23.25 23.444 21.5317 23.4443 19.4113L22.4443 19.4111ZM19.6045 22.25L19.6046 21.25C18.589 21.2499 17.7658 20.4266 17.7656 19.411L16.7656 19.4111L15.7656 19.4113C15.7659 21.5312 17.4844 23.2497 19.6043 23.25L19.6045 22.25ZM16.7656 19.4111H17.7656C17.7656 18.7553 18.1098 18.1786 18.6342 17.8511L18.1045 17.0029L17.5748 16.1547C16.4929 16.8304 15.7656 18.0336 15.7656 19.4111H16.7656ZM18.1045 17.0029H19.1045V12.3574H18.1045H17.1045V17.0029H18.1045ZM18.1045 12.3574V13.3574H21.1045V12.3574V11.3574H18.1045V12.3574ZM21.1045 12.3574H20.1045V17.0029H21.1045H22.1045V12.3574H21.1045Z" fill="white" mask="url(#path-6-inside-3_317_43688)"/>
<mask id="path-8-inside-4_317_43688" fill="white">
<path d="M19.6045 2.35742C20.4329 2.35742 21.1045 3.02899 21.1045 3.85742V17.0029C21.908 17.5044 22.4443 18.3942 22.4443 19.4111C22.4441 20.979 21.1724 22.25 19.6045 22.25C18.0367 22.2498 16.7659 20.9789 16.7656 19.4111C16.7656 18.3945 17.3014 17.5045 18.1045 17.0029V3.85742C18.1045 3.02914 18.7763 2.35765 19.6045 2.35742Z"/>
</mask>
<path d="M19.6045 2.35742V1.35742L19.6042 1.35742L19.6045 2.35742ZM21.1045 17.0029H20.1045V17.5576L20.575 17.8513L21.1045 17.0029ZM22.4443 19.4111L23.4443 19.4113V19.4111H22.4443ZM19.6045 22.25L19.6043 23.25H19.6045V22.25ZM16.7656 19.4111H15.7656V19.4113L16.7656 19.4111ZM18.1045 17.0029L18.6342 17.8511L19.1045 17.5574V17.0029H18.1045ZM19.6045 2.35742V3.35742C19.8806 3.35742 20.1045 3.58128 20.1045 3.85742H21.1045H22.1045C22.1045 2.47671 20.9852 1.35742 19.6045 1.35742V2.35742ZM21.1045 3.85742H20.1045V17.0029H21.1045H22.1045V3.85742H21.1045ZM21.1045 17.0029L20.575 17.8513C21.0999 18.1789 21.4443 18.7556 21.4443 19.4111H22.4443H23.4443C23.4443 18.0329 22.716 16.8299 21.634 16.1546L21.1045 17.0029ZM22.4443 19.4111L21.4443 19.411C21.4442 20.4264 20.6205 21.25 19.6045 21.25V22.25V23.25C21.7244 23.25 23.444 21.5317 23.4443 19.4113L22.4443 19.4111ZM19.6045 22.25L19.6046 21.25C18.589 21.2499 17.7658 20.4266 17.7656 19.411L16.7656 19.4111L15.7656 19.4113C15.7659 21.5312 17.4844 23.2497 19.6043 23.25L19.6045 22.25ZM16.7656 19.4111H17.7656C17.7656 18.7553 18.1098 18.1786 18.6342 17.8511L18.1045 17.0029L17.5748 16.1547C16.4929 16.8304 15.7656 18.0336 15.7656 19.4111H16.7656ZM18.1045 17.0029H19.1045V3.85742H18.1045H17.1045V17.0029H18.1045ZM18.1045 3.85742H19.1045C19.1045 3.5817 19.3283 3.3575 19.6048 3.35742L19.6045 2.35742L19.6042 1.35742C18.2242 1.35781 17.1045 2.47657 17.1045 3.85742H18.1045Z" fill="white" mask="url(#path-8-inside-4_317_43688)"/>
<path d="M12.7808 7.07422C12.6451 6.98175 12.4705 6.95913 12.314 7.02148C12.124 7.09732 11.9995 7.28175 11.9995 7.48633V8.20605L11.7808 8.06055V4H6.23389V8.06055L5.78955 8.35742C4.12073 9.47264 2.99951 11.4353 2.99951 13.6875C2.99964 17.2142 5.72912 20 9.00732 20C11.7811 20 14.1605 18.0051 14.8276 15.2549L16.0073 14.0107C15.8451 17.8991 12.7737 21 9.00732 21C5.1371 21 1.99964 17.7259 1.99951 13.6875C1.99951 11.0991 3.28927 8.82588 5.23389 7.52637V3H12.7808V7.07422Z" fill="white"/>
<path d="M17 12L12.5 7V10.3333H5V13.6667H12.5V17L17 12Z" stroke="white" stroke-linecap="round" stroke-linejoin="round"/>
</svg>
