<svg width="24" height="24" viewBox="0 0 24 24" fill="none" xmlns="http://www.w3.org/2000/svg">
<circle cx="8" cy="8" r="7.5" transform="matrix(-1 0 0 1 20 4)" stroke="white"/>
<path d="M14.5638 12.877C14.4511 13.1938 14.2815 13.4875 14.0637 13.7437L20.1051 17.2355C20.2197 17.3017 20.3565 17.3197 20.4844 17.2856C20.6123 17.2513 20.7218 17.1673 20.7881 17.0527C20.8543 16.9381 20.8724 16.8013 20.8382 16.6734C20.8039 16.5454 20.7201 16.4361 20.6053 16.3697L14.5638 12.877ZM3.43462 6.6158C3.30663 6.65005 3.19733 6.73402 3.13097 6.84867C3.06469 6.96337 3.0467 7.10005 3.08083 7.22804C3.11508 7.35606 3.199 7.46532 3.31371 7.53168L9.36289 11.0264C9.47611 10.7102 9.64515 10.4163 9.86317 10.1607L3.81398 6.66594C3.69924 6.59971 3.56262 6.58158 3.43462 6.6158Z" fill="white"/>
<circle cx="3" cy="3" r="2.5" transform="matrix(-1 0 0 1 15 9)" stroke="white"/>
<path d="M14.1993 10.0871C14.306 10.2155 14.4055 10.3529 14.4914 10.5028C14.5751 10.649 14.6419 10.8008 14.698 10.9539L20.618 7.56333C20.733 7.49744 20.8172 7.3884 20.852 7.26053C20.8867 7.13264 20.8693 6.99595 20.8034 6.88096C20.7375 6.76606 20.6285 6.68173 20.5006 6.647C20.3728 6.61238 20.236 6.62979 20.1211 6.69558L14.1993 10.0871ZM3.29214 16.3339C3.17722 16.3998 3.09293 16.5089 3.05817 16.6367C3.02347 16.7646 3.04096 16.9013 3.10675 17.0163C3.17259 17.1313 3.28174 17.2154 3.40956 17.2503C3.53743 17.285 3.67411 17.2675 3.78912 17.2017L9.71937 13.8053C9.61571 13.6795 9.51853 13.545 9.43481 13.3988C9.349 13.2489 9.28078 13.0936 9.22408 12.9365L3.29214 16.3339Z" fill="white"/>
<path d="M11.4609 21.6519C11.461 21.7843 11.5138 21.9117 11.6074 22.0054C11.7011 22.0989 11.8285 22.1518 11.9609 22.1519C12.0933 22.1518 12.2208 22.0989 12.3145 22.0054C12.4081 21.9117 12.4609 21.7843 12.4609 21.6519V13.9341C12.301 13.9753 12.1337 14.0005 11.9609 14.0005C11.788 14.0005 11.621 13.9754 11.4609 13.9341V21.6519ZM11.9609 1.7583C11.8285 1.75838 11.7011 1.81112 11.6074 1.90479C11.5138 1.99853 11.4609 2.1258 11.4609 2.2583V10.0649C11.6209 10.0237 11.7881 10.0005 11.9609 10.0005C12.1337 10.0005 12.3011 10.0238 12.4609 10.0649V2.2583C12.4609 2.12572 12.4082 1.99855 12.3145 1.90479C12.2207 1.81107 12.0935 1.75833 11.9609 1.7583Z" fill="white"/>
</svg>
