<svg width="24" height="24" viewBox="0 0 24 24" fill="none" xmlns="http://www.w3.org/2000/svg">
<circle cx="12" cy="12" r="8.5" stroke="white"/>
<path d="M10.8743 11.4C11.2289 11.3067 11.5603 11.204 11.8683 11.092C12.1763 10.98 12.4423 10.84 12.6663 10.672C12.8903 10.504 13.0629 10.294 13.1843 10.042C13.3149 9.78067 13.3803 9.46333 13.3803 9.09C13.3803 8.73533 13.3149 8.446 13.1843 8.222C13.0536 7.998 12.8669 7.83467 12.6243 7.732C12.3816 7.62 12.0829 7.564 11.7283 7.564C11.4109 7.564 11.1216 7.60133 10.8603 7.676C10.6083 7.74133 10.3889 7.83 10.2023 7.942C10.0249 8.054 9.87559 8.17533 9.75426 8.306C9.74492 8.222 9.74959 8.14267 9.76826 8.068C9.78692 7.984 9.81959 7.90933 9.86626 7.844C9.92226 7.76933 9.99226 7.70867 10.0763 7.662C10.1603 7.606 10.2676 7.57333 10.3983 7.564V9.384H8.63426V7.536C8.77426 7.40533 9.00292 7.26533 9.32026 7.116C9.63759 6.95733 10.0156 6.822 10.4543 6.71C10.8929 6.58867 11.3783 6.528 11.9103 6.528C12.6663 6.528 13.3056 6.626 13.8283 6.822C14.3509 7.018 14.7476 7.30733 15.0183 7.69C15.2983 8.07267 15.4383 8.544 15.4383 9.104C15.4383 9.56133 15.3496 9.958 15.1723 10.294C14.9949 10.6207 14.7569 10.9007 14.4583 11.134C14.1596 11.358 13.8283 11.54 13.4643 11.68C13.1003 11.82 12.7316 11.9367 12.3583 12.03V13.528H10.8743V11.4ZM11.6163 17.196C12.0456 17.196 12.3863 17.084 12.6383 16.86C12.8903 16.6267 13.0163 16.314 13.0163 15.922C13.0163 15.53 12.8903 15.222 12.6383 14.998C12.3863 14.7647 12.0456 14.648 11.6163 14.648C11.2056 14.648 10.8743 14.7647 10.6223 14.998C10.3703 15.222 10.2443 15.53 10.2443 15.922C10.2443 16.314 10.3703 16.6267 10.6223 16.86C10.8743 17.084 11.2056 17.196 11.6163 17.196Z" fill="white"/>
</svg>
