<svg width="24" height="24" viewBox="0 0 24 24" fill="none" xmlns="http://www.w3.org/2000/svg">
<circle cx="12" cy="12" r="8.5" stroke="white"/>
<path d="M13.1699 6.612C13.1699 7.116 13.1513 7.58267 13.1139 8.012C13.0859 8.44133 13.0439 8.86133 12.9879 9.272C12.9413 9.67333 12.8899 10.0887 12.8339 10.518C12.7873 10.938 12.7453 11.3907 12.7079 11.876C12.6706 12.3613 12.6519 12.898 12.6519 13.486H11.3499C11.3499 12.898 11.3313 12.3613 11.2939 11.876C11.2659 11.3907 11.2239 10.938 11.1679 10.518C11.1213 10.098 11.0699 9.68733 11.0139 9.286C10.9673 8.87533 10.9253 8.45533 10.8879 8.026C10.8506 7.58733 10.8319 7.116 10.8319 6.612H13.1699ZM11.9939 17.182C12.4139 17.182 12.7499 17.07 13.0019 16.846C13.2633 16.6127 13.3939 16.3 13.3939 15.908C13.3939 15.516 13.2633 15.208 13.0019 14.984C12.7499 14.7507 12.4139 14.634 11.9939 14.634C11.5833 14.634 11.2519 14.7507 10.9999 14.984C10.7479 15.208 10.6219 15.516 10.6219 15.908C10.6219 16.3 10.7479 16.6127 10.9999 16.846C11.2519 17.07 11.5833 17.182 11.9939 17.182Z" fill="white"/>
</svg>
