<svg width="24" height="24" viewBox="0 0 24 24" fill="none" xmlns="http://www.w3.org/2000/svg">
<circle cx="12" cy="12" r="8.5" stroke="white"/>
<path d="M12 15C12 10.5 9.75001 6 12 6C14.25 6 12 10.5 12 15Z" fill="white"/>
<path d="M11.5 15C11.8333 15 12.1667 15 12.5 15C12.5 14.6662 12.4881 14.3338 12.4668 14.003C12.3836 12.7088 12.1586 11.4455 11.9216 10.2055C11.7702 9.39952 11.603 8.60054 11.5262 7.82924C11.4904 7.4487 11.4821 7.06321 11.5601 6.79735C11.6586 6.53858 11.6835 6.52237 12 6.5C12.2806 6.51443 12.324 6.54236 12.4112 6.71658C12.4941 6.90897 12.5117 7.23809 12.4935 7.56587C12.4545 8.23157 12.3165 8.94095 12.1847 9.64748C11.9139 11.0645 11.6284 12.5148 11.5331 14.003C11.5119 14.3338 11.5 14.6662 11.5 15C11.8333 15 12.1667 15 12.5 15C12.5 14.69 12.5111 14.3789 12.5311 14.0671C12.6206 12.6626 12.8942 11.2594 13.1673 9.83363C13.2997 9.11729 13.4447 8.40018 13.4921 7.61851C13.5056 7.22307 13.5254 6.8172 13.3319 6.32623C13.2352 6.08826 13.0368 5.82618 12.7688 5.68131C12.5039 5.53522 12.2403 5.50111 12 5.5C11.7333 5.50055 11.4179 5.54656 11.1299 5.74442C10.84 5.94145 10.6759 6.25325 10.6014 6.5131C10.4559 7.04793 10.496 7.48573 10.5306 7.92309C10.6177 8.78733 10.7887 9.58689 10.9393 10.3926C11.1753 11.626 11.3906 12.8464 11.4689 14.0671C11.4889 14.3789 11.5 14.69 11.5 15ZM12.5 15L11.5 15L12.5 15L11.5 15L12.5 15Z" fill="white"/>
<circle cx="12" cy="17" r="1" fill="white"/>
</svg>
