<svg width="24" height="24" viewBox="0 0 24 24" fill="none" xmlns="http://www.w3.org/2000/svg">
<circle cx="12" cy="12" r="8.5" stroke="white"/>
<path d="M11.605 6.59001C11.625 6.58001 11.715 6.57501 11.875 6.57501C12.045 6.59501 12.155 6.61001 12.205 6.62001C12.595 6.74001 12.875 6.97001 13.045 7.31001C13.135 7.50001 13.18 7.68501 13.18 7.86501C13.18 8.05501 13.135 8.24001 13.045 8.42001C12.875 8.77001 12.595 9.00501 12.205 9.12501C12.115 9.14501 11.99 9.15501 11.83 9.15501C11.66 9.15501 11.535 9.14501 11.455 9.12501C11.055 9.00501 10.77 8.77001 10.6 8.42001C10.52 8.26001 10.48 8.07501 10.48 7.86501C10.48 7.72501 10.485 7.62501 10.495 7.56501C10.545 7.38501 10.635 7.21501 10.765 7.05501C10.975 6.80501 11.255 6.65001 11.605 6.59001ZM11.5 10.31C12.5 10.27 12.98 10.25 12.94 10.25H13.03V13.085V15.92H13.495H13.96V16.46V17H13.825L12.865 16.97C12.315 16.96 11.745 16.96 11.155 16.97L10.135 17H10V16.46V15.92H10.525H11.035V13.865C11.035 12.475 11.03 11.76 11.02 11.72C10.98 11.6 10.915 11.53 10.825 11.51C10.685 11.47 10.485 11.45 10.225 11.45H10.045V10.91V10.37H10.09L11.5 10.31Z" fill="white"/>
</svg>
