<svg width="24" height="24" viewBox="0 0 24 24" fill="none" xmlns="http://www.w3.org/2000/svg">
<circle cx="12" cy="12" r="9.5" stroke="white"/>
<path d="M12.0021 8.292C11.6194 8.292 11.3161 8.19867 11.0921 8.012C10.8681 7.82533 10.7561 7.55 10.7561 7.186C10.7561 6.83133 10.8681 6.56533 11.0921 6.388C11.3161 6.20133 11.6194 6.108 12.0021 6.108C12.3754 6.108 12.6741 6.20133 12.8981 6.388C13.1221 6.56533 13.2341 6.83133 13.2341 7.186C13.2341 7.55 13.1221 7.82533 12.8981 8.012C12.6741 8.19867 12.3754 8.292 12.0021 8.292ZM13.1081 9.454V15.474C13.1081 15.7447 13.1921 15.9267 13.3601 16.02C13.5281 16.1133 13.7567 16.16 14.0461 16.16H14.0741V17H10.0841V16.16H10.1261C10.4154 16.16 10.6441 16.1133 10.8121 16.02C10.9801 15.9267 11.0641 15.7447 11.0641 15.474V10.938C11.0641 10.77 10.9941 10.658 10.8541 10.602C10.7141 10.5367 10.4994 10.476 10.2101 10.42L10.0841 10.392V9.454H13.1081Z" fill="white"/>
</svg>
