<svg width="24" height="24" viewBox="0 0 24 24" fill="none" xmlns="http://www.w3.org/2000/svg">
<path d="M17.1813 12.5346C16.4912 11.1545 14.9731 9.95837 13.501 10.6944C12.5821 11.1539 11.5576 11.6145 10.5107 11.6145C9.4638 11.6145 8.43935 11.1539 7.52047 10.6944C6.04834 9.95837 4.53021 11.1545 3.84016 12.5346C3.07342 14.0681 2 16.951 2 19.8952C2 22.8395 4.06693 22.4287 5.22027 21.2753C6.73874 19.7569 8.36504 18.9751 10.5107 18.9751C12.6564 18.9751 14.2827 19.7569 15.8012 21.2753C16.9545 22.4287 19.0214 22.8395 19.0214 19.8952C19.0214 16.951 17.948 14.0681 17.1813 12.5346Z" stroke="white"/>
<circle cx="7.06042" cy="15.3853" r="1.80019" stroke="white"/>
<path d="M10.1845 11.8086C10.1845 10.9107 10.739 9.86327 9.62991 8.89061C8.14194 7.58567 8.52084 6.62109 9.35264 5" stroke="white"/>
<path d="M14.3405 13.0851V17.3405" stroke="white" stroke-linecap="round" stroke-linejoin="bevel"/>
<path d="M16.4682 15.2129L12.2129 15.2129" stroke="white" stroke-linecap="round" stroke-linejoin="bevel"/>
<path d="M18 1C18.4908 1 18.8886 1.39785 18.8887 1.88867V1.92578C19.119 1.99225 19.3381 2.08458 19.5439 2.19824L19.5713 2.17188C19.9184 1.82474 20.481 1.82474 20.8281 2.17188C21.1752 2.51901 21.1752 3.08159 20.8281 3.42871L20.8008 3.45508C20.9147 3.66123 21.0076 3.88054 21.0742 4.11133H21.1113C21.6021 4.11145 22 4.50916 22 5C22 5.49085 21.6021 5.88855 21.1113 5.88867H21.0742C21.0077 6.11918 20.9145 6.33801 20.8008 6.54395L20.8281 6.57129C21.1752 6.91841 21.1752 7.48099 20.8281 7.82812C20.481 8.17526 19.9184 8.17526 19.5713 7.82812L19.5439 7.80078C19.3381 7.9145 19.1191 8.00674 18.8887 8.07324V8.11133C18.8886 8.60215 18.4908 9 18 9C17.5092 9 17.1114 8.60215 17.1113 8.11133V8.07324C16.8806 8.00665 16.6612 7.9147 16.4551 7.80078L16.4287 7.82812C16.0816 8.17525 15.519 8.17523 15.1719 7.82812C14.8247 7.48099 14.8247 6.91842 15.1719 6.57129L15.1982 6.54395C15.0846 6.33813 14.9922 6.11902 14.9258 5.88867H14.8887C14.3979 5.88855 14 5.49085 14 5C14 4.50916 14.3979 4.11145 14.8887 4.11133H14.9258C14.9923 3.8807 15.0844 3.66111 15.1982 3.45508L15.1719 3.42871C14.8247 3.08158 14.8247 2.51901 15.1719 2.17188C15.519 1.82479 16.0816 1.82476 16.4287 2.17188L16.4551 2.19824C16.6611 2.08439 16.8807 1.99233 17.1113 1.92578V1.88867C17.1114 1.39785 17.5092 1 18 1ZM17.3887 2.88672C17.2318 2.932 17.0809 2.99454 16.9385 3.07324L16.3809 3.38086L16.0732 3.93848C15.9945 4.08091 15.932 4.23177 15.8867 4.38867L15.709 5L15.8867 5.61133C15.9316 5.76673 15.9941 5.91712 16.0732 6.06055L16.3809 6.61719L16.9385 6.92578C17.0807 7.0044 17.2315 7.06693 17.3887 7.1123L18 7.28906L18.6113 7.1123C18.767 7.06736 18.9173 7.00493 19.0605 6.92578L19.6172 6.61719L19.9258 6.06055C20.0063 5.91484 20.069 5.76466 20.1133 5.61133L20.29 5L20.1133 4.38867C20.0686 4.23391 20.0057 4.08313 19.9258 3.93848L19.6172 3.38086L19.0605 3.07324C18.9171 2.99405 18.7667 2.93156 18.6113 2.88672L18 2.70898L17.3887 2.88672ZM18 4C18.5523 4 19 4.44772 19 5C19 5.55228 18.5523 6 18 6C17.4477 6 17 5.55228 17 5C17 4.44772 17.4477 4 18 4Z" fill="white"/>
</svg>
