<svg width="24" height="24" viewBox="0 0 24 24" fill="none" xmlns="http://www.w3.org/2000/svg">
<path d="M19.8378 10.8531C19.027 9.23146 17.2432 7.82603 15.5135 8.6909C14.4339 9.23073 13.2301 9.77201 12 9.77198C10.7699 9.77196 9.56617 9.23074 8.48649 8.6909C6.75676 7.82603 4.97297 9.23146 4.16216 10.8531C3.26126 12.6549 2 16.0422 2 19.5017C2 22.9612 4.42862 22.4785 5.78378 21.1233C7.56796 19.3392 9.47886 18.4206 12 18.4206C14.5211 18.4206 16.432 19.3392 18.2162 21.1233C19.5714 22.4785 22 22.9612 22 19.5017C22 16.0422 20.7387 12.6549 19.8378 10.8531Z" stroke="white"/>
<circle cx="7.94593" cy="14.2027" r="2.2027" stroke="white"/>
<path d="M12.1629 10C12.1629 8.94506 11.5113 7.71429 12.8145 6.57143C14.5628 5.03814 14.1176 3.90476 13.1403 2" stroke="white"/>
<path d="M16.5 11.5V16.5" stroke="white" stroke-linecap="round" stroke-linejoin="bevel"/>
<path d="M19 14L14 14" stroke="white" stroke-linecap="round" stroke-linejoin="bevel"/>
</svg>
