<?xml version="1.0" encoding="UTF-8"?>
<svg xmlns="http://www.w3.org/2000/svg" version="1.1" viewBox="0 0 311.5 310.2">
  <defs>
    <style>
      .cls-1 {
        stroke-miterlimit: 10;
      }

      .cls-1, .cls-2 {
        stroke: #fff;
      }

      .cls-2 {
        fill: none;
        stroke-linecap: round;
        stroke-linejoin: round;
        stroke-width: 1.4px;
      }
    </style>
  </defs>
  <!-- Generator: Adobe Illustrator 28.7.10, SVG Export Plug-In . SVG Version: 1.2.0 Build 236)  -->
  <g>
    <g id="Layer_1">
      <path d="M307.8,199.5h-6.3l.2-1v-.2c.1,0,.1-.1.1-.2v-.2c0,0,.1-.2.1-.2v-.4s0,0,0,0t0,0h0s0,0,0-.1l1.4-6.8v-.3c.1,0,.1,0,.1-.1v-.5c0,0,.1,0,.1-.1h0c0-.1,0-.2,0-.3v-.3s0,0,0,0c0,0,0-.1,0-.1s0,0-.1,0c0,0,0,0,0,0l-3.5-.7s0,0,0,0c0,0,0,0-.1,0,0,0,0,0-.1,0,0,0,0,0-.1.1,0,0,0,0,0,.1,0,0,0,0,0,0v.2c0,0,0,0,0,0l-2.8-.6s0,0,0,0c0,0,0,0-.1,0,0,0,0,0-.1,0h0s0,0-.1.1c0,0,0,0,0,0h0c0,0-.1.2-.1.3h0c0,0-2.8-.5-2.8-.5,0,0,0,0,0,0,0,0-.1,0-.2,0,0,0,0,0-.1,0h0s0,0,0,0h0c0,.2-.1.3-.1.3v.2h0c0,.2,0,.2,0,.3h0c0,.1,0,.4,0,.4,0,0,0,0,0,.1v.3l-1.5,6.8s0,0,0,0c0,0,0,0,0,0v.2h0c0,.2,0,.2,0,.3h0s-1.2-.2-1.2-.2l-2.6-.7-1.2-.2-1-.2v-3.7c0-.1,0-.2-.2-.3,0,0,0,0,0,0h0s0,0,0,0c0,0,0,0,0-.1,0,0,0,0,0-.1l-3.1-7.2,1.9-.8.6-.2.6-.3.4-.3.7-.2,1-.6,3.7-2.7s0,0,0,0c0,0,0,0,0,0l.5-.6.3-.2s0,0,0,0l.2-.3.3-.6s0-.1,0-.2v-.4s0,0,0,0c0,0,0,0,0,0l-1-2.4s0,0,0,0l-.7-1.5h4.3c.2,0,.4-.2.4-.4v-10.4c0-.2-.2-.4-.4-.4h-.5v-.9c0-.2-.2-.4-.4-.4h-22.5l-5.1-11.9h0c0-.1,0-.2,0-.3h0c0-.1,0-.2,0-.2l-.2-.5s0,0,0,0l-.2-.3-.9-2.2-.3-.6-1.1-2.8-.4-.8-1.1-2.7-.9-2-.4-1-1.5-3.4-.5-1.3s0,0,0,0l-2-4.6-.4-1.1-.5-1-.8-1.9-.3-.9-.8-1.6-.9-2.2-.2-.6-.3-.6-.4-1.1-.4-.7v-.4c-.1,0-.1,0-.1-.1l-.3-.6h0c0-.2,0-.3-.1-.4h0s0,0,0-.1c0,0,0,0,0-.1,0,0,0,0-.1,0,0,0,0,0-.1,0,0,0,0,0,0,0l-.8.3-.2-.4h0c0-.2-.2-.4-.4-.4h-15s0,0,0,0h.1c0,0,.1,0,.1,0,.2,0,.4-.2.4-.4v-6.6c0-.2-.2-.4-.4-.4h-.3v-.5c0-.2-.2-.4-.4-.4h-.4c0,0-.1-.1-.2-.1h-1.8s-.7-.1-.7-.1h-6.2s-.8,0-.8,0h-7.1l-20.3-24.2h0s0,0,0,0c0,0,0,0,0,0v-22.8h14c.2,0,.4-.2.4-.4v-2.7c0-.2-.2-.4-.4-.4h-2.3v-3.7s0,0,0,0c0,0,0,0,0,0l-.6-4.5v-27.2c0,0,.1-.2.1-.2v-2.6c0-.2-.2-.4-.4-.4h-.7c-.2,0-.4.2-.4.4v2.7c0,0,0,.2,0,.2v26.9s0,0,0,.2c0,0,0,0,0,0h0s0,0,0,0c0,0,0,0,0,0l-.5,4.5s0,0,0,0c0,0,0,0,0,0h0c0,.2,0,.3,0,.4v3.3h-9.6v-2.9h3.6c.2,0,.4-.2.4-.4v-2.3c0-.2-.2-.4-.4-.4h-27.6l-1-4.6v-7.2c0,0,0-.2-.1-.3,0,0,0,0,0,0,0,0,0,0,0-.1l-.8-.7c0,0,0-.1,0-.2v-15.1s-.1-.8-.1-.8l-.2-.8v-.9c-.1,0-.4-.8-.4-.8l-.2-.8-.7-1.5-.5-.7-.4-.7-.5-.7-.6-.6-.5-.6s0,0,0,0l-.7-.5-.6-.5-.7-.5-1.5-.8h-.2c0,0,0-.1,0-.1,0,0,0,0,0,0h-.1c0,0,0-.1,0-.1,0,0,0,0,0,0h-.2c0-.1-.1-.1-.2-.1h-.2l-2-.5-1.7-.2h-1.6s-1.6.2-1.6.2l-1.7.4h-.1c0,0-.3,0-.3,0,0,0-.1,0-.2,0l-.4.2s0,0,0,0l-1.2.6-.8.4-.6.5-.7.5-.6.5-.6.6-.5.6-1,1.4-.8,1.5-.6,1.5-.4,1.6-.2,1.6v15c0,0,0,.1,0,.2h0s-.8.8-.8.8c0,0,0,0,0,0,0,0-.2.2-.2.3v7.3l-1.1,4.6h-27.6c-.2,0-.4.2-.4.4v2.3c0,.2.2.4.4.4h3.7v2.9h-14.5c-.2,0-.4.2-.4.4v2.7c0,.2.2.4.4.4h14v22.9l-20.2,24.1h-9s-.8,0-.8,0h-6.3s-.4.1-.4.1h-1.9s0,0-.1,0h-.2c0,0-.3,0-.3,0-.2,0-.4.2-.4.4v.5h-.3c-.2,0-.4.2-.4.4v6.6c0,.2.2.4.4.4h.2s.1,0,.2,0h-14.8s0,0-.1,0c0,0,0,0,0,0h0s0,0,0,0h0s0,0,0,0h0c0,.2-.1.3-.1.3h0c0,0-.1.3-.1.3,0,0,0,0,0,0l-.6-.3s0,0,0,0c0,0,0,0-.1,0,0,0-.1,0-.1,0,0,0,0,0,0,0,0,0,0,0,0,0h0c0,.2-.1.3-.1.3l-.6,1.3v.3c0,0-.8,1.5-.8,1.5l-.2.6-.3.6-1.2,3-.4.8-1.6,3.8-1,2.2-.4,1.1-.5,1.2-.6,1.2s0,0,0,0c0,0,0,0,0,0l-1.5,3.6-.4,1.1-.5,1-1.2,3-.8,1.7-.6,1.6-2,4.5-.2.6-.3.6h0c0,.1-.1.2-.1.3l-5.1,11.9h-22.4c-.2,0-.4.2-.4.4v.9h-.5c-.2,0-.4.2-.4.4v10.4c0,.2.2.4.4.4h4.3l-.6,1.5v.2c-.1,0-.1,0-.1.1l-.9,2.1v.2c-.1,0-.1.1-.1.2v.2c0,0,0,.1,0,.2l.2.4s0,0,0,0l.4.5.5.5.4.3s0,0,0,0l2.4,1.8s0,0,0,0l.8.6,1.6.9.5.2,1.1.6.6.2,1.9.8-3.1,7.2s0,0,0,0c0,0,0,0,0,0,0,0,0,0,0,0h0s0,0,0,0h0c0,0,0,.1,0,.2,0,0,0,.1,0,.2,0,0-.1.2-.1.2v3.6l-2,.4-2.6.7-1.5.3h-.2s0,0,0,0v-.3s0,0,0,0c0,0,0,0,0,0l-1.5-6.8s0,0,0,0c0,0,0,0,0,0v-.2c0,0,0-.2,0-.2,0,0,0-.1,0-.2h0v-.2c0,0,0-.1,0-.2h0v-.2s0,0,0,0c0,0,0,0,0-.1,0,0,0,0-.1-.1h0s0,0,0,0c0,0,0,0-.1,0,0,0,0,0-.1,0,0,0,0,0,0,0l-2.8.6s0,0,0,0h0v-.2s0,0,0,0c0,0,0,0,0-.1,0,0,0,0-.1-.1,0,0,0,0-.1,0,0,0,0,0-.1,0,0,0,0,0,0,0l-2.9.6v-.3s0,0,0,0c0,0,0,0,0,0,0,0,0-.1-.1-.1,0,0,0,0,0,0,0,0,0,0-.1,0,0,0,0,0,0,0,0,0,0,0,0,0l-3.6.7s0,0,0,0c0,0,0,0-.1,0,0,0,0,0,0,.1,0,0,0,0,0,0h0s0,0,0,.1h0c0,.2,0,.3,0,.3h0c0,.1,0,.2,0,.2h0v.3s0,0,0,.1v.2c0,0,0,.2,0,.2,0,0,0,0,0,0,0,0,0,0,0,0l1.5,6.8v.3c0,0,0,.2.1.2v.2c0,0,0,.1,0,.2h0v.3s0,0,0,0c0,0,0,0,0,0l.3,1H3.9c-.2,0-.4.2-.4.4v2.7c0,.2.2.4.4.4h1.2l-.3.3-.3.5-.4,1-.2,1v1s.2.9.2.9c0,0,0,0,0,0l.6,1.3.3.4s0,0,0,0l.4.3.3.3s0,0,0,0l1.4.6h.5c0,.1,1.5.1,1.5.1h.5c0-.1,0-.1,0-.1l.9-.2,16,75.4s0,0,0,.1h0s0,0,0,0t0,0s0,0,0,0c0,0,0,0,0,0h0c0,0,0,0,.1.1,0,0,0,0,0,0h0s0,0,0,0c0,0,0,0,0,0h0s0,0,0,0h0s0,0,0,0c0,0,0,0,0,0h0s0,0,0,0h0s0,0,0,0h0s0,0,0,0,0,0,0,0c0,0,0,0,0,0,0,0,0,0,0,0,0,0,.1,0,.2,0l1.3-.3v1.5c0,.2.2.4.4.4h36.5l88.7,15.6s0,0,0,0h.3v2.5c0,.2.2.4.4.4h2.7c.2,0,.4-.2.4-.4v-2.5h.3c0,0,0,0,0,0h0l88.7-15.6h36.4c.2,0,.4-.2.4-.4v-1.5l1.4.3s0,0,.1,0h0c.1,0,.3-.1.3-.3h0s0,0,0,0c0,0,0,0,0,0,0,0,0,0,0,0l16-75.4,1.4.3h1.5s.5-.1.5-.1c0,0,0,0,0,0l1.3-.6.4-.3.3-.3.6-.9.4-.8s0,0,0,0l.2-1v-.6s0-.3,0-.3v-.5c0,0,0-.1,0-.2l-.2-.4v-.5c-.1,0-.1-.1-.2-.1l-.3-.3-.2-.4s0,0,0,0l-.3-.3h1.2c.2,0,.4-.2.4-.4v-2.7c0-.2-.2-.4-.4-.4Z"/>
      <path class="cls-2" d="M154.5,300.6h0M153.9,302.4h.6M153.9,302.4h0M153.9,302.4l.5-1.8M154.4,300.6h-.2M154.4,300.6l-3.3-.8M65.2,286.8l88.7,15.6M154.2,300.6l-.3,1.8M154.2,300.6l-88.7-15.6M65.5,285h0M65.5,285l-.3,1.8M14.4,217.2h0v.3h0c0,.1,0,0,0,0h0c0,0-.1-.4-.1-.4v-.8c0,0-.3-.6-.3-.6v-.6c0,0-.2-.7-.2-.7l-.2-.8v-.4M28.8,284.6h0v.2h0M28.7,284.9l-17.5-82.3M11.2,202.6l-1.7.4M9.5,203l17.5,82.3M27,285.3l1.7-.4M154.5,294.5h2.7M154.5,305.3v-10.8M157.2,305.3h-2.7M157.2,294.5v10.8M164.8,294.6v.3l-.2.2v.3c-.1,0-.3.2-.3.2l-.3.2-.2.2h-.3c0,.1-.3.1-.3.1h-.9c0-.1-.3-.3-.3-.3l-.2-.2-.2-.2-.2-.3v-.2c-.1,0-.1-.3-.1-.3M150.4,294.6v.3l-.2.2v.3c0,0-.3.2-.3.2l-.3.2-.2.2h-.3c0,.1-.3.1-.3.1h-.9c0-.1-.3-.3-.3-.3l-.2-.2-.2-.2-.2-.3v-.2c0,0,0-.3,0-.3M60.2,265.9h0v.5c0,0-.3.3-.3.3v.2c-.1,0-.3.2-.3.2h-.3c0,0-.2.2-.2.2h-1.2c0,0-.2-.2-.2-.2l-.2-.2-.2-.2v-.3c0,0-.2-.2-.2-.2v-.3M233,265.9h0v.5c0,0-.3.3-.3.3v.2c0,0-.3.2-.3.2h-.3c0,0-.2.2-.2.2h-1.2c0,0-.2-.2-.2-.2l-.2-.2-.2-.2v-.3c-.1,0-.2-.2-.2-.2v-.3M146.6,265.9h0v.5c-.1,0-.3.3-.3.3v.2c0,0-.3.2-.3.2h-.3c0,0-.2.2-.2.2h-1.2c0,0-.2-.2-.2-.2l-.2-.2-.2-.2v-.3c0,0-.2-.2-.2-.2v-.3M125,265.9h0v.5c0,0-.3.3-.3.3v.2c0,0-.3.2-.3.2h-.3c0,0-.2.2-.2.2h-1.2c0,0-.2-.2-.2-.2l-.2-.2-.2-.2v-.3c-.1,0-.2-.2-.2-.2v-.3M211.4,265.9h0v.5c-.1,0-.3.3-.3.3v.2c-.1,0-.3.2-.3.2h-.3c0,0-.2.2-.2.2h-1.2c0,0-.2-.2-.2-.2l-.2-.2-.2-.2v-.3c0,0-.2-.2-.2-.2v-.3M168.2,265.9h0v.5c0,0-.3.3-.3.3v.2c-.1,0-.3.2-.3.2h-.3c0,0-.2.2-.2.2h-1.2c0,0-.2-.2-.2-.2l-.2-.2-.2-.2v-.3c0,0-.2-.2-.2-.2v-.3M254.6,265.9h0v.5c-.1,0-.3.3-.3.3v.2c0,0-.3.2-.3.2h-.3c0,0-.2.2-.2.2h-1.2c0,0-.2-.2-.2-.2l-.2-.2-.2-.2v-.3c0,0-.2-.2-.2-.2v-.3M103.4,265.9h0v.5c-.1,0-.3.3-.3.3v.2c-.1,0-.3.2-.3.2h-.3c0,0-.2.2-.2.2h-1.2c0,0-.2-.2-.2-.2l-.2-.2-.2-.2v-.3c0,0-.2-.2-.2-.2v-.3M189.8,265.9h0v.5c0,0-.3.3-.3.3v.2c0,0-.3.2-.3.2h-.3c0,0-.2.2-.2.2h-1.2c0,0-.2-.2-.2-.2l-.2-.2-.2-.2v-.3c-.1,0-.2-.2-.2-.2v-.3M81.8,265.9h0v.5c0,0-.3.3-.3.3v.2c0,0-.3.2-.3.2h-.3c0,0-.2.2-.2.2h-1.2c0,0-.2-.2-.2-.2l-.2-.2-.2-.2v-.3c-.1,0-.2-.2-.2-.2v-.3M125,244.8h0v.5c0,0-.3.3-.3.3v.2c0,0-.3.1-.3.1l-.3.2h-.2c0,0-.3,0-.3,0h-.9c0,0-.2-.3-.2-.3h-.2c0-.1-.2-.3-.2-.3v-.3c-.1,0-.2-.3-.2-.3v-.2M276.2,244.8h0v.5c0,0-.3.3-.3.3v.2c-.1,0-.3.1-.3.1l-.3.2h-.2c0,0-.3,0-.3,0h-.9c0,0-.2-.3-.2-.3h-.2c0-.1-.2-.3-.2-.3v-.3c0,0-.2-.3-.2-.3v-.2M60.2,244.8h0v.5c0,0-.3.3-.3.3v.2c-.1,0-.3.1-.3.1l-.3.2h-.2c0,0-.3,0-.3,0h-.9c0,0-.2-.3-.2-.3h-.2c0-.1-.2-.3-.2-.3v-.3c0,0-.2-.3-.2-.3v-.2M38.6,244.8h0v.5c-.1,0-.3.3-.3.3v.2c0,0-.3.1-.3.1l-.3.2h-.2c0,0-.3,0-.3,0h-.9c0,0-.2-.3-.2-.3h-.2c0-.1-.2-.3-.2-.3v-.3c0,0-.2-.3-.2-.3v-.2M211.4,244.8h0v.5c-.1,0-.3.3-.3.3v.2c-.1,0-.3.1-.3.1l-.3.2h-.2c0,0-.3,0-.3,0h-.9c0,0-.2-.3-.2-.3h-.2c0-.1-.2-.3-.2-.3v-.3c0,0-.2-.3-.2-.3v-.2M233,244.8h0v.5c0,0-.3.3-.3.3v.2c0,0-.3.1-.3.1l-.3.2h-.2c0,0-.3,0-.3,0h-.9c0,0-.2-.3-.2-.3h-.2c0-.1-.2-.3-.2-.3v-.3c-.1,0-.2-.3-.2-.3v-.2M189.8,244.8h0v.5c0,0-.3.3-.3.3v.2c0,0-.3.1-.3.1l-.3.2h-.2c0,0-.3,0-.3,0h-.9c0,0-.2-.3-.2-.3h-.2c0-.1-.2-.3-.2-.3v-.3c-.1,0-.2-.3-.2-.3v-.2M254.6,244.8h0v.5c-.1,0-.3.3-.3.3v.2c0,0-.3.1-.3.1l-.3.2h-.2c0,0-.3,0-.3,0h-.9c0,0-.2-.3-.2-.3h-.2c0-.1-.2-.3-.2-.3v-.3c0,0-.2-.3-.2-.3v-.2M103.4,244.8h0v.5c-.1,0-.3.3-.3.3v.2c-.1,0-.3.1-.3.1l-.3.2h-.2c0,0-.3,0-.3,0h-.9c0,0-.2-.3-.2-.3h-.2c0-.1-.2-.3-.2-.3v-.3c0,0-.2-.3-.2-.3v-.2M81.8,244.8h0v.5c0,0-.3.3-.3.3v.2c0,0-.3.1-.3.1l-.3.2h-.2c0,0-.3,0-.3,0h-.9c0,0-.2-.3-.2-.3h-.2c0-.1-.2-.3-.2-.3v-.3c-.1,0-.2-.3-.2-.3v-.2M168.2,244.8h0v.5c0,0-.3.3-.3.3v.2c-.1,0-.3.1-.3.1l-.3.2h-.2c0,0-.3,0-.3,0h-.9c0,0-.2-.3-.2-.3h-.2c0-.1-.2-.3-.2-.3v-.3c0,0-.2-.3-.2-.3v-.2M146.6,244.8h0v.5c-.1,0-.3.3-.3.3v.2c0,0-.3.1-.3.1l-.3.2h-.2c0,0-.3,0-.3,0h-.9c0,0-.2-.3-.2-.3h-.2c0-.1-.2-.3-.2-.3v-.3c0,0-.2-.3-.2-.3v-.2M137.6,232.7h-.1M173.7,232.7h0M214.4,229v.3c-.1,0-.1.1-.1.1M209.6,229.4h0c0-.1-.1-.4-.1-.4M102.2,229v.3c0,0,0,.1,0,.1M97.4,229.4h-.1v-.4M60.2,223.6h0v.6c0,0-.3.2-.3.2v.3c-.1,0-.3,0-.3,0l-.3.2h-.2c0,.1-.3.1-.3.1h-.9c0-.1-.2-.3-.2-.3h-.2c0,0-.2-.4-.2-.4v-.2c0,0-.2-.3-.2-.3v-.2h0M125,223.6h0v.6c0,0-.3.2-.3.2v.3c0,0-.3,0-.3,0l-.3.2h-.2c0,.1-.3.1-.3.1h-.9c0-.1-.2-.3-.2-.3h-.2c0,0-.2-.4-.2-.4v-.2c-.1,0-.2-.3-.2-.3v-.2h0M38.6,223.6h0v.6c-.1,0-.3.2-.3.2v.3c0,0-.3,0-.3,0l-.3.2h-.2c0,.1-.3.1-.3.1h-.9c0-.1-.2-.3-.2-.3h-.2c0,0-.2-.4-.2-.4v-.2c0,0-.2-.3-.2-.3v-.2h0M276.2,223.6h0v.6c0,0-.3.2-.3.2v.3c-.1,0-.3,0-.3,0l-.3.2h-.2c0,.1-.3.1-.3.1h-.9c0-.1-.2-.3-.2-.3h-.2c0,0-.2-.4-.2-.4v-.2c0,0-.2-.3-.2-.3v-.2h0M254.6,223.6h0v.6c-.1,0-.3.2-.3.2v.3c0,0-.3,0-.3,0l-.3.2h-.2c0,.1-.3.1-.3.1h-.9c0-.1-.2-.3-.2-.3h-.2c0,0-.2-.4-.2-.4v-.2c0,0-.2-.3-.2-.3v-.2h0M81.8,223.6h0v.6c0,0-.3.2-.3.2v.3c0,0-.3,0-.3,0l-.3.2h-.2c0,.1-.3.1-.3.1h-.9c0-.1-.2-.3-.2-.3h-.2c0,0-.2-.4-.2-.4v-.2c-.1,0-.2-.3-.2-.3v-.2h0M103.4,223.6h0v.6c-.1,0-.3.2-.3.2v.3c-.1,0-.3,0-.3,0l-.3.2h-.2c0,.1-.3.1-.3.1h-.9c0-.1-.2-.3-.2-.3h-.2c0,0-.2-.4-.2-.4v-.2c0,0-.2-.3-.2-.3v-.2h0M189.8,223.6h0v.6c0,0-.3.2-.3.2v.3c0,0-.3,0-.3,0l-.3.2h-.2c0,.1-.3.1-.3.1h-.9c0-.1-.2-.3-.2-.3h-.2c0,0-.2-.4-.2-.4v-.2c-.1,0-.2-.3-.2-.3v-.2h0M146.6,223.6h0v.6c-.1,0-.3.2-.3.2v.3c0,0-.3,0-.3,0l-.3.2h-.2c0,.1-.3.1-.3.1h-.9c0-.1-.2-.3-.2-.3h-.2c0,0-.2-.4-.2-.4v-.2c0,0-.2-.3-.2-.3v-.2h0M168.2,223.6h0v.6c0,0-.3.2-.3.2v.3c-.1,0-.3,0-.3,0l-.3.2h-.2c0,.1-.3.1-.3.1h-.9c0-.1-.2-.3-.2-.3h-.2c0,0-.2-.4-.2-.4v-.2c0,0-.2-.3-.2-.3v-.2h0M211.4,223.6h0v.6c-.1,0-.3.2-.3.2v.3c-.1,0-.3,0-.3,0l-.3.2h-.2c0,.1-.3.1-.3.1h-.9c0-.1-.2-.3-.2-.3h-.2c0,0-.2-.4-.2-.4v-.2c0,0-.2-.3-.2-.3v-.2h0M233,223.6h0v.6c0,0-.3.2-.3.2v.3c0,0-.3,0-.3,0l-.3.2h-.2c0,.1-.3.1-.3.1h-.9c0-.1-.2-.3-.2-.3h-.2c0,0-.2-.4-.2-.4v-.2c-.1,0-.2-.3-.2-.3v-.2h0M283.3,209.9h0M288.4,209.7h0M290.3,209.9h0M281.7,209.9h0M287.3,209.5h0M287.1,209.5h0M279.9,209.9h0M282,209.9h0M270.1,209.9h0M270.3,209.4h0M271,209.4h0M271.2,209.9h0M276.9,209.4h0M277.1,209.9h0M275.9,209.9h0M276.1,209.4h0M288.4,209.6h0M289.9,209.8h0M282.9,209.8h0M283.8,209.8h0M290.8,209.8h0M289.9,209.8h0c0,0-.1-.2-.1-.2h0M290.3,209.9h-.4M290.8,209.7h0c0,0,0,.2,0,.2h-.3M290.9,209.3h0v.3h-.1M279.9,209.9h-.2M280,209.4v.2c0,0,0,.2,0,.2h0M275.9,209.9h-.2M276.1,209.4l-.2.5M276.9,209.4h-.8M277.1,209.9l-.2-.5M277.3,209.9h-.2M275.3,209.9h-1.4M273.3,209.9h-1.3M287.1,209.5h-.8M287.3,209.9h-.2M287.6,209.5h-.3M284.8,209.9h-.3M286,209.9h-.3M270.1,209.9h-.3M270.3,209.4l-.2.5M271,209.4h-.7M271.2,209.9l-.2-.5M271.5,209.9h-.3M278.6,209.9h-.2M272.2,209.1h0M273.2,209.1h-1M274.2,209.1h0M275.2,209.1h-1M281.7,209.9h-.3c0-.1-.1-.2-.1-.2M282,209.8h0c0,.1-.1.1-.1.1h0M282.2,209.5h0c0,.1,0,.3,0,.3h-.1M290,209.1h-.2M283.7,209.4h0M282.9,209.8h0c0,0-.1-.2-.1-.2h0M283.3,209.9h-.4M283.8,209.8h-.3c0,.1-.2.1-.2.1M283.9,209.4h0v.4M283.7,209.4h0v-.2h0M282.3,209v.3h0v.2M282.2,209.6h0M283.4,209h-.2M285.7,209.9l-.6-.9M285.7,209.9h0M285.1,209l-.3.3M284.8,209.3h0M285.1,209.1h0M289.2,209.9h-1.2M288.4,209.6h0M288.7,209.4h-.2c0,0,0,.2,0,.2M289,209v.2c0,0-.2,0-.2,0h0M283.6,209.1h-.2M283.4,209.1h0M283.6,209.2h0M290.7,209.3h0v-.2h0M290.7,209.4h0M290.1,209h-.1M290,209.1h0M290.3,208.9h-.2M290.1,209h0M290.6,209h-.2c0,0-.1,0-.1,0M290.3,209h0M290.6,209.1h0M280.3,208.8v.2c0,0-.2.2-.2.2v.2M280,209.5h0M281.3,209.7v-.2c0,0-.2-.2-.2-.2v-.3M281.3,209.8h0M289.2,208.8h0v.2h-.1M289,209.1h0M283.8,208.8h0c0,.1,0,.1,0,.1M283.6,209h0M270.8,208.7v.5M270.9,209.2h0M276.6,208.7l.2.5M276.8,209.2h0M276.2,209.2l.2-.5M276.2,209.2h0M270.3,209.2l.2-.5M270.3,209.2h0M278.1,208.7h-.1c0,0,0,0,0,0M288.3,208.7h-.2M283,208.6h-.2M289.2,208.6h0v.2M289.2,208.9h0M283.9,208.6h-.1v.2M283.8,208.8h0M278.4,208.5h-.1c0,.1,0,.1,0,.1h0M278.1,208.7h0M278.4,208.6h0M287.1,209.3h-.6M287.1,208.5v.8M286.5,209.3l.6-.8M286.5,209.3h0M286.5,209.3l.6-.8M287.1,208.5h0M280.3,208.4h-.9M280.3,208.4h0M290.9,208.4h-.8M290.1,208.4v.4M290,208.9h0M290.1,208.4h0M281.9,208.5v.2c0,0,0,0,0,0v.2M282,209h0M275.2,208.3h-1M274.2,208.4h0M273.3,208.3h-1.1M272.2,208.4h0M289,208.6h0c0-.1,0-.2,0-.2M289,208.7h0M280.6,208.3v.2c-.1,0-.2.1-.2.1v.2M280.3,208.9h0M276.5,208.3h0c0,.1.1.2.1.2v.2M270.6,208.3h0v.4M276.6,208.7l.2.5M276.5,208.4h0c0,0,.1.2.1.2h0M276.2,209.2l.2-.5M276.8,209.2h-.6M270.5,208.7h.1v-.3h0M270.5,208.7h0M270.6,208.3h0M276.4,208.7h0c0,0,0-.3,0-.3h0M276.4,208.7h0M276.4,208.7h0c0,0,0-.2,0-.2h0M276.5,208.3h0M270.8,208.7v.5M270.6,208.4h0v.2h0M270.5,208.7h.1v-.2h0M270.3,209.2l.2-.5M270.9,209.2h-.6M288.4,208.4h0c0,0-.1.2-.1.2h0M288.3,208.7h0M281.3,209v-.2h.1v-.4M283.1,208.4h0c0,0-.1.2-.1.2M283,208.7h0M283.6,208.6h0v-.2M283.6,208.6h0M283.3,208.3h-.2M283.1,208.4h0M288.9,208.4h-.1c0-.1,0-.1,0-.1M288.9,208.4h0M281.4,208.4h.2c0-.1,0-.1,0-.1M281.4,208.4h0M288.7,208.3h-.2c0,.1,0,.1,0,.1M288.4,208.5h0M288.7,208.4h0M283.6,208.4h-.1c0-.1,0-.1,0-.1h-.1M283.3,208.4h0M283.6,208.4h0M281.9,208.5v.2c0,0,0,.2,0,.2v.2M281.4,208.5h0c0,0,.1,0,.1,0h0M281.3,209.1v-.4c.1,0,.1-.2.1-.2M281.4,209.7v-.3c-.1,0-.1-.1-.1-.1v-.2M281.7,209.8h-.2c0,0,0,0,0,0M281.9,209.7h-.1c0,0,0,0,0,0M282,209.1v.2h0c0,.1,0,.4,0,.4M281.7,208.3h0c0,.1.1.2.1.2M281.7,208.3h0M281.7,208.4h.2M281.9,208.5h0M285.9,208.2l-.7.7M285.2,208.9h0M282.7,285l17.5-82.1M11.5,202.9l17.4,82.1M163,293.2h.6c0,0,.3.2.3.2l.3.2.2.2.2.2v.3c0,0,.2.3.2.3v.8l-.2.3v.3c-.1,0-.3.2-.3.2l-.3.2h-.2c0,0-.3.2-.3.2h-.3c0,0-.3,0-.3,0h-.3c0,0-.3-.2-.3-.2h-.3c0,0-.2-.3-.2-.3l-.2-.2-.2-.3v-.3c-.1,0-.2-.2-.2-.2v-.6c0,0,.2-.3.2-.3v-.3c0,0,.3-.2.3-.2l.2-.2.3-.2h.2c0-.1.3-.2.3-.2h.3M148.6,293.2h.6c0,0,.3.2.3.2l.3.2.2.2.2.2v.3c0,0,.2.3.2.3v.8l-.2.3v.3c0,0-.3.2-.3.2l-.3.2h-.2c0,0-.3.2-.3.2h-.3c0,0-.3,0-.3,0h-.3c0,0-.3-.2-.3-.2h-.3c0,0-.2-.3-.2-.3l-.2-.2-.2-.3v-.3c0,0-.2-.2-.2-.2v-.6c.1,0,.2-.3.2-.3v-.3c.1,0,.3-.2.3-.2l.2-.2.3-.2h.2c0-.1.3-.2.3-.2h.3M271.2,209.9l-.2-.5M271,209.4h-.7M270.3,209.4l-.2.5M270.1,209.9h-.3M269.8,209.9l.7-1.7M270.5,208.2h.3M270.8,208.2l.7,1.7M271.5,209.9h-.3M274.2,209.1v.6M274.2,209.7h1.1M275.3,209.7v.2M275.3,209.9h-1.4M273.9,209.9v-1.7M273.9,208.2h1.3M275.2,208.2v.2M275.2,208.4h-1M274.2,208.4v.5M274.2,208.9h1M275.2,208.9v.2M275.2,209.1h-1M277.9,208.6h.2c0-.1,0-.2,0-.2M278.2,208.4h0c0-.1.1-.1.1-.1h0M278.4,208.2h.2M278.6,208.2v1.7M278.6,209.9h-.2M278.4,209.9v-1.3M278.4,208.6h-.2c0,0,0,0,0,0M278.1,208.7h-.1c0,0,0,0,0,0M277.9,208.8v-.2M290.9,209.4h0v.4M290.8,209.8h0c0,.1,0,.1,0,.1h-.3M290.3,210h-.2c0,0-.2-.2-.2-.2M289.9,209.8h0v-.2c-.1,0-.1-.1-.1-.1M289.8,209.5h.2M290,209.5h0c0,.1.1.2.1.2M290.1,209.7h0c0,0,0,0,0,0M290.3,209.8h.2c0,0,.1,0,.1,0M290.6,209.7h0v-.2h0M290.7,209.4h0v-.2h0M290.6,209.1h-.1c0-.1,0-.1,0-.1h-.1M290.3,209h-.2M290.1,209h0c0,.1-.1.1-.1.1M290,209.1h-.2M289.8,209.1l.2-.9M290,208.2h.9M290.9,208.2v.2M290.9,208.4h-.8M290.1,208.4v.5M290,208.9h.1c0-.1.2-.1.2-.1h.1M290.4,208.8h.4M290.8,208.9v.2c.1,0,.1,0,.1,0v.2M283.9,209.4h0v.3h-.1M283.8,209.8h0c0,.1-.2.2-.2.2h-.2M283.3,210h-.2c0,0-.2-.2-.2-.2M282.9,209.8h0v-.2c-.1,0-.1-.1-.1-.1M282.8,209.5h.2M283,209.5h0c0,.1.1.2.1.2M283.1,209.7h0c0,0,0,0,0,0M283.3,209.8h.3M283.6,209.7h0v-.2h0M283.7,209.4h0v-.2h0M283.6,209.2h-.1c0,0,0,0,0,0M283.4,209.1h-.2M283.2,209.1v-.2M283.2,208.9h0M283.3,208.9h.2M283.5,208.9h.1v-.2h0M283.6,208.6h0v-.2M283.6,208.4h-.3M283.3,208.4h-.2M283.1,208.4h0c0,0-.1.2-.1.2h0M283,208.7h-.2M282.8,208.6h0c0-.1.1-.2.1-.2h0M283,208.3h.1c0,0,0,0,0,0h0M283.3,208.2h.3M283.6,208.2h0c0,0,0,.2,0,.2M283.8,208.4h0c0,0,.1.2.1.2M283.9,208.6h0c0,0-.1,0-.1,0h0M283.8,208.8h0v.2h0M283.6,209h.2c0,.1.1.1.1.1M283.9,209.1h0v.2h0M287.6,209.3v.2M287.6,209.5h-.3M287.3,209.5v.4M287.3,209.9h-.2M287.1,209.9v-.4M287.1,209.5h-.8M286.3,209.5v-.2M286.3,209.3l.8-1.1M287.1,208.2h.2M287.3,208.2v1.1M287.3,209.3h.3M289,209.1v.2h-.3M288.7,209.4h0c0,0-.1,0-.1,0h0M288.4,209.6h0M288.4,209.7h.8M289.2,209.7v.2M289.2,209.9h-1.2M288,209.9h.1M288.1,209.8h0c0,0,0-.2,0-.2M288.2,209.6h0c0-.1.1-.2.1-.2h0M288.5,209.3h.2c0,0,0-.3,0-.3h.1M288.9,208.9h0v-.2M289,208.7h0v-.2h0M288.9,208.4h-.2M288.7,208.4h-.3M288.4,208.5h-.1v.2M288.3,208.7h-.2M288.1,208.7h0c0,0,0-.3,0-.3h0M288.3,208.3h.2c0,0,.2,0,.2,0M288.7,208.2h.4M289.1,208.3h0v.4M289.2,208.7h0v.2M289.2,208.9h0c0,0-.1.2-.1.2M285.7,209.9l-.6-.8M285.1,209.1l-.3.2M284.8,209.3v.6M284.8,209.9h-.3M284.5,209.9v-1.7M284.5,208.2h.3M284.8,208.2v.9M284.8,209.1l.9-.9M285.7,208.2h.3M286,208.2l-.8.7M285.2,208.9l.8,1M286,209.9h-.3M282.2,209.6h0c0,0,0,.2,0,.2h-.1M282,209.9h-.2c0,0,0,0,0,0M281.7,210h-.2c0,0,0,0,0,0h-.1M281.3,209.8v-.2c0,0-.2-.3-.2-.3v-.2M281.1,209.1v-.4h0M281.2,208.6h0c0-.1,0-.3,0-.3h.1M281.4,208.3h0c0,0,.1,0,.1,0h0M281.7,208.2h.2M281.9,208.2h0c0,0,.1.2.1.2M282.1,208.4h0v.2h0M282.2,208.7h0c0,0,0,.2,0,.2v.2M282.3,209.1v.2h0v.3M279.7,209.9v-.2h0c0,0,0-.3,0-.3M279.8,209.4v-.2h.1c0,0,0-.3,0-.3M280,208.9v-.2c.1,0,.2,0,.2,0v-.2M280.3,208.4h-.9M279.4,208.4v-.2M279.4,208.2h1.2M280.6,208.2v.2M280.6,208.4h-.1c0,0,0,.3,0,.3v.2M280.3,208.9h0c0,0,0,.4,0,.4v.2M280,209.5v.2c0,0,0,0,0,0h0M279.9,209.9h-.2M277.1,209.9l-.2-.5M276.9,209.4h-.8M276.1,209.4l-.2.5M275.9,209.9h-.2M275.7,209.9l.7-1.7M276.4,208.2h.2M276.6,208.2l.8,1.7M277.4,209.9h-.3M272.2,209.1v.6M272.2,209.7h1.1M273.3,209.7v.2M273.3,209.9h-1.3M272,209.9v-1.7M272,208.2h1.3M273.3,208.2v.2M273.3,208.4h-1.1M272.2,208.4v.5M272.2,208.9h1M273.2,208.9v.2M273.2,209.1h-1M137.5,230.6h36.2M173.7,230.6v2.9M173.7,233.5h-36.2M137.5,233.5v-2.9M210,230.9v-.2c0,0-.3-.3-.3-.3v-.3c0,0-.2-.3-.2-.3v-1.1c.1,0,.2-.3.2-.3l.2-.3.2-.3.2-.2.3-.2.3-.2h.3c0,0,.4-.2.4-.2h1c0,.1.4.2.4.2l.3.2.3.2.2.2.2.3.2.3v.3c0,0,.2.4.2.4v1c-.1,0-.2.3-.2.3l-.2.3v.2M97.7,230.9v-.2c0,0-.2-.3-.2-.3l-.2-.3v-.7c0,0,0-.3,0-.3v-.4l.2-.3v-.3c.1,0,.4-.3.4-.3l.2-.2.3-.2.3-.2h.3c0,0,.4-.2.4-.2h1c0,.1.3.2.3.2l.4.2.2.2.3.2.2.3.2.3v.3c.1,0,.2.4.2.4v1c0,0-.2.3-.2.3l-.2.3v.2M253,243.3h.6c0,.1.2.2.2.2h.3c0,.1.2.3.2.3v.3c.1,0,.2.2.2.2v.3c.1,0,.1.3.1.3v.5c-.1,0-.3.2-.3.2v.3c0,0-.3,0-.3,0l-.3.2h-.2c0,0-.3,0-.3,0h-.9c0,0-.2-.3-.2-.3h-.2c0,0-.2-.4-.2-.4v-.2c0,0-.2-.3-.2-.3v-1c.1,0,.3-.3.3-.3l.2-.2h.2c0-.1.3-.2.3-.2h.3c0-.1.2-.1.2-.1M231.4,264.4h.6c0,0,.2.2.2.2h.3c0,0,.2.3.2.3v.3c0,0,.2.2.2.2v.3c0,0,0,.3,0,.3v.5c0,0-.3.3-.3.3v.2c0,0-.3.2-.3.2h-.3c0,0-.2.2-.2.2h-1.2c0-.1-.2-.2-.2-.2l-.2-.2-.2-.2v-.3c-.1,0-.2-.3-.2-.3v-1c0,0,.3-.3.3-.3l.2-.2h.2c0,0,.3-.2.3-.2h.3c0,0,.2,0,.2,0M231.4,243.3h.6c0,.1.2.2.2.2h.3c0,.1.2.3.2.3v.3c0,0,.2.2.2.2v.3c0,0,0,.3,0,.3v.5c0,0-.3.2-.3.2v.3c0,0-.3,0-.3,0l-.3.2h-.2c0,0-.3,0-.3,0h-.9c0,0-.2-.3-.2-.3h-.2c0,0-.2-.4-.2-.4v-.2c-.1,0-.2-.3-.2-.3v-1c0,0,.3-.3.3-.3l.2-.2h.2c0-.1.3-.2.3-.2h.3c0-.1.2-.1.2-.1M274.6,243.3h.6c0,.1.2.2.2.2h.3c0,.1.2.3.2.3v.3c0,0,.2.2.2.2v.3c0,0,0,.3,0,.3v.5c0,0-.3.2-.3.2v.3c-.1,0-.3,0-.3,0l-.3.2h-.2c0,0-.3,0-.3,0h-.9c0,0-.2-.3-.2-.3h-.2c0,0-.2-.4-.2-.4v-.2c0,0-.2-.3-.2-.3v-1c0,0,.3-.3.3-.3l.2-.2h.2c0-.1.3-.2.3-.2h.3c0-.1.2-.1.2-.1M145,243.3h.6c0,.1.2.2.2.2h.3c0,.1.2.3.2.3v.3c.1,0,.2.2.2.2v.3c.1,0,.1.3.1.3v.5c-.1,0-.3.2-.3.2v.3c0,0-.3,0-.3,0l-.3.2h-.2c0,0-.3,0-.3,0h-.9c0,0-.2-.3-.2-.3h-.2c0,0-.2-.4-.2-.4v-.2c0,0-.2-.3-.2-.3v-1c.1,0,.3-.3.3-.3l.2-.2h.2c0-.1.3-.2.3-.2h.3c0-.1.2-.1.2-.1M166.6,264.4h.6c0,0,.2.2.2.2h.3c0,0,.2.3.2.3v.3c0,0,.2.2.2.2v.3c0,0,0,.3,0,.3v.5c0,0-.3.3-.3.3v.2c-.1,0-.3.2-.3.2h-.3c0,0-.2.2-.2.2h-1.2c0-.1-.2-.2-.2-.2l-.2-.2-.2-.2v-.3c0,0-.2-.3-.2-.3v-1c0,0,.3-.3.3-.3l.2-.2h.2c0,0,.3-.2.3-.2h.3c0,0,.2,0,.2,0M145,264.4h.6c0,0,.2.2.2.2h.3c0,0,.2.3.2.3v.3c.1,0,.2.2.2.2v.3c.1,0,.1.3.1.3v.5c-.1,0-.3.3-.3.3v.2c0,0-.3.2-.3.2h-.3c0,0-.2.2-.2.2h-1.2c0-.1-.2-.2-.2-.2l-.2-.2-.2-.2v-.3c0,0-.2-.3-.2-.3v-1c.1,0,.3-.3.3-.3l.2-.2h.2c0,0,.3-.2.3-.2h.3c0,0,.2,0,.2,0M58.6,264.4h.6c0,0,.2.2.2.2h.3c0,0,.2.3.2.3v.3c0,0,.2.2.2.2v.3c0,0,0,.3,0,.3v.5c0,0-.3.3-.3.3v.2c-.1,0-.3.2-.3.2h-.3c0,0-.2.2-.2.2h-1.2c0-.1-.2-.2-.2-.2l-.2-.2-.2-.2v-.3c0,0-.2-.3-.2-.3v-1c0,0,.3-.3.3-.3l.2-.2h.2c0,0,.3-.2.3-.2h.3c0,0,.2,0,.2,0M37,222.2h.6c0,0,.2.2.2.2h.3c0,0,.2.3.2.3v.3c.1,0,.2.2.2.2v.3c.1,0,.1.3.1.3v.5c-.1,0-.3.2-.3.2v.3c0,0-.3.1-.3.1l-.3.2h-.2c0,0-.3,0-.3,0h-.9c0,0-.2-.3-.2-.3h-.2c0-.1-.2-.4-.2-.4v-.2c0,0-.2-.3-.2-.3v-1c.1,0,.3-.3.3-.3l.2-.2h.2c0,0,.3-.2.3-.2h.3c0,0,.2,0,.2,0M58.6,222.2h.6c0,0,.2.2.2.2h.3c0,0,.2.3.2.3v.3c0,0,.2.2.2.2v.3c0,0,0,.3,0,.3v.5c0,0-.3.2-.3.2v.3c-.1,0-.3.1-.3.1l-.3.2h-.2c0,0-.3,0-.3,0h-.9c0,0-.2-.3-.2-.3h-.2c0-.1-.2-.4-.2-.4v-.2c0,0-.2-.3-.2-.3v-1c0,0,.3-.3.3-.3l.2-.2h.2c0,0,.3-.2.3-.2h.3c0,0,.2,0,.2,0M80.2,264.4h.6c0,0,.2.2.2.2h.3c0,0,.2.3.2.3v.3c.1,0,.2.2.2.2v.3c0,0,0,.3,0,.3v.5c0,0-.3.3-.3.3v.2c0,0-.3.2-.3.2h-.3c0,0-.2.2-.2.2h-1.2c0-.1-.2-.2-.2-.2l-.2-.2-.2-.2v-.3c-.1,0-.2-.3-.2-.3v-1c0,0,.3-.3.3-.3l.2-.2h.2c0,0,.3-.2.3-.2h.3c0,0,.2,0,.2,0M123.4,264.4h.6c0,0,.2.2.2.2h.3c0,0,.2.3.2.3v.3c0,0,.2.2.2.2v.3c0,0,0,.3,0,.3v.5c0,0-.3.3-.3.3v.2c0,0-.3.2-.3.2h-.3c0,0-.2.2-.2.2h-1.2c0-.1-.2-.2-.2-.2l-.2-.2-.2-.2v-.3c-.1,0-.2-.3-.2-.3v-1c0,0,.3-.3.3-.3l.2-.2h.2c0,0,.3-.2.3-.2h.3c0,0,.2,0,.2,0M166.6,243.3h.6c0,.1.2.2.2.2h.3c0,.1.2.3.2.3v.3c0,0,.2.2.2.2v.3c0,0,0,.3,0,.3v.5c0,0-.3.2-.3.2v.3c-.1,0-.3,0-.3,0l-.3.2h-.2c0,0-.3,0-.3,0h-.9c0,0-.2-.3-.2-.3h-.2c0,0-.2-.4-.2-.4v-.2c0,0-.2-.3-.2-.3v-1c0,0,.3-.3.3-.3l.2-.2h.2c0-.1.3-.2.3-.2h.3c0-.1.2-.1.2-.1M123.4,243.3h.6c0,.1.2.2.2.2h.3c0,.1.2.3.2.3v.3c0,0,.2.2.2.2v.3c0,0,0,.3,0,.3v.5c0,0-.3.2-.3.2v.3c0,0-.3,0-.3,0l-.3.2h-.2c0,0-.3,0-.3,0h-.9c0,0-.2-.3-.2-.3h-.2c0,0-.2-.4-.2-.4v-.2c-.1,0-.2-.3-.2-.3v-1c0,0,.3-.3.3-.3l.2-.2h.2c0-.1.3-.2.3-.2h.3c0-.1.2-.1.2-.1M231.4,222.2h.6c0,0,.2.2.2.2h.3c0,0,.2.3.2.3v.3c0,0,.2.2.2.2v.3c0,0,0,.3,0,.3v.5c0,0-.3.2-.3.2v.3c0,0-.3.1-.3.1l-.3.2h-.2c0,0-.3,0-.3,0h-.9c0,0-.2-.3-.2-.3h-.2c0-.1-.2-.4-.2-.4v-.2c-.1,0-.2-.3-.2-.3v-1c0,0,.3-.3.3-.3l.2-.2h.2c0,0,.3-.2.3-.2h.3c0,0,.2,0,.2,0M209.8,243.3h.6c0,.1.2.2.2.2h.3c0,.1.2.3.2.3v.3c0,0,.2.2.2.2v.3c.1,0,.1.3.1.3v.5c-.1,0-.3.2-.3.2v.3c-.1,0-.3,0-.3,0l-.3.2h-.2c0,0-.3,0-.3,0h-.9c0,0-.2-.3-.2-.3h-.2c0,0-.2-.4-.2-.4v-.2c0,0-.2-.3-.2-.3v-1c.1,0,.3-.3.3-.3l.2-.2h.2c0-.1.3-.2.3-.2h.3c0-.1.2-.1.2-.1M253,264.4h.6c0,0,.2.2.2.2h.3c0,0,.2.3.2.3v.3c.1,0,.2.2.2.2v.3c.1,0,.1.3.1.3v.5c-.1,0-.3.3-.3.3v.2c0,0-.3.2-.3.2h-.3c0,0-.2.2-.2.2h-1.2c0-.1-.2-.2-.2-.2l-.2-.2-.2-.2v-.3c0,0-.2-.3-.2-.3v-1c.1,0,.3-.3.3-.3l.2-.2h.2c0,0,.3-.2.3-.2h.3c0,0,.2,0,.2,0M188.2,222.2h.6c0,0,.2.2.2.2h.3c0,0,.2.3.2.3v.3c.1,0,.2.2.2.2v.3c0,0,0,.3,0,.3v.5c0,0-.3.2-.3.2v.3c0,0-.3.1-.3.1l-.3.2h-.2c0,0-.3,0-.3,0h-.9c0,0-.2-.3-.2-.3h-.2c0-.1-.2-.4-.2-.4v-.2c-.1,0-.2-.3-.2-.3v-1c0,0,.3-.3.3-.3l.2-.2h.2c0,0,.3-.2.3-.2h.3c0,0,.2,0,.2,0M253,222.2h.6c0,0,.2.2.2.2h.3c0,0,.2.3.2.3v.3c.1,0,.2.2.2.2v.3c.1,0,.1.3.1.3v.5c-.1,0-.3.2-.3.2v.3c0,0-.3.1-.3.1l-.3.2h-.2c0,0-.3,0-.3,0h-.9c0,0-.2-.3-.2-.3h-.2c0-.1-.2-.4-.2-.4v-.2c0,0-.2-.3-.2-.3v-1c.1,0,.3-.3.3-.3l.2-.2h.2c0,0,.3-.2.3-.2h.3c0,0,.2,0,.2,0M188.2,264.4h.6c0,0,.2.2.2.2h.3c0,0,.2.3.2.3v.3c.1,0,.2.2.2.2v.3c0,0,0,.3,0,.3v.5c0,0-.3.3-.3.3v.2c0,0-.3.2-.3.2h-.3c0,0-.2.2-.2.2h-1.2c0-.1-.2-.2-.2-.2l-.2-.2-.2-.2v-.3c-.1,0-.2-.3-.2-.3v-1c0,0,.3-.3.3-.3l.2-.2h.2c0,0,.3-.2.3-.2h.3c0,0,.2,0,.2,0M274.6,222.2h.6c0,0,.2.2.2.2h.3c0,0,.2.3.2.3v.3c0,0,.2.2.2.2v.3c0,0,0,.3,0,.3v.5c0,0-.3.2-.3.2v.3c-.1,0-.3.1-.3.1l-.3.2h-.2c0,0-.3,0-.3,0h-.9c0,0-.2-.3-.2-.3h-.2c0-.1-.2-.4-.2-.4v-.2c0,0-.2-.3-.2-.3v-1c0,0,.3-.3.3-.3l.2-.2h.2c0,0,.3-.2.3-.2h.3c0,0,.2,0,.2,0M101.8,222.2h.6c0,0,.2.2.2.2h.3c0,0,.2.3.2.3v.3c0,0,.2.2.2.2v.3c.1,0,.1.3.1.3v.5c-.1,0-.3.2-.3.2v.3c-.1,0-.3.1-.3.1l-.3.2h-.2c0,0-.3,0-.3,0h-.9c0,0-.2-.3-.2-.3h-.2c0-.1-.2-.4-.2-.4v-.2c0,0-.2-.3-.2-.3v-1c.1,0,.3-.3.3-.3l.2-.2h.2c0,0,.3-.2.3-.2h.3c0,0,.2,0,.2,0M166.6,222.2h.6c0,0,.2.2.2.2h.3c0,0,.2.3.2.3v.3c0,0,.2.2.2.2v.3c0,0,0,.3,0,.3v.5c0,0-.3.2-.3.2v.3c-.1,0-.3.1-.3.1l-.3.2h-.2c0,0-.3,0-.3,0h-.9c0,0-.2-.3-.2-.3h-.2c0-.1-.2-.4-.2-.4v-.2c0,0-.2-.3-.2-.3v-1c0,0,.3-.3.3-.3l.2-.2h.2c0,0,.3-.2.3-.2h.3c0,0,.2,0,.2,0M101.8,264.4h.6c0,0,.2.2.2.2h.3c0,0,.2.3.2.3v.3c0,0,.2.2.2.2v.3c.1,0,.1.3.1.3v.5c-.1,0-.3.3-.3.3v.2c-.1,0-.3.2-.3.2h-.3c0,0-.2.2-.2.2h-1.2c0-.1-.2-.2-.2-.2l-.2-.2-.2-.2v-.3c0,0-.2-.3-.2-.3v-1c.1,0,.3-.3.3-.3l.2-.2h.2c0,0,.3-.2.3-.2h.3c0,0,.2,0,.2,0M37,243.3h.6c0,.1.2.2.2.2h.3c0,.1.2.3.2.3v.3c.1,0,.2.2.2.2v.3c.1,0,.1.3.1.3v.5c-.1,0-.3.2-.3.2v.3c0,0-.3,0-.3,0l-.3.2h-.2c0,0-.3,0-.3,0h-.9c0,0-.2-.3-.2-.3h-.2c0,0-.2-.4-.2-.4v-.2c0,0-.2-.3-.2-.3v-1c.1,0,.3-.3.3-.3l.2-.2h.2c0-.1.3-.2.3-.2h.3c0-.1.2-.1.2-.1M80.2,243.3h.6c0,.1.2.2.2.2h.3c0,.1.2.3.2.3v.3c.1,0,.2.2.2.2v.3c0,0,0,.3,0,.3v.5c0,0-.3.2-.3.2v.3c0,0-.3,0-.3,0l-.3.2h-.2c0,0-.3,0-.3,0h-.9c0,0-.2-.3-.2-.3h-.2c0,0-.2-.4-.2-.4v-.2c-.1,0-.2-.3-.2-.3v-1c0,0,.3-.3.3-.3l.2-.2h.2c0-.1.3-.2.3-.2h.3c0-.1.2-.1.2-.1M80.2,222.2h.6c0,0,.2.2.2.2h.3c0,0,.2.3.2.3v.3c.1,0,.2.2.2.2v.3c0,0,0,.3,0,.3v.5c0,0-.3.2-.3.2v.3c0,0-.3.1-.3.1l-.3.2h-.2c0,0-.3,0-.3,0h-.9c0,0-.2-.3-.2-.3h-.2c0-.1-.2-.4-.2-.4v-.2c-.1,0-.2-.3-.2-.3v-1c0,0,.3-.3.3-.3l.2-.2h.2c0,0,.3-.2.3-.2h.3c0,0,.2,0,.2,0M58.6,243.3h.6c0,.1.2.2.2.2h.3c0,.1.2.3.2.3v.3c0,0,.2.2.2.2v.3c0,0,0,.3,0,.3v.5c0,0-.3.2-.3.2v.3c-.1,0-.3,0-.3,0l-.3.2h-.2c0,0-.3,0-.3,0h-.9c0,0-.2-.3-.2-.3h-.2c0,0-.2-.4-.2-.4v-.2c0,0-.2-.3-.2-.3v-1c0,0,.3-.3.3-.3l.2-.2h.2c0-.1.3-.2.3-.2h.3c0-.1.2-.1.2-.1M101.8,243.3h.6c0,.1.2.2.2.2h.3c0,.1.2.3.2.3v.3c0,0,.2.2.2.2v.3c.1,0,.1.3.1.3v.5c-.1,0-.3.2-.3.2v.3c-.1,0-.3,0-.3,0l-.3.2h-.2c0,0-.3,0-.3,0h-.9c0,0-.2-.3-.2-.3h-.2c0,0-.2-.4-.2-.4v-.2c0,0-.2-.3-.2-.3v-1c.1,0,.3-.3.3-.3l.2-.2h.2c0-.1.3-.2.3-.2h.3c0-.1.2-.1.2-.1M123.4,222.2h.6c0,0,.2.2.2.2h.3c0,0,.2.3.2.3v.3c0,0,.2.2.2.2v.3c0,0,0,.3,0,.3v.5c0,0-.3.2-.3.2v.3c0,0-.3.1-.3.1l-.3.2h-.2c0,0-.3,0-.3,0h-.9c0,0-.2-.3-.2-.3h-.2c0-.1-.2-.4-.2-.4v-.2c-.1,0-.2-.3-.2-.3v-1c0,0,.3-.3.3-.3l.2-.2h.2c0,0,.3-.2.3-.2h.3c0,0,.2,0,.2,0M145,222.2h.6c0,0,.2.2.2.2h.3c0,0,.2.3.2.3v.3c.1,0,.2.2.2.2v.3c.1,0,.1.3.1.3v.5c-.1,0-.3.2-.3.2v.3c0,0-.3.1-.3.1l-.3.2h-.2c0,0-.3,0-.3,0h-.9c0,0-.2-.3-.2-.3h-.2c0-.1-.2-.4-.2-.4v-.2c0,0-.2-.3-.2-.3v-1c.1,0,.3-.3.3-.3l.2-.2h.2c0,0,.3-.2.3-.2h.3c0,0,.2,0,.2,0M209.8,222.2h.6c0,0,.2.2.2.2h.3c0,0,.2.3.2.3v.3c0,0,.2.2.2.2v.3c.1,0,.1.3.1.3v.5c-.1,0-.3.2-.3.2v.3c-.1,0-.3.1-.3.1l-.3.2h-.2c0,0-.3,0-.3,0h-.9c0,0-.2-.3-.2-.3h-.2c0-.1-.2-.4-.2-.4v-.2c0,0-.2-.3-.2-.3v-1c.1,0,.3-.3.3-.3l.2-.2h.2c0,0,.3-.2.3-.2h.3c0,0,.2,0,.2,0M188.2,243.3h.6c0,.1.2.2.2.2h.3c0,.1.2.3.2.3v.3c.1,0,.2.2.2.2v.3c0,0,0,.3,0,.3v.5c0,0-.3.2-.3.2v.3c0,0-.3,0-.3,0l-.3.2h-.2c0,0-.3,0-.3,0h-.9c0,0-.2-.3-.2-.3h-.2c0,0-.2-.4-.2-.4v-.2c-.1,0-.2-.3-.2-.3v-1c0,0,.3-.3.3-.3l.2-.2h.2c0-.1.3-.2.3-.2h.3c0-.1.2-.1.2-.1M209.8,264.4h-.5c0,0-.3.2-.3.2h-.2c0,0-.2.3-.2.3l-.2.3v.2c-.1,0-.1.3-.1.3v.8c.1,0,.2.3.2.3l.2.2.2.2h.2c0,0,.3.2.3.2h1.1c0-.1.3-.2.3-.2l.2-.2v-.2c.1,0,.3-.3.3-.3v-.3c.1,0,.1-.2.1-.2v-.6c-.1,0-.2-.2-.2-.2v-.3c0,0-.3-.2-.3-.2h-.3c0,0-.2-.2-.2-.2h-.3c0,0-.3,0-.3,0M65.2,285.1h.3M81.5,287.8l72.9,12.4M154.4,300.2v-5.7M157.2,294.5h0M154.4,294.5h0M157.3,294.5v5.7M157.3,300.2l72.8-12.4M246.2,285.1h.3M191,215.8h-70.3M93.7,202.5l-.5-.3M93.3,203h-.2M11.5,202.9v-.7M93.1,202.9H11.5M93.1,202.9v-.7M218.5,202.2l-.5.3M218.6,202.9h-.2M218.6,202.9v-.7M300.2,202.9h-81.6M300.2,202.9v-.7M28.9,284.6h-.1v.2h0c0,.1,0,.2,0,.2M65.2,285h0M28.7,285v1.8M65.2,286.8H28.7M65.2,285v1.8M65.2,285H28.7M157.2,302.5h.6M157.3,300.6h0M157.3,300.6l.5,1.8M157.8,302.4h0M160.5,299.8l-3.2.8M157.5,300.6h-.2M157.8,302.4l-.3-1.8M157.8,302.4l88.7-15.6M246.5,286.8l-.3-1.8M246.2,285h0M246.2,285l-88.7,15.6M298.2,213.2v.3c0,0-.2.7-.2.7l-.2.7v.7c0,0-.3.5-.3.5v.5c0,0-.2.4-.2.4v.5c0,0,0,.1,0,.1h0c0-.1,0-.3,0-.3h0M282.9,284.9h0v-.2h-.1M284.7,285.3l17.5-82.3M302.2,203l-1.8-.4M300.4,202.6l-17.5,82.3M282.9,284.9l1.8.4M282.9,285h0v-.2h-.1v-.2M246.5,285h0M282.9,286.8v-1.8M246.5,285h36.4M246.5,286.8v-1.8M246.5,286.8h36.4M10.4,199.5h.2M17.6,199.4h2.9M20.5,199.4h0M20.8,199h3.2M27.3,198.9h-1.4c0-.1-.7-.1-.7-.1h-4.1c0,.1-.3.1-.3.1M24,199h3.3M20.3,196.9h.6c0-.1,1.5-.4,1.5-.4l1.5-.4,1.1-.3,1.3-.3,1-.2M173.6,232.2h0M137.5,232.2h.1M209.6,228.7h0M214.3,228.8h0M102.1,228.7h0M97.4,228.8h-.1M93.2,202.2h.6M137.6,232.7h-.1M173.7,232.7h0M214.4,229v.3c-.1,0-.1.1-.1.1M209.6,229.4h0c0-.1-.1-.4-.1-.4M97.3,229v.3h.1M102.1,229.4h0c0-.1,0-.4,0-.4M217.8,202.2h.6M173.6,231.6h0M137.5,231.6h.1M137.6,232.2h-.1M173.7,232.2h0M214.3,228.7h0M209.6,228.8h0M97.3,228.7h0c0,0,.1,0,.1,0M102.1,228.8h0M157.3,300.2l46.3-7.9M108.1,292.3l46.3,7.9M154.4,300.2h0M157.3,300.2h0M173.6,230.8h0M137.5,230.8h.1M93.2,202.2h.7M217.8,202.2h.7M137.6,231.6h-.1M173.7,231.6h0M65.2,285.1h0M65.3,285.1h.2M138.3,297.6l16.1,2.7M154.4,300.3h0M157.3,300.2h0M157.3,300.3l16.1-2.7M246.2,285.1h0M246.3,285.1h.1M7.5,199.5h-3.6M7.5,202.2h-3.6M99.9,199.5h-6M99.9,200.9v-1.4M93.9,202.2v-2.7M93.9,199.5H7.5M93.9,202.2H7.5M187.4,215.3h-63.1M187.4,215.3h1.4c0,.1.4.1.4.1h.8c0,0,.3.2.3.2h.6c0,0,.2.2.2.2M124.3,215.3h-1.4c0,.1-.4.1-.4.1h-.8c0,0-.3.2-.3.2h-.6c0,0-.2.2-.2.2M191.1,215.8h.2c0,.1.2.2.2.2h.6c0,.1.3.1.3.1h.8c0,0,.4,0,.4,0M120.6,215.8h-.2c0,.1-.2.2-.2.2h-.6c0,.1-.4.1-.4.1h-.7c0,0-.4,0-.4,0M124.3,212.7h63.1M191.1,213.2h-.2c0,0-.3-.2-.3-.2h-.3c0,0-.3,0-.3,0h-.4c0-.1-.4-.1-.4-.1h-.4c0,0-.5,0-.5,0h-.9M193.6,213.5h-1.5c0,0-.3,0-.3,0h-.3c0-.1-.2-.1-.2-.1h-.2M198.2,209.3h-2.1M196.1,209.3h-1.4c0,.1-.3.1-.3.1h-.6c0,0-.3,0-.3,0M193.5,209.5l-5.5,1.2M188,210.7h-.3c0,0-.3,0-.3,0h-.3c0,.1-.3.1-.3.1h-1.4M185.4,210.9h-59.2M126.2,210.9h-2c0-.1-.2-.1-.2-.1h-.3M123.7,210.7l-5.6-1.2M118.1,209.5h-.5c0,0-.3,0-.3,0h-.7c0-.1-.3-.1-.3-.1h-.7M115.6,209.3h-2.1M118.1,213.5h1.5c0,0,.3,0,.3,0h.3c0-.1.2-.1.2-.1h.2M120.6,213.2h.2c0,0,.3-.2.3-.2h.3c0,0,.3,0,.3,0h.4c0-.1.4-.1.4-.1h.4c0,0,.5,0,.5,0h.9M113.5,209.3h0M198.2,209.3h0M113.4,209.3l-12.8-8.5M100.6,200.8l-6,.3M113.5,213.5h4.6M113.4,213.5h0M94.6,201.1l18.8,12.4M94.6,201.1l-1.5,2.2M111.9,215.7l-18.8-12.4M113.5,216.2h-.4c0,0-.2,0-.2,0h-.2c0-.1-.2-.1-.2-.1h-.2c0,0-.2-.2-.2-.2h-.2M118.1,216.2h-4.6M218.6,203.3l-1.6-2.2M193.6,216.2h4.6M198.2,216.2h.4c0,0,.2,0,.2,0h.2c0-.1.2-.1.2-.1h.2c0,0,.2-.2.2-.2h0M199.7,215.7l18.9-12.4M198.2,213.5h0M193.6,213.5h4.6M198.2,213.5l18.8-12.4M217,201.1l-5.9-.3M211.1,200.8l-12.9,8.5M286.1,269l12-55.8M13.5,213.2l12,55.8M29.8,199.5h0M15.1,187.8h0v.4c0,0,0,.2,0,.2v.2c0,0,0,.3,0,.3v.3M11.9,188.5l3.2-.7M16.8,196l-1.4-6.8M17.1,197.2h-.1v-.3h0v-.3h0v-.3h0c0,0-.1-.3-.1-.3M17.6,199.5l-.5-2.3M11.8,187.8h0v.6c.1,0,.1.2.1.2v.3c0,0,.2.3.2.3M8.5,190v-.6c0,0,0-.3,0-.3v-.2c-.1,0-.1-.1-.1-.1v-.2h0M8.2,188.5l3.6-.7M13.5,196l-1.4-6.8M10,196.8l-1.5-6.8M13.8,197.2h0v-.3h0c0-.1,0-.3,0-.3h0v-.3h-.1v-.3M10,196.8h0v.3h.1v.3h0c0,0,0,.3,0,.3h0v.3M13.5,213.2h.2M14.2,199.5l-.4-2.3M11.1,202.2v.4M10.2,198l.4,1.5M18.4,187.8h0v.4c0,0,0,.2,0,.2v.2c.1,0,.1.3.1.3v.3M15.2,188.5l3.2-.7M20.2,196l-1.5-6.8M20.4,197.2h0c0,0-.1-.3-.1-.3h0v-.3h0v-.3h0v-.3M20.9,199.4l-.5-2.2M24.8,199.5h0M21.5,199.5h0M10.4,208.6h.3M6.6,202.9l-.4.2-.3.3-.2.3-.3.4v.4c-.1,0-.3.4-.3.4v.8M10.8,209.3l-.4-.7M10.8,209.3l-.4.3h-.4c0,0-.4.3-.4.3h-.5c0,0-.4,0-.4,0h-1.4c0,0-.5-.3-.5-.3l-.4-.2-.4-.2-.3-.3-.4-.3-.3-.4-.2-.4-.2-.4-.2-.4v-.5c-.1,0-.2-.4-.2-.4v-1.4c0,0,.2-.4.2-.4l.2-.5.2-.4.3-.4.3-.3.3-.3.4-.3M6.1,202.2l.5.7M9.1,202.3h.7M6.6,202.9l-.5.3-.4.5-.3.4-.2.6v.5c0,0-.2.6-.2.6M10.4,208.6v.3M9.1,202.2l1.3,6.4M7.6,202.2l-1,.7M6.6,203.2l1.4-1M6.6,203.2l-.5.3-.4.5-.3.4-.2.6v.5c0,0-.2.6-.2.6v.6c.1,0,.3.6.3.6l.2.5.4.5.4.4.5.3.5.3h.6c0,.1.5.2.5.2h.6l.6-.2.5-.2.3-.2M10.4,208.9l-1.4-6.7M62.4,199.1v.4M91.2,199.1v.4M61,197.3h7.7M61,199.1h7.7M61,199.1v-1.8M84.9,197.3h7.6M84.9,199.1h7.6M92.5,197.3v1.8M68.7,199.1h16.2M68.7,197.3h16.2M281.8,199.5h0M293,189.2v-.6c.1,0,.1-.2.1-.2v-.2c0,0,0-.2,0-.2h0c0,0,0-.2,0-.2M296.4,188.5l-3.1-.7M293,189.2l-1.5,6.8M291.5,196v.2h0c0,0,0,.3,0,.3h0v.3h-.1v.3h0M291.3,197.2l-.5,2.2M296.3,189.2v-.6c.1,0,.2-.2.2-.2v-.4h.1v-.2M299.8,188.5l-3.2-.7M296.3,189.2l-1.5,6.8M294.8,196v.2h0c0,0,0,.3,0,.3h0v.3h0v.3h0M294.6,197.2l-.5,2.3M299.6,189.2v-.3c0,0,0-.3,0-.3v-.2c0,0,0-.2,0-.2v-.2c.1,0,.1,0,.1,0h0M303.4,188.5h0v.3h-.1v.6c0,0,0,.3,0,.3v.3M303.4,188.5l-3.5-.7M299.6,189.2l-1.4,6.8M301.7,196.8l1.4-6.8M298.2,196v.2c0,0,0,0,0,0v.2h-.1v.3h0c0,.1,0,.3,0,.3h0M301.4,198v-.2c0,0,0,0,0,0v-.2h.1v-.3h0v-.3h0M297.9,197.2l-.5,2.3M298,213.1h.2M300.5,202.2v.4M301.4,198l-.3,1.5M286.9,199.5h0M290.2,199.5h0M301,208.6h.3M306.6,205.8h0v-.9c-.1,0-.2-.4-.2-.4l-.2-.4-.2-.4-.3-.3-.3-.3-.3-.2M301.3,208.6l-.4.7M301.9,202.2h.7M305.1,202.9l.5-.7M305.6,202.2l.3.3.4.3.3.3.2.4.3.4v.5c0,0,.3.4.3.4v.9c0,0,0,.5,0,.5v.4c0,0-.2.5-.2.5l-.2.4-.2.4-.3.4-.3.4-.3.3-.4.3-.4.2-.4.2-.4.2h-.5c0,0-.4,0-.4,0h-1.4c0,0-.4-.3-.4-.3h-.5c0,0-.4-.4-.4-.4M306.6,205.8h0v-.7l-.2-.5-.2-.6-.4-.5-.4-.4-.3-.2M301.3,208.6l1.3-6.4M301.3,208.9v-.3M302.7,202.2l-1.4,6.7M305.1,203.2l.5.3.3.5.4.4.2.6v.5c.1,0,.1.6.1.6v.6l-.2.6-.2.5-.4.5-.4.4-.5.3-.5.3h-.6c0,.1-.6.2-.6.2h-.6l-.5-.2-.5-.2-.3-.2M303.7,202.2l1.4,1M305.1,202.9l-1-.7M173.6,230.7h0M137.5,230.7h.1M137.6,230.6v2.5M137.6,233.1h36M173.6,230.6v2.5M184,210.8h0M124,210.8h3.3M127.3,210.8h0M184,210.8h3.7M31.2,199.5h0M280.5,199.5h0M100.4,228.1h-.4c0,0-.3,0-.3,0h-.6c0,0-.1,0-.1,0M99.7,227.9h.6c0,0,.3.2.3.2l.2.2.2.2.2.3v.2c0,0,.2.3.2.3v.9c-.1,0-.2.2-.2.2l-.2.3-.2.2-.2.2h-.3c0,0-.3.2-.3.2h-.9c0,0-.2-.2-.2-.2l-.3-.2-.2-.2-.2-.3v-.2c0,0-.2-.3-.2-.3v-.9c.1,0,.2-.2.2-.2l.2-.3.2-.2.3-.2h.2c0-.1.3-.2.3-.2h.3M99.7,231.9h.7c0-.1.3-.2.3-.2l.3-.2.3-.2.2-.2.2-.3.2-.3v-.3c0,0,.2-.3.2-.3v-.7c-.1,0-.1-.3-.1-.3l-.2-.4-.2-.2-.2-.3-.2-.2-.3-.2-.3-.2h-.4c0-.1-.3-.1-.3-.1h-1c0,.1-.3.3-.3.3l-.3.2-.3.2-.2.3-.2.2v.4c-.1,0-.2.3-.2.3v1.3c0,0,.3.3.3.3l.2.3.2.2.3.2.3.2h.3c0,0,.4.2.4.2h.3M220.5,199.1v.4M249.3,199.1v.4M226.8,197.3h16.2M226.8,199.1h16.2M250.6,197.3v1.8M243,197.3h7.6M243,199.1h7.6M219.1,197.3h7.7M219.1,197.3v1.8M219.1,199.1h7.7M307.8,199.5h-3.6M307.8,202.2h-3.6M217.8,199.5h-6M211.8,200.9v-1.4M217.8,202.2v-2.7M304.2,202.2h-86.4M304.2,199.5h-86.4M212.7,228.1h-.5c0,0-.3,0-.3,0h-.5c0,0-.2,0-.2,0M211.9,227.9h.6c0,0,.3.2.3.2l.2.2.3.2v.3c.1,0,.3.2.3.2v.6c0,0,0,.3,0,.3v.3l-.2.2v.3c-.1,0-.4.2-.4.2l-.2.2h-.3c0,0-.3.2-.3.2h-.8c0,0-.3-.2-.3-.2l-.3-.2-.2-.2v-.3c-.1,0-.3-.2-.3-.2v-.6c0,0,0-.3,0-.3v-.3l.2-.2v-.3c.1,0,.3-.2.3-.2l.3-.2h.3c0-.1.2-.2.2-.2h.3M211.9,231.9h.7c0-.1.3-.2.3-.2l.3-.2.3-.2.3-.2.2-.3v-.3c.1,0,.2-.3.2-.3v-.3c0,0,0-.4,0-.4v-.6c0,0-.3-.4-.3-.4v-.2c0,0-.4-.3-.4-.3l-.2-.2-.3-.2-.3-.2h-.3c0-.1-.4-.1-.4-.1h-1c0,.1-.3.3-.3.3l-.3.2-.3.2-.2.3-.2.2v.4c0,0-.2.3-.2.3v1c0,0,.2.3.2.3v.3c.1,0,.3.3.3.3l.3.2.2.2.3.2h.4c0,0,.3.2.3.2h.3M301.1,199.5h0M291.2,199.4h2.9M291.2,199.4h0M284.7,199h2.9M290.9,198.9h-1.4c0-.1-.7-.1-.7-.1h-4.1M287.6,199h3.3M284.7,195.4h0l1.3.3,1.2.2,1.1.3,1.5.4,1.4.3h0M27.3,199.5v-8.1M27.3,199.5h.9M27.3,191.4h.9M28.1,191.2h-.5c0,0-.2.2-.2.2h-.1M107.3,111.3h47.3M62.4,111.3h27.2M62.4,111.3h-.1v.3l-.2.3v.4c-.1,0-.4.6-.4.6l-.3.7-.3.9-.4.9-.5,1.1-.5,1.2-.5,1.4-.6,1.5-.7,1.6-.7,1.7-.8,1.8-.9,1.9-.8,2M54.7,129.6l-.9,2-.9,1.9-.7,1.7-.8,1.7-.6,1.5-.6,1.5-.6,1.3-.5,1.2-.4,1-.4,1-.4.8-.3.8-.2.5-.2.5v.2c0,0,0,0,0,0M76.9,147.3h79.1M47.1,147.3h12.3M47.1,147.3h0M156,147.3h0M53.3,129.7l.6-1.2.5-1.2.4-1.1.5-1.1.5-1.1.4-1,.4-1,.4-.9.4-.9.4-.8.3-.8.3-.8.3-.7.3-.7.3-.6.2-.6.3-.6.2-.5.2-.4v-.4c0,0,.3-.4.3-.4v-.3c.1,0,.2-.2.2-.2v-.2c0,0,.2-.2.2-.2h0c0,0,0-.2,0-.2M62,112.2l-1-.4M53.3,129.7l-.5,1.3-.5,1.1-.5,1.2-.4,1.1-.5,1-.4,1.1-.4.9-.4,1-.4.9-.4.8-.3.8-.3.8-.3.7-.3.7-.3.6-.3.6-.2.5-.2.5-.2.5-.2.4v.3c0,0-.2.3-.2.3v.3c-.1,0-.2.2-.2.2v.2c-.1,0-.2.1-.2.1h0M27.3,190.9l.9.4M27.3,190.9l18.4-43.2M45.7,147.7l.6.2M28.2,190.5l18.3-43.2M283.8,190.5l-18.4-43.2M254.3,147.3h11.1M76.8,147.3h160M46.5,147.3h12.8M283.8,191.8v-.2h0v-.7h0v-.3h0M28.2,191.8v-.2h0v-.7h0v-.3h0M283.8,199.5v-7.7M28.2,199.5v-7.7M276.5,199.5h7.3M249.3,199.5h11M91.2,199.5h129.3M53.4,199.5h9M28.2,199.5h9M80.4,111.3v-3M156,109.4v-1.3M115.9,101.1h0v2.9M115.9,104v1.8M113.2,105.8v-1.5M115.9,105.8v2h0M113.2,107.9h0v-2.1M115.9,108.3h0v-.2h0v-.2M113.2,107.9h0v.2h0v.2M115.9,107.9h-2.7M115.9,108.3h0v1.5M113.2,108.3h0v1.5M115.9,109.8v1.5M113.2,111.3v-1.5M109.6,108.5h0v1.3M109.6,109.8v1.5M154.6,109.4h0M157.3,109.4h0M154.6,147.3v-16.3M157.3,131v16.3M154.6,131v-13.6M157.3,117.4v13.6M154.6,109.4v1.9M157.3,111.3v-1.9M154.6,117.4v-2.2M157.3,115.2v2.2M154.6,113.1v-1.6h0v-.2M157.3,111.3h0v1.8M154.6,113.5v-.4M157.3,113.1v.4M154.6,115.2h0v-1.7M157.3,113.5v1.5h0v.2M39.4,159.9h1.1M39.4,162.6h-.2M39.4,161.2h0M39.4,162.6v-1.4M39.4,159.9v2.6M39.4,159.9h0M25.1,159.9h14.3M39.4,159.9v1.3M17.9,159.9h7.2M17.9,159.9v1.3M17,161.2h8.1M17,171.6v-10.4M21.8,171.6h-4.8M39.4,162.2v-1M35.4,171.5l4-9.3M25.1,161.2h14.3M30.1,175.1h0v-.2h-.1c0-.1,0-.3,0-.3h-.2c0-.1-.2-.2-.2-.2l-.2-.2-.3-.2h-.3c0,0-.3-.2-.3-.2l-.3-.2h-.3c0-.1-.3-.2-.3-.2h-.3c0-.1-.2-.1-.2-.1h-.3c0,0-.2,0-.2,0h-.5M21.4,178.1l-.4-.3-.3-.3-.2-.2-.2-.3-.2-.2v-.2c-.1,0-.2-.2-.2-.2v-.4M20,176l1-2.4M23.8,179.9l-2.4-1.8M25.2,175.2l1.8-4.3M27,170.9h.2c0-.1,0-.1,0-.1h.7c0,.1.2.1.2.1h.3c0,0,.3.2.3.2h.4c0,0,.3.3.3.3h.3c0,0,.3.2.3.2l.2.2.3.2h.2c0,.1.1.2.1.2v.2c0,0,.2,0,.2,0h0v.2M31.2,172.7l-1.9,4.3M29.3,177h0c0,.1,0,.1,0,.1h-1.1c0-.1-.3-.2-.3-.2h-.3c0-.1-.3-.2-.3-.2h-.3c0,0-.3-.3-.3-.3h-.3c0-.1-.3-.3-.3-.3h-.2c0-.1-.2-.3-.2-.3h-.2c0,0-.1-.3-.1-.3h0v-.2h0M21,173.6v.2c0,0,0,.2,0,.2v.4c.1,0,.3.2.3.2l.2.3.3.2.3.3.3.3M24.9,177.5l-2.5-1.8M35.6,171.5l-2.3-.9M33.3,170.6l-.5-.2-.6-.3-.6-.2-.6-.2h-.5c0,0-.6-.3-.6-.3h-.5c0-.1-.5-.2-.5-.2h-.5M28.4,169.1l-3-.5M25.4,168.6h-2.1c0,0,0,.2,0,.2h-.2c0,.1,0,.2,0,.2M22.9,169l-1.9,4.6M23.8,179.9l.4.3.4.3.5.3.5.3.5.3.5.2.6.3.5.3.6.2M29.3,180l-.5-.2-.6-.3-.6-.3-.5-.2-.5-.3-.5-.3-.4-.3-.5-.3-.3-.3M31.6,181l-2.3-1M28.3,182.4l2.2,1M284.7,191.4v8.1M284.7,191.4h-.9M283.8,199.5h.9M284.7,191.4h-.3c0-.1-.4-.1-.4-.1h0M249.6,111.3h0c0,.1,0,.3,0,.3v.3c0,0,.3.4.3.4l.2.6.3.7.4.9.3.9.5,1.1.5,1.2.6,1.4.6,1.5.7,1.6.7,1.7.8,1.8.8,1.9.9,2M224.1,111.3h25.5M157.3,111.3h49.1M257.3,129.6l.9,2,.8,1.9.8,1.7.7,1.7.7,1.5.6,1.5.5,1.3.5,1.2.5,1,.4,1,.3.8.3.6.2.6.2.4v.3c0,0,0,0,0,0h.1M254.3,147.3h10.6M156,147.3h80.8M156,147.3h0M264.9,147.3h0M258.6,129.7l-.5-1.2-.5-1.2-.5-1.1-.5-1.1-.4-1.1-.5-1-.4-1-.4-.9-.3-.9-.4-.8-.4-.8-.3-.8-.3-.7-.3-.7-.2-.6-.3-.6-.2-.6-.2-.5-.2-.4-.2-.4v-.4c-.1,0-.3-.3-.3-.3v-.2c0,0-.2-.2-.2-.2v-.2h-.1v-.2M251,111.8l-1.1.4M266.2,147.7h0c0,0,0-.2,0-.2v-.4c-.1,0-.2-.3-.2-.3l-.2-.3v-.3c0,0-.3-.4-.3-.4l-.2-.5-.2-.5-.2-.5-.3-.6-.2-.6-.3-.7-.3-.7-.3-.8-.4-.8-.3-.8-.4-.9-.4-1-.4-.9-.5-1.1-.4-1-.5-1.1-.5-1.2-.5-1.1-.5-1.3M266.2,147.7l18.4,43.2M265.7,147.9l.5-.2M284.6,190.9l-.8.4M231.6,108.3v3M156,108.1v1.3M198.7,102.2v1.8M196,104v-3.4h0v-.2M198.7,104v1.8M196,105.8v-1.8M198.7,105.8v2h0M196,107.9h0v-2.1M198.7,108.3h0v-.2h0v-.2M196,107.9h0v.2h0v.2M198.7,107.9h-2.7M198.7,108.3h0v1.5M196,108.3h0v1.5M198.7,109.8v1.5M196,111.3v-1.5M202.3,107.9h0v-1.4M202.3,107.9h0v.2h0v.2M203.5,107.9h-1.2M202.3,108.3h0v1.5M205,109.7h0M205,109.8v1.5M202.3,111.3v-1.5M271.4,159.9h1.2M272.7,162.6h0M272.6,161.2h0M272.6,159.9h0M272.6,162.5v-2.6M272.6,161.2v1.4M286.9,159.9h7.2M294.1,159.9v1.3M272.6,159.9h14.3M272.6,161.2v-1.3M286.9,161.2h8.1M295,171.6h-4.9M295,161.2v10.4M272.6,161.2h14.3M272.6,161.2v1M272.6,162.2l4,9.3M285.9,173.3h-.1c0,0-.2,0-.2,0h-.6c0,0-.3,0-.3,0h-.3c0,.1-.3.2-.3.2h-.3c0,.1-.3.3-.3.3h-.3c0,.1-.3.2-.3.2l-.3.2-.2.2h-.2c0,0-.2.2-.2.2v.2c0,0-.2.1-.2.1h0v.2M292,176v.6c0,0-.2.2-.2.2v.2c0,0-.3.3-.3.3l-.3.2-.3.3-.3.3M292,176l-1-2.4M288.1,179.9l2.5-1.8M283.6,182.4l.6-.2.6-.3.5-.3.6-.2.5-.3.5-.3.4-.3.4-.3.4-.3M283.6,182.4l-2.2,1M284.9,170.9l1.9,4.3M286.8,175.2h0c0,0,0,.2,0,.2h0c0,0-.1.3-.1.3h0c0,0-.2.3-.2.3h-.3c0,.1-.2.3-.2.3h-.3c0,.1-.3.3-.3.3h-.3c0,0-.4.2-.4.2h-.3c0,.1-.3.2-.3.2h-.2c0,.1-.3.1-.3.1h-.7M282.6,177l-1.8-4.3M280.8,172.7h0v-.2h.1c0,0,0-.3,0-.3h.2c0,0,.2-.2.2-.2l.2-.2.3-.2h.3c0-.1.3-.2.3-.2l.3-.2h.3c0,0,.3-.2.3-.2h.3c0,0,.3,0,.3,0h.2c0-.1.2-.1.2-.1h.5M282.6,180l-2.2,1M287.1,177.5l-.4.3-.4.3-.5.3-.5.3-.5.3-.5.2-.5.3-.6.3-.6.2M289.5,175.7l-2.4,1.8M289.5,175.7l.4-.3.3-.3.2-.2.2-.3.2-.2v-.2c.1,0,.2-.2.2-.2v-.4M291,173.6l-2-4.6M289,169h0c0,0-.1-.2-.1-.2h-.2c0,0-.2-.2-.2-.2h-1.8M286.6,168.6l-3.1.5M283.5,169.1h-.5c0,0-.5.2-.5.2h-.5c0,.1-.5.3-.5.3h-.6c0,0-.6.3-.6.3l-.5.2-.6.3-.6.2M278.6,170.6l-2.2.9M216.9,102.7h2.9M198.7,102.7h.4M115.9,102.7h80.1M92,102.7h4.8M219.8,102.7h5.1c0,0,.8,0,.8,0h6c0,.1.4.1.4.1h1.7c0,0,.2,0,.2,0h.2M234.2,103v.8M77.6,103h.7c0,0,.2,0,.2,0h2.2c0-.1.5-.1.5-.1h6.5c0,0,.9,0,.9,0h3.4M77.6,103v.8M155.9,108.1h0M201.8,108.1h.5M198.7,108.1h.4M155.9,108.1h40.1M221.4,108.1h.9c0,0,.8,0,.8,0h7.5c0,0,.5,0,.5,0h1.8c0,.1.2.1.2.1h.4M233.5,108.4v2.1M233.5,110.5h-.4c0,.1-.2.1-.2.1h-1.3M234.9,110.5h-.4c0,.1-.3.1-.3.1h-1.3c0,0-.5,0-.5,0h-.8M234.9,108.4v2.1M196,103.6h-40.1M199.1,103.6h-.4M219.8,103.6h-2.2M155.9,103.6v4.5M201.8,108.1h.5M198.7,108.1h.4M155.9,108.1h40.1M234.9,108.4v-4.5M234.9,103.9h-.7c0-.1-.2-.1-.2-.1h-2.1c0,0-.5,0-.5,0h-5.6c0,0-.8,0-.8,0h-5.2M221.4,108.1h5.2c0,0,.7,0,.7,0h5.1c0,0,.5,0,.5,0h1.6c0,.1.2.1.2.1h.2M201.8,105.9h0v3.4h0v.3h0M199.1,109.7h0v-.3h0v-6.7M155.9,108.1h0M76.9,110.5v-2.1M80.4,110.7h-1.9c0,0-.3,0-.3,0h-1c0-.1-.2-.1-.2-.1h0M80.4,110.6h-1.9c0-.1,0-.1,0-.1h-.1M78.3,110.5v-2.1M78.3,108.4h.9c0-.1.3-.1.3-.1h2.2c0,0,.6,0,.6,0h8.1c0,0,.8,0,.8,0h.8M115.9,108.1h40M112.7,108.1h.5M109.9,108.1h0M92,108.1h.2M115.9,108.1h40M112.7,108.1h.5M110,108.1h0M92,108.1h.2M155.9,108.1v-4.5M96,103.6h-4M155.9,103.6h-40M76.9,103.9v4.5M76.9,108.4h.7c0-.1.2-.1.2-.1h2.1c0,0,.6,0,.6,0h5.5c0,0,.8,0,.8,0h5.2M92,103.6h-6.8c0,0-.7,0-.7,0h-5.1c0,0-.5,0-.5,0h-1.6c0,.1,0,.1,0,.1h-.3M110,109.7h0v-.3h0v-1.3M112.7,104.9h0v4.4h0v.3h0M106.4,52.3h-3.6M106.4,55h-3.6M102.8,55v-2.7M207.2,52.3h-100.8M207.2,55h-100.8M210.8,52.3h-3.6M210.8,55h-3.6M210.8,52.3v2.7M119,78.3v.4l-.2.5-.2.3M117.2,78.4h0M117.2,78.3v-12.5M119,65.8v12.5M117.2,78.3h1.8M117.2,65.8v-10.8M119,65.8h-1.8M39.4,171.1l77.8-92.7M117.2,78.4l1.4,1.1M118.6,79.5l-77.8,92.7M39,172.3v-.6c.1,0,.2-.3.2-.3l.2-.3M40.8,172.2h0M39.4,171.1l1.4,1.1M40.8,172.3v24.5M39,172.3h1.8M39,196.8v-24.5M119,65.8h75.6M194.6,65.8v-10.8M119,55v10.8M137,65.8h-1.2c0,.1-.6.2-.6.2l-.6.2-.6.2-.6.3-.5.3-.5.4-.5.4-.4.5-.4.4-.3.5-.3.6-.2.5-.2.6-.2.6v1.2M137,65.8h0M129.8,71.9v-.6c.1,0,.1-.6.1-.6l.2-.6.2-.6.2-.5.3-.6.3-.5.4-.4.4-.5.5-.4.5-.3.5-.4h.3M37.2,196.8h1.8M37.2,196.8v2.7M51.6,196.8h1.8M53.4,196.8v2.7M39,196.8h12.6M130.7,72.7v10.5M129.8,72.7h.9M129.8,83.2v-2.4M130.7,83.2v.5c0,0-.2,0-.2,0M130.7,83.2h-.9M129.8,83.2h0M130.5,83.8l-75.7,89.6M129.8,83.2l.7.6M128.2,85.1l1.6-1.9M54.1,172.8l.5-.5M52.5,176.2v20.6M54.8,173.4l-.7-.6M51.8,175.6l2.3-2.8M51.6,176.2h0v-.2h0c0,0,0-.2,0-.2h0c0,0,0-.2,0-.2M52.5,176.1h0M54.8,173.4l-2.3,2.7M196.4,78.3h0M195.1,79.5l-.3-.3v-.5c0,0-.2-.4-.2-.4M194.6,78.3v-12.5M194.6,78.3h1.8M196.4,65.8v12.5M194.6,65.8h1.8M196.4,55v10.8M272.9,172.2l-77.8-92.7M196.5,78.4l77.7,92.7M195.1,79.5l1.4-1.1M274.2,171.1l.3.5v.3c.1,0,.2.3.2.3h0M272.9,172.3h0M272.9,172.2l1.3-1.1M272.9,196.8v-24.5M274.7,172.3v24.5M272.9,172.3h1.8M183.8,72.7v-1.2c0,0-.2-.6-.2-.6l-.2-.6-.2-.5-.3-.6-.4-.5-.4-.4-.4-.5-.4-.4-.5-.4-.6-.3-.5-.3-.6-.2-.6-.2h-.6c0,0-.6-.2-.6-.2h-.7M176.6,65.8h0M179.9,65.8h.3c0,.1.6.5.6.5l.5.3.4.4.4.5.4.4.4.5.3.6.2.5.2.6v.6c0,0,.2.6.2.6v.6M260.3,196.8h1.8M260.3,196.8v2.7M274.7,196.8h1.8M276.5,196.8v2.7M262.1,196.8h12.6M185.4,85.1l-.3-.5-.4-.5-.2-.5-.3-.5v-.6c0,0-.3-.6-.3-.6v-1.1M183.8,80.8v-.8M194.7,78.9h0M194.6,78.3v.5M183.8,65.8v14.2M183.8,80v.6c.1,0,.1.5.1.5l.2.6v.6c0,0,.4.5.4.5l.2.5.4.5.3.5M185.4,84.3l73.6,87.2M259,172.3l-73.6-87.2M259.2,172.3l2.9,3.6M262.1,175.9v20.9M259,171.5v.2c.1,0,.1.2.1.2v.4M259,172.3v-.8M259.2,172.3h-.2M182.9,83.2v-10.5M183.8,80.8v2.4M182.9,72.7h.9M183.2,83.8h0c0,0-.2-.5-.2-.5h0M183.8,83.2h.1M183.8,83.2h-.9M259.1,172.3l.4.5M183.9,83.2l1.5,1.9M183.2,83.8l.7-.6M258.8,173.4l-75.6-89.6M258.8,173.4l.7-.6M261.2,176.1l-2.4-2.7M261.2,176.2h0M261.2,196.8v-20.6M261.8,175.6h.1c0,0,0,.2,0,.2h0v.2h.1v.2M259.5,172.8l2.3,2.8M129.8,80.8v1.1c0,0-.2.6-.2.6l-.2.6-.2.5-.3.5-.3.5-.4.5M129.8,80v.8M128.2,84.3l.4-.5.3-.5.3-.5.2-.5.2-.6v-.6c0,0,.2-.5.2-.5v-.6M129.8,65.8v14.2M119,78.3v.5M119,78.8h0M128.2,85.1l-73.6,87.2M54.6,171.5l73.6-87.2M51.6,196.8v-20.9M51.6,175.9l2.8-3.6M54.6,172.3h-.2M54.6,171.5v.8M54.4,172.3v-.2c0,0,0-.2,0-.2v-.4M162.2,12.7v6.1M151.4,12.7v6.1M151.6,12.7h-.2M161.1,12.7h-8.5M162.2,12.7h0M162.2,18.8v11.9M151.4,30.7h10.8M151.4,18.8v11.9M142.7,41.5h28.3M140.6,50.5h32.4M113.6,48.7h5.4M113.6,46.4h5.4M113.6,46.4v2.3M200,46.4v2.3M194.6,46.4h5.4M194.6,48.7h5.4M119,48.7h75.6M119,46.4h75.6M207.5,16.3h-.3M207.2,16.3h-.2M207.5,13.6h-.3M207.2,13.6h-.2M281.3,209.1h0M282,209.2h0M282,209h0M281.3,209h0M3.9,199.5v2.7M24.8,199.5h0M21.5,199.5h0M14.4,217.2h0M9.4,209.9l1.5-.3M5,205.8v.2M286.9,199.5h0M290.2,199.5h0M300.8,209.6l1.5.3M306.6,206v-.2M97.4,228.7v.9M102.1,229.6v-.9M307.8,202.2v-2.7M214.3,229.6v-.9M209.6,228.7v.9M27.3,199.5h0M157.3,109.4h-2.7M284.7,199.5h0M197.2,100.4h-1.2M199.1,109.7h2.7M110,109.7h2.7M151.6,6.8h-.3c0,.1-.8.5-.8.5l-.7.4-.6.5-.7.5-.6.5-.6.6-.5.6-.5.7-.5.7-.4.7-.4.7-.3.8-.3.7-.2.8-.2.8v.8c0,0-.2.8-.2.8v.9M161.1,6.4h-.2c0-.1-.8-.3-.8-.3l-.8-.2h-.8c0-.1-.9-.2-.9-.2h-2.4c0,.1-.8.2-.8.2l-.8.2-.8.2h-.2M169.9,18.8v-1.7c-.1,0-.3-.8-.3-.8v-.8c-.1,0-.4-.8-.4-.8l-.2-.7-.4-.8-.3-.7-.5-.7-.4-.7-.5-.7-.6-.6-.5-.6-.7-.5-.6-.5-.7-.5-.7-.4-.7-.4h-.3M169.9,33v-14.2M143.8,18.8v14.2M143.8,33h0c0,.1,0,.1,0,.1h0v.2h0M170,33.3h0c0,0,0,0,0,0h0v-.2M143.6,33.3l-.8.8M170.9,34.1l-.9-.8M142.8,34.1h0c0,0,0,0,0,0h0v.2h0M171,34.5h0v-.2h0v-.2M171,41.5v-7M142.7,34.5v7M173,52.3v-1.8M140.6,50.5v1.8M141,48.7l-.4,1.8M142.7,41.5l-1.2,4.9M172.1,46.4l-1.1-4.9M173,50.5l-.4-1.8M152.3,6.4h-.3c0,.1-.2.2-.2.2h0c0,0,0,.2,0,.2M151.4,30.2v.2h0c0,.1.1.3.1.3M152.6,6.4h-.3M161.3,6.4h-.2M162.1,30.7v-.2c0,0,0-.1,0-.1v-.2M162.1,6.8h-.1c0-.1-.2-.2-.2-.2h0c0-.1-.2-.2-.2-.2h-.2M120.4,52.3v-3.6M117.7,48.7v3.6M196,52.3v-3.6M193.3,48.7v3.6M207.5,42.8v-26.5M207,16.3v26.5M207,42.8h0v.3h0v.2h0v.2h0c0,.1,0,.2,0,.2M207.5,43.7h0v-.2h0v-.2h0v-.4h0M207.5,16.3h0c0-.1.1-.1.1-.1M206.9,16.2h0c0,.1,0,.1,0,.1M206.9,13.7v2.5M207.6,16.2v-2.5M207.6,13.7h0c0,0-.1,0-.1,0M207,13.6h0M206.9,43.7l-.5,4.5M208.1,48.2l-.6-4.5M206.3,49.1v3.2M208.1,52.3v-3.2M206.4,48.2h0v.3h-.1v.2h0v.2h0v.2M208.1,49.1h0v-.2h0v-.2h0v-.4h0"/>
    </g>
    <g id="Layer_2">
      <g>
        <rect class="cls-1" x="246.5" y="286.7" width="36.4" height="22.1"/>
        <rect class="cls-1" x="28.7" y="286.7" width="36.4" height="22.1"/>
      </g>
    </g>
  </g>
</svg>