<?xml version="1.0" encoding="UTF-8"?>
<svg xmlns="http://www.w3.org/2000/svg" version="1.1" viewBox="0 0 24 24">
  <defs>
    <style>
      .cls-1 {
        fill: #fff;
        fill-rule: evenodd;
      }
    </style>
  </defs>
  <!-- Generator: Adobe Illustrator 28.7.9, SVG Export Plug-In . SVG Version: 1.2.0 Build 218)  -->
  <g>
    <g id="Layer_1">
      <path class="cls-1" d="M11.6,1.2c-.3.3-1.3,1.5-1.8,2.2-1.2,1.6-2,3.2-2.2,4.6,0,.2,0,.7,0,1,0,1.1.4,11.7.5,12.4,0,.8.2,1.1.4,1.3.2.2.5.3.7.3,1.4,0,4,0,5.9,0,.2,0,.6-.2.7-.4.2-.2.3-.5.4-1.1,0-.3.2-3.3.3-6.6.2-6.5.2-6.5,0-7.3-.4-1.8-1.9-4.2-3.8-6.2-.3-.3-.3-.3-.5-.3s-.2,0-.4.2ZM12.3,2.8c.6,1.1,1.2,2.3,1.4,3.2.2.7.2,1,.2,2.3v1.2s-1.9,0-1.9,0h-1.9v-1.2c0-1.3,0-1.8.3-2.5.3-.9.8-2.1,1.4-3.1.1-.2.3-.4.3-.4s.1.2.3.5ZM9.3,6.1c-.1.7-.2,1.4-.1,6.7v5.2s-.2,0-.2,0c-.2,0-.2,0-.2-.1,0-.2-.3-8.2-.3-8.9,0-.7,0-1.1.3-1.8.2-.5.6-1.4.6-1.4,0,0,0,.2,0,.3ZM15.3,7.2c.3,1,.3.9.1,6,0,2.5-.2,4.6-.2,4.6,0,.1,0,.1-.2.1h-.2v-5.6c0-5.2,0-5.6,0-6,0-.2,0-.4,0-.4,0-.1.4.8.6,1.3ZM13.9,11.4v.9h-3.8v-1.9h3.8v.9ZM14,15.5c0,1.2,0,2.3,0,2.3h0c0,.1-1.9.1-1.9.1h-1.9v-.2c0-.1,0-1.2,0-2.3v-2.1h3.9v2.2ZM10,19.9v1h-1.1v-.7c0-.4,0-.8,0-1v-.2s.6,0,.6,0h.6v1ZM15.2,19.1c0,.1,0,.6,0,1v.7h-1.1v-1.9h1.2v.2ZM13,19.9v.9h-2.1v-1.9h2.1v.9ZM15,21.9c0,0,0,.1-.1.2,0,0-1.4,0-2.9,0-3,0-2.9,0-2.9-.2s0,0,3,0h3,0Z"/>
    </g>
  </g>
</svg>