<svg width="24" height="24" viewBox="0 0 24 24" fill="none" xmlns="http://www.w3.org/2000/svg">
<path d="M19 9.26074L19.5 9.26076V9.26074H19ZM4 9.26074H3.5V9.26076L4 9.26074ZM9.39879 21.5363L9.10391 21.9401L9.39879 21.5363ZM8.97336 20.5211L9.47236 20.4894L8.97336 20.5211ZM9.01805 20.9698L9.5033 20.8493L9.01805 20.9698ZM14.0266 20.5211L13.5276 20.4895L14.0266 20.5211ZM13.982 20.9698L14.4672 21.0903L13.982 20.9698ZM13.6012 21.5363L13.3063 21.1325L13.6012 21.5363ZM7.12016 15.1534L6.83408 15.5635L7.12016 15.1534ZM15.879 15.1534L15.593 14.7433L15.879 15.1534ZM15.1207 16.02L14.6629 15.8191L15.1207 16.02ZM15.3643 15.5579L14.978 15.2405L15.3643 15.5579ZM11.5 2V2.5C15.3814 2.5 18.5 5.54217 18.5 9.26074H19H19.5C19.5 4.95958 15.9029 1.5 11.5 1.5V2ZM19 9.26074L18.5 9.26073C18.4999 11.5131 17.3583 13.5121 15.593 14.7433L15.879 15.1534L16.1651 15.5635C18.1795 14.1586 19.4999 11.8625 19.5 9.26076L19 9.26074ZM15.1207 16.02L14.6629 15.8191C14.0149 17.2956 13.6298 18.8763 13.5276 20.4895L14.0266 20.5211L14.5256 20.5527C14.6204 19.0565 14.9775 17.5905 15.5786 16.221L15.1207 16.02ZM13.2432 21.7275L13.0253 21.2775C12.0622 21.7437 10.9378 21.7437 9.97468 21.2775L9.75684 21.7275L9.539 22.1776C10.7773 22.777 12.2227 22.777 13.461 22.1776L13.2432 21.7275ZM8.97336 20.5211L9.47236 20.4894C9.36996 18.876 8.98431 17.2954 8.33608 15.8189L7.87826 16.0199L7.42044 16.2209C8.02176 17.5905 8.37941 19.0566 8.47437 20.5528L8.97336 20.5211ZM7.12016 15.1534L7.40623 14.7434C5.6413 13.5121 4.50007 11.5129 4.5 9.26073L4 9.26074L3.5 9.26076C3.50008 11.8622 4.82001 14.1585 6.83408 15.5635L7.12016 15.1534ZM4 9.26074H4.5C4.5 5.54217 7.61861 2.5 11.5 2.5V2V1.5C7.09712 1.5 3.5 4.95958 3.5 9.26074H4ZM9.75684 21.7275L9.97462 21.2775C9.76501 21.176 9.72098 21.1525 9.69367 21.1325L9.39879 21.5363L9.10391 21.9401C9.22243 22.0267 9.3685 22.0951 9.53906 22.1776L9.75684 21.7275ZM8.97336 20.5211L8.47437 20.5528C8.48804 20.7682 8.49723 20.9472 8.5328 21.0904L9.01805 20.9698L9.5033 20.8493C9.49533 20.8172 9.48925 20.7555 9.47236 20.4894L8.97336 20.5211ZM9.39879 21.5363L9.69367 21.1325C9.58734 21.0549 9.53504 20.9771 9.5033 20.8493L9.01805 20.9698L8.5328 21.0904C8.62109 21.4458 8.80816 21.7241 9.10391 21.9401L9.39879 21.5363ZM14.0266 20.5211L13.5276 20.4895C13.5107 20.7555 13.5047 20.8172 13.4967 20.8493L13.982 20.9698L14.4672 21.0903C14.5028 20.9471 14.5119 20.7681 14.5256 20.5527L14.0266 20.5211ZM13.2432 21.7275L13.4609 22.1776C13.6315 22.0951 13.7776 22.0267 13.8961 21.9401L13.6012 21.5363L13.3063 21.1325C13.279 21.1525 13.235 21.176 13.0254 21.2775L13.2432 21.7275ZM13.982 20.9698L13.4967 20.8493C13.465 20.977 13.4126 21.0549 13.3063 21.1325L13.6012 21.5363L13.8961 21.9401C14.1919 21.7241 14.3789 21.4457 14.4672 21.0903L13.982 20.9698ZM7.87826 16.0199L8.33608 15.8189C8.24142 15.6032 8.16175 15.4118 8.02104 15.2405L7.63468 15.5578L7.24832 15.8752C7.28262 15.917 7.30701 15.9625 7.42044 16.2209L7.87826 16.0199ZM7.12016 15.1534L6.83408 15.5635C7.14881 15.7831 7.21598 15.8358 7.24832 15.8752L7.63468 15.5578L8.02104 15.2405C7.87837 15.0668 7.66086 14.921 7.40623 14.7434L7.12016 15.1534ZM15.879 15.1534L15.593 14.7433C15.3383 14.9209 15.1207 15.0668 14.978 15.2405L15.3643 15.5579L15.7507 15.8753C15.7831 15.8359 15.8502 15.7831 16.1651 15.5635L15.879 15.1534ZM15.1207 16.02L15.5786 16.221C15.692 15.9626 15.7164 15.917 15.7507 15.8753L15.3643 15.5579L14.978 15.2405C14.8372 15.4119 14.7576 15.6034 14.6629 15.8191L15.1207 16.02Z" fill="white"/>
<path d="M14.625 17.1261V17.1261C12.6144 17.9047 10.3856 17.9047 8.375 17.1261V17.1261" stroke="white"/>
<path d="M10.25 14.1008V9.00787C10.25 8.14493 9.55044 7.44537 8.6875 7.44537H8.63761C7.80222 7.44537 7.125 8.12259 7.125 8.95798V8.95798C7.125 9.79337 7.80222 10.4706 8.63761 10.4706H14.3624C15.1978 10.4706 15.875 9.79337 15.875 8.95798V8.95798C15.875 8.12259 15.1978 7.44537 14.3624 7.44537H14.3125C13.4496 7.44537 12.75 8.14493 12.75 9.00787V14.1008" stroke="white" stroke-linecap="round"/>
</svg>
