<?xml version="1.0" encoding="UTF-8"?>
<svg id="Layer_1" xmlns="http://www.w3.org/2000/svg" version="1.1"   width="50" height="50" viewBox="0 0 64 62">
  <!-- Generator: Adobe Illustrator 29.5.1, SVG Export Plug-In . SVG Version: 2.1.0 Build 141)  -->
  <defs>
    <style>
      .st0 {
        fill: #fff;
      }
    </style>
  </defs>
  <path class="st0" d="M26.67,26.2h8.01s.07,0,.07,0c.36-.02.7-.16.95-.41.27-.26.42-.62.42-.99v-7.35c0-.37-.15-.73-.42-.99s-.64-.41-1.02-.41h-8.01c-.77,0-1.4.59-1.44,1.33v.07s0,7.35,0,7.35c0,.77.65,1.4,1.44,1.4ZM28.12,18.85h5.12s0,4.55,0,4.55h-5.12v-4.55Z"/>
  <path class="st0" d="M47.3,48.73v-13.58c-.02-1.19-.31-2.51-.57-3.47-.14-.51-.28-.96-.38-1.27-.05-.16-.1-.29-.13-.38-.02-.04-.03-.08-.04-.1,0,0,0-.02,0-.02l-8.08-23.92-.02-.06s-.01-.04-.02-.06l-.29-.65c-.65-1.47-1.16-2.54-1.76-3.27-.83-.99-1.78-1.29-2.87-1.49-.07-.02-.12-.03-.14-.04-.09-.02-.19-.04-.27-.05-.16-.02-.35-.04-.53-.05-.3-.02-.64-.04-.95-.05-.07-.01-.15-.02-.23-.02h0c-.09,0-.22,0-.33,0-.12,0-.24,0-.34,0-.08,0-.16,0-.23.02-.31.01-.65.03-.95.05-.18.01-.37.03-.53.05-.08.01-.17.03-.27.05-.02,0-.07.02-.14.04-1.08.2-2.04.5-2.87,1.49-.69.82-1.26,2.11-2.05,3.92,0,.02-.02.04-.02.06l-.02.06-8.09,23.93s0,.01,0,.02c0,.02-.02.06-.04.1-.03.09-.08.22-.13.37-.1.32-.24.76-.38,1.27-.26.97-.55,2.28-.57,3.47v.11s0,13.47,0,13.47c0,.03,0,.05,0,.07,0,.03,0,.06,0,.09,0,.05,0,.11.01.17,0,.13.02.3.04.51.03.41.08.95.14,1.51.06.56.13,1.16.2,1.67.06.43.13.88.21,1.21.6,4.27,4.4,6.65,7.63,7.31l.15.03c2.27.44,5,.66,7.75.68.05,0,.11.01.17.01h0c.07,0,.14,0,.19,0,.06,0,.09,0,.12,0,.03,0,.07,0,.12,0,.05,0,.12,0,.19,0,.06,0,.12,0,.18-.01,2.74-.02,5.48-.24,7.75-.68,3.25-.62,7.17-3,7.78-7.34.08-.33.15-.78.21-1.21.07-.52.14-1.11.2-1.67.06-.56.11-1.1.14-1.51.02-.2.03-.38.04-.51,0-.06,0-.12.01-.17,0-.02,0-.05,0-.09v-.07ZM43.97,38.13c.16-.02.31-.05.45-.11v7.27s-1.87,0-1.87,0c-.38,0-.75.15-1.02.41-.25.25-.4.57-.42.92v.07s0,.12,0,.12l-1.56-.03,4.43-8.66ZM29.33,3.04l-.04.02s0,0,0,0l.05-.02ZM28.95,1.36s0,0,0,0c0,0,0-.01,0-.02,0,0,0,0,0-.01,0,.01,0,.03,0,.04h0ZM17.91,30.83h0s0,0,0,0h0ZM17.87,30.94s.02-.06.03-.08c0,0,0-.02,0-.02,0,0,0,0,0,0h0s0-.02.01-.04L25.99,6.91c.85-1.94,1.25-2.76,1.61-3.2.2-.24.36-.36,1.25-.52h.06s.09-.03.13-.05c.08-.01.19-.02.35-.03.31-.02.69-.04,1.02-.05.04,0,.09,0,.13-.01.03,0,.06,0,.1,0h.07s.1,0,.1,0c.04,0,.09,0,.13.01.33.01.71.03,1.02.05.16.01.27.02.35.03.06.02.13.04.19.05l.16.03c.75.14.9.26,1.09.49.37.44.76,1.26,1.61,3.2l8.07,23.88v.04s.01,0,.01,0c0,0,0,.01,0,.02,0,.02.02.05.03.08.03.07.06.18.11.32.09.28.21.67.34,1.12-.01,0-.03,0-.04,0h-.07s-2.48,0-2.48,0c-.38,0-.75.15-1.02.41-.25.25-.4.57-.42.92v.07s0,2.98,0,2.98c0,.58.37,1.08.89,1.29l-3.42,6.68v-1.61c0-.68-.47-1.62-.47-1.62l-3.6-7.89c-.74-1.25-.86-1.4-1.76-1.52h0c-.26-.03-.52-.05-.78-.05,0,0,0,0,0,0-.03,0-.08,0-.14,0-.06,0-.11,0-.14,0,0,0,0,0,0,0-.26,0-.52.02-.78.05-.9.11-1.02.27-1.76,1.52l-3.59,7.89s-.47.93-.47,1.62v1.59s-3.41-6.67-3.41-6.67c.51-.22.87-.7.87-1.28v-2.98c0-.75-.61-1.36-1.37-1.4h-.07s-2.46,0-2.46,0c.12-.44.24-.83.33-1.11.05-.14.08-.25.11-.32ZM18.9,45.3h-.07s-1.88,0-1.88,0v-7.24c.11.04.23.06.34.07l4.51,8.8h-1.52s0-.23,0-.23c0-.75-.61-1.36-1.37-1.4ZM25.9,46.5c-.19-.9-.09-1.84.27-2.69.36-.85.98-1.58,1.77-2.09.79-.51,1.72-.79,2.67-.79,1.28,0,2.5.49,3.4,1.36s1.41,2.06,1.41,3.29c0,.92-.28,1.82-.81,2.59-.53.77-1.28,1.36-2.16,1.72s-1.85.45-2.78.27c-.93-.18-1.79-.62-2.46-1.28-.67-.65-1.13-1.48-1.32-2.39ZM29.51,61.73s0,0,0,0c0,0,0,0,.01,0,0,0,0,0,0,0ZM31.2,59.46s0,0,0,0c0,0,0,0,0,0,0,0,0,0,0,0,0,0,0,0,0,0,0,0,0,0,0,0ZM31.83,61.74s0,0,0,0c0,0,0,0,0,0,0,0,0,0,0,0ZM31.85,61.73s0,0,0,0c0,0,0,0,0,0,0,0,0,0,0,0ZM43.89,53.32c-.01.05-.03.1-.04.15v.05c-.36,2.76-2.92,4.54-5.49,5.04h0s-.2.04-.2.04c-1.97.37-4.4.56-6.9.59h-.25s-.05,0-.05,0h-.06s-.02,0-.03,0c-.05,0-.12,0-.19,0-.07,0-.14,0-.18,0-.03,0-.06,0-.09,0h-.05s-.25,0-.25,0c-2.51-.03-4.93-.22-6.9-.59l-.2-.04-.13-.03c-2.53-.52-5.02-2.3-5.36-5.01,0-.07-.02-.14-.04-.21v-.05c-.05-.14-.1-.44-.16-.88-.05-.39-.11-.85-.16-1.31h1.75c.74-.04,1.33-.62,1.36-1.35h4.08c.48.84,1.66,1.35,2.74,1.5,1.12.15,2.26.22,3.39.22,0,0,0,0,0,0,.05,0,.09,0,.14,0s.09,0,.14,0c0,0,0,0,0,0,1.13,0,2.27-.07,3.39-.22,1.16-.16,2.43-.74,2.84-1.7l4.1.08v.06c0,.77.65,1.4,1.44,1.4h1.67c-.05.46-.1.91-.16,1.31-.07.51-.13.82-.16.94Z"/>
</svg>