<svg width="24" height="24" viewBox="0 0 24 24" fill="none" xmlns="http://www.w3.org/2000/svg">
<path d="M0 13H6M6 13L2.78571 10M6 13L2.78571 16" stroke="white"/>
<path d="M24 13H18M18 13L21.2143 10M18 13L21.2143 16" stroke="white"/>
<mask id="path-3-inside-1_317_43664" fill="white">
<path d="M15.2305 7.0293C16.8954 8.47323 17.9999 10.9989 18 13.875C18 18.3624 16.0001 22 12 22C7.99998 22 6 18.3624 6 13.875C6.00006 10.999 7.10463 8.47324 8.76953 7.0293V2H15.2305V7.0293Z"/>
</mask>
<path d="M15.2305 7.0293H14.2305V7.48572L14.5753 7.78476L15.2305 7.0293ZM18 13.875L19 13.875L19 13.875L18 13.875ZM12 22L12 23H12V22ZM6 13.875L5 13.875V13.875H6ZM8.76953 7.0293L9.42473 7.78475L9.76953 7.48571V7.0293H8.76953ZM8.76953 2V1H7.76953V2H8.76953ZM15.2305 2H16.2305V1H15.2305V2ZM15.2305 7.0293L14.5753 7.78476C15.9827 9.00539 16.9999 11.2337 17 13.875L18 13.875L19 13.875C18.9999 10.7642 17.8081 7.94107 15.8857 6.27383L15.2305 7.0293ZM18 13.875H17C17 15.9885 16.5264 17.8034 15.6731 19.0579C14.8467 20.273 13.6471 21 12 21V22V23C14.3529 23 16.1534 21.9082 17.3269 20.1827C18.4737 18.4965 19 16.2489 19 13.875H18ZM12 22L12 21C10.3529 21 9.15331 20.273 8.32687 19.0579C7.47366 17.8034 7 15.9885 7 13.875H6H5C5 16.2489 5.52633 18.4965 6.67311 20.1826C7.84667 21.9081 9.64707 23 12 23L12 22ZM6 13.875L7 13.875C7.00006 11.2338 8.0173 9.0054 9.42473 7.78475L8.76953 7.0293L8.11433 6.27384C6.19197 7.94108 5.00007 10.7642 5 13.875L6 13.875ZM8.76953 7.0293H9.76953V2H8.76953H7.76953V7.0293H8.76953ZM8.76953 2V3H15.2305V2V1H8.76953V2ZM15.2305 2H14.2305V7.0293H15.2305H16.2305V2H15.2305Z" fill="white" mask="url(#path-3-inside-1_317_43664)"/>
<path d="M9.42177 13L12 8L14.5782 13C15.2228 14.6667 15.6095 18 12 18C8.39047 18 8.77721 14.6667 9.42177 13Z" stroke="white" stroke-linecap="round" stroke-linejoin="round"/>
</svg>
