<svg width="24" height="24" viewBox="0 0 24 24" fill="none" xmlns="http://www.w3.org/2000/svg">
<mask id="path-1-inside-1_317_43618" fill="white">
<path d="M12.335 6.96289C14.5597 8.38773 16.0351 10.8798 16.0352 13.7178C16.0352 18.1458 12.4456 21.7354 8.01758 21.7354C3.58958 21.7353 0 18.1458 0 13.7178C7.61394e-05 10.8799 1.4755 8.38774 3.7002 6.96289V2H12.335V6.96289Z"/>
</mask>
<path d="M12.335 6.96289H11.335V7.50995L11.7956 7.80499L12.335 6.96289ZM16.0352 13.7178L17.0352 13.7178L17.0352 13.7177L16.0352 13.7178ZM8.01758 21.7354L8.01757 22.7354H8.01758V21.7354ZM0 13.7178L-1 13.7177V13.7178H0ZM3.7002 6.96289L4.23953 7.80498L4.7002 7.50994V6.96289H3.7002ZM3.7002 2V1H2.7002V2H3.7002ZM12.335 2H13.335V1H12.335V2ZM12.335 6.96289L11.7956 7.80499C13.7458 9.05399 15.0351 11.2352 15.0352 13.7178L16.0352 13.7178L17.0352 13.7177C17.0351 10.5244 15.3736 7.72147 12.8743 6.12079L12.335 6.96289ZM16.0352 13.7178H15.0352C15.0352 17.5935 11.8933 20.7354 8.01758 20.7354V21.7354V22.7354C12.9979 22.7354 17.0352 18.6981 17.0352 13.7178H16.0352ZM8.01758 21.7354L8.01759 20.7354C4.14186 20.7353 1 17.5935 1 13.7178H0H-1C-1 18.6981 3.03731 22.7353 8.01757 22.7354L8.01758 21.7354ZM0 13.7178L1 13.7178C1.00007 11.2353 2.28937 9.054 4.23953 7.80498L3.7002 6.96289L3.16086 6.1208C0.661634 7.72148 -0.999914 10.5244 -1 13.7177L0 13.7178ZM3.7002 6.96289H4.7002V2H3.7002H2.7002V6.96289H3.7002ZM3.7002 2V3H12.335V2V1H3.7002V2ZM12.335 2H11.335V6.96289H12.335H13.335V2H12.335Z" fill="white" mask="url(#path-1-inside-1_317_43618)"/>
<mask id="path-3-inside-2_317_43618" fill="white">
<path d="M20.4056 16.8429C21.0952 17.2736 21.555 18.0373 21.5551 18.9103C21.5551 20.2567 20.4639 21.3486 19.1176 21.3488C17.771 21.3488 16.6791 20.2568 16.6791 18.9103C16.6791 18.0371 17.1396 17.2735 17.8295 16.8429V12.8536H20.4056V16.8429Z"/>
</mask>
<path d="M20.4056 16.8429C21.0952 17.2736 21.555 18.0373 21.5551 18.9103C21.5551 20.2567 20.4639 21.3486 19.1176 21.3488C17.771 21.3488 16.6791 20.2568 16.6791 18.9103C16.6791 18.0371 17.1396 17.2735 17.8295 16.8429V12.8536H20.4056V16.8429Z" fill="white"/>
<path d="M20.4056 16.8429H19.4056V17.3974L19.8759 17.6911L20.4056 16.8429ZM21.5551 18.9103H22.5551V18.9103L21.5551 18.9103ZM19.1176 21.3488V22.3488H19.1177L19.1176 21.3488ZM16.6791 18.9103L15.6791 18.9103V18.9103H16.6791ZM17.8295 16.8429L18.359 17.6912L18.8295 17.3975V16.8429H17.8295ZM17.8295 12.8536V11.8536H16.8295V12.8536H17.8295ZM20.4056 12.8536H21.4056V11.8536H20.4056V12.8536ZM20.4056 16.8429L19.8759 17.6911C20.2868 17.9477 20.555 18.3982 20.5551 18.9103L21.5551 18.9103L22.5551 18.9103C22.555 17.6764 21.9037 16.5995 20.9354 15.9947L20.4056 16.8429ZM21.5551 18.9103H20.5551C20.5551 19.7048 19.9112 20.3486 19.1174 20.3488L19.1176 21.3488L19.1177 22.3488C21.0166 22.3485 22.5551 20.8086 22.5551 18.9103H21.5551ZM19.1176 21.3488V20.3488C18.3233 20.3488 17.6791 19.7045 17.6791 18.9103H16.6791H15.6791C15.6791 20.8091 17.2187 22.3488 19.1176 22.3488V21.3488ZM16.6791 18.9103L17.6791 18.9103C17.6791 18.3986 17.9475 17.9481 18.359 17.6912L17.8295 16.8429L17.3 15.9946C16.3317 16.599 15.6791 17.6756 15.6791 18.9103L16.6791 18.9103ZM17.8295 16.8429H18.8295V12.8536H17.8295H16.8295V16.8429H17.8295ZM17.8295 12.8536V13.8536H20.4056V12.8536V11.8536H17.8295V12.8536ZM20.4056 12.8536H19.4056V16.8429H20.4056H21.4056V12.8536H20.4056Z" fill="white" mask="url(#path-3-inside-2_317_43618)"/>
<mask id="path-5-inside-3_317_43618" fill="white">
<path d="M19.1176 2.2666C19.8287 2.26681 20.4056 2.84344 20.4056 3.55469V16.8428C21.0952 17.2734 21.555 18.0372 21.5551 18.9102C21.5551 20.2566 20.4639 21.3484 19.1176 21.3486C17.771 21.3486 16.6791 20.2567 16.6791 18.9102C16.6791 18.037 17.1396 17.2734 17.8295 16.8428V3.55469C17.8295 2.84331 18.4062 2.2666 19.1176 2.2666Z"/>
</mask>
<path d="M19.1176 2.2666L19.1179 1.2666H19.1176V2.2666ZM20.4056 16.8428H19.4056V17.3973L19.8759 17.691L20.4056 16.8428ZM21.5551 18.9102H22.5551V18.9101L21.5551 18.9102ZM19.1176 21.3486V22.3486H19.1177L19.1176 21.3486ZM16.6791 18.9102L15.6791 18.9101V18.9102H16.6791ZM17.8295 16.8428L18.3589 17.6911L18.8295 17.3974V16.8428H17.8295ZM19.1176 2.2666L19.1173 3.2666C19.2767 3.26665 19.4056 3.39603 19.4056 3.55469H20.4056H21.4056C21.4056 2.29086 20.3808 1.26698 19.1179 1.2666L19.1176 2.2666ZM20.4056 3.55469H19.4056V16.8428H20.4056H21.4056V3.55469H20.4056ZM20.4056 16.8428L19.8759 17.691C20.2867 17.9475 20.555 18.3981 20.5551 18.9102L21.5551 18.9102L22.5551 18.9101C22.555 17.6764 21.9037 16.5993 20.9353 15.9946L20.4056 16.8428ZM21.5551 18.9102H20.5551C20.5551 19.7047 19.9112 20.3485 19.1174 20.3486L19.1176 21.3486L19.1177 22.3486C21.0166 22.3484 22.5551 20.8085 22.5551 18.9102H21.5551ZM19.1176 21.3486V20.3486C18.3233 20.3486 17.6791 19.7044 17.6791 18.9102H16.6791H15.6791C15.6791 20.809 17.2187 22.3486 19.1176 22.3486V21.3486ZM16.6791 18.9102L17.6791 18.9102C17.6791 18.3985 17.9475 17.9479 18.3589 17.6911L17.8295 16.8428L17.3 15.9944C16.3316 16.5988 15.6792 17.6756 15.6791 18.9101L16.6791 18.9102ZM17.8295 16.8428H18.8295V3.55469H17.8295H16.8295V16.8428H17.8295ZM17.8295 3.55469H18.8295C18.8295 3.3956 18.9585 3.2666 19.1176 3.2666V2.2666V1.2666C17.8539 1.2666 16.8295 2.29103 16.8295 3.55469H17.8295Z" fill="white" mask="url(#path-5-inside-3_317_43618)"/>
<path d="M5.42177 13L8.00001 8L10.5782 13C11.2228 14.6667 11.6095 18 8.00001 18C4.39047 18 4.77721 14.6667 5.42177 13Z" stroke="white" stroke-linecap="round" stroke-linejoin="round"/>
</svg>
