<?xml version="1.0" encoding="UTF-8"?>
<svg xmlns="http://www.w3.org/2000/svg" version="1.1" viewBox="0 0 293.7 926.7">
  <defs>
    <style>
      .cls-1 {
        fill: #7b7b7b;
      }

      .cls-2 {
        fill: #252525;
      }

      .cls-3 {
        fill: #2b2b2c;
      }

      .cls-4 {
        fill: #3a3a3c;
      }

      .cls-5 {
        fill: #090909;
      }

      .cls-6 {
        fill: #9b9b9b;
      }

      .cls-7 {
        fill: #535353;
      }

      .cls-8 {
        fill: #f9f9f9;
      }

      .cls-9 {
        fill: #202020;
      }

      .cls-10 {
        fill: #686868;
      }

      .cls-11 {
        fill: #333637;
      }

      .cls-12 {
        fill: #b5b6b8;
      }

      .cls-13 {
        fill: #272729;
      }

      .cls-14 {
        fill: #030303;
      }

      .cls-15 {
        fill: #1a1a1a;
      }

      .cls-16 {
        fill: #cfd0d2;
      }
    </style>
  </defs>
  <!-- Generator: Adobe Illustrator 28.7.7, SVG Export Plug-In . SVG Version: 1.2.0 Build 194)  -->
  <g>
    <g id="Layer_1">
      <g>
        <path class="cls-14" d="M48.1,13.3c1,0,2-.2,3-.2,1.2,1.1,1.7.5,2-.7,2.7-.1,5.3-.2,8-.3,1.6,1.3,3.1,1.5,4-.8,18-1.1,35.8-4,53.9-3.1,0,7.6,0,15.3,0,22.9-1.2,1.3-1.2,2.6-.1,4-.2,3.3-.5,6.7-.7,10-1.6,7.4-.3,14.7,1,21.9-.4,9.7,0,19.4.8,29-1.1,4.5-2,9,.7,13.3.1,8.2.2,16.5.3,24.7-1.6,3.6-.9,7.4-.4,11.1.8,6,1.8,12,1.2,18.1-.2,1.9-1.1,3.8.2,5.7,0,1,0,2.1,0,3.1-1.5,1.7-.9,3.8-1,5.7-.2,7.1.6,14.2-1,21.3-3.9,9.2-2,19-2.7,28.4-1.6,21,.7,42.1.9,63.2,0,4.4,1,8.9.9,13.4,0,1.4.4,2.6,2,3-.6,7,1.1,14,1,21-.9.7-.9,1.3,0,2,0,4.6,0,9.3,0,13.9.4,3.7-1.1,7.5,1,11.1,0,1,0,2,0,2.9,0,1.6-.4,3.5,1.9,4.1,0,3.7,0,7.3,0,11-1.4,1.7-1.5,3.2,1,4,0,3,0,6,0,9-2.8,1.7-2.4,4.4-1.7,6.7,1.3,4.9,2,9.7,1.8,14.8,0,1.5,0,3.1,1.9,3.5,0,1.7,0,3.3,0,5-1.4,1.5-.9,2.5,1,3,.4,18.9,2,37.7,3,56.6.7,13.1,2,26.1,2.4,39.2.7,20.5,3.1,40.9,4.6,61.4.7,9.5,5.6,12.8,15,9.8,1.3,0,2.6,0,3.9,0,5.1,1.1,10.3,2.3,15.2-.8.2,0,.5-.1.8-.1,1.6,0,3.3,0,4.9,0,5.9,2.9,12.4.8,14.2-5,1.1-3.7,2.1-1.1,3.2-.2-.1.6-.3,1.3-.4,1.9-1.9.7-1.8,2.1-1.4,3.7-1.9,4.1-4.2,7.9-6.9,11.6-3.5.3-3.4,3-3.6,5.4-.2.4-.5.8-.7,1.1-1.6.3-2.2,1.2-1.7,2.8-.5.8-.9,1.6-1.4,2.4-2.6.3-3.2,2-2.9,4.3,0,.6-.2,1.1-.3,1.7-.3,0-.6,0-.9,0-1.8.3-2.3,1.3-1.6,2.9,0,.4,0,.9,0,1.3-.5.2-.9.5-1.4.7-1.4.3-1.9,1.2-1.6,2.6-.3,1-.6,1.9-1,2.9-.5.2-.9.4-1.4.5-1.4.3-1.9,1.1-1.7,2.5-.4,2-2.8,3-2.7,5.3-1.6.3-3.3,0-4.6,1.2-2.7,0-5.3,0-8,0,0-3-1.2-4.4-4.4-3.4-1.7.6-2.9-.2-3.5-1.9-4.2-12-7.4-24.3-9.1-36.9-.3-2.3-.2-5.3-3.2-5.1-2.9.2-2.8,3.2-2.7,5.6,0,.8.1,1.7.4,2.4,4.2,9.9,5.2,20.8,9.4,30.7,1.7,4.2,1.7,7.7-3.9,8.7-2.7,0-5.3,0-8,0-1.1-1.3-3.5-.8-3.9-2.9-1.8-3-3.6-5.9-5.4-8.9-2.2-6-5-11.7-9.8-16.2-.2-.2-.3-.4-.3-.7-.1-2.8-.8-5.2-3.7-6.3-.2-.2-.3-.4-.3-.7.2-2.1-.3-3.8-2.7-4.3-.2-.2-.3-.4-.3-.7,0-2.8-.3-5.4-3.6-6.4l-3-4c-3.7-2.3-3.6-5.7-3.3-9.6.4-4.3.5-8.7,0-12.9-.4-3.6.5-7.7-2.7-10.6-.4-2-.8-4-1.2-5.9,1-5.5-.3-10.4-3.3-15-.1-.5-.2-1-.3-1.4.1-1.1.5-2.3.3-3.4-2.5-10.2-5.2-20.4-7.8-30.6-.3-1.2-.9-2.1-2-2.6-.1-.5-.2-1-.3-1.5.9-5.2-1.8-9.7-3.1-14.4-4.4-16.1-8.7-32.3-15.2-47.8-7.7-18.4-13.8-37.3-19.9-56.2-1.5-4.7-1.7-10.1-5.5-14-.1-.5-.2-1-.3-1.5,1.2-2.6,0-5-.7-7.3-4.1-13.5-6.1-27.5-9-41.3-.7-3.2-.3-4.2,3.3-3.5,7,1.5,13.9,3.2,20.8,5,2.8.7,3.9,2,4.6,4.9,1.3,5.1,3.4,10,5.1,15,.4-.1.8-.3,1.2-.4-1-8.4-4.1-16.3-5.6-24.6-.8-4-1.1-8.2-3.9-11.5,0-.6-.2-1.2-.3-1.9,1.5-2.6.3-4.5-1.7-6.2,0-.6-.2-1.2-.2-1.8,1.2-2.8.3-5.2-1.8-7.2,0-.6,0-1.2-.1-1.8,1.4-2.9.7-5.3-1.7-7.2,0-.6-.2-1.2-.3-1.8,1.1-1.5.6-3.1.3-4.8-1.2-5.8-2.3-11.7-3.5-17.5-.3-1.7.4-3.8-1.7-4.8,0-.6-.2-1.2-.2-1.9,1.2-1.6,1.2-3.1-.7-4.2-.1-.9-.2-1.9-.3-2.8,1.2-1.3.8-2.4-.5-3.2,0-.6-.2-1.2-.2-1.8,1.1-8.2.1-16.2-2.5-24l-.7-10c1.2-1.4,1.2-2.7-.2-4-.1-3-.3-6-.4-9.1.2-.6.4-1.2.6-1.8l-.8-2.1c0-.4-.2-.8-.2-1.2.1-4.2.3-8.5.4-12.7.6,0,1.1,0,1.7-.1,2.8-2.2,5.4-4,8.1.5.6,1,3.6,3.9,5.3,1.4,1.5-2.2,4.2-3.9,4.5-7,4.6-5.7,11-9.6,16-15,1.4,0,3.3,0,3.4-1.8.1-2.2-1.6-2.9-3.6-3.1-.6,0-1.2,0-1.9,0-3-5.2-6.2-10-13.1-9.9l-1.9-1c-.1-1.2-.8-1.9-2-2-3.3-1.3-3.8-3.9-4-7.2-.6-9.3,2.3-18.4,1.8-27.7,0-.7,0-1.5,0-2.2,0-2.6,0-5.2.1-7.8,1.9-5.6.8-11.4,1.1-17.1.3-.7.7-1.3,1-2,.6-.1,1.4-.2,1.4-1,0-.8-.7-.9-1.4-1,0-8.7,0-17.3,0-26,2.8-1.5,5.8-.8,8.7-1,1.4,0,3.3.3,3.6-1.7.3-1.7-1.6-1.9-2.7-2.4-1.3-.7-2.7-1.4-4.1-1.7-1.7-.4-2.4-1.1-2.2-3.1.2-1.9-.2-3.9-.3-5.8Z"/>
        <path class="cls-6" d="M107.6,606.4c0,.3.2.5.3.7.4,1.3.7,2.6,1.1,3.9-1.2,1.1-1.4,3.4-3.8,2.9-1.1-1.3-1.9-2.8-3.2-3.7-1.9-1.3-3.3-1.1-2.5,1.8-.4,0-.9,0-1.3,0,0-1.2-.6-2.1-1.9-2.1-.8-3.2-2.7-5.9-4.2-8.8-1-2.6-.8-5.3-1-8,0-1.8,0-3.7,0-5.5,0-1.3-.6-2.3-1.9-2.5-1.6-.3-3-.1-3.3,2-.9,0-1.7,0-2.6,0-.8-3.3-1.6-6.5-2.5-9.8.4-1.2.2-2.3-.9-3.2-.1-.6-.3-1.2-.4-1.8.5-1.4.3-2.6-.9-3.6-.1-.6-.2-1.1-.4-1.7.6-2-.2-3.5-1.4-5-.1-.6-.2-1.2-.3-1.8.5-1.1,0-2-.9-2.6-.2-.9-.4-1.8-.6-2.6.2-.4.4-.8.5-1.3,1.3-.7,2.9-1.5,2.3-3.4-1.5-4.2-.3-8.6-1.4-12.8-4.3-16.4-7.9-33-12.7-49.2-2.3-7.6-3.1-15.7-7.3-22.6-3.1-5-5.1-10.6-6.2-16.2-2.6-12.6-8.8-23.9-11-36.6-1.8-10.2-6.8-19.6-9.5-29.8-3.2-12.2-6.9-24.2-9.6-36.5-.4-1.7-.9-3.3-2.9-3.6,0-.7,0-1.3,0-2,1.6-1.5,1.1-2.5-.9-3v-3c1.4-1.7,1.5-3.4-.2-5v-1.9c-.4-3.1,2-6.7-1.8-9.1v-2c.9-.7.9-1.4-.1-2-.4-3.6-.7-7.3-1.1-10.9.3-1.5,0-2.8-1.8-3.2,0-1,0-2,0-2.9,2.5-2.6-.4-6.6,2.3-9.1.4,1,.8,2,1.2,2.9-.3,1.1.1,1.9,1,2.4,0,.3.2.5.4.7,1.6,12.9,4,25.6,6.9,38.2,1.8,7.9,3,16,6.6,23.3.1.5.2,1,.3,1.5,1.8,10.8,5.7,21,9,31.4,8.3,25.9,20.2,50.6,27.2,77,2.1,8.1,3.8,16.5,7.5,24.1.1.5.2,1,.3,1.5-.7,3.3,1.1,6.1,1.6,9.2,1.5,9.4,4.9,18.4,8,27.4.1.5.2,1,.3,1.4,0,5.2,1.5,10.2,3.3,15,.4,2,.8,4,1.2,5.9,1,8.7,1.5,17.4.1,26.1-.7,4.6,1,7,5.7,7,1,1.3,2,2.7,3,4,.7,2.4,1.4,4.8,3.6,6.4,0,.3.2.5.3.7.3,1.8.9,3.4,2.7,4.3,0,.3.2.5.3.7.6,2.5,1.4,4.8,3.7,6.3Z"/>
        <path class="cls-16" d="M211.8,551c-.2,1-.4,2-.7,2.9-2.5,2.9-2.3,6.7-3.4,10.1-.9,2.7-.5,6-4.1,9.1,1.6-8.6.8-16.2,2.6-23.6.4-1.5.8-2.9-1.2-3.6,1-6.7,4.3-12.9,5.5-19.4,3.2-18,9.6-35,14.1-52.6,1.7-6.7,5.2-12.9,4.9-20.1.2-.7.4-1.4.6-2.1,2,.4,3.8.3,4.4-2,2.2-9.5,5.8-18.6,9-27.8,5-14.3,8.9-29,13.5-43.5,1.3-4.1,3.4-8.6,1.8-13.4-.3-.7-.5-1.3-.8-2,.1-.6.3-1.2.4-1.8.5,0,.9-.1,1.4-.2,2.3-.8,2.3-2.3,1.1-4,.6-1.7,1.2-3.4,1.8-5,2.5-.8,2.3-2.2,1.1-4l-.6-2.5c0-.3.1-.5.4-.6,2.6-.3,2.1-2.2,2.2-3.9,1.9-6.5,4.2-12.9,5.6-19.5,1.6-7.7,5-14.9,4.8-23,0-.3,0-.5.3-.6.5-.3,1.3-.4,1.5-.8.3-.7-.4-1-1.1-1.1.4-1.6.8-3.3,1.1-4.9h1.6c1.4,1.3,1.1,3,.9,4.6-3.1,17.7-4.6,35.7-9.3,53.1-.5,1.8-1.2,3.7,1.6,4.3-.6,1.9-1.1,3.8-1.8,5.7-5.8,15.8-10.3,32.1-15.2,48.2,0,6.1-2.8,11.6-4.7,17.1-14.2,41.2-27.6,82.6-38.8,124.7-1.2.4-1.7,1-.6,2.1Z"/>
        <path class="cls-8" d="M196.7,802.4c-1.3.8-2.6,1.7-4,2.5-.9-.3-2.4-.4-2.6-1-3-6.9-5.3-2.4-7.7.4-1,1.1-2.2,2-2.4,3.7-2,1.8-4.2,3.2-5.3,5.8-.5.2-.9.4-1.4.6-2.4-2.9-.9-6.4-1.3-9.6-.5-3.7,1.1-7.6-1.4-11.1-.4-3.2-.8-6.4-1.1-9.6.2-6.2-2.3-11.9-3.6-17.8-1.1-5.2-4.3-9.7-4.7-15,3.4-1.2,6.1-3.8,9.7-4.5,4.8.1,9.6-.7,14.4.4,5.5,1.3,11.2,2.6,14.7,7.6,5.4,7.7,8.3,16.5,10,25.8,1.4,7.7-.2,13.7-7.5,17.5-1.1.6-2.4,1.2-2.8,2.7-.3,0-.5.1-.7.2-1.2-.2-1.8.5-2.3,1.5Z"/>
        <path class="cls-12" d="M227,880.1c-.5.6-.9,1.2-1.4,1.7-6.4,4.6-12.9,3.8-19.4.3-1.7-.9-3.3-2.2-5.5-2.1-.3,0-.6-.2-.7-.4-4.3-4.8-9.2-8.9-15.1-11.6-2.6-2.2-5.1-4.3-7.7-6.5-.8-1.9-2.6-2.6-4.1-3.6-.4-.6-.9-1.2-1.3-1.8-1.4-2.4-3.5-4.5-3.2-7.6.9-2.2,2.1-4.3,1.9-6.8.1-.3.2-.6.4-.8,1.7,0,2.1,1.3,2.4,2.6.3,1.2,1,2.3,2.4,1.6,4.8-2.6,9.4-5.4,15.1-5.3,0,0,.2-.3.2-.4,1.9-.3,3.7-.8,5-2.4.6-.1,1.3-.2,1.9-.3.7,0,1.4.2,2,.3,3.5,2.6,6.9,4.5,11.8,3.3,3.4-.8,7.4-1.2,10.7.6,11,6.2,10.9,6.3,11.6,19.4,0,.3.1.6.2,1,0,.6-.1,1.1-.2,1.7-3.1,5.4-4.5,11.5-6.9,17.2Z"/>
        <path class="cls-5" d="M8,47.1c6.1-8.9,12.3-17.6,19.1-26,1,0,1.9,0,2.9,0-.1,2.9-.3,5.8-.4,8.7-1.7,1.2-1.8,2.6-.6,4.2-.6,6.6-1.5,13.2-1.6,19.8,0,8.6-2.4,17.2-.5,25.8,0,.4,0,.7,0,1.1-2.1,1.5-1.5,3.5-.9,5.5-.1.6-.2,1.3-.3,1.9-1,.5-1.2,1.5-1.4,2.5-6.3,24.1-12.6,48.3-19.1,72.4-.8,2.9,0,7.1-4,8.7,0-4.2,0-8.4-.1-12.6,1.3-7,.7-14.1,1-21.1.3-.8.8-1.5.8-2.3,0-18.9,1.6-37.8,2.3-56.7.3-.7.9-1.5.9-2.2,0-10,1.5-19.8,2.1-29.8Z"/>
        <path class="cls-8" d="M119,890c.3-.9.6-1.8,1-2.7.4-.4.8-.8,1.2-1.1,1.3-.7,1.8-1.4.3-2.4,0-1.4,2.3-2,1.3-3.8.1-.6.2-1.2.4-1.9.7-1,1.4-2,2.1-3,1.2,0,2.5,0,3.2-1,3.7-5.3,9-5.4,14.6-5.1-.6,3.9,1.6,5.9,4.9,7.2.7.3,1.4.6,2.1.9.4.6.8,1.1,1.2,1.7,0,1.6.8,2.2,2.4,1.6l3,1.3c.5,1,1.2,1.5,2.3,1.4.3.1.5.2.8.3.1.5.2,1,.4,1.5,0,.7,0,1.4-.2,2-4.4,7.2-4,16.5-10,22.9-.5.5-.7,1.6-.6,2.4,1,5.5-2.9,6.9-6.9,7.6-2.6.4-3.2,1.8-3.4,4-8.9.5-17.9,1.2-23.6-7.9-.1-.6-.2-1.1-.4-1.7.6-2.8.6-5.5,0-8.3.1-1,.2-2,.3-2.9,1.4-1.5,1.9-3.3,1.4-5.3l.4-1.6c.9-.3,1-1,1.2-1.8.9-.5,1.7-1.1.8-2.2,0-.7,0-1.3,0-2Z"/>
        <path class="cls-4" d="M288.9,229.6s0,0,0,0c-.3,3.5-1.5,6.9-1,10.5-1.7,3.2-1.2,6.7-1.1,10.1,0,.5-.1,1-.2,1.5-1.3,2.4-1.7,4.9-1.3,7.6-.6,3-1.1,6-1.7,9-.4,0-.7,0-1.1.1-2.1-1.1-5.7,4.3-6.5-1.3-.8-5.1-3.7-6.6-8.3-5.9-4.2.6-7.1-.7-8.1-5.2-.1-.7-1.1-1.2-1.6-1.8,0-.7,0-1.3,0-2,3.5-2.6,1.6-6.8,3-10,0-.7,0-1.3,0-2,1.1-1.9,2.7-3.7,1-6,0-2.3,0-4.7,0-7,1.3-.3,1.6-1.3,2.1-2.4,2-4.9,2-9.9,1.9-15,0-2.1-.4-4.5,2.9-4.6.4.7.7,1.4,1.1,2.1,3,2.5,5.9,5.3,10.1,2,.9.4,1.8.7,2.7,1.2,3.4,1.6,5.5,1.2,5.3-3.2.2-1.7,1.4-2,2.9-2.1,1.2,5-2.8,9.4-1.5,14.3-.1,3.4-.2,6.8-.3,10.3Z"/>
        <path class="cls-4" d="M76.7,782.9c-2.5-3.5-2.4-9.1.3-12,.5.2-.2,2.7,1,1,2-2.7,3.1-6.1,4.7-9.1,2.6-4.7,7.2-7.6,10.5-11.7.3-.4.5-.8.8-1.3h0c1.8.2,3-1,4.4-1.6,3.8-1.6,7.1-4.7,11.6-4.3,1.5,3.2,1.4,6.5.5,9.7-.7,2.7-.2,4.8,1.9,6.1,6.6,4.1,8.8,10.6,10.7,17.6,1,3.6,3.2,6.8.8,10.5-6.2-1.8-12.3-3.7-18.8-4.2l-3.8-.3c-2-1.9-4.3-1.6-6.6-.9-4.6-.6-9.1-.6-13.7,0-1.6-.7-3.1-.5-4.5.4Z"/>
        <path class="cls-12" d="M17,343c2,.3,2.5,1.9,2.9,3.6,2.7,12.3,6.4,24.4,9.6,36.5,2.7,10.2,7.8,19.6,9.5,29.8,2.2,12.8,8.5,24.1,11,36.6,1.1,5.6,3.1,11.1,6.2,16.2,4.2,6.9,5,15.1,7.3,22.6,4.9,16.2,8.5,32.8,12.7,49.2,1.1,4.2,0,8.7,1.4,12.8.6,1.8-1,2.6-2.3,3.4-1.7-3.8-2.6-7.8-3.4-11.8,1-2.3.2-3.9-1.8-5-.7-1.2-1.1-2.6-1-4,1-1.7,1.1-3.1-1-4-10.5-35.3-22-70.2-33.7-105-.3-.9-.4-1.9-.6-2.9,0-4.3,2.2-8.7-.7-12.9-1.3-1.9-2-4.1-2.4-6.4-.6-3.4-2.3-6.1-5.5-7.6-1.1-.7-1.4-1.7-1.7-2.9,2.9-1.9,4.6-4.8,3.3-7.8-3.9-9.6-4.9-19.9-8.7-29.5-1.3-3.4-3-7-1.2-10.9Z"/>
        <path class="cls-16" d="M17,343c-1.7,3.9-.1,7.5,1.2,10.9,3.8,9.6,4.8,19.9,8.7,29.5,1.2,3-.4,6-3.3,7.8-3.7-2.5-5.3-21.2-8.1-29.9-3.3-10.4-8.2-20.4-9.5-31.4-2.5-22.4-4.7-44.9-4.2-67.6.2-10.1-.3-20.2-.8-30.2-.3-5.1-.7-10.3.2-15.4,2.2,8.8,2.1,17.9,3,26.9-.4,1.3-.5,2.6.7,3.5,1.2,7.4,2.3,14.7,3.5,22.1-.2.9-.7,2-.5,2.8,1.1,5.3,1.3,10.5.6,16-.4,2.7-1.2,7.4,2.3,10,0,1,0,2,0,2.9-.2,1.5,0,2.7,1.8,3.2.4,3.6.7,7.3,1.1,10.9-.8.7-.8,1.3,0,2,0,.7,0,1.3,0,2,.7,3-1.8,6.7,1.8,9.1,0,.6,0,1.3,0,1.9-1.2,1.7-1.2,3.4.2,5,0,1,0,2,0,3-1.6,1.6-.2,2.2.9,3,0,.7,0,1.3,0,2Z"/>
        <path class="cls-7" d="M26.9,79.8c-1.9-8.6.5-17.2.5-25.8,0-6.6,1-13.2,1.6-19.8,1.3-1.3,1-2.7.6-4.2.1-2.9.3-5.8.4-8.7.2-1.2.2-2.3-.8-3.1,0-2.8.8-4.3,3.9-2.9-.2,2.3-.4,4.5-.6,6.8-1,.5-1.5,1.2-.5,2.2.1,11-2.3,21.9-1.6,32.9-.5,3-.4,5.9,1.5,8.5,4,5.5,6,11.8,6.1,18.6,0,14.8.1,29.6,0,44.4,0,4.8.4,10.3-1.8,14.1-2.8,4.8-5.6,9.6-8.3,14.5-1-1.5-.7-3.2-.7-4.9,0-13.3-.7-26.7.2-40,.6-9.1-.4-18.2.6-27.3.2-1.8.3-3.7-1-5.3Z"/>
        <path class="cls-7" d="M119.1,864.1c-3.6,6-9.7,8.1-16,9.8-1.6-2.1-5.3-1.6-5.8-4.9-1-6.7-4.4-13.1-3.4-20.1.2-1.1-.7-1.8-1.7-2.1-11.1-2.1-20.6-7.9-30.6-12.7-3-1.4-4.5-3.5-4.5-6.7,2.4-3,5.9-2.2,9-2.8.8.2,1.5,0,2-.7,9.4-1.4,18.7-.6,28.1,0,.8,1,1.9,1,3,.8,3.7,0,7.3.2,11,.3,1.9,1.6,4.2.7,6.3,1.2,0,.6,0,1.1-.1,1.7-4,0-8.1.1-12.1.2-4-.4-8-.7-12-1.1h-22.6c4.7,4.2,5.3,9.9,11.2,10.8,3.1.5,6.3,1.3,8.6,4.3,1.4,1.9,3.7.5,5.1-1.1,2.1-2.2,4.5-3.4,7.6-3,.3,1.3.7,2.6,1,3.9,0,1.2.8,1.9,1.9,2.1.4,4.5,3.8,2.5,6.1,2.8,1,.2,2,.5,3,.7-1.2,1.6-2.9,1.1-4.5,1.3-1.5.1-3.1.9-2.1,2.3,2.2,3,2.8,7.5,7.2,8.8.8,2,2,3.8,4.4,4.1Z"/>
        <path class="cls-1" d="M57,827.4c0,3.2,1.6,5.3,4.5,6.7,10,4.7,19.5,10.6,30.6,12.7-.9,4.8-.3,10.1-3.9,14.2-.2-1.9-1-2.8-3.1-3.1-8.2-1.3-16.4-1.2-24.6,0-2.2.3-3.2,1.4-3.8,3.3-7-8.3-7.9-17.9-6.1-28,.5-3.1,3.3-4.9,6.3-5.8Z"/>
        <path class="cls-7" d="M124,787.9c2.3-3.8.1-6.9-.8-10.5-1.9-7-4.1-13.5-10.7-17.6-2.1-1.3-2.7-3.4-1.9-6.1.9-3.2,1-6.5-.5-9.7.7-1.2,2.9-1,2.9-2.9,6.9-.4,10.2,4.6,13.7,9.2,1.1,1.4,1.4,3.5,3.7,3.7,0,.8.3,1.7,0,2.4-1.8,4.6.6,8.5,1.8,12.7.7,2.5,1.8-.3,2.4.5.6,3.2,1.3,6.3,1.6,9.5.2,2,.8,3,2.9,2.8-1.4,3.6-4.5,7.1-.9,11.1-5.2.4-9.3-3.2-14.1-4.2,0-.3,0-.6,0-1Z"/>
        <path class="cls-5" d="M30.4,57c-.7-11,1.7-21.9,1.6-32.9.8-.6.9-1.3.5-2.2.2-2.3.4-4.5.6-6.8,5-.6,10-1.2,15-1.8.1,1.9.6,3.9.3,5.8-.2,2,.5,2.6,2.2,3.1,1.4.4,2.8,1,4.1,1.7,1.1.6,2.9.8,2.7,2.4-.3,1.9-2.2,1.6-3.6,1.7-2.9.2-5.9-.5-8.7,1-3.1-.3-4.2,1.2-4,4.1.7,10-1.3,19.8-1,29.8,0,2.4-.6,4.2-3,5.1-2.2-3.7-2.6-8.5-6.7-11.1Z"/>
        <path class="cls-4" d="M208.9,9.1c5.7-.9,11.4-.2,17.1.3,8,.8,15.9,2.7,24,3.4,5.4.5,9.6,2.3,12.6,6.7,6.5,9.4,13.9,18.2,19,28.5,2.3,4.5,1.6,9.4,2.1,14.1,1.8,15.5,3.3,31,4.7,46.5,1.3,13.7,1,27.5,2.9,41,1.8,12.4.3,24.7,2.4,37,.5,2.6.4,5.4-1.8,7.5-1.3,1.1-1,2.7-1.2,4.1-2.5-.9-1.9-2.7-1.1-4.4.9-1.8,1.4-3.7,1.2-5.7,0-2.8.2-5.6,0-8.4-.4-4.9,1.2-9.9-1.1-14.6-.7-15.5-1.7-31.1-2.8-46.6-1.4-20.3-5-40.4-6.3-60.7-.4-6.2-2.6-11.7-6.2-17-4.4-6.6-9.3-12.8-13.6-19.5-.7-1.7-1.9-2.8-3.8-3.2-4.2-3.3-9.3-2.5-14.1-3.3-.4-1.1-1-1.8-2.1-.7-2.3-.3-4.7-.6-7-.9-.6-.8-1.4-1-2.3-.8l-22.7-1.7c0-.5,0-1,0-1.6Z"/>
        <path class="cls-5" d="M160,634.9c1.3-1.2,3-.9,4.6-1.2,4.1,0,4.3,2.7,3.8,5.7-.4,2.3-.9,4.5.2,6.7v2.1c-2-.1-2.6.9-2.4,2.6-.1,1.9,1.1,2.3,2.6,2.3.2.1.5.2.7.2.9,1.1,1.8,2.3,2.6,3.4,2,8.9-.8,17.6-1.1,26.3-.4.2-.8.4-1.3.6-1.9-.9-2.7-.3-2.4,1.8-.3.2-.6.4-.9.6-1.1-.1-2.3-.3-3.4-.4-5-1.5-.2-4.6-1-6.7,2.9-2.5,3.8-5.5,2-9,0-.7,0-1.3,0-2,4.1-2.6,4.1-4.6,0-7-2.3.2-3.6-1-4.5-3-.7-1.5-1.5-2.9-3.5-3-1.3-.8-2.4-2.1-4.1-2.1-.2-2.1,1.2-2.8,2.9-3.4,3-1,4.3-3.5,3.7-6.2-.5-2.5-3.3-1.3-5.1-1.4-3.1-.2-6.2,0-9.3,0-.4-.7-.7-1.4-1.1-2.1,1-.3,2-.6,3-.9,2.8,0,5.7.1,8.4-.4,2.2-.4,5.3,0,5.7-3.6Z"/>
        <path class="cls-6" d="M56.8,861.2c.5-1.9,1.6-3,3.8-3.3,8.2-1.2,16.4-1.3,24.6,0,2.1.3,2.9,1.3,3.1,3.1,0,.6-.1,1.3-.2,1.9-2.1,4.6-.6,9.4-.9,14-.1.5-.3,1-.4,1.5-9.1,0-17.4-2.3-23.8-9.3,0-1.4-.7-2-2-2.1-.6-.7-1.2-1.5-1.8-2.2,0-1.5-.3-2.7-2.1-2.9-.1-.2-.2-.5-.3-.7Z"/>
        <path class="cls-1" d="M199.7,800.7c.4-1.4,1.7-2.1,2.8-2.7,7.3-3.8,8.9-9.8,7.5-17.5-1.7-9.3-4.6-18.1-10-25.8-3.5-4.9-9.2-6.3-14.7-7.6-4.8-1.1-9.6-.2-14.4-.4,6.4-3.5,12.9-2,19.1,0,10.8,3.3,19.7,9.8,26.8,18.3,6,7.1,6.6,12.7,2.4,18.7-5.1,7.2-11,13.7-19.5,17Z"/>
        <path class="cls-7" d="M99,814.9c-3.6-1.7-6.3-4.3-8-7.9,6.8-5.6,10.5-15,20.6-16.5.8-.1,1.6-1.1,2.3-1.7,3,.7,6.1,1.4,9.1,2.1,5.7,1.8,10.5,5.6,15.9,8.1-.3,1.1.5,2.4-.9,3.2-2.5-.8-3.8,2.1-6,1.8-.8-4.1-3.7-4.5-7.1-4-2,.3-3.9.6-5.9.9-9,1.4-16,5.6-20,14Z"/>
        <path class="cls-10" d="M192.3,807.2c4.5.5,8.6,3.1,13.3,2.8.9,0,1.3.9,1.5,1.7-.6.4-1.7.4-.8,1.6,1,1.4,1.9,2.9,2.9,4.4-2.6,6.2-8.6,8.9-13.4,12.8-5,4-10.3,7.8-16.9,9-2.6.5-3.9,0-3.8-2.8,0-1.3.1-2.6.2-4,5.9,1.2,8.3-5.3,13.3-6.1.3,0,.4-1.5.4-2.3,0-5.3-.3-10.5,2-15.5.9-.2,1.6-.6,1.4-1.7h0Z"/>
        <path class="cls-12" d="M205.2,545.9c2,.7,1.5,2.1,1.2,3.6-1.8,7.4-1,15-2.6,23.6,3.6-3.1,3.2-6.4,4.1-9.1,1.1-3.4.8-7.2,3.4-10.1-2.7,14-4.6,28.3-12.8,40.7-1.5,2.8-3,5.5-4.6,8.3,0,0,0,0,0,0-1.4,0-1.9.9-1.8,2.2,0,0,0,0,0,0-2,2.1-3.9,4.4-7.1,4.7,0-1.7-.1-3.4,1.1-5,.9-1.1,0-1.7-1.1-1.8-.2-2.4,3.3-3.1,2.5-5.7,2.7-3.6,5-7.5,6.9-11.6,1.3-.4,1.5-1.6,2-2.6,3-2.5,3.2-5.6,1.9-9,.4-2.3.8-4.7,1.2-7,1.2-.4,1.7-1,.6-2.1.2-1.3.4-2.6.6-3.9,1.1-.4,1.6-1,.6-2.1.2-1,.4-2,.6-2.9,1-.5,1.4-1.1.4-2.1,0-1,0-2,0-3l.4.2h.4c1.5-1.6,1.5-3.6,2.2-5.4Z"/>
        <path class="cls-10" d="M114,788.7c-.8.6-1.5,1.6-2.3,1.7-10.1,1.5-13.8,10.9-20.6,16.5-6.6-5.5-11.9-11.8-13.1-20.8,8.7-.4,17.3-2,26.1-.8,2.7,3.1,7.3.6,10,3.4Z"/>
        <path class="cls-6" d="M234.2,861.3c0-.3-.2-.6-.2-1-.6-13.2-.6-13.3-11.6-19.4-3.3-1.9-7.3-1.5-10.7-.6-4.9,1.2-8.3-.6-11.8-3.3.3-.7.7-1.4,1-2,3.7-1.7,7.3-3.4,11-5.1,6.3.4,12.6,1.8,18.9.2,5.6,8.7,5.4,18.4,4.7,28.2,0,1.2-.3,2.3-1.3,3.1Z"/>
        <path class="cls-14" d="M188,726.9c1.3,4.3.4,6-4.8,6.4-8.7.6-17.5.3-26.2.7,0-2.4-1.3-2.9-3.4-3.1-6.4-.5-7.4-2.8-3.6-8,1.3,0,2.7,0,4,0,3.3,3.4,6-.7,9-.8.8-.4,1.5-.8,2.3-1.1,1.9.6,3.5,2.2,5.7,1.8.3,0,.7,0,1,0,3.3.7,6.9-.7,10,1.1.2,1.5.6,2.6,2,.7,1.3.8,2.6,1.5,4,2.3Z"/>
        <path class="cls-14" d="M124,734.9c-5.2-2.2-10.6-.4-15.9-1.2-.3-1.4-1.4-1.8-2.6-1.9h-.4c0-.1-.4,0-.4,0,.2-.9.3-1.8.5-2.7.9-1.1,1.9-2.2,2.8-3.2.6,0,1.1-.1,1.7-.2,1.6.7,3,.2,4.3-.8,1.5,0,2.8,0,3.1-1.9,0-.2-.2-.4-.3-.6.9,0,1.8,0,2.7,0,1.5,0,3.1-.2,4.6-.3,2.7,3.4,5.9,1.9,9,.8,3.3,0,6.7,0,10,0,.3.4.6.8,1,1.1,2.7,2.1,2.7,5.1,1.1,7.5-1.7,2.6-3.6.3-5.4-.7-4.1-2.2-6.5-.6-6.8,4.3l-1.8.3c-2.3-1.5-4.8-.4-7.2-.4Z"/>
        <path class="cls-8" d="M283.6,268.2c.6-3,1.1-6,1.7-9,2.8-2.1,1.6-5,1.3-7.6,0-.5.1-1,.2-1.5.8,0,1.6,0,2.4-.1,0,1.9,0,3.8,0,5.7-1.2,1.8-1.3,3.7-.6,5.7-.2,2.9-.4,5.7-.7,8.6-2.7,3.1-1.8,6.6-1.1,10.1,0,1,.1,2,.2,3v-.3c-.1,0-.5.1-.5.1-2.2,2.7-1.5,5.7-1.1,8.6-.1.5-.2,1.1-.4,1.6-.2,0-.5.2-.7.3.2.2.4.5.7.7,0,.3,0,.7.1,1-1.9,3.5-2.5,7.1-1.4,11,0,.7.2,1.3.2,2v-.3c-.1,0-.4,0-.4,0-2.1,1.1-1.4,3.2-1.6,4.9-2,13.7-3.9,27.4-8.9,40.4-2.7-.6-2-2.5-1.6-4.3,4.7-17.4,6.2-35.4,9.3-53.1.3-1.6.5-3.3-.9-4.7,1.1-5.6,2.7-11.1,2.5-16.9,0-.6.2-1.3.3-1.9,1.6-1.1,1.7-2.5,1-4.1Z"/>
        <path class="cls-7" d="M130.5,860.5c-.5-2.1-1.9-1.8-3.5-1.5.2-2.1.2-4-1.9-5.2-2-3.1-3.9-6.3-8.3-6.2,1.4-1.4,2.9-2.7,1.5-5.2-.7-1.2-.2-2.9-.3-4.4,1.8-1.7.6-4.3,1.7-6.3,2.2,1,1.9,2.7,1.4,4.6-.6,2.1,0,4.2,1.6,5.5,2,1.7,3.1-.8,4.6-1.5,1.7-.8,3.1-1.9,4.2-3.4,1.4.4,2.3,1.3,2.5,2.8-1.8.4-3.1,1.2-3.2,3.2-.6.3-1.2.6-1.9.8-.7.3-1.4.7-2.1,1-2.9,1.5-1.9,2.9.2,4.2.3.3.7.7,1,1,5,6.3,12.1,7.8,19.5,7.9,4.7,0,5.4-1.9,2.8-6.3,0-1.4-.2-2.7-1.2-3.8,0-.6-.1-1.2-.2-1.9-1.1-2-3.6-.5-5-1.8,3.3-1,6.7-2.1,10-3.1,0,.7-.2,1.5-.3,2.2-.3,1.3-.5,2.5-.8,3.8,0,2.1-.1,4.2,1.2,6,1.9,3.5,4.4,1.8,6.6.5,1.8-1,2.7-3.4,5.2-3.5.1,3-3,3.8-4.1,5.9-3.3,1.7-6.5,3.4-9.8,5.1-1.6.2-3.3.5-4.9.7-4.3-1-8.9-.6-13.1-2.6-1.5-.7-2.4.7-3.5,1.4Z"/>
        <path class="cls-15" d="M92.1,601c1.5,2.9,3.4,5.6,4.2,8.8-1.7,3.9-4.7,1.1-7.1,1.4-4.5-.8-9.3.8-13.5-3-1.4-1.3-4.5-2.5-7.7-.7-3.9,2.1-5.9-.2-5.1-4.7.3-1.9,0-4,1.2-5.8,1.7-.2,2.8.6,3.7,2,2.4,3.6,4.9,3.4,7.3,0,.4-.6.7-1.3,1.1-1.9.4-.1.8-.3,1.2-.4,2.5.2,4.9.4,7.4-.2,1.1.1,2.2.3,3.2.4,1.7,1.1,1.7,3.7,4.1,4.1Z"/>
        <path class="cls-14" d="M153,2.1c2,0,4,0,6,0,2.1,0,4.2.2,6.3.2,2.4,0,3.6,1.2,3.5,3.6-.9.4-1.9.7-2.8,1.1-2.4.2-5.4-1.2-6.6,1.9-1,2.3-2.5,2.3-4.4,2.3-6.3,0-12.6,0-19,0-1.4,0-3.4.4-3.9-1.4-1-4-4.1-3.1-6.8-3.3-1-.2-2-.4-3-.6.2-4.4,3.7-2.1,5.7-2.9,2.3-1,4.7-.7,7-.9,6,0,12,0,18,0Z"/>
        <path class="cls-10" d="M173.1,857.8c1.5,1,3.3,1.8,4.1,3.6-2,1.9-1.1,4.2-.8,6.5.6,4.6,2.5,9.2.9,14-3.7.6-7.2.7-10.9-1-7.3-3.4-8.3-7.1-2.6-12.3,1.4-1.3,2.4-2.7,2.3-4.7,1-1.4,2.9-2,3.1-4,1.3-.7,2.6-1.4,3.9-2.2Z"/>
        <path class="cls-1" d="M105.2,613.9c2.4.5,2.6-1.9,3.8-2.9,3.7,3.5,4.3,9.2,8.7,12.2,1.8,3,3.6,5.9,5.4,8.9-1.2,2.2-6.6-2.5-5.5,3.4-1.7.6-2.8,1.8-3,3.6-1.1,0-2.1.2-2.9,1.2-1.5-1.8-2.6-3.3-5.7-3.2-4.1.1-8.9.2-12-3.9,1,.1,2.2.7,2.9.3,3.6-1.9,7.1-2.4,11-.7,1.8.8,3.1-.4,2.4-2.8-.7-2.2-1.4-4.1-4.2-4,0-2.5-2.5-4.3-2.3-6.9.4,0,.8,0,1.3,0,.7.4,1.4.8,2.1,1.2.3.6.9,1.4,1.4.9.5-.4.4-1.4.6-2.2.8-.2,1.7-.6,1.3-1.6-.7-1.5-2.2-1.2-3.5-1.3-.9-.4-1.5-1.1-1.6-2.1ZM113.9,632.5c-.2.2-.4.4-.5.7,0,0,.2.3.3.3.3,0,.5-.2.7-.4-.2-.2-.4-.4-.5-.6Z"/>
        <path class="cls-15" d="M118,702c2.1-2.4,2.8-5.1,2-8.3-.7-2.9.8-5.8,1-8.7.5-.5,1.1-.7,1.8-.4,3.8,2,2.7,4.5.8,7.3-1,1.4-2.3,3.2,0,4.8,1.8,1.3,3.3,1.1,4.7-.7,1.5-2,3.6-1.5,5.9-1.3,1.9.2,4.5,2.7,6-.7,2.8,0,4,1.5,3.9,4.3,0,1.9,0,3.9,0,5.8-2,.2-3.2,1.5-4.1,3.2-1.9,0-3.8-.1-5.7-.2-1.8-3-4.6-2.1-7-1.5-1.5.4-2.6.6-3.3-.8-1.3-2.5-3.8-2.3-6-2.6Z"/>
        <path class="cls-12" d="M115.2,915.8c5.7,9.1,14.7,8.5,23.6,7.9,3.6.8,6.2-2.1,9.4-2.6,9.7-1.5,15.9-8.2,21.5-15.4,1.2-1.5,2-3.8,1.2-5.7-2-4.7-1.1-10.6-6-13.9,4.2.2,7.7,3,11.9,2.9.4,1.9,0,3.6-.5,5.4-1.1.5-1.5,1.4-1.2,2.5-2.5,12.3-10.7,19.6-21.6,24.6-8.4,3.8-17.2,4.6-26.2,3.8-7.2-.7-11-3.8-12.1-9.5Z"/>
        <path class="cls-6" d="M161.2,751.2c.4,5.4,3.6,9.8,4.7,15,1.2,5.9,3.7,11.6,3.6,17.8-1.7-.7-1.7-2.4-2-3.8-1.1-5.3-2.7-10.6-4.4-15.8-1.8-5.4-5.2-7.3-9-4.6-1-.5-1.9-3.1-3.1-.2-.6,1.3-.9,2.9-2.6,3.2,0-.7,0-1.4-.1-2.1.5-5,.3-10-.1-15,.5-2.3.7-4.7,0-7,.6-2.8,2.7-3.2,5.1-3.2,1,5,0,10,.4,14.9,0,1.4-.7,3.2,1.1,4,1.5.7,2.3-1,3.3-1.7,1.1-.7,1.9-2,3.4-1.8Z"/>
        <path class="cls-4" d="M99,814.9c4-8.4,11-12.6,20-14,2-.3,3.9-.6,5.9-.9,3.4-.5,6.3-.1,7.1,4-1.4.9-2.8,1.8-4.3,2.7-.7.1-1.4.3-2.2.4-2.6-.4-3.8-5.1-6.5-3.4-4.7,3-10.1,4.9-14.4,8.7-1.3,1.1-1.7,2.1-.1,3.1,4.2,2.8,7.9,6.6,13.3,7.3-.2,1.2-.6,2.3-1.6,3.2-2.1-.5-4.4.4-6.3-1.2.2-4.7-4.7-4.3-6.8-6.7-1.1-1.3-3.3-1.4-4.2-3.2Z"/>
        <path class="cls-1" d="M168.5,646c-1-2.2-.6-4.4-.2-6.7.5-3,.3-5.7-3.8-5.7-.1-2.3,2.3-3.3,2.7-5.3,1-.5,1.6-1.3,1.7-2.5.5-.2.9-.4,1.4-.5,3.7,2.9,5.4.8,6.8-2.5,2,0,3.2-2.3,5.4-1.8-1.7,2.3-3.1,4.6.6,6.4-1,0-2,0-2.9,0-1.5-.3-3-.9-3.8,1-.8,1.9,0,3.7,1.2,5,2.2,2.2,9.2.4,10.7-2.6,3.2.5,2,2,.6,3.2-2.6,2.2-5.6,3.5-9.1,3.6-3.4.2-6,1.5-7.4,4.7-.6-1-1.1-3-2.4-.6-.7,1.3.3,3.4-1.6,4.3Z"/>
        <path class="cls-10" d="M88,862.9c0-.6.1-1.3.2-1.9,3.7-4.1,3.1-9.3,3.9-14.2,1,.3,1.9,1,1.7,2.1-1,7.1,2.4,13.4,3.4,20.1.5,3.3,4.3,2.8,5.8,4.9-5,3.4-10.4,4.9-16.4,4.4.1-.5.3-1,.4-1.5,3.7-4.5,1.9-9.3.9-14Z"/>
        <path class="cls-1" d="M176.8,889c-4.2.1-7.7-2.7-11.9-2.9-.9-.5-1.8-1-2.7-1.4-.5-1.2-1.2-1.8-2.6-1.3-.3-.1-.5-.2-.8-.4-.1-1.5-.8-2.1-2.3-1.4-1-.4-2-.9-3-1.3-.6-.9-1.2-1.6-2.4-1.6-.4-.6-.8-1.1-1.2-1.7,1.5-3.9,5.7-4.7,8.3-7.3,2.2-2.2,3.8-5.7,7.8-5.7.2,2-.9,3.4-2.3,4.7-5.6,5.2-4.7,8.9,2.6,12.3,3.7,1.7,7.2,1.7,10.9,1-.2,2.4-.3,4.7-.5,7.1Z"/>
        <path class="cls-15" d="M153,735.7c-2.4,0-4.4.5-5.1,3.2-1,0-2,0-3,0-4.5-2.6-4.9-2.4-4.9,2.6,0,2,0,4,0,6,0,1.8-.3,3.4-2.6,3.4-.1-3.9-.2-7.8-.4-11.8-.1-2.2-.2-4.5-3.5-3.7-.3,0-.5-.2-.5-.6.3-4.9,2.7-6.5,6.8-4.3,1.8,1,3.7,3.4,5.4.7,1.6-2.4,1.6-5.3-1.1-7.5-.4-.3-.7-.7-1-1.1,2.3-1.3,4.6,0,6.9,0-3.8,5.3-2.8,7.5,3.6,8,2.1.2,3.5.7,3.4,3.1-1.3.6-2.6,1.2-4,1.7Z"/>
        <path class="cls-12" d="M273,353.1c5-13,7-26.7,8.9-40.4.2-1.7-.5-3.7,1.6-4.9-1,14.1-2.9,28.1-7.8,41.5-6.1,16.7-10.8,33.9-16.3,50.8-.8,2.5-1.1,5.2-3.4,7,5-16.1,9.4-32.4,15.2-48.2.7-1.9,1.2-3.8,1.8-5.7Z"/>
        <path class="cls-16" d="M182,723.9c-3.2-1.8-6.7-.4-10-1.1.4-5.4,2.4-10.8,0-16.3,1,.3,1.9.6,2.9.9.5,1.2,1.4,1.4,2.6,1.2,7.5,3.8,9.2,10.9,10.5,18.3-1.3-.8-2.6-1.5-4-2.3-.4-.9-1.1-1.2-2-.7Z"/>
        <path class="cls-5" d="M140.1,693.9c-1.5,3.5-4.1.9-6,.7-2.3-.2-4.3-.7-5.9,1.3-1.4,1.9-2.9,2-4.7.7-2.2-1.6-.9-3.4,0-4.8,1.9-2.8,2.9-5.3-.8-7.3-.7-.4-1.3-.2-1.8.4-.8,0-1.6.2-2.4.3-.7-.9-1.5-1.8-2.2-2.8-.1-.3-.2-.6-.4-.9.1-.3.3-.5.3-.8,0,0-.2-.2-.3-.3-.2-.8-.4-1.6-.6-2.3.2-.7.4-1.4.6-2.1,3.7,1.7,6.4,5.4,11,4.9.6.4,1.2.8,1.9,1.2,1.9,5.1,4.7,9.3,10.7,10.1.1.6.3,1.2.4,1.8Z"/>
        <path class="cls-7" d="M211.9,829.8c-3.7,1.7-7.3,3.4-11,5.1-1.4,0-2.6.1-3,1.8-.6.1-1.3.2-1.9.3-.3-.7-.6-1.4-.9-2.1,2.1-1.6,4.4-3,6.1-4.9,3.2-3.6,8.3-5.5,10-10.5,1.3-1.7,3.6-2.4,4.2-4.7,4.3.4,7.3,2.5,8.7,6.7-4.4,1.9-9.3,2.9-12.2,7.3,0,.3,0,.6,0,1Z"/>
        <path class="cls-16" d="M108,725.8c-.9,1.1-1.9,2.2-2.8,3.2-2.2-1.5-.2-4.7-2.5-6.2-.7-2.3-.8-4.5-.3-6.8,1.6-.6,1.6-2,1.4-3.3,1.3-2.8,3.9-4.1,6.5-5.3.7.6,1.3,1.2,2,1.8,0,2.4,1.2,4.4,1.9,6.6.8,2.2,1.6,4.4,2.4,6.6.1.2.2.4.3.6-1.1-.4-2.2,0-3.2.5-1.1.2-2.3.5-3.4.7-1.3-.1-2.2.3-2.4,1.6Z"/>
        <path class="cls-12" d="M133,735c0,.3.1.5.5.6,1.5,2.2,1.3,4.7,1.4,7.2.2,4.4-.9,8.9.5,13.2-.2,1.3-.5,2.6.2,3.8-.2.9-.3,1.8-.5,2.7-1.4,1.4-1.6,2.9-.4,4.5,0,.9-.1,1.8-.2,2.7-.6-.8-1.7,2-2.4-.5-1.2-4.2-3.6-8.1-1.8-12.7.3-.7,0-1.6,0-2.4,0-6,.1-12,.2-18,.3-.3.6-.5.8-.8.6,0,1.2-.2,1.8-.3Z"/>
        <path class="cls-16" d="M169.8,683.7c.4-.2.8-.4,1.3-.6,2.6,2.2,5.3,4.3,6.3,7.9,1.4,5.6-.5,8-6.2,7.8-1.3,0-2.6,0-3.9,0,1.1-2.3,1.2-4.6.2-6.9.8-2.1.9-4.1-.9-5.7.3-.2.6-.4.9-.7,1.5.3,2.1-.6,2.4-1.8Z"/>
        <path class="cls-4" d="M128,3c-2,.8-5.5-1.5-5.7,2.9-.4,6.2-.4,12.3,0,18.5v2.6c0,5.7,0,11.5-.3,17.2-.1,2.4,1.4,6.6-1.2,7-3,.4-.7-4.2-2.6-6,.2-3.3.5-6.7.7-10,1.3-1.3,1.2-2.6.1-4,0-7.6,0-15.3,0-22.9-.1-3.2.1-6.5,3.5-7.8,2.2-.8,4.5-.2,5.5,2.6Z"/>
        <path class="cls-16" d="M116.1,681.5c.1.3.2.6.4.9-.2,2.6-.4,5.2-.5,7.8-.3,7.2-.8,7.6-7.8,5.7h0c0-1-.3-1.8-1.3-2.2-1.5-3-2.1-6.3.5-8.7,2.3-2.1,4.9-4.8,8.8-3.5Z"/>
        <path class="cls-6" d="M116.1,676c-.2.7-.4,1.4-.6,2.1-.6,0-1.1,0-1.7,0-.6-10.2-1.2-20.4-1.8-30.6-.1-2.5-.3-4.9-.4-7.4.7-.9,1.8-1.1,2.9-1.2,0,0,.3.3.3.3.8,2.9-.9,6.1,1.4,8.8.1,1,.2,2,.3,3.1-.8,1.1-.6,2.2-.2,3.3-2.7,7.1-1.7,14.3-.3,21.5Z"/>
        <path class="cls-15" d="M78.2,567c.1.6.2,1.1.4,1.7-.5,1.4-.3,2.6.9,3.6.1.6.3,1.2.4,1.8-1,1.4-.5,2.4.9,3.2.8,3.3,1.6,6.5,2.5,9.8-.2,1.9-1.1,3-3,3.3-3.6-2-3.2-5.6-3.5-8.9-1-7.6-1.9-15.2-3-22.8-.2-1.5-.8-3,1.4-3.5.2.9.4,1.8.6,2.6-.4,1.1-.1,2,.9,2.6.1.6.2,1.2.3,1.8-1.1,2.1.1,3.6,1.4,5Z"/>
        <path class="cls-4" d="M168.8,5.9c0-2.4-1-3.6-3.5-3.6-2.1,0-4.2-.1-6.3-.2,3.5-3.4,9.7-3.1,12.2,1,1.6,2.7,3.5,3,6.1,2.9,9.7-.2,19.4-.4,28.7,3-.3.3-.7.6-1,.9-11-.6-21.9-1.2-32.9-1.9-1.6,0-2.9-.5-3.3-2.3Z"/>
        <path class="cls-16" d="M147.1,861.6c1.6-.2,3.3-.5,4.9-.7,1.4,1.3,2.2,2.4,0,3.8-2.8,1.7-5.6,3.5-8.9,4.3-5.6-.3-10.9-.2-14.6,5.1-.7,1-2,1-3.2,1,.3-1.3.6-2.7.9-4,0,0,0,0,0,0,.6-.1,1-.4.7-1.1,0-.3.2-.7.3-1,7.4-.5,13.2-5.3,20.1-7.3Z"/>
        <path class="cls-12" d="M106,625.9c2.8,0,3.5,1.8,4.2,4,.7,2.4-.6,3.6-2.4,2.8-4-1.7-7.4-1.2-11,.7-.7.4-1.9-.2-2.9-.3-2.6-3.7.3-4.5,2.9-5.5.9.2,1.7.1,2.3-.6,2.3-.3,4.6-.7,7-1Z"/>
        <path class="cls-10" d="M182.5,621.1c-2.2-.5-3.4,1.7-5.4,1.8.7-5.5,6.1-8.2,7.8-13.1,3.2-.3,5.1-2.6,7.1-4.7-.2,3.3-.2,6.6-.5,9.9-.2,1.7-.7,3.6-2.7,4.4.1-1.1.2-2.1.3-3.2,1.1-1.3,1.3-2.7.5-4.3-1.5.7-1.6,1.9-2,2.9-1.7,1.9-4.4,3.1-4.2,6.3-.3,0-.6.1-1,.1Z"/>
        <path class="cls-16" d="M25.4,394.1c3.2,1.5,4.9,4.1,5.5,7.6.4,2.3,1,4.5,2.4,6.4,2.9,4.2.7,8.6.7,12.9-.7-.5-1.9-.9-1.9-1.5-.8-8.9-5.1-16.8-6.8-25.4Z"/>
        <path class="cls-12" d="M147.1,861.6c-6.8,2-12.7,6.8-20.1,7.3,0-.4,0-.7,0-1.1,1.5-.8,2.1-2.2,2.1-3.9.5-1.2,1-2.3,1.5-3.5,1.1-.7,2-2.1,3.5-1.4,4.2,2,8.8,1.5,13.1,2.6Z"/>
        <path class="cls-6" d="M125.1,853.7c2.1,1.2,2.1,3.2,1.9,5.2-2.9,1.4-4.4,4.9-8,5.2-2.5-.3-3.6-2.1-4.4-4.1,1.8-5,6.4-5.2,10.5-6.3Z"/>
        <path class="cls-10" d="M93.2,751.2c-3.3,4-7.9,7-10.5,11.7-1.7,3-2.7,6.4-4.7,9.1-1.2,1.6-.5-.8-1-1,1.4-9.6,7.3-16,15.1-21,.4.4.8.8,1.2,1.2Z"/>
        <path class="cls-7" d="M89.2,611.2c2.4-.3,5.4,2.4,7.1-1.4,1.3,0,1.8.9,1.9,2.1-1.9,1.2-3,2.5-.1,3.8,1.2.5,2.6.6,2.9,2.2-2.4.5-4.7-1.4-7.5-.5,1.1,1.8,2.2,3.4,4.4,3.6-4.2,2.2-6-.9-7.4-3.8-.9-1.8-.9-4-1.4-6.1Z"/>
        <path class="cls-16" d="M188.3,630.8c-1.5,3-8.5,4.8-10.7,2.6-1.3-1.3-2-3.1-1.2-5,.8-1.9,2.3-1.3,3.8-1,.9.2,1.9,0,2.9,0,.6.1,1.2.2,1.9.4.6.4,1.3.8,1.9,1.2.5.6,1,1.2,1.4,1.8Z"/>
        <path class="cls-6" d="M103.9,785.4c-8.7-1.2-17.4.4-26.1.8-.3-.7-.5-1.5-.8-2.2,1.5-.2,3.2.3,4.1-1.4,4.6-.6,9.1-.6,13.7,0,1.9,2.2,4.3,1.2,6.6.9,1.3,0,2.5.2,3.8.3-.4.5-.9,1.1-1.3,1.6Z"/>
        <path class="cls-1" d="M211.9,829.8c0-.3,0-.6,0-1,5-1.8,11.1.5,15.3-4.2,1.9,1.3,3.4,3,3.6,5.4-6.3,1.6-12.6.2-18.9-.2Z"/>
        <path class="cls-6" d="M108.1,695.9c7.1,1.9,7.5,1.5,7.8-5.7.1-2.6.3-5.2.5-7.8.7.9,1.5,1.8,2.2,2.8-1.1,2.7-1.1,5.6-.8,8.3.3,3.5-.9,5.3-4.2,5.9-2.9.5-4.7-.8-5.5-3.5Z"/>
        <path class="cls-12" d="M172,706.6c2.3,5.4.3,10.8,0,16.3-.3,0-.7,0-1,0-1-2.3-2.8-4.2-1.2-7.2,2.2-4.1.8-6.5-3.9-8.6-.7-.4-1.4-.8-2-1.2.5-.6,1.1-1.2,1.6-1.8h0c.8.3,1.6.5,2.4.7.6,1,1.4,1.3,2.5,1,.6.3,1.1.6,1.7.9Z"/>
        <path class="cls-10" d="M227.2,824.6c-4.2,4.8-10.3,2.4-15.3,4.2,2.9-4.4,7.9-5.3,12.2-7.3,1.5.5,2.3,1.8,3.1,3Z"/>
        <path class="cls-1" d="M80.2,590.2c1.9-.3,2.8-1.4,3-3.3.9,0,1.7,0,2.6,0,.2.7.3,1.4.5,2.2-2.6,1.1-4.8,2.3-1.5,5.1,0,.8,0,1.5,0,2.3-2.4.6-4.9.4-7.4.2,0-1.6-.1-3.1-.2-4.6,1.4,0,2.6-.1,3-1.8Z"/>
        <path class="cls-1" d="M118,702c2.2.4,4.6.2,6,2.6.7,1.4,1.8,1.2,3.3.8,2.4-.6,5.2-1.4,7,1.5-3.1-.9-5.3.2-6.4,3.3-2.9-.1-5.5-.5-5.9-4.2-.7-2.9-3-1.4-4.7-1.8.2-.7.5-1.5.7-2.2Z"/>
        <path class="cls-6" d="M192.3,807.2s0,0,0,0c-4.2-.4-8.4-1.6-12.4.7.2-1.6,1.5-2.6,2.4-3.7,2.4-2.8,4.8-7.2,7.7-.4.3.6,1.7.7,2.6,1-.1.8-.3,1.5-.4,2.3Z"/>
        <path class="cls-6" d="M200.8,880c2.1-.1,3.7,1.2,5.5,2.1,6.6,3.5,13,4.3,19.4-.3-2.1,4.6-6.3,4.9-10.4,4.6-5.5-.4-10.4-2.6-14.5-6.4Z"/>
        <path class="cls-1" d="M112.9,741.1c0,1.9-2.1,1.7-2.9,2.9-4.5-.4-7.8,2.7-11.6,4.3-1.5.6-2.7,1.8-4.4,1.7,4.8-6.1,11.3-8.7,18.9-8.9Z"/>
        <path class="cls-4" d="M75,599c-2.4,3.4-4.9,3.6-7.3,0-.9-1.4-2-2.2-3.7-2,2.2-4.7,3.4-5,8-2-1.9.6-2.6,1.5-.5,2.7,1.1.6,2.4.8,3.6,1.3Z"/>
        <path class="cls-2" d="M167.4,691.9c1.1,2.3.9,4.7-.2,6.9-.3,1.6-.3,3.4-1.8,4.5,0,0,0-.3,0-.3-3.1-.9-6.3-1.8-2.5-5.8,1.4-1.5.9-3.4.9-5.2,1.2,0,2.3-.1,3.5-.2Z"/>
        <path class="cls-7" d="M290.8,198.1c.2-1.4-.1-3,1.2-4.1,0,8.4-.1,16.8-.2,25.2-.8,0-1.7,0-2.5.1-1.3-5,2.7-9.4,1.5-14.3,0-2.3,0-4.6,0-6.9Z"/>
        <path class="cls-6" d="M184.9,868c5.9,2.8,10.8,6.8,15.1,11.6-5.7-3-10.9-6.7-15.1-11.6Z"/>
        <path class="cls-12" d="M215.4,814.9c-.6,2.3-3,3-4.2,4.7-.7-.6-1.4-1.2-2.1-1.9-1-1.5-1.8-3-2.9-4.4-.9-1.2.2-1.2.8-1.6,2.8,1,5.8,1.3,8.3,3.1Z"/>
        <path class="cls-4" d="M153,2.1c-6,0-12,0-18,0,.3-1.3,1.2-1.9,2.5-1.9,4.3,0,8.6,0,12.9,0,1.3,0,2.2.6,2.5,1.9Z"/>
        <path class="cls-6" d="M168.5,646c1.9-.9.9-3,1.6-4.3,1.3-2.4,1.7-.4,2.4.6-.2,3.5-.4,7.1-.6,10.6-.8.1-1.6.2-2.4.3-.3,0-.5-.1-.7-.2,0-.7,0-1.3.1-2,.2-1,.4-2.1-.4-2.9v-2.1Z"/>
        <path class="cls-6" d="M227,880.1c2.5-5.7,3.8-11.8,6.9-17.2-.6,6.4-2.5,12.3-6.9,17.2Z"/>
        <path class="cls-12" d="M117.3,704.1c1.7.4,4-1.1,4.7,1.8-.9.1-1.8.2-2.7.3-1.6,0-2.1,1.2-2.5,2.5-1.5.1-2.9.2-4.4.4-.7-.6-1.3-1.2-2-1.8,2.3-1.1,4.6-2.2,6.9-3.2Z"/>
        <path class="cls-10" d="M101,617.9c-.3-1.6-1.7-1.7-2.9-2.2-2.8-1.2-1.8-2.6.1-3.8.4,0,.9,0,1.3,0,2.6,1.7,3.2,5.1,5.5,7-.4,0-.8,0-1.3,0-.3.1-.6.2-1,.3-.6-.5-1.1-1-1.7-1.5Z"/>
        <path class="cls-6" d="M287.9,240c-.5-3.6.7-7,1-10.5,3.7,3.3,2.4,6.9.7,10.6-.6,0-1.1,0-1.7,0Z"/>
        <path class="cls-7" d="M80.2,590.2c-.3,1.7-1.6,1.9-3,1.8-1.3-3.5-3.9-7-.5-10.7.3,3.3-.1,6.9,3.5,9Z"/>
        <path class="cls-5" d="M101,617.9c.6.5,1.1,1,1.7,1.5-.9,2.6-3.2,1-4.8,1.7-2.2-.3-3.3-1.8-4.4-3.6,2.8-1,5.1,1,7.5.5Z"/>
        <path class="cls-3" d="M183.5,621c-.2-3.1,2.5-4.3,4.2-6.3.5.5,1,1,1.5,1.4-.1,1.1-.2,2.1-.3,3.2-.1,1-.8,1.4-1.7,1.6-1.1,0-2.2,0-3.3,0h-.4Z"/>
        <path class="cls-16" d="M287.9,240c.6,0,1.1,0,1.7,0,.9,1.5.3,3.1.5,4.7-.5.8-.6,1.7-.2,2.6-.2.9-.5,1.7-.7,2.6-.8,0-1.6,0-2.4.1,0-3.4-.6-6.9,1.1-10.1Z"/>
        <path class="cls-1" d="M289.3,219.3c.8,0,1.7,0,2.5-.1-.3,2.6-.6,5.3-.9,7.9-.3.5-.6,1-.9,1.5,0,.8-.3,1-1,1,.1-3.4.2-6.8.3-10.3Z"/>
        <path class="cls-12" d="M283.7,306c-1.1-3.9-.5-7.5,1.4-11,.8,3.7-.6,7.2-.7,10.7-.2.2-.4.3-.7.3Z"/>
        <path class="cls-12" d="M286.7,280c-.7-3.5-1.7-7,1.1-10.1.8,3.3-.4,6.5-.3,9.8-.2.2-.5.3-.8.2Z"/>
        <path class="cls-12" d="M102.7,722.9c2.3,1.5.3,4.7,2.5,6.2-.2.9-.3,1.8-.5,2.7-2.6-2.5-2.3-5.7-2-8.9Z"/>
        <path class="cls-10" d="M193.9,602.9c1.5-2.8,3-5.5,4.6-8.3-.7,3.2.8,7.6-4.6,8.3Z"/>
        <path class="cls-12" d="M114.9,905.8c.5,2.8.5,5.5,0,8.3-1.5-2.8-1.6-5.5,0-8.3Z"/>
        <path class="cls-12" d="M285.4,291.5c-.4-3-1.1-6,1.1-8.6.4,3,.7,5.9-1.1,8.6Z"/>
        <path class="cls-3" d="M75,599c-1.2-.4-2.5-.6-3.6-1.3-2.1-1.2-1.3-2.1.5-2.7,1.1,1.2,2.6,1.7,4.1,2.1-.4.6-.7,1.3-1.1,1.9Z"/>
        <path class="cls-7" d="M131.2,735.2c-.3.3-.6.5-.8.8-2.1-.4-4.9,2.8-6.4-1.1,2.4,0,4.9-1.1,7.2.4Z"/>
        <path class="cls-7" d="M126,870.9c-.3,1.3-.6,2.7-.9,4-.7,1-1.4,2-2.1,3,.1-2.7-.3-5.7,3-7.1Z"/>
        <path class="cls-12" d="M119,890c0,.7,0,1.3,0,2-.7.6-.9,1.4-.8,2.2-.2.7-.3,1.5-1.2,1.8-.5-2.4.2-4.3,2-6Z"/>
        <path class="cls-6" d="M70.4,536.9c2,1.2,2.8,2.8,1.8,5-1.5-1.3-2.1-3-1.8-5Z"/>
        <path class="cls-1" d="M169.5,653.3c.8-.1,1.6-.2,2.4-.3.9,1.2,1.1,2.5.2,3.8-.9-1.1-1.8-2.3-2.6-3.4Z"/>
        <path class="cls-6" d="M288.4,261.4c-.7-2-.6-3.9.6-5.7.8,2,1.1,4-.6,5.7Z"/>
        <path class="cls-3" d="M29.2,18c1,.9,1,2,.8,3.1-1,0-1.9,0-2.9,0,0-1.6.4-2.8,2.1-3.1Z"/>
        <path class="cls-12" d="M116.6,897.6c.5,2,0,3.8-1.4,5.3-.6-2.1.1-3.7,1.4-5.3Z"/>
        <path class="cls-5" d="M65,11.3c-.9,2.3-2.4,2.1-4,.8,1.2-1.1,2.6-1,4-.8Z"/>
        <path class="cls-6" d="M68.4,528.9c2,.9,2,2.3,1,4-1.3-1.1-1.2-2.5-1-4Z"/>
        <path class="cls-3" d="M205,10c.3-.3.7-.6,1-.9,1,0,2,0,3,0,0,.5,0,1,0,1.6-1.5.4-2.9.5-4.1-.7Z"/>
        <path class="cls-1" d="M81.2,782.6c-1,1.7-2.6,1.2-4.1,1.4-.1-.3-.3-.7-.4-1,1.4-.9,2.9-1.1,4.5-.4Z"/>
        <path class="cls-7" d="M129,863.9c0,1.7-.5,3-2.1,3.9,0-1.6-.2-3.4,2.1-3.9Z"/>
        <path class="cls-12" d="M103.9,712.7c.1,1.4.1,2.7-1.4,3.3-.2-1.4.2-2.5,1.4-3.3Z"/>
        <path class="cls-4" d="M286.7,280c.3,0,.5,0,.8-.2,1.7,1.4,1.8,2.5-.6,3.2,0-1-.1-2-.2-3Z"/>
        <path class="cls-4" d="M99,824.6c-1.1.3-2.2.2-3-.8,1.4-1.2,2.4-1,3,.8Z"/>
        <path class="cls-16" d="M113.8,678.2c.6,0,1.1,0,1.7,0,.2.8.4,1.6.6,2.3-3,1.5-2.2-.8-2.2-2.3Z"/>
        <path class="cls-15" d="M105.5,731.8c1.3.1,2.3.6,2.6,1.9-1.4.1-3,.4-2.6-1.9Z"/>
        <path class="cls-7" d="M122.7,879.9c1,1.8-1.3,2.4-1.3,3.8,0-.3-.2-.3-.5-.2-.3-1.6,0-3,1.7-3.5Z"/>
        <path class="cls-1" d="M57,861.9c1.8.2,2.1,1.4,2.1,2.9-1.3-.5-2-1.5-2.1-2.9Z"/>
        <path class="cls-1" d="M289.8,247.3c-.4-.9-.3-1.8.2-2.6.7.9.6,1.8-.2,2.6Z"/>
        <path class="cls-12" d="M177.5,708.6c-1.2.2-2.1,0-2.6-1.2,1.1-.2,2,.3,2.6,1.2Z"/>
        <path class="cls-6" d="M170.4,705.7c-1.1.2-1.9,0-2.5-1,1.1-.3,1.9.2,2.5,1Z"/>
        <path class="cls-4" d="M283.7,306c.3,0,.5,0,.7-.3,1.6,1.1,1.3,1.8-.5,2.3,0-.7-.2-1.3-.2-2Z"/>
        <path class="cls-6" d="M106.8,693.7c.9.4,1.3,1.2,1.3,2.2-1.1-.3-1.6-1-1.3-2.2Z"/>
        <path class="cls-4" d="M68,823.8c-.5.7-1.2.9-2,.7.3-1.1.8-1.8,2-.7Z"/>
        <path class="cls-12" d="M211.8,551c-1.1-1.1-.6-1.7.6-2.1.3.8.2,1.5-.6,2.1Z"/>
        <path class="cls-1" d="M186.9,629c-.6-.4-1.3-.8-1.9-1.2,1.4-.8,1.8-.1,1.9,1.2Z"/>
        <path class="cls-1" d="M99,627c-.6.7-1.4.8-2.3.6.6-.9,1.2-1.6,2.3-.6Z"/>
        <path class="cls-1" d="M60.9,867c1.4,0,2,.7,2,2.1-1.2-.2-1.8-.9-2-2.1Z"/>
        <path class="cls-6" d="M196.7,802.4c.5-.9,1.1-1.7,2.3-1.5-.3,1.2-1,1.8-2.3,1.5Z"/>
        <path class="cls-16" d="M121,883.4c.2,0,.4,0,.5.2,1.6,1,1,1.7-.3,2.4-.1-.5-.3-1-.4-1.5,0-.4.1-.8.2-1.1Z"/>
        <path class="cls-12" d="M120.8,884.5c.1.5.3,1,.4,1.5-.4.4-.8.8-1.2,1.1-.6-1.1,0-1.9.8-2.7Z"/>
        <path class="cls-10" d="M192.1,605c-.2-1.3.4-2.1,1.8-2.2,0,1.3-.6,1.9-1.8,2.2Z"/>
        <path class="cls-10" d="M175.1,897c-.3-1.2,0-2,1.2-2.5.7,1.4,0,2.1-1.2,2.5Z"/>
        <path class="cls-5" d="M53.1,12.4c-.3,1.2-.9,1.9-2,.7.5-.6,1.2-.9,2-.7Z"/>
        <path class="cls-10" d="M183.9,620.9c1.1,0,2.2,0,3.3,0-1.1.9-2.2,1.1-3.3,0Z"/>
        <path class="cls-1" d="M93.2,751.2c-.4-.4-.8-.8-1.2-1.2.7,0,1.3,0,2,0-.3.4-.5.8-.8,1.3Z"/>
        <path class="cls-6" d="M165.5,703s0,.3,0,.3c0,.3.1.6,0,.8,0,0,0-.1,0-.1,0-.3,0-.7,0-1Z"/>
        <path class="cls-12" d="M285,294c-.2-.2-.4-.5-.7-.7.2,0,.5-.2.7-.3,0,.3,0,.6,0,.9Z"/>
        <path class="cls-7" d="M126.7,869.9c.3.7-.1.9-.7,1.1.2-.4.5-.7.7-1.1Z"/>
        <path class="cls-6" d="M290,228.6c.3-.5.6-1,.9-1.5,0,.7,0,1.3-.9,1.5Z"/>
        <path class="cls-2" d="M173.1,585.3c-4.9,3.1-10.1,1.9-15.2.8-.6-5.8-1.8-11.5-.4-17.3,1.7-7,2.6-14.1,2.3-21.2-.2-6.3.5-12.3,3.4-17.9,1.5-2.9,1.7-6,1.7-9.2.5-21.4,0-42.9.6-64.3.7-24.1,1.8-48.2,1.3-72.3-.1-5.7.5-11.2,2-16.8,1.9-7,1.5-14.2.4-21.3-.3-2.2.3-4.9-1.8-6.6-2.5-2.1-2.6-4.8-2.6-7.7,0-22,0-44,0-65.9,0-4.8.1-9.7,0-14.5-.2-4.3-3.7-6.7-7.4-5.3-4.2-5.4-9.5-6.1-15.5-3.6.1-1.9-1.1-3.7-.4-5.6,10.3,4.6,16,1,16-10.1,0-.5,0-1,0-1.5,0-10.4-3.2-13.3-13.5-12.2-.3-1-.6-2.1-1-3.1,1,.2,1.9.4,2.9.6,8.7,1.2,12.9-3.7,10.4-12.1-.2-.6-.3-1.3-.2-1.9,1.1-8.7.7-9.3-7.3-11.9-.8-4.5,1-8.3,3-12.1,3.8,0,7.6,0,11.4,0,2.9,0,5.7-2.1,8.6,0,.2,1.7-.6,4.3,2,4.3,2.6,0,1.8-2.6,2-4.3,1.3,0,2.7,0,4,0-.3,2.7.8,3.9,3.6,4,2.8,0,5.3,1.3,6.1,4.2.9,2.9-.4,5.2-2.6,7-2.2,1.8-3,4-3.2,6.9-.9,12.2,1.4,24.2,2.7,36.2,1.5,14.1,2.4,28.4,5.4,42.4.3,1.3.3,2.7,1.8,3.2,4,1.3,4.2,4.6,4.2,8.1,0,27.1,0,54.3,0,81.4,0,3.1.6,6.4-3.6,7.7-1.7.5-1.3,2.5-1.4,3.9,0,10.2,0,20.3,0,30.5,0,1.5-.4,3.5,1.2,4.1,4.6,1.5,3.8,5.2,3.8,8.6,0,3.3-.1,6.6.8,9.9.8,2.9,0,5.4-3.2,6.3-3.8,1-5.3,3.7-4.5,7.1,1.7,7.2,0,13.7-3.1,20.2-2.2,4.8-1.1,10.2-.9,15.3.5,14.4,1.5,28.8-3,42.9-.6,1.7-1,3.5-1.9,5.1-3.3,6-2.8,12.4-1.2,18.8,0,.7,0,1.3,0,2-2.5.4-3.6,1.9-4,4.3-.9,5.2-2.3,10.3-2.8,15.5-.5,5.8-3.2,11.5-1,17.4Z"/>
        <path class="cls-15" d="M143.2,209.6c.3,1,.6,2.1,1,3.1-2.2,1.4-4.4,2.7-5.3,5.3-2.6,3.2-2.6,11.7,0,15,.2.4.4.9.5,1.3-.1,1.6.3,2.5,2.2,2.2h.2c-.7,1.9.5,3.7.4,5.5-5.8,6.9-4.7,19.7,2,24.5-.2,5.2-.3,10.3,2.6,15,1.3,2.1,1.5,4.7,1.4,7.3-.4,20.5-.7,41.1-1,61.6,0,1.5-.4,3.3.3,4.4,2.7,3.9,4.5,7.5-.8,10.8-.5.3-.4,1.5-.5,2.4-1.6,12.1-1,24.2-.9,36.3,0,3.2.3,6.5,3.1,9.5,1.4-3.3,1.9-6.1,1.8-9.1,0-10,0-20,0-30,0-1.5-.5-3.9,1.8-3.9,2,0,1.9,2.3,2.1,3.9,0,.3,0,.7,0,1,0,18.6.5,37.2.8,55.8.6,37.1.1,74.2.2,111.3,0,6-1.2,11.9-1.6,17.8-.6,8.4-1.4,16.9.6,25.3-9.4,3-14.3-.3-15-9.8-1.5-20.5-3.9-40.9-4.6-61.4-.4-13.1-1.7-26.1-2.4-39.2-1-18.9-2.6-37.7-3-56.6,0-1.1,0-2.2-1-3,0-1.7,0-3.3,0-5,.2-8.4,0-16.8-2-25,0-3,0-6,0-9,0-1.4.3-2.9-1-4,0-3.7,0-7.3,0-11,0-1.6.4-3.5-1.9-4.1,0-1,0-2,0-2.9,1-3.8,2.6-7.7-1-11.1,0-4.6,0-9.3,0-13.9.8-.7.8-1.3,0-2,0-7-1.6-13.9-1-21-1.1-17.5-.9-35.1-1.8-52.6-.7-13.9-.4-27.8,1.6-41.7.6-4.4,1.2-9.2-.8-13.7,1.6-7,.8-14.2,1-21.3,0-1.9-.5-4,1-5.7,7.9-.2,15.9.6,23.8-.9,2-.4,4.3-.7,6.2.9-2,3.8-3.8,7.7-3,12.1-1,0-1.9.2-2.9.2-1-1.5-1.7-1.1-2.2.4-2,1-3.7,2.4-5.1,4.2-.7.1-1.4.2-1.4,1.1,0,.3.6.7.9,1,.2.5.5,1,.7,1.6.2.6.4,1.7.6,1.7,5.5.3,3.9,3.8,3.2,6.9-3.8,0-5.6,1.3-3.8,5.3,0,.9-.4,2,.5,2.6.6.5,1.1-.2,1.5-.7.7.3,1.3.7,2,1Z"/>
        <path class="cls-11" d="M181,548c0-.7,0-1.3,0-2,2.6-7.6,4.5-15.8,5.4-23.4,1.5-12.8,6.7-24.5,8.8-37.1,1.6-9.7,5.7-19,7.5-28.6,1.7-9.1,4.9-17.8,7.3-26.7,5-18.9,11.8-37.2,16.6-56.2,1.2-4.9,4.3-9.5,3.4-14.9,3-5.2,4.3-11,5.9-16.7,2.6-9.7,6.2-19.2,7.8-29.1,3.1-19,9.2-37.3,12.6-56.3.2-1.1,1.1-2,1.7-3,.6.6,1.5,1.1,1.6,1.8,1,4.5,3.9,5.8,8.1,5.2,4.6-.7,7.5.8,8.3,5.9.9,5.6,4.5.3,6.5,1.3,0,1.3,0,2.6.1,4,0,.6-.2,1.3-.3,1.9-.3-.1-.6-.1-.9,0-1.5,0-3.1-.2-3.4,1.8-.3,1.8.6,2.8,2.4,3.1-.5,4-2.3,7.8-2.2,12-.4,1.6-.8,3.3-1.1,4.9-.1.7-.3,1.3-.4,2-.2.2-.3.4-.3.6-5.1,14.6-8.9,29.5-12.5,44.4,0,.6-.1,1.3-.2,1.9-.2.1-.3.3-.4.6-2.3,3.4-3.2,7.4-3.5,11.4-.1.5-.2,1-.4,1.5-1,.7-1.5,1.6-.8,2.8-.1.6-.3,1.2-.4,1.8-.9.4-1.1,1.2-.9,2.1-.2.8-.5,1.6-.7,2.4-2.6,3.7-3.3,8.2-4.5,12.4-2,7.4-5.6,14.4-6.3,22.2-.2.7-.3,1.3-.5,2-.8.5-1.1,1.1-.9,2-.6,1.8-1.2,3.7-1.8,5.5-4.3,9.4-6.7,19.5-9.3,29.5-.3,1.1-.6,2.2-.9,3.3-.9.7-1.4,1.5-1,2.7-.4,1.5-.7,3-1.1,4.6-.2.7-.4,1.4-.6,2.1-1,.5-1.2,1.5-1.5,2.4-7,22.5-13.3,45.3-19.4,68-2.4,8.9-5.5,17.6-5.8,26.9h-.4c0,.1-.4,0-.4,0-2.6.1-4.8,2-4.4,3.9,1,5.9-2.1,10.5-3.7,15.6-1.8,5.8-2.8,12.5-11.1,13.1-1.4,0-2.8,1-4.2,1.6-1.6,0-3.3,0-4.9,0,.3-2.1.5-4.2.9-6.3,2-10.3,4.1-20.6,6.1-30.8ZM260,278.4c-.1-1.8,0-3.6-2-3.8-1.8-.2-3.3.8-3.8,2.6-1.1,3.8-2,7.7-2.9,11.5-.2,1-.4,2.1.5,2.7,1.2.8,2.2,0,3.1-.8,3.6-3.4,4.4-8,5.1-12.3ZM260.4,324c.3-2-.7-3.7-2.8-3.6-3.8.1-5.4,2.8-5.5,6.3,0,1.6-.8,4.1,2.2,4,4.1-.2,6.5-2.1,6.2-6.7ZM246.9,343.4c.4,1.1-.3,3.6,1.7,3.1,2.3-.6,4-3,4.8-5.2.5-1.5-1.1-2.9-2.7-2.9-3,0-3.7,2.3-3.8,5ZM261.9,316.2c-1,0-1.7.5-1.6,1.5,0,1.6,1.3,2.3,2.7,2.2.9,0,1.6-.5,1.3-1.6-.3-1.2-1.1-2-2.4-2ZM274.6,284c0-1.2-.6-1.7-1.5-1.6-1.3.1-1.9,1.1-2,2.3,0,.9.1,1.8,1.1,1.7,1.4-.1,2.2-1.2,2.4-2.4Z"/>
        <path class="cls-9" d="M154,586c-2-8.4-1.2-16.9-.6-25.3.4-5.9,1.6-11.8,1.6-17.8,0-37.1.4-74.2-.2-111.3-.3-18.6-.8-37.2-.8-55.8,0-.3,0-.7,0-1-.2-1.6,0-3.9-2.1-3.9-2.3,0-1.8,2.4-1.8,3.9,0,10,0,20,0,30,0,3-.4,5.8-1.8,9.1-2.8-3-3.1-6.3-3.1-9.5,0-12.1-.6-24.3.9-36.3.1-.8,0-2.1.5-2.4,5.3-3.3,3.5-6.8.8-10.8-.7-1.1-.3-2.9-.3-4.4.3-20.5.6-41.1,1-61.6,0-2.6-.1-5.2-1.4-7.3-2.9-4.7-2.8-9.8-2.6-15,3.7.7,7.2.1,10.7-1.1.7,1.3,1.8,3.1,3.2,1.9,1.8-1.5,1.4-3.8-.4-5.5,0-5.4,0-10.8,0-16.1,3.7-1.4,7.2,1,7.4,5.3.2,4.8,0,9.7,0,14.5,0,22,0,44,0,65.9,0,2.9.1,5.6,2.6,7.7,2.1,1.7,1.4,4.4,1.8,6.6,1.1,7.1,1.5,14.3-.4,21.3-1.5,5.5-2.1,11.1-2,16.8.5,24.1-.6,48.2-1.3,72.3-.6,21.5-.2,42.9-.6,64.3,0,3.2-.2,6.3-1.7,9.2-2.9,5.6-3.6,11.6-3.4,17.9.2,7.1-.6,14.2-2.3,21.2-1.4,5.8-.2,11.6.4,17.3-1.3,0-2.6,0-3.9,0Z"/>
        <path class="cls-10" d="M1.1,212.1c1.2-6.3-.1-12.5-.8-18.7-.2-2.5-.7-4.9,0-7.4,3-.3,2.1,3.8,4.6,4.1,0,.6-.2,1.2-.3,1.9-2.9,2.1-2.1,4.6-.8,7.1,0,.6.1,1.3.2,1.9,0,2.4,0,4.8,0,7.2,1.4,3.7,3.7,2.2,5.9,1,1.8-.3,3.3,0,4.6,1.4,1.3,1.8,2.6,1.5,3.9,0,.8-.4,1.6-.7,2.4-1.1,1.2.5,1.9,0,2.3-1.3h0c3.9-3.1-1.3-5.4-.8-8.3.1-1.3.3-2.6.4-3.9,1.6-1.6,1.2-3-.4-4.4-3.5-8.3-2.6-12.3,3.3-15.3.9.2,1.8.4,2.7.6.1,3,.3,6,.4,9.1-1,1.4-1,2.7.2,4,.2,3.3.4,6.7.7,10-1.2,8.2.9,16.1,2.5,24,0,.6.2,1.2.2,1.8-.5,1.2-.4,2.3.5,3.2.1.9.2,1.9.3,2.8-.4,1.5-.5,2.9.7,4.2,0,.6.2,1.2.2,1.9,0,9.3,2.1,18.3,4.9,27.1,0,.6.2,1.2.3,1.8,0,1.1-.2,2.2-.3,3.3-2.9.3-4.8,2.9-8.5,2.5-6.2-.7-11.9-2.2-17.5-4.5-1.7-.7-2.8-.6-3.3,1.3-.4,0-.8,0-1.2-.1-1.2-7.4-2.3-14.7-3.5-22.1.8-1.4.4-2.5-.8-3.5-.9-9-.8-18.1-3-26.9,0-1.6-.2-3.1-.3-4.7Z"/>
        <path class="cls-1" d="M26.9,79.8c1.3,1.6,1.2,3.5,1,5.3-1,9.1,0,18.2-.6,27.3-.9,13.3-.2,26.6-.2,40,0,1.6-.3,3.4.7,4.9.2.7.4,1.4.6,2.1-.1,4.2-.3,8.5-.4,12.7-.9,0-1.6.1-2,1.1-.8.3-1.7.5-2.5.8-2.8-2.4.2-6.6-2.9-8.9-.4-1.9-.9-3.8-3.5-3.6-.9-1.4-2.2-1.2-3.5-.9-5.6,1.2-5.7,1.1-4.2-4.3,5-19.2,10.2-38.4,15.1-57.7.8-3.3,2.5-6.6,1.1-10.2.1-.6.2-1.3.3-1.9,2-1.5,1.3-3.5.9-5.5,0-.4,0-.7,0-1.1Z"/>
        <path class="cls-7" d="M9.8,269.4c.5-2,1.6-2,3.3-1.3,5.6,2.3,11.3,3.8,17.5,4.5,3.8.4,5.6-2.1,8.5-2.5.7,1.3,1.3,2.7,2,4,0,.6,0,1.2.1,1.8-.1,2.6.3,5,1.8,7.2,0,.6.2,1.2.2,1.8.2,2.2.4,4.3,1.7,6.2,0,.6.2,1.2.3,1.9,0,1.1,0,2.1-.1,3.2-3.7-1.3-7,1.7-11,.7-6.1-1.5-12.2-2.7-18.2-4.7-.5,0-.9,0-1.4-.1-.4-1-.8-2-1.2-2.9-.2-.9-.4-1.9-.6-2.8.4-1.5.1-2.9-.9-4.1-.7-4.2-1.4-8.4-2-12.7Z"/>
        <path class="cls-5" d="M152,172.1c-1.9-1.6-4.2-1.3-6.2-.9-7.9,1.5-15.9.6-23.8.9,0-1,0-2.1,0-3.1.6-.3,1.3-.6,1.9-1,10.7,0,21.3,0,32,0,4.7,0,9.3,0,14,0,9.7.1,19.4-.3,29,.9l30,1.1c.8.9,1.9,1,3,.8,5,0,10,.2,15,.2.8.9,1.9,1,3,.8,6,.4,12,.8,18,1.2.9,1.6,2.4,2.6,4.1,2,1.8-.7.7-2.6.9-4,.1-1,.1-2,.1-3,4.5-2,5.5-1.6,5.7,3.4.1,2.5.8,5.2-.9,7.5-2-.5-3.7-3.2-6.1-.8-1,0-1.9-.1-2.9-.2-.9-.4-1.8-.9-2.7-1-20.4-2.4-40.8-2.9-61.3-3.9-8.3-.7-16.6-1.4-25-.9-1.3,0-2.7,0-4,0-1.3,0-2.7,0-4,0-2.8-2.2-5.7-.1-8.6,0-3.8,0-7.6,0-11.4,0Z"/>
        <path class="cls-2" d="M28.4,159.2c-.2-.7-.4-1.4-.6-2.1,2.7-4.9,5.5-9.7,8.3-14.5,2.2-3.8,1.8-9.3,1.8-14.1.2-14.8.1-29.6,0-44.4,0-6.8-2-13.1-6.1-18.6-1.9-2.7-2.1-5.5-1.5-8.5,4.1,2.6,4.5,7.4,6.7,11.1,1.2,2.7.4,6.7,5,7,.3.4.6.7,1,1.1,0,2.6,0,5.2-.1,7.8-.8.2-2.2-.1-2,1.3,0,.4,1.3.6,2,.9.5,9.3-2.4,18.4-1.8,27.7.2,3.3.7,5.9,4,7.2.1,1.2.8,1.9,2,2,.6.3,1.3.7,1.9,1,3.1,5,7.9,7.7,13.1,9.9.6,0,1.2,0,1.9,0,0,1.6,0,3.3.1,4.9-5,5.4-11.4,9.2-16,15-.8.3-1.6.5-2.3,1-5.1,3.4-6.2,2.9-6.8-3.1,0-.7,0-1.3-.3-2-.3-.9-.5-2-1.7-2.2-1.2-.2-1.7.9-2.2,1.7-1.8,3.1-3.9,6.1-4.8,9.7-.6,0-1.1,0-1.7.1ZM42.2,139.7s0,0-.1,0c0,3.2,0,6.3,0,9.5,0,3.7,1.6,4.8,4.5,2.5,4.3-3.4,8.3-7.2,12.2-10.9,1.7-1.6,1.8-3.4-.4-5-3.8-2.9-7.5-5.9-11.2-9.1-3.1-2.7-4.6-1-4.9,2.1-.4,3.6,0,7.3,0,11Z"/>
        <path class="cls-15" d="M116.6,651.1c-.1-1-.2-2-.3-3.1,1-3.1.9-6.1-.3-9.1,1.4-.8,2.2-1.8,1.6-3.5-1.1-5.9,4.3-1.2,5.5-3.4.4,2.1,2.9,1.6,3.9,2.9.2,2.3,2,2.6,3.8,3.2,4,1.5,8.3-.2,12.2,1.6.4.7.7,1.4,1.1,2.1-3.6,0-7.1-1.4-10.8-.9-2,.3-3.7,1.2-4,3.1-.3,2-1.5,4.7,1.9,5.7,2.4,1.1,5.2,1.1,7,3.3-1.9,3-5,4.5-8,6-4.8-1.2-8.9.6-7.5,3.1,1.5,2.7.8,5.4,1.5,8.1.9,3.6-.5,7.8,3,10.6-4.6.6-7.4-3.2-11-4.9-1.4-7.2-2.4-14.4.3-21.5.5-.5,1-1,1.5-1.6,2-.2,3.4-.9,3.6-3.2-1.9-.6-2.8.5-3.7,1.7-.4,0-.8-.2-1.3-.3Z"/>
        <path class="cls-11" d="M45,296c0-1.1,0-2.1.1-3.2,2.9,3.3,3.2,7.5,4,11.5,1.6,8.3,4.7,16.2,5.6,24.6-.4.1-.8.3-1.2.4-1.8-5-3.9-9.9-5.1-15-.7-2.9-1.8-4.1-4.6-4.9-6.9-1.8-13.8-3.5-20.8-5-3.6-.8-4,.3-3.3,3.5,2.9,13.8,4.9,27.8,9,41.3.7,2.3,1.9,4.7.7,7.3-3.6-7.4-4.8-15.5-6.6-23.3-2.9-12.6-5.3-25.3-6.9-38.2,1.8,0,3.5.5,5.3,1,4.9,1.3,9.7,3.4,14.9,3,3.6-.3,7.4-1.3,10,3.1,1-2.9,0-4.5-1.1-6.1Z"/>
        <path class="cls-5" d="M23.4,173.8c.8-.3,1.7-.5,2.5-.8.7,0,1.5,0,2.2,0,.3.7.5,1.4.8,2.1-1.3-.1-2.5,0-3.2,1.2-5.9,2.9-6.8,7-3.3,15.3-.4,1.5-.6,3,.4,4.3-.1,1.3-.3,2.6-.4,3.9-1.9,1.1-3.4,2.4-.9,4.4,1.3,1,1.5,2.4,1.6,3.9,0,0,0,0,0,0-1,0-1.8.4-2.3,1.3-.8.4-1.6.7-2.4,1.1-1.3,0-2.6,0-3.8,0-1.3-1.3-2.8-1.7-4.6-1.4,0-.7,0-1.4,0-2.1.9-.7,1.2-1.7,1.2-2.8,1.8-1.1,4.6,2.9,5.8-1.2-.2-2.5-2.9-2.3-4.1-3.8.1-1.2-.5-1.9-1.5-2.3v-5.8c.7-.8.8-1.9.7-3,1.5-1.7.8-3.8,1-5.7.7-6.8-2.4-14.4,4-20.1.2-.1,0-.6,0-1,2.5-.1,3,1.8,3.4,3.6-.1,2.5-.3,4.9-.3,7.4,0,2.4.9,3.7,3.2,1.5Z"/>
        <path class="cls-11" d="M73.4,490.5c-3.7-7.6-5.4-16-7.5-24.1-7-26.4-18.9-51.1-27.2-77-3.3-10.4-7.2-20.6-9-31.4,3.8,3.9,4,9.3,5.5,14,6.2,18.9,12.2,37.9,19.9,56.2,6.5,15.5,10.8,31.7,15.2,47.8,1.3,4.7,3.9,9.2,3.1,14.4Z"/>
        <path class="cls-5" d="M135,635c5.5-1,5.6-4.5,3.9-8.7-4.2-9.9-5.2-20.8-9.4-30.7-.3-.7-.4-1.6-.4-2.4,0-2.4-.1-5.4,2.7-5.6,3.1-.2,2.9,2.8,3.2,5.1,1.7,12.6,4.9,24.9,9.1,36.9.6,1.7,1.7,2.4,3.5,1.9,3.2-1,4.3.4,4.4,3.4-2,.4-4.1.8-6.1,1.2-3.6-.7-7.4.8-10.9-1.1Z"/>
        <path class="cls-5" d="M120,199c2,4.5,1.4,9.3.8,13.7-2,13.9-2.3,27.8-1.6,41.7.9,17.5.7,35.1,1.8,52.6-1.6-.4-2-1.6-2-3,.1-4.5-.8-8.9-.9-13.4-.2-21.1-2.5-42.2-.9-63.2.7-9.5-1.2-19.3,2.7-28.4Z"/>
        <path class="cls-4" d="M121,134.1c-.1-8.2-.2-16.5-.3-24.7.2-4.4,1.2-8.9-.7-13.3-.7-9.7-1.2-19.3-.8-29,.5-1.7,1.1-3.4,1.6-5.1.5-1.7-.6-4.2,2.3-4.8,0,11.7,0,23.3,0,35,.1,17.6.3,35.3.4,52.9-2.4-.9-1.4-3-1.6-4.7-.3-2.1.6-4.3-1-6.2Z"/>
        <path class="cls-15" d="M42,75.1c-4.5-.3-3.8-4.3-5-7,2.4-.9,3.1-2.6,3-5.1-.3-9.9,1.7-19.8,1-29.8-.2-2.9.9-4.5,4-4.1,0,8.7,0,17.3,0,26,0,.7,0,1.3,0,2-.3.7-.7,1.3-1,2-1.9,0-3.1.7-2.5,3,1.1,4.3.4,8.7.5,13.1Z"/>
        <path class="cls-9" d="M178.8,585.2c1.4-.6,2.7-1.5,4.2-1.6,8.2-.6,9.2-7.2,11.1-13.1,1.6-5.1,4.7-9.7,3.7-15.6-.3-1.9,1.9-3.8,4.4-3.9,0,1,0,2,0,3-.7.6-.8,1.3-.4,2.1-.2,1-.4,2-.6,2.9-.7.5-.9,1.2-.6,2.1-.2,1.3-.4,2.6-.6,3.9-.7.6-.9,1.3-.6,2.1-.4,2.3-.8,4.7-1.2,7-1.7,1.6-.5,4.3-2.1,6-1.1-1-2-3.5-3.2.2-1.8,5.8-8.3,8-14.2,5Z"/>
        <path class="cls-2" d="M123.1,57.1c-2.8.6-1.8,3.1-2.3,4.8-.5,1.7-1.1,3.4-1.6,5.1-1.3-7.3-2.6-14.5-1-21.9,1.8,1.7-.5,6.4,2.6,6,2.6-.4,1.1-4.5,1.2-7,.3-5.7.3-11.5.3-17.2.4.5,1.2,1,1.3,1.4.2,9.6,1.3,19.2-.5,28.7Z"/>
        <path class="cls-13" d="M181,548c-2.1,10.3-4.1,20.5-6.1,30.8-.4,2.1-.6,4.2-.9,6.3-.3,0-.5,0-.8.1-2.2-5.9.5-11.6,1-17.4.5-5.2,1.9-10.3,2.8-15.5.4-2.4,1.6-3.9,4-4.3Z"/>
        <path class="cls-6" d="M184.9,609.8c-1.7,4.9-7.1,7.6-7.8,13.1-1.3,3.3-3.1,5.4-6.8,2.5.3-1,.6-1.9,1-2.9.5-.2,1-.5,1.4-.7,1.7-.2,2.1-1.1,1.5-2.6,0-.4,0-.9,0-1.3.5-.3,1-.6,1.5-.9,1.3-.2,2.3-.5,1-2,0-.6.2-1.1.3-1.7,1.5-1.1,2.7-2.4,2.9-4.3.5-.8.9-1.6,1.4-2.4,1.2-.6,1.9-1.4,1.7-2.8.2-.4.5-.8.7-1.1.4,0,.7.2,1.1.3,1.1.2,1.9.7,1.1,1.8-1.2,1.5-1,3.3-1.1,5Z"/>
        <path class="cls-5" d="M30.1,159.1c.9-3.6,3.1-6.5,4.8-9.7.5-.8,1-1.9,2.2-1.7,1.2.2,1.4,1.3,1.7,2.2.2.6.2,1.3.3,2,.6,6.1,1.6,6.5,6.8,3.1.7-.4,1.5-.6,2.3-1-.3,3.1-3,4.7-4.5,7-1.7,2.5-4.8-.4-5.3-1.4-2.7-4.6-5.3-2.8-8.1-.5Z"/>
        <path class="cls-2" d="M121,134.1c1.6,1.8.8,4.1,1,6.2.2,1.7-.7,3.8,1.6,4.7.1,1.7.2,3.5.3,5.2,0,6,0,11.9,0,17.9-.6.3-1.3.6-1.9,1-1.4-1.9-.4-3.8-.2-5.7.6-6.1-.4-12.1-1.2-18.1-.5-3.7-1.2-7.4.4-11.1Z"/>
        <path class="cls-11" d="M83.4,528.5c-3.1-9-6.4-18-8-27.4-.5-3.1-2.3-5.9-1.6-9.2,1.1.5,1.7,1.4,2,2.6,2.6,10.2,5.3,20.4,7.8,30.6.3,1-.2,2.2-.3,3.4Z"/>
        <path class="cls-4" d="M94,584c-4.7,0-6.4-2.4-5.7-7,1.4-8.7.8-17.4-.1-26.1,3.1,2.9,2.3,7,2.7,10.6.4,4.3.3,8.6,0,12.9-.4,3.8-.5,7.3,3.3,9.6Z"/>
        <path class="cls-4" d="M135,635c3.5,1.9,7.3.4,10.9,1.1,0,.9,0,1.9,0,2.8-1,.3-2,.6-3,.9-3.9-1.8-8.2-.1-12.2-1.6-1.8-.7-3.6-.9-3.8-3.2,2.7,0,5.3,0,8,0Z"/>
        <path class="cls-5" d="M126,386c2,8.2,2.1,16.6,2,25-1.9-.5-2-2-2-3.5.3-5-.5-9.9-1.8-14.8-.6-2.3-1-5,1.7-6.7Z"/>
        <path class="cls-11" d="M39.2,265c-2.9-8.8-5-17.8-4.9-27.1,2.2,1,1.4,3.1,1.7,4.8,1.1,5.9,2.3,11.7,3.5,17.5.3,1.6.9,3.2-.3,4.8Z"/>
        <path class="cls-11" d="M32.2,224c-1.5-7.9-3.7-15.8-2.5-24,2.6,7.8,3.5,15.8,2.5,24Z"/>
        <path class="cls-2" d="M146,638.9c0-.9,0-1.9,0-2.8,2-.4,4.1-.8,6.1-1.2,2.7,0,5.3,0,8,0-.3,3.6-3.5,3.2-5.7,3.6-2.7.5-5.6.3-8.4.4Z"/>
        <path class="cls-5" d="M62,134.1c-5.2-2.2-10-4.9-13.1-9.9,6.9,0,10.1,4.8,13.1,9.9Z"/>
        <path class="cls-5" d="M42,75.1c0-4.4.6-8.8-.5-13.1-.6-2.3.6-2.9,2.5-3-.2,5.7.8,11.5-1.1,17.1-.3-.4-.6-.7-1-1.1Z"/>
        <path class="cls-4" d="M117.7,623.2c-4.4-3-4.9-8.8-8.7-12.2-.4-1.3-.7-2.6-1.1-3.9,4.8,4.5,7.6,10.1,9.8,16.2Z"/>
        <path class="cls-11" d="M87,545c-1.9-4.8-3.3-9.8-3.3-15,3.1,4.6,4.3,9.6,3.3,15Z"/>
        <path class="cls-2" d="M120,96.1c1.9,4.3.8,8.8.7,13.3-2.7-4.3-1.8-8.8-.7-13.3Z"/>
        <path class="cls-5" d="M122.1,344c3.6,3.4,2,7.3,1,11.1-2-3.5-.6-7.4-1-11.1Z"/>
        <path class="cls-6" d="M196.2,580c1.6-1.7.3-4.3,2.1-6,1.3,3.4,1.1,6.5-1.9,9-.2-.4-.4-.7-.6-1.1.1-.6.3-1.3.4-1.9Z"/>
        <path class="cls-5" d="M64,139.1c0-1.6,0-3.3-.1-4.9,1.9.2,3.7.9,3.6,3.1-.1,1.9-2,1.7-3.4,1.8Z"/>
        <path class="cls-11" d="M41.1,274c-.7-1.3-1.3-2.7-2-4,0-1.1.2-2.2.3-3.3,2.4,2,3.1,4.4,1.7,7.2Z"/>
        <path class="cls-4" d="M100.6,594.4c-2.2-1.6-2.9-3.9-3.6-6.4,3.3.9,3.6,3.6,3.6,6.4Z"/>
        <path class="cls-11" d="M43,283c-1.4-2.2-1.9-4.6-1.8-7.2,2,2,2.9,4.4,1.8,7.2Z"/>
        <path class="cls-4" d="M107.6,606.4c-2.3-1.5-3.1-3.9-3.7-6.3,2.9,1.1,3.6,3.6,3.7,6.3Z"/>
        <path class="cls-9" d="M184.9,603c-.4,0-.7-.2-1.1-.3.3-2.4.1-5.2,3.6-5.4.7,2.6-2.8,3.4-2.5,5.7Z"/>
        <path class="cls-11" d="M44.9,291c-1.3-1.9-1.5-4-1.7-6.2,2,1.7,3.2,3.6,1.7,6.2Z"/>
        <path class="cls-4" d="M103.6,599.4c-1.7-.9-2.4-2.5-2.7-4.3,2.4.5,2.9,2.2,2.7,4.3Z"/>
        <path class="cls-9" d="M180,609c-.2,1.9-1.4,3.2-2.9,4.3-.3-2.3.3-4,2.9-4.3Z"/>
        <path class="cls-5" d="M125,373c1.2,1.1,1,2.6,1,4-2.5-.8-2.3-2.3-1-4Z"/>
        <path class="cls-5" d="M123,358c2.3.6,1.9,2.4,1.9,4.1-2.3-.6-1.9-2.4-1.9-4.1Z"/>
        <path class="cls-11" d="M34,236c-1.2-1.2-1.1-2.7-.7-4.2,1.9,1.1,1.9,2.5.7,4.2Z"/>
        <path class="cls-11" d="M29.1,190.1c-1.2-1.3-1.2-2.6-.2-4,1.4,1.3,1.4,2.6.2,4Z"/>
        <path class="cls-2" d="M119.1,31.1c1.1,1.4,1.2,2.7-.1,4-1.1-1.4-1.1-2.7.1-4Z"/>
        <path class="cls-11" d="M33,229c-.9-.9-1-2-.5-3.2,1.4.9,1.8,1.9.5,3.2Z"/>
        <path class="cls-15" d="M42.8,86.2c-.7-.3-2-.5-2-.9-.2-1.4,1.2-1.1,2-1.3,0,.7,0,1.5,0,2.2Z"/>
        <path class="cls-9" d="M195.8,581.9c.2.4.4.7.6,1.1-.5,1-.7,2.2-2,2.6-.4-1.6-.5-3,1.4-3.7Z"/>
        <path class="cls-11" d="M25.8,176.4c.8-1.3,2-1.3,3.2-1.2-.2.6-.4,1.2-.6,1.8-.9-.2-1.8-.4-2.6-.6Z"/>
        <path class="cls-5" d="M128,416c1,.8,1,1.9,1,3-1.9-.5-2.3-1.5-1-3Z"/>
        <path class="cls-9" d="M183.1,603.8c.2,1.4-.5,2.2-1.7,2.8-.5-1.6.1-2.5,1.7-2.8Z"/>
        <path class="cls-9" d="M175.9,616.9c-.5.3-1,.6-1.5.9-.7-1.6-.2-2.6,1.6-2.9v2Z"/>
        <path class="cls-5" d="M122,328c.9.7.9,1.3,0,2-.9-.7-.9-1.3,0-2Z"/>
        <path class="cls-5" d="M47,123.1c-1.2-.2-1.9-.8-2-2,1.2.1,1.9.8,2,2Z"/>
        <path class="cls-9" d="M169,626c0,1.2-.6,2-1.7,2.5-.2-1.4.3-2.2,1.7-2.5Z"/>
        <path class="cls-1" d="M174.3,619.2c.6,1.5.2,2.5-1.5,2.6,0-.6.1-1.3.2-1.9.5-.2.9-.5,1.4-.7Z"/>
        <path class="cls-9" d="M172.9,619.9c0,.6-.1,1.3-.2,1.9-.5.2-1,.5-1.4.7-.3-1.4.2-2.3,1.6-2.6Z"/>
        <path class="cls-5" d="M45,57.1c0-.7,0-1.3,0-2,.6.1,1.4.2,1.4,1,0,.8-.8.9-1.4,1Z"/>
        <path class="cls-1" d="M175.9,616.9v-2c.4-.1.7-.1,1,0,1.3,1.5.3,1.8-1,2Z"/>
        <path class="cls-2" d="M28.2,173.1c-.7,0-1.5,0-2.2,0,.3-1,1.1-1.1,2-1.1,0,.4.2.8.2,1.2Z"/>
        <path class="cls-4" d="M45,296c1.1,1.6,2.2,3.3,1.1,6.1-2.6-4.5-6.4-3.4-10-3.1-5.2.4-10-1.7-14.9-3-1.8-.5-3.4-1.1-5.3-1-.2-.2-.3-.4-.4-.7.1-.8.2-1.5.4-2.3,5.9,2,12.1,3.2,18.2,4.7,4,1,7.3-2,11-.7Z"/>
        <path class="cls-12" d="M9.8,269.4c.7,4.2,1.4,8.4,2,12.7-1,1.6-1.1,3.1.9,4.1.2.9.4,1.9.6,2.8-2.7,2.5.2,6.5-2.3,9.1-3.5-2.6-2.7-7.3-2.3-10,.7-5.5.5-10.7-.6-16-.2-.9.3-1.9.5-2.8.4,0,.8,0,1.2.1Z"/>
        <path class="cls-3" d="M84.8,594.2c-3.4-2.8-1.1-4,1.5-5.1,1.4,1.6,1,5.2,4.8,3.9.2,2.7,0,5.4,1,8-2.3-.4-2.4-3-4.1-4.1.1-2.3-1-3.1-3.2-2.7Z"/>
        <path class="cls-5" d="M91.1,593c-3.8,1.3-3.4-2.3-4.8-3.9-.2-.7-.3-1.4-.5-2.2.2-2.1,1.7-2.3,3.3-2,1.3.2,1.9,1.3,1.9,2.5,0,1.8,0,3.7,0,5.5Z"/>
        <path class="cls-3" d="M105,619c-2.3-2-2.8-5.3-5.5-7-.8-2.8.6-3.1,2.5-1.8,1.3.9,2.2,2.4,3.2,3.7,0,1,.7,1.7,1.6,2.1.2.5.4,1.1.6,1.6-.1.9-.3,1.7-.4,2.6-.7-.4-1.4-.8-2.1-1.2Z"/>
        <path class="cls-12" d="M15.9,328.1c-3.6-2.4-1.2-6.1-1.8-9.1,3.8,2.4,1.4,6,1.8,9.1Z"/>
        <path class="cls-7" d="M78.2,567c-1.3-1.4-2.5-2.9-1.4-5,1.3,1.4,2,3,1.4,5Z"/>
        <path class="cls-12" d="M16,335c-1.4-1.6-1.3-3.3-.2-5,1.7,1.6,1.6,3.3.2,5Z"/>
        <path class="cls-12" d="M17,341c-1.1-.8-2.4-1.5-.9-3,2,.5,2.4,1.5.9,3Z"/>
        <path class="cls-12" d="M12.9,304.2c-1.7-.4-1.9-1.7-1.8-3.2,1.8.4,2,1.6,1.8,3.2Z"/>
        <path class="cls-7" d="M79.4,572.2c-1.2-1-1.4-2.2-.9-3.6,1.2,1,1.4,2.2.9,3.6Z"/>
        <path class="cls-7" d="M80.7,577.2c-1.4-.7-1.9-1.7-.9-3.2,1.1.8,1.3,1.9.9,3.2Z"/>
        <path class="cls-10" d="M15.9,292c-.1.8-.2,1.5-.4,2.3-.9-.6-1.3-1.4-1-2.4.5,0,.9,0,1.4.1Z"/>
        <path class="cls-12" d="M14,317c-.8-.6-.9-1.3,0-2,1,.6,1,1.3,0,2Z"/>
        <path class="cls-7" d="M76.4,560.2c-1-.6-1.3-1.5-.9-2.6,1,.6,1.3,1.5.9,2.6Z"/>
        <path class="cls-12" d="M256.6,367.6c.2-.8.5-1.6.7-2.4.6,0,1.1,0,1.7-.1,1.7,4.7-.5,9.3-1.8,13.4-4.6,14.5-8.5,29.2-13.5,43.5-3.2,9.2-6.8,18.3-9,27.8-.5,2.3-2.4,2.4-4.4,2,.4-1.5.7-3,1.1-4.6,1.2-.5,1.5-1.5,1-2.7.3-1.1.6-2.2.9-3.3,5.1-9.2,7-19.4,9.3-29.5.6-1.8,1.2-3.7,1.8-5.5,1.1-.3,1.6-.9.9-2,.2-.7.3-1.3.5-2,3.9-6.1,5-13.2,7-19.9,1.4-4.8,4.1-9.4,3.8-14.7Z"/>
        <path class="cls-6" d="M202.9,551.1c.4-9.3,3.4-18,5.8-26.9,6.2-22.8,12.4-45.5,19.4-68,.3-1,.5-1.9,1.5-2.4.3,7.2-3.2,13.4-4.9,20.1-4.6,17.6-10.9,34.6-14.1,52.6-1.2,6.6-4.5,12.7-5.5,19.4-.8,1.7-.8,3.8-2.2,5.3Z"/>
        <path class="cls-6" d="M263.9,343c3.5-15,7.4-29.9,12.5-44.4.2,8-3.2,15.3-4.8,23-1.4,6.6-3.7,13-5.6,19.5-.7.7-1.3,1.3-2,2Z"/>
        <path class="cls-12" d="M278.3,291.1c-.1-4.1,1.7-7.9,2.2-12,.3-1.6.7-3.3,1-4.9.3-.2.6-.2.9,0,.3,5.8-1.4,11.3-2.5,16.9-.5,0-1.1,0-1.6,0Z"/>
        <path class="cls-6" d="M259.9,357c.4-4.1,1.2-8,3.5-11.4.2.8.4,1.6.6,2.5-1.3,1.1-1.1,2.6-1.1,4-.6,1.7-1.2,3.4-1.8,5-.4,0-.8,0-1.3,0Z"/>
        <path class="cls-12" d="M259.9,357c.4,0,.8,0,1.3,0,1.2,1.8,1.2,3.2-1.1,4-.2-.9-.3-1.8-.5-2.6.1-.5.2-1,.4-1.5Z"/>
        <path class="cls-12" d="M262.9,352c0-1.4-.2-2.9,1.1-4,1.2,1.8,1.4,3.2-1.1,4Z"/>
        <path class="cls-12" d="M263.9,343c.7-.7,1.3-1.3,2-2,0,1.7.4,3.6-2.2,3.9,0-.6.1-1.3.2-1.9Z"/>
        <path class="cls-12" d="M276.7,298c.1-.7.3-1.3.4-2,.6.1,1.3.4,1.1,1.1-.2.4-1,.5-1.5.8Z"/>
        <path class="cls-6" d="M259.5,358.5c.2.9.3,1.8.5,2.6-.5,0-.9.1-1.4.2-.7-1.2-.2-2.1.8-2.8Z"/>
        <path class="cls-6" d="M259.1,365c-.6,0-1.1,0-1.7.1-.2-.9,0-1.6.9-2.1.3.7.5,1.3.8,2Z"/>
        <path class="cls-1" d="M154,759.9c3.8-2.7,7.2-.9,9,4.6,1.7,5.2,3.2,10.4,4.4,15.8.3,1.4.4,3.1,2,3.8.4,3.2.8,6.4,1.1,9.6-1.3,5.7,0,11.5-1,17.7-1.5-2.4,0-5.8-3.5-6.4-.1-.2-.2-.5-.3-.7.2-1.4-.4-2.1-1.8-2.1-1.7-1.7-3.3-3.3-5-5,0-1.5-.9-2.1-2.4-1.8-.6-.4-1.1-.8-1.7-1.1-2.4-4-6-5.4-10.5-4.5-1.1-.1-2.2-.2-3.3-.4-.5-.7-1.3-1.1-1.8-.1-.5,1.1.2,1.7,1.3,2,.2,1,.4,1.9.7,2.9-1.3.8-2.4.3-3.2-.8-3.5-4-.5-7.5.9-11.1.8-5,5.1-8.7,5.2-13.9,0,0,.5,0,.5,0h.5c1.2-.3,1.8-1,1.8-2.2.3-.7.6-1.3.9-2,.5,3,1.9,1.9,4.1,1.5,4.4-.7,1.9-3.5,2.1-5.4ZM145.4,776.4c-.2,1.8.7,3.4,2.4,4.4,2.3,1.5,4.3,3.2,5.7,5.5,1.8,2.9,4.9,4.4,6.9,7.1.9,1.2,2.8,2.1,4.5.8,1.6-1.2,1.4-3,.3-4.5-1.3-1.7-1.6-3.9-1.5-5.7.7-8.5-6.1-11.4-11.3-15.5-1.7-1.3-3.3-.6-4.7,1.1-1.7,1.9-1.4,4.4-2.1,6.7Z"/>
        <path class="cls-7" d="M191,808.9c-2.4,4.9-2,10.2-2,15.5,0,.8-.2,2.3-.4,2.3-5,.8-7.5,7.2-13.3,6.1.2-5.1-1.5-9.7-4.4-13.9.6-1.1,1.2-2.2,1.8-3.3.2-.4.5-.9.7-1.3.5-.2.9-.4,1.4-.6,2.4.6,4.3,0,6.5-1.2,3.1-1.6,5.9-4.2,9.8-3.6Z"/>
        <path class="cls-1" d="M191,808.9c-3.9-.6-6.7,2-9.8,3.6-2.1,1.1-4.1,1.8-6.5,1.2,1-2.6,3.3-4.1,5.3-5.8,4-2.2,8.3-1.1,12.4-.7.2,1.1-.5,1.5-1.4,1.7Z"/>
        <path class="cls-12" d="M173.2,814.3c-.2.4-.5.9-.7,1.3-.8-.2-1.6-.5-2.4-.7-1.6-.9-3.1-1.8-3.3-3.9-.3-2-.5-4.1-.8-6.1,3.5.6,2,4,3.5,6.4,1.1-6.2-.3-12.1,1-17.7,2.5,3.4.9,7.4,1.4,11.1.4,3.2-1.1,6.7,1.3,9.6Z"/>
        <path class="cls-15" d="M153.7,843.1c0-.7.2-1.5.3-2.2,4-2.1,4.3-6.4,6.1-9.9,3.9,0,7.8-1.1,11.7,0,0,.3,0,.6,0,.8-.7.7-.7,1.3,0,2-.3,2.3-.5,4.6-.8,7-.2.3-.3.5-.4.8-.5,0-1.1.1-1.6.2-2,.2-2.3,2-3.3,3.2-3,3.7-5.4,8.6-11.6,7.8-1.3-1.8-1.2-3.9-1.2-6,3,.1,4.6-1.5,6-4.6-2.3.4-3.8.6-5.2.9ZM162.3,837.7c3.1-.3,4.8-1.8,4.4-6-2,2.6-3.2,4.3-4.4,6Z"/>
        <path class="cls-1" d="M170.9,840.9c.3-2.3.5-4.6.8-7,.9-.7,1-1.3,0-2,0-.3,0-.6,0-.8.3-1.3.4-2.6-1.2-3.2.1-3.1-.9-6-1.7-8.9.7,0,1.3,0,2,0,2.9,4.2,4.6,8.7,4.4,13.9,0,1.3-.1,2.6-.2,4,0,2.8,1.3,3.3,3.8,2.8,6.6-1.3,11.9-5,16.9-9,4.8-3.9,10.8-6.6,13.4-12.8.7.6,1.4,1.2,2.1,1.9-1.7,5-6.8,6.9-10,10.5-1.7,1.9-4,3.3-6.1,4.9-2,.9-4.1,1.7-4,4.4,0,.1-.2.4-.2.4-5.7-.1-10.3,2.8-15.1,5.3-1.4.7-2.1-.4-2.4-1.6-.3-1.4-.6-2.6-2.4-2.6Z"/>
        <path class="cls-6" d="M166,864c-3.9,0-5.5,3.6-7.8,5.7-2.7,2.6-6.9,3.4-8.3,7.3-.7-.3-1.4-.6-2.1-.9.2-4.4,2.1-7.7,5.9-10.1,2.9-1.8,5.7-3.8,8.4-6,1.7-1.4,2.9-3.1-.3-4.3,1.1-2.2,4.2-2.9,4.1-5.9.3-.4.6-.9.9-1.3.6,0,1.2,0,1.8,0-.3,3.1,1.8,5.2,3.2,7.6-2.4.3-2.9,1.8-2.6,3.9-.2,2-2.1,2.6-3.1,4Z"/>
        <path class="cls-7" d="M168.6,848.5c-.6,0-1.2,0-1.8,0,.7-2.2,1.4-4.4,2.1-6.6.5,0,1.1-.1,1.6-.2.2,2.5-1,4.6-1.9,6.8Z"/>
        <path class="cls-10" d="M191,839.4c0-2.7,2-3.5,4-4.4.3.7.6,1.4.9,2.1-1.3,1.6-3.1,2-5,2.4Z"/>
        <path class="cls-1" d="M169.2,860c-.3-2.1.2-3.7,2.6-3.9.4.6.8,1.2,1.3,1.8-1.3.7-2.6,1.4-3.9,2.2Z"/>
        <path class="cls-10" d="M197.9,836.7c.4-1.6,1.7-1.8,3-1.8-.3.7-.7,1.4-1,2-.7,0-1.4-.2-2-.3Z"/>
        <path class="cls-7" d="M17.1,161.2c0,.3.1.8,0,1-6.4,5.7-3.3,13.3-4,20.1-.2,1.9.5,4-1,5.7-.7,0-1.3,0-2,0-1.7.7-3.3,1.3-5,2-2.5-.2-1.7-4.3-4.6-4.1,0-.6.1-1.2.2-1.8,1.1-.3,2.4-.3,3.2-.9,1.8-1.4,1.4-3.6,1-5.5-.5-2.2-2-.8-3.1-.5-.4-.2-.9-.3-1.3-.5.2-1.7-.4-3.5.6-5.1,4.1-1.6,3.2-5.7,4-8.7,6.6-24.1,12.8-48.2,19.1-72.4.3-1,.4-2,1.4-2.5,1.4,3.6-.3,6.9-1.1,10.2-4.9,19.3-10.1,38.4-15.1,57.7-1.4,5.5-1.4,5.5,4.2,4.3,1.4-.3,2.6-.5,3.5.9Z"/>
        <path class="cls-7" d="M26.8,80.8c.4,1.9,1,3.9-.9,5.5-.6-2-1.1-3.9.9-5.5Z"/>
        <path class="cls-3" d="M29.6,29.9c.5,1.5.7,3-.6,4.2-1.3-1.6-1.1-3,.6-4.2Z"/>
        <path class="cls-16" d="M162.2,884.7c.9.5,1.8,1,2.7,1.4,4.9,3.3,4.1,9.3,6,13.9.8,1.8,0,4.1-1.2,5.7-5.7,7.2-11.8,13.9-21.5,15.4-3.2.5-5.8,3.4-9.4,2.6.1-2.2.7-3.5,3.4-4,4-.7,7.9-2.1,6.9-7.6-.1-.7,0-1.8.6-2.4,6.1-6.5,5.7-15.7,10-22.9.3-.5.2-1.3.2-2,.7,0,1.5-.1,2.2-.2Z"/>
        <path class="cls-12" d="M161.8,855.8c3.2,1.2,2,2.9.3,4.3-2.7,2.1-5.5,4.1-8.4,6-3.8,2.4-5.7,5.7-5.9,10.1-3.3-1.3-5.5-3.3-4.9-7.2,3.3-.7,6.1-2.6,8.9-4.3,2.3-1.4,1.4-2.5,0-3.8,3.3-1.7,6.5-3.4,9.8-5.1Z"/>
        <path class="cls-16" d="M151.2,878.7c1.1,0,1.8.8,2.4,1.6-1.5.5-2.3,0-2.4-1.6Z"/>
        <path class="cls-12" d="M156.6,881.7c1.5-.7,2.2-.1,2.3,1.4-1.1,0-1.8-.4-2.3-1.4Z"/>
        <path class="cls-12" d="M162.2,884.7c-.7,0-1.5.1-2.2.2-.1-.5-.2-1-.4-1.5,1.4-.5,2.1.2,2.6,1.3Z"/>
        <path class="cls-16" d="M118.3,894.1c0-.9,0-1.6.8-2.2,1,1.2.1,1.7-.8,2.2Z"/>
        <path class="cls-3" d="M205,173.1c20.4,1.1,40.9,1.5,61.3,3.9.9.1,1.8.7,2.7,1-1.4,1.5-.9,3.3-1,5-2.7,1.3-3,3.6-3.1,6.2-.1,4.9-.4,9.9-.5,14.8,0,7.8-2.5,15.2-2.5,22.9,0,2.3,0,4.7,0,7-1.1,1.9-2.1,3.8-1,6,0,.7,0,1.3,0,2-4.2,2.4-2.6,6.5-3,10,0,.7,0,1.3,0,2-.6,1-1.5,1.9-1.7,3-3.4,18.9-9.4,37.2-12.6,56.3-1.6,9.9-5.2,19.4-7.8,29.1-1.5,5.7-2.9,11.5-5.9,16.7-3.3-2.4-2.2-8.2-7.5-9.1-.7-.1-.2-1.8,0-2.8.3-2.1.5-4.3.5-6.4,0-21.8,0-43.6,0-65.4,0-3.8-.5-7.4-2.5-10.5-8.3-13.4-11.2-28.9-16.5-43.4-.8-2.2-1.6-4.4-3.3-6-6-5.6-8-12.5-6.8-20.5.2-1.3-.2-3,1.2-3.6,4.3-1.8,5-5.3,5.2-9.3,0-1.6,1.2-3.2,2.6-4.1,1.8-1.2,2.2-2.8,2.1-4.7Z"/>
        <path class="cls-11" d="M262,227.1c0-7.7,2.4-15.1,2.5-22.9,0-4.9.4-9.9.5-14.8,0-2.7.4-5,3.1-6.2,2.1,1.5-.6,6.1,3.9,6,0,.3,0,.7,0,1-2.6,1.4-1.8,3.8-2,6-1.6,1.6-2.4,2.9.9,3h.2c0,1.5-.2,3.2-.2,4.8-.3.3-.6.7-.9,1-.3,0-.7,0-1,0-3.3,0-2.9,2.5-2.9,4.6.1,5.1,0,10.2-1.9,15-.5,1.1-.7,2.2-2.1,2.4Z"/>
        <path class="cls-2" d="M287.9,207.1c.2,4.3-1.9,4.8-5.3,3.2-.9-.4-1.8-.8-2.7-1.2.4-2.7-1.9-4.1-3.1-6,2.3-2.4,3.2-5.3,3.1-8.6-.1-2.4,0-4.7,2-6.4,2,0,4,0,5.9,0,.4,0,.7,0,1.1,0,.7,1.6,0,2.5-1.5,2.9-1.9.5-2.7,2-3.7,3.7-3.6,5.9,1.2,8.8,4.1,12.3Z"/>
        <path class="cls-3" d="M287.9,207.1c-2.9-3.6-7.7-6.5-4.1-12.3,1-1.6,1.8-3.1,3.7-3.7,1.6-.4,2.2-1.3,1.5-2.9.6,0,1.3,0,1.9-.1.2,2-.4,3.9-1.2,5.7-.8,1.7-1.4,3.5,1.1,4.4,0,2.3,0,4.6,0,6.9-1.4,0-2.6.4-2.9,2.1Z"/>
        <path class="cls-5" d="M276.9,203.1c1.1,1.9,3.5,3.2,3.1,6-4.1,3.3-7.1.6-10.1-2,0-.7,0-1.4,0-2.1.3-.3.6-.7.9-1,2-.3,4.1-.6,6.1-.9Z"/>
        <path class="cls-11" d="M258,252c.4-3.5-1.2-7.6,3-10-1.3,3.2.6,7.4-3,10Z"/>
        <path class="cls-16" d="M286.6,251.5c.3,2.7,1.5,5.5-1.3,7.6-.5-2.7,0-5.2,1.3-7.6Z"/>
        <path class="cls-11" d="M260.9,240c-1.1-2.2,0-4.1,1-6,1.7,2.3.1,4.1-1,6Z"/>
        <path class="cls-12" d="M282.6,272.3c0-1.3,0-2.6-.1-4,.4,0,.7,0,1.1-.1.8,1.6.6,3-1,4.1Z"/>
        <path class="cls-15" d="M269.9,205c0,.7,0,1.4,0,2.1-.4-.7-.7-1.4-1.1-2.1.3,0,.7,0,1,0Z"/>
        <path class="cls-1" d="M103.9,785.4c.4-.5.9-1.1,1.3-1.6,6.5.5,12.6,2.4,18.8,4.2,0,.3,0,.6,0,1-.3.7-.7,1.3-1,2-3-.7-6.1-1.4-9.1-2.1-2.8-2.8-7.3-.3-10-3.4Z"/>
        <path class="cls-1" d="M101.4,783.5c-2.3.3-4.6,1.3-6.6-.9,2.3-.7,4.6-1,6.6.9Z"/>
        <path class="cls-12" d="M4.4,243.6c1.2,1,1.6,2.1.8,3.5-1.2-1-1.2-2.2-.8-3.5Z"/>
        <path class="cls-11" d="M32.4,21.9c.4.9.3,1.6-.5,2.2-1.1-1-.5-1.6.5-2.2Z"/>
        <path class="cls-4" d="M102,838c-3.1-.3-5.5.9-7.6,3-1.5,1.5-3.7,3-5.1,1.1-2.3-3-5.5-3.8-8.6-4.3-5.9-1-6.6-6.6-11.2-10.8,8.5,0,15.6,0,22.6,0,0,3.1,1.6,5.1,4.1,6.8,2,1.4,4.7,1.8,5.9,4.3Z"/>
        <path class="cls-3" d="M118,837.9c0,1.5-.3,3.2.3,4.4,1.4,2.5,0,3.7-1.5,5.2-.9,0-1.8,0-2.8,0-1-.2-2-.5-3-.7-.4-1.8-.4-3.8-1.4-5.2-2.9-4.2-5.5-8.4-5.6-13.6,4,0,8.1-.1,12.1-.2,1.9,3.1-.3,7,1.9,10.1Z"/>
        <path class="cls-11" d="M104,828c.1,5.3,2.7,9.5,5.6,13.6,1,1.4,1,3.4,1.4,5.2-2.3-.3-5.7,1.6-6.1-2.8,0-1.2-.7-1.9-1.9-2.1-.3-1.3-.7-2.6-1-3.9-1.2-2.5-3.9-2.9-5.9-4.3-2.5-1.7-4.1-3.7-4.1-6.8,4,.4,8,.7,12,1.1Z"/>
        <path class="cls-1" d="M114.1,847.6c.9,0,1.8,0,2.8,0,4.4,0,6.3,3.2,8.3,6.2-4.1,1.1-8.7,1.3-10.5,6.3-4.4-1.3-5-5.8-7.2-8.8-1-1.4.6-2.2,2.1-2.3,1.6-.2,3.3.3,4.5-1.3Z"/>
        <path class="cls-6" d="M118,837.9c-2.1-3.1,0-7-1.9-10.1,0-.6,0-1.1.1-1.7.9-.9,1.4-2,1.6-3.2.4-1.2.9-2.4,1.3-3.6.3,0,.6-.2.9-.3.7.3,1.3.7,2,1-.4,4-3.1,7.5-2.3,11.7-1.1,1.9,0,4.5-1.7,6.3Z"/>
        <path class="cls-4" d="M103,841.9c1.2.2,1.9.9,1.9,2.1-1.1-.2-1.8-.9-1.9-2.1Z"/>
        <path class="cls-5" d="M144.2,768c0,5.3-4.4,8.9-5.2,13.9-2.1.2-2.7-.9-2.9-2.8-.4-3.2-1.1-6.3-1.6-9.5,0-.9.1-1.8.2-2.7,1.9-1.3,1.6-2.9.4-4.5.2-.9.3-1.8.5-2.7,3.1-.3,2.7-1.9,1.5-3.8l.4-5c2.3,0,2.6-1.6,2.6-3.4,0-2,0-4,0-6,0-5,.5-5.2,4.9-2.6-.5,2.3-1.2,4.6-.9,7-1.4,4-1.7,8,0,12-.3,2-.6,4-.9,6,0,1.5-.3,3,1.1,4.1Z"/>
        <path class="cls-6" d="M123.1,790.9c.3-.7.7-1.3,1-2,4.8,1,8.8,4.6,14.1,4.2.8,1.2,1.8,1.6,3.2.9,1.3,1.6.3,2.5-1.1,3.2-.4.6-.8,1.3-1.3,1.9-5.4-2.6-10.1-6.3-15.9-8.1Z"/>
        <path class="cls-3" d="M267.9,173.1c-6-.4-12-.8-18-1.2-.6-1.9-1.6-2.2-3-.8-5,0-10-.2-15-.2-.6-1.9-1.6-2.1-3-.8-10-.4-20-.8-30-1.1-.4-.9-.6-2-1.3-2.6-3.5-3-2.8-5.4,0-8.8,2.4-2.9,5.3-4.9,7.8-7.5,1.9-1.9,3.6-3.6.3-5.9-2.4-1.7-1.5-3.3.8-4.4,2.1-1,4.2-2,6.2-3.1,3-1.8,6.9-2.6,8.2-6.6,1.2-.6,1.9-1.6,2-3,.3,0,.6,0,.9,0,1.3-.3,2.7-.6,4-1,5.7,1.2,15.7-4.7,17-10,0-.6,0-1.3,0-1.9.3,0,.6,0,1,0,3.3,1.2,2.4,6,6,6.9,1.6,5,.7,10.2,1,15.3.2,5.1-.9,10.3,1.6,15.6,1.3-3,1.6-5.8,1.5-8.6-.3-8.6-1-17.2-.9-25.8,0-6.5-1.3-12.9-1.1-19.3,0-2.2-.7-3.3-3-2.1-.3,0-.7,0-1,0,0-3.3-.1-6.6-.2-9.9,0-1.9,1-4.1-1.6-5.2,0-2.3,0-4.6-.1-6.9,2.2-.4,3.3-1.9,2.6-3.9-1-3.4-.5-6.9-.8-10.4-.2-2.3.7-4.8-1-7.2q-1.4,4.8-3.8,3.6c0-7,0-14,0-21,.8-.7.7-1.4,0-2,0-.7,0-1.3,0-2,.7-.3,1.3-.7,2-1,1.6,1.5,1.9,3.4,2.1,5.4.5,4.7,1.2,9.5,1.8,14.2.1.8.3,1.8,1.3,1.8.5,0,1.2-.6,1.4-1.1,3.3-6.3,7-12.3,4.8-20-1.1-3.9-.9-8.2-1.2-12.2,1.9.4,3.1,1.5,3.8,3.2-1.6,1.7-1.1,3.8-.9,5.7.6,7.6,1.2,15.2,2.2,22.7,3.1,22.7,4.4,45.5,5.9,68.2-1.8,1.8-1.2,4.1-1.2,6.2.3,16.4-.7,32.8,1,49.1Z"/>
        <path class="cls-14" d="M268.1,117.8c-1.6-22.8-2.9-45.6-5.9-68.2-1-7.5-1.6-15.1-2.2-22.7-.2-1.9-.7-4,.9-5.7,4.3,6.7,9.2,12.9,13.6,19.5,3.6,5.3,5.8,10.8,6.2,17,1.3,20.3,4.9,40.4,6.3,60.7,1.1,15.5,2.1,31,2.8,46.6-1.1,0-2.1,0-2.9.9-1.6-1-3.2-2-4.8-3-.8-3.3-1.6-6.5-2.4-9.8.2-1.2-.4-1.9-1.5-2.3,0-.6,0-1.2-.1-1.8.2-5.2-2.1-9.5-4.2-14,0-.6-.1-1.3-.2-1.9-.2-2.1-.3-4.3-2.7-5.2-1-3.4-1.9-6.8-2.9-10.1Z"/>
        <path class="cls-14" d="M257.1,18c.4,4.1.1,8.4,1.2,12.2,2.2,7.8-1.5,13.8-4.8,20-.3.5-.9,1.1-1.4,1.1-1,0-1.2-1-1.3-1.8-.6-4.7-1.3-9.5-1.8-14.2-.2-2-.5-3.9-2.1-5.4-.6-3-2.6-3.9-5.4-3.9-3.8,0-7.7.4-11.4-.3-19.2-3.5-38.7-3.5-58.2-4.7,0-4.3,0-8.6,0-13,11,.6,21.9,1.2,32.9,1.9,1.2,1.2,2.6,1,4.1.7,7.6.6,15.1,1.1,22.7,1.7.5,1,1,1.9,2.3.8,2.3.3,4.7.6,7,.9.6.7,1.3.9,2.1.7,4.8.8,9.9,0,14.1,3.3Z"/>
        <path class="cls-15" d="M286.9,166c.8-.9,1.9-.9,2.9-.9,2.3,4.7.7,9.7,1.1,14.6.2,2.8,0,5.6,0,8.4-.6,0-1.3,0-1.9.1-.4,0-.7,0-1.1,0,0-1.8.2-3.7,0-5.5-.5-5.5,1.2-11.2-1-16.6Z"/>
        <path class="cls-13" d="M243.1,14.7c-.8.2-1.6,0-2.1-.7,1.1-1.1,1.7-.4,2.1.7Z"/>
        <path class="cls-13" d="M234,13.2c-1.2,1.1-1.8.2-2.3-.8.9-.2,1.7,0,2.3.8Z"/>
        <path class="cls-3" d="M131.2,649.8c-3.4-1-2.2-3.6-1.9-5.7.3-2,1.9-2.8,4-3.1,3.7-.5,7.2.9,10.8.9,3.1,0,6.2-.1,9.3,0,1.8.1,4.6-1,5.1,1.4.5,2.6-.8,5.2-3.7,6.2-1.7.6-3,1.3-2.9,3.4-.6.7-1.3,1.3-1.9,2-2.4.2-3,1.9-3,4-.3,0-.7,0-1,0-.4,0-.7,0-1.1,0,0-3.2.1-6.3,0-9.5,0-5.3-.5-5.4-7.9-5.6-4.4-.1-6.8,1.2-5.9,6Z"/>
        <path class="cls-2" d="M156,655c1.9,0,2.8,1.4,3.5,3,.9,2,2.2,3.2,4.5,3,0,2.3,0,4.7,0,7,0,.7,0,1.3,0,2-2.8,2.5-1.9,5.9-2,9,.8,2.2-4,5.2,1,6.7,0,1.8,0,3.6-.1,5.3-4.1-2.9-7.7-2.1-10.6,1.7-1.7,2.2-3.9,2.1-6.1,2.4,0-1.8,0-3.6.1-5.5,6.4,0,9.7-2.2,11.2-8.9,1.6-7.6,3.9-15.6-1.5-22.8,0-1,0-2,0-2.9Z"/>
        <path class="cls-11" d="M162.9,691.1c0-1.8,0-3.5.1-5.3,1.1.1,2.3.3,3.4.4,1.8,1.6,1.7,3.6.9,5.7-1.2,0-2.3.1-3.5.2-.3-.3-.7-.6-1-1Z"/>
        <path class="cls-15" d="M162,679c.1-3.1-.8-6.5,2-9,1.7,3.5.9,6.5-2,9Z"/>
        <path class="cls-15" d="M156,655c0,1,0,2,0,2.9-2-1-4-2-6-3,.6-.7,1.3-1.3,1.9-2,1.7,0,2.8,1.3,4.1,2.1Z"/>
        <path class="cls-15" d="M164,668c0-2.3,0-4.7,0-7,4.2,2.4,4.2,4.5,0,7Z"/>
        <path class="cls-1" d="M168.5,648.2c.8.9.6,1.9.4,2.9-.9-.1-1.8-.2-2.8-.3-.2-1.7.4-2.8,2.3-2.6Z"/>
        <path class="cls-11" d="M166.1,650.8c.9.1,1.8.2,2.8.3,0,.7,0,1.3-.1,2-1.5,0-2.7-.4-2.6-2.3Z"/>
        <path class="cls-11" d="M169.8,683.7c-.3,1.2-.9,2.2-2.4,1.8-.3-2.1.5-2.7,2.4-1.8Z"/>
        <path class="cls-1" d="M88,862.9c.9,4.8,2.8,9.6-.9,14,.3-4.7-1.2-9.5.9-14Z"/>
        <path class="cls-12" d="M127.8,806.7c1.4-.9,2.8-1.8,4.3-2.7,2.3.2,3.6-2.7,6-1.8.2,1.3.9,2.3,2.1,2.9-.5.5-1,1-1.5,1.6-4.3.5-7.1,3.8-10.6,5.7-.1-1.9-.2-3.7-.3-5.6Z"/>
        <path class="cls-16" d="M140.2,805c-1.2-.6-1.9-1.5-2.1-2.9,1.3-.8.6-2.1.9-3.2.4-.6.8-1.3,1.3-1.9,2.3,3.1,5.9,1,8.7,2.2,1.2.5,2.7.5,3,2.2.3,2-1.2,2.5-2.6,2.9,0,0,.2,0,.2,0-1.8-3.3-4.5-3.4-8.1-3.2,1.1,2.2,3.5,1.4,3.7,3.3-1.6.2-3.3.4-4.9.6Z"/>
        <path class="cls-6" d="M201.7,556.1c-.4-.8-.3-1.5.4-2.1,1,.9.6,1.5-.4,2.1Z"/>
        <path class="cls-6" d="M200.6,561.1c-.3-.8-.1-1.5.6-2.1,1,1,.5,1.6-.6,2.1Z"/>
        <path class="cls-6" d="M199.4,567.1c-.3-.8-.1-1.5.6-2.1,1.1,1,.7,1.7-.6,2.1Z"/>
        <path class="cls-2" d="M150,722.9c-2.3-.2-4.6-1.4-6.9,0-3.3,0-6.7,0-10,0,0-.6,0-1.2,0-1.9,0-1,0-2,0-3,.7-1.7,1.3-3.3,2-5,.4-.6.7-1.3,1.1-1.9,0,0,.4,0,.4,0,0,0,.4,0,.4,0,1.7.6,3.4,1.3,5.1,1.9.1.6.1,1.3.9,1.4.1,0,.5-.4.5-.5-.2-.7-.8-.8-1.4-.8.3-2.3.3-4.4-2-5.8.8-1.7,2-3,4.1-3.2,3.5-1.6,1.3-4.8,2.1-7.1,1.5.6,1.9,1.8,1.7,3.1-.4,2.8,1.2,4.6,3.1,6.2-1.2.5-2.6.7-3.6,1.5-1.8,1.4-2,3.9.4,4.1,5.9.5,6.4,4.8,7.2,9-.3.7-.7,1.4-1,2.1-1.3,0-2.7,0-4,0Z"/>
        <path class="cls-2" d="M163.8,705.8c.7.4,1.4.8,2,1.2,0,1.3,0,2.6,0,3.9-1.6.4-2.2,1.1-.4,2.1-.1.6-.3,1.3-.4,1.9-1.4.1-2.1.9-1.9,2.3.1,1.2,1,1.6,2.1,1.6,0,.7,0,1.4,0,2-.8.4-1.5.8-2.3,1.1-.8-1.6-1.8-2.3-3.5-1.1-.9.6-1.7.9-2.5-.1,2.4-4.9,3-10.2,3.6-15.6,1.1-.2,2.2,0,3.2.6Z"/>
        <path class="cls-6" d="M165.1,715c.1-.6.3-1.3.4-1.9.6-.6.8-1.3.4-2.1,0-1.3,0-2.6,0-3.9,4.8,2.1,6.1,4.5,3.9,8.6-1.6,3,.2,4.9,1.2,7.2-2.2.4-3.8-1.2-5.7-1.8,0-.7,0-1.4,0-2,0-1.3,0-2.6-.1-3.9Z"/>
        <path class="cls-15" d="M157,720.8c.8,1.1,1.6.8,2.5.1,1.7-1.2,2.7-.5,3.5,1.1-3,0-5.7,4.2-9,.8.3-.7.7-1.4,1-2.1.6,0,1.3,0,1.9,0Z"/>
        <path class="cls-11" d="M182,723.9c.9-.5,1.6-.2,2,.7-1.4,1.8-1.8.8-2-.7Z"/>
        <path class="cls-4" d="M119.3,706.3c.9-.1,1.8-.2,2.7-.3.4,3.7,3,4.1,5.9,4.2,0,.9,0,1.9,0,2.8-6.5.6-2.9,5.8-4,8.8,0,0,0,.1,0,.1-1.5,0-3.1.2-4.6.3.6-1.4,1.2-2.8.7-4.4.9-4-2.6-7.6-.8-11.6Z"/>
        <path class="cls-12" d="M120.1,717.9c.5,1.6,0,3-.7,4.4-.9,0-1.8,0-2.7,0-.8-2.2-1.6-4.4-2.4-6.6,1.6.7,3.1,1.5,4.7,2.2.4,0,.8,0,1.1,0Z"/>
        <path class="cls-15" d="M133,720.9c0,.6,0,1.3,0,1.9-3.1,1.1-6.3,2.6-9-.8,0,0,0-.1,0-.1,2,0,4.2.7,6.1-.9,1,0,2,0,3,0Z"/>
        <path class="cls-11" d="M110.4,724.2c1.1-.2,2.3-.5,3.4-.7,0,.5,0,.9,0,1.4-1.3.9-2.7,1.4-4.3.8.3-.5.5-1,.8-1.5Z"/>
        <path class="cls-15" d="M113.9,724.9c0-.5,0-.9,0-1.4,1-.6,2-.9,3.2-.5-.2,1.9-1.6,2-3.1,1.9Z"/>
        <path class="cls-12" d="M110.4,724.2c-.3.5-.5,1-.8,1.5-.6,0-1.1.1-1.7.2.3-1.4,1.2-1.8,2.4-1.6Z"/>
        <path class="cls-15" d="M119.7,831.7c-.8-4.2,1.9-7.7,2.3-11.7,1.4-1.2,1.5-3.8,4-3.8,1.3,2.7,4.6,3.2,6,5.8-2.2,4.9-2.9,9.9-.5,14.9-1.1,1.5-2.5,2.6-4.2,3.4-1.5.7-2.7,3.2-4.6,1.5-1.5-1.3-2.1-3.4-1.6-5.5.5-1.9.8-3.6-1.4-4.6Z"/>
        <path class="cls-1" d="M160.1,831c-1.8,3.4-2.1,7.8-6.1,9.9-3.3,1-6.7,2.1-10,3.1-1,0-2-.1-3-.2.4-.7.7-1.4,1.1-2.1,1.9,0,3.8,0,5.7,0,2.7-1,2.3-4.3,4.2-5.9,3.3.2,3.5-2.4,3.7-4.5.1-2.1-1.6-2.5-3.4-2.3-1.1-1.1-2.2-2.1-3.3-3.2-1-1.1-2.3-2-1.8-3.8.6,0,1.2,0,1.8-.1.6,1.3,1.7,1.7,3,1.6.2.1.4.3.6.4.2-.6-.2-.8-.7-.9-.6-1.1-1.6-1.4-2.8-1.2,0-2.2-1.3-2.7-3.1-2.8,0-1.3,0-2.6,0-3.9,1,0,2-.2,3-.2.4,1.8,1.7,2,3.2,1.8.2.1.5.2.7.3.7,2,1.9,3.6,4.3,3.6,2.2,1.8,2.3,4.5,3.3,6.8-.1,1.2-.2,2.3-.4,3.5Z"/>
        <path class="cls-10" d="M146,815.1c0,1.3,0,2.6,0,3.9-4.1,0-8,.3-8.1,5.9-.7.3-1.8.3-2.2.8-2.3,3.5-.3,11,3.5,13,1.4.7,2.6,1.4,2.9,3-.4.7-.7,1.4-1.1,2.1-3.1,0-4.8-2.5-6.9-4.2-.2-1.5-1.1-2.4-2.5-2.8-2.4-5-1.8-10,.5-14.9,2.7-.7,4.3-2.3,5-5,.5-.1,1-.3,1.5-.4,1.3.3,2.1-.1,2.5-1.4,1.7-.3,3.3-.5,5,0Z"/>
        <path class="cls-15" d="M126.8,844.7c.7-.3,1.4-.7,2.1-1,5.8,5.9,13.1,4.7,20.2,4.1,1,1.1,1.1,2.4,1.2,3.8-.6,2.5-2.3,4-4.7,3.3-4.4-1.3-9.8.6-13.4-3.9-1-1.2-2.7-1-4.2-1-.3-.3-.7-.7-1-1,0-1.4-.1-2.8-.2-4.2Z"/>
        <path class="cls-13" d="M128,849.9c1.5,0,3.2-.2,4.2,1,3.6,4.5,9,2.6,13.4,3.9,2.4.7,4.1-.8,4.7-3.3,2.6,4.4,1.8,6.4-2.8,6.3-7.5-.1-14.5-1.6-19.5-7.9Z"/>
        <path class="cls-3" d="M149.2,847.8c-7.1.6-14.4,1.9-20.2-4.1.6-.3,1.2-.6,1.9-.8,5.7,3.1,11.8,3.5,18.1,3,0,.6.1,1.2.2,1.9Z"/>
        <path class="cls-3" d="M168.9,841.9c-.7,2.2-1.4,4.4-2.1,6.6-.3.4-.6.9-.9,1.3-2.4.2-3.3,2.5-5.2,3.5-2.3,1.3-4.7,3-6.6-.5,6.1.8,8.5-4.1,11.6-7.8,1-1.2,1.3-3,3.3-3.2Z"/>
        <path class="cls-15" d="M149,845.9c-6.3.4-12.4.1-18.1-3,.1-2,1.5-2.9,3.2-3.2,2.1,1.7,3.8,4.2,6.9,4.2,1,0,2,.1,3,.2,1.4,1.3,3.8-.2,5,1.8Z"/>
        <path class="cls-2" d="M153.7,843.1c1.4-.2,2.9-.5,5.2-.9-1.4,3.1-3,4.7-6,4.6.3-1.3.5-2.5.8-3.8Z"/>
        <path class="cls-13" d="M126.8,844.7c0,1.4.1,2.8.2,4.2-2.1-1.3-3.1-2.7-.2-4.2Z"/>
        <path class="cls-7" d="M84.8,594.2c2.2-.4,3.3.4,3.2,2.7-1.1-.1-2.2-.3-3.2-.4,0-.8,0-1.5,0-2.3Z"/>
        <path class="cls-10" d="M125.3,6.4c2.7.2,5.8-.7,6.8,3.3.5,1.9,2.4,1.4,3.9,1.4,6.3,0,12.6,0,19,0,1.9,0,3.4,0,4.4-2.3,1.3-3,4.3-1.7,6.6-1.9.8,3.4,1.9,6.8-.3,10-4.1,1.3-8.4.5-12.6,1.2-1.1,0-2.2,0-3.3,0-2.5-.5-5.1-.5-7.6,0h-3.4c-4.3-.3-8.5-.6-12.8-.9-2.8-3.4-2.3-7.1-.7-10.8Z"/>
        <path class="cls-2" d="M165.7,17.1c2.1-3.3,1-6.7.3-10.1.9-.4,1.9-.7,2.8-1.1.4,1.8,1.7,2.2,3.3,2.3,0,4.3,0,8.6,0,13,.3,1,.6,1.9,1,2.9-.8.9-1.1,2.1-.8,3.3,1.6,7.2.6,14.5.9,21.8,0,1,0,2,0,3-.3,0-.6,0-.9,0-1,0-2,0-2.9-.1.2-10.1-.5-20.2-1-30.2,0-1.7,0-3.4-2.2-3.9,0-.3,0-.5-.2-.8Z"/>
        <path class="cls-2" d="M125.3,6.4c-1.6,3.7-2.1,7.4.7,10.8,0,.3,0,.6-.2.9-3.6.7-.6,5.1-3.6,6.1-.4-6.2-.5-12.3,0-18.5,1,.2,2,.4,3,.6Z"/>
        <path class="cls-6" d="M107.4,617.6c-.2-.5-.4-1.1-.6-1.6,1.3,0,2.8-.1,3.5,1.3.5,1-.4,1.4-1.3,1.6-.5-.4-1.1-.9-1.6-1.3Z"/>
        <path class="cls-11" d="M117.6,635.5c.6,1.7-.2,2.7-1.6,3.5-.4.1-.8.2-1.1.4,0,0-.3-.3-.3-.3.3-1.8,1.4-3,3-3.6Z"/>
        <path class="cls-7" d="M107.4,617.6c.5.4,1.1.9,1.6,1.3-.2.8-.1,1.8-.6,2.2-.6.5-1.1-.3-1.4-.9.1-.8.3-1.7.4-2.6Z"/>
        <path class="cls-12" d="M113.9,632.5c.2.2.4.4.5.6-.2.1-.5.3-.7.4,0,0-.3-.3-.3-.3.1-.2.3-.4.5-.7Z"/>
        <path class="cls-11" d="M146.2,696.8c-.9,2.3,1.3,5.6-2.1,7.1,0-1.9,0-3.9,0-5.8,0-2.8-1.1-4.2-3.9-4.3-.1-.6-.3-1.2-.4-1.8,2.6-2.5,6.2-4.6,3.3-9.1,0-4.3-.1-8.6-.2-12.9,0-3.7.1-7.4.2-11.1.6,0,1.2,0,1.8,0,.4,0,.7,0,1.1,0,0,6.7.2,13.4.2,20.1,0,3.5,0,7.1.1,10.6,0,1.8,0,3.6-.1,5.5,0,.6,0,1.1,0,1.7Z"/>
        <path class="cls-7" d="M127.9,713c0-.9,0-1.9,0-2.8,1.1-3.1,3.2-4.2,6.4-3.3,1.9,0,3.8.1,5.7.2,2.2,1.4,2.2,3.6,2,5.8,0,0,0,0,0,0-1.7-.6-3.4-1.3-5.1-1.9-1.6-3-3.6-2.4-4.8,0-.8,1.6-1.5,2.8-3.3,3.2-.3-.4-.6-.8-1-1.1Z"/>
        <path class="cls-12" d="M154,759.9c-.2,1.9,2.3,4.7-2.1,5.4-2.1.4-3.6,1.5-4.1-1.5,0-.3.2-.6.4-.8,1.7-.4,2.1-1.9,2.6-3.2,1.2-2.9,2.1-.4,3.1.2Z"/>
        <path class="cls-11" d="M148,746c.4,5,.6,10,.1,15-1.9-.1-2.1-1.5-2.2-3,0-3.7,0-7.3,0-11,.7-.3,1.4-.7,2.1-1Z"/>
        <path class="cls-13" d="M148,746c-.7.3-1.4.7-2.1,1-.6-.3-1.3-.7-1.9-1-.3-2.4.4-4.7.9-7,1,0,2,0,3,0,.8,2.3.5,4.7,0,7Z"/>
        <path class="cls-13" d="M146,757.9c0,1.5.2,2.9,2.2,3,0,.7,0,1.4.1,2.1-.3.2-.4.5-.4.8-.3.7-.6,1.3-.9,2-.3,0-.6,0-1,0-.3-1.7-1.5-1.8-2.9-1.9.3-2,.6-4,.9-6,.7,0,1.3,0,2,0Z"/>
        <path class="cls-10" d="M1.7,177.3c1.1-.3,2.6-1.7,3.1.5.4,1.9.8,4.1-1,5.5-.8.6-2.1.6-3.2.9,0-2-.2-4-.3-5.9.5-.3.9-.6,1.4-.9Z"/>
        <path class="cls-6" d="M1.7,177.3c-.5.3-.9.6-1.4.9,0-.5,0-.9,0-1.4.4.2.9.3,1.3.5Z"/>
        <path class="cls-3" d="M119.2,819.3c-.4,1.2-.9,2.4-1.3,3.6-5.4-.7-9.1-4.5-13.3-7.3-1.5-1-1.1-2,.1-3.1,4.3-3.8,9.7-5.7,14.4-8.7,2.8-1.8,3.9,3,6.5,3.4-.6.9-1.2,1.8-1.9,2.7-4.6,1.6-4.6,5.5-4.6,9.4Z"/>
        <path class="cls-1" d="M123.8,809.9c.6-.9,1.2-1.8,1.9-2.7.7-.1,1.4-.3,2.2-.4.1,1.9.2,3.7.3,5.6.1.2.1.5,0,.7-.3,0-.5,0-.8-.1-2.7-.3-3.9,2.5-6.1,3.1-.3-2.5,3-3.6,2.6-6.2Z"/>
        <path class="cls-7" d="M137.4,751c-.1,1.7-.3,3.3-.4,5-.6,0-1.1,0-1.7,0-1.4-4.4-.3-8.8-.5-13.2-.1-2.5,0-5-1.4-7.2,3.3-.9,3.4,1.4,3.5,3.7.2,3.9.3,7.8.4,11.8Z"/>
        <path class="cls-11" d="M127.1,680.8c-3.5-2.8-2.1-7-3-10.6-.7-2.6,0-5.3-1.5-8.1-1.4-2.5,2.6-4.3,7.5-3.1-1,3.9-1.3,7.8-.9,11.8-.2,1.8-.6,3.6.7,5.1.3,2,.7,4,1,6-.7,0-1.3,0-2,0-.6-.4-1.2-.8-1.9-1.2Z"/>
        <path class="cls-15" d="M129,682c.7,0,1.3,0,2,0,.9.7,1.9,1.4,2.7,2.2,6.1,6.5,6.7,6.4,9.4-1.2,2.9,4.5-.7,6.6-3.3,9.1-6-.8-8.8-5-10.7-10.1Z"/>
        <path class="cls-6" d="M119,718c-1.6-.7-3.1-1.5-4.7-2.2-.7-2.2-2-4.2-1.9-6.6,1.5-.1,2.9-.2,4.4-.4.7,3,1.5,6.1,2.2,9.1Z"/>
        <path class="cls-3" d="M135.4,756c.6,0,1.1,0,1.7,0,1.3,1.9,1.6,3.5-1.5,3.8-.7-1.2-.4-2.5-.2-3.8Z"/>
        <path class="cls-7" d="M135.1,762.4c1.2,1.6,1.5,3.2-.4,4.5-1.2-1.6-1-3.1.4-4.5Z"/>
        <path class="cls-14" d="M122.3,24.3c3-1,0-5.5,3.6-6.1,1.6,1.8,4.3.3,5.9,2.1-.2,1.3-.4,2.6-.6,3.9-1.8,3.4-2.1,6.7.3,10,0,1.3.1,2.6.2,3.9-1.6.6-1.2,1.5-.5,2.6,2.8,4.4,6.9,3.2,10.8,2.4.1.9.2,1.8.3,2.7,2.2,3.2,4.7,3.3,7.5.3.2-.3.4-.6.6-.9,1.6,0,2.9-.5,3.7-2.1,1.7-.2,3.5-.3,4-2.4h.4c0,0,0-.5,0-.5,2.6-.9,1.8-3,1.5-4.8,0-4.7,0-9.3,0-14,1.6-1.7,4.4-1.3,5.8-3.4,2.1.5,2.1,2.2,2.2,3.9.6,10.1,1.2,20.1,1,30.2.3,10.7.6,21.4,1,32.1,0,4.5,0,8.9,0,13.4,0,1,.2,2.2,1.5,2.2,1.2,0,1.4-1.2,1.4-2.2,0-4.5,0-8.9,0-13.4-.2-10.6.8-21.3-.9-31.9.3,0,.6,0,.9,0,6.3-.4,12.5,1.8,18.7,1.9,16.2.4,32.2,3.4,48.4,4.2,4.5.2,7.3,2.4,7,7.7-.2,2.7-1,5.7,1,8.2,0,2.3,0,4.6.1,6.9,0,1.9-.9,4.1,1.6,5.2,0,3.3.1,6.6.2,9.9-.8.7-.8,1.3,0,2,.2,2-.7,4.2,1,6,0,2.7,0,5.3,0,8-1.9,0-4-.2-5,2.1-.3,0-.6,0-1,0-1.2,0-1.9.7-2.1,1.9-.3,0-.6,0-1,0-2.4.4-4.5,1.1-5.2,3.8-1.1,0-2.1.2-2.9,1.1-2.2.2-4.3.4-5,3-.3,0-.6,0-.9,0-1.9.3-3.6.7-4.1,2.9-.3,0-.6,0-.9,0-2.5.6-5.1,1-6.1,3.9-.6,0-1.3,0-1.9.1-4.2,1.1-8.1,2.6-11,5.9-.6,0-1.3,0-1.9.1-2,.5-4.3.3-5.1,2.9-.3,0-.6,0-.9,0-1.8.4-3.6.7-5,2-1.7.7-3.3,1.3-5,2-3,.2-5.7.8-7.1,3.9-.3,0-.6,0-.9,0-3.9.4-2.3-3.6-4.1-5-.3-10-1.2-20.1-.9-30.1.1-3.3,0-6.6,0-9.9,0-1-.6-1-1-.1-.1.3,0,.6-.1,1-3.5,4.5-1.9,9.4-.8,14.1,0,.6,0,1.3,0,1.9-3.7-1.1-4.9,2.2-7,4.1-1.5,0-3.1.3-4.2,1.3-6.6,5.4-13.9,9.9-20.8,14.9-4.8,3.5-9,8.2-15,9.9-.1-1.7-.2-3.5-.3-5.2-.2-17.6-.3-35.3-.4-52.9,0-11.7,0-23.3,0-35,1.7-9.6.7-19.2.5-28.7,0-.5-.8-1-1.3-1.4,0-.9,0-1.7,0-2.6Z"/>
        <path class="cls-1" d="M114.8,639.3c.4-.1.8-.2,1.1-.4,1.2,3,1.3,6,.3,9.1-2.3-2.6-.7-5.9-1.4-8.8Z"/>
        <path class="cls-1" d="M117.9,652.9c-.5.5-1,1-1.5,1.6-.5-1.1-.6-2.3.2-3.3.4,0,.8.2,1.3.2,0,.5,0,1,0,1.5Z"/>
        <path class="cls-11" d="M189.2,616.2c-.5-.5-1-1-1.5-1.4.4-1,.5-2.2,2-2.9.8,1.6.7,3-.5,4.3Z"/>
        <path class="cls-5" d="M146.2,696.8c0-.6,0-1.1,0-1.7,2.2-.3,4.4-.2,6.1-2.4,2.9-3.8,6.5-4.6,10.6-1.7.3.3.7.6,1,1,0,1.8.5,3.7-.9,5.2-3.8,4-.6,4.8,2.5,5.8-.1.3-.1.6,0,1-.5.6-1.1,1.2-1.6,1.8-1-.6-2.1-.8-3.2-.6-3.5-2.6-6.4.7-9.6,1-1.9-1.7-3.5-3.4-3.1-6.2.2-1.4-.3-2.6-1.7-3.1Z"/>
        <path class="cls-1" d="M119,718c-.7-3-1.5-6.1-2.2-9.1.4-1.3.9-2.4,2.5-2.5-1.8,4,1.7,7.7.8,11.6-.4,0-.8,0-1.1,0Z"/>
        <path class="cls-13" d="M205,173.1c.2,1.9-.3,3.6-2.1,4.7-1.4,1-2.5,2.5-2.6,4.1-.2,4-.9,7.5-5.2,9.3-1.4.6-1,2.3-1.2,3.6-1.2,8,.8,14.9,6.8,20.5,1.8,1.6,2.5,3.8,3.3,6,5.3,14.6,8.2,30,16.5,43.4,1.9,3.1,2.5,6.7,2.5,10.5-.1,21.8,0,43.6,0,65.4,0,2.1-.3,4.3-.5,6.4-.1,1-.6,2.7,0,2.8,5.3.9,4.2,6.7,7.5,9.1.9,5.4-2.1,10-3.4,14.9-4.8,18.9-11.6,37.3-16.6,56.2-2.3,8.9-5.6,17.6-7.3,26.7-1.8,9.7-5.9,18.9-7.5,28.6-2.1,12.6-7.3,24.3-8.8,37.1-.9,7.7-2.9,15.8-5.4,23.4-1.6-6.4-2.1-12.7,1.2-18.8.9-1.6,1.3-3.3,1.9-5.1,4.5-14.1,3.5-28.5,3-42.9-.2-5.1-1.3-10.5.9-15.3,3-6.5,4.8-13,3.1-20.2-.8-3.5.7-6.1,4.5-7.1,3.2-.9,4-3.4,3.2-6.3-.9-3.3-.7-6.6-.8-9.9,0-3.4.8-7.1-3.8-8.6-1.6-.5-1.2-2.6-1.2-4.1,0-10.2,0-20.3,0-30.5,0-1.5-.4-3.4,1.4-3.9,4.2-1.3,3.6-4.6,3.6-7.7,0-27.1,0-54.3,0-81.4,0-3.5-.2-6.7-4.2-8.1-1.6-.5-1.5-1.9-1.8-3.2-2.9-14-3.9-28.3-5.4-42.4-1.3-11.9-3.6-24-2.7-36.2.2-2.9,1.1-5.1,3.2-6.9,2.2-1.8,3.5-4.1,2.6-7-.9-3-3.3-4.1-6.1-4.2-2.9,0-3.9-1.3-3.6-4,8.4-.4,16.7.2,25,.9Z"/>
        <path class="cls-6" d="M157.6,245.7c0,5.4,0,10.8,0,16.1-1,1.2-1.9,2.4-2.9,3.6-3.5,1.2-7,1.8-10.7,1.1-6.7-4.8-7.8-17.6-2-24.5,6-2.5,11.3-1.8,15.5,3.6ZM151.1,254.1c-1.1-2.6,1.8-7.5-2.9-7.5-4.5,0-2.8,4.8-2.9,7.6,0,2.7-1.5,7.1,2.9,7.1,4.6,0,2-4.6,2.9-7.1Z"/>
        <path class="cls-6" d="M139.3,234.4c-.2-.4-.4-.9-.5-1.3,0-5,0-10,0-15,.9-2.6,3.2-3.9,5.3-5.3,10.3-1.1,13.5,1.9,13.5,12.2,0,.5,0,1,0,1.5,0,11.1-5.8,14.7-16,10.1,0,0-.2,0-.2,0-.4-1-1.2-1.7-2.2-2.2ZM145.1,225.5c.9,2.5-1.6,7.2,2.8,7.2,4.9,0,2.8-4.8,2.8-7.4,0-2.5,1.8-7.1-2.8-7-4.4,0-2.1,4.6-2.9,7.2Z"/>
        <path class="cls-6" d="M138.9,189c1.3-1.8,3.1-3.2,5.1-4.2.7-.1,1.4-.3,2.2-.4,1,0,1.9-.2,2.9-.2,8,2.6,8.3,3.2,7.3,11.9,0,.6,0,1.3.2,1.9,2.5,8.4-1.7,13.3-10.4,12.1-1-.1-1.9-.4-2.9-.6-.7-.3-1.3-.7-2-1-.7-.6-1.3-1.3-2-1.9-1.8-4,0-5.4,3.8-5.3.7.5,1.4.9,2,1.5,1.6,1.4,3.5,2.8,5,.6,1.5-2.2-.8-2.8-2.3-3.9-2.5-1.9-1.9-3.9.8-5.3,1.1-.6,2.1-1.3,1.4-2.7-.8-1.4-2.3-1.6-3.4-.6-2.2,2.2-4.7,2-7.4,1.8-.2-.5-.5-1-.7-1.6.2-.7.3-1.4.5-2Z"/>
        <path class="cls-13" d="M172,172.1c1.3,0,2.7,0,4,0-.2,1.7.6,4.3-2,4.3-2.6,0-1.8-2.6-2-4.3Z"/>
        <path class="cls-2" d="M139.1,192.7c2.7.2,5.2.4,7.4-1.8,1-1.1,2.6-.9,3.4.6.7,1.3-.3,2.1-1.4,2.7-2.7,1.4-3.3,3.3-.8,5.3,1.5,1.1,3.8,1.7,2.3,3.9-1.6,2.2-3.5.9-5-.6-.6-.6-1.3-1-2-1.5.6-3.1,2.2-6.6-3.2-6.9-.2,0-.4-1.1-.6-1.7Z"/>
        <path class="cls-2" d="M138.8,218c0,5,0,10,0,15-2.5-3.4-2.5-11.9,0-15Z"/>
        <path class="cls-2" d="M139.2,206.6c.7.6,1.3,1.3,2,1.9-.4.5-.9,1.2-1.5.7-.9-.6-.6-1.7-.5-2.6Z"/>
        <path class="cls-2" d="M138.9,189c-.2.7-.3,1.4-.5,2-.3-.3-.9-.6-.9-1,0-.8.7-.9,1.4-1.1Z"/>
        <path class="cls-2" d="M146.1,184.5c-.7.1-1.4.3-2.2.4.5-1.5,1.1-1.9,2.2-.4Z"/>
        <path class="cls-2" d="M139.3,234.4c1,.5,1.8,1.1,2.2,2.2-1.8.4-2.3-.6-2.2-2.2Z"/>
        <path class="cls-4" d="M260,278.4c-.8,4.3-1.5,8.8-5.1,12.3-.9.8-1.9,1.6-3.1.8-.9-.6-.7-1.8-.5-2.7,1-3.8,1.9-7.7,2.9-11.5.5-1.8,2-2.8,3.8-2.6,2,.2,1.8,2,2,3.8Z"/>
        <path class="cls-13" d="M260.4,324c.3,4.6-2.1,6.5-6.2,6.7-3,.1-2.2-2.4-2.2-4,.1-3.5,1.7-6.2,5.5-6.3,2.1,0,3.1,1.6,2.8,3.6Z"/>
        <path class="cls-6" d="M256.6,367.6c.3,5.3-2.4,9.9-3.8,14.7-2,6.7-3.1,13.8-7,19.9.7-7.8,4.3-14.7,6.3-22.2,1.1-4.2,1.9-8.7,4.5-12.4Z"/>
        <path class="cls-6" d="M242.7,411.6c-2.3,10.1-4.2,20.3-9.3,29.5,2.6-10,5-20,9.3-29.5Z"/>
        <path class="cls-13" d="M246.9,343.4c.1-2.7.8-5,3.8-5,1.6,0,3.2,1.4,2.7,2.9-.8,2.3-2.5,4.7-4.8,5.2-2,.5-1.3-2-1.7-3.1Z"/>
        <path class="cls-4" d="M261.9,316.2c1.4,0,2.1.8,2.4,2,.3,1.1-.4,1.6-1.3,1.6-1.5,0-2.7-.5-2.7-2.2,0-1,.7-1.4,1.6-1.5Z"/>
        <path class="cls-4" d="M274.6,284c-.2,1.2-1,2.3-2.4,2.4-1,.1-1.2-.9-1.1-1.7.1-1.2.7-2.2,2-2.3.9,0,1.5.4,1.5,1.6Z"/>
        <path class="cls-4" d="M281.5,274.2c-.3,1.6-.7,3.3-1,4.9-1.8-.3-2.6-1.3-2.3-3.1.3-2.1,1.9-1.9,3.4-1.8Z"/>
        <path class="cls-6" d="M245.4,404.1c.8,1.1.2,1.7-.9,2-.2-.9,0-1.5.9-2Z"/>
        <path class="cls-6" d="M232.5,444.4c.5,1.2.2,2.1-1,2.7-.3-1.2.2-2,1-2.7Z"/>
        <path class="cls-2" d="M154.8,265.5c1-1.2,1.9-2.4,2.9-3.6,1.7,1.7,2.2,4,.4,5.5-1.5,1.2-2.5-.6-3.2-1.9Z"/>
        <path class="cls-4" d="M5.1,190.1c1.7-.7,3.3-1.3,5-2,0,1.1,0,2.2,1.1,3,0,1.9,0,3.9.1,5.8-.2,1.2.4,2,1.5,2.3,1.2,1.5,3.9,1.3,4.1,3.8-1.7,1.3-4.6-2.6-5.8,1.2,0,1.1-.3,2.1-1.2,2.8-1.8-.1-3.4.2-5,1,.4-2.4,3.8-5.2-.8-7.1,0-.6-.1-1.3-.2-1.9,1.8-2.2.9-4.7.8-7.1,0-.6.2-1.2.3-1.9Z"/>
        <path class="cls-13" d="M23.2,208.2c-.1-1.5-.3-2.8-1.6-3.9-2.5-2-1-3.3.9-4.4-.6,2.8,4.7,5.1.7,8.3Z"/>
        <path class="cls-2" d="M5,208c1.6-.8,3.2-1.1,5-1,0,.7,0,1.4,0,2.1-2.2,1.2-4.5,2.7-5.9-1,.3,0,.6,0,.9,0Z"/>
        <path class="cls-7" d="M4.8,191.9c0,2.4,1,4.9-.8,7.1-1.2-2.5-2-5.1.8-7.1Z"/>
        <path class="cls-7" d="M5,208c-.3,0-.6,0-.9,0,0-2.4,0-4.8,0-7.2,4.6,1.8,1.2,4.6.8,7.1Z"/>
        <path class="cls-13" d="M22.8,196c-1-1.4-.7-2.9-.4-4.3,1.6,1.3,1.9,2.8.4,4.3Z"/>
        <path class="cls-13" d="M14.6,210.5c1.3,0,2.6,0,3.8,0-1.3,1.5-2.6,1.8-3.8,0Z"/>
        <path class="cls-13" d="M20.9,209.4c.5-.9,1.2-1.3,2.3-1.3-.3,1.2-1,1.7-2.3,1.3Z"/>
        <path class="cls-7" d="M23.4,173.8c-2.3,2.1-3.2.8-3.2-1.5,0-2.4.2-4.9.3-7.4,3.1,2.3,0,6.5,2.9,8.9Z"/>
        <path class="cls-6" d="M12.7,286.1c-2-1-1.9-2.4-.9-4.1,1,1.2,1.2,2.6.9,4.1Z"/>
        <path class="cls-15" d="M124,150.1c6-1.7,10.2-6.4,15-9.9,6.9-5,14.2-9.5,20.8-14.9,1.2-1,2.7-1.3,4.2-1.2-5.1,4.9-2.8,13.6-9.1,17.9-.5.4-.8,1.5-.8,2.2.3,8-1.5,16.2,1.9,23.9-10.7,0-21.3,0-32,0,0-6,0-11.9,0-17.9Z"/>
        <path class="cls-13" d="M215,131.1c.6,0,1.3,0,1.9-.1,1.4-.3,2.7-.6,4.1-.9-1.3,4-5.2,4.8-8.2,6.6-2,1.2-4.1,2.1-6.2,3.1-2.3,1.1-3.2,2.7-.8,4.4,3.3,2.3,1.5,4-.3,5.9-2.5,2.6-5.5,4.6-7.8,7.5-2.8,3.4-3.4,5.8,0,8.8.7.6.9,1.7,1.3,2.6-9.6-1.2-19.3-.7-29-.9-.3-3.4-.8-6.8,0-10.3.5-2.5,0-5-2.5-6.5-3.2-1.7-2.3-4.3-.3-5.5,4.3-2.6,4-6.4,3.9-10.4,0-5.1,0-10.3,0-15.4,0-.6,0-1.3,0-1.9,2-4.6.6-9.4.8-14.1,0-.3,0-.7.1-1,.4-.9,1-.9,1,.1.1,3.3.2,6.6,0,9.9-.3,10.1.5,20.1.9,30.1-1.2,2.3-1.8,4.7.3,6.5,1.3,1.1,3.1.6,3.7-1.5.3,0,.6,0,.9,0,2.6-.8,5.8-.5,7.1-3.9,1.7-.7,3.3-1.3,5-2,2.4,1,4,.3,5-2,.3,0,.6,0,.9,0,2.3,0,4.5.1,5.1-2.9.6,0,1.3,0,1.9-.1,4.3-.9,8.4-2,11-5.9Z"/>
        <path class="cls-9" d="M170.9,120c0,5.1,0,10.3,0,15.4,0,4,.4,7.8-3.9,10.4-2,1.2-2.9,3.8.3,5.5,2.6,1.4,3.1,4,2.5,6.5-.7,3.5-.2,6.9,0,10.3-4.7,0-9.3,0-14,0-3.4-7.7-1.6-15.9-1.9-23.9,0-.8.3-1.9.8-2.2,6.3-4.3,4-13,9.1-17.9,2-1.8,3.2-5.1,7-4.1Z"/>
        <path class="cls-11" d="M268.1,117.8c1,3.4,1.9,6.8,2.9,10.1.4,2,.4,4.2,2.7,5.2,0,.6.1,1.3.2,1.9-.3,5.2,1.6,9.7,4.2,14,0,.6,0,1.2.1,1.8-.2,1.2.4,1.9,1.5,2.3.8,3.3,1.6,6.5,2.4,9.8-.4.7-.8,1.5-1.2,2.2-1,0-2.1-.1-2.7-1.1-2-3.2-3.3-2-4.3.7-.4,1.1-.5,2.2-.8,3.4,0,1,0,2-.1,3-.2,1.4.8,3.3-.9,4-1.7.6-3.2-.4-4.1-2-1.7-16.3-.6-32.7-1-49.1,0-2.1-.6-4.4,1.2-6.2Z"/>
        <path class="cls-15" d="M273.1,168.1c.3-1.1.4-2.3.8-3.4,1-2.6,2.3-3.8,4.3-.7.6,1,1.6,1,2.7,1.1,1.5,7.6.9,15.2,1.1,22.9-2,1.7-2.1,4-2,6.4.2,3.3-.7,6.2-3.1,8.6-2,.3-4.1.6-6.1.9,0-1.6.2-3.3.2-4.9,5.7,2.5,6.8,1.8,6.9-4.6,0-5.1,0-10.2,0-15.3,1.7-2.3,1-5,.9-7.5-.3-5-1.2-5.4-5.7-3.4Z"/>
        <path class="cls-14" d="M278,179.1c0,5.1,0,10.2,0,15.3,0,6.4-1.2,7.1-6.9,4.6,0,0-.2,0-.2,0,0-1,0-2,0-3,1.6-1.8.8-4,1-6,0-.3,0-.7,0-1,3.5-3.6,2.3-7.2,0-10.8,2.4-2.4,4.1.4,6.1.8Z"/>
        <path class="cls-4" d="M271.9,178.2c2.3,3.6,3.4,7.2,0,10.8-4.5.1-1.8-4.5-3.9-6,0-1.7-.5-3.6,1-5,1,0,1.9.1,2.9.2Z"/>
        <path class="cls-13" d="M246.9,171.1c1.4-1.4,2.4-1.1,3,.8-1.1.2-2.2,0-3-.8Z"/>
        <path class="cls-13" d="M228.9,170.1c1.4-1.3,2.4-1.1,3,.8-1.1.2-2.2.1-3-.8Z"/>
        <path class="cls-4" d="M42.2,139.7c0-3.7-.3-7.3,0-11,.3-3.1,1.8-4.7,4.9-2.1,3.7,3.1,7.4,6.1,11.2,9.1,2.2,1.7,2,3.4.4,5-4,3.8-8,7.5-12.2,10.9-2.8,2.3-4.5,1.2-4.5-2.5,0-3.2,0-6.3,0-9.5,0,0,0,0,.1,0Z"/>
        <path class="cls-14" d="M143,683c-2.7,7.6-3.3,7.7-9.4,1.2-.8-.8-1.8-1.5-2.7-2.2-.3-2-.7-4-1-6,1.4-1.9,1.7-3.7-.7-5.1-.4-4-.1-7.9.9-11.8,3.1-1.4,6.1-3,8-5.9,1.6,1.8,4.1,2.9,3.9,5.8-1.4,3.8-2.5,7.6.7,11.1,0,4.3.1,8.6.2,12.9Z"/>
        <path class="cls-7" d="M142.1,658.9c.1-2.9-2.4-4-3.9-5.8-1.8-2.2-4.7-2.2-7-3.3-.9-4.8,1.5-6.1,5.9-6,7.4.2,7.8.3,7.9,5.6,0,3.2,0,6.3,0,9.5-.6,0-1.2,0-1.9,0-.3,0-.6,0-.9,0Z"/>
        <path class="cls-11" d="M117.9,652.9c0-.5,0-1,0-1.5.9-1.2,1.8-2.3,3.7-1.7-.2,2.3-1.7,3-3.6,3.2Z"/>
        <path class="cls-2" d="M11.2,204.2c1.2-3.8,4,0,5.8-1.2-1.1,4.1-4,.2-5.8,1.2Z"/>
        <path class="cls-2" d="M11.2,191.1c-1.1-.7-1.1-1.8-1.1-3,.7,0,1.3,0,2,0,0,1.1,0,2.2-.9,3Z"/>
        <path class="cls-2" d="M12.9,199.2c-1.2-.3-1.7-1.1-1.5-2.3,1.1.4,1.7,1.1,1.5,2.3Z"/>
        <path class="cls-10" d="M145.4,776.4c.7-2.4.4-4.8,2.1-6.7,1.4-1.6,3.1-2.4,4.7-1.1,5.2,4,12,6.9,11.3,15.5-.1,1.8.2,3.9,1.5,5.7,1.1,1.5,1.3,3.2-.3,4.5-1.6,1.3-3.5.4-4.5-.8-2-2.7-5.1-4.2-6.9-7.1-1.4-2.2-3.4-4-5.7-5.5-1.6-1.1-2.5-2.6-2.4-4.4Z"/>
        <path class="cls-8" d="M149.2,804.5c1.4-.5,2.9-1,2.6-2.9-.2-1.7-1.8-1.7-3-2.2-2.8-1.2-6.4.8-8.7-2.2,1.4-.7,2.4-1.5,1.1-3.2-.2-1-.4-1.9-.7-2.9.2-.6.3-1.2.5-1.8,1.1.1,2.2.2,3.3.4,3.2,2.1,7,3.1,10.5,4.5.6.4,1.1.8,1.7,1.1.4,1.1,1.2,1.7,2.4,1.8,1.7,1.7,3.3,3.3,5,5,0,1.2.6,1.9,1.8,2.1.1.2.2.5.3.7.3,2,.5,4.1.8,6.1-1.9-1.8-3.7-3.8-5.9-5.2-2.4-1.5-4.7-4.3-8-1.8-.6.5-1.3.9-1.9,1.4-.8,0-1.4,0-1.8-.9Z"/>
        <path class="cls-6" d="M154.9,794.1c-3.6-1.4-7.3-2.4-10.5-4.5,4.6-.9,8.1.5,10.5,4.5Z"/>
        <path class="cls-15" d="M143.1,763.9c1.3,0,2.6.2,2.9,1.9-.3.7-.5,1.5-.8,2.2h-.5s-.5,0-.5,0c-1.4-1.1-1.2-2.6-1.1-4.1Z"/>
        <path class="cls-6" d="M141.1,789.2c-.2.6-.3,1.2-.5,1.8-1.1-.3-1.8-.9-1.3-2,.5-1,1.2-.6,1.8.1Z"/>
        <path class="cls-6" d="M158.9,797.1c-1.2-.1-2-.7-2.4-1.8,1.4-.2,2.3.3,2.4,1.8Z"/>
        <path class="cls-10" d="M145.1,768c.3-.7.5-1.5.8-2.2.3,0,.6,0,1,0,0,1.2-.6,2-1.8,2.2Z"/>
        <path class="cls-12" d="M165.7,804.2c-1.2-.2-1.8-.9-1.8-2.1,1.4,0,2,.7,1.8,2.1Z"/>
        <path class="cls-6" d="M170.8,818.9c-.7,0-1.3,0-2,0-.6-.9-1.1-1.9-1.7-2.8l3.1-1.3c.8.2,1.6.5,2.4.7-.6,1.1-1.2,2.2-1.8,3.3Z"/>
        <path class="cls-1" d="M170.2,814.9c-1,.4-2.1.9-3.1,1.3-3.8-2.8-7.5-5.7-11.3-8.5.2-2.1-1.2-3-2.9-3.7,3.4-2.5,5.7.3,8,1.8,2.2,1.4,3.9,3.4,5.9,5.2.2,2.1,1.7,3,3.3,3.9Z"/>
        <path class="cls-7" d="M160.1,831c.1-1.2.2-2.3.4-3.5,3.4.1,6.7.2,10.1.4,1.7.6,1.5,1.8,1.2,3.2-3.9-1.2-7.8-.1-11.7,0Z"/>
        <path class="cls-2" d="M162.3,837.7c1.2-1.7,2.5-3.3,4.4-6,.3,4.2-1.3,5.6-4.4,6Z"/>
        <path class="cls-7" d="M171.8,831.9c.9.7.9,1.4,0,2-.7-.7-.7-1.4,0-2Z"/>
        <path class="cls-15" d="M170.5,827.9c-3.4-.1-6.7-.2-10.1-.4-.9-2.4-1-5.1-3.3-6.8-.8-2-2-3.5-4.3-3.6-.2-.1-.5-.2-.7-.3-1.2-3.3,1-6.3.9-9.5l2.7.4c3.8,2.8,7.5,5.7,11.3,8.5.6.9,1.1,1.9,1.7,2.8.8,2.9,1.9,5.8,1.7,8.9Z"/>
        <path class="cls-15" d="M271.9,190c-.2,2,.6,4.2-1,6-.3,0-.7,0-1,0,.1-2.2-.6-4.6,2-6Z"/>
        <path class="cls-4" d="M269.9,196.1c.3,0,.7,0,1,0,0,1,0,2,0,3-3.3-.1-2.5-1.5-.9-3Z"/>
        <path class="cls-3" d="M281.9,188.1c-.2-7.6.5-15.3-1.1-22.9.4-.7.8-1.5,1.2-2.2,1.6,1,3.2,2,4.8,3,2.2,5.4.5,11.1,1,16.6.2,1.8,0,3.6,0,5.5-2,0-4,0-5.9,0Z"/>
        <path class="cls-12" d="M121.2,816.1c2.2-.7,3.4-3.4,6.1-3.1-1,.9-1.4,1.9-1.3,3.2-2.5,0-2.6,2.6-4,3.8-.7-.3-1.3-.7-2-1,.4-1,.8-1.9,1.2-2.9Z"/>
        <path class="cls-4" d="M121.2,816.1c-.4,1-.8,1.9-1.2,2.9-.3.1-.6.2-.9.3,0-3.9,0-7.7,4.6-9.4.4,2.6-2.9,3.6-2.6,6.2Z"/>
        <path class="cls-15" d="M146,757.9c-.7,0-1.3,0-2,0-1.7-4-1.4-8,0-12,.6.3,1.3.7,1.9,1,0,3.7,0,7.3,0,11Z"/>
        <path class="cls-14" d="M173,49c-.3-7.3.7-14.6-.9-21.8-.3-1.2,0-2.3.8-3.3,13.4.1,26.7,2,40.1,2.9,10.7.8,21.4,1.8,31.9,4.2,0,.7,0,1.3,0,2-.9.7-.8,1.4,0,2,0,7,0,14,0,21-17.4-2.7-35-3.1-52.3-5.3-6.6-.8-13.3.6-19.7-1.8Z"/>
        <path class="cls-15" d="M173,49c6.4,2.4,13.2.9,19.7,1.8,17.4,2.2,35,2.7,52.3,5.3q2.4,1.2,3.8-3.6c1.8,2.4.9,5,1,7.2.3,3.5-.3,6.9.8,10.4.6,2.1-.4,3.5-2.6,3.9-1.9-2.5-1.2-5.5-1-8.2.4-5.3-2.5-7.5-7-7.7-16.2-.8-32.2-3.8-48.4-4.2-6.3-.2-12.4-2.3-18.7-1.9,0-1,0-2,0-3Z"/>
        <path class="cls-15" d="M245,31.1c-10.5-2.3-21.2-3.4-31.9-4.2-13.4-.9-26.7-2.8-40.1-2.9-.3-1-.6-1.9-1-2.9,19.4,1.2,38.9,1.2,58.2,4.7,3.7.7,7.6.3,11.4.3,2.8,0,4.9.9,5.4,3.9-.7.3-1.3.7-2,1Z"/>
        <path class="cls-4" d="M251,112.1c0-2.7,0-5.3,0-8,1.4-2,1.4-4,0-6,0-.7,0-1.3,0-2,2.3-1.2,3,0,3,2.1-.2,6.5,1.2,12.8,1.1,19.3-.1,8.6.5,17.2.9,25.8.1,2.8-.2,5.6-1.5,8.6-2.5-5.2-1.3-10.5-1.6-15.6-.3-5.1.7-10.3-1-15.3,0-2.3,0-4.7,0-7,1.2-1.3.3-1.7-.9-2h0Z"/>
        <path class="cls-13" d="M242,116.1c.3,0,.6,0,1,0,.7,0,1.3,0,2,0-1.3,5.3-11.3,11.2-17,10,0-.6,0-1.3,0-1.9.3,0,.6,0,.9,0,2.1-.3,4-1,5-3,.8-.9,1.8-1,2.9-1.1,2.4-.3,4.3-1.4,5.2-3.8Z"/>
        <path class="cls-13" d="M251.9,114.1c0,2.3,0,4.7,0,7-3.6-1-2.7-5.7-6-6.9,1-2.2,3.1-2,5-2.1,0,0,0,0,0,0,.3.7.6,1.3.9,2Z"/>
        <path class="cls-15" d="M221,130.1c-1.4.3-2.7.6-4.1.9,1-2.8,3.6-3.3,6.1-3.9-.1,1.4-.8,2.3-2,3Z"/>
        <path class="cls-15" d="M249.8,86.2c-2.5-1.2-1.7-3.3-1.6-5.2,2.5,1.1,1.6,3.3,1.6,5.2Z"/>
        <path class="cls-15" d="M228,124.1c0,.6,0,1.3,0,1.9-1.3.3-2.7.6-4,1,.5-2.2,2.2-2.6,4.1-2.9Z"/>
        <path class="cls-15" d="M244.9,116.1c-.7,0-1.3,0-2,0,.2-1.2.9-1.9,2.1-1.9,0,.6,0,1.3,0,1.9Z"/>
        <path class="cls-15" d="M251,96.1c0,.7,0,1.3,0,2-.3,0-.7,0-1,0-.8-.7-.8-1.4,0-2,.3,0,.7,0,1,0Z"/>
        <path class="cls-15" d="M245,35.1c-.9-.6-.9-1.3,0-2,.8.6.9,1.3,0,2Z"/>
        <path class="cls-9" d="M278.1,149.1c-2.6-4.3-4.5-8.8-4.2-14,2.1,4.5,4.4,8.8,4.2,14Z"/>
        <path class="cls-9" d="M273.7,133.2c-2.3-1-2.2-3.2-2.7-5.2,2.4,1,2.4,3.1,2.7,5.2Z"/>
        <path class="cls-9" d="M279.6,153.2c-1.1-.4-1.7-1.1-1.5-2.3,1.1.4,1.7,1.1,1.5,2.3Z"/>
        <path class="cls-14" d="M146.3,689.7c0-3.5,0-7.1-.1-10.6,3.4-6.6,1.9-13.3.8-20.1,0-2.1.6-3.7,3-4,2,1,4,2,6,3,5.4,7.3,3.1,15.2,1.5,22.8-1.4,6.7-4.8,8.9-11.2,8.9Z"/>
        <path class="cls-15" d="M147,659c1.1,6.8,2.6,13.5-.8,20.1,0-6.7-.2-13.4-.2-20.1.3,0,.7,0,1,0Z"/>
        <path class="cls-15" d="M128.1,813c.1-.2,0-.5,0-.7,3.5-1.9,6.3-5.3,10.6-5.7,1,0,2,.3,2.9.3q8.8,0,7.4,8c-1,0-2,.2-3,.2-1.7-.5-3.3-.3-5,0-1.2-.2-1.9.4-2.5,1.4-.5.1-1,.3-1.5.4-5.1,2.1-7.3,1.1-8.9-3.9Z"/>
        <path class="cls-7" d="M149,814.9q1.4-8.1-7.4-8c-1,0-2-.2-2.9-.3.5-.5,1-1,1.5-1.6,1.6-.2,3.3-.4,4.9-.6,1.5.3,2.9.6,4.4,0,0,0-.2,0-.2,0,.4.8,1,.9,1.8.9.7.6,1.4,1.3,2.1,1.9,0,3.2-2.1,6.2-.9,9.5-1.5.1-2.8,0-3.2-1.8Z"/>
        <path class="cls-8" d="M149.5,804.4c-1.4.7-2.9.3-4.4,0-.2-1.9-2.6-1.1-3.7-3.3,3.5-.1,6.3,0,8.1,3.2Z"/>
        <path class="cls-10" d="M151,706.2c3.2-.2,6.1-3.6,9.6-1-.6,5.3-1.2,10.7-3.6,15.6-.6,0-1.3,0-1.9,0-.9-4.2-1.3-8.5-7.2-9-2.4-.2-2.1-2.7-.4-4.1,1-.8,2.4-1,3.6-1.5Z"/>
        <path class="cls-4" d="M128.9,714.1c1.8-.3,2.4-1.6,3.3-3.2,1.2-2.3,3.2-2.9,4.8,0,0,0-.4,0-.4,0,0,0-.4,0-.4,0-1.2.2-2.3.4-1.1,1.9-.7,1.7-1.3,3.3-2,5-1.3,0-2.7,0-4,0,0-1.3,0-2.5-.1-3.8Z"/>
        <path class="cls-11" d="M129,718c1.3,0,2.7,0,4,0,0,1,0,2,0,3-1,0-2,0-3,0-.3-1-.7-2-1-3Z"/>
        <path class="cls-7" d="M142,713c.6,0,1.3,0,1.4.8,0,.1-.3.5-.5.5-.8-.1-.8-.8-.9-1.4,0,0,0,0,0,0Z"/>
        <path class="cls-11" d="M135,713c-1.3-1.5-.1-1.8,1.1-1.9-.4.6-.7,1.3-1.1,1.9Z"/>
        <path class="cls-11" d="M165.1,715c0,1.3,0,2.6.1,3.9-1.1,0-1.9-.5-2.1-1.6-.1-1.4.6-2.1,1.9-2.3Z"/>
        <path class="cls-11" d="M165.9,710.9c.3.8.2,1.5-.4,2.1-1.8-1.1-1.2-1.7.4-2.1Z"/>
        <path class="cls-2" d="M129,718c.3,1,.7,2,1,3-1.8,1.5-4,.8-6.1.9,1.1-3-2.5-8.2,4-8.8.3.4.6.7,1,1.1,0,1.3,0,2.5.1,3.8Z"/>
        <path class="cls-7" d="M128.1,813c1.5,5,3.8,6,8.9,3.9-.7,2.7-2.4,4.3-5,5-1.3-2.6-4.7-3.1-6-5.8-.1-1.3.3-2.4,1.3-3.2.3,0,.5,0,.8.1Z"/>
        <path class="cls-10" d="M149,825.9c1.1,1.1,2.2,2.1,3.3,3.2,0,2.3-.2,4.5-.2,6.8-1.9,1.6-1.5,4.8-4.2,5.9.2-1.9-.5-3.3-2.2-4-3.7-1.3-4.9-4.4-5.7-7.8.3-.7.7-1.4,1-2.1,3.4,2.2,5.8.4,8-2Z"/>
        <path class="cls-7" d="M139.9,830c.8,3.4,2,6.5,5.7,7.8,1.7.6,2.5,2.1,2.2,4-1.9,0-3.8,0-5.7,0-.3-1.6-1.5-2.3-2.9-3-3.8-2-5.8-9.5-3.5-13,.3-.5,1.4-.6,2.2-.8,0,0,.2.3.2.3-.5,2.3-3.4,4.2-1.5,7.1,1.7,0,1.6-2.5,3.3-2.3Z"/>
        <path class="cls-4" d="M137.9,824.9c0-5.6,4-5.8,8.1-5.9,1.8.1,3.2.7,3.1,2.9,0,0-.1.1-.1.1-.6,0-1.2,0-1.8.1-1.5-.3-2.9.1-4.2.8-1,.4-2,.9-3.1,1.3l-1.8.9-.2-.3Z"/>
        <path class="cls-7" d="M143,822.9c1.3-.7,2.7-1.2,4.2-.8-.5,1.8.8,2.7,1.8,3.8-2.2,2.4-4.6,4.2-8,2,0-.7,0-1.3,0-2,1.2-.6,1.9-1.6,2-3Z"/>
        <path class="cls-6" d="M152,835.9c0-2.3.2-4.5.2-6.8,1.8-.2,3.5.2,3.4,2.3-.1,2.1-.4,4.7-3.7,4.5Z"/>
        <path class="cls-7" d="M152.9,817.1c2.3.1,3.5,1.7,4.3,3.6-2.4,0-3.6-1.6-4.3-3.6Z"/>
        <path class="cls-4" d="M151.9,823.6c-1.3,0-2.4-.3-3-1.6,0,0,.1-.1.1-.1,1.2-.2,2.2.2,2.8,1.2,0,0,0,.5,0,.5Z"/>
        <path class="cls-7" d="M151.9,823.6s0-.5,0-.5c.5.1.9.3.7.9-.2-.1-.4-.3-.6-.4Z"/>
        <path class="cls-7" d="M138.5,816.5c.6-.9,1.3-1.6,2.5-1.4-.4,1.3-1.3,1.7-2.5,1.4Z"/>
        <path class="cls-9" d="M142,43c-4,.8-8,2-10.8-2.4-.7-1.1-1.2-2,.5-2.6,1.5,2,3.3,4.4,6,3.4,2.4-.9,1.2-3.8,1.3-5.8,0-4.8-.1-9.5-.2-14.3,0-1,.1-2.1.2-3.1,1.1,0,2.3,0,3.4,0,0,.7.1,1.5.2,2.2-1.1,7.5.4,15.1-.4,22.7Z"/>
        <path class="cls-5" d="M154.1,43c-.7,1.5-2,2.1-3.7,2.1-.5-8.3-1-16.5-1.4-24.8.3-.7.6-1.4.9-2.1,1.1,0,2.2,0,3.3,0,0,.9,0,1.8,0,2.7-.4,6.4-.3,12.7.2,19.1-.4,1.1.3,2,.7,3Z"/>
        <path class="cls-4" d="M153.1,21c0-.9,0-1.8,0-2.7,4.2-.7,8.5,0,12.6-1.2,0,.3.1.5.2.8-1.4,2.1-4.2,1.7-5.8,3.4-2.3-.1-4.7-.2-7-.3Z"/>
        <path class="cls-4" d="M138.8,18.2c0,1-.1,2.1-.2,3.1-2.1-1.2-4.5-1.3-6.8-1.1-1.6-1.8-4.3-.3-5.9-2.1,0-.3.1-.6.2-.9,4.3.3,8.5.6,12.8.9Z"/>
        <path class="cls-4" d="M149.8,18.2c-.3.7-.6,1.4-.9,2.1-2.2,0-4.4,0-6.5,0,0-.7-.1-1.5-.2-2.2,2.6-.4,5.1-.5,7.6,0Z"/>
        <path class="cls-15" d="M170.1,84.1c-.3-10.7-.6-21.4-1-32.1,1,0,2,0,2.9.1,1.8,10.6.7,21.3.9,31.9-1,0-1.9,0-2.9,0Z"/>
        <path class="cls-15" d="M142.1,658.9c.3,0,.6,0,.9,0,0,3.7-.1,7.4-.2,11.1-3.2-3.5-2.1-7.3-.7-11.1Z"/>
        <path class="cls-15" d="M129.3,670.8c2.4,1.4,2.1,3.2.7,5.1-1.4-1.6-.9-3.4-.7-5.1Z"/>
        <path class="cls-10" d="M142.4,20.3c2.2,0,4.4,0,6.5,0,.5,8.3,1,16.5,1.4,24.8-.2.3-.4.6-.6.9-2.5,0-5-.2-7.5-.3-.1-.9-.2-1.8-.3-2.7.8-7.6-.7-15.2.4-22.7Z"/>
        <path class="cls-10" d="M131.7,20.2c2.4-.3,4.7-.2,6.8,1.1,0,4.8.3,9.5.2,14.3,0,2,1.1,4.9-1.3,5.8-2.6,1-4.4-1.4-6-3.4,0-1.3-.1-2.6-.1-3.9.5-3.4.8-6.7-.3-10,.2-1.3.4-2.6.6-3.9Z"/>
        <path class="cls-10" d="M153.1,21c2.3.1,4.7.2,7,.3,0,4.7,0,9.3,0,14-1.4,1.3-1.1,3.2-1.5,4.8v.4c0,0-.5,0-.5,0-1.6-.2-3.1-.4-4.7-.5-.5-6.4-.6-12.7-.2-19.1Z"/>
        <path class="cls-2" d="M170.1,84.1c1,0,1.9,0,2.9,0,0,4.5,0,8.9,0,13.4,0,1-.2,2.2-1.4,2.2-1.2,0-1.5-1.2-1.5-2.2,0-4.5,0-8.9,0-13.4Z"/>
        <path class="cls-15" d="M171.8,103.9c-.2,4.7,1.2,9.5-.8,14.1-1.1-4.8-2.7-9.6.8-14.1Z"/>
        <path class="cls-15" d="M215,131.1c-2.6,3.9-6.8,5-11,5.9,3-3.3,6.9-4.8,11-5.9Z"/>
        <path class="cls-9" d="M131.2,24.1c1.1,3.3.7,6.7.3,10-2.4-3.3-2-6.6-.3-10Z"/>
        <path class="cls-15" d="M178,148.1c-.6,2.1-2.4,2.6-3.7,1.5-2.2-1.8-1.6-4.3-.3-6.5,1.7,1.4.2,5.4,4.1,5Z"/>
        <path class="cls-9" d="M142.3,45.7c2.5,0,5,.2,7.5.3-2.8,3-5.4,2.9-7.5-.3Z"/>
        <path class="cls-15" d="M186,144.1c-1.3,3.3-4.5,3-7.1,3.9,1.4-3,4.1-3.7,7.1-3.9Z"/>
        <path class="cls-3" d="M249.9,98.1c.3,0,.7,0,1,0,1.5,2,1.5,4,0,6-1.7-1.8-.8-4-1-6Z"/>
        <path class="cls-7" d="M153.3,40.1c1.6.2,3.1.3,4.7.5-.5,2.1-2.3,2.2-4,2.5-.5-.9-1.1-1.8-.7-3Z"/>
        <path class="cls-15" d="M242,116.1c-.9,2.4-2.7,3.5-5.2,3.8.7-2.7,2.8-3.4,5.2-3.8Z"/>
        <path class="cls-15" d="M202,137.2c-.5,3-2.8,2.9-5.1,2.9.8-2.5,3.1-2.4,5.1-2.9Z"/>
        <path class="cls-15" d="M233.9,121c-1,2.1-2.9,2.7-5,3,.7-2.6,2.8-2.8,5-3Z"/>
        <path class="cls-15" d="M196,140.1c-1,2.3-2.6,3.1-5,2,1.4-1.4,3.2-1.7,5-2Z"/>
        <path class="cls-7" d="M158.5,40.1c.4-1.7.1-3.5,1.5-4.8.2,1.8,1.1,3.9-1.5,4.8Z"/>
        <path class="cls-11" d="M151.1,254.1c-1,2.5,1.7,7.1-2.9,7.1-4.3,0-2.9-4.4-2.9-7.1,0-2.8-1.6-7.6,2.9-7.6,4.7,0,1.8,4.9,2.9,7.5Z"/>
        <path class="cls-4" d="M145.1,225.5c.8-2.6-1.5-7.1,2.9-7.2,4.5-.1,2.8,4.5,2.8,7,0,2.7,2.1,7.5-2.8,7.4-4.5,0-2-4.7-2.8-7.2Z"/>
        <path class="cls-16" d="M153.1,807.3c-.7-.6-1.4-1.3-2.1-1.9.6-.5,1.3-.9,1.9-1.4,1.6.7,3.1,1.6,2.9,3.7-.9-.1-1.8-.3-2.7-.4Z"/>
        <path class="cls-3" d="M251.9,114.1c-.3-.7-.6-1.3-.9-2,1.2.3,2.1.7.9,2Z"/>
        <path class="cls-1" d="M141,825.9c0,.7,0,1.3,0,2-.3.7-.7,1.4-1,2.1-1.7-.2-1.6,2.3-3.3,2.3-1.9-2.9.9-4.7,1.5-7.1.6-.3,1.2-.6,1.8-.9.4.6.7,1.1,1.1,1.7Z"/>
        <path class="cls-10" d="M141,825.9c-.4-.6-.7-1.1-1.1-1.7,1-.4,2-.9,3.1-1.3-.1,1.4-.8,2.4-2,3Z"/>
      </g>
    </g>
  </g>
</svg>