<?xml version="1.0" encoding="UTF-8"?>
<svg id="Layer_1" xmlns="http://www.w3.org/2000/svg" version="1.1"   width="50" height="50" viewBox="0 0 64 65">
  <!-- Generator: Adobe Illustrator 29.5.1, SVG Export Plug-In . SVG Version: 2.1.0 Build 141)  -->
  <defs>
    <style>
      .st0 {
        fill: #fff;
      }
    </style>
  </defs>
  <path class="st0" d="M54.14,16.98h-19.9V5.08c0-.89-.71-1.62-1.59-1.62h-1.3c-.88,0-1.59.72-1.59,1.62v11.9H9.86c-8.55,0-13.03,10.32-7.26,16.73l22.14,24.57c1.95,2.16,4.6,3.25,7.26,3.25s5.31-1.08,7.26-3.25l22.14-24.57c5.78-6.41,1.3-16.73-7.26-16.73ZM59.27,31.73l-22.14,24.57c-1.33,1.48-3.15,2.29-5.12,2.29s-3.79-.81-5.12-2.29L4.73,31.73c-1.91-2.12-2.38-4.97-1.23-7.6,1.14-2.64,3.52-4.21,6.35-4.21h44.29c2.84,0,5.21,1.57,6.35,4.21,1.14,2.64.68,5.48-1.23,7.6Z"/>
  <path class="st0" d="M53.99,21.68c-3,0-5.42,2.47-5.42,5.51,0,.03,0,.06,0,.09-.04,0-.06-.02-.1-.02H15.57s0-.05,0-.07c0-3.04-2.43-5.51-5.42-5.51s-5.42,2.47-5.42,5.51,2.43,5.51,5.42,5.51c1.43,0,2.72-.57,3.69-1.49.04.04.06.09.1.13l15.4,14.58c-1.65.94-2.78,2.72-2.78,4.78,0,3.04,2.43,5.51,5.42,5.51s5.42-2.47,5.42-5.51c0-2.06-1.13-3.84-2.78-4.78l15.4-14.58c.07-.06.1-.14.16-.2.98.97,2.31,1.57,3.78,1.57,3,0,5.42-2.47,5.42-5.51s-2.43-5.51-5.42-5.51ZM32,44.4l-15-14.2h30l-15,14.2Z"/>
  <path class="st0" d="M26.08,36.07l3.97,4.54c.52.59,1.23.89,1.95.89s1.43-.3,1.95-.89l3.97-4.54c1.49-1.71.3-4.4-1.95-4.4h-7.94c-2.25,0-3.44,2.69-1.95,4.4ZM35.32,34.61l-3.33,3.8-3.33-3.8h6.65Z"/>
</svg>