<svg width="24" height="24" viewBox="0 0 24 24" fill="none" xmlns="http://www.w3.org/2000/svg">
<path d="M14.709 3.52539C16.1729 3.37392 17.4006 3.89743 18.4844 4.94434C19.1412 5.57898 19.6525 6.31404 19.9971 7.16113C20.1138 7.44806 20.1551 7.62462 20.1182 7.78711L20.0967 7.85645C20.0123 8.08469 19.8889 8.23376 19.7119 8.33301C19.2793 8.57554 18.8043 8.62771 18.2578 8.55273C17.8456 8.49621 17.4005 8.46182 16.9414 8.51855L16.7441 8.54883C15.7578 8.72809 15.087 9.32826 14.6094 10.0928C14.0388 9.83497 13.4338 9.75962 12.8047 9.91406L12.8096 10.8867C12.9234 10.9133 13.0399 10.9296 13.1211 10.9424C13.2111 10.9565 13.2745 10.9679 13.3301 10.9844C13.8781 11.1469 14.2429 11.4893 14.4561 12.0391C14.4917 12.1309 14.557 12.2656 14.6914 12.3721C14.8305 12.4822 14.9823 12.5138 15.0957 12.5234C16.2863 12.6245 17.4138 12.8907 18.457 13.4277C19.0226 13.7189 19.5026 14.0837 19.8701 14.5703C20.4086 15.2835 20.5779 16.0994 20.4678 17.0234C20.327 18.2035 19.8873 19.2021 19.0488 19.9941C18.3189 20.6836 17.4373 21.0949 16.4395 21.3311C15.762 21.4914 15.0833 21.5405 14.3955 21.4648C14.235 21.447 14.0842 21.3583 13.9639 21.2119C13.8397 21.0607 13.7772 20.8822 13.7725 20.752C13.7573 20.3311 13.828 19.9635 14.0146 19.6348C14.1763 19.3501 14.3642 19.0291 14.5303 18.7344C14.8701 18.1312 15.0248 17.5149 14.9863 16.8936C14.951 16.3245 14.7542 15.782 14.4355 15.2676C14.9334 14.851 15.2592 14.3137 15.3857 13.6572L15.5283 13.3955L15.2715 13.1318L14.5762 12.418L14.4326 13.3145C14.3424 13.4772 14.2628 13.6099 14.1729 13.7197L14.0645 13.8359C13.6175 14.255 13.1423 14.4047 12.5938 14.2959L12.3545 14.2334L12.2705 14.21C12.1791 14.1895 12.0654 14.1797 11.9404 14.21C11.7758 14.2498 11.6616 14.3425 11.5908 14.4102C10.6038 15.3534 9.55725 16.1139 8.30957 16.5049C7.15088 16.8679 6.12639 16.7335 5.20703 15.9629C4.62531 15.4753 4.18541 14.8673 3.87793 14.1543C3.35311 12.9369 3.39867 11.7062 3.86621 10.4434C4.21925 9.48989 4.74336 8.66011 5.46973 7.96387C5.74545 7.6996 6.24367 7.74265 6.49805 7.98633C6.81744 8.29233 7.03651 8.63019 7.15332 9.03516C7.23846 9.3304 7.33556 9.61994 7.43457 9.90137C7.65585 10.5301 8.0023 11.0345 8.47266 11.4043C8.91375 11.751 9.4405 11.9587 10.0234 12.0586C10.0114 12.5021 10.0933 12.9417 10.3096 13.3604L11.2529 13.1104C11.2431 12.8608 11.2272 12.6918 11.2393 12.5088C11.2675 12.0807 11.4209 11.728 11.709 11.4365C11.7469 11.3981 11.7862 11.3505 11.8223 11.2939L12.002 11.4736C11.6613 11.7426 11.4437 12.1606 11.4434 12.627C11.4428 13.4264 12.0966 14.097 12.9023 14.0918C13.7005 14.0865 14.3393 13.4282 14.3428 12.6357C14.346 11.8826 13.7879 11.2461 13.0479 11.1699L12.8975 11.1621H11.8896C11.904 11.1237 11.9162 11.0827 11.9238 11.0381C11.9458 10.9085 11.9271 10.793 11.9023 10.7061L11.877 10.6289C11.438 9.42867 11.1754 8.22663 11.2461 6.9834C11.3126 5.81493 11.7082 4.8892 12.6182 4.25391C13.2317 3.82569 13.9357 3.60543 14.709 3.52539Z" stroke="white"/>
</svg>
