<svg width="24" height="24" viewBox="0 0 24 24" fill="none" xmlns="http://www.w3.org/2000/svg">
<g clip-path="url(#clip0_460_21292)">
<mask id="mask0_460_21292" style="mask-type:luminance" maskUnits="userSpaceOnUse" x="0" y="0" width="24" height="24">
<path d="M24 0H0V24H24V0Z" fill="white"/>
</mask>
<g mask="url(#mask0_460_21292)">
<path d="M17.398 14.246C17.8106 14.246 18.2192 14.3272 18.6004 14.4852C18.9817 14.6431 19.3281 14.8745 19.6198 15.1663L19.6606 15.2078C20.0778 15.6408 20.3623 16.1846 20.4797 16.7751C20.6009 17.3846 20.5387 18.0163 20.3009 18.5905C20.0631 19.1646 19.6604 19.6553 19.1437 20.0005C18.6269 20.3458 18.0195 20.5301 17.398 20.5301C16.7766 20.5301 16.1691 20.3458 15.6524 20.0005C15.1357 19.6553 14.733 19.1646 14.4952 18.5905C14.2574 18.0163 14.1951 17.3846 14.3163 16.7751C14.4376 16.1656 14.7368 15.6057 15.1762 15.1663L15.2038 15.1391C15.4897 14.8601 15.8263 14.6381 16.1956 14.4852C16.5768 14.3272 16.9854 14.246 17.398 14.246ZM17.398 15.046C17.0905 15.046 16.7859 15.1066 16.5018 15.2243C16.2265 15.3383 15.9756 15.5038 15.7624 15.7117L15.7419 15.732C15.4144 16.0595 15.1914 16.4768 15.101 16.9311C15.0106 17.3854 15.057 17.8563 15.2343 18.2843C15.4115 18.7122 15.7117 19.078 16.0969 19.3354C16.482 19.5927 16.9348 19.7301 17.398 19.7301C17.8612 19.7301 18.3141 19.5927 18.6992 19.3354C19.0843 19.078 19.3845 18.7122 19.5618 18.2843C19.739 17.8563 19.7855 17.3854 19.6951 16.9311C19.6076 16.491 19.3955 16.0857 19.0845 15.763L19.0541 15.732C18.8366 15.5145 18.5785 15.342 18.2943 15.2243C18.0102 15.1065 17.7056 15.046 17.398 15.046Z" fill="white"/>
<path d="M6.6219 3.46991C7.03452 3.46991 7.44311 3.55118 7.82433 3.70909C8.20554 3.867 8.55194 4.09845 8.8437 4.39022L8.88448 4.43178C9.30164 4.8647 9.58614 5.40857 9.70358 5.99901C9.82481 6.60851 9.76257 7.24027 9.52475 7.8144C9.28694 8.38852 8.88423 8.87923 8.36753 9.22448C7.85082 9.56973 7.24334 9.75401 6.6219 9.75401C6.00047 9.75401 5.39298 9.56973 4.87628 9.22448C4.35958 8.87923 3.95687 8.38852 3.71905 7.8144C3.48124 7.24027 3.41899 6.60851 3.54022 5.99901C3.66145 5.38952 3.96069 4.82965 4.40011 4.39022L4.42765 4.36307C4.71358 4.08408 5.05018 3.86207 5.41948 3.70909C5.80069 3.55118 6.20928 3.46991 6.6219 3.46991ZM6.6219 4.26991C6.31435 4.26991 6.0098 4.33049 5.72565 4.44819C5.45038 4.56222 5.19945 4.72769 4.98632 4.93565L4.96581 4.95593C4.63828 5.28346 4.41524 5.70077 4.32487 6.15507C4.23451 6.60937 4.28089 7.08028 4.45815 7.50823C4.63542 7.93618 4.93563 8.30198 5.32077 8.55932C5.70591 8.81666 6.15871 8.95401 6.6219 8.95401C7.08511 8.95401 7.53793 8.81666 7.92308 8.55932C8.30822 8.30198 8.60839 7.93618 8.78565 7.50823C8.96292 7.08028 9.00934 6.60937 8.91897 6.15507C8.83143 5.71496 8.61933 5.30959 8.30839 4.9869L8.278 4.95593C8.06052 4.73844 7.80234 4.5659 7.51819 4.44819C7.23404 4.33049 6.92947 4.26991 6.6219 4.26991Z" fill="white"/>
<path d="M3.47998 17.3879C3.47998 16.9753 3.56125 16.5667 3.71916 16.1855C3.87707 15.8043 4.10852 15.4579 4.40029 15.1662L4.42779 15.139C4.71373 14.86 5.05033 14.6381 5.41963 14.4851C5.80084 14.3272 6.20943 14.2459 6.62205 14.2459L6.66072 14.2461C7.06017 14.2511 7.45514 14.3321 7.82443 14.4851C8.20563 14.643 8.55201 14.8744 8.84377 15.1662H8.84381L8.87123 15.194C9.44331 15.7804 9.76404 16.5677 9.76404 17.388C9.76404 18.2213 9.43304 19.0205 8.84381 19.6097L8.84377 19.6098C8.55201 19.9015 8.20564 20.133 7.82443 20.2909C7.44323 20.4488 7.03466 20.53 6.62205 20.53C6.20943 20.53 5.80084 20.4487 5.41963 20.2908C5.03842 20.1329 4.69205 19.9015 4.40029 19.6097V19.6097C4.10852 19.318 3.87707 18.9716 3.71916 18.5904C3.56125 18.2092 3.47998 17.8006 3.47998 17.3879ZM4.27998 17.3879C4.27998 17.6955 4.34056 18.0001 4.45826 18.2842C4.57229 18.5595 4.73776 18.8104 4.94572 19.0235L4.966 19.044L4.9865 19.0643C5.19963 19.2723 5.45054 19.4377 5.7258 19.5517C6.00994 19.6694 6.31449 19.73 6.62205 19.73C6.92961 19.73 7.23416 19.6695 7.5183 19.5518C7.80245 19.4341 8.06063 19.2615 8.27811 19.0441L8.29853 19.0234C8.72496 18.5862 8.96404 17.9994 8.96404 17.388C8.96404 16.7765 8.72495 16.1897 8.29853 15.7526L8.27811 15.7319C8.06063 15.5144 7.80244 15.3419 7.5183 15.2242C7.24304 15.1102 6.94862 15.0498 6.65088 15.0461L6.62205 15.0459C6.31449 15.0459 6.00995 15.1065 5.7258 15.2242C5.45054 15.3382 5.19963 15.5037 4.9865 15.7116L4.966 15.7319C4.74851 15.9494 4.57597 16.2075 4.45826 16.4917C4.34056 16.7758 4.27998 17.0804 4.27998 17.3879Z" fill="white"/>
<path d="M14.256 6.61194C14.256 6.19932 14.3373 5.79073 14.4952 5.40952C14.6531 5.02831 14.8845 4.68194 15.1763 4.39018L15.2038 4.36303C15.4897 4.08405 15.8263 3.86206 16.1956 3.70909C16.5768 3.55119 16.9854 3.46991 17.3981 3.46991L17.4367 3.47014C17.8362 3.47506 18.2311 3.55612 18.6004 3.70909C18.9816 3.86699 19.328 4.09842 19.6198 4.39018H19.6198L19.6472 4.41796C20.2193 5.00442 20.54 5.79167 20.54 6.61198C20.54 7.44529 20.209 8.24448 19.6198 8.83374L19.6198 8.83378C19.328 9.12553 18.9816 9.35697 18.6004 9.51487C18.2192 9.67277 17.8107 9.75401 17.3981 9.75401C16.9854 9.75401 16.5768 9.67274 16.1956 9.51483C15.8144 9.35692 15.4681 9.12547 15.1763 8.8337V8.83374C14.8845 8.54198 14.6531 8.19557 14.4952 7.81436C14.3373 7.43315 14.256 7.02456 14.256 6.61194ZM15.056 6.61194C15.056 6.9195 15.1166 7.22408 15.2343 7.50823C15.3483 7.7835 15.5138 8.0344 15.7217 8.24753L15.742 8.26803L15.7625 8.28831C15.9756 8.49626 16.2265 8.66171 16.5018 8.77573C16.7859 8.89343 17.0905 8.95401 17.3981 8.95401C17.7056 8.95401 18.0102 8.89346 18.2943 8.77577C18.5784 8.65807 18.8366 8.48555 19.0541 8.26807L19.0745 8.24737C19.501 7.81022 19.74 7.22343 19.74 6.61198C19.74 6.00053 19.501 5.41374 19.0745 4.97659L19.0541 4.95589C18.8366 4.73841 18.5784 4.56589 18.2943 4.44819C18.019 4.33417 17.7246 4.27377 17.4269 4.2701L17.3981 4.26991C17.0905 4.26991 16.7859 4.33049 16.5018 4.44819C16.2265 4.56221 15.9756 4.72767 15.7625 4.93561L15.742 4.95589C15.5245 5.17336 15.352 5.43154 15.2343 5.71569C15.1166 5.99984 15.056 6.30438 15.056 6.61194Z" fill="white"/>
<path d="M6.80351 18.6506C6.61123 18.6506 6.42081 18.6127 6.24316 18.5391C6.06552 18.4655 5.90411 18.3576 5.76816 18.2216C5.63221 18.0857 5.52437 17.9243 5.45078 17.7467C5.37718 17.5691 5.3393 17.3786 5.33929 17.1864L5.33972 17.1503C5.34416 16.9703 5.38178 16.7925 5.45078 16.626C5.52437 16.4483 5.63223 16.2869 5.7682 16.151L9.36672 12.5525V11.427L5.78863 7.84893C5.65266 7.71299 5.5448 7.5516 5.47121 7.37397C5.3976 7.19632 5.35972 7.00588 5.35972 6.81358C5.35973 6.62129 5.39761 6.43088 5.47121 6.25323C5.54482 6.07557 5.65271 5.91414 5.78871 5.77819L5.78875 5.77827C5.92469 5.64229 6.08611 5.5344 6.26375 5.46081C6.44139 5.38721 6.63181 5.34932 6.8241 5.34932C7.01639 5.34932 7.2068 5.38721 7.38445 5.46081C7.56208 5.5344 7.72343 5.64233 7.85937 5.77831L7.85941 5.77827L11.4375 9.35647H12.563L16.141 5.77846L16.1668 5.75331C16.2972 5.62913 16.4494 5.53001 16.616 5.461C16.7936 5.3874 16.984 5.34952 17.1763 5.34952C17.3686 5.34952 17.559 5.3874 17.7367 5.461C17.9143 5.5346 18.0758 5.64247 18.2117 5.77846L18.2117 5.7785C18.3476 5.91443 18.4555 6.07578 18.5291 6.25339C18.6027 6.43103 18.6406 6.62145 18.6406 6.81374C18.6406 7.00603 18.6027 7.19644 18.5291 7.37409C18.4555 7.55172 18.3476 7.71311 18.2116 7.84905L14.6337 11.4271V12.5526L18.2117 16.1307L18.2117 16.1307C18.3476 16.2667 18.4555 16.428 18.5291 16.6057C18.6027 16.7833 18.6406 16.9737 18.6406 17.166C18.6406 17.3583 18.6027 17.5487 18.5291 17.7264C18.4555 17.904 18.3476 18.0654 18.2116 18.2014C18.0757 18.3373 17.9143 18.4452 17.7367 18.5188C17.5702 18.5878 17.3924 18.6254 17.2124 18.6298L17.1764 18.6303C16.9841 18.6303 16.7936 18.5924 16.616 18.5188C16.4383 18.4452 16.2769 18.3373 16.141 18.2013L12.563 14.6232H11.4373L7.83887 18.2217C7.70293 18.3576 7.54152 18.4655 7.3639 18.5391C7.18625 18.6127 6.99581 18.6506 6.80351 18.6506ZM10.8178 10.8074H13.1827V13.1723H10.8178V10.8074ZM12.3827 12.3723V11.6074H11.6178V12.3723H12.3827ZM6.80351 17.8506C6.89073 17.8506 6.97712 17.8334 7.05769 17.8C7.13323 17.7687 7.2023 17.7238 7.26144 17.6674L7.27312 17.656L11.106 13.8232H12.8944L16.7068 17.6357C16.7684 17.6974 16.8416 17.7463 16.9222 17.7797C17.0028 17.8131 17.0891 17.8303 17.1764 17.8303L17.1927 17.8301C17.2743 17.8281 17.355 17.811 17.4305 17.7797C17.506 17.7484 17.5751 17.7035 17.6343 17.6471L17.646 17.6357L17.6461 17.6356L17.6575 17.6239C17.7138 17.5648 17.7587 17.4957 17.79 17.4202C17.8234 17.3396 17.8406 17.2532 17.8406 17.166C17.8406 17.0788 17.8234 16.9924 17.79 16.9119C17.7567 16.8313 17.7077 16.7581 17.6461 16.6964L13.8337 12.884V11.0957L17.646 7.28335L17.6574 7.27163C17.7137 7.21248 17.7587 7.14342 17.79 7.06788C17.8234 6.98731 17.8406 6.90095 17.8406 6.81374C17.8406 6.72652 17.8234 6.64017 17.79 6.5596C17.7566 6.47902 17.7077 6.40579 17.646 6.34413L17.6459 6.34405L17.6342 6.33264C17.5751 6.27632 17.506 6.23136 17.4305 6.20006C17.3499 6.16669 17.2635 6.14952 17.1763 6.14952C17.0891 6.14952 17.0028 6.16668 16.9222 6.20006C16.8416 6.23345 16.7684 6.28237 16.7068 6.34405L16.7067 6.34409L12.8943 10.1565H11.1061L7.29367 6.34389L7.28199 6.33249C7.22284 6.27617 7.15378 6.2312 7.07824 6.19991C6.99767 6.16653 6.91131 6.14932 6.8241 6.14932C6.73689 6.14932 6.65053 6.16653 6.56996 6.19991C6.48938 6.23329 6.41615 6.28221 6.35449 6.34389L5.93011 5.91967L6.35429 6.34401C6.29261 6.40567 6.24365 6.47887 6.21027 6.55944C6.17689 6.64001 6.15973 6.72637 6.15972 6.81358C6.15972 6.9008 6.17689 6.98718 6.21027 7.06776C6.24366 7.14834 6.29261 7.22153 6.35429 7.28319L6.35433 7.28327L10.1667 11.0957V12.8839L6.33386 16.7167C6.27219 16.7784 6.22322 16.8516 6.18984 16.9322C6.15855 17.0077 6.1415 17.0883 6.13949 17.17L6.13929 17.1864C6.1393 17.2736 6.15646 17.3599 6.18984 17.4405C6.22322 17.5211 6.27218 17.5943 6.33386 17.6559L6.33394 17.656C6.3956 17.7177 6.4688 17.7666 6.54937 17.8C6.62994 17.8334 6.7163 17.8506 6.80351 17.8506Z" fill="white"/>
</g>
</g>
<defs>
<clipPath id="clip0_460_21292">
<rect width="24" height="24" fill="white"/>
</clipPath>
</defs>
</svg>
