<svg width="24" height="24" viewBox="0 0 24 24" fill="none" xmlns="http://www.w3.org/2000/svg">
<path d="M14.6831 10.2201C14.523 10.3837 14.445 10.4634 14.3629 10.6271C13.6443 11.3613 12.9217 12.0158 12.2811 12.7543C11.9609 13.0816 11.5626 12.9977 11.3203 12.7543C11.1602 12.5109 11.1602 12.2634 11.3203 12.02L11.8007 11.5291C13.1598 10.1403 14.523 8.83127 15.8821 7.43828C17.003 6.29284 18.1239 5.23131 19.2449 4.08587C19.3229 4.00616 19.483 4.00616 19.5651 4.08587C19.7253 4.24951 19.9634 4.49286 20.1235 4.6565V4.82013C19.483 5.47467 18.8425 6.04529 18.2019 6.69983V6.86346C18.9205 7.68163 19.4009 8.66344 19.8033 9.64524C20.0414 10.2998 20.1235 11.034 20.2015 11.7725C20.2015 13.0816 20.0414 14.3906 19.561 15.6158C19.1627 16.5137 18.6823 17.3319 17.9597 18.0703C17.4793 18.6409 16.9209 19.0521 16.2803 19.4591C15.4017 20.0297 14.3587 20.4409 13.3199 20.6045C12.2811 20.7682 11.3203 20.8479 10.2774 20.6045C9.07846 20.4409 7.95753 19.95 6.91462 19.2955C5.95382 18.6409 5.23527 17.9067 4.59474 17.0046C3.8762 16.0228 3.47381 14.8773 3.31368 13.6522C3.23566 13.0816 3.15355 12.5907 3.23566 12.0158C3.23566 11.1977 3.3958 10.3795 3.63394 9.64524C4.11434 8.09282 4.99302 6.78374 6.27408 5.71802C7.40323 4.82013 8.68429 4.16559 10.0434 3.92224C10.5238 3.84252 11.0822 3.84252 11.5626 3.75861C11.6406 3.75861 11.7227 3.75861 11.7227 3.92224V4.90405C11.7227 4.95859 11.6981 4.98377 11.6447 4.98377C10.2856 4.98377 9.00456 5.39075 7.80151 6.12921C6.7627 6.78374 5.87991 7.76555 5.3215 8.82707C4.92322 9.56133 4.68097 10.2998 4.60295 11.118C4.44282 12.1795 4.52494 13.1613 4.8411 14.1431C5.16137 15.2885 5.71978 16.2703 6.60256 17.1682C7.48535 18.0661 8.52416 18.7207 9.7231 19.0479C10.5238 19.2913 11.3244 19.3752 12.1251 19.3752C13.0038 19.3752 13.8044 19.1318 14.6051 18.8046C15.4058 18.4773 16.0463 18.0703 16.6868 17.4955C17.3274 16.9249 17.8078 16.2703 18.206 15.4522C18.6043 14.7179 18.8466 13.9795 18.9246 13.1613C19.0026 12.427 19.0026 11.6886 18.9246 10.9543C18.8466 10.2998 18.6043 9.72916 18.3662 9.07462C18.128 8.504 17.8078 7.92918 17.3274 7.43828H17.1672C16.6088 7.92918 16.1284 8.4998 15.5659 8.99071V9.15434C16.0463 9.80888 16.3666 10.4634 16.4446 11.2816C16.6047 12.1795 16.4446 12.9976 16.1243 13.8158C15.726 14.7976 15.0855 15.5319 14.2027 16.1067C13.4842 16.5976 12.6835 16.841 11.8007 16.841C10.8399 16.841 9.96125 16.6773 9.16058 16.1864C8.44204 15.6955 7.80151 15.1249 7.39912 14.3067C7.07886 13.6522 6.84071 12.9977 6.84071 12.2634C6.84071 11.3655 7.00084 10.4634 7.39912 9.64524C7.87952 8.66344 8.68019 8.0089 9.64098 7.518C10.2815 7.27465 10.922 7.11101 11.5626 7.11101C11.5626 7.11101 11.6406 7.11101 11.6406 7.19073V8.17254C11.6406 8.17254 11.6406 8.25226 11.5626 8.25226C10.6839 8.25226 9.88324 8.57952 9.16058 9.23406C8.28191 10.0522 7.87952 11.1138 8.03965 12.3431C8.19979 13.5725 8.84032 14.4704 9.87913 15.041C10.5197 15.448 11.2382 15.5319 12.0389 15.448C13.0777 15.2843 13.8783 14.8773 14.5189 14.0592C15.0773 13.3249 15.3195 12.5067 15.2374 11.5249C15.2374 10.9543 14.9993 10.3795 14.679 9.8886V9.80888V10.2159L14.6831 10.2201Z" fill="white"/>
</svg>
