<svg width="24" height="24" viewBox="0 0 24 24" fill="none" xmlns="http://www.w3.org/2000/svg">
<path d="M19.0583 2C20.8755 3.62657 22 5.87713 22 8.36364C22 10.8501 20.8755 13.1007 19.0583 14.7273M4.94166 2C3.12454 3.62657 2 5.87713 2 8.36364C2 10.8501 3.12454 13.1007 4.94165 14.7273" stroke="white" stroke-linecap="round" stroke-linejoin="round"/>
<path d="M16.4917 4.72729C17.648 5.65676 18.3636 6.9428 18.3636 8.36366C18.3636 9.78452 17.648 11.0706 16.4917 12M7.50832 4.72729C6.35197 5.65676 5.63635 6.9428 5.63635 8.36366C5.63635 9.78452 6.35197 11.0706 7.50831 12" stroke="white" stroke-linecap="round" stroke-linejoin="round"/>
<path d="M14.5667 6.54541C15.2275 7.01014 15.6364 7.65316 15.6364 8.36359C15.6364 9.07402 15.2275 9.71704 14.5667 10.1818M9.43334 6.54541C8.77257 7.01014 8.36365 7.65316 8.36365 8.36359C8.36365 9.07402 8.77257 9.71704 9.43334 10.1818" stroke="white" stroke-linecap="round" stroke-linejoin="round"/>
<path d="M7.72321 22L8.36363 20.1818M16.8141 22L16.0909 20.1818M8.36363 20.1818H16.0909M8.36363 20.1818L9.96813 14.823M8.36363 20.1818L14.2743 14.823M16.0909 20.1818L14.2743 14.823M16.0909 20.1818L9.96813 14.823M9.96813 14.823L11.9886 8.36365L14.2743 14.823M9.96813 14.823H14.2743" stroke="white" stroke-linecap="round" stroke-linejoin="round"/>
</svg>
