<svg width="24" height="24" viewBox="0 0 24 24" fill="none" xmlns="http://www.w3.org/2000/svg">
<g clip-path="url(#clip0_178_5108)">
<path d="M1.91809 16.1206C1.9181 16.5603 2.04609 17.0377 2.19675 17.3091L2.19935 17.3138L2.20186 17.3185C2.20059 17.3161 2.20899 17.3313 2.23472 17.3764C2.25749 17.4164 2.2895 17.4723 2.32954 17.5421C2.40958 17.6817 2.52107 17.8755 2.65352 18.1055C2.9184 18.5653 3.26672 19.1687 3.61381 19.769C3.96095 20.3692 4.30672 20.966 4.56662 21.4125C4.57565 21.428 4.58462 21.4433 4.59343 21.4585C4.60403 21.4391 4.61478 21.4194 4.62571 21.3994C4.87983 20.9347 5.21938 20.312 5.56085 19.685C5.9023 19.058 6.24557 18.4268 6.50711 17.9451C6.63789 17.7043 6.74818 17.501 6.82755 17.3543C6.86725 17.2809 6.8991 17.222 6.92187 17.1797C6.93327 17.1585 6.94222 17.1418 6.94868 17.1297C6.95337 17.1209 6.95589 17.1163 6.95684 17.1145L6.95679 17.1144C7.02498 16.9788 7.13786 16.5742 7.13786 16.1206C7.13786 14.6431 5.95705 13.4679 4.52798 13.4679C3.09891 13.4679 1.91809 14.6431 1.91809 16.1206ZM0.999986 16.1206C0.999986 14.1694 2.56721 12.5656 4.52798 12.5656C6.48873 12.5656 8.05597 14.1694 8.05597 16.1206C8.05597 16.6792 7.92418 17.2272 7.77991 17.5141L7.77969 17.5145L7.73737 17.5941C7.57225 17.9012 6.96462 19.0194 6.37034 20.1107C6.02876 20.7379 5.68893 21.3612 5.43443 21.8265C5.30722 22.0591 5.20114 22.2527 5.12677 22.3877C5.08966 22.455 5.06001 22.5085 5.03948 22.5452C5.02939 22.5633 5.02062 22.5788 5.01397 22.5903C5.01107 22.5954 5.00655 22.6032 5.00178 22.611C5.00059 22.6129 4.99365 22.6243 4.9843 22.6376C4.98147 22.6415 4.97451 22.6508 4.97031 22.6562C4.96372 22.6644 4.94487 22.6859 4.93221 22.6989C4.90402 22.7245 4.77592 22.8001 4.66807 22.8278C4.64754 22.8247 4.62712 22.8198 4.60683 22.8138V22.8317C4.51243 22.8221 4.38118 22.7735 4.34252 22.7495C4.32245 22.7348 4.29189 22.7089 4.28083 22.6983C4.2614 22.679 4.24803 22.6623 4.24389 22.657C4.23338 22.6438 4.2256 22.6325 4.22314 22.6289C4.21661 22.6193 4.21073 22.6101 4.20713 22.6044C4.19903 22.5915 4.18903 22.5751 4.17817 22.5571C4.15598 22.5202 4.12472 22.4676 4.08623 22.4022C4.00898 22.2711 3.89989 22.0842 3.76969 21.8605C3.50915 21.4129 3.16287 20.8153 2.81558 20.2148C2.14819 19.0607 1.46353 17.8724 1.3909 17.7412L1.39081 17.7412C1.15816 17.3221 0.999989 16.693 0.999986 16.1206Z" fill="white"/>
<path d="M5.44362 16.1722C5.44362 15.6739 5.03257 15.2699 4.52552 15.2699C4.01846 15.2699 3.60741 15.6739 3.60741 16.1722C3.60741 16.6705 4.01846 17.0744 4.52552 17.0744C5.03257 17.0744 5.44362 16.6705 5.44362 16.1722ZM6.36173 16.1722C6.36173 17.1688 5.53963 17.9767 4.52552 17.9767C3.5114 17.9767 2.6893 17.1688 2.6893 16.1722C2.6893 15.1755 3.5114 14.3676 4.52552 14.3676C5.53963 14.3676 6.36173 15.1755 6.36173 16.1722Z" fill="white"/>
<path d="M16.7914 4.55504C16.7914 4.99475 16.9194 5.47214 17.0701 5.74355L17.0727 5.74822L17.0752 5.75298C17.0739 5.75054 17.0823 5.7657 17.1081 5.81087C17.1308 5.85082 17.1628 5.90677 17.2029 5.97657C17.2829 6.1161 17.3944 6.30998 17.5269 6.53992C17.7917 6.99974 18.1401 7.60318 18.4872 8.20341C18.8343 8.8037 19.1801 9.40045 19.44 9.84698C19.449 9.86249 19.458 9.8778 19.4668 9.89293C19.4774 9.87355 19.4881 9.85384 19.499 9.83385C19.7532 9.36917 20.0927 8.74648 20.4342 8.11943C20.7756 7.49242 21.1189 6.86124 21.3804 6.3796C21.5112 6.13875 21.6215 5.93542 21.7009 5.78875C21.7406 5.71539 21.7724 5.65643 21.7952 5.61411C21.8066 5.59293 21.8156 5.57622 21.822 5.56411C21.8267 5.55533 21.8292 5.55071 21.8302 5.54891L21.8301 5.54887C21.8983 5.41325 22.0112 5.00867 22.0112 4.55504C22.0112 3.0776 20.8304 1.90232 19.4013 1.9023C17.9722 1.9023 16.7914 3.07758 16.7914 4.55504ZM15.8733 4.55504C15.8733 2.60384 17.4405 1.00002 19.4013 1.00002C21.3621 1.00004 22.9293 2.60383 22.9293 4.55504C22.9293 5.11364 22.7975 5.66166 22.6532 5.94859L22.653 5.94899L22.6107 6.02851C22.4456 6.33564 21.838 7.45387 21.2437 8.54515C20.9021 9.17239 20.5623 9.79562 20.3078 10.261C20.1806 10.4936 20.0745 10.6871 20.0001 10.8221C19.963 10.8895 19.9333 10.943 19.9128 10.9797C19.9027 10.9977 19.894 11.0133 19.8873 11.0248C19.8844 11.0298 19.8799 11.0377 19.8751 11.0455C19.8739 11.0474 19.867 11.0588 19.8576 11.072C19.8548 11.076 19.8478 11.0853 19.8436 11.0907C19.8371 11.0989 19.8182 11.1203 19.8055 11.1333C19.7774 11.1589 19.6493 11.2345 19.5414 11.2622C19.5209 11.2591 19.5005 11.2542 19.4802 11.2482V11.2662C19.3858 11.2565 19.2545 11.2079 19.2159 11.1839C19.1958 11.1692 19.1652 11.1433 19.1542 11.1327C19.1347 11.1135 19.1214 11.0967 19.1172 11.0915C19.1067 11.0782 19.0989 11.0669 19.0965 11.0633C19.0899 11.0538 19.0841 11.0445 19.0805 11.0388C19.0724 11.026 19.0624 11.0095 19.0515 10.9915C19.0293 10.9547 18.9981 10.902 18.9596 10.8367C18.8823 10.7055 18.7732 10.5187 18.643 10.295C18.3825 9.84738 18.0362 9.24977 17.6889 8.64921C17.0215 7.4951 16.3369 6.30682 16.2642 6.17561L16.2641 6.17566C16.0315 5.75656 15.8733 5.12749 15.8733 4.55504Z" fill="white"/>
<path d="M20.317 4.6065C20.317 4.10818 19.9059 3.70422 19.3989 3.70422C18.8918 3.70422 18.4808 4.10818 18.4808 4.6065C18.4808 5.10481 18.8918 5.50878 19.3989 5.50878C19.9059 5.50878 20.317 5.10481 20.317 4.6065ZM21.2351 4.6065C21.2351 5.60313 20.413 6.41106 19.3989 6.41106C18.3848 6.41106 17.5627 5.60313 17.5627 4.6065C17.5627 3.60987 18.3848 2.80194 19.3989 2.80194C20.413 2.80194 21.2351 3.60987 21.2351 4.6065Z" fill="white"/>
<path d="M9.34786 22.049C9.59373 22.0005 9.83475 22.149 9.88618 22.3806C9.93761 22.6122 9.78 22.8392 9.53414 22.8877C9.21297 22.9509 8.9086 22.9839 8.61855 22.9993L8.59514 23C8.35452 23.0013 8.15251 22.8245 8.13881 22.5957C8.12467 22.3594 8.31651 22.1571 8.56729 22.1438L8.61468 22.1411C8.85202 22.1268 9.09502 22.0988 9.34786 22.049ZM6.88485 22.1236C7.13604 22.1249 7.3386 22.3177 7.33728 22.5543C7.33595 22.7909 7.13124 22.9817 6.88006 22.9805C6.76111 22.9799 6.64497 22.9816 6.53046 22.9869L6.48151 22.9893C6.23076 23.0032 6.01554 22.823 6.0008 22.5868C5.98606 22.3506 6.17737 22.1479 6.42812 22.134L6.486 22.131C6.62071 22.1248 6.75372 22.1229 6.88485 22.1236ZM11.5267 21.0972C11.7226 20.949 12.0088 20.9784 12.1661 21.1629C12.3235 21.3473 12.2922 21.617 12.0964 21.7652C11.9751 21.857 11.845 21.9449 11.7062 22.0285L11.6462 22.0641C11.5133 22.1415 11.3827 22.213 11.2541 22.2789C11.0334 22.392 10.7572 22.3152 10.6372 22.1074C10.5171 21.8996 10.5986 21.6394 10.8193 21.5263C10.9325 21.4683 11.0486 21.4048 11.1674 21.3355L11.2161 21.3066C11.3285 21.2389 11.4319 21.1689 11.5267 21.0972ZM12.7206 18.5465C12.9655 18.4941 13.2092 18.6387 13.2648 18.8694C13.3515 19.2288 13.3644 19.5995 13.2939 19.9662L13.2891 19.9877C13.2343 20.2084 13.0047 20.3522 12.7652 20.3113C12.5181 20.2691 12.354 20.0461 12.3988 19.8133L12.4071 19.7668C12.4453 19.534 12.4349 19.2959 12.3778 19.0592C12.3222 18.8285 12.4756 18.5989 12.7206 18.5465ZM10.7047 16.5011C10.8795 16.3416 11.1552 16.3407 11.3311 16.4954L11.3478 16.5108L11.3836 16.5449C11.4685 16.6235 11.5624 16.697 11.6657 16.7644C11.8 16.852 11.9274 16.9449 12.0475 17.0424L12.0985 17.0845L12.1156 17.0996C12.287 17.2587 12.2976 17.5182 12.1358 17.6894C11.974 17.8606 11.6991 17.8807 11.5115 17.7388L11.4936 17.7246L11.4533 17.6912C11.358 17.6138 11.2562 17.5395 11.1479 17.4689C10.9913 17.3667 10.8486 17.2537 10.7199 17.1315L10.6943 17.1069L10.6785 17.0907C10.52 16.9201 10.5299 16.6605 10.7047 16.5011ZM9.91705 14.0196C9.98461 13.8021 10.2222 13.6703 10.4589 13.7235C10.7033 13.7783 10.8541 14.0094 10.7959 14.2395L10.7836 14.2903C10.7242 14.5449 10.7007 14.8065 10.7155 15.0629C10.7291 15.2992 10.5368 15.5011 10.286 15.514C10.0352 15.5268 9.82082 15.3457 9.80717 15.1095C9.78645 14.7508 9.82306 14.3888 9.91106 14.0409L9.91705 14.0196ZM11.9707 11.7021C12.196 11.6225 12.4504 11.7226 12.5473 11.9329C12.6473 12.1499 12.5415 12.4023 12.311 12.4964L12.2708 12.5131C12.1909 12.5467 12.1136 12.5818 12.0392 12.6186L12.0022 12.6372C11.8817 12.6984 11.7678 12.7718 11.661 12.8562L11.6427 12.8699C11.4507 13.0065 11.1766 12.9788 11.0203 12.8031C10.8589 12.6218 10.8841 12.3516 11.0765 12.1996L11.1051 12.1772C11.249 12.0664 11.4042 11.9674 11.5704 11.883L11.6165 11.8599C11.7245 11.8065 11.8355 11.7568 11.949 11.7104L11.9707 11.7021ZM13.6784 12.1191C13.4317 12.1635 13.1935 12.0111 13.1464 11.7786C13.0993 11.5462 13.2611 11.3218 13.5078 11.2775L13.6784 12.1191ZM14.3153 11.1601C14.5552 11.1435 14.7694 11.307 14.7995 11.5345C14.8306 11.7693 14.6537 11.9833 14.4045 12.0126L14.3114 12.0239C14.0949 12.0508 13.8835 12.0822 13.6784 12.1191L13.5078 11.2775C13.7642 11.2314 14.0264 11.1935 14.2919 11.1623L14.3153 11.1601ZM16.6484 11.021C16.8889 11.0274 17.0843 11.2105 17.0898 11.4397C17.0954 11.6762 16.8965 11.8723 16.6453 11.8776L16.4568 11.882C16.2683 11.8868 16.0796 11.8929 15.8915 11.9008L15.8681 11.9012C15.6275 11.8998 15.4278 11.7208 15.417 11.4918C15.4058 11.2555 15.6001 11.0553 15.8511 11.0448L16.0452 11.0372C16.2392 11.0303 16.4327 11.025 16.6249 11.021L16.6484 11.021ZM18.5396 11C18.7908 10.9971 18.9969 11.1866 19 11.4231C19.0031 11.6597 18.802 11.8539 18.5508 11.8568C18.4246 11.8583 18.2965 11.8594 18.1673 11.8605C17.9161 11.8625 17.7107 11.6723 17.7086 11.4357C17.7064 11.1991 17.9083 11.0056 18.1595 11.0036C18.2882 11.0026 18.415 11.0015 18.5396 11Z" fill="white"/>
</g>
<defs>
<clipPath id="clip0_178_5108">
<rect width="24" height="24" fill="white"/>
</clipPath>
</defs>
</svg>
