<?xml version="1.0" encoding="UTF-8"?>
<svg id="Layer_1" xmlns="http://www.w3.org/2000/svg" version="1.1"   width="50" height="50" viewBox="0 0 64 62">
  <!-- Generator: Adobe Illustrator 29.5.1, SVG Export Plug-In . SVG Version: 2.1.0 Build 141)  -->
  <defs>
    <style>
      .st0 {
        fill: #fff;
      }
    </style>
  </defs>
  <path class="st0" d="M14.46,16.03c.17.58-.05,3.22-.05,3.22l-.81,6.01c0,2.14.56,3.87,2.77,3.87s1.95-1.5,1.95-9.88c-.08-.96-.22-2.64-.05-3.22.48-.3.87-.72,1.14-1.21.27-.49.41-1.04.41-1.59,0-.44-.09-.88-.26-1.28-.17-.41-.43-.78-.75-1.09-.32-.31-.7-.56-1.12-.73-.42-.17-.87-.26-1.33-.26s-.91.09-1.33.26c-.42.17-.8.42-1.12.73-.32.31-.58.68-.75,1.09-.17.41-.26.84-.26,1.28,0,.56.14,1.1.41,1.59.27.49.67.9,1.14,1.21Z"/>
  <path class="st0" d="M45.72,6.28c.17.58.03,8.81-.05,9.77,0,8.38-.25,9.88,1.95,9.88s2.77-1.73,2.77-3.87l-.81-12.56s-.22-2.64-.05-3.22c.48-.3.87-.72,1.14-1.21.27-.49.41-1.04.41-1.59,0-.44-.09-.88-.26-1.28-.17-.41-.43-.78-.75-1.09-.32-.31-.7-.56-1.12-.73-.42-.17-.87-.26-1.33-.26s-.91.09-1.33.26c-.42.17-.8.42-1.12.73-.32.31-.58.68-.75,1.09-.17.41-.26.84-.26,1.28,0,.56.14,1.1.41,1.59.27.49.67.9,1.14,1.21Z"/>
  <path class="st0" d="M43.91,53.65c-.89,0-1.99.32-3.06.87.38-.96.59-2.01.59-3.07v-22.11c0-.57-.07-1.14-.18-1.7.75.25,1.62.41,2.65.41.18,0,.37-.04.54-.1.17-.07.33-.17.46-.3.13-.13.23-.28.3-.44.07-.17.11-.34.11-.52v-4.42c0-.36-.15-.71-.41-.96-.26-.26-.62-.4-.99-.4h-5.62c-.18,0-.37.04-.54.1-.17.07-.33.17-.46.3-.13.13-.23.28-.3.44-.07.16-.1.33-.1.51-.59-.21-1.23-.32-1.91-.32h-5.96c-.68,0-1.32.12-1.91.32,0-.17-.04-.35-.1-.51-.07-.17-.17-.32-.3-.44-.13-.13-.29-.23-.46-.3-.17-.07-.35-.1-.54-.1h-5.62c-.37,0-.73.14-.99.4-.26.26-.41.6-.41.96v4.42c0,.18.04.36.11.52.07.17.17.32.3.44.13.13.29.23.46.3.17.07.35.1.54.1,1.03,0,1.9-.16,2.65-.41-.12.55-.18,1.12-.18,1.7v22.29c.02.72.13,1.44.33,2.12-.79-.07-1.71-.1-2.8-.1-.37,0-.73.14-.99.4-.26.26-.41.6-.41.96v4.42c0,.18.04.36.11.52.07.17.17.32.3.44.13.13.29.23.46.3.17.07.35.1.54.1h5.62c.18,0,.37-.04.54-.1.17-.07.33-.17.46-.3.13-.13.23-.28.3-.44.07-.17.11-.34.11-.52,0-.32,0-.62-.02-.91.6.21,1.24.33,1.93.33h5.96c.73,0,1.42-.13,2.06-.37-.09.31-.15.63-.15.95,0,.18.04.36.11.52.07.17.17.32.3.44.13.13.29.23.46.3.17.07.35.1.54.1h5.62c.18,0,.37-.04.54-.1.17-.07.33-.17.46-.3.13-.13.23-.28.3-.44.07-.17.11-.34.11-.52v-4.42c0-.36-.15-.71-.41-.96-.26-.26-.62-.4-.99-.4ZM29.01,55.95c-1.6,0-3.41-1.66-3.46-4.37v-.13s0-22.11,0-22.11c0-2.79,1.83-4.5,3.46-4.5h5.96c1.61,0,3.41,1.66,3.46,4.37v.13s0,22.11,0,22.11c0,2.79-1.83,4.5-3.46,4.5h-5.96Z"/>
  <path class="st0" d="M47.63,42.62c-.45,0-.91.09-1.33.26-.42.17-.8.42-1.12.73-.32.31-.58.68-.75,1.09-.17.41-.26.84-.26,1.28,0,.56.14,1.1.41,1.59.27.49.67.9,1.14,1.21.17.58.03,2.26-.05,3.22,0,8.38-.25,9.88,1.95,9.88s2.77-1.73,2.77-3.87l-.81-6.01s-.22-2.64-.05-3.22c.48-.3.87-.72,1.14-1.21.27-.49.41-1.04.42-1.59,0-.89-.36-1.74-1.01-2.37-.65-.63-1.53-.98-2.45-.98Z"/>
  <path class="st0" d="M18.26,39.84c.48-.3.87-.72,1.14-1.21.27-.49.41-1.04.41-1.59,0-.44-.09-.88-.26-1.28-.17-.41-.43-.78-.75-1.09-.32-.31-.7-.56-1.12-.73-.42-.17-.87-.26-1.33-.26-.92,0-1.8.35-2.45.98s-1.01,1.48-1.01,2.37c0,.56.14,1.1.41,1.59.27.49.67.9,1.14,1.21.17.58-.05,3.22-.05,3.22l-.81,12.56c0,2.14.56,3.87,2.77,3.87s1.95-1.5,1.95-9.88c-.08-.96-.22-9.19-.05-9.77Z"/>
  <path class="st0" d="M24.18,19.33c1.01.8,2.28,1.24,3.59,1.24h8.35c.76,0,1.51-.15,2.21-.43,1.2-.49,2.2-1.38,2.81-2.5.61-1.12.8-2.41.54-3.65-.26-1.24-.95-2.36-1.97-3.16-1.01-.8-2.28-1.24-3.59-1.24h-8.35c-.76,0-1.51.15-2.21.43-1.2.49-2.2,1.38-2.81,2.5-.61,1.12-.8,2.41-.54,3.65s.95,2.36,1.97,3.16ZM32.31,12.15c.16-.37.43-.69.77-.91.35-.22.75-.34,1.17-.34.56,0,1.09.22,1.48.6.39.38.62.9.62,1.44,0,.4-.12.8-.35,1.13-.23.33-.56.6-.94.75-.38.15-.81.19-1.21.12-.41-.08-.78-.27-1.08-.56-.29-.28-.49-.65-.57-1.04-.08-.39-.04-.8.12-1.18ZM32.31,16.51c.16-.37.43-.69.77-.91s.75-.34,1.17-.34c.56,0,1.09.22,1.48.6.39.38.62.9.62,1.44,0,.4-.12.8-.35,1.13s-.56.6-.94.75c-.38.15-.81.19-1.21.12-.41-.08-.78-.27-1.08-.56-.29-.28-.49-.65-.57-1.04-.08-.39-.04-.8.12-1.18ZM27.81,12.15c.16-.37.43-.69.77-.91.35-.22.75-.34,1.17-.34.56,0,1.09.22,1.48.6.39.38.62.9.62,1.44,0,.4-.12.8-.35,1.13-.23.33-.56.6-.94.75-.38.15-.81.19-1.21.12-.41-.08-.78-.27-1.08-.56-.29-.28-.49-.65-.57-1.04-.08-.39-.04-.8.12-1.18ZM27.81,16.51c.16-.37.43-.69.77-.91s.75-.34,1.17-.34c.56,0,1.09.22,1.48.6.39.38.62.9.62,1.44,0,.4-.12.8-.35,1.13-.23.33-.56.6-.94.75-.38.15-.81.19-1.21.12-.41-.08-.78-.27-1.08-.56-.29-.28-.49-.65-.57-1.04-.08-.39-.04-.8.12-1.18Z"/>
</svg>