<?xml version="1.0" encoding="UTF-8"?>
<svg xmlns="http://www.w3.org/2000/svg" version="1.1"   width="50" height="50"  viewBox="0 0 65 65">
  <defs>
    <style>
      .cls-1 {
        fill: #fff;
      }
    </style>
  </defs>
  <!-- Generator: Adobe Illustrator 28.7.7, SVG Export Plug-In . SVG Version: 1.2.0 Build 194)  -->
  <g>
    <g id="Layer_1">
      <g>
        <path class="cls-1" d="M61.7,19c-1-.7-2.3-.7-3.5-.8-3.7-.4-7.4-.7-11.2-.8-9.8-.4-19.7-.1-29.5,1-2,.3-2.7,1.7-3.2,3.5-1,2.8-1.6,5.8-1.7,8.8,0,1.9,0,3.7,0,5.6,0,0,0,0,0,0h0s0,0,0,0c0,0,0,0,0,0,0,0,0,0,0,0,0,0-.2,0-.3,0-.3,0-.7,0-1.2,0-1,0-2.2-.2-3.5-.5-1.3-.3-2.4-.8-3.2-1.4-.7-.6-1.2-1.3-1.1-2.3h0s0,0,0,0c0-1.2.2-2,.5-2.6.3-.6.8-1.1,1.4-1.7.6-.6,1.3-1.3,1.9-2.2.6-1,1-2.1,1-3.6h0c0-2.4-1.5-4.3-2.8-5.4-.7-.6-1.3-1.1-1.8-1.4-.2-.2-.5-.3-.6-.4,0,0-.1,0-.2,0,0,0,0,0,0,0,0,0,0,0,0,0,0,0,0,0,0,0,0,0,0,0,0,0,0,0,0,0,0,0,0,0,0,0-.4.8l.4-.8c-.7-.4-1.6,0-2,.6-.4.7,0,1.6.6,2h0s0,0,0,0c0,0,0,0,0,0,0,0,0,0,.1,0,.1,0,.3.2.5.3.4.3.9.6,1.4,1.1,1.1,1,1.8,2.1,1.8,3.1h0s0,0,0,0c0,1-.3,1.6-.6,2.1-.4.6-.8,1-1.5,1.7-.6.6-1.3,1.4-1.9,2.4-.6,1.1-.9,2.3-.8,4,0,2,.9,3.5,2.2,4.6,1.3,1,2.8,1.6,4.3,2,1.5.4,2.9.5,4,.6.5,0,1,0,1.3,0,.2,0,.3,0,.4,0,0,0,0,0,.1,0,0,0,0,0,0,0,0,1,0,2,0,2.9,0,1.1.1,2.3.9,3.1,1.6,1.5,3.3,2.8,5,4.1.9.7,1.8,1.5,2.7,2.2.7.6,1.5.9,2.4.9,9.5,0,19,0,28.5,0,.5,0,1-.1,1.5-.3.8-.3,1.4-1,2.1-1.5,1.7-1.4,3.4-2.7,5.2-3.8,1.8-1.2,4.1-1.9,4.1-4.5h0c0-4.7,0-9.4,0-14.1,0-2.4-1.2-7.6-3.1-9ZM61.5,29.6c.2.4.2.9.2,1.3,0,1.7,0,3.3,0,5h0c0,.8-.7,1.4-1.4,1-.4-.2-.6-.8-.8-1.2-.3-.7-.6-1.4-1-2.1-.5-1-1.4-2.5-1.8-3.3-.7-1-.3-2.1,1.1-1.9.5,0,1.1.1,1.6.2,1,0,1.7.2,2.1,1ZM53,20.2c.6-.2,1.3,0,1.9,0,.9,0,1.7.2,2.5.2.9.2,2.9-.1,2.9,1.2h0c0,.7-.8.9-1.4.9-1,0-1.8-.1-2.8-.2-.8,0-1.5,0-2.2-.1-.3,0-.6,0-.8-.2-.7-.5-.9-1.4,0-1.8ZM28.4,20.5c.4-.5,1-.7,1.6-.7,3.2-.1,6.3-.2,9.5-.2,1.4,0,2.9,0,4.3,0,.7,0,1.6,0,2.3.2.5.3.9.8.8,1.4h0c-.1.7-1,.8-1.5.8-1.3,0-2.6,0-3.9,0-3.1,0-6.2.2-9.3.4-1,0-2,.2-2.9.2-.6,0-1.5,0-1.6-.8,0-.5.3-1,.6-1.4ZM18.5,20.7c1-.3,2.7-.3,3.6-.5.4,0,.8,0,1.2.1,1.5.7,1.2,2.8-.3,3.1h0c-.8.1-1.9.2-2.7.3-.6,0-1.1.2-1.5,0-1.7-.3-1.9-2.6-.2-3.2ZM18.5,47.2h0s0,0,0,0c0,0,0,0,0,0,0,0,0,0,0,0v.2ZM17.8,35.1c-.2.5-.6,1.2-1.3,1.1-1.3-.2-.8-2.1-.9-3,0-1.3.2-3.9,1.5-4.5h0c.5-.2,1.1-.2,1.7-.3.4,0,.9-.1,1.3,0,.5.2.7.8.4,1.2-.5,1-1.1,1.9-1.6,2.9-.4.8-.8,1.6-1.2,2.4ZM20.2,39.9c-.5-.3-.9-.9-.8-1.5,1-2.7,2.9-6.6,4-9,.2-.3.4-1,.6-1.1,1.9-.2,20.5,0,27.4,0,.9,0,1.4,0,2,0,.1,0,.2,0,.2,0,1.1,1.4,3.6,8.4,4.2,10.2h0c.3,1.2-1.2,1.8-2,2.3-.6.4-1.1.8-1.6,1.1v-5.7c0-.8-.6-1.4-1.4-1.5h0s-28,0-28,0c-.8,0-1.4.6-1.5,1.4h0v5.9c-1.1-.7-2.4-1.7-3-2.1ZM26.1,42.8v-5.1h25.1v5.1h-25.1ZM60.7,43.8c-1.1.6-2.2,1.3-3.3,2-.6.3-1.1.9-1.8.9-.7,0-1.4-.8-1-1.5.1-.2.3-.4.5-.6.7-.6,1.4-1.2,2.1-1.7.8-.6,1.5-1.2,2.4-1.7.4-.3.9-.7,1.5-.6.4,0,.7.5.8.9h0c0,1.2.1,1.8-1.1,2.4Z"/>
        <polygon class="cls-1" points="1.1 17.1 1.1 17.1 1.1 17.1 1.1 17.1 1.1 17.1"/>
        <polygon class="cls-1" points="1.1 17.1 1.1 17.1 1.1 17.1 1.1 17.1"/>
      </g>
    </g>
  </g>
</svg>