<svg width="24" height="24" viewBox="0 0 24 24" fill="none" xmlns="http://www.w3.org/2000/svg">
<path d="M2 17C2 15.6868 2.25866 14.3864 2.76121 13.1732C3.26375 11.9599 4.00035 10.8575 4.92893 9.92893C5.85752 9.00034 6.95991 8.26375 8.17317 7.7612C9.38642 7.25866 10.6868 7 12 7C13.3132 7 14.6136 7.25866 15.8268 7.76121C17.0401 8.26375 18.1425 9.00035 19.0711 9.92894C19.9997 10.8575 20.7363 11.9599 21.2388 13.1732C21.7413 14.3864 22 15.6868 22 17" stroke="white" stroke-linejoin="round"/>
<path d="M13.25 14.75L15.75 11" stroke="white" stroke-linecap="round" stroke-linejoin="round"/>
<path d="M22 17V17C22 17.5523 21.5523 18 21 18H3C2.44772 18 2 17.5523 2 17V17" stroke="white" stroke-linecap="round" stroke-linejoin="round"/>
<path d="M9.5 17.25C9.5 16.9217 9.56466 16.5966 9.6903 16.2933C9.81594 15.99 10.0001 15.7144 10.2322 15.4822C10.4644 15.2501 10.74 15.0659 11.0433 14.9403C11.3466 14.8147 11.6717 14.75 12 14.75C12.3283 14.75 12.6534 14.8147 12.9567 14.9403C13.26 15.0659 13.5356 15.2501 13.7678 15.4822C13.9999 15.7144 14.1841 15.99 14.3097 16.2933C14.4353 16.5966 14.5 16.9217 14.5 17.25" stroke="white" stroke-linejoin="round"/>
</svg>
