<svg width="34" height="23" viewBox="0 0 34 23" fill="none" xmlns="http://www.w3.org/2000/svg">
<path d="M2 17C2 15.0302 2.38799 13.0796 3.14181 11.2597C3.89563 9.43986 5.00052 7.78627 6.3934 6.3934C7.78628 5.00052 9.43987 3.89563 11.2598 3.14181C13.0796 2.38799 15.0302 2 17 2C18.9698 2 20.9204 2.38799 22.7403 3.14181C24.5601 3.89563 26.2137 5.00052 27.6066 6.3934C28.9995 7.78628 30.1044 9.43987 30.8582 11.2598C31.612 13.0796 32 15.0302 32 17" stroke="white" stroke-width="3" stroke-linejoin="round"/>
<path d="M18.875 15.125L22.625 9.5" stroke="white" stroke-width="3" stroke-linecap="round" stroke-linejoin="round"/>
<path d="M32 17V19.75C32 20.3023 31.5523 20.75 31 20.75H3C2.44772 20.75 2 20.3023 2 19.75V17" stroke="white" stroke-width="3" stroke-linecap="round" stroke-linejoin="round"/>
<path d="M13.25 18.875C13.25 18.3825 13.347 17.8949 13.5355 17.4399C13.7239 16.985 14.0001 16.5716 14.3484 16.2233C14.6966 15.8751 15.11 15.5989 15.5649 15.4105C16.0199 15.222 16.5075 15.125 17 15.125C17.4925 15.125 17.9801 15.222 18.4351 15.4105C18.89 15.5989 19.3034 15.8751 19.6517 16.2234C19.9999 16.5716 20.2761 16.985 20.4645 17.4399C20.653 17.8949 20.75 18.3825 20.75 18.875" stroke="white" stroke-width="3" stroke-linejoin="round"/>
</svg>
