<svg width="34" height="24" viewBox="0 0 34 24" fill="none" xmlns="http://www.w3.org/2000/svg">
<path d="M32 7C32 8.96983 31.612 10.9204 30.8582 12.7403C30.1044 14.5601 28.9995 16.2137 27.6066 17.6066C26.2137 18.9995 24.5601 20.1044 22.7402 20.8582C20.9204 21.612 18.9698 22 17 22C15.0302 22 13.0796 21.612 11.2597 20.8582C9.43986 20.1044 7.78627 18.9995 6.39339 17.6066C5.00051 16.2137 3.89562 14.5601 3.1418 12.7402C2.38798 10.9204 2 8.96982 2 6.99999" stroke="white" stroke-width="3" stroke-linejoin="round"/>
<path d="M15.125 8.875L11.375 14.5" stroke="white" stroke-width="3" stroke-linecap="round" stroke-linejoin="round"/>
<path d="M20.75 5.125C20.75 5.61746 20.653 6.10509 20.4645 6.56006C20.2761 7.01503 19.9999 7.42843 19.6516 7.77665C19.3034 8.12487 18.89 8.40109 18.4351 8.58955C17.9801 8.778 17.4925 8.875 17 8.875C16.5075 8.875 16.0199 8.778 15.5649 8.58955C15.11 8.40109 14.6966 8.12487 14.3483 7.77665C14.0001 7.42843 13.7239 7.01503 13.5355 6.56006C13.347 6.10509 13.25 5.61745 13.25 5.125" stroke="white" stroke-width="3" stroke-linejoin="round"/>
<path d="M13.25 5.37476C13.25 4.8823 13.347 4.39466 13.5355 3.93969C13.7239 3.48472 14.0001 3.07132 14.3484 2.7231C14.6966 2.37489 15.11 2.09866 15.5649 1.91021C16.0199 1.72175 16.5075 1.62476 17 1.62476C17.4925 1.62476 17.9801 1.72175 18.4351 1.91021C18.89 2.09866 19.3034 2.37489 19.6517 2.72311C19.9999 3.07133 20.2761 3.48472 20.4645 3.9397C20.653 4.39467 20.75 4.8823 20.75 5.37476" stroke="white" stroke-width="3" stroke-linejoin="round"/>
</svg>
