<svg width="241" height="92" viewBox="0 0 241 92" fill="none" xmlns="http://www.w3.org/2000/svg">
<path d="M10.3225 31.1357H11.3127V32.4541H10.3225V34.3057H8.69359V32.4541H5.14867L5.08422 31.4346L8.67016 25.7744H10.3225V31.1357ZM6.68383 31.1357H8.69359V27.9658L8.53539 28.2471L6.68383 31.1357ZM18.0984 31.0596C18.0984 31.6104 18.034 32.0967 17.905 32.5186C17.78 32.9365 17.5984 33.2861 17.3601 33.5674C17.1218 33.8525 16.8308 34.0674 16.4871 34.2119C16.1433 34.3564 15.7566 34.4287 15.3269 34.4287C14.9011 34.4287 14.5164 34.3564 14.1726 34.2119C13.8289 34.0674 13.5379 33.8525 13.2996 33.5674C13.0574 33.2861 12.8699 32.9365 12.7371 32.5186C12.6082 32.0967 12.5437 31.6104 12.5437 31.0596V29.0205C12.5437 28.4697 12.6082 27.9854 12.7371 27.5674C12.866 27.1455 13.0515 26.792 13.2937 26.5068C13.532 26.2256 13.8211 26.0127 14.1609 25.8682C14.5047 25.7236 14.8894 25.6514 15.3152 25.6514C15.7449 25.6514 16.1316 25.7236 16.4754 25.8682C16.8191 26.0127 17.1121 26.2256 17.3543 26.5068C17.5925 26.792 17.7761 27.1455 17.905 27.5674C18.034 27.9854 18.0984 28.4697 18.0984 29.0205V31.0596ZM14.1843 30.3564L16.4578 28.6631C16.45 28.3428 16.4148 28.0693 16.3523 27.8428C16.2937 27.6123 16.2058 27.4287 16.0886 27.292C15.9988 27.1826 15.8875 27.1025 15.7547 27.0518C15.6258 26.9971 15.4793 26.9697 15.3152 26.9697C15.1316 26.9697 14.9695 27.0049 14.8289 27.0752C14.6922 27.1416 14.5769 27.2432 14.4832 27.3799C14.3816 27.5244 14.3054 27.7119 14.2547 27.9424C14.2078 28.1729 14.1843 28.4463 14.1843 28.7627V29.7061C14.1843 29.8936 14.1843 30.0186 14.1843 30.0811C14.1843 30.1436 14.1843 30.2354 14.1843 30.3564ZM16.4578 31.3057V30.3154C16.4578 30.1865 16.4578 30.0928 16.4578 30.0342C16.4578 29.9717 16.4578 29.8838 16.4578 29.7705L14.1843 31.458C14.1922 31.7158 14.2175 31.9443 14.2605 32.1436C14.3074 32.3428 14.3718 32.5088 14.4539 32.6416C14.5476 32.8018 14.6668 32.9209 14.8113 32.999C14.9558 33.0771 15.1277 33.1162 15.3269 33.1162C15.5105 33.1162 15.6726 33.083 15.8133 33.0166C15.9539 32.9463 16.0711 32.8408 16.1648 32.7002C16.2625 32.5518 16.3347 32.3623 16.3816 32.1318C16.4324 31.8975 16.4578 31.6221 16.4578 31.3057Z" fill="white"/>
<path d="M227.323 31.1357H228.313V32.4541H227.323V34.3057H225.694V32.4541H222.149L222.084 31.4346L225.67 25.7744H227.323V31.1357ZM223.684 31.1357H225.694V27.9658L225.535 28.2471L223.684 31.1357ZM235.098 31.0596C235.098 31.6104 235.034 32.0967 234.905 32.5186C234.78 32.9365 234.598 33.2861 234.36 33.5674C234.122 33.8525 233.831 34.0674 233.487 34.2119C233.143 34.3564 232.757 34.4287 232.327 34.4287C231.901 34.4287 231.516 34.3564 231.173 34.2119C230.829 34.0674 230.538 33.8525 230.3 33.5674C230.057 33.2861 229.87 32.9365 229.737 32.5186C229.608 32.0967 229.544 31.6104 229.544 31.0596V29.0205C229.544 28.4697 229.608 27.9854 229.737 27.5674C229.866 27.1455 230.052 26.792 230.294 26.5068C230.532 26.2256 230.821 26.0127 231.161 25.8682C231.505 25.7236 231.889 25.6514 232.315 25.6514C232.745 25.6514 233.132 25.7236 233.475 25.8682C233.819 26.0127 234.112 26.2256 234.354 26.5068C234.593 26.792 234.776 27.1455 234.905 27.5674C235.034 27.9854 235.098 28.4697 235.098 29.0205V31.0596ZM231.184 30.3564L233.458 28.6631C233.45 28.3428 233.415 28.0693 233.352 27.8428C233.294 27.6123 233.206 27.4287 233.089 27.292C232.999 27.1826 232.887 27.1025 232.755 27.0518C232.626 26.9971 232.479 26.9697 232.315 26.9697C232.132 26.9697 231.97 27.0049 231.829 27.0752C231.692 27.1416 231.577 27.2432 231.483 27.3799C231.382 27.5244 231.305 27.7119 231.255 27.9424C231.208 28.1729 231.184 28.4463 231.184 28.7627V29.7061C231.184 29.8936 231.184 30.0186 231.184 30.0811C231.184 30.1436 231.184 30.2354 231.184 30.3564ZM233.458 31.3057V30.3154C233.458 30.1865 233.458 30.0928 233.458 30.0342C233.458 29.9717 233.458 29.8838 233.458 29.7705L231.184 31.458C231.192 31.7158 231.218 31.9443 231.261 32.1436C231.307 32.3428 231.372 32.5088 231.454 32.6416C231.548 32.8018 231.667 32.9209 231.811 32.999C231.956 33.0771 232.128 33.1162 232.327 33.1162C232.511 33.1162 232.673 33.083 232.813 33.0166C232.954 32.9463 233.071 32.8408 233.165 32.7002C233.262 32.5518 233.335 32.3623 233.382 32.1318C233.432 31.8975 233.458 31.6221 233.458 31.3057Z" fill="white"/>
<path d="M30.2053 47.3252H31.0901C31.3245 47.3252 31.5256 47.2939 31.6936 47.2314C31.8655 47.165 32.0041 47.0732 32.1096 46.9561C32.2073 46.8545 32.2795 46.7314 32.3264 46.5869C32.3772 46.4385 32.4026 46.2783 32.4026 46.1064C32.4026 45.9385 32.3772 45.7861 32.3264 45.6494C32.2795 45.5088 32.2073 45.3877 32.1096 45.2861C32.012 45.1885 31.887 45.1123 31.7346 45.0576C31.5862 45.0029 31.4123 44.9756 31.2131 44.9756C31.0491 44.9756 30.8948 44.999 30.7502 45.0459C30.6096 45.0928 30.4866 45.1592 30.3811 45.2451C30.2717 45.335 30.1858 45.4424 30.1233 45.5674C30.0608 45.6924 30.0295 45.833 30.0295 45.9893H28.4006C28.4006 45.6416 28.4709 45.3252 28.6116 45.04C28.7561 44.7549 28.9534 44.5088 29.2034 44.3018C29.4534 44.0986 29.7463 43.9404 30.0823 43.8271C30.4221 43.7139 30.7873 43.6572 31.178 43.6572C31.5998 43.6572 31.9866 43.71 32.3381 43.8154C32.6897 43.917 32.9905 44.0693 33.2405 44.2725C33.4905 44.4795 33.6838 44.7354 33.8205 45.04C33.9612 45.3408 34.0315 45.6904 34.0315 46.0889C34.0315 46.2725 34.0041 46.4541 33.9495 46.6338C33.8948 46.8096 33.8147 46.9775 33.7092 47.1377C33.6038 47.2979 33.4729 47.4463 33.3166 47.583C33.1604 47.7158 32.9807 47.8311 32.7776 47.9287C33.0159 48.0146 33.2209 48.124 33.3928 48.2568C33.5686 48.3896 33.7131 48.54 33.8264 48.708C33.9397 48.8799 34.0237 49.0674 34.0784 49.2705C34.133 49.4736 34.1604 49.6885 34.1604 49.915C34.1604 50.3135 34.0842 50.6689 33.9319 50.9814C33.7795 51.2939 33.5705 51.5557 33.3049 51.7666C33.0393 51.9814 32.7229 52.1455 32.3557 52.2588C31.9924 52.3682 31.5998 52.4229 31.178 52.4229C30.8147 52.4229 30.4592 52.374 30.1116 52.2764C29.7678 52.1748 29.4612 52.0225 29.1916 51.8193C28.9221 51.6201 28.7053 51.3682 28.5413 51.0635C28.3811 50.7588 28.301 50.3994 28.301 49.9854H29.9299C29.9299 50.1494 29.9612 50.3018 30.0237 50.4424C30.0862 50.5791 30.176 50.6963 30.2932 50.7939C30.4065 50.8955 30.5413 50.9756 30.6975 51.0342C30.8538 51.0889 31.0256 51.1162 31.2131 51.1162C31.4241 51.1162 31.6135 51.0869 31.7815 51.0283C31.9495 50.9697 32.0901 50.8838 32.2034 50.7705C32.3127 50.6689 32.3948 50.5439 32.4495 50.3955C32.508 50.2471 32.5373 50.0811 32.5373 49.8975C32.5373 49.667 32.5041 49.4697 32.4377 49.3057C32.3713 49.1416 32.2756 49.0068 32.1506 48.9014C32.0217 48.7959 31.8674 48.7178 31.6877 48.667C31.512 48.6162 31.3127 48.5908 31.0901 48.5908H30.2053V47.3252ZM41.0984 49.0596C41.0984 49.6104 41.034 50.0967 40.905 50.5186C40.78 50.9365 40.5984 51.2861 40.3601 51.5674C40.1218 51.8525 39.8308 52.0674 39.4871 52.2119C39.1433 52.3564 38.7566 52.4287 38.3269 52.4287C37.9011 52.4287 37.5164 52.3564 37.1726 52.2119C36.8289 52.0674 36.5379 51.8525 36.2996 51.5674C36.0574 51.2861 35.8699 50.9365 35.7371 50.5186C35.6082 50.0967 35.5437 49.6104 35.5437 49.0596V47.0205C35.5437 46.4697 35.6082 45.9854 35.7371 45.5674C35.866 45.1455 36.0515 44.792 36.2937 44.5068C36.532 44.2256 36.8211 44.0127 37.1609 43.8682C37.5047 43.7236 37.8894 43.6514 38.3152 43.6514C38.7449 43.6514 39.1316 43.7236 39.4754 43.8682C39.8191 44.0127 40.1121 44.2256 40.3543 44.5068C40.5925 44.792 40.7761 45.1455 40.905 45.5674C41.034 45.9854 41.0984 46.4697 41.0984 47.0205V49.0596ZM37.1843 48.3564L39.4578 46.6631C39.45 46.3428 39.4148 46.0693 39.3523 45.8428C39.2937 45.6123 39.2058 45.4287 39.0886 45.292C38.9988 45.1826 38.8875 45.1025 38.7547 45.0518C38.6258 44.9971 38.4793 44.9697 38.3152 44.9697C38.1316 44.9697 37.9695 45.0049 37.8289 45.0752C37.6922 45.1416 37.5769 45.2432 37.4832 45.3799C37.3816 45.5244 37.3054 45.7119 37.2547 45.9424C37.2078 46.1729 37.1843 46.4463 37.1843 46.7627V47.7061C37.1843 47.8936 37.1843 48.0186 37.1843 48.0811C37.1843 48.1436 37.1843 48.2354 37.1843 48.3564ZM39.4578 49.3057V48.3154C39.4578 48.1865 39.4578 48.0928 39.4578 48.0342C39.4578 47.9717 39.4578 47.8838 39.4578 47.7705L37.1843 49.458C37.1922 49.7158 37.2175 49.9443 37.2605 50.1436C37.3074 50.3428 37.3718 50.5088 37.4539 50.6416C37.5476 50.8018 37.6668 50.9209 37.8113 50.999C37.9558 51.0771 38.1277 51.1162 38.3269 51.1162C38.5105 51.1162 38.6726 51.083 38.8133 51.0166C38.9539 50.9463 39.0711 50.8408 39.1648 50.7002C39.2625 50.5518 39.3347 50.3623 39.3816 50.1318C39.4324 49.8975 39.4578 49.6221 39.4578 49.3057Z" fill="white"/>
<path d="M203.205 47.3252H204.09C204.324 47.3252 204.526 47.2939 204.694 47.2314C204.865 47.165 205.004 47.0732 205.11 46.9561C205.207 46.8545 205.28 46.7314 205.326 46.5869C205.377 46.4385 205.403 46.2783 205.403 46.1064C205.403 45.9385 205.377 45.7861 205.326 45.6494C205.28 45.5088 205.207 45.3877 205.11 45.2861C205.012 45.1885 204.887 45.1123 204.735 45.0576C204.586 45.0029 204.412 44.9756 204.213 44.9756C204.049 44.9756 203.895 44.999 203.75 45.0459C203.61 45.0928 203.487 45.1592 203.381 45.2451C203.272 45.335 203.186 45.4424 203.123 45.5674C203.061 45.6924 203.03 45.833 203.03 45.9893H201.401C201.401 45.6416 201.471 45.3252 201.612 45.04C201.756 44.7549 201.953 44.5088 202.203 44.3018C202.453 44.0986 202.746 43.9404 203.082 43.8271C203.422 43.7139 203.787 43.6572 204.178 43.6572C204.6 43.6572 204.987 43.71 205.338 43.8154C205.69 43.917 205.99 44.0693 206.24 44.2725C206.49 44.4795 206.684 44.7354 206.821 45.04C206.961 45.3408 207.031 45.6904 207.031 46.0889C207.031 46.2725 207.004 46.4541 206.949 46.6338C206.895 46.8096 206.815 46.9775 206.709 47.1377C206.604 47.2979 206.473 47.4463 206.317 47.583C206.16 47.7158 205.981 47.8311 205.778 47.9287C206.016 48.0146 206.221 48.124 206.393 48.2568C206.569 48.3896 206.713 48.54 206.826 48.708C206.94 48.8799 207.024 49.0674 207.078 49.2705C207.133 49.4736 207.16 49.6885 207.16 49.915C207.16 50.3135 207.084 50.6689 206.932 50.9814C206.78 51.2939 206.571 51.5557 206.305 51.7666C206.039 51.9814 205.723 52.1455 205.356 52.2588C204.992 52.3682 204.6 52.4229 204.178 52.4229C203.815 52.4229 203.459 52.374 203.112 52.2764C202.768 52.1748 202.461 52.0225 202.192 51.8193C201.922 51.6201 201.705 51.3682 201.541 51.0635C201.381 50.7588 201.301 50.3994 201.301 49.9854H202.93C202.93 50.1494 202.961 50.3018 203.024 50.4424C203.086 50.5791 203.176 50.6963 203.293 50.7939C203.406 50.8955 203.541 50.9756 203.698 51.0342C203.854 51.0889 204.026 51.1162 204.213 51.1162C204.424 51.1162 204.614 51.0869 204.781 51.0283C204.949 50.9697 205.09 50.8838 205.203 50.7705C205.313 50.6689 205.395 50.5439 205.449 50.3955C205.508 50.2471 205.537 50.0811 205.537 49.8975C205.537 49.667 205.504 49.4697 205.438 49.3057C205.371 49.1416 205.276 49.0068 205.151 48.9014C205.022 48.7959 204.867 48.7178 204.688 48.667C204.512 48.6162 204.313 48.5908 204.09 48.5908H203.205V47.3252ZM214.098 49.0596C214.098 49.6104 214.034 50.0967 213.905 50.5186C213.78 50.9365 213.598 51.2861 213.36 51.5674C213.122 51.8525 212.831 52.0674 212.487 52.2119C212.143 52.3564 211.757 52.4287 211.327 52.4287C210.901 52.4287 210.516 52.3564 210.173 52.2119C209.829 52.0674 209.538 51.8525 209.3 51.5674C209.057 51.2861 208.87 50.9365 208.737 50.5186C208.608 50.0967 208.544 49.6104 208.544 49.0596V47.0205C208.544 46.4697 208.608 45.9854 208.737 45.5674C208.866 45.1455 209.052 44.792 209.294 44.5068C209.532 44.2256 209.821 44.0127 210.161 43.8682C210.505 43.7236 210.889 43.6514 211.315 43.6514C211.745 43.6514 212.132 43.7236 212.475 43.8682C212.819 44.0127 213.112 44.2256 213.354 44.5068C213.593 44.792 213.776 45.1455 213.905 45.5674C214.034 45.9854 214.098 46.4697 214.098 47.0205V49.0596ZM210.184 48.3564L212.458 46.6631C212.45 46.3428 212.415 46.0693 212.352 45.8428C212.294 45.6123 212.206 45.4287 212.089 45.292C211.999 45.1826 211.887 45.1025 211.755 45.0518C211.626 44.9971 211.479 44.9697 211.315 44.9697C211.132 44.9697 210.97 45.0049 210.829 45.0752C210.692 45.1416 210.577 45.2432 210.483 45.3799C210.382 45.5244 210.305 45.7119 210.255 45.9424C210.208 46.1729 210.184 46.4463 210.184 46.7627V47.7061C210.184 47.8936 210.184 48.0186 210.184 48.0811C210.184 48.1436 210.184 48.2354 210.184 48.3564ZM212.458 49.3057V48.3154C212.458 48.1865 212.458 48.0928 212.458 48.0342C212.458 47.9717 212.458 47.8838 212.458 47.7705L210.184 49.458C210.192 49.7158 210.218 49.9443 210.261 50.1436C210.307 50.3428 210.372 50.5088 210.454 50.6416C210.548 50.8018 210.667 50.9209 210.811 50.999C210.956 51.0771 211.128 51.1162 211.327 51.1162C211.511 51.1162 211.673 51.083 211.813 51.0166C211.954 50.9463 212.071 50.8408 212.165 50.7002C212.262 50.5518 212.335 50.3623 212.382 50.1318C212.432 49.8975 212.458 49.6221 212.458 49.3057Z" fill="white"/>
<path d="M123.609 71.0596C123.609 71.6104 123.544 72.0967 123.416 72.5186C123.291 72.9365 123.109 73.2861 122.871 73.5674C122.632 73.8525 122.341 74.0674 121.998 74.2119C121.654 74.3564 121.267 74.4287 120.837 74.4287C120.412 74.4287 120.027 74.3564 119.683 74.2119C119.339 74.0674 119.048 73.8525 118.81 73.5674C118.568 73.2861 118.38 72.9365 118.248 72.5186C118.119 72.0967 118.054 71.6104 118.054 71.0596V69.0205C118.054 68.4697 118.119 67.9854 118.248 67.5674C118.376 67.1455 118.562 66.792 118.804 66.5068C119.042 66.2256 119.332 66.0127 119.671 65.8682C120.015 65.7236 120.4 65.6514 120.826 65.6514C121.255 65.6514 121.642 65.7236 121.986 65.8682C122.33 66.0127 122.623 66.2256 122.865 66.5068C123.103 66.792 123.287 67.1455 123.416 67.5674C123.544 67.9854 123.609 68.4697 123.609 69.0205V71.0596ZM119.695 70.3564L121.968 68.6631C121.96 68.3428 121.925 68.0693 121.863 67.8428C121.804 67.6123 121.716 67.4287 121.599 67.292C121.509 67.1826 121.398 67.1025 121.265 67.0518C121.136 66.9971 120.99 66.9697 120.826 66.9697C120.642 66.9697 120.48 67.0049 120.339 67.0752C120.203 67.1416 120.087 67.2432 119.994 67.3799C119.892 67.5244 119.816 67.7119 119.765 67.9424C119.718 68.1729 119.695 68.4463 119.695 68.7627V69.7061C119.695 69.8936 119.695 70.0186 119.695 70.0811C119.695 70.1436 119.695 70.2354 119.695 70.3564ZM121.968 71.3057V70.3154C121.968 70.1865 121.968 70.0928 121.968 70.0342C121.968 69.9717 121.968 69.8838 121.968 69.7705L119.695 71.458C119.703 71.7158 119.728 71.9443 119.771 72.1436C119.818 72.3428 119.882 72.5088 119.964 72.6416C120.058 72.8018 120.177 72.9209 120.322 72.999C120.466 73.0771 120.638 73.1162 120.837 73.1162C121.021 73.1162 121.183 73.083 121.324 73.0166C121.464 72.9463 121.582 72.8408 121.675 72.7002C121.773 72.5518 121.845 72.3623 121.892 72.1318C121.943 71.8975 121.968 71.6221 121.968 71.3057Z" fill="white"/>
<path d="M8.44747 72.8711V76H6.80098V67.4688H9.71895C10.1838 67.4688 10.6037 67.5371 10.9787 67.6738C11.3537 67.8066 11.674 67.9922 11.9397 68.2305C12.2014 68.4727 12.4025 68.7617 12.5432 69.0977C12.6877 69.4336 12.76 69.8066 12.76 70.2168C12.76 70.5996 12.6877 70.9531 12.5432 71.2773C12.4025 71.6016 12.2014 71.8809 11.9397 72.1152C11.674 72.3535 11.3537 72.5391 10.9787 72.6719C10.6037 72.8047 10.1838 72.8711 9.71895 72.8711H8.44747ZM8.44747 71.5352H9.71895C9.95333 71.5352 10.1565 71.5 10.3283 71.4297C10.5002 71.3594 10.6447 71.2637 10.7619 71.1426C10.8752 71.0215 10.9592 70.8828 11.0139 70.7266C11.0725 70.5664 11.1018 70.4004 11.1018 70.2285C11.1018 70.0293 11.0725 69.8438 11.0139 69.6719C10.9592 69.5 10.8752 69.3496 10.7619 69.2207C10.6447 69.0918 10.5002 68.9902 10.3283 68.916C10.1565 68.8418 9.95333 68.8047 9.71895 68.8047H8.44747V71.5352ZM19.6277 72.3613C19.6277 72.7285 19.5945 73.0781 19.5281 73.4102C19.4617 73.7383 19.366 74.043 19.241 74.3242C19.1081 74.6055 18.9441 74.8633 18.7488 75.0977C18.5535 75.332 18.3308 75.5273 18.0808 75.6836C17.8542 75.8203 17.6042 75.9258 17.3308 76C17.0613 76.0781 16.7702 76.1172 16.4577 76.1172C16.1257 76.1172 15.8191 76.0742 15.5378 75.9883C15.2566 75.9023 15.0007 75.7812 14.7702 75.625C14.5437 75.4609 14.3406 75.2637 14.1609 75.0332C13.9812 74.7988 13.8308 74.5352 13.7097 74.2422C13.6003 73.9727 13.5163 73.6797 13.4577 73.3633C13.4031 73.0469 13.3757 72.7129 13.3757 72.3613V71.1191C13.3757 70.7441 13.407 70.3887 13.4695 70.0527C13.5359 69.7168 13.6316 69.4062 13.7566 69.1211C13.8777 68.8516 14.0242 68.6074 14.196 68.3887C14.3718 68.1699 14.573 67.9824 14.7995 67.8262C15.0222 67.6738 15.2722 67.5566 15.5495 67.4746C15.8269 67.3926 16.1277 67.3516 16.4519 67.3516C16.78 67.3516 17.0867 67.3945 17.3718 67.4805C17.6609 67.5625 17.9206 67.6816 18.1511 67.8379C18.3816 67.9863 18.5827 68.166 18.7546 68.377C18.9304 68.5879 19.0808 68.8203 19.2058 69.0742C19.3425 69.3633 19.446 69.6797 19.5163 70.0234C19.5906 70.3672 19.6277 70.7324 19.6277 71.1191V72.3613ZM17.9577 71.1074C17.9577 70.8887 17.946 70.6816 17.9226 70.4863C17.9031 70.2871 17.8699 70.1035 17.823 69.9355C17.7644 69.7246 17.6863 69.5371 17.5886 69.373C17.491 69.2051 17.3757 69.0684 17.2429 68.9629C17.1374 68.8848 17.0183 68.8242 16.8855 68.7812C16.7566 68.7383 16.612 68.7168 16.4519 68.7168C16.2995 68.7168 16.1609 68.7363 16.0359 68.7754C15.9148 68.8145 15.8054 68.8711 15.7077 68.9453C15.5749 69.0547 15.4617 69.1914 15.3679 69.3555C15.2781 69.5195 15.2077 69.7109 15.157 69.9297C15.1179 70.0977 15.0886 70.2812 15.0691 70.4805C15.0535 70.6797 15.0456 70.8887 15.0456 71.1074V72.3613C15.0456 72.5684 15.0535 72.7676 15.0691 72.959C15.0847 73.1504 15.112 73.3281 15.1511 73.4922C15.1941 73.6992 15.2566 73.8887 15.3386 74.0605C15.4245 74.2285 15.5242 74.3652 15.6374 74.4707C15.7429 74.5645 15.862 74.6367 15.9949 74.6875C16.1316 74.7383 16.2859 74.7637 16.4577 74.7637C16.6218 74.7637 16.7722 74.7402 16.9089 74.6934C17.0456 74.6465 17.1667 74.5781 17.2722 74.4883C17.405 74.3789 17.5163 74.2422 17.6062 74.0781C17.6999 73.9102 17.7742 73.7207 17.8288 73.5098C17.8718 73.3457 17.9031 73.166 17.9226 72.9707C17.946 72.7754 17.9577 72.5723 17.9577 72.3613V71.1074ZM23.5481 72.8125H22.3001V76H20.6536V67.4688H23.513C23.9856 67.4688 24.4133 67.5254 24.7962 67.6387C25.179 67.748 25.5071 67.9102 25.7805 68.125C26.0501 68.3398 26.2571 68.6074 26.4016 68.9277C26.5501 69.248 26.6243 69.6191 26.6243 70.041C26.6243 70.3457 26.5872 70.6211 26.513 70.8672C26.4426 71.1094 26.3411 71.3262 26.2083 71.5176C26.0715 71.7129 25.9075 71.8828 25.7161 72.0273C25.5286 72.1719 25.3176 72.2969 25.0833 72.4023L26.9172 75.9238V76H25.1536L23.5481 72.8125ZM22.3001 71.4766H23.5188C23.7727 71.4766 23.9954 71.4414 24.1868 71.3711C24.3821 71.2969 24.5403 71.1914 24.6614 71.0547C24.763 70.9453 24.8391 70.8145 24.8899 70.6621C24.9446 70.5098 24.9719 70.3398 24.9719 70.1523C24.9719 69.9258 24.9368 69.7266 24.8665 69.5547C24.8001 69.3789 24.6985 69.2344 24.5618 69.1211C24.4407 69.0195 24.2922 68.9414 24.1165 68.8867C23.9407 68.832 23.7395 68.8047 23.513 68.8047H22.3001V71.4766ZM33.9021 68.8105H31.2713V76H29.6189V68.8105H27.0232V67.4688H33.9021V68.8105Z" fill="#757575"/>
<path d="M211.125 73.7734C211.125 73.6211 211.098 73.4785 211.043 73.3457C210.992 73.2129 210.905 73.0879 210.78 72.9707C210.651 72.8574 210.483 72.7539 210.276 72.6602C210.072 72.5625 209.819 72.4727 209.514 72.3906C209.041 72.2617 208.625 72.1055 208.266 71.9219C207.91 71.7383 207.619 71.5371 207.393 71.3184C207.166 71.0996 206.994 70.8574 206.877 70.5918C206.764 70.3262 206.707 70.0371 206.707 69.7246C206.707 69.3652 206.783 69.0391 206.936 68.7461C207.088 68.4531 207.299 68.2031 207.569 67.9961C207.838 67.7891 208.156 67.6309 208.524 67.5215C208.891 67.4082 209.289 67.3516 209.719 67.3516C210.164 67.3516 210.571 67.416 210.938 67.5449C211.309 67.6738 211.627 67.8535 211.893 68.084C212.158 68.3184 212.365 68.5957 212.514 68.916C212.662 69.2363 212.737 69.5879 212.737 69.9707H211.131C211.123 69.7793 211.088 69.6035 211.026 69.4434C210.967 69.2832 210.879 69.1445 210.762 69.0273C210.641 68.9141 210.49 68.8262 210.311 68.7637C210.135 68.6973 209.928 68.6641 209.69 68.6641C209.471 68.6641 209.276 68.6914 209.104 68.7461C208.936 68.7969 208.793 68.8691 208.676 68.9629C208.559 69.0605 208.469 69.1758 208.406 69.3086C208.348 69.4375 208.319 69.5781 208.319 69.7305C208.319 69.8906 208.358 70.0352 208.436 70.1641C208.518 70.293 208.635 70.4082 208.787 70.5098C208.94 70.6152 209.123 70.7109 209.338 70.7969C209.557 70.8828 209.803 70.9629 210.076 71.0371C210.369 71.1191 210.649 71.2188 210.914 71.3359C211.18 71.4531 211.424 71.5879 211.647 71.7402C211.983 71.9902 212.25 72.2812 212.449 72.6133C212.649 72.9453 212.748 73.3281 212.748 73.7617C212.748 74.1367 212.672 74.4707 212.52 74.7637C212.371 75.0527 212.164 75.2969 211.899 75.4961C211.633 75.6992 211.317 75.8535 210.949 75.959C210.582 76.0605 210.182 76.1113 209.748 76.1113C209.322 76.1113 208.901 76.0488 208.483 75.9238C208.069 75.7949 207.707 75.6074 207.399 75.3613C207.106 75.1191 206.873 74.834 206.701 74.5059C206.533 74.1777 206.449 73.793 206.449 73.3516H208.067C208.074 73.6094 208.119 73.8301 208.201 74.0137C208.283 74.1973 208.399 74.3477 208.547 74.4648C208.692 74.582 208.865 74.668 209.069 74.7227C209.276 74.7773 209.502 74.8047 209.748 74.8047C209.967 74.8047 210.16 74.7793 210.328 74.7285C210.5 74.6777 210.645 74.6074 210.762 74.5176C210.879 74.4277 210.969 74.3203 211.031 74.1953C211.094 74.0664 211.125 73.9258 211.125 73.7734ZM219.944 68.8105H217.313V76H215.661V68.8105H213.065V67.4688H219.944V68.8105ZM220.642 76V67.4688H223.507C223.972 67.4688 224.394 67.5156 224.773 67.6094C225.156 67.7031 225.482 67.8457 225.751 68.0371C226.021 68.2285 226.228 68.4707 226.372 68.7637C226.521 69.0566 226.595 69.4023 226.595 69.8008C226.591 70.0586 226.544 70.3027 226.454 70.5332C226.368 70.7598 226.24 70.959 226.068 71.1309C225.974 71.2246 225.866 71.3105 225.745 71.3887C225.628 71.4668 225.497 71.5332 225.353 71.5879V71.5938C225.634 71.6719 225.857 71.7715 226.021 71.8926C226.189 72.0137 226.329 72.1543 226.443 72.3145C226.56 72.4863 226.646 72.6738 226.7 72.877C226.759 73.0762 226.788 73.2832 226.788 73.498C226.788 73.9082 226.718 74.2695 226.577 74.582C226.437 74.8945 226.236 75.1562 225.974 75.3672C225.712 75.5781 225.394 75.7363 225.019 75.8418C224.644 75.9473 224.222 76 223.753 76H220.642ZM222.294 72.2383V74.6699H223.759C223.974 74.6699 224.165 74.6426 224.333 74.5879C224.505 74.5332 224.648 74.459 224.761 74.3652C224.886 74.2598 224.98 74.1328 225.042 73.9844C225.109 73.8359 225.142 73.6699 225.142 73.4863C225.142 73.2949 225.116 73.123 225.066 72.9707C225.019 72.8184 224.943 72.6895 224.837 72.584C224.732 72.4746 224.595 72.3906 224.427 72.332C224.259 72.2734 224.06 72.2422 223.829 72.2383H222.294ZM222.294 71.0488H223.519C223.769 71.0449 223.99 71.0156 224.181 70.9609C224.372 70.9023 224.527 70.8164 224.644 70.7031C224.741 70.6133 224.816 70.5039 224.866 70.375C224.921 70.2461 224.948 70.0996 224.948 69.9355C224.948 69.7637 224.925 69.6133 224.878 69.4844C224.835 69.3555 224.769 69.248 224.679 69.1621C224.562 69.041 224.404 68.9531 224.204 68.8984C224.009 68.8438 223.779 68.8145 223.513 68.8105H222.294V71.0488ZM233.586 72.3613C233.586 72.7285 233.553 73.0781 233.486 73.4102C233.42 73.7383 233.324 74.043 233.199 74.3242C233.066 74.6055 232.902 74.8633 232.707 75.0977C232.512 75.332 232.289 75.5273 232.039 75.6836C231.812 75.8203 231.562 75.9258 231.289 76C231.019 76.0781 230.728 76.1172 230.416 76.1172C230.084 76.1172 229.777 76.0742 229.496 75.9883C229.215 75.9023 228.959 75.7812 228.728 75.625C228.502 75.4609 228.299 75.2637 228.119 75.0332C227.939 74.7988 227.789 74.5352 227.668 74.2422C227.558 73.9727 227.474 73.6797 227.416 73.3633C227.361 73.0469 227.334 72.7129 227.334 72.3613V71.1191C227.334 70.7441 227.365 70.3887 227.428 70.0527C227.494 69.7168 227.59 69.4062 227.715 69.1211C227.836 68.8516 227.982 68.6074 228.154 68.3887C228.33 68.1699 228.531 67.9824 228.758 67.8262C228.98 67.6738 229.23 67.5566 229.508 67.4746C229.785 67.3926 230.086 67.3516 230.41 67.3516C230.738 67.3516 231.045 67.3945 231.33 67.4805C231.619 67.5625 231.879 67.6816 232.109 67.8379C232.34 67.9863 232.541 68.166 232.713 68.377C232.888 68.5879 233.039 68.8203 233.164 69.0742C233.301 69.3633 233.404 69.6797 233.474 70.0234C233.549 70.3672 233.586 70.7324 233.586 71.1191V72.3613ZM231.916 71.1074C231.916 70.8887 231.904 70.6816 231.881 70.4863C231.861 70.2871 231.828 70.1035 231.781 69.9355C231.722 69.7246 231.644 69.5371 231.547 69.373C231.449 69.2051 231.334 69.0684 231.201 68.9629C231.096 68.8848 230.976 68.8242 230.844 68.7812C230.715 68.7383 230.57 68.7168 230.41 68.7168C230.258 68.7168 230.119 68.7363 229.994 68.7754C229.873 68.8145 229.763 68.8711 229.666 68.9453C229.533 69.0547 229.42 69.1914 229.326 69.3555C229.236 69.5195 229.166 69.7109 229.115 69.9297C229.076 70.0977 229.047 70.2812 229.027 70.4805C229.012 70.6797 229.004 70.8887 229.004 71.1074V72.3613C229.004 72.5684 229.012 72.7676 229.027 72.959C229.043 73.1504 229.07 73.3281 229.109 73.4922C229.152 73.6992 229.215 73.8887 229.297 74.0605C229.383 74.2285 229.482 74.3652 229.596 74.4707C229.701 74.5645 229.82 74.6367 229.953 74.6875C230.09 74.7383 230.244 74.7637 230.416 74.7637C230.58 74.7637 230.73 74.7402 230.867 74.6934C231.004 74.6465 231.125 74.5781 231.23 74.4883C231.363 74.3789 231.474 74.2422 231.564 74.0781C231.658 73.9102 231.732 73.7207 231.787 73.5098C231.83 73.3457 231.861 73.166 231.881 72.9707C231.904 72.7754 231.916 72.5723 231.916 72.3613V71.1074Z" fill="#757575"/>
<path d="M64.1428 64.3057H58.3245V63.1924L61.0842 60.2275C61.2991 59.9932 61.4807 59.7803 61.6291 59.5889C61.7776 59.3975 61.8987 59.2217 61.9924 59.0615C62.0823 58.9053 62.1467 58.7588 62.1858 58.6221C62.2288 58.4854 62.2502 58.3525 62.2502 58.2236C62.2502 58.0322 62.2229 57.8623 62.1682 57.7139C62.1135 57.5654 62.0373 57.4385 61.9397 57.333C61.8381 57.2314 61.717 57.1533 61.5764 57.0986C61.4397 57.0439 61.2873 57.0166 61.1194 57.0166C60.9006 57.0166 60.7073 57.0479 60.5393 57.1104C60.3752 57.1689 60.2385 57.2568 60.1291 57.374C60.0159 57.4951 59.9299 57.6455 59.8713 57.8252C59.8127 58.0049 59.7834 58.21 59.7834 58.4404H58.1487C58.1487 58.0615 58.2209 57.7041 58.3655 57.3682C58.51 57.0283 58.7151 56.7314 58.9807 56.4775C59.2424 56.2236 59.5588 56.0244 59.9299 55.8799C60.3049 55.7314 60.719 55.6572 61.1721 55.6572C61.6057 55.6572 61.9885 55.7178 62.3205 55.8389C62.6565 55.96 62.9377 56.1299 63.1643 56.3486C63.387 56.5674 63.5569 56.8311 63.6741 57.1396C63.7913 57.4443 63.8498 57.7822 63.8498 58.1533C63.8498 58.4346 63.8049 58.7041 63.7151 58.9619C63.6291 59.2158 63.5061 59.4678 63.3459 59.7178C63.1819 59.9678 62.9866 60.2236 62.76 60.4854C62.5334 60.7432 62.2815 61.0146 62.0041 61.2998L60.3987 62.999H64.1428V64.3057ZM71.0984 61.0596C71.0984 61.6104 71.034 62.0967 70.905 62.5186C70.78 62.9365 70.5984 63.2861 70.3601 63.5674C70.1218 63.8525 69.8308 64.0674 69.4871 64.2119C69.1433 64.3564 68.7566 64.4287 68.3269 64.4287C67.9011 64.4287 67.5164 64.3564 67.1726 64.2119C66.8289 64.0674 66.5379 63.8525 66.2996 63.5674C66.0574 63.2861 65.8699 62.9365 65.7371 62.5186C65.6082 62.0967 65.5437 61.6104 65.5437 61.0596V59.0205C65.5437 58.4697 65.6082 57.9854 65.7371 57.5674C65.866 57.1455 66.0515 56.792 66.2937 56.5068C66.532 56.2256 66.8211 56.0127 67.1609 55.8682C67.5047 55.7236 67.8894 55.6514 68.3152 55.6514C68.7449 55.6514 69.1316 55.7236 69.4754 55.8682C69.8191 56.0127 70.1121 56.2256 70.3543 56.5068C70.5925 56.792 70.7761 57.1455 70.905 57.5674C71.034 57.9854 71.0984 58.4697 71.0984 59.0205V61.0596ZM67.1843 60.3564L69.4578 58.6631C69.45 58.3428 69.4148 58.0693 69.3523 57.8428C69.2937 57.6123 69.2058 57.4287 69.0886 57.292C68.9988 57.1826 68.8875 57.1025 68.7547 57.0518C68.6258 56.9971 68.4793 56.9697 68.3152 56.9697C68.1316 56.9697 67.9695 57.0049 67.8289 57.0752C67.6922 57.1416 67.5769 57.2432 67.4832 57.3799C67.3816 57.5244 67.3054 57.7119 67.2547 57.9424C67.2078 58.1729 67.1843 58.4463 67.1843 58.7627V59.7061C67.1843 59.8936 67.1843 60.0186 67.1843 60.0811C67.1843 60.1436 67.1843 60.2354 67.1843 60.3564ZM69.4578 61.3057V60.3154C69.4578 60.1865 69.4578 60.0928 69.4578 60.0342C69.4578 59.9717 69.4578 59.8838 69.4578 59.7705L67.1843 61.458C67.1922 61.7158 67.2175 61.9443 67.2605 62.1436C67.3074 62.3428 67.3718 62.5088 67.4539 62.6416C67.5476 62.8018 67.6668 62.9209 67.8113 62.999C67.9558 63.0771 68.1277 63.1162 68.3269 63.1162C68.5105 63.1162 68.6726 63.083 68.8133 63.0166C68.9539 62.9463 69.0711 62.8408 69.1648 62.7002C69.2625 62.5518 69.3347 62.3623 69.3816 62.1318C69.4324 61.8975 69.4578 61.6221 69.4578 61.3057Z" fill="white"/>
<path d="M176.143 64.3057H170.324V63.1924L173.084 60.2275C173.299 59.9932 173.481 59.7803 173.629 59.5889C173.778 59.3975 173.899 59.2217 173.992 59.0615C174.082 58.9053 174.147 58.7588 174.186 58.6221C174.229 58.4854 174.25 58.3525 174.25 58.2236C174.25 58.0322 174.223 57.8623 174.168 57.7139C174.114 57.5654 174.037 57.4385 173.94 57.333C173.838 57.2314 173.717 57.1533 173.576 57.0986C173.44 57.0439 173.287 57.0166 173.119 57.0166C172.901 57.0166 172.707 57.0479 172.539 57.1104C172.375 57.1689 172.239 57.2568 172.129 57.374C172.016 57.4951 171.93 57.6455 171.871 57.8252C171.813 58.0049 171.783 58.21 171.783 58.4404H170.149C170.149 58.0615 170.221 57.7041 170.365 57.3682C170.51 57.0283 170.715 56.7314 170.981 56.4775C171.242 56.2236 171.559 56.0244 171.93 55.8799C172.305 55.7314 172.719 55.6572 173.172 55.6572C173.606 55.6572 173.989 55.7178 174.321 55.8389C174.656 55.96 174.938 56.1299 175.164 56.3486C175.387 56.5674 175.557 56.8311 175.674 57.1396C175.791 57.4443 175.85 57.7822 175.85 58.1533C175.85 58.4346 175.805 58.7041 175.715 58.9619C175.629 59.2158 175.506 59.4678 175.346 59.7178C175.182 59.9678 174.987 60.2236 174.76 60.4854C174.533 60.7432 174.281 61.0146 174.004 61.2998L172.399 62.999H176.143V64.3057ZM183.098 61.0596C183.098 61.6104 183.034 62.0967 182.905 62.5186C182.78 62.9365 182.598 63.2861 182.36 63.5674C182.122 63.8525 181.831 64.0674 181.487 64.2119C181.143 64.3564 180.757 64.4287 180.327 64.4287C179.901 64.4287 179.516 64.3564 179.173 64.2119C178.829 64.0674 178.538 63.8525 178.3 63.5674C178.057 63.2861 177.87 62.9365 177.737 62.5186C177.608 62.0967 177.544 61.6104 177.544 61.0596V59.0205C177.544 58.4697 177.608 57.9854 177.737 57.5674C177.866 57.1455 178.052 56.792 178.294 56.5068C178.532 56.2256 178.821 56.0127 179.161 55.8682C179.505 55.7236 179.889 55.6514 180.315 55.6514C180.745 55.6514 181.132 55.7236 181.475 55.8682C181.819 56.0127 182.112 56.2256 182.354 56.5068C182.593 56.792 182.776 57.1455 182.905 57.5674C183.034 57.9854 183.098 58.4697 183.098 59.0205V61.0596ZM179.184 60.3564L181.458 58.6631C181.45 58.3428 181.415 58.0693 181.352 57.8428C181.294 57.6123 181.206 57.4287 181.089 57.292C180.999 57.1826 180.887 57.1025 180.755 57.0518C180.626 56.9971 180.479 56.9697 180.315 56.9697C180.132 56.9697 179.97 57.0049 179.829 57.0752C179.692 57.1416 179.577 57.2432 179.483 57.3799C179.382 57.5244 179.305 57.7119 179.255 57.9424C179.208 58.1729 179.184 58.4463 179.184 58.7627V59.7061C179.184 59.8936 179.184 60.0186 179.184 60.0811C179.184 60.1436 179.184 60.2354 179.184 60.3564ZM181.458 61.3057V60.3154C181.458 60.1865 181.458 60.0928 181.458 60.0342C181.458 59.9717 181.458 59.8838 181.458 59.7705L179.184 61.458C179.192 61.7158 179.218 61.9443 179.261 62.1436C179.307 62.3428 179.372 62.5088 179.454 62.6416C179.548 62.8018 179.667 62.9209 179.811 62.999C179.956 63.0771 180.128 63.1162 180.327 63.1162C180.511 63.1162 180.673 63.083 180.813 63.0166C180.954 62.9463 181.071 62.8408 181.165 62.7002C181.262 62.5518 181.335 62.3623 181.382 62.1318C181.432 61.8975 181.458 61.6221 181.458 61.3057Z" fill="white"/>
<path d="M146.555 70.3057H144.908V63.7607L142.752 64.5342V63.1162L146.467 61.7744H146.555V70.3057ZM155.098 67.0596C155.098 67.6104 155.034 68.0967 154.905 68.5186C154.78 68.9365 154.598 69.2861 154.36 69.5674C154.122 69.8525 153.831 70.0674 153.487 70.2119C153.143 70.3564 152.757 70.4287 152.327 70.4287C151.901 70.4287 151.516 70.3564 151.173 70.2119C150.829 70.0674 150.538 69.8525 150.3 69.5674C150.057 69.2861 149.87 68.9365 149.737 68.5186C149.608 68.0967 149.544 67.6104 149.544 67.0596V65.0205C149.544 64.4697 149.608 63.9854 149.737 63.5674C149.866 63.1455 150.052 62.792 150.294 62.5068C150.532 62.2256 150.821 62.0127 151.161 61.8682C151.505 61.7236 151.889 61.6514 152.315 61.6514C152.745 61.6514 153.132 61.7236 153.475 61.8682C153.819 62.0127 154.112 62.2256 154.354 62.5068C154.593 62.792 154.776 63.1455 154.905 63.5674C155.034 63.9854 155.098 64.4697 155.098 65.0205V67.0596ZM151.184 66.3564L153.458 64.6631C153.45 64.3428 153.415 64.0693 153.352 63.8428C153.294 63.6123 153.206 63.4287 153.089 63.292C152.999 63.1826 152.887 63.1025 152.755 63.0518C152.626 62.9971 152.479 62.9697 152.315 62.9697C152.132 62.9697 151.97 63.0049 151.829 63.0752C151.692 63.1416 151.577 63.2432 151.483 63.3799C151.382 63.5244 151.305 63.7119 151.255 63.9424C151.208 64.1729 151.184 64.4463 151.184 64.7627V65.7061C151.184 65.8936 151.184 66.0186 151.184 66.0811C151.184 66.1436 151.184 66.2354 151.184 66.3564ZM153.458 67.3057V66.3154C153.458 66.1865 153.458 66.0928 153.458 66.0342C153.458 65.9717 153.458 65.8838 153.458 65.7705L151.184 67.458C151.192 67.7158 151.218 67.9443 151.261 68.1436C151.307 68.3428 151.372 68.5088 151.454 68.6416C151.548 68.8018 151.667 68.9209 151.811 68.999C151.956 69.0771 152.128 69.1162 152.327 69.1162C152.511 69.1162 152.673 69.083 152.813 69.0166C152.954 68.9463 153.071 68.8408 153.165 68.7002C153.262 68.5518 153.335 68.3623 153.382 68.1318C153.432 67.8975 153.458 67.6221 153.458 67.3057Z" fill="white"/>
<path d="M88.5549 70.3057H86.9084V63.7607L84.7522 64.5342V63.1162L88.467 61.7744H88.5549V70.3057ZM97.0984 67.0596C97.0984 67.6104 97.034 68.0967 96.905 68.5186C96.78 68.9365 96.5984 69.2861 96.3601 69.5674C96.1218 69.8525 95.8308 70.0674 95.4871 70.2119C95.1433 70.3564 94.7566 70.4287 94.3269 70.4287C93.9011 70.4287 93.5164 70.3564 93.1726 70.2119C92.8289 70.0674 92.5379 69.8525 92.2996 69.5674C92.0574 69.2861 91.8699 68.9365 91.7371 68.5186C91.6082 68.0967 91.5437 67.6104 91.5437 67.0596V65.0205C91.5437 64.4697 91.6082 63.9854 91.7371 63.5674C91.866 63.1455 92.0515 62.792 92.2937 62.5068C92.532 62.2256 92.8211 62.0127 93.1609 61.8682C93.5047 61.7236 93.8894 61.6514 94.3152 61.6514C94.7449 61.6514 95.1316 61.7236 95.4754 61.8682C95.8191 62.0127 96.1121 62.2256 96.3543 62.5068C96.5925 62.792 96.7761 63.1455 96.905 63.5674C97.034 63.9854 97.0984 64.4697 97.0984 65.0205V67.0596ZM93.1843 66.3564L95.4578 64.6631C95.45 64.3428 95.4148 64.0693 95.3523 63.8428C95.2937 63.6123 95.2058 63.4287 95.0886 63.292C94.9988 63.1826 94.8875 63.1025 94.7547 63.0518C94.6258 62.9971 94.4793 62.9697 94.3152 62.9697C94.1316 62.9697 93.9695 63.0049 93.8289 63.0752C93.6922 63.1416 93.5769 63.2432 93.4832 63.3799C93.3816 63.5244 93.3054 63.7119 93.2547 63.9424C93.2078 64.1729 93.1843 64.4463 93.1843 64.7627V65.7061C93.1843 65.8936 93.1843 66.0186 93.1843 66.0811C93.1843 66.1436 93.1843 66.2354 93.1843 66.3564ZM95.4578 67.3057V66.3154C95.4578 66.1865 95.4578 66.0928 95.4578 66.0342C95.4578 65.9717 95.4578 65.8838 95.4578 65.7705L93.1843 67.458C93.1922 67.7158 93.2175 67.9443 93.2605 68.1436C93.3074 68.3428 93.3718 68.5088 93.4539 68.6416C93.5476 68.8018 93.6668 68.9209 93.8113 68.999C93.9558 69.0771 94.1277 69.1162 94.3269 69.1162C94.5105 69.1162 94.6726 69.083 94.8133 69.0166C94.9539 68.9463 95.0711 68.8408 95.1648 68.7002C95.2625 68.5518 95.3347 68.3623 95.3816 68.1318C95.4324 67.8975 95.4578 67.6221 95.4578 67.3057Z" fill="white"/>
<path d="M223.968 23.9014L213.705 10.6712L214.491 10.0617L224.754 23.2919L223.968 23.9014Z" fill="#25CB55"/>
<path d="M212.63 32.071L203.509 18.0284L204.343 17.4869L213.463 31.5294L212.63 32.071Z" fill="#25CB55"/>
<path d="M200.643 39.2644L192.73 24.5079L193.606 24.038L201.52 38.7945L200.643 39.2644Z" fill="#25CB55"/>
<path d="M188.102 45.4295L181.451 30.0626L182.364 29.6677L189.014 45.0345L188.102 45.4295Z" fill="#25CB55"/>
<path d="M175.086 50.5228L169.744 34.6533L170.686 34.3361L176.028 50.2056L175.086 50.5228Z" fill="#25CB55"/>
<path d="M161.687 54.509L157.692 38.2482L158.658 38.011L162.652 54.2718L161.687 54.509Z" fill="#25CB55"/>
<path d="M148.003 57.3604L145.383 40.8223L146.365 40.6668L148.985 57.2048L148.003 57.3604Z" fill="#25CB55"/>
<path d="M134.128 59.0572L132.901 42.3579L133.893 42.285L135.12 58.9843L134.128 59.0572Z" fill="#25CB55"/>
<path d="M120.162 59.5864L120.337 42.843L121.331 42.8534L121.156 59.5968L120.162 59.5864Z" fill="white"/>
<path d="M106.202 58.9458L107.777 42.2757L108.767 42.3692L107.192 59.0393L106.202 58.9458Z" fill="#D0021B"/>
<path d="M92.3383 57.1388L95.3028 40.659L96.2814 40.835L93.317 57.3148L92.3383 57.1388Z" fill="#D0021B"/>
<path d="M78.6792 54.1779L83.0122 38.0039L83.9726 38.2612L79.6396 54.4352L78.6792 54.1779Z" fill="#D0021B"/>
<path d="M65.3133 50.0841L70.9846 34.3294L71.9201 34.6662L66.2488 50.4208L65.3133 50.0841Z" fill="#D0021B"/>
<path d="M52.3395 44.8871L59.3092 29.6623L60.2133 30.0762L53.2436 45.301L52.3395 44.8871Z" fill="#D0021B"/>
<path d="M39.8409 38.6216L48.0602 24.0334L48.9264 24.5215L40.7072 39.1097L39.8409 38.6216Z" fill="#D0021B"/>
<path d="M27.9141 31.3339L37.3252 17.4846L38.1476 18.0434L28.7365 31.8927L27.9141 31.3339Z" fill="#D0021B"/>
<path d="M16.6439 23.0729L27.1808 10.0597L27.9536 10.6854L17.4166 23.6986L16.6439 23.0729Z" fill="#D0021B"/>
</svg>
