<svg width="24" height="24" viewBox="0 0 24 24" fill="none" xmlns="http://www.w3.org/2000/svg">
<g clip-path="url(#clip0_231_7074)">
<mask id="mask0_231_7074" style="mask-type:luminance" maskUnits="userSpaceOnUse" x="0" y="0" width="24" height="24">
<path d="M24 0H0V24H24V0Z" fill="white"/>
</mask>
<g mask="url(#mask0_231_7074)">
<path d="M15.4149 11.9603L11.9544 15.4209L5.56726 9.03372L9.02788 5.57312L15.4149 11.9603ZM6.9273 9.03372L11.9543 14.0609L14.0549 11.9602L9.02784 6.93309L6.9273 9.03372Z" fill="white"/>
<path d="M8.70621 5.89759C8.89496 5.72704 9.18638 5.73272 9.36829 5.91464L15.0753 11.6218C15.1655 11.712 15.2161 11.8343 15.2161 11.9618C15.2161 12.0893 15.1655 12.2116 15.0753 12.3018L12.2947 15.0824C12.107 15.2702 11.8025 15.2702 11.6148 15.0824L5.90767 9.37528C5.81749 9.28511 5.76685 9.16279 5.76685 9.03527C5.76685 8.90774 5.8175 8.78542 5.90767 8.69525L8.68827 5.91464L8.70621 5.89759ZM6.9277 9.03527L11.9547 14.0624L14.0553 11.9618L9.02823 6.93464L6.9277 9.03527Z" fill="white"/>
<path d="M9.08954 11.435C9.21706 11.435 9.33938 11.4857 9.42955 11.5758L11.3194 13.4658C11.4096 13.556 11.4603 13.6783 11.4603 13.8058C11.4603 13.9254 11.4158 14.0404 11.3359 14.1286L11.3194 14.1458L9.42936 16.0358C9.33919 16.1259 9.21687 16.1766 9.08935 16.1766C8.9698 16.1766 8.85482 16.132 8.76662 16.0522L8.74934 16.0357L6.85969 14.1458C6.67194 13.958 6.67193 13.6536 6.85969 13.4658L8.74953 11.5758L8.76681 11.5594C8.85501 11.4795 8.96999 11.435 9.08954 11.435ZM7.87962 13.8058L9.08935 15.0157L10.2994 13.8057L9.08954 12.5958L7.87962 13.8058Z" fill="white"/>
<path d="M7.18842 13.3431C7.31594 13.3431 7.43825 13.3937 7.52843 13.4839L9.41832 15.3739C9.50849 15.4641 9.55919 15.5864 9.55919 15.7139C9.55918 15.8335 9.51463 15.9484 9.43475 16.0366L9.41832 16.0539L7.52824 17.9438C7.43806 18.034 7.31575 18.0847 7.18823 18.0847C7.06867 18.0847 6.9537 18.0401 6.8655 17.9602L6.84822 17.9438L4.95856 16.0539C4.77081 15.8661 4.77081 15.5617 4.95856 15.3739L6.84841 13.4839L6.86569 13.4675C6.95389 13.3876 7.06886 13.3431 7.18842 13.3431ZM5.9785 15.7139L7.18823 16.9237L8.39829 15.7138L7.18842 14.5039L5.9785 15.7139Z" fill="white"/>
<path d="M5.27942 15.2538C5.40694 15.2538 5.52926 15.3045 5.61943 15.3947L7.50932 17.2846C7.5995 17.3748 7.65019 17.4971 7.65019 17.6247C7.65018 17.7442 7.60564 17.8592 7.52576 17.9474L7.50932 17.9646L5.61924 19.8546C5.52907 19.9448 5.40675 19.9954 5.27923 19.9954C5.15968 19.9954 5.0447 19.9509 4.9565 19.871L4.93922 19.8546L3.04957 17.9646C2.86182 17.7769 2.86181 17.4724 3.04957 17.2846L4.93941 15.3947L4.95669 15.3782C5.04489 15.2984 5.15987 15.2538 5.27942 15.2538ZM4.0695 17.6246L5.27923 18.8345L6.48929 17.6246L5.27942 16.4147L4.0695 17.6246Z" fill="white"/>
<path d="M7.18842 9.52441C7.31594 9.52441 7.43825 9.57507 7.52843 9.66524L9.41832 11.5552C9.50849 11.6454 9.55919 11.7677 9.55919 11.8952C9.55918 12.0148 9.51463 12.1298 9.43475 12.218L9.41832 12.2352L7.52824 14.1252C7.43806 14.2153 7.31575 14.266 7.18823 14.266C7.06867 14.266 6.9537 14.2214 6.8655 14.1416L6.84822 14.1251L4.95856 12.2352C4.77081 12.0474 4.77081 11.743 4.95856 11.5552L6.84841 9.66524L6.86569 9.6488C6.95389 9.56893 7.06886 9.52442 7.18842 9.52441ZM5.9785 11.8952L7.18823 13.1051L8.39829 11.8951L7.18842 10.6852L5.9785 11.8952Z" fill="white"/>
<path d="M5.27942 11.4333C5.40694 11.4333 5.52926 11.4839 5.61943 11.5741L7.50932 13.4641C7.5995 13.5543 7.65019 13.6766 7.65019 13.8041C7.65018 13.9237 7.60564 14.0386 7.52576 14.1268L7.50932 14.1441L5.61924 16.0341C5.52907 16.1242 5.40675 16.1749 5.27923 16.1749C5.15968 16.1749 5.0447 16.1303 4.9565 16.0504L4.93922 16.034L3.04957 14.1441C2.86182 13.9563 2.86181 13.6519 3.04957 13.4641L4.93941 11.5741L4.95669 11.5577C5.04489 11.4778 5.15987 11.4333 5.27942 11.4333ZM4.0695 13.8041L5.27923 15.014L6.48929 13.804L5.27942 12.5941L4.0695 13.8041Z" fill="white"/>
<path d="M3.37067 13.3431C3.49819 13.3431 3.6205 13.3937 3.71068 13.4839L5.60057 15.3739C5.69075 15.4641 5.74144 15.5864 5.74144 15.7139C5.74143 15.8335 5.69688 15.9484 5.617 16.0366L5.60057 16.0539L3.71049 17.9438C3.62032 18.034 3.498 18.0847 3.37048 18.0847C3.25093 18.0847 3.13595 18.0401 3.04775 17.9602L3.03047 17.9438L1.14081 16.0539C0.953063 15.8661 0.953061 15.5617 1.14081 15.3739L3.03066 13.4839L3.04794 13.4675C3.13614 13.3876 3.25111 13.3431 3.37067 13.3431ZM2.16075 15.7139L3.37048 16.9237L4.58054 15.7138L3.37067 14.5039L2.16075 15.7139Z" fill="white"/>
<path d="M17.6221 2.90869C17.7496 2.90869 17.8719 2.95934 17.9621 3.04952L19.852 4.93949C19.9421 5.02967 19.9928 5.15198 19.9928 5.27951C19.9928 5.39907 19.9483 5.51404 19.8684 5.60225L19.852 5.61948L17.9619 7.50946C17.8717 7.59962 17.7494 7.65028 17.6219 7.65028C17.5023 7.65028 17.3874 7.60572 17.2992 7.52585L17.2819 7.50941L15.3922 5.61948C15.2045 5.4317 15.2045 5.12727 15.3922 4.93949L17.2821 3.04952L17.2993 3.03308C17.3875 2.95321 17.5025 2.90869 17.6221 2.90869ZM16.4122 5.27946L17.6219 6.48936L18.8319 5.27942L17.6221 4.06952L16.4122 5.27946Z" fill="white"/>
<path d="M15.7133 4.81757C15.8408 4.81757 15.9632 4.86822 16.0533 4.95839L17.9432 6.84837C18.0334 6.93855 18.0841 7.06085 18.0841 7.18838C18.0841 7.30795 18.0395 7.42292 17.9597 7.51112L17.9432 7.52835L16.0531 9.41833C15.963 9.5085 15.8407 9.55916 15.7131 9.55916C15.5936 9.55915 15.4786 9.51459 15.3904 9.43472L15.3731 9.41829L13.4835 7.52835C13.2957 7.34058 13.2957 7.03614 13.4835 6.84837L15.3733 4.95839L15.3906 4.94196C15.4788 4.86208 15.5938 4.81757 15.7133 4.81757ZM14.5034 7.18834L15.7131 8.39824L16.9232 7.18829L15.7133 5.97839L14.5034 7.18834Z" fill="white"/>
<path d="M13.7993 6.7265C13.9268 6.7265 14.0491 6.77715 14.1393 6.86733L16.0292 8.7573C16.1193 8.84748 16.17 8.96979 16.17 9.09732C16.17 9.21688 16.1255 9.33185 16.0456 9.42006L16.0292 9.43729L14.1391 11.3273C14.0489 11.4174 13.9266 11.4681 13.7991 11.4681C13.6795 11.4681 13.5645 11.4235 13.4763 11.3437L13.4591 11.3272L11.5694 9.43729C11.3817 9.24951 11.3817 8.94508 11.5694 8.7573L13.4592 6.86733L13.4765 6.85089C13.5647 6.77102 13.6797 6.7265 13.7993 6.7265ZM12.5893 9.09727L13.7991 10.3072L15.0091 9.09723L13.7993 7.88733L12.5893 9.09727Z" fill="white"/>
<path d="M15.7136 1C15.8411 0.999999 15.9635 1.05065 16.0536 1.14082L17.9435 3.0308C18.0337 3.12098 18.0844 3.24329 18.0844 3.37082C18.0844 3.49038 18.0398 3.60535 17.96 3.69356L17.9435 3.71079L16.0534 5.60077C15.9633 5.69093 15.841 5.74159 15.7134 5.74159C15.5939 5.74158 15.4789 5.69703 15.3907 5.61715L15.3734 5.60072L13.4838 3.71079C13.296 3.52301 13.296 3.21858 13.4838 3.0308L15.3736 1.14082L15.3909 1.12439C15.4791 1.04452 15.5941 1 15.7136 1ZM14.5037 3.37077L15.7134 4.58067L16.9235 3.37072L15.7136 2.16083L14.5037 3.37077Z" fill="white"/>
<path d="M13.7993 2.90869C13.9268 2.90869 14.0491 2.95934 14.1393 3.04952L16.0292 4.93949C16.1193 5.02967 16.17 5.15198 16.17 5.27951C16.17 5.39907 16.1255 5.51404 16.0456 5.60225L16.0292 5.61948L14.1391 7.50946C14.0489 7.59962 13.9266 7.65028 13.7991 7.65028C13.6795 7.65028 13.5645 7.60572 13.4763 7.52585L13.4591 7.50941L11.5694 5.61948C11.3817 5.4317 11.3817 5.12727 11.5694 4.93949L13.4592 3.04952L13.4765 3.03308C13.5647 2.95321 13.6797 2.90869 13.7993 2.90869ZM12.5893 5.27946L13.7991 6.48936L15.0091 5.27942L13.7993 4.06952L12.5893 5.27946Z" fill="white"/>
<path d="M11.8917 4.81757C12.0192 4.81757 12.1415 4.86822 12.2317 4.95839L14.1216 6.84837C14.2117 6.93855 14.2624 7.06085 14.2624 7.18838C14.2624 7.30795 14.2179 7.42292 14.138 7.51112L14.1216 7.52835L12.2315 9.41833C12.1413 9.5085 12.019 9.55916 11.8915 9.55916C11.7719 9.55915 11.6569 9.51459 11.5687 9.43472L11.5515 9.41829L9.66181 7.52835C9.47406 7.34058 9.47406 7.03614 9.66181 6.84837L11.5517 4.95839L11.5689 4.94196C11.6571 4.86208 11.7721 4.81757 11.8917 4.81757ZM10.6817 7.18834L11.8915 8.39824L13.1015 7.18829L11.8917 5.97839L10.6817 7.18834Z" fill="white"/>
<path d="M22.3948 12.8799C22.6583 12.8467 22.8989 13.0333 22.9321 13.2968C23.0969 14.6024 22.9607 15.9283 22.534 17.1732C22.1074 18.4178 21.4015 19.5482 20.4706 20.478L20.4707 20.4781C19.53 21.4201 18.384 22.1316 17.1225 22.5569C15.8806 22.9754 14.56 23.1055 13.2609 22.9374L13.199 22.9292L13.1746 22.9252C12.9246 22.878 12.7529 22.6425 12.7878 22.3876C12.8226 22.1327 13.0512 21.952 13.3047 21.9736L13.3293 21.9763L13.3843 21.9837C14.5385 22.133 15.7119 22.0175 16.8153 21.6456C17.9362 21.2677 18.9544 20.6356 19.7902 19.7986L19.7907 19.7981L19.8293 19.7592C20.6375 18.9405 21.2511 17.9501 21.6243 16.8613C22.0035 15.7553 22.1244 14.5772 21.978 13.4172C21.9448 13.1537 22.1314 12.9132 22.3948 12.8799Z" fill="white"/>
<path d="M18.1397 12.8875C18.3886 12.8227 18.6428 12.9653 18.7192 13.208L18.7261 13.2318L18.744 13.3032C18.9234 14.0421 18.913 14.8149 18.7131 15.5494C18.5069 16.3075 18.106 16.9985 17.5503 17.5539L17.5504 17.5539C16.9831 18.1214 16.2747 18.5273 15.4981 18.7296C14.7459 18.9255 13.9562 18.9235 13.2057 18.7243L13.1331 18.7044L13.1095 18.6971C12.8686 18.6154 12.7315 18.3582 12.8016 18.1107C12.8717 17.8632 13.1233 17.7162 13.3713 17.773L13.3953 17.7792L13.4523 17.7948C14.0427 17.9515 14.664 17.9531 15.2558 17.7989C15.8666 17.6398 16.4239 17.3205 16.8702 16.8741L16.8704 16.8739L16.9111 16.8326C17.3272 16.4029 17.6281 15.8747 17.7852 15.297C17.9424 14.7192 17.9506 14.1113 17.8095 13.5301L17.7954 13.4739L17.7897 13.4498C17.7382 13.2007 17.8907 12.9523 18.1397 12.8875Z" fill="white"/>
<path d="M20.2369 12.8824C20.4987 12.8376 20.7472 13.0136 20.7919 13.2754C20.9675 14.3026 20.8941 15.3569 20.5779 16.3499C20.2617 17.3427 19.7119 18.2452 18.9748 18.9816L18.9749 18.9816C18.2273 19.7302 17.3087 20.2854 16.2984 20.5994C15.304 20.9085 14.2501 20.9746 13.2252 20.7925L13.1765 20.7837L13.1523 20.7786C12.9048 20.7196 12.7445 20.4762 12.7914 20.2232C12.8383 19.9703 13.0753 19.8006 13.3274 19.8342L13.3519 19.8381L13.435 19.8529C14.2955 19.999 15.1788 19.9403 16.013 19.6811C16.8742 19.4134 17.6572 18.9401 18.2944 18.3021L18.2949 18.3017L18.3533 18.2424C18.9524 17.6257 19.4004 16.878 19.6616 16.0581C19.9311 15.2117 19.9937 14.313 19.844 13.4374C19.7993 13.1756 19.9752 12.9271 20.2369 12.8824Z" fill="white"/>
<path d="M15.8585 12.9418C16.0808 12.8123 16.364 12.8811 16.5031 13.0941L16.5161 13.1151L16.5416 13.16C16.8002 13.6254 16.9032 14.162 16.8349 14.6909C16.7643 15.237 16.5151 15.7444 16.126 16.1339L16.1257 16.1344C15.7212 16.5383 15.1904 16.7913 14.6219 16.8509C14.0712 16.9087 13.5174 16.7816 13.0475 16.4906L13.0023 16.4619L12.9819 16.4479C12.7758 16.2988 12.7208 16.0126 12.8609 15.7968C13.001 15.581 13.2848 15.5148 13.5049 15.6424L13.526 15.6554L13.5538 15.673C13.8427 15.8519 14.1831 15.93 14.5216 15.8945C14.8709 15.8578 15.197 15.7025 15.4456 15.4544L15.4677 15.4317C15.6941 15.1955 15.8392 14.8927 15.8812 14.5677C15.9231 14.2426 15.8598 13.913 15.7009 13.6269L15.6852 13.5994L15.6733 13.5777C15.5565 13.3518 15.6363 13.0714 15.8585 12.9418Z" fill="white"/>
</g>
</g>
<defs>
<clipPath id="clip0_231_7074">
<rect width="24" height="24" fill="white"/>
</clipPath>
</defs>
</svg>
