<?xml version="1.0" encoding="UTF-8"?>
<svg id="Layer_1" xmlns="http://www.w3.org/2000/svg" version="1.1"   width="50" height="50" viewBox="0 0 64 65">
  <!-- Generator: Adobe Illustrator 29.5.1, SVG Export Plug-In . SVG Version: 2.1.0 Build 141)  -->
  <defs>
    <style>
      .st0 {
        fill: #fff;
      }
    </style>
  </defs>
  <path class="st0" d="M41.88,32.37l-2.76-2.8,4.54-4.61.05-.05s0,0,0,0c0,0,0,0,0,0l5.46-5.55.05-.05s0,0,0,0c0,0,0,0,0,0l5.46-5.55.05-.05c.23-.26.36-.6.36-.95,0-.37-.15-.73-.41-1l-5.46-5.55s-.02-.01-.03-.02c0,0-.01-.02-.02-.03l-5.46-5.55c-.26-.26-.61-.41-.98-.41-.35,0-.68.13-.93.37l-.05.05-5.46,5.55s0,0,0,0l-.05.05-5.46,5.55s0,0,0,0l-.05.05-4.54,4.61-1.78-1.8s0,0,0,0l-.98-1-.98,1h0s-2.29,2.32-2.29,2.32l-6.74,6.84.98,1h0s1.78,1.8,1.78,1.8l-4.53,4.61s0,0,0,0c0,0,0,0,0,0l-.05.05-5.46,5.55s0,0,0,0c0,0,0,0,0,0l-.05.05-5.46,5.55c-.54.55-.54,1.45,0,2l5.46,5.55.05.05s0,0,0,0c0,0,0,0,0,0l5.46,5.55.05.05c.26.23.59.37.93.37.37,0,.72-.15.98-.41l5.46-5.55.05-.05s0,0,0,0c0,0,0,0,0,0l5.46-5.55.05-.05s0,0,0,0l4.54-4.61,1.78,1.8h0s.98,1,.98,1l10.01-10.16ZM37.95,32.37l-6.07,6.17-14.53-14.76,6.07-6.17,14.53,14.76ZM37.21,27.52l-3.5-3.55,3.5-3.55,3.5,3.55-3.5,3.55ZM42.73,21.92l-3.5-3.55,3.5-3.55,3.5,3.55-3.5,3.55ZM48.25,16.31l-3.5-3.55,3.5-3.55,3.5,3.55-3.5,3.55ZM42.73,3.6l3.5,3.55-3.5,3.55-3.5-3.55,3.5-3.55ZM37.21,9.2l3.5,3.55-3.5,3.55-3.5-3.55,3.5-3.55ZM31.69,14.81l3.5,3.55-3.5,3.55-3.5-3.55,3.5-3.55ZM18.08,28.63l3.5,3.55-3.5,3.55-3.5-3.55,3.5-3.55ZM12.56,34.24l3.5,3.55-3.5,3.55-3.5-3.55,3.5-3.55ZM7.04,39.84l3.5,3.55-3.5,3.55-3.5-3.55,3.5-3.55ZM12.56,52.55l-3.5-3.55,3.5-3.55,3.5,3.55-3.5,3.55ZM18.08,46.95l-3.5-3.55,3.5-3.55,3.5,3.55-3.5,3.55ZM23.6,41.34l-3.5-3.55,3.5-3.55,3.5,3.55-3.5,3.55Z"/>
  <path class="st0" d="M63.61,36.29c-.1-.77-.79-1.32-1.55-1.22-.76.1-1.3.8-1.21,1.58.42,3.41.07,6.87-1.02,10.11-1.08,3.2-2.85,6.11-5.19,8.51l-.11.11h0c-2.42,2.46-5.36,4.32-8.6,5.42-3.19,1.09-6.58,1.43-9.92.99l-.16-.02h-.07c-.73-.07-1.39.46-1.49,1.21-.1.75.4,1.44,1.12,1.58h.07s.18.04.18.04c3.76.49,7.57.11,11.16-1.12,3.65-1.25,6.96-3.34,9.68-6.1h0c2.69-2.73,4.73-6.05,5.97-9.7,1.23-3.66,1.63-7.55,1.15-11.38Z"/>
  <path class="st0" d="M35.21,52.16l.07.02.21.06c2.17.58,4.45.59,6.63.02,2.25-.59,4.29-1.79,5.93-3.45h0c1.61-1.63,2.77-3.66,3.36-5.89.58-2.16.61-4.43.09-6.6l-.05-.21-.02-.07c-.22-.71-.96-1.13-1.68-.94-.72.19-1.16.92-1.01,1.65l.02.07.04.16c.41,1.71.38,3.49-.07,5.19-.45,1.7-1.32,3.25-2.53,4.51l-.12.12h0c-1.29,1.31-2.9,2.25-4.67,2.72-1.71.45-3.51.45-5.21-.01l-.16-.05-.07-.02c-.72-.17-1.44.26-1.65.99-.2.73.19,1.48.89,1.72Z"/>
  <path class="st0" d="M54.69,36.71c.43,2.57.25,5.21-.53,7.7-.75,2.41-2.05,4.6-3.78,6.41l-.17.17h0c-1.84,1.87-4.11,3.26-6.6,4.05-2.41.76-4.97.93-7.45.5l-.24-.04h-.07c-.73-.11-1.41.39-1.55,1.13-.14.74.33,1.46,1.04,1.63l.07.02.14.03c2.96.53,6.01.34,8.89-.57,2.92-.92,5.58-2.55,7.74-4.75h0c2.13-2.16,3.72-4.81,4.63-7.73.91-2.92,1.13-6.01.62-9.03-.13-.77-.85-1.29-1.6-1.15-.76.13-1.27.86-1.14,1.63Z"/>
  <path class="st0" d="M42.03,42.56l-.06.07c-.72.73-1.66,1.18-2.67,1.29-.98.1-1.96-.12-2.8-.65l-.08-.05-.06-.04c-.64-.37-1.46-.18-1.86.45s-.25,1.47.35,1.91l.06.04.13.08c1.36.85,2.96,1.23,4.55,1.06,1.64-.18,3.18-.92,4.35-2.1h0c1.12-1.15,1.85-2.63,2.05-4.24.2-1.55-.1-3.13-.85-4.5l-.07-.13-.04-.06c-.4-.63-1.22-.83-1.86-.45-.64.38-.87,1.2-.54,1.87l.03.06.05.08c.46.84.64,1.81.52,2.76-.12.95-.54,1.84-1.2,2.54Z"/>
</svg>