<?xml version="1.0" encoding="UTF-8"?>
<svg id="Layer_1" xmlns="http://www.w3.org/2000/svg" version="1.1"   width="50" height="50" viewBox="0 0 64 62">
  <!-- Generator: Adobe Illustrator 29.5.1, SVG Export Plug-In . SVG Version: 2.1.0 Build 141)  -->
  <defs>
    <style>
      .st0 {
        fill: #fff;
      }
    </style>
  </defs>
  <path class="st0" d="M57.03,30.72s0,0,0-.01l6.87-3.59c-6.1-11-18.09-18.48-31.89-18.48S6.22,16.11.11,27.11l6.89,3.61s0,0,0,0l1.67.87,20.42,10.69v11.1h5.95v-11.14l4.28-2.25,17.71-9.26ZM43.7,34.23l-4.37,2.29c-1.88-1.84-4.46-3-7.33-3s-5.43,1.14-7.3,2.97l-5.38-2.83c3.08-3.7,7.73-5.91,12.73-5.91s9.65,2.21,12.73,5.91l-1.08.57ZM32.02,40.33l-4.41-2.32c1.24-.93,2.77-1.46,4.4-1.46s3.16.53,4.4,1.46l-4.38,2.32ZM47.56,32.2c-3.56-4.55-9.18-7.49-15.51-7.49s-11.98,2.96-15.54,7.52l-5.1-2.66c4.7-6.43,12.34-10.32,20.61-10.32s15.9,3.88,20.6,10.31l-5.05,2.64ZM4.48,25.95c6.1-8.88,16.38-14.28,27.52-14.28s21.42,5.4,27.52,14.28l-4.15,2.17c-5.12-7.18-13.66-11.9-23.36-11.9s-18.25,4.72-23.37,11.91l-4.17-2.18Z"/>
</svg>