<?xml version="1.0" encoding="UTF-8"?>
<svg id="Layer_1" xmlns="http://www.w3.org/2000/svg" version="1.1"   width="50" height="50"  viewBox="0 0 64 62">
  <!-- Generator: Adobe Illustrator 29.5.1, SVG Export Plug-In . SVG Version: 2.1.0 Build 141)  -->
  <defs>
    <style>
      .st0 {
        fill: #fff;
      }
    </style>
  </defs>
  <path class="st0" d="M64,32.09c0-5.42-1.58-10.48-4.33-14.78l-9.7,5.45-2.79,1.57h0l-5.66,3.18s0,0,0,0l-7.12,4v-4.3h-4.77v4.3l-8.77-4.93-4.02-2.26h0s-6.52-3.67-6.52-3.67h0s-5.98-3.36-5.98-3.36C1.58,21.6,0,26.66,0,32.08s1.58,10.48,4.33,14.78l5.98-3.36s0,0,0,0l12.18-6.85h0l7.12-4v4.3h4.77v-4.3l19.31,10.85h0s5.98,3.36,5.98,3.36c2.74-4.29,4.33-9.35,4.33-14.77ZM9.41,32.08c0-2.81.63-5.55,1.85-8.06l4.37,2.46c-.77,1.72-1.2,3.61-1.2,5.6s.44,3.89,1.21,5.61l-4.37,2.46c-1.22-2.51-1.85-5.26-1.85-8.07ZM16.94,32.08c0-1.51.3-3,.87-4.38l3.53,1.99c-.25.75-.39,1.56-.39,2.39s.14,1.64.39,2.4l-3.53,1.98c-.58-1.38-.88-2.87-.88-4.38ZM23.47,32.08c0-.38.04-.76.12-1.13l2.02,1.13-2.02,1.13c-.08-.37-.12-.75-.12-1.14ZM5.28,43.51c-1.82-3.53-2.77-7.44-2.77-11.43s.95-7.89,2.77-11.43l3.82,2.15c-1.4,2.81-2.19,5.95-2.19,9.28s.8,6.47,2.19,9.28l-3.82,2.15ZM54.59,32.09c0,2.81-.63,5.55-1.85,8.06l-4.37-2.46c.77-1.72,1.2-3.61,1.2-5.6s-.44-3.89-1.21-5.61l4.37-2.46c1.22,2.51,1.85,5.26,1.85,8.07ZM47.06,32.09c0,1.51-.3,3-.87,4.38l-3.53-1.99c.25-.75.39-1.56.39-2.39s-.14-1.64-.39-2.4l3.53-1.98c.58,1.38.88,2.87.88,4.38ZM40.53,32.09c0,.38-.04.76-.12,1.13l-1.54-.87-.48-.27,2.02-1.13c.08.37.12.75.12,1.14ZM54.9,41.37c1.4-2.81,2.19-5.95,2.19-9.28s-.8-6.47-2.2-9.28l3.82-2.15c1.82,3.53,2.77,7.44,2.77,11.43s-.95,7.89-2.77,11.43l-3.82-2.15Z"/>
</svg>