<svg width="24" height="24" viewBox="0 0 24 24" fill="none" xmlns="http://www.w3.org/2000/svg">
<mask id="path-1-inside-1_648_20149" fill="white">
<path d="M12.9131 19.2704C12.9131 20.1234 11.9137 20.5848 11.2645 20.0315L5.93852 15.4927C5.75758 15.3385 5.52763 15.2538 5.2899 15.2538H3C2.44772 15.2538 2 14.8061 2 14.2538V9.32609C2 8.7738 2.44772 8.32609 3 8.32609H6.1024C6.34013 8.32609 6.57008 8.24139 6.75102 8.0872L11.2645 4.24082C11.9137 3.68753 12.9131 4.14891 12.9131 5.00193V19.2704Z"/>
</mask>
<path d="M6.75102 8.0872L7.39964 8.84831L6.75102 8.0872ZM5.93852 15.4927L6.58714 14.7316L5.93852 15.4927ZM11.2645 20.0315L11.9131 19.2704L11.2645 20.0315ZM11.2645 20.0315L11.9131 19.2704L6.58714 14.7316L5.93852 15.4927L5.2899 16.2538L10.6158 20.7926L11.2645 20.0315ZM5.2899 15.2538V14.2538H3V15.2538V16.2538H5.2899V15.2538ZM2 14.2538H3V9.32609H2H1V14.2538H2ZM3 8.32609V9.32609H6.1024V8.32609V7.32609H3V8.32609ZM6.75102 8.0872L7.39964 8.84831L11.9131 5.00193L11.2645 4.24082L10.6158 3.47971L6.1024 7.32609L6.75102 8.0872ZM12.9131 5.00193H11.9131V19.2704H12.9131H13.9131V5.00193H12.9131ZM11.2645 4.24082L11.9131 5.00193L11.9131 5.00193H12.9131H13.9131C13.9131 3.2959 11.9143 2.37314 10.6158 3.47971L11.2645 4.24082ZM6.1024 8.32609V9.32609C6.57786 9.32609 7.03777 9.1567 7.39964 8.84831L6.75102 8.0872L6.1024 7.32609L6.1024 7.32609V8.32609ZM2 9.32609H3L3 9.32609V8.32609V7.32609C1.89543 7.32609 1 8.22152 1 9.32609H2ZM3 15.2538V14.2538L3 14.2538H2H1C1 15.3584 1.89543 16.2538 3 16.2538V15.2538ZM5.93852 15.4927L6.58714 14.7316C6.22526 14.4232 5.76536 14.2538 5.2899 14.2538V15.2538V16.2538L5.2899 16.2538L5.93852 15.4927ZM11.2645 20.0315L10.6158 20.7926C11.9143 21.8992 13.9131 20.9764 13.9131 19.2704H12.9131H11.9131L11.9131 19.2704L11.2645 20.0315Z" fill="white" mask="url(#path-1-inside-1_648_20149)"/>
<path d="M22.1034 10L16.9999 15.1034" stroke="white" stroke-linecap="round"/>
<path d="M17 10L22.1034 15.1034" stroke="white" stroke-linecap="round"/>
</svg>
