<?xml version="1.0" encoding="UTF-8"?>
<svg id="Layer_1" xmlns="http://www.w3.org/2000/svg" version="1.1"   width="50" height="50" viewBox="0 0 64 64">
  <!-- Generator: Adobe Illustrator 29.5.1, SVG Export Plug-In . SVG Version: 2.1.0 Build 141)  -->
  <defs>
    <style>
      .st0 {
        fill: #fff;
      }
    </style>
  </defs>
  <path class="st0" d="M48.9,55.3c0-.05,0-.1,0-.15l-.02-.07-8.32-31.52h2.27c.74,0,1.34-.6,1.34-1.34l.06-20.79v-.07c-.04-.71-.62-1.27-1.34-1.28-.72,0-1.3.56-1.34,1.27v.07s-.05,19.45-.05,19.45h-1.64l-3.79-14.36v-.18c.36-.16.7-.38.99-.67.62-.62.97-1.46.97-2.33h0c0-.88-.35-1.72-.97-2.33-.62-.62-1.46-.96-2.33-.96h0s0,0,0,0c0,0,0,0,0,0h0c-.87,0-1.71.35-2.33.96-.62.62-.97,1.46-.97,2.33h0s0,.09,0,.09c.02.84.37,1.65.97,2.25.29.29.63.51.99.67v.17l-12.82,48.57c-.03.12-.04.25-.04.37,0,.03-.01.05-.01.08,0,.49.26.94.69,1.17l12.87,7.13c.4.22.9.22,1.3,0l12.87-7.13c.43-.24.69-.69.69-1.17,0-.08-.02-.15-.03-.23ZM26.54,42.94l6.84,3.8v.87l-9.45,5.24,2.62-9.91ZM29.44,31.94l3.93,2.14v1.33l-5.68,3.16,1.75-6.63ZM41.74,38.57l-5.68-3.16v-1.33l3.93-2.14,1.75,6.63ZM33.38,43.68l-4.68-2.6,4.68-2.6v5.2ZM36.06,38.47l4.68,2.6-4.68,2.6v-5.2ZM36.06,31.02v-1.96l1.8.98-1.8.98ZM33.38,31.02l-1.8-.98,1.8-.98v1.96ZM36.06,46.75l6.84-3.8,2.62,9.91-9.45-5.24v-.87ZM38.83,27.52l-2.77-1.51v-8.99l2.77,10.49ZM34.28,2.91c.11-.11.25-.17.41-.18h.03s0,0,0,0h.03c.15,0,.3.07.41.18.12.11.18.27.18.43,0,.16-.07.32-.18.43-.11.11-.25.17-.41.18h-.03s0,0,0,0c-.16,0-.32-.06-.44-.18-.12-.11-.18-.27-.18-.43,0-.16.07-.32.18-.43ZM33.38,26.01l-2.77,1.51,2.77-10.49v8.99ZM33.38,50.68v9.7l-8.76-4.85,8.76-4.85ZM36.06,60.38v-9.7l8.76,4.85-8.76,4.85Z"/>
</svg>