<svg width="24" height="24" viewBox="0 0 24 24" fill="none" xmlns="http://www.w3.org/2000/svg">
<path d="M9.00014 2C10.3133 2 11.6137 2.25866 12.8269 2.76121C14.0402 3.26375 15.1425 4.00035 16.0711 4.92893C16.9997 5.85752 17.7363 6.95991 18.2388 8.17317C18.7413 9.38642 19 10.6868 19 12C19 13.3132 18.7413 14.6136 18.2388 15.8268C17.7363 17.0401 16.9997 18.1425 16.0711 19.0711C15.1425 19.9997 14.0402 20.7363 12.8269 21.2388C11.6137 21.7413 10.3133 22 9.00014 22" stroke="white" stroke-linecap="round" stroke-linejoin="round"/>
<path d="M10.2501 13.25L14.0001 15.75" stroke="white" stroke-linecap="round" stroke-linejoin="round"/>
<path d="M7.75016 9.5C8.07846 9.5 8.40354 9.56466 8.70685 9.6903C9.01016 9.81594 9.28576 10.0001 9.5179 10.2322C9.75004 10.4644 9.93419 10.74 10.0598 11.0433C10.1855 11.3466 10.2501 11.6717 10.2501 12C10.2501 12.3283 10.1855 12.6534 10.0598 12.9567C9.93419 13.26 9.75004 13.5356 9.5179 13.7678C9.28576 13.9999 9.01016 14.1841 8.70685 14.3097C8.40354 14.4353 8.07846 14.5 7.75016 14.5" stroke="white" stroke-linecap="round" stroke-linejoin="round"/>
<path d="M7.91665 14.5C7.58835 14.5 7.26327 14.4353 6.95996 14.3097C6.65665 14.1841 6.38105 13.9999 6.14891 13.7678C5.91677 13.5356 5.73262 13.26 5.60699 12.9567C5.48135 12.6534 5.41669 12.3283 5.41669 12C5.41669 11.6717 5.48135 11.3466 5.60699 11.0433C5.73262 10.74 5.91677 10.4644 6.14891 10.2322C6.38105 10.0001 6.65665 9.81594 6.95996 9.6903C7.26327 9.56466 7.58835 9.5 7.91665 9.5" stroke="white" stroke-linecap="round" stroke-linejoin="round"/>
</svg>
