<svg width="24" height="34" viewBox="0 0 24 34" fill="none" xmlns="http://www.w3.org/2000/svg">
<path d="M7 2C8.96983 2 10.9204 2.38799 12.7403 3.14181C14.5601 3.89563 16.2137 5.00052 17.6066 6.3934C18.9995 7.78628 20.1044 9.43987 20.8582 11.2598C21.612 13.0796 22 15.0302 22 17C22 18.9698 21.612 20.9204 20.8582 22.7403C20.1044 24.5601 18.9995 26.2137 17.6066 27.6066C16.2137 28.9995 14.5601 30.1044 12.7402 30.8582C10.9204 31.612 8.96982 32 6.99999 32" stroke="white" stroke-width="3" stroke-linejoin="round"/>
<path d="M8.875 18.875L14.5 22.625" stroke="white" stroke-width="3" stroke-linecap="round" stroke-linejoin="round"/>
<path d="M5.125 13.25C5.61746 13.25 6.10509 13.347 6.56006 13.5355C7.01503 13.7239 7.42843 14.0001 7.77665 14.3484C8.12487 14.6966 8.40109 15.11 8.58955 15.5649C8.778 16.0199 8.875 16.5075 8.875 17C8.875 17.4925 8.778 17.9801 8.58955 18.4351C8.40109 18.89 8.12487 19.3034 7.77665 19.6517C7.42843 19.9999 7.01503 20.2761 6.56006 20.4645C6.10509 20.653 5.61745 20.75 5.125 20.75" stroke="white" stroke-width="3" stroke-linejoin="round"/>
<path d="M5.375 20.75C4.88254 20.75 4.39491 20.653 3.93994 20.4645C3.48497 20.2761 3.07157 19.9999 2.72335 19.6516C2.37513 19.3034 2.09891 18.89 1.91045 18.4351C1.722 17.9801 1.625 17.4925 1.625 17C1.625 16.5075 1.722 16.0199 1.91045 15.5649C2.09891 15.11 2.37513 14.6966 2.72335 14.3483C3.07157 14.0001 3.48497 13.7239 3.93994 13.5355C4.39491 13.347 4.88255 13.25 5.375 13.25" stroke="white" stroke-width="3" stroke-linejoin="round"/>
</svg>
