<svg width="24" height="24" viewBox="0 0 24 24" fill="none" xmlns="http://www.w3.org/2000/svg">
<line x1="1.5" y1="12.5" x2="22.5" y2="12.5" stroke="white" stroke-linecap="round" stroke-dasharray="2 2"/>
<path fill-rule="evenodd" clip-rule="evenodd" d="M12.3041 5.16446C13.5576 5.02778 14.8113 4.89134 16.0648 4.75534C16.1642 4.74451 16.269 4.73261 16.3662 4.75469C17.2173 4.94894 18.0714 5.13013 18.917 5.35672C19.2583 5.44816 19.5975 5.55402 19.9377 5.66452L20.9671 6.00036C21.0338 5.78854 21.0904 5.57748 21.1658 5.3769C21.2569 5.13468 21.4693 5.03689 21.6828 5.1201C21.8983 5.20437 22.0275 5.45828 21.981 5.71492C21.9666 5.79497 21.9419 5.87301 21.9189 5.95036C21.3553 7.84317 20.7911 9.73643 20.2274 11.6291C19.8067 13.0408 19.386 14.4537 18.964 15.8649C18.8554 16.2274 18.6806 16.356 18.4026 16.2576C17.9161 16.0849 17.4464 16.1308 16.9828 16.315C16.2738 16.5969 15.6991 17.1068 15.2507 17.7703C14.8258 18.3994 14.4629 19.0864 14.0865 19.7582C14.0003 19.9119 13.8995 19.9644 13.7586 19.9805C13.6177 19.9965 13.5082 19.9681 13.3895 19.8376C12.8716 19.2677 12.3634 18.68 11.8079 18.1626C11.2218 17.6171 10.5473 17.2494 9.79312 17.1342C9.30004 17.059 8.83168 17.12 8.39653 17.3976C8.14785 17.556 7.94854 17.4701 7.76121 17.1413C7.03249 15.8612 6.30481 14.5791 5.5773 13.2983C4.60228 11.581 3.62691 9.86303 2.65202 8.14554C2.61224 8.07537 2.57056 8.00484 2.5385 7.93012C2.4356 7.69057 2.50411 7.41446 2.69505 7.28384C2.88432 7.15481 3.11362 7.20188 3.25685 7.41736C3.37536 7.59585 3.47804 7.78878 3.59063 7.98017L4.51781 7.42139C4.8245 7.23719 5.13148 7.0577 5.44347 6.89183C6.21634 6.48089 7.00762 6.11216 7.7931 5.73148C7.88288 5.6881 7.98795 5.67608 8.08728 5.66426C9.33921 5.5148 10.5912 5.36546 11.8433 5.2166L11.8431 5.21483C11.9089 5.20766 11.9746 5.20024 12.0404 5.19307C12.1282 5.18264 12.216 5.17241 12.3038 5.16198L12.3041 5.16446ZM12.1898 6.21066C10.8408 6.37072 9.49231 6.53422 8.14504 6.70699C7.73066 6.76016 7.3275 6.99356 6.94529 7.20289C6.0473 7.69492 5.16433 8.22276 4.27598 8.73701C4.21992 8.76955 4.1676 8.8112 4.09716 8.85991C4.13694 8.93938 4.16925 9.01202 4.20752 9.07964C5.53059 11.4096 6.85655 13.7387 8.17505 16.0721C8.27709 16.2524 8.3614 16.286 8.54025 16.2283C9.36423 15.9622 10.1787 16.0932 10.9765 16.4652C11.9274 16.9085 12.7156 17.6291 13.4417 18.4518C13.4919 18.5086 13.5426 18.5656 13.6055 18.636C13.6509 18.5531 13.6877 18.4863 13.7238 18.4196C14.2463 17.4546 14.8523 16.5753 15.6793 15.9294C16.3731 15.3874 17.137 15.0765 17.9998 15.1505C18.187 15.1665 18.2613 15.1148 18.3202 14.9162C19.0801 12.3459 19.8483 9.77808 20.6133 7.21008C20.6354 7.13564 20.6503 7.05783 20.6712 6.97154C20.5915 6.9399 20.5313 6.91111 20.4693 6.89201C19.4881 6.59077 18.5093 6.27506 17.5236 5.99765C17.1041 5.87965 16.6588 5.74296 16.2431 5.78434C14.8913 5.91908 13.5403 6.06322 12.1898 6.21066Z" fill="white"/>
</svg>
