<svg width="24" height="24" viewBox="0 0 24 24" fill="none" xmlns="http://www.w3.org/2000/svg">
<g clip-path="url(#clip0_278_11549)">
<mask id="mask0_278_11549" style="mask-type:luminance" maskUnits="userSpaceOnUse" x="0" y="0" width="24" height="24">
<path d="M24 0H0V24H24V0Z" fill="white"/>
</mask>
<g mask="url(#mask0_278_11549)">
<path d="M20.464 12.036C20.464 7.37917 16.6888 3.60402 12.032 3.60402C7.37516 3.60402 3.60001 7.37917 3.6 12.036C3.6 16.6929 7.37515 20.468 12.032 20.468C16.6888 20.468 20.464 16.6929 20.464 12.036ZM21.264 12.036C21.264 17.1347 17.1307 21.268 12.032 21.268C6.93332 21.268 2.8 17.1347 2.8 12.036C2.80001 6.93734 6.93333 2.80402 12.032 2.80402C17.1307 2.80402 21.264 6.93734 21.264 12.036Z" fill="white"/>
<path d="M15.4148 6.53838C15.5528 6.4309 15.7456 6.42532 15.8899 6.52638C16.0342 6.62746 16.095 6.81055 16.0411 6.97697L16.0356 6.99303L13.7744 13.0961C13.7313 13.2123 13.6368 13.3021 13.5185 13.339C13.4002 13.3759 13.2714 13.3559 13.1699 13.2848L10.4694 11.394C10.3679 11.3229 10.305 11.2088 10.2992 11.0849C10.2935 10.9611 10.3454 10.8416 10.4399 10.7614L15.4016 6.54912L15.4148 6.53838ZM11.3527 11.0359L13.2042 12.3322L14.7545 8.14779L11.3527 11.0359Z" fill="white"/>
<path d="M8.62001 16.9518L10.684 11.3813L13.1489 13.1072L8.62001 16.9518Z" fill="white"/>
<path d="M10.5648 10.9996C10.6831 10.9626 10.8119 10.9826 10.9134 11.0537L13.3783 12.7796L13.3877 12.7863C13.4837 12.8578 13.5428 12.9687 13.5484 13.0886C13.5542 13.2124 13.5022 13.3319 13.4077 13.4122L8.87887 17.2568C8.7402 17.3745 8.53955 17.3838 8.39055 17.2795C8.24156 17.1751 8.18173 16.9834 8.24492 16.8128L10.3089 11.2424L10.3131 11.2316C10.3579 11.1206 10.4502 11.0353 10.5648 10.9996ZM9.52594 15.658L12.4949 13.1376L10.879 12.0062L9.52594 15.658Z" fill="white"/>
<path d="M13.0574 3.96198V6.80573H12.8328L11.493 4.3819V6.80573H11.2684V3.96198H11.493L12.8348 6.3858V3.96198H13.0574Z" fill="white"/>
<path d="M11.6109 3.76196L12.6348 5.61157V3.76196H13.2574V7.00571H13.0348V7.16001L12.9494 7.00571H12.7149L11.693 5.15708V7.00571H11.0684V3.76196H11.6109ZM11.4684 4.33661L11.4713 4.33583L11.4684 4.3304V4.33661Z" fill="white"/>
<path d="M12.7426 18.646C12.7426 18.5679 12.7321 18.4989 12.7113 18.439C12.6905 18.3791 12.656 18.325 12.6078 18.2769C12.5596 18.2274 12.4945 18.1818 12.4125 18.1401C12.3304 18.0972 12.2282 18.0549 12.1058 18.0132C11.986 17.9728 11.878 17.9285 11.7816 17.8804C11.6866 17.8322 11.6045 17.7769 11.5355 17.7144C11.4678 17.6519 11.4157 17.5789 11.3793 17.4956C11.3441 17.411 11.3265 17.3127 11.3265 17.2007C11.3265 17.0913 11.3461 16.9917 11.3851 16.9019C11.4242 16.8107 11.4795 16.7326 11.5511 16.6675C11.6241 16.6024 11.7094 16.5522 11.807 16.5171C11.9047 16.4819 12.0127 16.4644 12.1312 16.4644C12.3005 16.4644 12.4463 16.5028 12.5687 16.5796C12.6924 16.6551 12.7868 16.7573 12.8519 16.8862C12.9183 17.0138 12.9515 17.1564 12.9515 17.314H12.7308C12.7308 17.1903 12.7074 17.0802 12.6605 16.9839C12.6149 16.8875 12.5472 16.812 12.4574 16.7573C12.3676 16.7013 12.2588 16.6733 12.1312 16.6733C12.0036 16.6733 11.8962 16.6974 11.809 16.7456C11.723 16.7925 11.6586 16.8556 11.6156 16.9351C11.5726 17.0132 11.5511 17.0998 11.5511 17.1948C11.5511 17.2625 11.5616 17.325 11.5824 17.3823C11.6045 17.4396 11.6397 17.4924 11.6879 17.5405C11.7373 17.5887 11.8018 17.6343 11.8812 17.6772C11.962 17.7189 12.0603 17.7586 12.1761 17.7964C12.3051 17.8368 12.4183 17.8823 12.516 17.9331C12.6149 17.9839 12.6976 18.0425 12.764 18.1089C12.8317 18.1753 12.8825 18.2521 12.9164 18.3394C12.9515 18.4266 12.9691 18.5275 12.9691 18.6421C12.9691 18.758 12.9489 18.8621 12.9086 18.9546C12.8682 19.0457 12.8109 19.1239 12.7367 19.189C12.6625 19.2528 12.5752 19.3016 12.475 19.3354C12.3747 19.3693 12.2647 19.3862 12.1449 19.3862C12.0381 19.3862 11.932 19.37 11.8265 19.3374C11.7211 19.3049 11.6247 19.2541 11.5375 19.1851C11.4502 19.116 11.3806 19.0275 11.3285 18.9194C11.2764 18.8114 11.2504 18.6825 11.2504 18.5327H11.475C11.475 18.6512 11.4945 18.7521 11.5336 18.8354C11.5726 18.9175 11.6241 18.9839 11.6879 19.0347C11.753 19.0841 11.8252 19.1206 11.9047 19.144C11.9841 19.1662 12.0642 19.1772 12.1449 19.1772C12.2673 19.1772 12.3728 19.1551 12.4613 19.1108C12.5511 19.0666 12.6202 19.0047 12.6683 18.9253C12.7178 18.8459 12.7426 18.7528 12.7426 18.646Z" fill="white"/>
<path d="M12.1312 16.2643C12.3316 16.2643 12.5157 16.3101 12.6751 16.4102H12.675C12.8287 16.5045 12.9477 16.6334 13.0293 16.7939H13.0294C13.112 16.9526 13.1515 17.1274 13.1515 17.314V17.514H12.5308V17.314C12.5308 17.2159 12.5124 17.1366 12.4807 17.0714L12.4802 17.0704L12.4797 17.0694C12.4525 17.0117 12.4145 16.968 12.3637 16.9347L12.3534 16.9281L12.3525 16.9276L12.3516 16.927C12.2995 16.8946 12.2292 16.8733 12.1312 16.8733C12.0282 16.8733 11.9561 16.8928 11.9056 16.9207L11.9052 16.9209L11.9047 16.9212C11.8498 16.9512 11.8145 16.9876 11.7915 17.0302L11.7912 17.0308L11.7908 17.0314C11.7652 17.0781 11.7512 17.1312 11.7512 17.1948C11.7512 17.2409 11.7581 17.2794 11.7697 17.3121C11.7807 17.3397 11.7989 17.3684 11.8281 17.3979C11.8607 17.4295 11.908 17.4641 11.9744 17.5002C12.0427 17.5354 12.13 17.571 12.2381 17.6062C12.3749 17.6492 12.4987 17.6987 12.6083 17.7556H12.6082C12.7214 17.8138 12.821 17.8834 12.904 17.9661H12.9041C12.9912 18.0515 13.0576 18.1515 13.1019 18.2646H13.1019C13.1485 18.3801 13.1691 18.5073 13.1691 18.6421C13.1691 18.7814 13.1448 18.9134 13.0919 19.0346L13.0917 19.0351L13.0914 19.0356C13.0394 19.153 12.9648 19.2549 12.8686 19.3393L12.8671 19.3406C12.7718 19.4225 12.6616 19.4835 12.539 19.5249C12.4156 19.5666 12.2836 19.5862 12.1449 19.5862C12.0175 19.5862 11.8915 19.5667 11.7676 19.5285C11.6383 19.4886 11.5199 19.4261 11.4134 19.3419C11.3076 19.2582 11.2236 19.1535 11.1606 19.031L11.1483 19.0063C11.0804 18.8652 11.0504 18.7052 11.0504 18.5327V18.3327H11.675V18.5327C11.675 18.6293 11.6909 18.6993 11.7142 18.7495L11.7247 18.7704C11.7497 18.8166 11.7788 18.8509 11.8109 18.8768C11.8556 18.9105 11.9049 18.9354 11.9601 18.9518C12.0218 18.9689 12.0833 18.9772 12.1449 18.9772C12.2434 18.9772 12.3169 18.9594 12.3719 18.932L12.3724 18.9317L12.3729 18.9314C12.4313 18.9026 12.4705 18.8659 12.4973 18.8216L12.4986 18.8195C12.5256 18.7761 12.5426 18.7208 12.5426 18.646C12.5426 18.5852 12.5344 18.5392 12.5224 18.5047C12.5122 18.4753 12.4948 18.4467 12.4664 18.4182L12.4654 18.4173L12.4645 18.4164C12.4358 18.3869 12.3904 18.3533 12.3219 18.3184L12.3208 18.3179L12.3197 18.3173C12.2495 18.2805 12.1575 18.242 12.0414 18.2025V18.2025C11.9145 18.1597 11.7979 18.1121 11.6922 18.0592L11.6917 18.059L11.6912 18.0588C11.5825 18.0037 11.4852 17.9386 11.4013 17.8626L11.4006 17.862L11.3999 17.8613C11.3176 17.7854 11.2523 17.6966 11.2052 17.596L11.196 17.5757L11.1953 17.574L11.1946 17.5723C11.1474 17.4586 11.1265 17.3333 11.1265 17.2007C11.1265 17.0674 11.1504 16.9406 11.2013 16.8231L11.211 16.8013C11.2604 16.6936 11.3291 16.5991 11.4166 16.5195L11.4173 16.5189L11.4179 16.5183C11.5111 16.4351 11.619 16.3722 11.7393 16.3289C11.8615 16.2849 11.9929 16.2643 12.1312 16.2643Z" fill="white"/>
<path d="M5.44223 12.3648L5.952 10.275H6.12778L5.99496 10.9L5.45004 13.1187H5.28207L5.44223 12.3648ZM4.86215 10.275L5.28598 12.3453L5.41489 13.1187H5.23911L4.63364 10.275H4.86215ZM6.80942 12.3433L7.22934 10.275H7.4559L6.85239 13.1187H6.67661L6.80942 12.3433ZM6.14926 10.275L6.65121 12.3648L6.80942 13.1187H6.6395L6.10825 10.9L5.97543 10.275H6.14926Z" fill="white"/>
<path d="M5.02536 10.075L5.37649 11.7903L5.7577 10.2276L5.75938 10.2206L5.72848 10.075H6.37473L6.34286 10.2249L6.34371 10.2283L6.71817 11.7874L7.06586 10.075H7.70282L7.03516 13.2207L7.05575 13.3188H6.43942L6.45704 13.2157L6.04985 11.515L5.63313 13.2117L5.65098 13.3188H5.03512L5.05614 13.2199L4.38657 10.075H5.02536Z" fill="white"/>
<path d="M19.5093 12.9097V13.1187H18.1812V12.9097H19.5093ZM18.2417 10.275V13.1187H18.0191V10.275H18.2417ZM19.3433 11.5484V11.7574H18.1812V11.5484H19.3433ZM19.4996 10.275V10.4839H18.1812V10.275H19.4996Z" fill="white"/>
<path d="M19.6996 10.075V10.684H18.4417V11.3484H19.5433V11.9574H18.4417V12.7098H19.7093V13.3188H17.8191V10.075H19.6996Z" fill="white"/>
</g>
</g>
<defs>
<clipPath id="clip0_278_11549">
<rect width="24" height="24" fill="white"/>
</clipPath>
</defs>
</svg>
